%TF.GenerationSoftware,KiCad,Pcbnew,(6.0.1)*%
%TF.CreationDate,2023-02-05T21:43:02-08:00*%
%TF.ProjectId,Main-PcbDoc,4d61696e-2d50-4636-9244-6f632e6b6963,rev?*%
%TF.SameCoordinates,Original*%
%TF.FileFunction,Copper,L1,Top*%
%TF.FilePolarity,Positive*%
%FSLAX46Y46*%
G04 Gerber Fmt 4.6, Leading zero omitted, Abs format (unit mm)*
G04 Created by KiCad (PCBNEW (6.0.1)) date 2023-02-05 21:43:02*
%MOMM*%
%LPD*%
G01*
G04 APERTURE LIST*
%TA.AperFunction,ComponentPad*%
%ADD10C,1.778000*%
%TD*%
%TA.AperFunction,ComponentPad*%
%ADD11C,2.286000*%
%TD*%
%TA.AperFunction,ComponentPad*%
%ADD12C,6.350000*%
%TD*%
G04 APERTURE END LIST*
D10*
%TO.P,,0*%
%TO.N,N/C*%
X31750000Y41910000D03*
%TO.P,,1*%
X31750000Y39370000D03*
%TO.P,,19*%
X26670000Y41910000D03*
%TO.P,,20*%
X29210000Y41910000D03*
%TO.P,,21*%
X26670000Y39370000D03*
%TO.P,,22*%
X26670000Y36830000D03*
%TO.P,,23*%
X29210000Y39370000D03*
%TO.P,,0*%
X31750000Y49530000D03*
%TO.P,,1*%
X31750000Y46990000D03*
%TO.P,,19*%
X26670000Y49530000D03*
%TO.P,,20*%
X29210000Y49530000D03*
%TO.P,,21*%
X26670000Y46990000D03*
%TO.P,,22*%
X26670000Y44450000D03*
%TO.P,,23*%
X29210000Y46990000D03*
%TO.P,,24*%
X29210000Y44450000D03*
%TO.P,,25*%
X31750000Y44450000D03*
%TO.P,,0*%
X31750000Y57150000D03*
%TO.P,,1*%
X31750000Y54610000D03*
%TO.P,,19*%
X26670000Y57150000D03*
%TO.P,,20*%
X29210000Y57150000D03*
%TO.P,,21*%
X26670000Y54610000D03*
%TO.P,,22*%
X26670000Y52070000D03*
%TO.P,,23*%
X29210000Y54610000D03*
%TO.P,,24*%
X29210000Y52070000D03*
%TO.P,,25*%
X31750000Y52070000D03*
%TO.P,,0*%
X31750000Y64770000D03*
%TO.P,,1*%
X31750000Y62230000D03*
%TO.P,,19*%
X26670000Y64770000D03*
%TO.P,,20*%
X29210000Y64770000D03*
%TO.P,,21*%
X26670000Y62230000D03*
%TO.P,,22*%
X26670000Y59690000D03*
%TO.P,,23*%
X29210000Y62230000D03*
%TO.P,,24*%
X29210000Y59690000D03*
%TO.P,,25*%
X31750000Y59690000D03*
%TO.P,,0*%
X31750000Y72390000D03*
%TO.P,,1*%
X31750000Y69850000D03*
%TO.P,,19*%
X26670000Y72390000D03*
%TO.P,,20*%
X29210000Y72390000D03*
%TO.P,,21*%
X26670000Y69850000D03*
%TO.P,,22*%
X26670000Y67310000D03*
%TO.P,,23*%
X29210000Y69850000D03*
%TO.P,,24*%
X29210000Y67310000D03*
%TO.P,,25*%
X31750000Y67310000D03*
%TO.P,,0*%
X31750000Y80010000D03*
%TO.P,,1*%
X31750000Y77470000D03*
%TO.P,,19*%
X26670000Y80010000D03*
%TO.P,,20*%
X29210000Y80010000D03*
%TO.P,,21*%
X26670000Y77470000D03*
%TO.P,,22*%
X26670000Y74930000D03*
%TO.P,,23*%
X29210000Y77470000D03*
%TO.P,,24*%
X29210000Y74930000D03*
%TO.P,,25*%
X31750000Y74930000D03*
X31750000Y82550000D03*
%TO.P,,24*%
X29210000Y82550000D03*
%TO.P,,23*%
X29210000Y85090000D03*
%TO.P,,22*%
X26670000Y82550000D03*
%TO.P,,21*%
X26670000Y85090000D03*
%TO.P,,20*%
X29210000Y87630000D03*
%TO.P,,19*%
X26670000Y87630000D03*
%TO.P,,1*%
X31750000Y85090000D03*
%TO.P,,0*%
X31750000Y87630000D03*
%TO.P,,16*%
X34290000Y29210000D03*
X36830000Y34290000D03*
%TO.P,,17*%
X39370000Y34290000D03*
%TO.P,,18*%
X41910000Y34290000D03*
%TO.P,,19*%
X44450000Y34290000D03*
%TO.P,,20*%
X46990000Y34290000D03*
%TO.P,,21*%
X49530000Y34290000D03*
%TO.P,,22*%
X52070000Y34290000D03*
%TO.P,,15*%
X57150000Y34290000D03*
%TO.P,,14*%
X54610000Y34290000D03*
X54610000Y31750000D03*
%TO.P,,15*%
X57150000Y31750000D03*
%TO.P,,22*%
X52070000Y31750000D03*
%TO.P,,21*%
X49530000Y31750000D03*
%TO.P,,20*%
X46990000Y31750000D03*
%TO.P,,19*%
X44450000Y31750000D03*
%TO.P,,18*%
X41910000Y31750000D03*
%TO.P,,17*%
X39370000Y31750000D03*
%TO.P,,16*%
X36830000Y31750000D03*
%TO.P,,14*%
X54610000Y29210000D03*
%TO.P,,15*%
X57150000Y29210000D03*
%TO.P,,22*%
X52070000Y29210000D03*
%TO.P,,21*%
X49530000Y29210000D03*
%TO.P,,20*%
X46990000Y29210000D03*
%TO.P,,19*%
X44450000Y29210000D03*
%TO.P,,18*%
X41910000Y29210000D03*
%TO.P,,17*%
X39370000Y29210000D03*
%TO.P,,16*%
X36830000Y29210000D03*
%TO.P,,15*%
X34290000Y125730000D03*
%TO.P,,14*%
X57150000Y123190000D03*
%TO.P,,22*%
X54610000Y123190000D03*
%TO.P,,21*%
X52070000Y123190000D03*
%TO.P,,20*%
X49530000Y123190000D03*
%TO.P,,19*%
X46990000Y123190000D03*
%TO.P,,18*%
X44450000Y123190000D03*
%TO.P,,17*%
X41910000Y123190000D03*
%TO.P,,16*%
X39370000Y123190000D03*
%TO.P,,15*%
X36830000Y123190000D03*
X36830000Y125730000D03*
%TO.P,,16*%
X39370000Y125730000D03*
%TO.P,,17*%
X41910000Y125730000D03*
%TO.P,,18*%
X44450000Y125730000D03*
%TO.P,,19*%
X46990000Y125730000D03*
%TO.P,,20*%
X49530000Y125730000D03*
%TO.P,,21*%
X52070000Y125730000D03*
%TO.P,,22*%
X54610000Y125730000D03*
%TO.P,,14*%
X57150000Y125730000D03*
%TO.P,,15*%
X36830000Y120650000D03*
%TO.P,,16*%
X39370000Y120650000D03*
%TO.P,,17*%
X41910000Y120650000D03*
%TO.P,,18*%
X44450000Y120650000D03*
%TO.P,,19*%
X46990000Y120650000D03*
%TO.P,,20*%
X49530000Y120650000D03*
%TO.P,,21*%
X52070000Y120650000D03*
%TO.P,,22*%
X54610000Y120650000D03*
%TO.P,,14*%
X57150000Y120650000D03*
X102870000Y120650000D03*
%TO.P,,15*%
X105410000Y120650000D03*
%TO.P,,16*%
X107950000Y120650000D03*
%TO.P,,17*%
X110490000Y120650000D03*
%TO.P,,18*%
X113030000Y120650000D03*
%TO.P,,14*%
X80010000Y120650000D03*
%TO.P,,15*%
X82550000Y120650000D03*
%TO.P,,16*%
X85090000Y120650000D03*
%TO.P,,17*%
X87630000Y120650000D03*
%TO.P,,18*%
X90170000Y120650000D03*
%TO.P,,19*%
X92710000Y120650000D03*
%TO.P,,20*%
X95250000Y120650000D03*
%TO.P,,21*%
X97790000Y120650000D03*
%TO.P,,22*%
X100330000Y120650000D03*
X77470000Y120650000D03*
%TO.P,,21*%
X74930000Y120650000D03*
%TO.P,,20*%
X72390000Y120650000D03*
%TO.P,,19*%
X69850000Y120650000D03*
%TO.P,,18*%
X67310000Y120650000D03*
%TO.P,,17*%
X64770000Y120650000D03*
%TO.P,,16*%
X62230000Y120650000D03*
%TO.P,,15*%
X59690000Y120650000D03*
%TO.P,,14*%
X52070000Y87630000D03*
%TO.P,,15*%
X54610000Y87630000D03*
%TO.P,,16*%
X57150000Y87630000D03*
%TO.P,,22*%
X49530000Y87630000D03*
%TO.P,,21*%
X46990000Y87630000D03*
%TO.P,,20*%
X44450000Y87630000D03*
%TO.P,,19*%
X41910000Y87630000D03*
%TO.P,,18*%
X39370000Y87630000D03*
%TO.P,,17*%
X36830000Y87630000D03*
%TO.P,,16*%
X34290000Y87630000D03*
%TO.P,,14*%
X52070000Y85090000D03*
%TO.P,,15*%
X54610000Y85090000D03*
%TO.P,,16*%
X57150000Y85090000D03*
%TO.P,,22*%
X49530000Y85090000D03*
%TO.P,,21*%
X46990000Y85090000D03*
%TO.P,,20*%
X44450000Y85090000D03*
%TO.P,,19*%
X41910000Y85090000D03*
%TO.P,,18*%
X39370000Y85090000D03*
%TO.P,,17*%
X36830000Y85090000D03*
%TO.P,,16*%
X34290000Y85090000D03*
%TO.P,,14*%
X52070000Y69850000D03*
%TO.P,,15*%
X54610000Y69850000D03*
%TO.P,,16*%
X57150000Y69850000D03*
%TO.P,,22*%
X49530000Y69850000D03*
%TO.P,,21*%
X46990000Y69850000D03*
%TO.P,,20*%
X44450000Y69850000D03*
%TO.P,,19*%
X41910000Y69850000D03*
%TO.P,,18*%
X39370000Y69850000D03*
%TO.P,,17*%
X36830000Y69850000D03*
%TO.P,,16*%
X34290000Y69850000D03*
%TO.P,,14*%
X52070000Y67310000D03*
%TO.P,,15*%
X54610000Y67310000D03*
%TO.P,,16*%
X57150000Y67310000D03*
%TO.P,,22*%
X49530000Y67310000D03*
%TO.P,,21*%
X46990000Y67310000D03*
%TO.P,,20*%
X44450000Y67310000D03*
%TO.P,,19*%
X41910000Y67310000D03*
%TO.P,,18*%
X39370000Y67310000D03*
%TO.P,,17*%
X36830000Y67310000D03*
%TO.P,,16*%
X34290000Y67310000D03*
%TO.P,,26*%
X39370000Y72390000D03*
X36830000Y72390000D03*
X34290000Y72390000D03*
%TO.P,,27*%
X39370000Y74930000D03*
%TO.P,,28*%
X39370000Y77470000D03*
%TO.P,,29*%
X39370000Y80010000D03*
%TO.P,,30*%
X39370000Y82550000D03*
%TO.P,,27*%
X36830000Y74930000D03*
%TO.P,,28*%
X36830000Y77470000D03*
%TO.P,,29*%
X36830000Y80010000D03*
%TO.P,,30*%
X36830000Y82550000D03*
%TO.P,,27*%
X34290000Y74930000D03*
%TO.P,,28*%
X34290000Y77470000D03*
%TO.P,,29*%
X34290000Y80010000D03*
%TO.P,,30*%
X34290000Y82550000D03*
%TO.P,,26*%
X39370000Y54610000D03*
X36830000Y54610000D03*
X34290000Y54610000D03*
%TO.P,,27*%
X39370000Y57150000D03*
%TO.P,,28*%
X39370000Y59690000D03*
%TO.P,,29*%
X39370000Y62230000D03*
%TO.P,,30*%
X39370000Y64770000D03*
%TO.P,,27*%
X36830000Y57150000D03*
%TO.P,,28*%
X36830000Y59690000D03*
%TO.P,,29*%
X36830000Y62230000D03*
%TO.P,,30*%
X36830000Y64770000D03*
%TO.P,,27*%
X34290000Y57150000D03*
%TO.P,,28*%
X34290000Y59690000D03*
%TO.P,,29*%
X34290000Y62230000D03*
%TO.P,,30*%
X34290000Y64770000D03*
%TO.P,,26*%
X39370000Y36830000D03*
X36830000Y36830000D03*
X34290000Y36830000D03*
%TO.P,,27*%
X39370000Y39370000D03*
%TO.P,,28*%
X39370000Y41910000D03*
%TO.P,,29*%
X39370000Y44450000D03*
%TO.P,,30*%
X39370000Y46990000D03*
%TO.P,,27*%
X36830000Y39370000D03*
%TO.P,,28*%
X36830000Y41910000D03*
%TO.P,,29*%
X36830000Y44450000D03*
%TO.P,,30*%
X36830000Y46990000D03*
%TO.P,,27*%
X34290000Y39370000D03*
%TO.P,,28*%
X34290000Y41910000D03*
%TO.P,,29*%
X34290000Y44450000D03*
%TO.P,,30*%
X34290000Y46990000D03*
%TO.P,,26*%
X57150000Y36830000D03*
X54610000Y36830000D03*
X52070000Y36830000D03*
X49530000Y36830000D03*
X46990000Y36830000D03*
X44450000Y36830000D03*
X41910000Y36830000D03*
%TO.P,,27*%
X57150000Y39370000D03*
%TO.P,,28*%
X57150000Y41910000D03*
%TO.P,,29*%
X57150000Y44450000D03*
%TO.P,,30*%
X57150000Y46990000D03*
%TO.P,,27*%
X54610000Y39370000D03*
%TO.P,,28*%
X54610000Y41910000D03*
%TO.P,,29*%
X54610000Y44450000D03*
%TO.P,,30*%
X54610000Y46990000D03*
%TO.P,,27*%
X52070000Y39370000D03*
%TO.P,,28*%
X52070000Y41910000D03*
%TO.P,,29*%
X52070000Y44450000D03*
%TO.P,,30*%
X52070000Y46990000D03*
%TO.P,,27*%
X49530000Y39370000D03*
%TO.P,,28*%
X49530000Y41910000D03*
%TO.P,,29*%
X49530000Y44450000D03*
%TO.P,,30*%
X49530000Y46990000D03*
%TO.P,,27*%
X46990000Y39370000D03*
%TO.P,,28*%
X46990000Y41910000D03*
%TO.P,,29*%
X46990000Y44450000D03*
%TO.P,,30*%
X46990000Y46990000D03*
%TO.P,,27*%
X44450000Y39370000D03*
%TO.P,,28*%
X44450000Y41910000D03*
%TO.P,,29*%
X44450000Y44450000D03*
%TO.P,,30*%
X44450000Y46990000D03*
X41910000Y46990000D03*
%TO.P,,29*%
X41910000Y44450000D03*
%TO.P,,28*%
X41910000Y41910000D03*
%TO.P,,27*%
X41910000Y39370000D03*
%TO.P,,26*%
X57150000Y54610000D03*
X54610000Y54610000D03*
X52070000Y54610000D03*
X49530000Y54610000D03*
X46990000Y54610000D03*
X44450000Y54610000D03*
X41910000Y54610000D03*
%TO.P,,27*%
X57150000Y57150000D03*
%TO.P,,28*%
X57150000Y59690000D03*
%TO.P,,29*%
X57150000Y62230000D03*
%TO.P,,30*%
X57150000Y64770000D03*
%TO.P,,27*%
X54610000Y57150000D03*
%TO.P,,28*%
X54610000Y59690000D03*
%TO.P,,29*%
X54610000Y62230000D03*
%TO.P,,30*%
X54610000Y64770000D03*
%TO.P,,27*%
X52070000Y57150000D03*
%TO.P,,28*%
X52070000Y59690000D03*
%TO.P,,29*%
X52070000Y62230000D03*
%TO.P,,30*%
X52070000Y64770000D03*
%TO.P,,27*%
X49530000Y57150000D03*
%TO.P,,28*%
X49530000Y59690000D03*
%TO.P,,29*%
X49530000Y62230000D03*
%TO.P,,30*%
X49530000Y64770000D03*
%TO.P,,27*%
X46990000Y57150000D03*
%TO.P,,28*%
X46990000Y59690000D03*
%TO.P,,29*%
X46990000Y62230000D03*
%TO.P,,30*%
X46990000Y64770000D03*
%TO.P,,27*%
X44450000Y57150000D03*
%TO.P,,28*%
X44450000Y59690000D03*
%TO.P,,29*%
X44450000Y62230000D03*
%TO.P,,30*%
X44450000Y64770000D03*
X41910000Y64770000D03*
%TO.P,,29*%
X41910000Y62230000D03*
%TO.P,,28*%
X41910000Y59690000D03*
%TO.P,,27*%
X41910000Y57150000D03*
%TO.P,,26*%
X57150000Y72390000D03*
X54610000Y72390000D03*
X52070000Y72390000D03*
X49530000Y72390000D03*
X46990000Y72390000D03*
X44450000Y72390000D03*
X41910000Y72390000D03*
%TO.P,,27*%
X57150000Y74930000D03*
%TO.P,,28*%
X57150000Y77470000D03*
%TO.P,,29*%
X57150000Y80010000D03*
%TO.P,,30*%
X57150000Y82550000D03*
%TO.P,,27*%
X54610000Y74930000D03*
%TO.P,,28*%
X54610000Y77470000D03*
%TO.P,,29*%
X54610000Y80010000D03*
%TO.P,,30*%
X54610000Y82550000D03*
%TO.P,,27*%
X52070000Y74930000D03*
%TO.P,,28*%
X52070000Y77470000D03*
%TO.P,,29*%
X52070000Y80010000D03*
%TO.P,,30*%
X52070000Y82550000D03*
%TO.P,,27*%
X49530000Y74930000D03*
%TO.P,,28*%
X49530000Y77470000D03*
%TO.P,,29*%
X49530000Y80010000D03*
%TO.P,,30*%
X49530000Y82550000D03*
%TO.P,,27*%
X46990000Y74930000D03*
%TO.P,,28*%
X46990000Y77470000D03*
%TO.P,,29*%
X46990000Y80010000D03*
%TO.P,,30*%
X46990000Y82550000D03*
%TO.P,,27*%
X44450000Y74930000D03*
%TO.P,,28*%
X44450000Y77470000D03*
%TO.P,,29*%
X44450000Y80010000D03*
%TO.P,,30*%
X44450000Y82550000D03*
X41910000Y82550000D03*
%TO.P,,29*%
X41910000Y80010000D03*
%TO.P,,28*%
X41910000Y77470000D03*
%TO.P,,27*%
X41910000Y74930000D03*
%TO.P,,26*%
X57150000Y90170000D03*
X54610000Y90170000D03*
X52070000Y90170000D03*
X49530000Y90170000D03*
X46990000Y90170000D03*
X44450000Y90170000D03*
%TO.P,,27*%
X57150000Y92710000D03*
%TO.P,,28*%
X57150000Y95250000D03*
%TO.P,,29*%
X57150000Y97790000D03*
%TO.P,,30*%
X57150000Y100330000D03*
%TO.P,,27*%
X54610000Y92710000D03*
%TO.P,,28*%
X54610000Y95250000D03*
%TO.P,,29*%
X54610000Y97790000D03*
%TO.P,,30*%
X54610000Y100330000D03*
%TO.P,,27*%
X52070000Y92710000D03*
%TO.P,,28*%
X52070000Y95250000D03*
%TO.P,,29*%
X52070000Y97790000D03*
%TO.P,,30*%
X52070000Y100330000D03*
%TO.P,,27*%
X49530000Y92710000D03*
%TO.P,,28*%
X49530000Y95250000D03*
%TO.P,,29*%
X49530000Y97790000D03*
%TO.P,,30*%
X49530000Y100330000D03*
%TO.P,,27*%
X46990000Y92710000D03*
%TO.P,,28*%
X46990000Y95250000D03*
%TO.P,,29*%
X46990000Y97790000D03*
%TO.P,,30*%
X46990000Y100330000D03*
%TO.P,,27*%
X44450000Y92710000D03*
%TO.P,,28*%
X44450000Y95250000D03*
%TO.P,,29*%
X44450000Y97790000D03*
%TO.P,,30*%
X44450000Y100330000D03*
%TO.P,,26*%
X57150000Y107950000D03*
X54610000Y107950000D03*
X52070000Y107950000D03*
X49530000Y107950000D03*
X46990000Y107950000D03*
X44450000Y107950000D03*
%TO.P,,27*%
X57150000Y110490000D03*
%TO.P,,28*%
X57150000Y113030000D03*
%TO.P,,29*%
X57150000Y115570000D03*
%TO.P,,30*%
X57150000Y118110000D03*
%TO.P,,27*%
X54610000Y110490000D03*
%TO.P,,28*%
X54610000Y113030000D03*
%TO.P,,29*%
X54610000Y115570000D03*
%TO.P,,30*%
X54610000Y118110000D03*
%TO.P,,27*%
X52070000Y110490000D03*
%TO.P,,28*%
X52070000Y113030000D03*
%TO.P,,29*%
X52070000Y115570000D03*
%TO.P,,30*%
X52070000Y118110000D03*
%TO.P,,27*%
X49530000Y110490000D03*
%TO.P,,28*%
X49530000Y113030000D03*
%TO.P,,29*%
X49530000Y115570000D03*
%TO.P,,30*%
X49530000Y118110000D03*
%TO.P,,27*%
X46990000Y110490000D03*
%TO.P,,28*%
X46990000Y113030000D03*
%TO.P,,29*%
X46990000Y115570000D03*
%TO.P,,30*%
X46990000Y118110000D03*
%TO.P,,27*%
X44450000Y110490000D03*
%TO.P,,28*%
X44450000Y113030000D03*
%TO.P,,29*%
X44450000Y115570000D03*
%TO.P,,30*%
X44450000Y118110000D03*
D11*
%TO.P,,36*%
X123190000Y39370000D03*
D10*
%TO.P,,35*%
X120650000Y39370000D03*
%TO.P,,34*%
X118110000Y39370000D03*
X118110000Y41910000D03*
%TO.P,,35*%
X120650000Y41910000D03*
D11*
%TO.P,,36*%
X123190000Y41910000D03*
D10*
%TO.P,,34*%
X118110000Y44450000D03*
%TO.P,,35*%
X120650000Y44450000D03*
D11*
%TO.P,,36*%
X123190000Y44450000D03*
D10*
%TO.P,,34*%
X118110000Y46990000D03*
%TO.P,,35*%
X120650000Y46990000D03*
D11*
%TO.P,,36*%
X123190000Y46990000D03*
D10*
%TO.P,,16*%
X59690000Y29210000D03*
%TO.P,,17*%
X62230000Y29210000D03*
%TO.P,,18*%
X64770000Y29210000D03*
%TO.P,,19*%
X67310000Y29210000D03*
%TO.P,,20*%
X69850000Y29210000D03*
%TO.P,,21*%
X72390000Y29210000D03*
%TO.P,,22*%
X74930000Y29210000D03*
X97790000Y29210000D03*
%TO.P,,21*%
X95250000Y29210000D03*
%TO.P,,20*%
X92710000Y29210000D03*
%TO.P,,19*%
X90170000Y29210000D03*
%TO.P,,18*%
X87630000Y29210000D03*
%TO.P,,17*%
X85090000Y29210000D03*
%TO.P,,16*%
X82550000Y29210000D03*
%TO.P,,15*%
X80010000Y29210000D03*
%TO.P,,14*%
X77470000Y29210000D03*
%TO.P,,19*%
X113030000Y29210000D03*
%TO.P,,18*%
X110490000Y29210000D03*
%TO.P,,17*%
X107950000Y29210000D03*
%TO.P,,16*%
X105410000Y29210000D03*
%TO.P,,15*%
X102870000Y29210000D03*
%TO.P,,14*%
X100330000Y29210000D03*
%TO.P,,16*%
X59690000Y31750000D03*
%TO.P,,17*%
X62230000Y31750000D03*
%TO.P,,18*%
X64770000Y31750000D03*
%TO.P,,19*%
X67310000Y31750000D03*
%TO.P,,20*%
X69850000Y31750000D03*
%TO.P,,21*%
X72390000Y31750000D03*
%TO.P,,22*%
X74930000Y31750000D03*
X97790000Y31750000D03*
%TO.P,,21*%
X95250000Y31750000D03*
%TO.P,,20*%
X92710000Y31750000D03*
%TO.P,,19*%
X90170000Y31750000D03*
%TO.P,,18*%
X87630000Y31750000D03*
%TO.P,,17*%
X85090000Y31750000D03*
%TO.P,,16*%
X82550000Y31750000D03*
%TO.P,,15*%
X80010000Y31750000D03*
%TO.P,,14*%
X77470000Y31750000D03*
%TO.P,,19*%
X113030000Y31750000D03*
%TO.P,,18*%
X110490000Y31750000D03*
%TO.P,,17*%
X107950000Y31750000D03*
%TO.P,,16*%
X105410000Y31750000D03*
%TO.P,,15*%
X102870000Y31750000D03*
%TO.P,,14*%
X100330000Y31750000D03*
%TO.P,,26*%
X113030000Y72390000D03*
%TO.P,,27*%
X113030000Y74930000D03*
%TO.P,,28*%
X113030000Y77470000D03*
%TO.P,,29*%
X113030000Y80010000D03*
%TO.P,,30*%
X113030000Y82550000D03*
%TO.P,,26*%
X110490000Y72390000D03*
%TO.P,,27*%
X110490000Y74930000D03*
%TO.P,,28*%
X110490000Y77470000D03*
%TO.P,,29*%
X110490000Y80010000D03*
%TO.P,,30*%
X110490000Y82550000D03*
%TO.P,,26*%
X107950000Y72390000D03*
%TO.P,,27*%
X107950000Y74930000D03*
%TO.P,,28*%
X107950000Y77470000D03*
%TO.P,,29*%
X107950000Y80010000D03*
%TO.P,,30*%
X107950000Y82550000D03*
%TO.P,,26*%
X105410000Y72390000D03*
%TO.P,,27*%
X105410000Y74930000D03*
%TO.P,,28*%
X105410000Y77470000D03*
%TO.P,,29*%
X105410000Y80010000D03*
%TO.P,,30*%
X105410000Y82550000D03*
%TO.P,,26*%
X102870000Y72390000D03*
%TO.P,,27*%
X102870000Y74930000D03*
%TO.P,,28*%
X102870000Y77470000D03*
%TO.P,,29*%
X102870000Y80010000D03*
%TO.P,,30*%
X102870000Y82550000D03*
%TO.P,,26*%
X100330000Y72390000D03*
%TO.P,,27*%
X100330000Y74930000D03*
%TO.P,,28*%
X100330000Y77470000D03*
%TO.P,,29*%
X100330000Y80010000D03*
%TO.P,,30*%
X100330000Y82550000D03*
%TO.P,,26*%
X97790000Y72390000D03*
%TO.P,,27*%
X97790000Y74930000D03*
%TO.P,,28*%
X97790000Y77470000D03*
%TO.P,,29*%
X97790000Y80010000D03*
%TO.P,,30*%
X97790000Y82550000D03*
%TO.P,,26*%
X95250000Y72390000D03*
%TO.P,,27*%
X95250000Y74930000D03*
%TO.P,,28*%
X95250000Y77470000D03*
%TO.P,,29*%
X95250000Y80010000D03*
%TO.P,,30*%
X95250000Y82550000D03*
%TO.P,,26*%
X92710000Y72390000D03*
%TO.P,,27*%
X92710000Y74930000D03*
%TO.P,,28*%
X92710000Y77470000D03*
%TO.P,,29*%
X92710000Y80010000D03*
%TO.P,,30*%
X92710000Y82550000D03*
%TO.P,,26*%
X90170000Y72390000D03*
%TO.P,,27*%
X90170000Y74930000D03*
%TO.P,,28*%
X90170000Y77470000D03*
%TO.P,,29*%
X90170000Y80010000D03*
%TO.P,,30*%
X90170000Y82550000D03*
%TO.P,,26*%
X87630000Y72390000D03*
%TO.P,,27*%
X87630000Y74930000D03*
%TO.P,,28*%
X87630000Y77470000D03*
%TO.P,,29*%
X87630000Y80010000D03*
%TO.P,,30*%
X87630000Y82550000D03*
%TO.P,,26*%
X85090000Y72390000D03*
%TO.P,,27*%
X85090000Y74930000D03*
%TO.P,,28*%
X85090000Y77470000D03*
%TO.P,,29*%
X85090000Y80010000D03*
%TO.P,,30*%
X85090000Y82550000D03*
%TO.P,,26*%
X82550000Y72390000D03*
%TO.P,,27*%
X82550000Y74930000D03*
%TO.P,,28*%
X82550000Y77470000D03*
%TO.P,,29*%
X82550000Y80010000D03*
%TO.P,,30*%
X82550000Y82550000D03*
%TO.P,,26*%
X80010000Y72390000D03*
%TO.P,,27*%
X80010000Y74930000D03*
%TO.P,,28*%
X80010000Y77470000D03*
%TO.P,,29*%
X80010000Y80010000D03*
%TO.P,,30*%
X80010000Y82550000D03*
%TO.P,,26*%
X77470000Y72390000D03*
%TO.P,,27*%
X77470000Y74930000D03*
%TO.P,,28*%
X77470000Y77470000D03*
%TO.P,,29*%
X77470000Y80010000D03*
%TO.P,,30*%
X77470000Y82550000D03*
%TO.P,,26*%
X74930000Y72390000D03*
%TO.P,,27*%
X74930000Y74930000D03*
%TO.P,,28*%
X74930000Y77470000D03*
%TO.P,,29*%
X74930000Y80010000D03*
%TO.P,,30*%
X74930000Y82550000D03*
%TO.P,,26*%
X72390000Y72390000D03*
%TO.P,,27*%
X72390000Y74930000D03*
%TO.P,,28*%
X72390000Y77470000D03*
%TO.P,,29*%
X72390000Y80010000D03*
%TO.P,,30*%
X72390000Y82550000D03*
%TO.P,,26*%
X69850000Y72390000D03*
%TO.P,,27*%
X69850000Y74930000D03*
%TO.P,,28*%
X69850000Y77470000D03*
%TO.P,,29*%
X69850000Y80010000D03*
%TO.P,,30*%
X69850000Y82550000D03*
%TO.P,,26*%
X67310000Y72390000D03*
%TO.P,,27*%
X67310000Y74930000D03*
%TO.P,,28*%
X67310000Y77470000D03*
%TO.P,,29*%
X67310000Y80010000D03*
%TO.P,,30*%
X67310000Y82550000D03*
%TO.P,,26*%
X64770000Y72390000D03*
%TO.P,,27*%
X64770000Y74930000D03*
%TO.P,,28*%
X64770000Y77470000D03*
%TO.P,,29*%
X64770000Y80010000D03*
%TO.P,,30*%
X64770000Y82550000D03*
%TO.P,,26*%
X62230000Y72390000D03*
%TO.P,,27*%
X62230000Y74930000D03*
%TO.P,,28*%
X62230000Y77470000D03*
%TO.P,,29*%
X62230000Y80010000D03*
%TO.P,,30*%
X62230000Y82550000D03*
X59690000Y82550000D03*
%TO.P,,29*%
X59690000Y80010000D03*
%TO.P,,28*%
X59690000Y77470000D03*
%TO.P,,27*%
X59690000Y74930000D03*
%TO.P,,26*%
X59690000Y72390000D03*
D11*
%TO.P,,36*%
X123190000Y54610000D03*
D10*
%TO.P,,35*%
X120650000Y54610000D03*
%TO.P,,34*%
X118110000Y54610000D03*
D11*
%TO.P,,36*%
X123190000Y52070000D03*
D10*
%TO.P,,35*%
X120650000Y52070000D03*
%TO.P,,34*%
X118110000Y52070000D03*
D11*
%TO.P,,36*%
X123190000Y49530000D03*
D10*
%TO.P,,35*%
X120650000Y49530000D03*
%TO.P,,34*%
X118110000Y49530000D03*
D11*
%TO.P,,36*%
X123190000Y64770000D03*
D10*
%TO.P,,35*%
X120650000Y64770000D03*
%TO.P,,34*%
X118110000Y64770000D03*
D11*
%TO.P,,36*%
X123190000Y62230000D03*
D10*
%TO.P,,35*%
X120650000Y62230000D03*
%TO.P,,34*%
X118110000Y62230000D03*
D11*
%TO.P,,36*%
X123190000Y59690000D03*
D10*
%TO.P,,35*%
X120650000Y59690000D03*
%TO.P,,34*%
X118110000Y59690000D03*
D11*
%TO.P,,36*%
X123190000Y57150000D03*
D10*
%TO.P,,35*%
X120650000Y57150000D03*
%TO.P,,34*%
X118110000Y57150000D03*
D11*
%TO.P,,36*%
X123190000Y74930000D03*
D10*
%TO.P,,35*%
X120650000Y74930000D03*
%TO.P,,34*%
X118110000Y74930000D03*
D11*
%TO.P,,36*%
X123190000Y72390000D03*
D10*
%TO.P,,35*%
X120650000Y72390000D03*
%TO.P,,34*%
X118110000Y72390000D03*
D11*
%TO.P,,36*%
X123190000Y69850000D03*
D10*
%TO.P,,35*%
X120650000Y69850000D03*
%TO.P,,34*%
X118110000Y69850000D03*
D11*
%TO.P,,36*%
X123190000Y67310000D03*
D10*
%TO.P,,35*%
X120650000Y67310000D03*
%TO.P,,34*%
X118110000Y67310000D03*
D11*
%TO.P,,36*%
X123190000Y85090000D03*
D10*
%TO.P,,35*%
X120650000Y85090000D03*
%TO.P,,34*%
X118110000Y85090000D03*
D11*
%TO.P,,36*%
X123190000Y82550000D03*
D10*
%TO.P,,35*%
X120650000Y82550000D03*
%TO.P,,34*%
X118110000Y82550000D03*
D11*
%TO.P,,36*%
X123190000Y80010000D03*
D10*
%TO.P,,35*%
X120650000Y80010000D03*
%TO.P,,34*%
X118110000Y80010000D03*
D11*
%TO.P,,36*%
X123190000Y77470000D03*
D10*
%TO.P,,35*%
X120650000Y77470000D03*
%TO.P,,34*%
X118110000Y77470000D03*
D11*
%TO.P,,36*%
X123190000Y95250000D03*
D10*
%TO.P,,35*%
X120650000Y95250000D03*
%TO.P,,34*%
X118110000Y95250000D03*
D11*
%TO.P,,36*%
X123190000Y92710000D03*
D10*
%TO.P,,35*%
X120650000Y92710000D03*
%TO.P,,34*%
X118110000Y92710000D03*
D11*
%TO.P,,36*%
X123190000Y90170000D03*
D10*
%TO.P,,35*%
X120650000Y90170000D03*
%TO.P,,34*%
X118110000Y90170000D03*
D11*
%TO.P,,36*%
X123190000Y87630000D03*
D10*
%TO.P,,35*%
X120650000Y87630000D03*
%TO.P,,34*%
X118110000Y87630000D03*
X118110000Y97790000D03*
%TO.P,,35*%
X120650000Y97790000D03*
D11*
%TO.P,,36*%
X123190000Y97790000D03*
D10*
%TO.P,,34*%
X118110000Y100330000D03*
%TO.P,,35*%
X120650000Y100330000D03*
D11*
%TO.P,,36*%
X123190000Y100330000D03*
D10*
%TO.P,,34*%
X118110000Y102870000D03*
%TO.P,,35*%
X120650000Y102870000D03*
D11*
%TO.P,,36*%
X123190000Y102870000D03*
D10*
%TO.P,,34*%
X118110000Y105410000D03*
%TO.P,,35*%
X120650000Y105410000D03*
D11*
%TO.P,,36*%
X123190000Y105410000D03*
D10*
%TO.P,,34*%
X118110000Y107950000D03*
%TO.P,,35*%
X120650000Y107950000D03*
D11*
%TO.P,,36*%
X123190000Y107950000D03*
D10*
%TO.P,,34*%
X118110000Y110490000D03*
%TO.P,,35*%
X120650000Y110490000D03*
D11*
%TO.P,,36*%
X123190000Y110490000D03*
D10*
%TO.P,,34*%
X118110000Y113030000D03*
%TO.P,,35*%
X120650000Y113030000D03*
D11*
%TO.P,,36*%
X123190000Y113030000D03*
X123190000Y115570000D03*
D10*
%TO.P,,35*%
X120650000Y115570000D03*
%TO.P,,34*%
X118110000Y115570000D03*
%TO.P,,27*%
X59690000Y110490000D03*
%TO.P,,28*%
X59690000Y113030000D03*
%TO.P,,29*%
X59690000Y115570000D03*
%TO.P,,30*%
X59690000Y118110000D03*
X62230000Y118110000D03*
%TO.P,,29*%
X62230000Y115570000D03*
%TO.P,,28*%
X62230000Y113030000D03*
%TO.P,,27*%
X62230000Y110490000D03*
%TO.P,,30*%
X64770000Y118110000D03*
%TO.P,,29*%
X64770000Y115570000D03*
%TO.P,,28*%
X64770000Y113030000D03*
%TO.P,,27*%
X64770000Y110490000D03*
%TO.P,,30*%
X67310000Y118110000D03*
%TO.P,,29*%
X67310000Y115570000D03*
%TO.P,,28*%
X67310000Y113030000D03*
%TO.P,,27*%
X67310000Y110490000D03*
%TO.P,,30*%
X69850000Y118110000D03*
%TO.P,,29*%
X69850000Y115570000D03*
%TO.P,,28*%
X69850000Y113030000D03*
%TO.P,,27*%
X69850000Y110490000D03*
%TO.P,,30*%
X72390000Y118110000D03*
%TO.P,,29*%
X72390000Y115570000D03*
%TO.P,,28*%
X72390000Y113030000D03*
%TO.P,,27*%
X72390000Y110490000D03*
%TO.P,,30*%
X74930000Y118110000D03*
%TO.P,,29*%
X74930000Y115570000D03*
%TO.P,,28*%
X74930000Y113030000D03*
%TO.P,,27*%
X74930000Y110490000D03*
%TO.P,,30*%
X77470000Y118110000D03*
%TO.P,,29*%
X77470000Y115570000D03*
%TO.P,,28*%
X77470000Y113030000D03*
%TO.P,,27*%
X77470000Y110490000D03*
%TO.P,,30*%
X80010000Y118110000D03*
%TO.P,,29*%
X80010000Y115570000D03*
%TO.P,,28*%
X80010000Y113030000D03*
%TO.P,,27*%
X80010000Y110490000D03*
%TO.P,,30*%
X82550000Y118110000D03*
%TO.P,,29*%
X82550000Y115570000D03*
%TO.P,,28*%
X82550000Y113030000D03*
%TO.P,,27*%
X82550000Y110490000D03*
%TO.P,,30*%
X85090000Y118110000D03*
%TO.P,,29*%
X85090000Y115570000D03*
%TO.P,,28*%
X85090000Y113030000D03*
%TO.P,,27*%
X85090000Y110490000D03*
%TO.P,,30*%
X87630000Y118110000D03*
%TO.P,,29*%
X87630000Y115570000D03*
%TO.P,,28*%
X87630000Y113030000D03*
%TO.P,,27*%
X87630000Y110490000D03*
%TO.P,,30*%
X90170000Y118110000D03*
%TO.P,,29*%
X90170000Y115570000D03*
%TO.P,,28*%
X90170000Y113030000D03*
%TO.P,,27*%
X90170000Y110490000D03*
%TO.P,,30*%
X92710000Y118110000D03*
%TO.P,,29*%
X92710000Y115570000D03*
%TO.P,,28*%
X92710000Y113030000D03*
%TO.P,,27*%
X92710000Y110490000D03*
%TO.P,,30*%
X95250000Y118110000D03*
%TO.P,,29*%
X95250000Y115570000D03*
%TO.P,,28*%
X95250000Y113030000D03*
%TO.P,,27*%
X95250000Y110490000D03*
%TO.P,,30*%
X97790000Y118110000D03*
%TO.P,,29*%
X97790000Y115570000D03*
%TO.P,,28*%
X97790000Y113030000D03*
%TO.P,,27*%
X97790000Y110490000D03*
%TO.P,,30*%
X100330000Y118110000D03*
%TO.P,,29*%
X100330000Y115570000D03*
%TO.P,,28*%
X100330000Y113030000D03*
%TO.P,,27*%
X100330000Y110490000D03*
%TO.P,,30*%
X102870000Y118110000D03*
%TO.P,,29*%
X102870000Y115570000D03*
%TO.P,,28*%
X102870000Y113030000D03*
%TO.P,,27*%
X102870000Y110490000D03*
%TO.P,,30*%
X105410000Y118110000D03*
%TO.P,,29*%
X105410000Y115570000D03*
%TO.P,,28*%
X105410000Y113030000D03*
%TO.P,,27*%
X105410000Y110490000D03*
%TO.P,,30*%
X107950000Y118110000D03*
%TO.P,,29*%
X107950000Y115570000D03*
%TO.P,,28*%
X107950000Y113030000D03*
%TO.P,,27*%
X107950000Y110490000D03*
%TO.P,,30*%
X110490000Y118110000D03*
%TO.P,,29*%
X110490000Y115570000D03*
%TO.P,,28*%
X110490000Y113030000D03*
%TO.P,,27*%
X110490000Y110490000D03*
%TO.P,,30*%
X113030000Y118110000D03*
%TO.P,,29*%
X113030000Y115570000D03*
%TO.P,,28*%
X113030000Y113030000D03*
%TO.P,,27*%
X113030000Y110490000D03*
%TO.P,,26*%
X59690000Y107950000D03*
X62230000Y107950000D03*
X64770000Y107950000D03*
X67310000Y107950000D03*
X69850000Y107950000D03*
X72390000Y107950000D03*
X74930000Y107950000D03*
X77470000Y107950000D03*
X80010000Y107950000D03*
X82550000Y107950000D03*
X85090000Y107950000D03*
X87630000Y107950000D03*
X90170000Y107950000D03*
X92710000Y107950000D03*
X95250000Y107950000D03*
X97790000Y107950000D03*
X100330000Y107950000D03*
X102870000Y107950000D03*
X105410000Y107950000D03*
X107950000Y107950000D03*
X110490000Y107950000D03*
X113030000Y107950000D03*
X59690000Y90170000D03*
%TO.P,,27*%
X59690000Y92710000D03*
%TO.P,,28*%
X59690000Y95250000D03*
%TO.P,,29*%
X59690000Y97790000D03*
%TO.P,,30*%
X59690000Y100330000D03*
X62230000Y100330000D03*
%TO.P,,29*%
X62230000Y97790000D03*
%TO.P,,28*%
X62230000Y95250000D03*
%TO.P,,27*%
X62230000Y92710000D03*
%TO.P,,26*%
X62230000Y90170000D03*
%TO.P,,30*%
X64770000Y100330000D03*
%TO.P,,29*%
X64770000Y97790000D03*
%TO.P,,28*%
X64770000Y95250000D03*
%TO.P,,27*%
X64770000Y92710000D03*
%TO.P,,26*%
X64770000Y90170000D03*
%TO.P,,30*%
X67310000Y100330000D03*
%TO.P,,29*%
X67310000Y97790000D03*
%TO.P,,28*%
X67310000Y95250000D03*
%TO.P,,27*%
X67310000Y92710000D03*
%TO.P,,26*%
X67310000Y90170000D03*
%TO.P,,30*%
X69850000Y100330000D03*
%TO.P,,29*%
X69850000Y97790000D03*
%TO.P,,28*%
X69850000Y95250000D03*
%TO.P,,27*%
X69850000Y92710000D03*
%TO.P,,26*%
X69850000Y90170000D03*
%TO.P,,30*%
X72390000Y100330000D03*
%TO.P,,29*%
X72390000Y97790000D03*
%TO.P,,28*%
X72390000Y95250000D03*
%TO.P,,27*%
X72390000Y92710000D03*
%TO.P,,26*%
X72390000Y90170000D03*
%TO.P,,30*%
X74930000Y100330000D03*
%TO.P,,29*%
X74930000Y97790000D03*
%TO.P,,28*%
X74930000Y95250000D03*
%TO.P,,27*%
X74930000Y92710000D03*
%TO.P,,26*%
X74930000Y90170000D03*
%TO.P,,30*%
X77470000Y100330000D03*
%TO.P,,29*%
X77470000Y97790000D03*
%TO.P,,28*%
X77470000Y95250000D03*
%TO.P,,27*%
X77470000Y92710000D03*
%TO.P,,26*%
X77470000Y90170000D03*
%TO.P,,30*%
X80010000Y100330000D03*
%TO.P,,29*%
X80010000Y97790000D03*
%TO.P,,28*%
X80010000Y95250000D03*
%TO.P,,27*%
X80010000Y92710000D03*
%TO.P,,26*%
X80010000Y90170000D03*
%TO.P,,30*%
X82550000Y100330000D03*
%TO.P,,29*%
X82550000Y97790000D03*
%TO.P,,28*%
X82550000Y95250000D03*
%TO.P,,27*%
X82550000Y92710000D03*
%TO.P,,26*%
X82550000Y90170000D03*
%TO.P,,30*%
X85090000Y100330000D03*
%TO.P,,29*%
X85090000Y97790000D03*
%TO.P,,28*%
X85090000Y95250000D03*
%TO.P,,27*%
X85090000Y92710000D03*
%TO.P,,26*%
X85090000Y90170000D03*
%TO.P,,30*%
X87630000Y100330000D03*
%TO.P,,29*%
X87630000Y97790000D03*
%TO.P,,28*%
X87630000Y95250000D03*
%TO.P,,27*%
X87630000Y92710000D03*
%TO.P,,26*%
X87630000Y90170000D03*
%TO.P,,30*%
X90170000Y100330000D03*
%TO.P,,29*%
X90170000Y97790000D03*
%TO.P,,28*%
X90170000Y95250000D03*
%TO.P,,27*%
X90170000Y92710000D03*
%TO.P,,26*%
X90170000Y90170000D03*
%TO.P,,30*%
X92710000Y100330000D03*
%TO.P,,29*%
X92710000Y97790000D03*
%TO.P,,28*%
X92710000Y95250000D03*
%TO.P,,27*%
X92710000Y92710000D03*
%TO.P,,26*%
X92710000Y90170000D03*
%TO.P,,30*%
X95250000Y100330000D03*
%TO.P,,29*%
X95250000Y97790000D03*
%TO.P,,28*%
X95250000Y95250000D03*
%TO.P,,27*%
X95250000Y92710000D03*
%TO.P,,26*%
X95250000Y90170000D03*
%TO.P,,30*%
X97790000Y100330000D03*
%TO.P,,29*%
X97790000Y97790000D03*
%TO.P,,28*%
X97790000Y95250000D03*
%TO.P,,27*%
X97790000Y92710000D03*
%TO.P,,26*%
X97790000Y90170000D03*
%TO.P,,30*%
X100330000Y100330000D03*
%TO.P,,29*%
X100330000Y97790000D03*
%TO.P,,28*%
X100330000Y95250000D03*
%TO.P,,27*%
X100330000Y92710000D03*
%TO.P,,26*%
X100330000Y90170000D03*
%TO.P,,30*%
X102870000Y100330000D03*
%TO.P,,29*%
X102870000Y97790000D03*
%TO.P,,28*%
X102870000Y95250000D03*
%TO.P,,27*%
X102870000Y92710000D03*
%TO.P,,26*%
X102870000Y90170000D03*
%TO.P,,30*%
X105410000Y100330000D03*
%TO.P,,29*%
X105410000Y97790000D03*
%TO.P,,28*%
X105410000Y95250000D03*
%TO.P,,27*%
X105410000Y92710000D03*
%TO.P,,26*%
X105410000Y90170000D03*
%TO.P,,30*%
X107950000Y100330000D03*
%TO.P,,29*%
X107950000Y97790000D03*
%TO.P,,28*%
X107950000Y95250000D03*
%TO.P,,27*%
X107950000Y92710000D03*
%TO.P,,26*%
X107950000Y90170000D03*
%TO.P,,30*%
X110490000Y100330000D03*
%TO.P,,29*%
X110490000Y97790000D03*
%TO.P,,28*%
X110490000Y95250000D03*
%TO.P,,27*%
X110490000Y92710000D03*
%TO.P,,26*%
X110490000Y90170000D03*
%TO.P,,30*%
X113030000Y100330000D03*
%TO.P,,29*%
X113030000Y97790000D03*
%TO.P,,28*%
X113030000Y95250000D03*
%TO.P,,27*%
X113030000Y92710000D03*
%TO.P,,26*%
X113030000Y90170000D03*
%TO.P,,15*%
X59690000Y85090000D03*
%TO.P,,16*%
X62230000Y85090000D03*
%TO.P,,17*%
X64770000Y85090000D03*
%TO.P,,18*%
X67310000Y85090000D03*
%TO.P,,19*%
X69850000Y85090000D03*
%TO.P,,20*%
X72390000Y85090000D03*
%TO.P,,21*%
X74930000Y85090000D03*
%TO.P,,22*%
X77470000Y85090000D03*
X100330000Y85090000D03*
%TO.P,,21*%
X97790000Y85090000D03*
%TO.P,,20*%
X95250000Y85090000D03*
%TO.P,,19*%
X92710000Y85090000D03*
%TO.P,,18*%
X90170000Y85090000D03*
%TO.P,,17*%
X87630000Y85090000D03*
%TO.P,,16*%
X85090000Y85090000D03*
%TO.P,,15*%
X82550000Y85090000D03*
%TO.P,,14*%
X80010000Y85090000D03*
%TO.P,,18*%
X113030000Y85090000D03*
%TO.P,,17*%
X110490000Y85090000D03*
%TO.P,,16*%
X107950000Y85090000D03*
%TO.P,,15*%
X105410000Y85090000D03*
%TO.P,,14*%
X102870000Y85090000D03*
%TO.P,,15*%
X59690000Y87630000D03*
%TO.P,,16*%
X62230000Y87630000D03*
%TO.P,,17*%
X64770000Y87630000D03*
%TO.P,,18*%
X67310000Y87630000D03*
%TO.P,,19*%
X69850000Y87630000D03*
%TO.P,,20*%
X72390000Y87630000D03*
%TO.P,,21*%
X74930000Y87630000D03*
%TO.P,,22*%
X77470000Y87630000D03*
X100330000Y87630000D03*
%TO.P,,21*%
X97790000Y87630000D03*
%TO.P,,20*%
X95250000Y87630000D03*
%TO.P,,19*%
X92710000Y87630000D03*
%TO.P,,18*%
X90170000Y87630000D03*
%TO.P,,17*%
X87630000Y87630000D03*
%TO.P,,16*%
X85090000Y87630000D03*
%TO.P,,15*%
X82550000Y87630000D03*
%TO.P,,14*%
X80010000Y87630000D03*
%TO.P,,18*%
X113030000Y87630000D03*
%TO.P,,17*%
X110490000Y87630000D03*
%TO.P,,16*%
X107950000Y87630000D03*
%TO.P,,15*%
X105410000Y87630000D03*
%TO.P,,14*%
X102870000Y87630000D03*
%TO.P,,26*%
X59690000Y54610000D03*
%TO.P,,27*%
X59690000Y57150000D03*
%TO.P,,28*%
X59690000Y59690000D03*
%TO.P,,29*%
X59690000Y62230000D03*
%TO.P,,30*%
X59690000Y64770000D03*
X62230000Y64770000D03*
%TO.P,,29*%
X62230000Y62230000D03*
%TO.P,,28*%
X62230000Y59690000D03*
%TO.P,,27*%
X62230000Y57150000D03*
%TO.P,,26*%
X62230000Y54610000D03*
%TO.P,,30*%
X64770000Y64770000D03*
%TO.P,,29*%
X64770000Y62230000D03*
%TO.P,,28*%
X64770000Y59690000D03*
%TO.P,,27*%
X64770000Y57150000D03*
%TO.P,,26*%
X64770000Y54610000D03*
%TO.P,,30*%
X67310000Y64770000D03*
%TO.P,,29*%
X67310000Y62230000D03*
%TO.P,,28*%
X67310000Y59690000D03*
%TO.P,,27*%
X67310000Y57150000D03*
%TO.P,,26*%
X67310000Y54610000D03*
%TO.P,,30*%
X69850000Y64770000D03*
%TO.P,,29*%
X69850000Y62230000D03*
%TO.P,,28*%
X69850000Y59690000D03*
%TO.P,,27*%
X69850000Y57150000D03*
%TO.P,,26*%
X69850000Y54610000D03*
%TO.P,,30*%
X72390000Y64770000D03*
%TO.P,,29*%
X72390000Y62230000D03*
%TO.P,,28*%
X72390000Y59690000D03*
%TO.P,,27*%
X72390000Y57150000D03*
%TO.P,,26*%
X72390000Y54610000D03*
%TO.P,,30*%
X74930000Y64770000D03*
%TO.P,,29*%
X74930000Y62230000D03*
%TO.P,,28*%
X74930000Y59690000D03*
%TO.P,,27*%
X74930000Y57150000D03*
%TO.P,,26*%
X74930000Y54610000D03*
%TO.P,,30*%
X77470000Y64770000D03*
%TO.P,,29*%
X77470000Y62230000D03*
%TO.P,,28*%
X77470000Y59690000D03*
%TO.P,,27*%
X77470000Y57150000D03*
%TO.P,,26*%
X77470000Y54610000D03*
%TO.P,,30*%
X80010000Y64770000D03*
%TO.P,,29*%
X80010000Y62230000D03*
%TO.P,,28*%
X80010000Y59690000D03*
%TO.P,,27*%
X80010000Y57150000D03*
%TO.P,,26*%
X80010000Y54610000D03*
%TO.P,,30*%
X82550000Y64770000D03*
%TO.P,,29*%
X82550000Y62230000D03*
%TO.P,,28*%
X82550000Y59690000D03*
%TO.P,,27*%
X82550000Y57150000D03*
%TO.P,,26*%
X82550000Y54610000D03*
%TO.P,,30*%
X85090000Y64770000D03*
%TO.P,,29*%
X85090000Y62230000D03*
%TO.P,,28*%
X85090000Y59690000D03*
%TO.P,,27*%
X85090000Y57150000D03*
%TO.P,,26*%
X85090000Y54610000D03*
%TO.P,,30*%
X87630000Y64770000D03*
%TO.P,,29*%
X87630000Y62230000D03*
%TO.P,,28*%
X87630000Y59690000D03*
%TO.P,,27*%
X87630000Y57150000D03*
%TO.P,,26*%
X87630000Y54610000D03*
%TO.P,,30*%
X90170000Y64770000D03*
%TO.P,,29*%
X90170000Y62230000D03*
%TO.P,,28*%
X90170000Y59690000D03*
%TO.P,,27*%
X90170000Y57150000D03*
%TO.P,,26*%
X90170000Y54610000D03*
%TO.P,,30*%
X92710000Y64770000D03*
%TO.P,,29*%
X92710000Y62230000D03*
%TO.P,,28*%
X92710000Y59690000D03*
%TO.P,,27*%
X92710000Y57150000D03*
%TO.P,,26*%
X92710000Y54610000D03*
%TO.P,,30*%
X95250000Y64770000D03*
%TO.P,,29*%
X95250000Y62230000D03*
%TO.P,,28*%
X95250000Y59690000D03*
%TO.P,,27*%
X95250000Y57150000D03*
%TO.P,,26*%
X95250000Y54610000D03*
%TO.P,,30*%
X97790000Y64770000D03*
%TO.P,,29*%
X97790000Y62230000D03*
%TO.P,,28*%
X97790000Y59690000D03*
%TO.P,,27*%
X97790000Y57150000D03*
%TO.P,,26*%
X97790000Y54610000D03*
%TO.P,,30*%
X100330000Y64770000D03*
%TO.P,,29*%
X100330000Y62230000D03*
%TO.P,,28*%
X100330000Y59690000D03*
%TO.P,,27*%
X100330000Y57150000D03*
%TO.P,,26*%
X100330000Y54610000D03*
%TO.P,,30*%
X102870000Y64770000D03*
%TO.P,,29*%
X102870000Y62230000D03*
%TO.P,,28*%
X102870000Y59690000D03*
%TO.P,,27*%
X102870000Y57150000D03*
%TO.P,,26*%
X102870000Y54610000D03*
%TO.P,,30*%
X105410000Y64770000D03*
%TO.P,,29*%
X105410000Y62230000D03*
%TO.P,,28*%
X105410000Y59690000D03*
%TO.P,,27*%
X105410000Y57150000D03*
%TO.P,,26*%
X105410000Y54610000D03*
%TO.P,,30*%
X107950000Y64770000D03*
%TO.P,,29*%
X107950000Y62230000D03*
%TO.P,,28*%
X107950000Y59690000D03*
%TO.P,,27*%
X107950000Y57150000D03*
%TO.P,,26*%
X107950000Y54610000D03*
%TO.P,,30*%
X110490000Y64770000D03*
%TO.P,,29*%
X110490000Y62230000D03*
%TO.P,,28*%
X110490000Y59690000D03*
%TO.P,,27*%
X110490000Y57150000D03*
%TO.P,,26*%
X110490000Y54610000D03*
%TO.P,,30*%
X113030000Y64770000D03*
%TO.P,,29*%
X113030000Y62230000D03*
%TO.P,,28*%
X113030000Y59690000D03*
%TO.P,,27*%
X113030000Y57150000D03*
%TO.P,,26*%
X113030000Y54610000D03*
%TO.P,,15*%
X59690000Y67310000D03*
%TO.P,,16*%
X62230000Y67310000D03*
%TO.P,,17*%
X64770000Y67310000D03*
%TO.P,,18*%
X67310000Y67310000D03*
%TO.P,,19*%
X69850000Y67310000D03*
%TO.P,,20*%
X72390000Y67310000D03*
%TO.P,,21*%
X74930000Y67310000D03*
%TO.P,,22*%
X77470000Y67310000D03*
X100330000Y67310000D03*
%TO.P,,21*%
X97790000Y67310000D03*
%TO.P,,20*%
X95250000Y67310000D03*
%TO.P,,19*%
X92710000Y67310000D03*
%TO.P,,18*%
X90170000Y67310000D03*
%TO.P,,17*%
X87630000Y67310000D03*
%TO.P,,16*%
X85090000Y67310000D03*
%TO.P,,15*%
X82550000Y67310000D03*
%TO.P,,14*%
X80010000Y67310000D03*
%TO.P,,18*%
X113030000Y67310000D03*
%TO.P,,17*%
X110490000Y67310000D03*
%TO.P,,16*%
X107950000Y67310000D03*
%TO.P,,15*%
X105410000Y67310000D03*
%TO.P,,14*%
X102870000Y67310000D03*
%TO.P,,15*%
X59690000Y69850000D03*
%TO.P,,16*%
X62230000Y69850000D03*
%TO.P,,17*%
X64770000Y69850000D03*
%TO.P,,18*%
X67310000Y69850000D03*
%TO.P,,19*%
X69850000Y69850000D03*
%TO.P,,20*%
X72390000Y69850000D03*
%TO.P,,21*%
X74930000Y69850000D03*
%TO.P,,22*%
X77470000Y69850000D03*
X100330000Y69850000D03*
%TO.P,,21*%
X97790000Y69850000D03*
%TO.P,,20*%
X95250000Y69850000D03*
%TO.P,,19*%
X92710000Y69850000D03*
%TO.P,,18*%
X90170000Y69850000D03*
%TO.P,,17*%
X87630000Y69850000D03*
%TO.P,,16*%
X85090000Y69850000D03*
%TO.P,,15*%
X82550000Y69850000D03*
%TO.P,,14*%
X80010000Y69850000D03*
%TO.P,,18*%
X113030000Y69850000D03*
%TO.P,,17*%
X110490000Y69850000D03*
%TO.P,,16*%
X107950000Y69850000D03*
%TO.P,,15*%
X105410000Y69850000D03*
%TO.P,,14*%
X102870000Y69850000D03*
%TO.P,,26*%
X113030000Y36830000D03*
%TO.P,,27*%
X113030000Y39370000D03*
%TO.P,,28*%
X113030000Y41910000D03*
%TO.P,,29*%
X113030000Y44450000D03*
%TO.P,,30*%
X113030000Y46990000D03*
%TO.P,,26*%
X110490000Y36830000D03*
%TO.P,,27*%
X110490000Y39370000D03*
%TO.P,,28*%
X110490000Y41910000D03*
%TO.P,,29*%
X110490000Y44450000D03*
%TO.P,,30*%
X110490000Y46990000D03*
%TO.P,,26*%
X107950000Y36830000D03*
%TO.P,,27*%
X107950000Y39370000D03*
%TO.P,,28*%
X107950000Y41910000D03*
%TO.P,,29*%
X107950000Y44450000D03*
%TO.P,,30*%
X107950000Y46990000D03*
%TO.P,,26*%
X105410000Y36830000D03*
%TO.P,,27*%
X105410000Y39370000D03*
%TO.P,,28*%
X105410000Y41910000D03*
%TO.P,,29*%
X105410000Y44450000D03*
%TO.P,,30*%
X105410000Y46990000D03*
%TO.P,,26*%
X102870000Y36830000D03*
%TO.P,,27*%
X102870000Y39370000D03*
%TO.P,,28*%
X102870000Y41910000D03*
%TO.P,,29*%
X102870000Y44450000D03*
%TO.P,,30*%
X102870000Y46990000D03*
%TO.P,,26*%
X100330000Y36830000D03*
%TO.P,,27*%
X100330000Y39370000D03*
%TO.P,,28*%
X100330000Y41910000D03*
%TO.P,,29*%
X100330000Y44450000D03*
%TO.P,,30*%
X100330000Y46990000D03*
%TO.P,,26*%
X97790000Y36830000D03*
%TO.P,,27*%
X97790000Y39370000D03*
%TO.P,,28*%
X97790000Y41910000D03*
%TO.P,,29*%
X97790000Y44450000D03*
%TO.P,,30*%
X97790000Y46990000D03*
%TO.P,,26*%
X95250000Y36830000D03*
%TO.P,,27*%
X95250000Y39370000D03*
%TO.P,,28*%
X95250000Y41910000D03*
%TO.P,,29*%
X95250000Y44450000D03*
%TO.P,,30*%
X95250000Y46990000D03*
%TO.P,,26*%
X92710000Y36830000D03*
%TO.P,,27*%
X92710000Y39370000D03*
%TO.P,,28*%
X92710000Y41910000D03*
%TO.P,,29*%
X92710000Y44450000D03*
%TO.P,,30*%
X92710000Y46990000D03*
%TO.P,,26*%
X90170000Y36830000D03*
%TO.P,,27*%
X90170000Y39370000D03*
%TO.P,,28*%
X90170000Y41910000D03*
%TO.P,,29*%
X90170000Y44450000D03*
%TO.P,,30*%
X90170000Y46990000D03*
%TO.P,,26*%
X87630000Y36830000D03*
%TO.P,,27*%
X87630000Y39370000D03*
%TO.P,,28*%
X87630000Y41910000D03*
%TO.P,,29*%
X87630000Y44450000D03*
%TO.P,,30*%
X87630000Y46990000D03*
%TO.P,,26*%
X85090000Y36830000D03*
%TO.P,,27*%
X85090000Y39370000D03*
%TO.P,,28*%
X85090000Y41910000D03*
%TO.P,,29*%
X85090000Y44450000D03*
%TO.P,,30*%
X85090000Y46990000D03*
%TO.P,,26*%
X82550000Y36830000D03*
%TO.P,,27*%
X82550000Y39370000D03*
%TO.P,,28*%
X82550000Y41910000D03*
%TO.P,,29*%
X82550000Y44450000D03*
%TO.P,,30*%
X82550000Y46990000D03*
%TO.P,,26*%
X80010000Y36830000D03*
%TO.P,,27*%
X80010000Y39370000D03*
%TO.P,,28*%
X80010000Y41910000D03*
%TO.P,,29*%
X80010000Y44450000D03*
%TO.P,,30*%
X80010000Y46990000D03*
%TO.P,,26*%
X77470000Y36830000D03*
%TO.P,,27*%
X77470000Y39370000D03*
%TO.P,,28*%
X77470000Y41910000D03*
%TO.P,,29*%
X77470000Y44450000D03*
%TO.P,,30*%
X77470000Y46990000D03*
%TO.P,,26*%
X74930000Y36830000D03*
%TO.P,,27*%
X74930000Y39370000D03*
%TO.P,,28*%
X74930000Y41910000D03*
%TO.P,,29*%
X74930000Y44450000D03*
%TO.P,,30*%
X74930000Y46990000D03*
%TO.P,,26*%
X72390000Y36830000D03*
%TO.P,,27*%
X72390000Y39370000D03*
%TO.P,,28*%
X72390000Y41910000D03*
%TO.P,,29*%
X72390000Y44450000D03*
%TO.P,,30*%
X72390000Y46990000D03*
%TO.P,,26*%
X69850000Y36830000D03*
%TO.P,,27*%
X69850000Y39370000D03*
%TO.P,,28*%
X69850000Y41910000D03*
%TO.P,,29*%
X69850000Y44450000D03*
%TO.P,,30*%
X69850000Y46990000D03*
%TO.P,,26*%
X67310000Y36830000D03*
%TO.P,,27*%
X67310000Y39370000D03*
%TO.P,,28*%
X67310000Y41910000D03*
%TO.P,,29*%
X67310000Y44450000D03*
%TO.P,,30*%
X67310000Y46990000D03*
%TO.P,,26*%
X64770000Y36830000D03*
%TO.P,,27*%
X64770000Y39370000D03*
%TO.P,,28*%
X64770000Y41910000D03*
%TO.P,,29*%
X64770000Y44450000D03*
%TO.P,,30*%
X64770000Y46990000D03*
%TO.P,,26*%
X62230000Y36830000D03*
%TO.P,,27*%
X62230000Y39370000D03*
%TO.P,,28*%
X62230000Y41910000D03*
%TO.P,,29*%
X62230000Y44450000D03*
%TO.P,,30*%
X62230000Y46990000D03*
X59690000Y46990000D03*
%TO.P,,29*%
X59690000Y44450000D03*
%TO.P,,28*%
X59690000Y41910000D03*
%TO.P,,27*%
X59690000Y39370000D03*
%TO.P,,26*%
X59690000Y36830000D03*
%TO.P,,14*%
X102870000Y125730000D03*
%TO.P,,15*%
X105410000Y125730000D03*
%TO.P,,16*%
X107950000Y125730000D03*
%TO.P,,17*%
X110490000Y125730000D03*
%TO.P,,18*%
X113030000Y125730000D03*
%TO.P,,19*%
X115570000Y125730000D03*
%TO.P,,14*%
X80010000Y125730000D03*
%TO.P,,15*%
X82550000Y125730000D03*
%TO.P,,16*%
X85090000Y125730000D03*
%TO.P,,17*%
X87630000Y125730000D03*
%TO.P,,18*%
X90170000Y125730000D03*
%TO.P,,19*%
X92710000Y125730000D03*
%TO.P,,20*%
X95250000Y125730000D03*
%TO.P,,21*%
X97790000Y125730000D03*
%TO.P,,22*%
X100330000Y125730000D03*
X77470000Y125730000D03*
%TO.P,,21*%
X74930000Y125730000D03*
%TO.P,,20*%
X72390000Y125730000D03*
%TO.P,,19*%
X69850000Y125730000D03*
%TO.P,,18*%
X67310000Y125730000D03*
%TO.P,,17*%
X64770000Y125730000D03*
%TO.P,,16*%
X62230000Y125730000D03*
%TO.P,,15*%
X59690000Y125730000D03*
%TO.P,,14*%
X100330000Y34290000D03*
%TO.P,,15*%
X102870000Y34290000D03*
%TO.P,,16*%
X105410000Y34290000D03*
%TO.P,,17*%
X107950000Y34290000D03*
%TO.P,,18*%
X110490000Y34290000D03*
%TO.P,,19*%
X113030000Y34290000D03*
%TO.P,,14*%
X77470000Y34290000D03*
%TO.P,,15*%
X80010000Y34290000D03*
%TO.P,,16*%
X82550000Y34290000D03*
%TO.P,,17*%
X85090000Y34290000D03*
%TO.P,,18*%
X87630000Y34290000D03*
%TO.P,,19*%
X90170000Y34290000D03*
%TO.P,,20*%
X92710000Y34290000D03*
%TO.P,,21*%
X95250000Y34290000D03*
%TO.P,,22*%
X97790000Y34290000D03*
X74930000Y34290000D03*
%TO.P,,21*%
X72390000Y34290000D03*
%TO.P,,20*%
X69850000Y34290000D03*
%TO.P,,19*%
X67310000Y34290000D03*
%TO.P,,18*%
X64770000Y34290000D03*
%TO.P,,17*%
X62230000Y34290000D03*
%TO.P,,16*%
X59690000Y34290000D03*
D12*
%TO.P,,5*%
X30480000Y121285000D03*
%TO.P,,6*%
X30480000Y32385000D03*
%TO.P,,7*%
X119380000Y32385000D03*
%TO.P,,8*%
X119380000Y121285000D03*
D10*
%TO.P,,15*%
X59690000Y123190000D03*
%TO.P,,16*%
X62230000Y123190000D03*
%TO.P,,17*%
X64770000Y123190000D03*
%TO.P,,18*%
X67310000Y123190000D03*
%TO.P,,19*%
X69850000Y123190000D03*
%TO.P,,20*%
X72390000Y123190000D03*
%TO.P,,21*%
X74930000Y123190000D03*
%TO.P,,22*%
X77470000Y123190000D03*
X100330000Y123190000D03*
%TO.P,,21*%
X97790000Y123190000D03*
%TO.P,,20*%
X95250000Y123190000D03*
%TO.P,,19*%
X92710000Y123190000D03*
%TO.P,,18*%
X90170000Y123190000D03*
%TO.P,,17*%
X87630000Y123190000D03*
%TO.P,,16*%
X85090000Y123190000D03*
%TO.P,,15*%
X82550000Y123190000D03*
%TO.P,,14*%
X80010000Y123190000D03*
%TO.P,,18*%
X113030000Y123190000D03*
%TO.P,,17*%
X110490000Y123190000D03*
%TO.P,,16*%
X107950000Y123190000D03*
%TO.P,,15*%
X105410000Y123190000D03*
%TO.P,,14*%
X102870000Y123190000D03*
%TO.P,,0*%
X31750000Y102870000D03*
%TO.P,,1*%
X31750000Y100330000D03*
%TO.P,,19*%
X26670000Y102870000D03*
%TO.P,,20*%
X29210000Y102870000D03*
%TO.P,,21*%
X26670000Y100330000D03*
%TO.P,,22*%
X26670000Y97790000D03*
%TO.P,,23*%
X29210000Y100330000D03*
%TO.P,,24*%
X29210000Y97790000D03*
%TO.P,,25*%
X31750000Y97790000D03*
X31750000Y90170000D03*
%TO.P,,24*%
X29210000Y90170000D03*
%TO.P,,23*%
X29210000Y92710000D03*
%TO.P,,22*%
X26670000Y90170000D03*
%TO.P,,21*%
X26670000Y92710000D03*
%TO.P,,20*%
X29210000Y95250000D03*
%TO.P,,19*%
X26670000Y95250000D03*
%TO.P,,1*%
X31750000Y92710000D03*
%TO.P,,0*%
X31750000Y95250000D03*
%TO.P,,1*%
X31750000Y115570000D03*
%TO.P,,21*%
X26670000Y115570000D03*
%TO.P,,22*%
X26670000Y113030000D03*
%TO.P,,23*%
X29210000Y115570000D03*
%TO.P,,24*%
X29210000Y113030000D03*
%TO.P,,25*%
X31750000Y113030000D03*
X31750000Y105410000D03*
%TO.P,,24*%
X29210000Y105410000D03*
%TO.P,,23*%
X29210000Y107950000D03*
%TO.P,,22*%
X26670000Y105410000D03*
%TO.P,,21*%
X26670000Y107950000D03*
%TO.P,,20*%
X29210000Y110490000D03*
%TO.P,,19*%
X26670000Y110490000D03*
%TO.P,,1*%
X31750000Y107950000D03*
%TO.P,,0*%
X31750000Y110490000D03*
%TO.P,,30*%
X34290000Y118110000D03*
%TO.P,,29*%
X34290000Y115570000D03*
%TO.P,,28*%
X34290000Y113030000D03*
%TO.P,,27*%
X34290000Y110490000D03*
%TO.P,,30*%
X36830000Y118110000D03*
%TO.P,,29*%
X36830000Y115570000D03*
%TO.P,,28*%
X36830000Y113030000D03*
%TO.P,,27*%
X36830000Y110490000D03*
%TO.P,,30*%
X39370000Y118110000D03*
%TO.P,,29*%
X39370000Y115570000D03*
%TO.P,,28*%
X39370000Y113030000D03*
%TO.P,,27*%
X39370000Y110490000D03*
%TO.P,,30*%
X41910000Y118110000D03*
%TO.P,,29*%
X41910000Y115570000D03*
%TO.P,,28*%
X41910000Y113030000D03*
%TO.P,,27*%
X41910000Y110490000D03*
%TO.P,,26*%
X34290000Y107950000D03*
X36830000Y107950000D03*
X39370000Y107950000D03*
X41910000Y107950000D03*
%TO.P,,30*%
X34290000Y100330000D03*
%TO.P,,29*%
X34290000Y97790000D03*
%TO.P,,28*%
X34290000Y95250000D03*
%TO.P,,27*%
X34290000Y92710000D03*
%TO.P,,30*%
X36830000Y100330000D03*
%TO.P,,29*%
X36830000Y97790000D03*
%TO.P,,28*%
X36830000Y95250000D03*
%TO.P,,27*%
X36830000Y92710000D03*
%TO.P,,30*%
X39370000Y100330000D03*
%TO.P,,29*%
X39370000Y97790000D03*
%TO.P,,28*%
X39370000Y95250000D03*
%TO.P,,27*%
X39370000Y92710000D03*
%TO.P,,30*%
X41910000Y100330000D03*
%TO.P,,29*%
X41910000Y97790000D03*
%TO.P,,28*%
X41910000Y95250000D03*
%TO.P,,27*%
X41910000Y92710000D03*
%TO.P,,26*%
X34290000Y90170000D03*
X36830000Y90170000D03*
X39370000Y90170000D03*
X41910000Y90170000D03*
X113030000Y49530000D03*
%TO.P,,27*%
X113030000Y52070000D03*
%TO.P,,26*%
X110490000Y49530000D03*
%TO.P,,27*%
X110490000Y52070000D03*
%TO.P,,26*%
X107950000Y49530000D03*
%TO.P,,27*%
X107950000Y52070000D03*
%TO.P,,26*%
X105410000Y49530000D03*
%TO.P,,27*%
X105410000Y52070000D03*
%TO.P,,26*%
X102870000Y49530000D03*
%TO.P,,27*%
X102870000Y52070000D03*
%TO.P,,26*%
X100330000Y49530000D03*
%TO.P,,27*%
X100330000Y52070000D03*
%TO.P,,26*%
X97790000Y49530000D03*
%TO.P,,27*%
X97790000Y52070000D03*
%TO.P,,26*%
X95250000Y49530000D03*
%TO.P,,27*%
X95250000Y52070000D03*
%TO.P,,26*%
X92710000Y49530000D03*
%TO.P,,27*%
X92710000Y52070000D03*
%TO.P,,26*%
X90170000Y49530000D03*
%TO.P,,27*%
X90170000Y52070000D03*
%TO.P,,26*%
X87630000Y49530000D03*
%TO.P,,27*%
X87630000Y52070000D03*
%TO.P,,26*%
X85090000Y49530000D03*
%TO.P,,27*%
X85090000Y52070000D03*
%TO.P,,26*%
X82550000Y49530000D03*
%TO.P,,27*%
X82550000Y52070000D03*
%TO.P,,26*%
X80010000Y49530000D03*
%TO.P,,27*%
X80010000Y52070000D03*
%TO.P,,26*%
X77470000Y49530000D03*
%TO.P,,27*%
X77470000Y52070000D03*
%TO.P,,26*%
X74930000Y49530000D03*
%TO.P,,27*%
X74930000Y52070000D03*
%TO.P,,26*%
X72390000Y49530000D03*
%TO.P,,27*%
X72390000Y52070000D03*
%TO.P,,26*%
X69850000Y49530000D03*
%TO.P,,27*%
X69850000Y52070000D03*
%TO.P,,26*%
X67310000Y49530000D03*
%TO.P,,27*%
X67310000Y52070000D03*
%TO.P,,26*%
X64770000Y49530000D03*
%TO.P,,27*%
X64770000Y52070000D03*
%TO.P,,26*%
X62230000Y49530000D03*
%TO.P,,27*%
X62230000Y52070000D03*
X59690000Y52070000D03*
%TO.P,,26*%
X59690000Y49530000D03*
%TO.P,,27*%
X41910000Y52070000D03*
X44450000Y52070000D03*
X46990000Y52070000D03*
X49530000Y52070000D03*
X52070000Y52070000D03*
X54610000Y52070000D03*
X57150000Y52070000D03*
%TO.P,,26*%
X41910000Y49530000D03*
X44450000Y49530000D03*
X46990000Y49530000D03*
X49530000Y49530000D03*
X52070000Y49530000D03*
X54610000Y49530000D03*
X57150000Y49530000D03*
%TO.P,,27*%
X34290000Y52070000D03*
X36830000Y52070000D03*
X39370000Y52070000D03*
%TO.P,,26*%
X34290000Y49530000D03*
X36830000Y49530000D03*
X39370000Y49530000D03*
X113030000Y102870000D03*
%TO.P,,27*%
X113030000Y105410000D03*
%TO.P,,26*%
X110490000Y102870000D03*
%TO.P,,27*%
X110490000Y105410000D03*
%TO.P,,26*%
X107950000Y102870000D03*
%TO.P,,27*%
X107950000Y105410000D03*
%TO.P,,26*%
X105410000Y102870000D03*
%TO.P,,27*%
X105410000Y105410000D03*
%TO.P,,26*%
X102870000Y102870000D03*
%TO.P,,27*%
X102870000Y105410000D03*
%TO.P,,26*%
X100330000Y102870000D03*
%TO.P,,27*%
X100330000Y105410000D03*
%TO.P,,26*%
X97790000Y102870000D03*
%TO.P,,27*%
X97790000Y105410000D03*
%TO.P,,26*%
X95250000Y102870000D03*
%TO.P,,27*%
X95250000Y105410000D03*
%TO.P,,26*%
X92710000Y102870000D03*
%TO.P,,27*%
X92710000Y105410000D03*
%TO.P,,26*%
X90170000Y102870000D03*
%TO.P,,27*%
X90170000Y105410000D03*
%TO.P,,26*%
X87630000Y102870000D03*
%TO.P,,27*%
X87630000Y105410000D03*
%TO.P,,26*%
X85090000Y102870000D03*
%TO.P,,27*%
X85090000Y105410000D03*
%TO.P,,26*%
X82550000Y102870000D03*
%TO.P,,27*%
X82550000Y105410000D03*
%TO.P,,26*%
X80010000Y102870000D03*
%TO.P,,27*%
X80010000Y105410000D03*
%TO.P,,26*%
X77470000Y102870000D03*
%TO.P,,27*%
X77470000Y105410000D03*
%TO.P,,26*%
X74930000Y102870000D03*
%TO.P,,27*%
X74930000Y105410000D03*
%TO.P,,26*%
X72390000Y102870000D03*
%TO.P,,27*%
X72390000Y105410000D03*
%TO.P,,26*%
X69850000Y102870000D03*
%TO.P,,27*%
X69850000Y105410000D03*
%TO.P,,26*%
X67310000Y102870000D03*
%TO.P,,27*%
X67310000Y105410000D03*
%TO.P,,26*%
X64770000Y102870000D03*
%TO.P,,27*%
X64770000Y105410000D03*
%TO.P,,26*%
X62230000Y102870000D03*
%TO.P,,27*%
X62230000Y105410000D03*
X59690000Y105410000D03*
%TO.P,,26*%
X59690000Y102870000D03*
%TO.P,,27*%
X41910000Y105410000D03*
X44450000Y105410000D03*
X46990000Y105410000D03*
X49530000Y105410000D03*
X52070000Y105410000D03*
X54610000Y105410000D03*
X57150000Y105410000D03*
%TO.P,,26*%
X41910000Y102870000D03*
X44450000Y102870000D03*
X46990000Y102870000D03*
X49530000Y102870000D03*
X52070000Y102870000D03*
X54610000Y102870000D03*
X57150000Y102870000D03*
%TO.P,,27*%
X34290000Y105410000D03*
X36830000Y105410000D03*
X39370000Y105410000D03*
%TO.P,,26*%
X34290000Y102870000D03*
X36830000Y102870000D03*
X39370000Y102870000D03*
%TO.P,,34*%
X115570000Y115570000D03*
X115570000Y113030000D03*
X115570000Y110490000D03*
X115570000Y107950000D03*
X115570000Y105410000D03*
X115570000Y102870000D03*
X115570000Y100330000D03*
X115570000Y97790000D03*
X115570000Y87630000D03*
X115570000Y90170000D03*
X115570000Y92710000D03*
X115570000Y95250000D03*
X115570000Y77470000D03*
X115570000Y80010000D03*
X115570000Y82550000D03*
X115570000Y85090000D03*
X115570000Y67310000D03*
X115570000Y69850000D03*
X115570000Y72390000D03*
X115570000Y74930000D03*
X115570000Y57150000D03*
X115570000Y59690000D03*
X115570000Y62230000D03*
X115570000Y64770000D03*
X115570000Y49530000D03*
X115570000Y52070000D03*
X115570000Y54610000D03*
X115570000Y46990000D03*
X115570000Y44450000D03*
X115570000Y41910000D03*
X115570000Y39370000D03*
%TD*%
M02*
