M48
; DRILL file {KiCad (6.0.1)} date Sun Feb  5 21:43:02 2023
; FORMAT={-:-/ absolute / inch / decimal}
; #@! TF.CreationDate,2023-02-05T21:43:02-08:00
; #@! TF.GenerationSoftware,Kicad,Pcbnew,(6.0.1)
; #@! TF.FileFunction,Plated,1,2,PTH
FMAT,2
INCH
; #@! TA.AperFunction,Plated,PTH,ComponentDrill
T1C0.0350
; #@! TA.AperFunction,Plated,PTH,ComponentDrill
T2C0.0394
; #@! TA.AperFunction,Plated,PTH,ComponentDrill
T3C0.0700
; #@! TA.AperFunction,Plated,PTH,ComponentDrill
T4C0.1500
%
G90
G05
T1
X1.35Y4.65
X1.35Y4.55
X1.35Y4.45
X1.35Y4.35
X1.35Y4.25
X1.35Y4.15
X1.35Y4.05
X1.35Y3.95
X1.35Y3.85
X1.35Y3.75
X1.35Y3.65
X1.35Y3.55
X1.35Y3.25
X1.35Y3.15
X1.35Y3.05
X1.35Y2.95
X1.35Y2.85
X1.35Y2.55
X1.35Y2.45
X1.35Y2.35
X1.35Y2.25
X1.35Y2.15
X1.35Y2.05
X1.35Y1.95
X1.35Y1.85
X1.35Y1.75
X1.35Y1.65
X1.35Y1.55
X1.35Y1.45
X1.45Y4.65
X1.45Y4.55
X1.45Y4.45
X1.45Y4.35
X1.45Y4.25
X1.45Y4.15
X1.45Y4.05
X1.45Y3.95
X1.45Y3.85
X1.45Y3.75
X1.45Y3.65
X1.45Y3.55
X1.45Y3.25
X1.45Y3.15
X1.45Y3.05
X1.45Y2.95
X1.45Y2.85
X1.45Y2.55
X1.45Y2.45
X1.45Y2.35
X1.45Y2.25
X1.45Y2.15
X1.45Y2.05
X1.45Y1.95
X1.45Y1.85
X1.45Y1.75
X1.45Y1.65
X1.45Y1.55
X1.45Y1.45
X1.55Y4.65
X1.55Y4.55
X1.55Y4.45
X1.55Y4.35
X1.55Y4.25
X1.55Y4.15
X1.55Y4.05
X1.55Y3.95
X1.55Y3.85
X1.55Y3.75
X1.55Y3.65
X1.55Y3.55
X1.55Y3.25
X1.55Y3.15
X1.55Y3.05
X1.55Y2.95
X1.55Y2.85
X1.55Y2.55
X1.55Y2.45
X1.55Y2.35
X1.55Y2.25
X1.55Y2.15
X1.55Y2.05
X1.55Y1.95
X1.55Y1.85
X1.55Y1.75
X1.55Y1.65
X1.55Y1.55
X1.55Y1.45
X1.65Y4.65
X1.65Y4.55
X1.65Y4.45
X1.65Y4.35
X1.65Y4.25
X1.65Y4.15
X1.65Y4.05
X1.65Y3.95
X1.65Y3.85
X1.65Y3.75
X1.65Y3.65
X1.65Y3.55
X1.65Y3.25
X1.65Y3.15
X1.65Y3.05
X1.65Y2.95
X1.65Y2.85
X1.65Y2.55
X1.65Y2.45
X1.65Y2.35
X1.65Y2.25
X1.65Y2.15
X1.65Y2.05
X1.65Y1.95
X1.65Y1.85
X1.65Y1.75
X1.65Y1.65
X1.65Y1.55
X1.65Y1.45
X1.75Y4.65
X1.75Y4.55
X1.75Y4.45
X1.75Y4.35
X1.75Y4.25
X1.75Y4.15
X1.75Y4.05
X1.75Y3.95
X1.75Y3.85
X1.75Y3.75
X1.75Y3.65
X1.75Y3.55
X1.75Y3.25
X1.75Y3.15
X1.75Y3.05
X1.75Y2.95
X1.75Y2.85
X1.75Y2.55
X1.75Y2.45
X1.75Y2.35
X1.75Y2.25
X1.75Y2.15
X1.75Y2.05
X1.75Y1.95
X1.75Y1.85
X1.75Y1.75
X1.75Y1.65
X1.75Y1.55
X1.75Y1.45
X1.85Y4.65
X1.85Y4.55
X1.85Y4.45
X1.85Y4.35
X1.85Y4.25
X1.85Y4.15
X1.85Y4.05
X1.85Y3.95
X1.85Y3.85
X1.85Y3.75
X1.85Y3.65
X1.85Y3.55
X1.85Y3.25
X1.85Y3.15
X1.85Y3.05
X1.85Y2.95
X1.85Y2.85
X1.85Y2.55
X1.85Y2.45
X1.85Y2.35
X1.85Y2.25
X1.85Y2.15
X1.85Y2.05
X1.85Y1.95
X1.85Y1.85
X1.85Y1.75
X1.85Y1.65
X1.85Y1.55
X1.85Y1.45
X1.95Y4.65
X1.95Y4.55
X1.95Y4.45
X1.95Y4.35
X1.95Y4.25
X1.95Y4.15
X1.95Y4.05
X1.95Y3.95
X1.95Y3.85
X1.95Y3.75
X1.95Y3.65
X1.95Y3.55
X1.95Y3.25
X1.95Y3.15
X1.95Y3.05
X1.95Y2.95
X1.95Y2.85
X1.95Y2.55
X1.95Y2.45
X1.95Y2.35
X1.95Y2.25
X1.95Y2.15
X1.95Y2.05
X1.95Y1.95
X1.95Y1.85
X1.95Y1.75
X1.95Y1.65
X1.95Y1.55
X1.95Y1.45
X2.05Y4.65
X2.05Y4.55
X2.05Y4.45
X2.05Y4.35
X2.05Y4.25
X2.05Y4.15
X2.05Y4.05
X2.05Y3.95
X2.05Y3.85
X2.05Y3.75
X2.05Y3.65
X2.05Y3.55
X2.05Y3.25
X2.05Y3.15
X2.05Y3.05
X2.05Y2.95
X2.05Y2.85
X2.05Y2.55
X2.05Y2.45
X2.05Y2.35
X2.05Y2.25
X2.05Y2.15
X2.05Y2.05
X2.05Y1.95
X2.05Y1.85
X2.05Y1.75
X2.05Y1.65
X2.05Y1.55
X2.05Y1.45
X2.15Y4.65
X2.15Y4.55
X2.15Y4.45
X2.15Y4.35
X2.15Y4.25
X2.15Y4.15
X2.15Y4.05
X2.15Y3.95
X2.15Y3.85
X2.15Y3.75
X2.15Y3.65
X2.15Y3.55
X2.15Y3.25
X2.15Y3.15
X2.15Y3.05
X2.15Y2.95
X2.15Y2.85
X2.15Y2.55
X2.15Y2.45
X2.15Y2.35
X2.15Y2.25
X2.15Y2.15
X2.15Y2.05
X2.15Y1.95
X2.15Y1.85
X2.15Y1.75
X2.15Y1.65
X2.15Y1.55
X2.15Y1.45
X2.25Y4.65
X2.25Y4.55
X2.25Y4.45
X2.25Y4.35
X2.25Y4.25
X2.25Y4.15
X2.25Y4.05
X2.25Y3.95
X2.25Y3.85
X2.25Y3.75
X2.25Y3.65
X2.25Y3.55
X2.25Y3.25
X2.25Y3.15
X2.25Y3.05
X2.25Y2.95
X2.25Y2.85
X2.25Y2.55
X2.25Y2.45
X2.25Y2.35
X2.25Y2.25
X2.25Y2.15
X2.25Y2.05
X2.25Y1.95
X2.25Y1.85
X2.25Y1.75
X2.25Y1.65
X2.25Y1.55
X2.25Y1.45
X2.35Y4.65
X2.35Y4.55
X2.35Y4.45
X2.35Y4.35
X2.35Y4.25
X2.35Y4.15
X2.35Y4.05
X2.35Y3.95
X2.35Y3.85
X2.35Y3.75
X2.35Y3.65
X2.35Y3.55
X2.35Y3.25
X2.35Y3.15
X2.35Y3.05
X2.35Y2.95
X2.35Y2.85
X2.35Y2.55
X2.35Y2.45
X2.35Y2.35
X2.35Y2.25
X2.35Y2.15
X2.35Y2.05
X2.35Y1.95
X2.35Y1.85
X2.35Y1.75
X2.35Y1.65
X2.35Y1.55
X2.35Y1.45
X2.45Y4.65
X2.45Y4.55
X2.45Y4.45
X2.45Y4.35
X2.45Y4.25
X2.45Y4.15
X2.45Y4.05
X2.45Y3.95
X2.45Y3.85
X2.45Y3.75
X2.45Y3.65
X2.45Y3.55
X2.45Y3.25
X2.45Y3.15
X2.45Y3.05
X2.45Y2.95
X2.45Y2.85
X2.45Y2.55
X2.45Y2.45
X2.45Y2.35
X2.45Y2.25
X2.45Y2.15
X2.45Y2.05
X2.45Y1.95
X2.45Y1.85
X2.45Y1.75
X2.45Y1.65
X2.45Y1.55
X2.45Y1.45
X2.55Y4.65
X2.55Y4.55
X2.55Y4.45
X2.55Y4.35
X2.55Y4.25
X2.55Y4.15
X2.55Y4.05
X2.55Y3.95
X2.55Y3.85
X2.55Y3.75
X2.55Y3.65
X2.55Y3.55
X2.55Y3.25
X2.55Y3.15
X2.55Y3.05
X2.55Y2.95
X2.55Y2.85
X2.55Y2.55
X2.55Y2.45
X2.55Y2.35
X2.55Y2.25
X2.55Y2.15
X2.55Y2.05
X2.55Y1.95
X2.55Y1.85
X2.55Y1.75
X2.55Y1.65
X2.55Y1.55
X2.55Y1.45
X2.65Y4.65
X2.65Y4.55
X2.65Y4.45
X2.65Y4.35
X2.65Y4.25
X2.65Y4.15
X2.65Y4.05
X2.65Y3.95
X2.65Y3.85
X2.65Y3.75
X2.65Y3.65
X2.65Y3.55
X2.65Y3.25
X2.65Y3.15
X2.65Y3.05
X2.65Y2.95
X2.65Y2.85
X2.65Y2.55
X2.65Y2.45
X2.65Y2.35
X2.65Y2.25
X2.65Y2.15
X2.65Y2.05
X2.65Y1.95
X2.65Y1.85
X2.65Y1.75
X2.65Y1.65
X2.65Y1.55
X2.65Y1.45
X2.75Y4.65
X2.75Y4.55
X2.75Y4.45
X2.75Y4.35
X2.75Y4.25
X2.75Y4.15
X2.75Y4.05
X2.75Y3.95
X2.75Y3.85
X2.75Y3.75
X2.75Y3.65
X2.75Y3.55
X2.75Y3.25
X2.75Y3.15
X2.75Y3.05
X2.75Y2.95
X2.75Y2.85
X2.75Y2.55
X2.75Y2.45
X2.75Y2.35
X2.75Y2.25
X2.75Y2.15
X2.75Y2.05
X2.75Y1.95
X2.75Y1.85
X2.75Y1.75
X2.75Y1.65
X2.75Y1.55
X2.75Y1.45
X2.85Y4.65
X2.85Y4.55
X2.85Y4.45
X2.85Y4.35
X2.85Y4.25
X2.85Y4.15
X2.85Y4.05
X2.85Y3.95
X2.85Y3.85
X2.85Y3.75
X2.85Y3.65
X2.85Y3.55
X2.85Y3.25
X2.85Y3.15
X2.85Y3.05
X2.85Y2.95
X2.85Y2.85
X2.85Y2.55
X2.85Y2.45
X2.85Y2.35
X2.85Y2.25
X2.85Y2.15
X2.85Y2.05
X2.85Y1.95
X2.85Y1.85
X2.85Y1.75
X2.85Y1.65
X2.85Y1.55
X2.85Y1.45
X2.95Y4.65
X2.95Y4.55
X2.95Y4.45
X2.95Y4.35
X2.95Y4.25
X2.95Y4.15
X2.95Y4.05
X2.95Y3.95
X2.95Y3.85
X2.95Y3.75
X2.95Y3.65
X2.95Y3.55
X2.95Y3.25
X2.95Y3.15
X2.95Y3.05
X2.95Y2.95
X2.95Y2.85
X2.95Y2.55
X2.95Y2.45
X2.95Y2.35
X2.95Y2.25
X2.95Y2.15
X2.95Y2.05
X2.95Y1.95
X2.95Y1.85
X2.95Y1.75
X2.95Y1.65
X2.95Y1.55
X2.95Y1.45
X3.05Y4.65
X3.05Y4.55
X3.05Y4.45
X3.05Y4.35
X3.05Y4.25
X3.05Y4.15
X3.05Y4.05
X3.05Y3.95
X3.05Y3.85
X3.05Y3.75
X3.05Y3.65
X3.05Y3.55
X3.05Y3.25
X3.05Y3.15
X3.05Y3.05
X3.05Y2.95
X3.05Y2.85
X3.05Y2.55
X3.05Y2.45
X3.05Y2.35
X3.05Y2.25
X3.05Y2.15
X3.05Y2.05
X3.05Y1.95
X3.05Y1.85
X3.05Y1.75
X3.05Y1.65
X3.05Y1.55
X3.05Y1.45
X3.15Y4.65
X3.15Y4.55
X3.15Y4.45
X3.15Y4.35
X3.15Y4.25
X3.15Y4.15
X3.15Y4.05
X3.15Y3.95
X3.15Y3.85
X3.15Y3.75
X3.15Y3.65
X3.15Y3.55
X3.15Y3.25
X3.15Y3.15
X3.15Y3.05
X3.15Y2.95
X3.15Y2.85
X3.15Y2.55
X3.15Y2.45
X3.15Y2.35
X3.15Y2.25
X3.15Y2.15
X3.15Y2.05
X3.15Y1.95
X3.15Y1.85
X3.15Y1.75
X3.15Y1.65
X3.15Y1.55
X3.15Y1.45
X3.25Y4.65
X3.25Y4.55
X3.25Y4.45
X3.25Y4.35
X3.25Y4.25
X3.25Y4.15
X3.25Y4.05
X3.25Y3.95
X3.25Y3.85
X3.25Y3.75
X3.25Y3.65
X3.25Y3.55
X3.25Y3.25
X3.25Y3.15
X3.25Y3.05
X3.25Y2.95
X3.25Y2.85
X3.25Y2.55
X3.25Y2.45
X3.25Y2.35
X3.25Y2.25
X3.25Y2.15
X3.25Y2.05
X3.25Y1.95
X3.25Y1.85
X3.25Y1.75
X3.25Y1.65
X3.25Y1.55
X3.25Y1.45
X3.35Y4.65
X3.35Y4.55
X3.35Y4.45
X3.35Y4.35
X3.35Y4.25
X3.35Y4.15
X3.35Y4.05
X3.35Y3.95
X3.35Y3.85
X3.35Y3.75
X3.35Y3.65
X3.35Y3.55
X3.35Y3.25
X3.35Y3.15
X3.35Y3.05
X3.35Y2.95
X3.35Y2.85
X3.35Y2.55
X3.35Y2.45
X3.35Y2.35
X3.35Y2.25
X3.35Y2.15
X3.35Y2.05
X3.35Y1.95
X3.35Y1.85
X3.35Y1.75
X3.35Y1.65
X3.35Y1.55
X3.35Y1.45
X3.45Y4.65
X3.45Y4.55
X3.45Y4.45
X3.45Y4.35
X3.45Y4.25
X3.45Y4.15
X3.45Y4.05
X3.45Y3.95
X3.45Y3.85
X3.45Y3.75
X3.45Y3.65
X3.45Y3.55
X3.45Y3.25
X3.45Y3.15
X3.45Y3.05
X3.45Y2.95
X3.45Y2.85
X3.45Y2.55
X3.45Y2.45
X3.45Y2.35
X3.45Y2.25
X3.45Y2.15
X3.45Y2.05
X3.45Y1.95
X3.45Y1.85
X3.45Y1.75
X3.45Y1.65
X3.45Y1.55
X3.45Y1.45
X3.55Y4.65
X3.55Y4.55
X3.55Y4.45
X3.55Y4.35
X3.55Y4.25
X3.55Y4.15
X3.55Y4.05
X3.55Y3.95
X3.55Y3.85
X3.55Y3.75
X3.55Y3.65
X3.55Y3.55
X3.55Y3.25
X3.55Y3.15
X3.55Y3.05
X3.55Y2.95
X3.55Y2.85
X3.55Y2.55
X3.55Y2.45
X3.55Y2.35
X3.55Y2.25
X3.55Y2.15
X3.55Y2.05
X3.55Y1.95
X3.55Y1.85
X3.55Y1.75
X3.55Y1.65
X3.55Y1.55
X3.55Y1.45
X3.65Y4.65
X3.65Y4.55
X3.65Y4.45
X3.65Y4.35
X3.65Y4.25
X3.65Y4.15
X3.65Y4.05
X3.65Y3.95
X3.65Y3.85
X3.65Y3.75
X3.65Y3.65
X3.65Y3.55
X3.65Y3.25
X3.65Y3.15
X3.65Y3.05
X3.65Y2.95
X3.65Y2.85
X3.65Y2.55
X3.65Y2.45
X3.65Y2.35
X3.65Y2.25
X3.65Y2.15
X3.65Y2.05
X3.65Y1.95
X3.65Y1.85
X3.65Y1.75
X3.65Y1.65
X3.65Y1.55
X3.65Y1.45
X3.75Y4.65
X3.75Y4.55
X3.75Y4.45
X3.75Y4.35
X3.75Y4.25
X3.75Y4.15
X3.75Y4.05
X3.75Y3.95
X3.75Y3.85
X3.75Y3.75
X3.75Y3.65
X3.75Y3.55
X3.75Y3.25
X3.75Y3.15
X3.75Y3.05
X3.75Y2.95
X3.75Y2.85
X3.75Y2.55
X3.75Y2.45
X3.75Y2.35
X3.75Y2.25
X3.75Y2.15
X3.75Y2.05
X3.75Y1.95
X3.75Y1.85
X3.75Y1.75
X3.75Y1.65
X3.75Y1.55
X3.75Y1.45
X3.85Y4.65
X3.85Y4.55
X3.85Y4.45
X3.85Y4.35
X3.85Y4.25
X3.85Y4.15
X3.85Y4.05
X3.85Y3.95
X3.85Y3.85
X3.85Y3.75
X3.85Y3.65
X3.85Y3.55
X3.85Y3.25
X3.85Y3.15
X3.85Y3.05
X3.85Y2.95
X3.85Y2.85
X3.85Y2.55
X3.85Y2.45
X3.85Y2.35
X3.85Y2.25
X3.85Y2.15
X3.85Y2.05
X3.85Y1.95
X3.85Y1.85
X3.85Y1.75
X3.85Y1.65
X3.85Y1.55
X3.85Y1.45
X3.95Y4.65
X3.95Y4.55
X3.95Y4.45
X3.95Y4.35
X3.95Y4.25
X3.95Y4.15
X3.95Y4.05
X3.95Y3.95
X3.95Y3.85
X3.95Y3.75
X3.95Y3.65
X3.95Y3.55
X3.95Y3.25
X3.95Y3.15
X3.95Y3.05
X3.95Y2.95
X3.95Y2.85
X3.95Y2.55
X3.95Y2.45
X3.95Y2.35
X3.95Y2.25
X3.95Y2.15
X3.95Y2.05
X3.95Y1.95
X3.95Y1.85
X3.95Y1.75
X3.95Y1.65
X3.95Y1.55
X3.95Y1.45
X4.05Y4.65
X4.05Y4.55
X4.05Y4.45
X4.05Y4.35
X4.05Y4.25
X4.05Y4.15
X4.05Y4.05
X4.05Y3.95
X4.05Y3.85
X4.05Y3.75
X4.05Y3.65
X4.05Y3.55
X4.05Y3.25
X4.05Y3.15
X4.05Y3.05
X4.05Y2.95
X4.05Y2.85
X4.05Y2.55
X4.05Y2.45
X4.05Y2.35
X4.05Y2.25
X4.05Y2.15
X4.05Y2.05
X4.05Y1.95
X4.05Y1.85
X4.05Y1.75
X4.05Y1.65
X4.05Y1.55
X4.05Y1.45
X4.15Y4.65
X4.15Y4.55
X4.15Y4.45
X4.15Y4.35
X4.15Y4.25
X4.15Y4.15
X4.15Y4.05
X4.15Y3.95
X4.15Y3.85
X4.15Y3.75
X4.15Y3.65
X4.15Y3.55
X4.15Y3.25
X4.15Y3.15
X4.15Y3.05
X4.15Y2.95
X4.15Y2.85
X4.15Y2.55
X4.15Y2.45
X4.15Y2.35
X4.15Y2.25
X4.15Y2.15
X4.15Y2.05
X4.15Y1.95
X4.15Y1.85
X4.15Y1.75
X4.15Y1.65
X4.15Y1.55
X4.15Y1.45
X4.25Y4.65
X4.25Y4.55
X4.25Y4.45
X4.25Y4.35
X4.25Y4.25
X4.25Y4.15
X4.25Y4.05
X4.25Y3.95
X4.25Y3.85
X4.25Y3.75
X4.25Y3.65
X4.25Y3.55
X4.25Y3.25
X4.25Y3.15
X4.25Y3.05
X4.25Y2.95
X4.25Y2.85
X4.25Y2.55
X4.25Y2.45
X4.25Y2.35
X4.25Y2.25
X4.25Y2.15
X4.25Y2.05
X4.25Y1.95
X4.25Y1.85
X4.25Y1.75
X4.25Y1.65
X4.25Y1.55
X4.25Y1.45
X4.35Y4.65
X4.35Y4.55
X4.35Y4.45
X4.35Y4.35
X4.35Y4.25
X4.35Y4.15
X4.35Y4.05
X4.35Y3.95
X4.35Y3.85
X4.35Y3.75
X4.35Y3.65
X4.35Y3.55
X4.35Y3.25
X4.35Y3.15
X4.35Y3.05
X4.35Y2.95
X4.35Y2.85
X4.35Y2.55
X4.35Y2.45
X4.35Y2.35
X4.35Y2.25
X4.35Y2.15
X4.35Y2.05
X4.35Y1.95
X4.35Y1.85
X4.35Y1.75
X4.35Y1.65
X4.35Y1.55
X4.35Y1.45
X4.45Y4.65
X4.45Y4.55
X4.45Y4.45
X4.45Y4.35
X4.45Y4.25
X4.45Y4.15
X4.45Y4.05
X4.45Y3.95
X4.45Y3.85
X4.45Y3.75
X4.45Y3.65
X4.45Y3.55
X4.45Y3.25
X4.45Y3.15
X4.45Y3.05
X4.45Y2.95
X4.45Y2.85
X4.45Y2.55
X4.45Y2.45
X4.45Y2.35
X4.45Y2.25
X4.45Y2.15
X4.45Y2.05
X4.45Y1.95
X4.45Y1.85
X4.45Y1.75
X4.45Y1.65
X4.45Y1.55
X4.45Y1.45
X4.55Y4.55
X4.55Y4.45
X4.55Y4.35
X4.55Y4.25
X4.55Y4.15
X4.55Y4.05
X4.55Y3.95
X4.55Y3.85
X4.55Y3.75
X4.55Y3.65
X4.55Y3.55
X4.55Y3.45
X4.55Y3.35
X4.55Y3.25
X4.55Y3.15
X4.55Y3.05
X4.55Y2.95
X4.55Y2.85
X4.55Y2.75
X4.55Y2.65
X4.55Y2.55
X4.55Y2.45
X4.55Y2.35
X4.55Y2.25
X4.55Y2.15
X4.55Y2.05
X4.55Y1.95
X4.55Y1.85
X4.55Y1.75
X4.55Y1.65
X4.55Y1.55
X4.65Y4.55
X4.65Y4.45
X4.65Y4.35
X4.65Y4.25
X4.65Y4.15
X4.65Y4.05
X4.65Y3.95
X4.65Y3.85
X4.65Y3.75
X4.65Y3.65
X4.65Y3.55
X4.65Y3.45
X4.65Y3.35
X4.65Y3.25
X4.65Y3.15
X4.65Y3.05
X4.65Y2.95
X4.65Y2.85
X4.65Y2.75
X4.65Y2.65
X4.65Y2.55
X4.65Y2.45
X4.65Y2.35
X4.65Y2.25
X4.65Y2.15
X4.65Y2.05
X4.65Y1.95
X4.65Y1.85
X4.65Y1.75
X4.65Y1.65
X4.65Y1.55
X4.75Y4.55
X4.75Y4.45
X4.75Y4.35
X4.75Y4.25
X4.75Y4.15
X4.75Y4.05
X4.75Y3.95
X4.75Y3.85
X4.75Y3.75
X4.75Y3.65
X4.75Y3.55
X4.75Y3.45
X4.75Y3.35
X4.75Y3.25
X4.75Y3.15
X4.75Y3.05
X4.75Y2.95
X4.75Y2.85
X4.75Y2.75
X4.75Y2.65
X4.75Y2.55
X4.75Y2.45
X4.75Y2.35
X4.75Y2.25
X4.75Y2.15
X4.75Y2.05
X4.75Y1.95
X4.75Y1.85
X4.75Y1.75
X4.75Y1.65
X4.75Y1.55
T2
X1.05Y4.55
X1.05Y4.45
X1.05Y4.35
X1.05Y4.25
X1.05Y4.15
X1.05Y4.05
X1.05Y3.95
X1.05Y3.85
X1.05Y3.75
X1.05Y3.65
X1.05Y3.55
X1.05Y3.45
X1.05Y3.35
X1.05Y3.25
X1.05Y3.15
X1.05Y3.05
X1.05Y2.95
X1.05Y2.85
X1.05Y2.75
X1.05Y2.65
X1.05Y2.55
X1.05Y2.45
X1.05Y2.35
X1.05Y2.25
X1.05Y2.15
X1.05Y2.05
X1.05Y1.95
X1.05Y1.85
X1.05Y1.75
X1.05Y1.65
X1.05Y1.55
X1.05Y1.45
X1.15Y4.55
X1.15Y4.45
X1.15Y4.35
X1.15Y4.25
X1.15Y4.15
X1.15Y4.05
X1.15Y3.95
X1.15Y3.85
X1.15Y3.75
X1.15Y3.65
X1.15Y3.55
X1.15Y3.45
X1.15Y3.35
X1.15Y3.25
X1.15Y3.15
X1.15Y3.05
X1.15Y2.95
X1.15Y2.85
X1.15Y2.75
X1.15Y2.65
X1.15Y2.55
X1.15Y2.45
X1.15Y2.35
X1.15Y2.25
X1.15Y2.15
X1.15Y2.05
X1.15Y1.95
X1.15Y1.85
X1.15Y1.75
X1.15Y1.65
X1.15Y1.55
X1.25Y4.55
X1.25Y4.45
X1.25Y4.35
X1.25Y4.25
X1.25Y4.15
X1.25Y4.05
X1.25Y3.95
X1.25Y3.85
X1.25Y3.75
X1.25Y3.65
X1.25Y3.55
X1.25Y3.45
X1.25Y3.35
X1.25Y3.25
X1.25Y3.15
X1.25Y3.05
X1.25Y2.95
X1.25Y2.85
X1.25Y2.75
X1.25Y2.65
X1.25Y2.55
X1.25Y2.45
X1.25Y2.35
X1.25Y2.25
X1.25Y2.15
X1.25Y2.05
X1.25Y1.95
X1.25Y1.85
X1.25Y1.75
X1.25Y1.65
X1.25Y1.55
X1.35Y4.95
X1.35Y3.45
X1.35Y3.35
X1.35Y2.75
X1.35Y2.65
X1.35Y1.15
X1.45Y4.95
X1.45Y4.85
X1.45Y4.75
X1.45Y3.45
X1.45Y3.35
X1.45Y2.75
X1.45Y2.65
X1.45Y1.35
X1.45Y1.25
X1.45Y1.15
X1.55Y4.95
X1.55Y4.85
X1.55Y4.75
X1.55Y3.45
X1.55Y3.35
X1.55Y2.75
X1.55Y2.65
X1.55Y1.35
X1.55Y1.25
X1.55Y1.15
X1.65Y4.95
X1.65Y4.85
X1.65Y4.75
X1.65Y3.45
X1.65Y3.35
X1.65Y2.75
X1.65Y2.65
X1.65Y1.35
X1.65Y1.25
X1.65Y1.15
X1.75Y4.95
X1.75Y4.85
X1.75Y4.75
X1.75Y3.45
X1.75Y3.35
X1.75Y2.75
X1.75Y2.65
X1.75Y1.35
X1.75Y1.25
X1.75Y1.15
X1.85Y4.95
X1.85Y4.85
X1.85Y4.75
X1.85Y3.45
X1.85Y3.35
X1.85Y2.75
X1.85Y2.65
X1.85Y1.35
X1.85Y1.25
X1.85Y1.15
X1.95Y4.95
X1.95Y4.85
X1.95Y4.75
X1.95Y3.45
X1.95Y3.35
X1.95Y2.75
X1.95Y2.65
X1.95Y1.35
X1.95Y1.25
X1.95Y1.15
X2.05Y4.95
X2.05Y4.85
X2.05Y4.75
X2.05Y3.45
X2.05Y3.35
X2.05Y2.75
X2.05Y2.65
X2.05Y1.35
X2.05Y1.25
X2.05Y1.15
X2.15Y4.95
X2.15Y4.85
X2.15Y4.75
X2.15Y3.45
X2.15Y3.35
X2.15Y2.75
X2.15Y2.65
X2.15Y1.35
X2.15Y1.25
X2.15Y1.15
X2.25Y4.95
X2.25Y4.85
X2.25Y4.75
X2.25Y3.45
X2.25Y3.35
X2.25Y2.75
X2.25Y2.65
X2.25Y1.35
X2.25Y1.25
X2.25Y1.15
X2.35Y4.95
X2.35Y4.85
X2.35Y4.75
X2.35Y3.45
X2.35Y3.35
X2.35Y2.75
X2.35Y2.65
X2.35Y1.35
X2.35Y1.25
X2.35Y1.15
X2.45Y4.95
X2.45Y4.85
X2.45Y4.75
X2.45Y3.45
X2.45Y3.35
X2.45Y2.75
X2.45Y2.65
X2.45Y1.35
X2.45Y1.25
X2.45Y1.15
X2.55Y4.95
X2.55Y4.85
X2.55Y4.75
X2.55Y3.45
X2.55Y3.35
X2.55Y2.75
X2.55Y2.65
X2.55Y1.35
X2.55Y1.25
X2.55Y1.15
X2.65Y4.95
X2.65Y4.85
X2.65Y4.75
X2.65Y3.45
X2.65Y3.35
X2.65Y2.75
X2.65Y2.65
X2.65Y1.35
X2.65Y1.25
X2.65Y1.15
X2.75Y4.95
X2.75Y4.85
X2.75Y4.75
X2.75Y3.45
X2.75Y3.35
X2.75Y2.75
X2.75Y2.65
X2.75Y1.35
X2.75Y1.25
X2.75Y1.15
X2.85Y4.95
X2.85Y4.85
X2.85Y4.75
X2.85Y3.45
X2.85Y3.35
X2.85Y2.75
X2.85Y2.65
X2.85Y1.35
X2.85Y1.25
X2.85Y1.15
X2.95Y4.95
X2.95Y4.85
X2.95Y4.75
X2.95Y3.45
X2.95Y3.35
X2.95Y2.75
X2.95Y2.65
X2.95Y1.35
X2.95Y1.25
X2.95Y1.15
X3.05Y4.95
X3.05Y4.85
X3.05Y4.75
X3.05Y3.45
X3.05Y3.35
X3.05Y2.75
X3.05Y2.65
X3.05Y1.35
X3.05Y1.25
X3.05Y1.15
X3.15Y4.95
X3.15Y4.85
X3.15Y4.75
X3.15Y3.45
X3.15Y3.35
X3.15Y2.75
X3.15Y2.65
X3.15Y1.35
X3.15Y1.25
X3.15Y1.15
X3.25Y4.95
X3.25Y4.85
X3.25Y4.75
X3.25Y3.45
X3.25Y3.35
X3.25Y2.75
X3.25Y2.65
X3.25Y1.35
X3.25Y1.25
X3.25Y1.15
X3.35Y4.95
X3.35Y4.85
X3.35Y4.75
X3.35Y3.45
X3.35Y3.35
X3.35Y2.75
X3.35Y2.65
X3.35Y1.35
X3.35Y1.25
X3.35Y1.15
X3.45Y4.95
X3.45Y4.85
X3.45Y4.75
X3.45Y3.45
X3.45Y3.35
X3.45Y2.75
X3.45Y2.65
X3.45Y1.35
X3.45Y1.25
X3.45Y1.15
X3.55Y4.95
X3.55Y4.85
X3.55Y4.75
X3.55Y3.45
X3.55Y3.35
X3.55Y2.75
X3.55Y2.65
X3.55Y1.35
X3.55Y1.25
X3.55Y1.15
X3.65Y4.95
X3.65Y4.85
X3.65Y4.75
X3.65Y3.45
X3.65Y3.35
X3.65Y2.75
X3.65Y2.65
X3.65Y1.35
X3.65Y1.25
X3.65Y1.15
X3.75Y4.95
X3.75Y4.85
X3.75Y4.75
X3.75Y3.45
X3.75Y3.35
X3.75Y2.75
X3.75Y2.65
X3.75Y1.35
X3.75Y1.25
X3.75Y1.15
X3.85Y4.95
X3.85Y4.85
X3.85Y4.75
X3.85Y3.45
X3.85Y3.35
X3.85Y2.75
X3.85Y2.65
X3.85Y1.35
X3.85Y1.25
X3.85Y1.15
X3.95Y4.95
X3.95Y4.85
X3.95Y4.75
X3.95Y3.45
X3.95Y3.35
X3.95Y2.75
X3.95Y2.65
X3.95Y1.35
X3.95Y1.25
X3.95Y1.15
X4.05Y4.95
X4.05Y4.85
X4.05Y4.75
X4.05Y3.45
X4.05Y3.35
X4.05Y2.75
X4.05Y2.65
X4.05Y1.35
X4.05Y1.25
X4.05Y1.15
X4.15Y4.95
X4.15Y4.85
X4.15Y4.75
X4.15Y3.45
X4.15Y3.35
X4.15Y2.75
X4.15Y2.65
X4.15Y1.35
X4.15Y1.25
X4.15Y1.15
X4.25Y4.95
X4.25Y4.85
X4.25Y4.75
X4.25Y3.45
X4.25Y3.35
X4.25Y2.75
X4.25Y2.65
X4.25Y1.35
X4.25Y1.25
X4.25Y1.15
X4.35Y4.95
X4.35Y4.85
X4.35Y4.75
X4.35Y3.45
X4.35Y3.35
X4.35Y2.75
X4.35Y2.65
X4.35Y1.35
X4.35Y1.25
X4.35Y1.15
X4.45Y4.95
X4.45Y4.85
X4.45Y4.75
X4.45Y3.45
X4.45Y3.35
X4.45Y2.75
X4.45Y2.65
X4.45Y1.35
X4.45Y1.25
X4.45Y1.15
X4.55Y4.95
T3
X4.85Y4.55
X4.85Y4.45
X4.85Y4.35
X4.85Y4.25
X4.85Y4.15
X4.85Y4.05
X4.85Y3.95
X4.85Y3.85
X4.85Y3.75
X4.85Y3.65
X4.85Y3.55
X4.85Y3.45
X4.85Y3.35
X4.85Y3.25
X4.85Y3.15
X4.85Y3.05
X4.85Y2.95
X4.85Y2.85
X4.85Y2.75
X4.85Y2.65
X4.85Y2.55
X4.85Y2.45
X4.85Y2.35
X4.85Y2.25
X4.85Y2.15
X4.85Y2.05
X4.85Y1.95
X4.85Y1.85
X4.85Y1.75
X4.85Y1.65
X4.85Y1.55
T4
X1.2Y4.775
X1.2Y1.275
X4.7Y4.775
X4.7Y1.275
T0
M30
