%TF.GenerationSoftware,KiCad,Pcbnew,7.0.8*%
%TF.CreationDate,2023-12-24T04:11:35-08:00*%
%TF.ProjectId,EZ Teknic Converter - R1,455a2054-656b-46e6-9963-20436f6e7665,rev?*%
%TF.SameCoordinates,Original*%
%TF.FileFunction,Copper,L2,Bot*%
%TF.FilePolarity,Positive*%
%FSLAX46Y46*%
G04 Gerber Fmt 4.6, Leading zero omitted, Abs format (unit mm)*
G04 Created by KiCad (PCBNEW 7.0.8) date 2023-12-24 04:11:35*
%MOMM*%
%LPD*%
G01*
G04 APERTURE LIST*
G04 Aperture macros list*
%AMRoundRect*
0 Rectangle with rounded corners*
0 $1 Rounding radius*
0 $2 $3 $4 $5 $6 $7 $8 $9 X,Y pos of 4 corners*
0 Add a 4 corners polygon primitive as box body*
4,1,4,$2,$3,$4,$5,$6,$7,$8,$9,$2,$3,0*
0 Add four circle primitives for the rounded corners*
1,1,$1+$1,$2,$3*
1,1,$1+$1,$4,$5*
1,1,$1+$1,$6,$7*
1,1,$1+$1,$8,$9*
0 Add four rect primitives between the rounded corners*
20,1,$1+$1,$2,$3,$4,$5,0*
20,1,$1+$1,$4,$5,$6,$7,0*
20,1,$1+$1,$6,$7,$8,$9,0*
20,1,$1+$1,$8,$9,$2,$3,0*%
G04 Aperture macros list end*
%TA.AperFunction,SMDPad,CuDef*%
%ADD10R,1.600000X5.500000*%
%TD*%
%TA.AperFunction,SMDPad,CuDef*%
%ADD11RoundRect,0.200000X-0.275000X0.200000X-0.275000X-0.200000X0.275000X-0.200000X0.275000X0.200000X0*%
%TD*%
%TA.AperFunction,SMDPad,CuDef*%
%ADD12RoundRect,0.218750X0.256250X-0.218750X0.256250X0.218750X-0.256250X0.218750X-0.256250X-0.218750X0*%
%TD*%
%TA.AperFunction,SMDPad,CuDef*%
%ADD13RoundRect,0.218750X-0.256250X0.218750X-0.256250X-0.218750X0.256250X-0.218750X0.256250X0.218750X0*%
%TD*%
%TA.AperFunction,SMDPad,CuDef*%
%ADD14RoundRect,0.200000X0.275000X-0.200000X0.275000X0.200000X-0.275000X0.200000X-0.275000X-0.200000X0*%
%TD*%
%TA.AperFunction,ViaPad*%
%ADD15C,0.600000*%
%TD*%
%TA.AperFunction,Conductor*%
%ADD16C,0.200000*%
%TD*%
%TA.AperFunction,Conductor*%
%ADD17C,0.500000*%
%TD*%
%TA.AperFunction,Conductor*%
%ADD18C,1.000000*%
%TD*%
G04 APERTURE END LIST*
D10*
%TO.P,U1,9,GND*%
%TO.N,GND*%
X45880000Y124785000D03*
%TO.P,U1,10,5V*%
%TO.N,+5V*%
X43880000Y124785000D03*
%TO.P,U1,11,B2*%
%TO.N,unconnected-(U1-B2-Pad11)*%
X41880000Y124785000D03*
%TO.P,U1,12,B1*%
%TO.N,unconnected-(U1-B1-Pad12)*%
X39880000Y124785000D03*
%TO.P,U1,13,A1*%
%TO.N,unconnected-(U1-A1-Pad13)*%
X37880000Y124785000D03*
%TO.P,U1,14,A2*%
%TO.N,unconnected-(U1-A2-Pad14)*%
X35880000Y124785000D03*
%TO.P,U1,15,GND*%
%TO.N,GND*%
X33880000Y124785000D03*
%TO.P,U1,16,VMOT*%
%TO.N,unconnected-(U1-VMOT-Pad16)*%
X31880000Y124785000D03*
%TD*%
D11*
%TO.P,R3,1*%
%TO.N,/B-ENABLE*%
X45212000Y133794000D03*
%TO.P,R3,2*%
%TO.N,Net-(D1-K)*%
X45212000Y132144000D03*
%TD*%
D12*
%TO.P,D3,1,K*%
%TO.N,Net-(D3-K)*%
X37338000Y134848500D03*
%TO.P,D3,2,A*%
%TO.N,/B-DIR*%
X37338000Y136423500D03*
%TD*%
D13*
%TO.P,D4,1,K*%
%TO.N,Net-(D4-K)*%
X43561000Y134772500D03*
%TO.P,D4,2,A*%
%TO.N,/5VDIAG*%
X43561000Y133197500D03*
%TD*%
%TO.P,D1,1,K*%
%TO.N,Net-(D1-K)*%
X44450000Y130581500D03*
%TO.P,D1,2,A*%
%TO.N,+5V*%
X44450000Y129006500D03*
%TD*%
D11*
%TO.P,R6,1*%
%TO.N,GND*%
X45212000Y136969000D03*
%TO.P,R6,2*%
%TO.N,Net-(D4-K)*%
X45212000Y135319000D03*
%TD*%
D14*
%TO.P,R4,1*%
%TO.N,GND*%
X38862000Y131636000D03*
%TO.P,R4,2*%
%TO.N,Net-(D2-K)*%
X38862000Y133286000D03*
%TD*%
D12*
%TO.P,D2,1,K*%
%TO.N,Net-(D2-K)*%
X38862000Y134848500D03*
%TO.P,D2,2,A*%
%TO.N,/B-STEP*%
X38862000Y136423500D03*
%TD*%
D14*
%TO.P,R5,1*%
%TO.N,GND*%
X37338000Y131636000D03*
%TO.P,R5,2*%
%TO.N,Net-(D3-K)*%
X37338000Y133286000D03*
%TD*%
D15*
%TO.N,+5V*%
X34417000Y132842000D03*
X33020000Y132808000D03*
X37846000Y129286000D03*
%TO.N,GND*%
X46355000Y138684000D03*
X33020000Y129066000D03*
X38105000Y137232000D03*
X46609000Y132588000D03*
X35605000Y137232000D03*
X46355000Y137668000D03*
X32385000Y138684000D03*
X47498000Y137668000D03*
X46355000Y139827000D03*
X32385000Y139827000D03*
X42418000Y137541000D03*
X47498000Y138684000D03*
X47498000Y139827000D03*
X40605000Y137232000D03*
X42291000Y130937000D03*
X33655000Y139827000D03*
X33655000Y138684000D03*
X32385000Y137668000D03*
X33655000Y137668000D03*
%TO.N,/B-STEP*%
X39370000Y137414000D03*
%TO.N,/B-DIR*%
X36830000Y137414000D03*
%TO.N,/5VDIAG*%
X43180000Y131953000D03*
%TO.N,/B-ENABLE*%
X46609000Y133731000D03*
%TO.N,/DIAG*%
X43180000Y130810000D03*
X40005000Y129159000D03*
%TD*%
D16*
%TO.N,+5V*%
X44450000Y125355000D02*
X43880000Y124785000D01*
D17*
X42926000Y128270000D02*
X38862000Y128270000D01*
X38862000Y128270000D02*
X37846000Y129286000D01*
X43434000Y125231000D02*
X43434000Y127762000D01*
D16*
X34417000Y132842000D02*
X34544000Y132842000D01*
X34417000Y132842000D02*
X33054000Y132842000D01*
X43880000Y124785000D02*
X43434000Y125231000D01*
X44450000Y129006500D02*
X44450000Y125355000D01*
X33054000Y132842000D02*
X33020000Y132808000D01*
D17*
X43434000Y127762000D02*
X42926000Y128270000D01*
D18*
%TO.N,GND*%
X33880000Y124785000D02*
X33880000Y129130000D01*
X45880000Y124785000D02*
X45880000Y129130000D01*
D16*
%TO.N,/B-STEP*%
X39370000Y136931500D02*
X39370000Y137414000D01*
X38862000Y136423500D02*
X39370000Y136931500D01*
%TO.N,/B-DIR*%
X37338000Y136423500D02*
X36830000Y136931500D01*
X36830000Y136931500D02*
X36830000Y137414000D01*
%TO.N,Net-(D1-K)*%
X44450000Y131382000D02*
X45212000Y132144000D01*
X44450000Y130581500D02*
X44450000Y131382000D01*
%TO.N,Net-(D2-K)*%
X38862000Y133286000D02*
X38862000Y134848500D01*
%TO.N,/5VDIAG*%
X43180000Y131953000D02*
X43180000Y132816500D01*
X43180000Y132816500D02*
X43561000Y133197500D01*
%TO.N,/B-ENABLE*%
X46609000Y133731000D02*
X45275000Y133731000D01*
X45275000Y133731000D02*
X45212000Y133794000D01*
%TO.N,/DIAG*%
X43180000Y130175000D02*
X43180000Y130810000D01*
X40005000Y129159000D02*
X42164000Y129159000D01*
X42164000Y129159000D02*
X43180000Y130175000D01*
%TO.N,Net-(D3-K)*%
X37338000Y133286000D02*
X37338000Y134848500D01*
%TO.N,Net-(D4-K)*%
X44665500Y134772500D02*
X45212000Y135319000D01*
X43561000Y134772500D02*
X44665500Y134772500D01*
%TD*%
%TA.AperFunction,Conductor*%
%TO.N,GND*%
G36*
X48330039Y140569315D02*
G01*
X48375794Y140516511D01*
X48387000Y140465000D01*
X48387000Y128394000D01*
X48367315Y128326961D01*
X48314511Y128281206D01*
X48263000Y128270000D01*
X45454138Y128270000D01*
X45387099Y128289685D01*
X45341344Y128342489D01*
X45331400Y128411647D01*
X45348599Y128459096D01*
X45362545Y128481706D01*
X45362545Y128481707D01*
X45362549Y128481713D01*
X45415436Y128641315D01*
X45425500Y128739826D01*
X45425500Y129273174D01*
X45415436Y129371685D01*
X45362549Y129531287D01*
X45274281Y129674391D01*
X45242353Y129706319D01*
X45208868Y129767642D01*
X45213852Y129837334D01*
X45242353Y129881681D01*
X45274280Y129913608D01*
X45274283Y129913612D01*
X45362544Y130056704D01*
X45362545Y130056707D01*
X45362549Y130056713D01*
X45415436Y130216315D01*
X45425500Y130314826D01*
X45425500Y130848174D01*
X45415436Y130946685D01*
X45371094Y131080497D01*
X45368693Y131150324D01*
X45404425Y131210366D01*
X45466945Y131241559D01*
X45488801Y131243500D01*
X45543613Y131243500D01*
X45543616Y131243500D01*
X45564778Y131245423D01*
X45614192Y131249913D01*
X45614194Y131249913D01*
X45614196Y131249914D01*
X45776606Y131300522D01*
X45922185Y131388528D01*
X45922188Y131388530D01*
X46042469Y131508811D01*
X46042470Y131508813D01*
X46042472Y131508815D01*
X46130478Y131654394D01*
X46181086Y131816804D01*
X46187500Y131887384D01*
X46187500Y132400616D01*
X46181086Y132471196D01*
X46130478Y132633606D01*
X46042472Y132779185D01*
X45940336Y132881320D01*
X45906853Y132942641D01*
X45911837Y133012333D01*
X45940340Y133056683D01*
X45961957Y133078299D01*
X46023281Y133111783D01*
X46092972Y133106797D01*
X46115608Y133095610D01*
X46259476Y133005211D01*
X46429745Y132945631D01*
X46429750Y132945630D01*
X46608996Y132925435D01*
X46609000Y132925435D01*
X46609004Y132925435D01*
X46788249Y132945630D01*
X46788254Y132945631D01*
X46958523Y133005211D01*
X47111262Y133101184D01*
X47238815Y133228737D01*
X47334788Y133381476D01*
X47354503Y133437816D01*
X47394368Y133551745D01*
X47394369Y133551750D01*
X47414565Y133730996D01*
X47414565Y133731003D01*
X47394369Y133910249D01*
X47394368Y133910254D01*
X47390542Y133921188D01*
X47334789Y134080522D01*
X47238816Y134233262D01*
X47111262Y134360816D01*
X46958522Y134456789D01*
X46788255Y134516368D01*
X46788252Y134516368D01*
X46788249Y134516369D01*
X46609004Y134536565D01*
X46608996Y134536565D01*
X46429750Y134516369D01*
X46429745Y134516368D01*
X46259475Y134456788D01*
X46220539Y134432322D01*
X46192986Y134415009D01*
X46125752Y134396009D01*
X46058916Y134416376D01*
X46039339Y134432317D01*
X46002836Y134468820D01*
X45969353Y134530141D01*
X45974337Y134599833D01*
X46002838Y134644180D01*
X46042469Y134683811D01*
X46042470Y134683813D01*
X46042472Y134683815D01*
X46130478Y134829394D01*
X46181086Y134991804D01*
X46187500Y135062384D01*
X46187500Y135575616D01*
X46181086Y135646196D01*
X46130478Y135808606D01*
X46042472Y135954185D01*
X45939983Y136056673D01*
X45906499Y136117994D01*
X45911483Y136187685D01*
X45939984Y136232034D01*
X46042072Y136334122D01*
X46130019Y136479604D01*
X46180590Y136641893D01*
X46187000Y136712427D01*
X46187000Y136719000D01*
X44237001Y136719000D01*
X44237001Y136712417D01*
X44243408Y136641897D01*
X44243409Y136641892D01*
X44293981Y136479603D01*
X44381927Y136334122D01*
X44381928Y136334121D01*
X44484015Y136232035D01*
X44517500Y136170712D01*
X44512516Y136101020D01*
X44484015Y136056673D01*
X44381530Y135954188D01*
X44381528Y135954185D01*
X44293522Y135808606D01*
X44293521Y135808603D01*
X44269655Y135732015D01*
X44230918Y135673868D01*
X44166892Y135645894D01*
X44112270Y135651199D01*
X43963685Y135700436D01*
X43865174Y135710500D01*
X43256826Y135710500D01*
X43158315Y135700436D01*
X42998713Y135647549D01*
X42998707Y135647545D01*
X42998704Y135647544D01*
X42855612Y135559283D01*
X42855608Y135559280D01*
X42736719Y135440391D01*
X42736716Y135440387D01*
X42648455Y135297295D01*
X42648452Y135297289D01*
X42648451Y135297287D01*
X42595564Y135137685D01*
X42595564Y135137683D01*
X42595563Y135137683D01*
X42585500Y135039181D01*
X42585500Y134505818D01*
X42595563Y134407316D01*
X42648450Y134247715D01*
X42648455Y134247704D01*
X42736716Y134104612D01*
X42736719Y134104608D01*
X42768647Y134072681D01*
X42802132Y134011358D01*
X42797148Y133941666D01*
X42768647Y133897319D01*
X42736719Y133865391D01*
X42736716Y133865387D01*
X42648455Y133722295D01*
X42648452Y133722289D01*
X42648451Y133722287D01*
X42595564Y133562685D01*
X42595564Y133562683D01*
X42595563Y133562683D01*
X42585500Y133464181D01*
X42585500Y132930836D01*
X42585501Y132930813D01*
X42585719Y132928678D01*
X42585298Y132899910D01*
X42574318Y132816502D01*
X42574318Y132816499D01*
X42578969Y132781173D01*
X42579500Y132773071D01*
X42579500Y132535412D01*
X42559815Y132468373D01*
X42552445Y132458097D01*
X42550185Y132455263D01*
X42550184Y132455262D01*
X42515848Y132400616D01*
X42454211Y132302523D01*
X42394631Y132132254D01*
X42394630Y132132249D01*
X42374435Y131953003D01*
X42374435Y131952996D01*
X42394630Y131773750D01*
X42394631Y131773745D01*
X42454211Y131603476D01*
X42552236Y131447472D01*
X42571236Y131380235D01*
X42552236Y131315528D01*
X42454211Y131159523D01*
X42394631Y130989254D01*
X42394630Y130989249D01*
X42374435Y130810003D01*
X42374435Y130809996D01*
X42394630Y130630750D01*
X42394633Y130630737D01*
X42454209Y130460478D01*
X42464125Y130444699D01*
X42483125Y130377462D01*
X42462757Y130310627D01*
X42446812Y130291047D01*
X41951584Y129795819D01*
X41890261Y129762334D01*
X41863903Y129759500D01*
X40587412Y129759500D01*
X40520373Y129779185D01*
X40510097Y129786555D01*
X40507267Y129788810D01*
X40507262Y129788816D01*
X40354522Y129884789D01*
X40184255Y129944368D01*
X40184252Y129944368D01*
X40184249Y129944369D01*
X40005004Y129964565D01*
X40004996Y129964565D01*
X39825750Y129944369D01*
X39825745Y129944368D01*
X39655478Y129884789D01*
X39655476Y129884788D01*
X39601727Y129851015D01*
X39502738Y129788816D01*
X39502737Y129788815D01*
X39375184Y129661262D01*
X39279211Y129508523D01*
X39219631Y129338254D01*
X39219630Y129338250D01*
X39211548Y129266517D01*
X39184481Y129202103D01*
X39126886Y129162548D01*
X39057049Y129160411D01*
X39000648Y129192719D01*
X38599305Y129594061D01*
X38576655Y129630134D01*
X38574811Y129629246D01*
X38571789Y129635521D01*
X38571789Y129635522D01*
X38475816Y129788262D01*
X38348262Y129915816D01*
X38195522Y130011789D01*
X38025255Y130071368D01*
X38025252Y130071368D01*
X38025249Y130071369D01*
X37846004Y130091565D01*
X37845996Y130091565D01*
X37666750Y130071369D01*
X37666745Y130071368D01*
X37496478Y130011789D01*
X37343738Y129915816D01*
X37343737Y129915815D01*
X37216184Y129788262D01*
X37120211Y129635523D01*
X37060631Y129465254D01*
X37060630Y129465249D01*
X37040435Y129286003D01*
X37040435Y129285996D01*
X37060630Y129106750D01*
X37060631Y129106745D01*
X37120211Y128936476D01*
X37216184Y128783737D01*
X37343737Y128656184D01*
X37496478Y128560211D01*
X37502756Y128557188D01*
X37501876Y128555362D01*
X37537936Y128532694D01*
X37588949Y128481682D01*
X37622435Y128420359D01*
X37617451Y128350668D01*
X37575580Y128294734D01*
X37510116Y128270316D01*
X37501269Y128270000D01*
X31239000Y128270000D01*
X31171961Y128289685D01*
X31126206Y128342489D01*
X31115000Y128394000D01*
X31115000Y131386000D01*
X36363001Y131386000D01*
X36363001Y131379417D01*
X36369408Y131308897D01*
X36369409Y131308892D01*
X36419981Y131146603D01*
X36507927Y131001122D01*
X36628122Y130880927D01*
X36773604Y130792980D01*
X36773603Y130792980D01*
X36935894Y130742409D01*
X36935893Y130742409D01*
X37006428Y130736000D01*
X37088000Y130736000D01*
X37088000Y131386000D01*
X37588000Y131386000D01*
X37588000Y130735999D01*
X37669582Y130736000D01*
X37669583Y130736001D01*
X37740102Y130742408D01*
X37740107Y130742409D01*
X37902397Y130792981D01*
X38035850Y130873656D01*
X38103405Y130891492D01*
X38164150Y130873656D01*
X38297603Y130792980D01*
X38459894Y130742409D01*
X38459893Y130742409D01*
X38530428Y130736000D01*
X38612000Y130736000D01*
X38612000Y131386000D01*
X39112000Y131386000D01*
X39112000Y130735999D01*
X39193582Y130736000D01*
X39193583Y130736001D01*
X39264102Y130742408D01*
X39264107Y130742409D01*
X39426396Y130792981D01*
X39571877Y130880927D01*
X39692072Y131001122D01*
X39780019Y131146604D01*
X39830590Y131308893D01*
X39837000Y131379427D01*
X39837000Y131386000D01*
X39112000Y131386000D01*
X38612000Y131386000D01*
X37588000Y131386000D01*
X37088000Y131386000D01*
X36363001Y131386000D01*
X31115000Y131386000D01*
X31115000Y132807996D01*
X32214435Y132807996D01*
X32234630Y132628750D01*
X32234631Y132628745D01*
X32294211Y132458476D01*
X32390184Y132305737D01*
X32517737Y132178184D01*
X32670476Y132082211D01*
X32840745Y132022631D01*
X32840750Y132022630D01*
X33019996Y132002435D01*
X33020000Y132002435D01*
X33020004Y132002435D01*
X33199249Y132022630D01*
X33199254Y132022631D01*
X33369523Y132082211D01*
X33522262Y132178184D01*
X33549259Y132205181D01*
X33610582Y132238666D01*
X33636940Y132241500D01*
X33834588Y132241500D01*
X33901627Y132221815D01*
X33911903Y132214445D01*
X33914736Y132212185D01*
X34067476Y132116211D01*
X34237745Y132056631D01*
X34237750Y132056630D01*
X34416996Y132036435D01*
X34417000Y132036435D01*
X34417004Y132036435D01*
X34596249Y132056630D01*
X34596254Y132056631D01*
X34766523Y132116211D01*
X34919262Y132212184D01*
X35046815Y132339737D01*
X35067693Y132372963D01*
X35137825Y132484578D01*
X35142788Y132492476D01*
X35146813Y132503977D01*
X35202368Y132662745D01*
X35215712Y132781173D01*
X35222565Y132841996D01*
X35222565Y132842003D01*
X35202369Y133021249D01*
X35202368Y133021254D01*
X35202368Y133021255D01*
X35142789Y133191522D01*
X35046816Y133344262D01*
X34919262Y133471816D01*
X34766522Y133567789D01*
X34596255Y133627368D01*
X34596252Y133627368D01*
X34596249Y133627369D01*
X34417004Y133647565D01*
X34416996Y133647565D01*
X34237750Y133627369D01*
X34237745Y133627368D01*
X34067478Y133567789D01*
X33914738Y133471816D01*
X33914736Y133471814D01*
X33911903Y133469555D01*
X33909724Y133468665D01*
X33908842Y133468111D01*
X33908744Y133468265D01*
X33847217Y133443145D01*
X33834588Y133442500D01*
X33550531Y133442500D01*
X33484559Y133461506D01*
X33473802Y133468265D01*
X33369522Y133533789D01*
X33199255Y133593368D01*
X33199252Y133593368D01*
X33199249Y133593369D01*
X33020004Y133613565D01*
X33019996Y133613565D01*
X32840750Y133593369D01*
X32840745Y133593368D01*
X32670478Y133533789D01*
X32517738Y133437816D01*
X32517737Y133437815D01*
X32390184Y133310262D01*
X32294211Y133157523D01*
X32234631Y132987254D01*
X32234630Y132987249D01*
X32214435Y132808003D01*
X32214435Y132807996D01*
X31115000Y132807996D01*
X31115000Y137413996D01*
X36024435Y137413996D01*
X36044630Y137234750D01*
X36044631Y137234745D01*
X36104211Y137064476D01*
X36200184Y136911738D01*
X36200184Y136911737D01*
X36201217Y136910705D01*
X36201670Y136909874D01*
X36204525Y136906295D01*
X36203897Y136905794D01*
X36234696Y136849379D01*
X36236467Y136839217D01*
X36244956Y136774739D01*
X36244956Y136774737D01*
X36305464Y136628657D01*
X36336876Y136587721D01*
X36362070Y136522551D01*
X36362500Y136512235D01*
X36362500Y136156818D01*
X36372563Y136058316D01*
X36425450Y135898715D01*
X36425455Y135898704D01*
X36513716Y135755612D01*
X36513719Y135755608D01*
X36545647Y135723681D01*
X36579132Y135662358D01*
X36574148Y135592666D01*
X36545647Y135548319D01*
X36513719Y135516391D01*
X36513716Y135516387D01*
X36425455Y135373295D01*
X36425452Y135373289D01*
X36425451Y135373287D01*
X36372564Y135213685D01*
X36372564Y135213683D01*
X36372563Y135213683D01*
X36362500Y135115181D01*
X36362500Y134581818D01*
X36372563Y134483316D01*
X36425450Y134323715D01*
X36425455Y134323704D01*
X36513716Y134180612D01*
X36513719Y134180608D01*
X36552654Y134141674D01*
X36586139Y134080351D01*
X36581155Y134010659D01*
X36552654Y133966312D01*
X36507530Y133921188D01*
X36507528Y133921185D01*
X36419522Y133775606D01*
X36373331Y133627369D01*
X36368913Y133613192D01*
X36362500Y133542613D01*
X36362500Y133029386D01*
X36368913Y132958807D01*
X36419522Y132796393D01*
X36507530Y132650811D01*
X36507531Y132650810D01*
X36610015Y132548327D01*
X36643500Y132487004D01*
X36638516Y132417312D01*
X36610015Y132372965D01*
X36507927Y132270877D01*
X36419980Y132125395D01*
X36369409Y131963106D01*
X36363000Y131892572D01*
X36363000Y131886000D01*
X39836999Y131886000D01*
X39836999Y131892582D01*
X39830591Y131963102D01*
X39830590Y131963107D01*
X39780018Y132125396D01*
X39692072Y132270877D01*
X39692071Y132270878D01*
X39589985Y132372963D01*
X39556499Y132434286D01*
X39561483Y132503977D01*
X39589984Y132548326D01*
X39692469Y132650811D01*
X39692470Y132650813D01*
X39692472Y132650815D01*
X39780478Y132796394D01*
X39831086Y132958804D01*
X39837500Y133029384D01*
X39837500Y133542616D01*
X39831086Y133613196D01*
X39780478Y133775606D01*
X39692472Y133921185D01*
X39647343Y133966313D01*
X39613860Y134027632D01*
X39618843Y134097323D01*
X39647345Y134141673D01*
X39686280Y134180608D01*
X39686283Y134180612D01*
X39774544Y134323704D01*
X39774545Y134323707D01*
X39774549Y134323713D01*
X39827436Y134483315D01*
X39837500Y134581826D01*
X39837500Y135115174D01*
X39827436Y135213685D01*
X39774549Y135373287D01*
X39686281Y135516391D01*
X39654353Y135548319D01*
X39620868Y135609642D01*
X39625852Y135679334D01*
X39654353Y135723681D01*
X39686280Y135755608D01*
X39686283Y135755612D01*
X39774544Y135898704D01*
X39774545Y135898707D01*
X39774549Y135898713D01*
X39827436Y136058315D01*
X39837500Y136156826D01*
X39837500Y136512235D01*
X39857185Y136579274D01*
X39863124Y136587721D01*
X39894535Y136628657D01*
X39900017Y136641892D01*
X39955044Y136774738D01*
X39963532Y136839215D01*
X39991796Y136903110D01*
X39998789Y136910711D01*
X39999815Y136911737D01*
X40095788Y137064476D01*
X40149859Y137219000D01*
X44237000Y137219000D01*
X44962000Y137219000D01*
X45462000Y137219000D01*
X46186999Y137219000D01*
X46186999Y137225582D01*
X46180591Y137296102D01*
X46180590Y137296107D01*
X46130018Y137458396D01*
X46042072Y137603877D01*
X45921877Y137724072D01*
X45776395Y137812019D01*
X45776396Y137812019D01*
X45614105Y137862590D01*
X45614107Y137862590D01*
X45543581Y137868999D01*
X45462000Y137868998D01*
X45462000Y137219000D01*
X44962000Y137219000D01*
X44962000Y137868999D01*
X44880417Y137868999D01*
X44809897Y137862591D01*
X44809892Y137862590D01*
X44647603Y137812018D01*
X44502122Y137724072D01*
X44381927Y137603877D01*
X44293980Y137458395D01*
X44243409Y137296106D01*
X44237000Y137225572D01*
X44237000Y137219000D01*
X40149859Y137219000D01*
X40155368Y137234745D01*
X40155369Y137234750D01*
X40175565Y137413996D01*
X40175565Y137414003D01*
X40155369Y137593249D01*
X40155368Y137593254D01*
X40109593Y137724072D01*
X40095789Y137763522D01*
X39999816Y137916262D01*
X39872262Y138043816D01*
X39719522Y138139789D01*
X39549255Y138199368D01*
X39549252Y138199368D01*
X39549249Y138199369D01*
X39370004Y138219565D01*
X39369996Y138219565D01*
X39190750Y138199369D01*
X39190745Y138199368D01*
X39020478Y138139789D01*
X38867738Y138043816D01*
X38867737Y138043815D01*
X38740184Y137916262D01*
X38644211Y137763523D01*
X38584631Y137593254D01*
X38584630Y137593250D01*
X38569717Y137460888D01*
X38542650Y137396474D01*
X38485055Y137356919D01*
X38465936Y137352864D01*
X38465939Y137352854D01*
X38459325Y137351437D01*
X38459315Y137351436D01*
X38299713Y137298549D01*
X38299707Y137298545D01*
X38299704Y137298544D01*
X38165097Y137215517D01*
X38097705Y137197076D01*
X38034903Y137215517D01*
X37900295Y137298544D01*
X37900287Y137298549D01*
X37740685Y137351436D01*
X37740672Y137351437D01*
X37734061Y137352854D01*
X37734326Y137354096D01*
X37676209Y137377809D01*
X37636057Y137434989D01*
X37630282Y137460889D01*
X37615369Y137593249D01*
X37615368Y137593254D01*
X37569593Y137724072D01*
X37555789Y137763522D01*
X37459816Y137916262D01*
X37332262Y138043816D01*
X37179522Y138139789D01*
X37009255Y138199368D01*
X37009252Y138199368D01*
X37009249Y138199369D01*
X36830004Y138219565D01*
X36829996Y138219565D01*
X36650750Y138199369D01*
X36650745Y138199368D01*
X36480478Y138139789D01*
X36327738Y138043816D01*
X36327737Y138043815D01*
X36200184Y137916262D01*
X36104211Y137763523D01*
X36044631Y137593254D01*
X36044630Y137593249D01*
X36024435Y137414003D01*
X36024435Y137413996D01*
X31115000Y137413996D01*
X31115000Y140465000D01*
X31134685Y140532039D01*
X31187489Y140577794D01*
X31239000Y140589000D01*
X48263000Y140589000D01*
X48330039Y140569315D01*
G37*
%TD.AperFunction*%
%TD*%
M02*
