M48
; DRILL file {KiCad 7.0.8} date Sun Dec 24 04:11:30 2023
; FORMAT={3:3/ absolute / metric / suppress trailing zeros}
; #@! TF.CreationDate,2023-12-24T04:11:30-08:00
; #@! TF.GenerationSoftware,Kicad,Pcbnew,7.0.8
; #@! TF.FileFunction,MixedPlating,1,2
FMAT,2
METRIC,LZ
; #@! TA.AperFunction,Plated,PTH,ViaDrill
T1C0.300
%
G90
G05
T1
X032385Y139827
X032385Y138684
X032385Y137668
X03302Y132808
X03302Y129066
X033655Y139827
X033655Y138684
X033655Y137668
X034417Y132842
X035605Y137232
X03683Y137414
X037846Y129286
X038105Y137232
X03937Y137414
X040005Y129159
X040605Y137232
X042291Y130937
X042418Y137541
X04318Y131953
X04318Y13081
X046355Y139827
X046355Y138684
X046355Y137668
X046609Y133731
X046609Y132588
X047498Y139827
X047498Y138684
X047498Y137668
T0
M30
