%TF.GenerationSoftware,KiCad,Pcbnew,7.0.8*%
%TF.CreationDate,2023-12-24T04:11:35-08:00*%
%TF.ProjectId,EZ Teknic Converter - R1,455a2054-656b-46e6-9963-20436f6e7665,rev?*%
%TF.SameCoordinates,Original*%
%TF.FileFunction,Legend,Bot*%
%TF.FilePolarity,Positive*%
%FSLAX46Y46*%
G04 Gerber Fmt 4.6, Leading zero omitted, Abs format (unit mm)*
G04 Created by KiCad (PCBNEW 7.0.8) date 2023-12-24 04:11:35*
%MOMM*%
%LPD*%
G01*
G04 APERTURE LIST*
%ADD10C,0.150000*%
%ADD11C,0.120000*%
G04 APERTURE END LIST*
D10*
X37715819Y139998220D02*
X36715819Y139998220D01*
X36715819Y139998220D02*
X36715819Y139760125D01*
X36715819Y139760125D02*
X36763438Y139617268D01*
X36763438Y139617268D02*
X36858676Y139522030D01*
X36858676Y139522030D02*
X36953914Y139474411D01*
X36953914Y139474411D02*
X37144390Y139426792D01*
X37144390Y139426792D02*
X37287247Y139426792D01*
X37287247Y139426792D02*
X37477723Y139474411D01*
X37477723Y139474411D02*
X37572961Y139522030D01*
X37572961Y139522030D02*
X37668200Y139617268D01*
X37668200Y139617268D02*
X37715819Y139760125D01*
X37715819Y139760125D02*
X37715819Y139998220D01*
X37715819Y138998220D02*
X36715819Y138998220D01*
X37715819Y137950602D02*
X37239628Y138283935D01*
X37715819Y138522030D02*
X36715819Y138522030D01*
X36715819Y138522030D02*
X36715819Y138141078D01*
X36715819Y138141078D02*
X36763438Y138045840D01*
X36763438Y138045840D02*
X36811057Y137998221D01*
X36811057Y137998221D02*
X36906295Y137950602D01*
X36906295Y137950602D02*
X37049152Y137950602D01*
X37049152Y137950602D02*
X37144390Y137998221D01*
X37144390Y137998221D02*
X37192009Y138045840D01*
X37192009Y138045840D02*
X37239628Y138141078D01*
X37239628Y138141078D02*
X37239628Y138522030D01*
X46082009Y130092220D02*
X46082009Y129758887D01*
X46605819Y129616030D02*
X46605819Y130092220D01*
X46605819Y130092220D02*
X45605819Y130092220D01*
X45605819Y130092220D02*
X45605819Y129616030D01*
X46605819Y129187458D02*
X45605819Y129187458D01*
X45605819Y129187458D02*
X46605819Y128616030D01*
X46605819Y128616030D02*
X45605819Y128616030D01*
X44018200Y139029839D02*
X44065819Y138886982D01*
X44065819Y138886982D02*
X44065819Y138648887D01*
X44065819Y138648887D02*
X44018200Y138553649D01*
X44018200Y138553649D02*
X43970580Y138506030D01*
X43970580Y138506030D02*
X43875342Y138458411D01*
X43875342Y138458411D02*
X43780104Y138458411D01*
X43780104Y138458411D02*
X43684866Y138506030D01*
X43684866Y138506030D02*
X43637247Y138553649D01*
X43637247Y138553649D02*
X43589628Y138648887D01*
X43589628Y138648887D02*
X43542009Y138839363D01*
X43542009Y138839363D02*
X43494390Y138934601D01*
X43494390Y138934601D02*
X43446771Y138982220D01*
X43446771Y138982220D02*
X43351533Y139029839D01*
X43351533Y139029839D02*
X43256295Y139029839D01*
X43256295Y139029839D02*
X43161057Y138982220D01*
X43161057Y138982220D02*
X43113438Y138934601D01*
X43113438Y138934601D02*
X43065819Y138839363D01*
X43065819Y138839363D02*
X43065819Y138601268D01*
X43065819Y138601268D02*
X43113438Y138458411D01*
X43065819Y138172696D02*
X43065819Y137601268D01*
X44065819Y137886982D02*
X43065819Y137886982D01*
X43542009Y137267934D02*
X43542009Y136934601D01*
X44065819Y136791744D02*
X44065819Y137267934D01*
X44065819Y137267934D02*
X43065819Y137267934D01*
X43065819Y137267934D02*
X43065819Y136791744D01*
X44065819Y136363172D02*
X43065819Y136363172D01*
X43065819Y136363172D02*
X43065819Y135982220D01*
X43065819Y135982220D02*
X43113438Y135886982D01*
X43113438Y135886982D02*
X43161057Y135839363D01*
X43161057Y135839363D02*
X43256295Y135791744D01*
X43256295Y135791744D02*
X43399152Y135791744D01*
X43399152Y135791744D02*
X43494390Y135839363D01*
X43494390Y135839363D02*
X43542009Y135886982D01*
X43542009Y135886982D02*
X43589628Y135982220D01*
X43589628Y135982220D02*
X43589628Y136363172D01*
X39446200Y140680839D02*
X39493819Y140537982D01*
X39493819Y140537982D02*
X39493819Y140299887D01*
X39493819Y140299887D02*
X39446200Y140204649D01*
X39446200Y140204649D02*
X39398580Y140157030D01*
X39398580Y140157030D02*
X39303342Y140109411D01*
X39303342Y140109411D02*
X39208104Y140109411D01*
X39208104Y140109411D02*
X39112866Y140157030D01*
X39112866Y140157030D02*
X39065247Y140204649D01*
X39065247Y140204649D02*
X39017628Y140299887D01*
X39017628Y140299887D02*
X38970009Y140490363D01*
X38970009Y140490363D02*
X38922390Y140585601D01*
X38922390Y140585601D02*
X38874771Y140633220D01*
X38874771Y140633220D02*
X38779533Y140680839D01*
X38779533Y140680839D02*
X38684295Y140680839D01*
X38684295Y140680839D02*
X38589057Y140633220D01*
X38589057Y140633220D02*
X38541438Y140585601D01*
X38541438Y140585601D02*
X38493819Y140490363D01*
X38493819Y140490363D02*
X38493819Y140252268D01*
X38493819Y140252268D02*
X38541438Y140109411D01*
X38493819Y139823696D02*
X38493819Y139252268D01*
X39493819Y139537982D02*
X38493819Y139537982D01*
X38970009Y138918934D02*
X38970009Y138585601D01*
X39493819Y138442744D02*
X39493819Y138918934D01*
X39493819Y138918934D02*
X38493819Y138918934D01*
X38493819Y138918934D02*
X38493819Y138442744D01*
X39493819Y138014172D02*
X38493819Y138014172D01*
X38493819Y138014172D02*
X38493819Y137633220D01*
X38493819Y137633220D02*
X38541438Y137537982D01*
X38541438Y137537982D02*
X38589057Y137490363D01*
X38589057Y137490363D02*
X38684295Y137442744D01*
X38684295Y137442744D02*
X38827152Y137442744D01*
X38827152Y137442744D02*
X38922390Y137490363D01*
X38922390Y137490363D02*
X38970009Y137537982D01*
X38970009Y137537982D02*
X39017628Y137633220D01*
X39017628Y137633220D02*
X39017628Y138014172D01*
X48079819Y133008666D02*
X47603628Y133341999D01*
X48079819Y133580094D02*
X47079819Y133580094D01*
X47079819Y133580094D02*
X47079819Y133199142D01*
X47079819Y133199142D02*
X47127438Y133103904D01*
X47127438Y133103904D02*
X47175057Y133056285D01*
X47175057Y133056285D02*
X47270295Y133008666D01*
X47270295Y133008666D02*
X47413152Y133008666D01*
X47413152Y133008666D02*
X47508390Y133056285D01*
X47508390Y133056285D02*
X47556009Y133103904D01*
X47556009Y133103904D02*
X47603628Y133199142D01*
X47603628Y133199142D02*
X47603628Y133580094D01*
X47079819Y132675332D02*
X47079819Y132056285D01*
X47079819Y132056285D02*
X47460771Y132389618D01*
X47460771Y132389618D02*
X47460771Y132246761D01*
X47460771Y132246761D02*
X47508390Y132151523D01*
X47508390Y132151523D02*
X47556009Y132103904D01*
X47556009Y132103904D02*
X47651247Y132056285D01*
X47651247Y132056285D02*
X47889342Y132056285D01*
X47889342Y132056285D02*
X47984580Y132103904D01*
X47984580Y132103904D02*
X48032200Y132151523D01*
X48032200Y132151523D02*
X48079819Y132246761D01*
X48079819Y132246761D02*
X48079819Y132532475D01*
X48079819Y132532475D02*
X48032200Y132627713D01*
X48032200Y132627713D02*
X47984580Y132675332D01*
X36334819Y136323094D02*
X35334819Y136323094D01*
X35334819Y136323094D02*
X35334819Y136084999D01*
X35334819Y136084999D02*
X35382438Y135942142D01*
X35382438Y135942142D02*
X35477676Y135846904D01*
X35477676Y135846904D02*
X35572914Y135799285D01*
X35572914Y135799285D02*
X35763390Y135751666D01*
X35763390Y135751666D02*
X35906247Y135751666D01*
X35906247Y135751666D02*
X36096723Y135799285D01*
X36096723Y135799285D02*
X36191961Y135846904D01*
X36191961Y135846904D02*
X36287200Y135942142D01*
X36287200Y135942142D02*
X36334819Y136084999D01*
X36334819Y136084999D02*
X36334819Y136323094D01*
X35334819Y135418332D02*
X35334819Y134799285D01*
X35334819Y134799285D02*
X35715771Y135132618D01*
X35715771Y135132618D02*
X35715771Y134989761D01*
X35715771Y134989761D02*
X35763390Y134894523D01*
X35763390Y134894523D02*
X35811009Y134846904D01*
X35811009Y134846904D02*
X35906247Y134799285D01*
X35906247Y134799285D02*
X36144342Y134799285D01*
X36144342Y134799285D02*
X36239580Y134846904D01*
X36239580Y134846904D02*
X36287200Y134894523D01*
X36287200Y134894523D02*
X36334819Y134989761D01*
X36334819Y134989761D02*
X36334819Y135275475D01*
X36334819Y135275475D02*
X36287200Y135370713D01*
X36287200Y135370713D02*
X36239580Y135418332D01*
X42434819Y135023094D02*
X41434819Y135023094D01*
X41434819Y135023094D02*
X41434819Y134784999D01*
X41434819Y134784999D02*
X41482438Y134642142D01*
X41482438Y134642142D02*
X41577676Y134546904D01*
X41577676Y134546904D02*
X41672914Y134499285D01*
X41672914Y134499285D02*
X41863390Y134451666D01*
X41863390Y134451666D02*
X42006247Y134451666D01*
X42006247Y134451666D02*
X42196723Y134499285D01*
X42196723Y134499285D02*
X42291961Y134546904D01*
X42291961Y134546904D02*
X42387200Y134642142D01*
X42387200Y134642142D02*
X42434819Y134784999D01*
X42434819Y134784999D02*
X42434819Y135023094D01*
X41768152Y133594523D02*
X42434819Y133594523D01*
X41387200Y133832618D02*
X42101485Y134070713D01*
X42101485Y134070713D02*
X42101485Y133451666D01*
X43334819Y130223094D02*
X42334819Y130223094D01*
X42334819Y130223094D02*
X42334819Y129984999D01*
X42334819Y129984999D02*
X42382438Y129842142D01*
X42382438Y129842142D02*
X42477676Y129746904D01*
X42477676Y129746904D02*
X42572914Y129699285D01*
X42572914Y129699285D02*
X42763390Y129651666D01*
X42763390Y129651666D02*
X42906247Y129651666D01*
X42906247Y129651666D02*
X43096723Y129699285D01*
X43096723Y129699285D02*
X43191961Y129746904D01*
X43191961Y129746904D02*
X43287200Y129842142D01*
X43287200Y129842142D02*
X43334819Y129984999D01*
X43334819Y129984999D02*
X43334819Y130223094D01*
X43334819Y128699285D02*
X43334819Y129270713D01*
X43334819Y128984999D02*
X42334819Y128984999D01*
X42334819Y128984999D02*
X42477676Y129080237D01*
X42477676Y129080237D02*
X42572914Y129175475D01*
X42572914Y129175475D02*
X42620533Y129270713D01*
X47134819Y136551666D02*
X46658628Y136884999D01*
X47134819Y137123094D02*
X46134819Y137123094D01*
X46134819Y137123094D02*
X46134819Y136742142D01*
X46134819Y136742142D02*
X46182438Y136646904D01*
X46182438Y136646904D02*
X46230057Y136599285D01*
X46230057Y136599285D02*
X46325295Y136551666D01*
X46325295Y136551666D02*
X46468152Y136551666D01*
X46468152Y136551666D02*
X46563390Y136599285D01*
X46563390Y136599285D02*
X46611009Y136646904D01*
X46611009Y136646904D02*
X46658628Y136742142D01*
X46658628Y136742142D02*
X46658628Y137123094D01*
X46134819Y135694523D02*
X46134819Y135884999D01*
X46134819Y135884999D02*
X46182438Y135980237D01*
X46182438Y135980237D02*
X46230057Y136027856D01*
X46230057Y136027856D02*
X46372914Y136123094D01*
X46372914Y136123094D02*
X46563390Y136170713D01*
X46563390Y136170713D02*
X46944342Y136170713D01*
X46944342Y136170713D02*
X47039580Y136123094D01*
X47039580Y136123094D02*
X47087200Y136075475D01*
X47087200Y136075475D02*
X47134819Y135980237D01*
X47134819Y135980237D02*
X47134819Y135789761D01*
X47134819Y135789761D02*
X47087200Y135694523D01*
X47087200Y135694523D02*
X47039580Y135646904D01*
X47039580Y135646904D02*
X46944342Y135599285D01*
X46944342Y135599285D02*
X46706247Y135599285D01*
X46706247Y135599285D02*
X46611009Y135646904D01*
X46611009Y135646904D02*
X46563390Y135694523D01*
X46563390Y135694523D02*
X46515771Y135789761D01*
X46515771Y135789761D02*
X46515771Y135980237D01*
X46515771Y135980237D02*
X46563390Y136075475D01*
X46563390Y136075475D02*
X46611009Y136123094D01*
X46611009Y136123094D02*
X46706247Y136170713D01*
X40834819Y132627666D02*
X40358628Y132960999D01*
X40834819Y133199094D02*
X39834819Y133199094D01*
X39834819Y133199094D02*
X39834819Y132818142D01*
X39834819Y132818142D02*
X39882438Y132722904D01*
X39882438Y132722904D02*
X39930057Y132675285D01*
X39930057Y132675285D02*
X40025295Y132627666D01*
X40025295Y132627666D02*
X40168152Y132627666D01*
X40168152Y132627666D02*
X40263390Y132675285D01*
X40263390Y132675285D02*
X40311009Y132722904D01*
X40311009Y132722904D02*
X40358628Y132818142D01*
X40358628Y132818142D02*
X40358628Y133199094D01*
X40168152Y131770523D02*
X40834819Y131770523D01*
X39787200Y132008618D02*
X40501485Y132246713D01*
X40501485Y132246713D02*
X40501485Y131627666D01*
X40834819Y136323094D02*
X39834819Y136323094D01*
X39834819Y136323094D02*
X39834819Y136084999D01*
X39834819Y136084999D02*
X39882438Y135942142D01*
X39882438Y135942142D02*
X39977676Y135846904D01*
X39977676Y135846904D02*
X40072914Y135799285D01*
X40072914Y135799285D02*
X40263390Y135751666D01*
X40263390Y135751666D02*
X40406247Y135751666D01*
X40406247Y135751666D02*
X40596723Y135799285D01*
X40596723Y135799285D02*
X40691961Y135846904D01*
X40691961Y135846904D02*
X40787200Y135942142D01*
X40787200Y135942142D02*
X40834819Y136084999D01*
X40834819Y136084999D02*
X40834819Y136323094D01*
X39930057Y135370713D02*
X39882438Y135323094D01*
X39882438Y135323094D02*
X39834819Y135227856D01*
X39834819Y135227856D02*
X39834819Y134989761D01*
X39834819Y134989761D02*
X39882438Y134894523D01*
X39882438Y134894523D02*
X39930057Y134846904D01*
X39930057Y134846904D02*
X40025295Y134799285D01*
X40025295Y134799285D02*
X40120533Y134799285D01*
X40120533Y134799285D02*
X40263390Y134846904D01*
X40263390Y134846904D02*
X40834819Y135418332D01*
X40834819Y135418332D02*
X40834819Y134799285D01*
X36334819Y132751666D02*
X35858628Y133084999D01*
X36334819Y133323094D02*
X35334819Y133323094D01*
X35334819Y133323094D02*
X35334819Y132942142D01*
X35334819Y132942142D02*
X35382438Y132846904D01*
X35382438Y132846904D02*
X35430057Y132799285D01*
X35430057Y132799285D02*
X35525295Y132751666D01*
X35525295Y132751666D02*
X35668152Y132751666D01*
X35668152Y132751666D02*
X35763390Y132799285D01*
X35763390Y132799285D02*
X35811009Y132846904D01*
X35811009Y132846904D02*
X35858628Y132942142D01*
X35858628Y132942142D02*
X35858628Y133323094D01*
X35334819Y131846904D02*
X35334819Y132323094D01*
X35334819Y132323094D02*
X35811009Y132370713D01*
X35811009Y132370713D02*
X35763390Y132323094D01*
X35763390Y132323094D02*
X35715771Y132227856D01*
X35715771Y132227856D02*
X35715771Y131989761D01*
X35715771Y131989761D02*
X35763390Y131894523D01*
X35763390Y131894523D02*
X35811009Y131846904D01*
X35811009Y131846904D02*
X35906247Y131799285D01*
X35906247Y131799285D02*
X36144342Y131799285D01*
X36144342Y131799285D02*
X36239580Y131846904D01*
X36239580Y131846904D02*
X36287200Y131894523D01*
X36287200Y131894523D02*
X36334819Y131989761D01*
X36334819Y131989761D02*
X36334819Y132227856D01*
X36334819Y132227856D02*
X36287200Y132323094D01*
X36287200Y132323094D02*
X36239580Y132370713D01*
D11*
%TO.C,R3*%
X45734500Y133206258D02*
X45734500Y132731742D01*
X44689500Y133206258D02*
X44689500Y132731742D01*
%TO.C,D3*%
X36603000Y134151000D02*
X36603000Y136436000D01*
X38073000Y134151000D02*
X36603000Y134151000D01*
X38073000Y136436000D02*
X38073000Y134151000D01*
%TO.C,D4*%
X44296000Y135470000D02*
X44296000Y133185000D01*
X42826000Y135470000D02*
X44296000Y135470000D01*
X42826000Y133185000D02*
X42826000Y135470000D01*
%TO.C,D1*%
X45185000Y131279000D02*
X45185000Y128994000D01*
X43715000Y131279000D02*
X45185000Y131279000D01*
X43715000Y128994000D02*
X43715000Y131279000D01*
%TO.C,R6*%
X45734500Y136381258D02*
X45734500Y135906742D01*
X44689500Y136381258D02*
X44689500Y135906742D01*
%TO.C,R4*%
X38339500Y132223742D02*
X38339500Y132698258D01*
X39384500Y132223742D02*
X39384500Y132698258D01*
%TO.C,D2*%
X38127000Y134151000D02*
X38127000Y136436000D01*
X39597000Y134151000D02*
X38127000Y134151000D01*
X39597000Y136436000D02*
X39597000Y134151000D01*
%TO.C,R5*%
X36815500Y132223742D02*
X36815500Y132698258D01*
X37860500Y132223742D02*
X37860500Y132698258D01*
%TD*%
M02*
