%TF.GenerationSoftware,KiCad,Pcbnew,7.0.8*%
%TF.CreationDate,2023-12-24T04:11:35-08:00*%
%TF.ProjectId,EZ Teknic Converter - R1,455a2054-656b-46e6-9963-20436f6e7665,rev?*%
%TF.SameCoordinates,Original*%
%TF.FileFunction,Copper,L1,Top*%
%TF.FilePolarity,Positive*%
%FSLAX46Y46*%
G04 Gerber Fmt 4.6, Leading zero omitted, Abs format (unit mm)*
G04 Created by KiCad (PCBNEW 7.0.8) date 2023-12-24 04:11:35*
%MOMM*%
%LPD*%
G01*
G04 APERTURE LIST*
G04 Aperture macros list*
%AMRoundRect*
0 Rectangle with rounded corners*
0 $1 Rounding radius*
0 $2 $3 $4 $5 $6 $7 $8 $9 X,Y pos of 4 corners*
0 Add a 4 corners polygon primitive as box body*
4,1,4,$2,$3,$4,$5,$6,$7,$8,$9,$2,$3,0*
0 Add four circle primitives for the rounded corners*
1,1,$1+$1,$2,$3*
1,1,$1+$1,$4,$5*
1,1,$1+$1,$6,$7*
1,1,$1+$1,$8,$9*
0 Add four rect primitives between the rounded corners*
20,1,$1+$1,$2,$3,$4,$5,0*
20,1,$1+$1,$4,$5,$6,$7,0*
20,1,$1+$1,$6,$7,$8,$9,0*
20,1,$1+$1,$8,$9,$2,$3,0*%
G04 Aperture macros list end*
%TA.AperFunction,SMDPad,CuDef*%
%ADD10R,1.600000X5.500000*%
%TD*%
%TA.AperFunction,SMDPad,CuDef*%
%ADD11RoundRect,0.225000X-0.250000X0.225000X-0.250000X-0.225000X0.250000X-0.225000X0.250000X0.225000X0*%
%TD*%
%TA.AperFunction,SMDPad,CuDef*%
%ADD12R,0.400000X0.650000*%
%TD*%
%TA.AperFunction,SMDPad,CuDef*%
%ADD13RoundRect,0.200000X-0.275000X0.200000X-0.275000X-0.200000X0.275000X-0.200000X0.275000X0.200000X0*%
%TD*%
%TA.AperFunction,SMDPad,CuDef*%
%ADD14RoundRect,0.200000X0.275000X-0.200000X0.275000X0.200000X-0.275000X0.200000X-0.275000X-0.200000X0*%
%TD*%
%TA.AperFunction,SMDPad,CuDef*%
%ADD15RoundRect,0.200000X0.200000X0.600000X-0.200000X0.600000X-0.200000X-0.600000X0.200000X-0.600000X0*%
%TD*%
%TA.AperFunction,SMDPad,CuDef*%
%ADD16RoundRect,0.250001X0.799999X1.249999X-0.799999X1.249999X-0.799999X-1.249999X0.799999X-1.249999X0*%
%TD*%
%TA.AperFunction,ViaPad*%
%ADD17C,0.600000*%
%TD*%
%TA.AperFunction,Conductor*%
%ADD18C,0.200000*%
%TD*%
%TA.AperFunction,Conductor*%
%ADD19C,0.500000*%
%TD*%
G04 APERTURE END LIST*
D10*
%TO.P,U1,1,DIR*%
%TO.N,/DIR*%
X31880000Y124785000D03*
%TO.P,U1,2,STEP*%
%TO.N,/STEP*%
X33880000Y124785000D03*
%TO.P,U1,3,DIAG*%
%TO.N,/DIAG*%
X35880000Y124785000D03*
%TO.P,U1,4,MISO*%
%TO.N,unconnected-(U1-MISO-Pad4)*%
X37880000Y124785000D03*
%TO.P,U1,5,CS*%
%TO.N,unconnected-(U1-CS-Pad5)*%
X39880000Y124785000D03*
%TO.P,U1,6,SCK*%
%TO.N,unconnected-(U1-SCK-Pad6)*%
X41880000Y124785000D03*
%TO.P,U1,7,MOSI*%
%TO.N,unconnected-(U1-MOSI-Pad7)*%
X43880000Y124785000D03*
%TO.P,U1,8,~{ENABLE}*%
%TO.N,/\u005CENABLE*%
X45880000Y124785000D03*
%TD*%
D11*
%TO.P,C1,1*%
%TO.N,+5V*%
X35306000Y131712000D03*
%TO.P,C1,2*%
%TO.N,GND*%
X35306000Y130162000D03*
%TD*%
D12*
%TO.P,U2,1*%
%TO.N,/DIR*%
X32370000Y129987000D03*
%TO.P,U2,2,GND*%
%TO.N,GND*%
X33020000Y129987000D03*
%TO.P,U2,3*%
%TO.N,/STEP*%
X33670000Y129987000D03*
%TO.P,U2,4*%
%TO.N,/B-STEP*%
X33670000Y131887000D03*
%TO.P,U2,5,VCC*%
%TO.N,+5V*%
X33020000Y131887000D03*
%TO.P,U2,6*%
%TO.N,/B-DIR*%
X32370000Y131887000D03*
%TD*%
D13*
%TO.P,R2,1*%
%TO.N,GND*%
X45720000Y132524000D03*
%TO.P,R2,2*%
%TO.N,/DIAG*%
X45720000Y130874000D03*
%TD*%
D14*
%TO.P,R1,1*%
%TO.N,/DIAG*%
X44196000Y130874000D03*
%TO.P,R1,2*%
%TO.N,/5VDIAG*%
X44196000Y132524000D03*
%TD*%
D12*
%TO.P,U3,1*%
%TO.N,/\u005CENABLE*%
X41006000Y129987000D03*
%TO.P,U3,2,GND*%
%TO.N,GND*%
X41656000Y129987000D03*
%TO.P,U3,3*%
%TO.N,/B-DIAG*%
X42306000Y129987000D03*
%TO.P,U3,4*%
%TO.N,/5VDIAG*%
X42306000Y131887000D03*
%TO.P,U3,5,VCC*%
%TO.N,+5V*%
X41656000Y131887000D03*
%TO.P,U3,6*%
%TO.N,/B-ENABLE*%
X41006000Y131887000D03*
%TD*%
D15*
%TO.P,J1,1,Pin_1*%
%TO.N,/B-DIAG*%
X44355000Y135885000D03*
%TO.P,J1,2,Pin_2*%
%TO.N,GND*%
X43105000Y135885000D03*
%TO.P,J1,3,Pin_3*%
%TO.N,/B-ENABLE*%
X41855000Y135885000D03*
%TO.P,J1,4,Pin_4*%
%TO.N,GND*%
X40605000Y135885000D03*
%TO.P,J1,5,Pin_5*%
%TO.N,/B-STEP*%
X39355000Y135885000D03*
%TO.P,J1,6,Pin_6*%
%TO.N,GND*%
X38105000Y135885000D03*
%TO.P,J1,7,Pin_7*%
%TO.N,/B-DIR*%
X36855000Y135885000D03*
%TO.P,J1,8,Pin_8*%
%TO.N,GND*%
X35605000Y135885000D03*
D16*
%TO.P,J1,MP*%
%TO.N,N/C*%
X46905000Y138785000D03*
X33055000Y138785000D03*
%TD*%
D11*
%TO.P,C2,1*%
%TO.N,+5V*%
X39116000Y131712000D03*
%TO.P,C2,2*%
%TO.N,GND*%
X39116000Y130162000D03*
%TD*%
D17*
%TO.N,+5V*%
X34417000Y132842000D03*
X33020000Y132808000D03*
X37846000Y129286000D03*
%TO.N,GND*%
X46355000Y138684000D03*
X33020000Y129066000D03*
X38105000Y137232000D03*
X46609000Y132588000D03*
X35605000Y137232000D03*
X46355000Y137668000D03*
X32385000Y138684000D03*
X47498000Y137668000D03*
X46355000Y139827000D03*
X32385000Y139827000D03*
X42418000Y137541000D03*
X47498000Y138684000D03*
X47498000Y139827000D03*
X40605000Y137232000D03*
X42291000Y130937000D03*
X33655000Y139827000D03*
X33655000Y138684000D03*
X32385000Y137668000D03*
X33655000Y137668000D03*
%TO.N,/B-STEP*%
X39370000Y137414000D03*
%TO.N,/B-DIR*%
X36830000Y137414000D03*
%TO.N,/5VDIAG*%
X43180000Y131953000D03*
%TO.N,/B-ENABLE*%
X46609000Y133731000D03*
%TO.N,/DIAG*%
X43180000Y130810000D03*
X40005000Y129159000D03*
%TD*%
D18*
%TO.N,+5V*%
X39637000Y131191000D02*
X39116000Y131712000D01*
X40767000Y131191000D02*
X39637000Y131191000D01*
D19*
X37846000Y129286000D02*
X37084000Y130048000D01*
D18*
X41656000Y131191000D02*
X40767000Y131191000D01*
D19*
X37084000Y130048000D02*
X37084000Y132842000D01*
D18*
X33274000Y131191000D02*
X34785000Y131191000D01*
X33020000Y131887000D02*
X33020000Y132808000D01*
X33020000Y131445000D02*
X33274000Y131191000D01*
X37986000Y132842000D02*
X37084000Y132842000D01*
X39694000Y131191000D02*
X39961000Y131191000D01*
X40767000Y131191000D02*
X39961000Y131191000D01*
X33020000Y131887000D02*
X33020000Y131445000D01*
X34417000Y132842000D02*
X37084000Y132842000D01*
X39116000Y131712000D02*
X37986000Y132842000D01*
X34785000Y131191000D02*
X35306000Y131712000D01*
X41656000Y131887000D02*
X41656000Y131191000D01*
%TO.N,GND*%
X33274000Y130683000D02*
X33020000Y130429000D01*
X41592500Y130050500D02*
X41592500Y130492500D01*
X41148000Y130683000D02*
X40752736Y130683000D01*
X41656000Y129987000D02*
X41719500Y130050500D01*
X42418000Y137541000D02*
X43105000Y136854000D01*
X41592500Y130492500D02*
X41402000Y130683000D01*
X41656000Y129987000D02*
X41592500Y130050500D01*
X40605000Y135885000D02*
X40605000Y137232000D01*
X35605000Y135885000D02*
X35605000Y137232000D01*
X40736000Y130683000D02*
X41402000Y130683000D01*
X41275000Y130683000D02*
X39751686Y130683000D01*
X39230686Y130162000D02*
X39116000Y130162000D01*
X45784000Y132588000D02*
X45720000Y132524000D01*
X33020000Y129987000D02*
X33020000Y129066000D01*
X38105000Y135885000D02*
X38105000Y137232000D01*
X41275000Y130683000D02*
X41402000Y130683000D01*
X41719500Y130492500D02*
X42164000Y130937000D01*
X33020000Y130429000D02*
X33020000Y129987000D01*
X41719500Y130050500D02*
X41719500Y130492500D01*
X39751686Y130683000D02*
X39230686Y130162000D01*
X34785000Y130683000D02*
X33274000Y130683000D01*
X46609000Y132588000D02*
X45784000Y132588000D01*
X41148000Y130683000D02*
X41275000Y130683000D01*
X42164000Y130937000D02*
X42291000Y130937000D01*
X35306000Y130162000D02*
X34785000Y130683000D01*
X43105000Y136854000D02*
X43105000Y135885000D01*
%TO.N,/B-STEP*%
X39355000Y137399000D02*
X39370000Y137414000D01*
X33670000Y133238000D02*
X34290000Y133858000D01*
X38339000Y133858000D02*
X39355000Y134874000D01*
X39355000Y135885000D02*
X39355000Y137399000D01*
X39355000Y134874000D02*
X39355000Y135885000D01*
X33670000Y131887000D02*
X33670000Y133238000D01*
X34290000Y133858000D02*
X38339000Y133858000D01*
%TO.N,/B-DIR*%
X36855000Y134874000D02*
X36855000Y135885000D01*
X33528000Y134493000D02*
X36474000Y134493000D01*
X32370000Y133335000D02*
X33528000Y134493000D01*
X36474000Y134493000D02*
X36855000Y134874000D01*
X36830000Y135910000D02*
X36855000Y135885000D01*
X36830000Y137414000D02*
X36830000Y135910000D01*
X32370000Y131887000D02*
X32370000Y133335000D01*
%TO.N,/5VDIAG*%
X43180000Y131953000D02*
X43114000Y131887000D01*
X43751000Y132524000D02*
X43180000Y131953000D01*
X44196000Y132524000D02*
X43751000Y132524000D01*
X42306000Y131887000D02*
X42860000Y131887000D01*
%TO.N,/B-DIAG*%
X44355000Y135885000D02*
X45979000Y135885000D01*
X47244000Y130429000D02*
X45974000Y129159000D01*
X45974000Y129159000D02*
X43688000Y129159000D01*
X47244000Y134620000D02*
X47244000Y130429000D01*
X45979000Y135885000D02*
X47244000Y134620000D01*
X42860000Y129987000D02*
X42306000Y129987000D01*
X43688000Y129159000D02*
X42860000Y129987000D01*
%TO.N,/B-ENABLE*%
X41855000Y134565000D02*
X41855000Y134692000D01*
X41855000Y134692000D02*
X41855000Y135885000D01*
X41006000Y133517000D02*
X41855000Y134366000D01*
X41855000Y134366000D02*
X41855000Y134692000D01*
X46609000Y133731000D02*
X45974000Y134366000D01*
X45974000Y134366000D02*
X41855000Y134366000D01*
X41006000Y131887000D02*
X41006000Y133517000D01*
X41823471Y134366000D02*
X41855000Y134366000D01*
%TO.N,/DIAG*%
X44196000Y130874000D02*
X43180000Y130810000D01*
X38481000Y128270000D02*
X36195000Y128270000D01*
X40005000Y129159000D02*
X39370000Y129159000D01*
X36195000Y128270000D02*
X35880000Y127955000D01*
X35880000Y127955000D02*
X35880000Y124785000D01*
X44196000Y130874000D02*
X45720000Y130874000D01*
X39370000Y129159000D02*
X38481000Y128270000D01*
%TO.N,/DIR*%
X31880000Y128527000D02*
X32370000Y129017000D01*
X32370000Y129017000D02*
X32370000Y129987000D01*
X31880000Y124785000D02*
X31880000Y128527000D01*
%TO.N,/STEP*%
X33880000Y129315000D02*
X33880000Y124785000D01*
X33670000Y129987000D02*
X33670000Y129525000D01*
X33670000Y129525000D02*
X33880000Y129315000D01*
%TO.N,/\u005CENABLE*%
X41006000Y129779000D02*
X40640000Y129413000D01*
X45720000Y128143000D02*
X45847000Y128016000D01*
X40640000Y129413000D02*
X40640000Y128651000D01*
X45880000Y127983000D02*
X45880000Y124785000D01*
X45847000Y128016000D02*
X45880000Y127983000D01*
X40640000Y128651000D02*
X41148000Y128143000D01*
X41148000Y128143000D02*
X45720000Y128143000D01*
X41006000Y129987000D02*
X41006000Y129779000D01*
%TD*%
M02*
