%TF.GenerationSoftware,KiCad,Pcbnew,7.0.8*%
%TF.CreationDate,2023-10-31T00:38:55-07:00*%
%TF.ProjectId,PZEM-Single LPKF - R1,505a454d-2d53-4696-9e67-6c65204c504b,rev?*%
%TF.SameCoordinates,Original*%
%TF.FileFunction,Soldermask,Bot*%
%TF.FilePolarity,Negative*%
%FSLAX46Y46*%
G04 Gerber Fmt 4.6, Leading zero omitted, Abs format (unit mm)*
G04 Created by KiCad (PCBNEW 7.0.8) date 2023-10-31 00:38:55*
%MOMM*%
%LPD*%
G01*
G04 APERTURE LIST*
G04 Aperture macros list*
%AMRoundRect*
0 Rectangle with rounded corners*
0 $1 Rounding radius*
0 $2 $3 $4 $5 $6 $7 $8 $9 X,Y pos of 4 corners*
0 Add a 4 corners polygon primitive as box body*
4,1,4,$2,$3,$4,$5,$6,$7,$8,$9,$2,$3,0*
0 Add four circle primitives for the rounded corners*
1,1,$1+$1,$2,$3*
1,1,$1+$1,$4,$5*
1,1,$1+$1,$6,$7*
1,1,$1+$1,$8,$9*
0 Add four rect primitives between the rounded corners*
20,1,$1+$1,$2,$3,$4,$5,0*
20,1,$1+$1,$4,$5,$6,$7,0*
20,1,$1+$1,$6,$7,$8,$9,0*
20,1,$1+$1,$8,$9,$2,$3,0*%
G04 Aperture macros list end*
%ADD10C,0.900000*%
%ADD11C,6.500000*%
%ADD12RoundRect,0.050000X-0.800000X-0.800000X0.800000X-0.800000X0.800000X0.800000X-0.800000X0.800000X0*%
%ADD13C,1.700000*%
%ADD14C,3.350000*%
%ADD15RoundRect,0.050000X1.250000X-2.000000X1.250000X2.000000X-1.250000X2.000000X-1.250000X-2.000000X0*%
%ADD16O,2.600000X4.100000*%
%ADD17O,2.132000X3.275000*%
%ADD18RoundRect,0.300000X-0.600000X-0.750000X0.600000X-0.750000X0.600000X0.750000X-0.600000X0.750000X0*%
%ADD19O,1.800000X2.100000*%
%ADD20O,1.700000X1.700000*%
%ADD21RoundRect,0.050000X0.900000X0.900000X-0.900000X0.900000X-0.900000X-0.900000X0.900000X-0.900000X0*%
%ADD22C,1.900000*%
%ADD23RoundRect,0.050000X0.800000X-0.800000X0.800000X0.800000X-0.800000X0.800000X-0.800000X-0.800000X0*%
%ADD24RoundRect,0.300000X-0.600000X-0.725000X0.600000X-0.725000X0.600000X0.725000X-0.600000X0.725000X0*%
%ADD25O,1.800000X2.050000*%
%ADD26C,3.100000*%
%ADD27C,2.100000*%
%ADD28RoundRect,0.050000X-0.450000X0.750000X-0.450000X-0.750000X0.450000X-0.750000X0.450000X0.750000X0*%
%ADD29RoundRect,0.050000X0.750000X0.450000X-0.750000X0.450000X-0.750000X-0.450000X0.750000X-0.450000X0*%
%ADD30C,0.700000*%
%ADD31RoundRect,0.050000X-2.100000X2.100000X-2.100000X-2.100000X2.100000X-2.100000X2.100000X2.100000X0*%
%ADD32RoundRect,0.050000X1.000000X0.750000X-1.000000X0.750000X-1.000000X-0.750000X1.000000X-0.750000X0*%
%ADD33RoundRect,0.050000X1.000000X1.900000X-1.000000X1.900000X-1.000000X-1.900000X1.000000X-1.900000X0*%
G04 APERTURE END LIST*
D10*
%TO.C,H4*%
X53600000Y93000000D03*
X54302944Y94697056D03*
X54302944Y91302944D03*
X56000000Y95400000D03*
D11*
X56000000Y93000000D03*
D10*
X56000000Y90600000D03*
X57697056Y94697056D03*
X57697056Y91302944D03*
X58400000Y93000000D03*
%TD*%
%TO.C,H3*%
X53600000Y4000000D03*
X54302944Y5697056D03*
X54302944Y2302944D03*
X56000000Y6400000D03*
D11*
X56000000Y4000000D03*
D10*
X56000000Y1600000D03*
X57697056Y5697056D03*
X57697056Y2302944D03*
X58400000Y4000000D03*
%TD*%
%TO.C,H2*%
X1600000Y93000000D03*
X2302944Y94697056D03*
X2302944Y91302944D03*
X4000000Y95400000D03*
D11*
X4000000Y93000000D03*
D10*
X4000000Y90600000D03*
X5697056Y94697056D03*
X5697056Y91302944D03*
X6400000Y93000000D03*
%TD*%
%TO.C,H1*%
X1600000Y4000000D03*
X2302944Y5697056D03*
X2302944Y2302944D03*
X4000000Y6400000D03*
D11*
X4000000Y4000000D03*
D10*
X4000000Y1600000D03*
X5697056Y5697056D03*
X5697056Y2302944D03*
X6400000Y4000000D03*
%TD*%
D12*
%TO.C,C1*%
X9000000Y59000000D03*
D13*
X11500000Y59000000D03*
%TD*%
D14*
%TO.C,U1*%
X30500000Y15500000D03*
X55500000Y15500000D03*
X30500000Y84500000D03*
X55500000Y84500000D03*
D15*
X35500000Y18000000D03*
D16*
X40500000Y18000000D03*
X45500000Y18000000D03*
X50500000Y18000000D03*
D17*
X48080000Y80000000D03*
X45540000Y80000000D03*
X43000000Y80000000D03*
X40460000Y80000000D03*
X37920000Y80000000D03*
%TD*%
D18*
%TO.C,J1*%
X22500000Y5500000D03*
D19*
X25000000Y5500000D03*
%TD*%
D13*
%TO.C,R2*%
X24000000Y90080000D03*
D20*
X24000000Y79920000D03*
%TD*%
D13*
%TO.C,R5*%
X37080000Y89000000D03*
D20*
X26920000Y89000000D03*
%TD*%
D21*
%TO.C,D2*%
X20540000Y91000000D03*
D22*
X18000000Y91000000D03*
%TD*%
D23*
%TO.C,C2*%
X16800000Y48158126D03*
X18400000Y48829063D03*
D13*
X18400000Y51329063D03*
X20000000Y52000000D03*
%TD*%
D21*
%TO.C,D1*%
X13540000Y91000000D03*
D22*
X11000000Y91000000D03*
%TD*%
D24*
%TO.C,J4*%
X42000000Y92000000D03*
D25*
X44500000Y92000000D03*
X47000000Y92000000D03*
%TD*%
D13*
%TO.C,R1*%
X24920000Y93000000D03*
D20*
X35080000Y93000000D03*
%TD*%
D26*
%TO.C,J3*%
X47310000Y8500000D03*
X47310000Y3500000D03*
X39690000Y8500000D03*
X39690000Y3500000D03*
%TD*%
D27*
%TO.C,U3*%
X10000000Y12000000D03*
X15000000Y12000000D03*
X20200000Y41400000D03*
X4800000Y41400000D03*
%TD*%
D28*
%TO.C,U4*%
X2135000Y84930000D03*
X3405000Y84930000D03*
X4675000Y84930000D03*
X5945000Y84930000D03*
X7215000Y84930000D03*
X8485000Y84930000D03*
X9755000Y84930000D03*
X11025000Y84930000D03*
X12295000Y84930000D03*
X13565000Y84930000D03*
X14835000Y84930000D03*
X16105000Y84930000D03*
X17375000Y84930000D03*
X18645000Y84930000D03*
D29*
X19895000Y81890000D03*
X19895000Y80620000D03*
X19895000Y79350000D03*
X19895000Y78080000D03*
X19895000Y76810000D03*
X19895000Y75540000D03*
X19895000Y74270000D03*
X19895000Y73000000D03*
X19895000Y71730000D03*
X19895000Y70460000D03*
D28*
X18645000Y67430000D03*
X17375000Y67430000D03*
X16105000Y67430000D03*
X14835000Y67430000D03*
X13565000Y67430000D03*
X12295000Y67430000D03*
X11025000Y67430000D03*
X9755000Y67430000D03*
X8485000Y67430000D03*
X7215000Y67430000D03*
X5945000Y67430000D03*
X4675000Y67430000D03*
X3405000Y67430000D03*
X2135000Y67430000D03*
D30*
X10237500Y78385000D03*
X8712500Y78385000D03*
X11000000Y77622500D03*
X9475000Y77622500D03*
X7950000Y77622500D03*
X10237500Y76860000D03*
D31*
X9475000Y76860000D03*
D30*
X8712500Y76860000D03*
X11000000Y76097500D03*
X9475000Y76097500D03*
X7950000Y76097500D03*
X10237500Y75335000D03*
X8712500Y75335000D03*
%TD*%
D32*
%TO.C,U2*%
X12150000Y54300000D03*
X12150000Y52000000D03*
D33*
X5850000Y52000000D03*
D32*
X12150000Y49700000D03*
%TD*%
M02*
