%TF.GenerationSoftware,KiCad,Pcbnew,7.0.8*%
%TF.CreationDate,2023-10-31T00:38:55-07:00*%
%TF.ProjectId,PZEM-Single LPKF - R1,505a454d-2d53-4696-9e67-6c65204c504b,rev?*%
%TF.SameCoordinates,Original*%
%TF.FileFunction,Legend,Bot*%
%TF.FilePolarity,Positive*%
%FSLAX46Y46*%
G04 Gerber Fmt 4.6, Leading zero omitted, Abs format (unit mm)*
G04 Created by KiCad (PCBNEW 7.0.8) date 2023-10-31 00:38:55*
%MOMM*%
%LPD*%
G01*
G04 APERTURE LIST*
%ADD10C,0.150000*%
%ADD11C,0.120000*%
G04 APERTURE END LIST*
D10*
X19576904Y87335180D02*
X19576904Y86525657D01*
X19576904Y86525657D02*
X19529285Y86430419D01*
X19529285Y86430419D02*
X19481666Y86382800D01*
X19481666Y86382800D02*
X19386428Y86335180D01*
X19386428Y86335180D02*
X19195952Y86335180D01*
X19195952Y86335180D02*
X19100714Y86382800D01*
X19100714Y86382800D02*
X19053095Y86430419D01*
X19053095Y86430419D02*
X19005476Y86525657D01*
X19005476Y86525657D02*
X19005476Y87335180D01*
X18100714Y87001847D02*
X18100714Y86335180D01*
X18338809Y87382800D02*
X18576904Y86668514D01*
X18576904Y86668514D02*
X17957857Y86668514D01*
X9761904Y57045180D02*
X9761904Y56235657D01*
X9761904Y56235657D02*
X9714285Y56140419D01*
X9714285Y56140419D02*
X9666666Y56092800D01*
X9666666Y56092800D02*
X9571428Y56045180D01*
X9571428Y56045180D02*
X9380952Y56045180D01*
X9380952Y56045180D02*
X9285714Y56092800D01*
X9285714Y56092800D02*
X9238095Y56140419D01*
X9238095Y56140419D02*
X9190476Y56235657D01*
X9190476Y56235657D02*
X9190476Y57045180D01*
X8761904Y56949942D02*
X8714285Y56997561D01*
X8714285Y56997561D02*
X8619047Y57045180D01*
X8619047Y57045180D02*
X8380952Y57045180D01*
X8380952Y57045180D02*
X8285714Y56997561D01*
X8285714Y56997561D02*
X8238095Y56949942D01*
X8238095Y56949942D02*
X8190476Y56854704D01*
X8190476Y56854704D02*
X8190476Y56759466D01*
X8190476Y56759466D02*
X8238095Y56616609D01*
X8238095Y56616609D02*
X8809523Y56045180D01*
X8809523Y56045180D02*
X8190476Y56045180D01*
D11*
%TO.C,U4*%
X20265000Y85300000D02*
X20265000Y84300000D01*
X19485000Y85300000D02*
X20265000Y85300000D01*
X940000Y85300000D02*
X940000Y85680000D01*
X-5475000Y85300000D02*
X940000Y85300000D01*
X-5475000Y85300000D02*
X-5475000Y67060000D01*
X20265000Y67060000D02*
X20265000Y68060000D01*
X19485000Y67060000D02*
X20265000Y67060000D01*
X-5475000Y67060000D02*
X940000Y67060000D01*
%TO.C,U2*%
X13100000Y55410000D02*
X7090000Y55410000D01*
X10850000Y48590000D02*
X7090000Y48590000D01*
X7090000Y48590000D02*
X7090000Y49850000D01*
X7090000Y55410000D02*
X7090000Y54150000D01*
%TD*%
M02*
