%TF.GenerationSoftware,KiCad,Pcbnew,7.0.8*%
%TF.CreationDate,2023-10-31T00:38:55-07:00*%
%TF.ProjectId,PZEM-Single LPKF - R1,505a454d-2d53-4696-9e67-6c65204c504b,rev?*%
%TF.SameCoordinates,Original*%
%TF.FileFunction,Copper,L1,Top*%
%TF.FilePolarity,Positive*%
%FSLAX46Y46*%
G04 Gerber Fmt 4.6, Leading zero omitted, Abs format (unit mm)*
G04 Created by KiCad (PCBNEW 7.0.8) date 2023-10-31 00:38:55*
%MOMM*%
%LPD*%
G01*
G04 APERTURE LIST*
G04 Aperture macros list*
%AMRoundRect*
0 Rectangle with rounded corners*
0 $1 Rounding radius*
0 $2 $3 $4 $5 $6 $7 $8 $9 X,Y pos of 4 corners*
0 Add a 4 corners polygon primitive as box body*
4,1,4,$2,$3,$4,$5,$6,$7,$8,$9,$2,$3,0*
0 Add four circle primitives for the rounded corners*
1,1,$1+$1,$2,$3*
1,1,$1+$1,$4,$5*
1,1,$1+$1,$6,$7*
1,1,$1+$1,$8,$9*
0 Add four rect primitives between the rounded corners*
20,1,$1+$1,$2,$3,$4,$5,0*
20,1,$1+$1,$4,$5,$6,$7,0*
20,1,$1+$1,$6,$7,$8,$9,0*
20,1,$1+$1,$8,$9,$2,$3,0*%
G04 Aperture macros list end*
%TA.AperFunction,ComponentPad*%
%ADD10C,0.800000*%
%TD*%
%TA.AperFunction,ComponentPad*%
%ADD11C,6.400000*%
%TD*%
%TA.AperFunction,ComponentPad*%
%ADD12R,1.600000X1.600000*%
%TD*%
%TA.AperFunction,ComponentPad*%
%ADD13C,1.600000*%
%TD*%
%TA.AperFunction,ComponentPad*%
%ADD14R,2.500000X4.000000*%
%TD*%
%TA.AperFunction,ComponentPad*%
%ADD15O,2.500000X4.000000*%
%TD*%
%TA.AperFunction,ComponentPad*%
%ADD16O,2.032000X3.175000*%
%TD*%
%TA.AperFunction,ComponentPad*%
%ADD17RoundRect,0.250000X-0.600000X-0.750000X0.600000X-0.750000X0.600000X0.750000X-0.600000X0.750000X0*%
%TD*%
%TA.AperFunction,ComponentPad*%
%ADD18O,1.700000X2.000000*%
%TD*%
%TA.AperFunction,ComponentPad*%
%ADD19O,1.600000X1.600000*%
%TD*%
%TA.AperFunction,ComponentPad*%
%ADD20R,1.800000X1.800000*%
%TD*%
%TA.AperFunction,ComponentPad*%
%ADD21C,1.800000*%
%TD*%
%TA.AperFunction,ComponentPad*%
%ADD22RoundRect,0.250000X-0.600000X-0.725000X0.600000X-0.725000X0.600000X0.725000X-0.600000X0.725000X0*%
%TD*%
%TA.AperFunction,ComponentPad*%
%ADD23O,1.700000X1.950000*%
%TD*%
%TA.AperFunction,ComponentPad*%
%ADD24C,3.000000*%
%TD*%
%TA.AperFunction,ComponentPad*%
%ADD25C,2.000000*%
%TD*%
%TA.AperFunction,HeatsinkPad*%
%ADD26C,0.600000*%
%TD*%
%TA.AperFunction,ViaPad*%
%ADD27C,2.000000*%
%TD*%
%TA.AperFunction,Conductor*%
%ADD28C,0.635000*%
%TD*%
G04 APERTURE END LIST*
D10*
%TO.P,H4,1*%
%TO.N,N/C*%
X53600000Y93000000D03*
X54302944Y94697056D03*
X54302944Y91302944D03*
X56000000Y95400000D03*
D11*
X56000000Y93000000D03*
D10*
X56000000Y90600000D03*
X57697056Y94697056D03*
X57697056Y91302944D03*
X58400000Y93000000D03*
%TD*%
%TO.P,H3,1*%
%TO.N,N/C*%
X53600000Y4000000D03*
X54302944Y5697056D03*
X54302944Y2302944D03*
X56000000Y6400000D03*
D11*
X56000000Y4000000D03*
D10*
X56000000Y1600000D03*
X57697056Y5697056D03*
X57697056Y2302944D03*
X58400000Y4000000D03*
%TD*%
%TO.P,H2,1*%
%TO.N,N/C*%
X1600000Y93000000D03*
X2302944Y94697056D03*
X2302944Y91302944D03*
X4000000Y95400000D03*
D11*
X4000000Y93000000D03*
D10*
X4000000Y90600000D03*
X5697056Y94697056D03*
X5697056Y91302944D03*
X6400000Y93000000D03*
%TD*%
%TO.P,H1,1*%
%TO.N,N/C*%
X1600000Y4000000D03*
X2302944Y5697056D03*
X2302944Y2302944D03*
X4000000Y6400000D03*
D11*
X4000000Y4000000D03*
D10*
X4000000Y1600000D03*
X5697056Y5697056D03*
X5697056Y2302944D03*
X6400000Y4000000D03*
%TD*%
D12*
%TO.P,C1,1*%
%TO.N,+3V3*%
X9000000Y59000000D03*
D13*
%TO.P,C1,2*%
%TO.N,GND*%
X11500000Y59000000D03*
%TD*%
D14*
%TO.P,U1,1,CT+*%
%TO.N,Net-(J1-Pin_1)*%
X35500000Y18000000D03*
D15*
%TO.P,U1,2,CT-*%
%TO.N,Net-(J1-Pin_2)*%
X40500000Y18000000D03*
%TO.P,U1,3,N*%
%TO.N,Net-(J3-Pin_2)*%
X45500000Y18000000D03*
%TO.P,U1,4,L*%
%TO.N,Net-(J3-Pin_1)*%
X50500000Y18000000D03*
D16*
%TO.P,U1,5,VCC*%
%TO.N,+3V3*%
X48080000Y80000000D03*
%TO.P,U1,6,RX*%
%TO.N,Net-(U1-RX)*%
X45540000Y80000000D03*
%TO.P,U1,7,TX*%
%TO.N,Net-(U1-TX)*%
X43000000Y80000000D03*
%TO.P,U1,8,CF*%
%TO.N,Net-(U1-CF)*%
X40460000Y80000000D03*
%TO.P,U1,9,GND*%
%TO.N,GND*%
X37920000Y80000000D03*
%TD*%
D17*
%TO.P,J1,1,Pin_1*%
%TO.N,Net-(J1-Pin_1)*%
X22500000Y5500000D03*
D18*
%TO.P,J1,2,Pin_2*%
%TO.N,Net-(J1-Pin_2)*%
X25000000Y5500000D03*
%TD*%
D13*
%TO.P,R2,1*%
%TO.N,Net-(D2-K)*%
X24000000Y90080000D03*
D19*
%TO.P,R2,2*%
%TO.N,GND*%
X24000000Y79920000D03*
%TD*%
D13*
%TO.P,R5,1*%
%TO.N,+3V3*%
X37080000Y89000000D03*
D19*
%TO.P,R5,2*%
%TO.N,Net-(J4-Pin_1)*%
X26920000Y89000000D03*
%TD*%
D20*
%TO.P,D2,1,K*%
%TO.N,Net-(D2-K)*%
X20540000Y91000000D03*
D21*
%TO.P,D2,2,A*%
%TO.N,Net-(D2-A)*%
X18000000Y91000000D03*
%TD*%
D12*
%TO.P,C2,1*%
%TO.N,+5V*%
X16800000Y48158126D03*
X18400000Y48829063D03*
D13*
%TO.P,C2,2*%
%TO.N,GND*%
X18400000Y51329063D03*
X20000000Y52000000D03*
%TD*%
D20*
%TO.P,D1,1,K*%
%TO.N,Net-(D1-K)*%
X13540000Y91000000D03*
D21*
%TO.P,D1,2,A*%
%TO.N,+3V3*%
X11000000Y91000000D03*
%TD*%
D22*
%TO.P,J4,1,Pin_1*%
%TO.N,Net-(J4-Pin_1)*%
X42000000Y92000000D03*
D23*
%TO.P,J4,2,Pin_2*%
%TO.N,GND*%
X44500000Y92000000D03*
%TO.P,J4,3,Pin_3*%
%TO.N,+3V3*%
X47000000Y92000000D03*
%TD*%
D13*
%TO.P,R1,1*%
%TO.N,Net-(D1-K)*%
X24920000Y93000000D03*
D19*
%TO.P,R1,2*%
%TO.N,GND*%
X35080000Y93000000D03*
%TD*%
D24*
%TO.P,J3,1,Pin_1*%
%TO.N,Net-(J3-Pin_1)*%
X47310000Y8500000D03*
X47310000Y3500000D03*
%TO.P,J3,2,Pin_2*%
%TO.N,Net-(J3-Pin_2)*%
X39690000Y8500000D03*
X39690000Y3500000D03*
%TD*%
D25*
%TO.P,U3,1,AC*%
%TO.N,Net-(J3-Pin_1)*%
X10000000Y12000000D03*
%TO.P,U3,2,AC*%
%TO.N,Net-(J3-Pin_2)*%
X15000000Y12000000D03*
%TO.P,U3,3,-Vo*%
%TO.N,GND*%
X20200000Y41400000D03*
%TO.P,U3,4,+Vo*%
%TO.N,+5V*%
X4800000Y41400000D03*
%TD*%
D26*
%TO.P,U4,39,GND*%
%TO.N,GND*%
X10237500Y78385000D03*
X8712500Y78385000D03*
X11000000Y77622500D03*
X9475000Y77622500D03*
X7950000Y77622500D03*
X10237500Y76860000D03*
X8712500Y76860000D03*
X11000000Y76097500D03*
X9475000Y76097500D03*
X7950000Y76097500D03*
X10237500Y75335000D03*
X8712500Y75335000D03*
%TD*%
D27*
%TO.N,+3V3*%
X5000000Y63000000D03*
X7000000Y88000000D03*
%TD*%
D28*
%TO.N,+3V3*%
X5000000Y63000000D02*
X5000000Y86000000D01*
X5000000Y86000000D02*
X7000000Y88000000D01*
%TD*%
M02*
