%TF.GenerationSoftware,KiCad,Pcbnew,7.0.8*%
%TF.CreationDate,2023-10-31T00:38:55-07:00*%
%TF.ProjectId,PZEM-Single LPKF - R1,505a454d-2d53-4696-9e67-6c65204c504b,rev?*%
%TF.SameCoordinates,Original*%
%TF.FileFunction,Copper,L2,Bot*%
%TF.FilePolarity,Positive*%
%FSLAX46Y46*%
G04 Gerber Fmt 4.6, Leading zero omitted, Abs format (unit mm)*
G04 Created by KiCad (PCBNEW 7.0.8) date 2023-10-31 00:38:55*
%MOMM*%
%LPD*%
G01*
G04 APERTURE LIST*
G04 Aperture macros list*
%AMRoundRect*
0 Rectangle with rounded corners*
0 $1 Rounding radius*
0 $2 $3 $4 $5 $6 $7 $8 $9 X,Y pos of 4 corners*
0 Add a 4 corners polygon primitive as box body*
4,1,4,$2,$3,$4,$5,$6,$7,$8,$9,$2,$3,0*
0 Add four circle primitives for the rounded corners*
1,1,$1+$1,$2,$3*
1,1,$1+$1,$4,$5*
1,1,$1+$1,$6,$7*
1,1,$1+$1,$8,$9*
0 Add four rect primitives between the rounded corners*
20,1,$1+$1,$2,$3,$4,$5,0*
20,1,$1+$1,$4,$5,$6,$7,0*
20,1,$1+$1,$6,$7,$8,$9,0*
20,1,$1+$1,$8,$9,$2,$3,0*%
G04 Aperture macros list end*
%TA.AperFunction,NonConductor*%
%ADD10C,0.200000*%
%TD*%
%TA.AperFunction,ComponentPad*%
%ADD11C,0.800000*%
%TD*%
%TA.AperFunction,ComponentPad*%
%ADD12C,6.400000*%
%TD*%
%TA.AperFunction,ComponentPad*%
%ADD13R,1.600000X1.600000*%
%TD*%
%TA.AperFunction,ComponentPad*%
%ADD14C,1.600000*%
%TD*%
%TA.AperFunction,ComponentPad*%
%ADD15R,2.500000X4.000000*%
%TD*%
%TA.AperFunction,ComponentPad*%
%ADD16O,2.500000X4.000000*%
%TD*%
%TA.AperFunction,ComponentPad*%
%ADD17O,2.032000X3.175000*%
%TD*%
%TA.AperFunction,ComponentPad*%
%ADD18RoundRect,0.250000X-0.600000X-0.750000X0.600000X-0.750000X0.600000X0.750000X-0.600000X0.750000X0*%
%TD*%
%TA.AperFunction,ComponentPad*%
%ADD19O,1.700000X2.000000*%
%TD*%
%TA.AperFunction,ComponentPad*%
%ADD20O,1.600000X1.600000*%
%TD*%
%TA.AperFunction,ComponentPad*%
%ADD21R,1.800000X1.800000*%
%TD*%
%TA.AperFunction,ComponentPad*%
%ADD22C,1.800000*%
%TD*%
%TA.AperFunction,ComponentPad*%
%ADD23RoundRect,0.250000X-0.600000X-0.725000X0.600000X-0.725000X0.600000X0.725000X-0.600000X0.725000X0*%
%TD*%
%TA.AperFunction,ComponentPad*%
%ADD24O,1.700000X1.950000*%
%TD*%
%TA.AperFunction,ComponentPad*%
%ADD25C,3.000000*%
%TD*%
%TA.AperFunction,ComponentPad*%
%ADD26C,2.000000*%
%TD*%
%TA.AperFunction,SMDPad,CuDef*%
%ADD27R,0.900000X1.500000*%
%TD*%
%TA.AperFunction,SMDPad,CuDef*%
%ADD28R,1.500000X0.900000*%
%TD*%
%TA.AperFunction,SMDPad,CuDef*%
%ADD29R,1.050000X1.050000*%
%TD*%
%TA.AperFunction,HeatsinkPad*%
%ADD30C,0.600000*%
%TD*%
%TA.AperFunction,SMDPad,CuDef*%
%ADD31R,4.200000X4.200000*%
%TD*%
%TA.AperFunction,SMDPad,CuDef*%
%ADD32R,2.000000X1.500000*%
%TD*%
%TA.AperFunction,SMDPad,CuDef*%
%ADD33R,2.000000X3.800000*%
%TD*%
%TA.AperFunction,ViaPad*%
%ADD34C,2.000000*%
%TD*%
%TA.AperFunction,Conductor*%
%ADD35C,0.635000*%
%TD*%
%TA.AperFunction,Conductor*%
%ADD36C,0.250000*%
%TD*%
%TA.AperFunction,Conductor*%
%ADD37C,0.381000*%
%TD*%
G04 APERTURE END LIST*
D10*
X18000000Y48500000D02*
X17000000Y48500000D01*
X15500000Y49500000D01*
X18000000Y49500000D01*
X18000000Y48500000D01*
%TA.AperFunction,NonConductor*%
G36*
X18000000Y48500000D02*
G01*
X17000000Y48500000D01*
X15500000Y49500000D01*
X18000000Y49500000D01*
X18000000Y48500000D01*
G37*
%TD.AperFunction*%
X18500000Y53500000D02*
X20000000Y52000000D01*
X20000000Y51000000D01*
X18000000Y51000000D01*
X18000000Y54000000D01*
X18500000Y53500000D01*
%TA.AperFunction,NonConductor*%
G36*
X18500000Y53500000D02*
G01*
X20000000Y52000000D01*
X20000000Y51000000D01*
X18000000Y51000000D01*
X18000000Y54000000D01*
X18500000Y53500000D01*
G37*
%TD.AperFunction*%
D11*
%TO.P,H4,1*%
%TO.N,N/C*%
X53600000Y93000000D03*
X54302944Y94697056D03*
X54302944Y91302944D03*
X56000000Y95400000D03*
D12*
X56000000Y93000000D03*
D11*
X56000000Y90600000D03*
X57697056Y94697056D03*
X57697056Y91302944D03*
X58400000Y93000000D03*
%TD*%
%TO.P,H3,1*%
%TO.N,N/C*%
X53600000Y4000000D03*
X54302944Y5697056D03*
X54302944Y2302944D03*
X56000000Y6400000D03*
D12*
X56000000Y4000000D03*
D11*
X56000000Y1600000D03*
X57697056Y5697056D03*
X57697056Y2302944D03*
X58400000Y4000000D03*
%TD*%
%TO.P,H2,1*%
%TO.N,N/C*%
X1600000Y93000000D03*
X2302944Y94697056D03*
X2302944Y91302944D03*
X4000000Y95400000D03*
D12*
X4000000Y93000000D03*
D11*
X4000000Y90600000D03*
X5697056Y94697056D03*
X5697056Y91302944D03*
X6400000Y93000000D03*
%TD*%
%TO.P,H1,1*%
%TO.N,N/C*%
X1600000Y4000000D03*
X2302944Y5697056D03*
X2302944Y2302944D03*
X4000000Y6400000D03*
D12*
X4000000Y4000000D03*
D11*
X4000000Y1600000D03*
X5697056Y5697056D03*
X5697056Y2302944D03*
X6400000Y4000000D03*
%TD*%
D13*
%TO.P,C1,1*%
%TO.N,+3V3*%
X9000000Y59000000D03*
D14*
%TO.P,C1,2*%
%TO.N,GND*%
X11500000Y59000000D03*
%TD*%
D15*
%TO.P,U1,1,CT+*%
%TO.N,Net-(J1-Pin_1)*%
X35500000Y18000000D03*
D16*
%TO.P,U1,2,CT-*%
%TO.N,Net-(J1-Pin_2)*%
X40500000Y18000000D03*
%TO.P,U1,3,N*%
%TO.N,Net-(J3-Pin_2)*%
X45500000Y18000000D03*
%TO.P,U1,4,L*%
%TO.N,Net-(J3-Pin_1)*%
X50500000Y18000000D03*
D17*
%TO.P,U1,5,VCC*%
%TO.N,+3V3*%
X48080000Y80000000D03*
%TO.P,U1,6,RX*%
%TO.N,Net-(U1-RX)*%
X45540000Y80000000D03*
%TO.P,U1,7,TX*%
%TO.N,Net-(U1-TX)*%
X43000000Y80000000D03*
%TO.P,U1,8,CF*%
%TO.N,Net-(U1-CF)*%
X40460000Y80000000D03*
%TO.P,U1,9,GND*%
%TO.N,GND*%
X37920000Y80000000D03*
%TD*%
D18*
%TO.P,J1,1,Pin_1*%
%TO.N,Net-(J1-Pin_1)*%
X22500000Y5500000D03*
D19*
%TO.P,J1,2,Pin_2*%
%TO.N,Net-(J1-Pin_2)*%
X25000000Y5500000D03*
%TD*%
D14*
%TO.P,R2,1*%
%TO.N,Net-(D2-K)*%
X24000000Y90080000D03*
D20*
%TO.P,R2,2*%
%TO.N,GND*%
X24000000Y79920000D03*
%TD*%
D14*
%TO.P,R5,1*%
%TO.N,+3V3*%
X37080000Y89000000D03*
D20*
%TO.P,R5,2*%
%TO.N,Net-(J4-Pin_1)*%
X26920000Y89000000D03*
%TD*%
D21*
%TO.P,D2,1,K*%
%TO.N,Net-(D2-K)*%
X20540000Y91000000D03*
D22*
%TO.P,D2,2,A*%
%TO.N,Net-(D2-A)*%
X18000000Y91000000D03*
%TD*%
D13*
%TO.P,C2,1*%
%TO.N,+5V*%
X16800000Y48158126D03*
X18400000Y48829063D03*
D14*
%TO.P,C2,2*%
%TO.N,GND*%
X18400000Y51329063D03*
X20000000Y52000000D03*
%TD*%
D21*
%TO.P,D1,1,K*%
%TO.N,Net-(D1-K)*%
X13540000Y91000000D03*
D22*
%TO.P,D1,2,A*%
%TO.N,+3V3*%
X11000000Y91000000D03*
%TD*%
D23*
%TO.P,J4,1,Pin_1*%
%TO.N,Net-(J4-Pin_1)*%
X42000000Y92000000D03*
D24*
%TO.P,J4,2,Pin_2*%
%TO.N,GND*%
X44500000Y92000000D03*
%TO.P,J4,3,Pin_3*%
%TO.N,+3V3*%
X47000000Y92000000D03*
%TD*%
D14*
%TO.P,R1,1*%
%TO.N,Net-(D1-K)*%
X24920000Y93000000D03*
D20*
%TO.P,R1,2*%
%TO.N,GND*%
X35080000Y93000000D03*
%TD*%
D25*
%TO.P,J3,1,Pin_1*%
%TO.N,Net-(J3-Pin_1)*%
X47310000Y8500000D03*
X47310000Y3500000D03*
%TO.P,J3,2,Pin_2*%
%TO.N,Net-(J3-Pin_2)*%
X39690000Y8500000D03*
X39690000Y3500000D03*
%TD*%
D26*
%TO.P,U3,1,AC*%
%TO.N,Net-(J3-Pin_1)*%
X10000000Y12000000D03*
%TO.P,U3,2,AC*%
%TO.N,Net-(J3-Pin_2)*%
X15000000Y12000000D03*
%TO.P,U3,3,-Vo*%
%TO.N,GND*%
X20200000Y41400000D03*
%TO.P,U3,4,+Vo*%
%TO.N,+5V*%
X4800000Y41400000D03*
%TD*%
D27*
%TO.P,U4,1,GND*%
%TO.N,GND*%
X2135000Y84930000D03*
%TO.P,U4,2,VDD*%
%TO.N,+3V3*%
X3405000Y84930000D03*
%TO.P,U4,3,EN*%
%TO.N,unconnected-(U4-EN-Pad3)*%
X4675000Y84930000D03*
%TO.P,U4,4,SENSOR_VP*%
%TO.N,unconnected-(U4-SENSOR_VP-Pad4)*%
X5945000Y84930000D03*
%TO.P,U4,5,SENSOR_VN*%
%TO.N,unconnected-(U4-SENSOR_VN-Pad5)*%
X7215000Y84930000D03*
%TO.P,U4,6,IO34*%
%TO.N,unconnected-(U4-IO34-Pad6)*%
X8485000Y84930000D03*
%TO.P,U4,7,IO35*%
%TO.N,unconnected-(U4-IO35-Pad7)*%
X9755000Y84930000D03*
%TO.P,U4,8,IO32*%
%TO.N,Net-(D2-A)*%
X11025000Y84930000D03*
%TO.P,U4,9,IO33*%
%TO.N,unconnected-(U4-IO33-Pad9)*%
X12295000Y84930000D03*
%TO.P,U4,10,IO25*%
%TO.N,Net-(J4-Pin_1)*%
X13565000Y84930000D03*
%TO.P,U4,11,IO26*%
%TO.N,unconnected-(U4-IO26-Pad11)*%
X14835000Y84930000D03*
%TO.P,U4,12,IO27*%
%TO.N,unconnected-(U4-IO27-Pad12)*%
X16105000Y84930000D03*
%TO.P,U4,13,IO14*%
%TO.N,unconnected-(U4-IO14-Pad13)*%
X17375000Y84930000D03*
%TO.P,U4,14,IO12*%
%TO.N,unconnected-(U4-IO12-Pad14)*%
X18645000Y84930000D03*
D28*
%TO.P,U4,15,GND*%
%TO.N,GND*%
X19895000Y81890000D03*
%TO.P,U4,16,IO13*%
%TO.N,unconnected-(U4-IO13-Pad16)*%
X19895000Y80620000D03*
%TO.P,U4,17,SHD/SD2*%
%TO.N,unconnected-(U4-SHD{slash}SD2-Pad17)*%
X19895000Y79350000D03*
%TO.P,U4,18,SWP/SD3*%
%TO.N,unconnected-(U4-SWP{slash}SD3-Pad18)*%
X19895000Y78080000D03*
%TO.P,U4,19,SCS/CMD*%
%TO.N,unconnected-(U4-SCS{slash}CMD-Pad19)*%
X19895000Y76810000D03*
%TO.P,U4,20,SCK/CLK*%
%TO.N,unconnected-(U4-SCK{slash}CLK-Pad20)*%
X19895000Y75540000D03*
%TO.P,U4,21,SDO/SD0*%
%TO.N,unconnected-(U4-SDO{slash}SD0-Pad21)*%
X19895000Y74270000D03*
%TO.P,U4,22,SDI/SD1*%
%TO.N,unconnected-(U4-SDI{slash}SD1-Pad22)*%
X19895000Y73000000D03*
%TO.P,U4,23,IO15*%
%TO.N,unconnected-(U4-IO15-Pad23)*%
X19895000Y71730000D03*
%TO.P,U4,24,IO2*%
%TO.N,unconnected-(U4-IO2-Pad24)*%
X19895000Y70460000D03*
D27*
%TO.P,U4,25,IO0*%
%TO.N,unconnected-(U4-IO0-Pad25)*%
X18645000Y67430000D03*
%TO.P,U4,26,IO4*%
%TO.N,unconnected-(U4-IO4-Pad26)*%
X17375000Y67430000D03*
%TO.P,U4,27,IO16*%
%TO.N,Net-(U1-CF)*%
X16105000Y67430000D03*
%TO.P,U4,28,IO17*%
%TO.N,Net-(U1-TX)*%
X14835000Y67430000D03*
%TO.P,U4,29,IO5*%
%TO.N,unconnected-(U4-IO5-Pad29)*%
X13565000Y67430000D03*
%TO.P,U4,30,IO18*%
%TO.N,Net-(U1-RX)*%
X12295000Y67430000D03*
%TO.P,U4,31,IO19*%
%TO.N,unconnected-(U4-IO19-Pad31)*%
X11025000Y67430000D03*
%TO.P,U4,32,NC*%
%TO.N,unconnected-(U4-NC-Pad32)*%
X9755000Y67430000D03*
%TO.P,U4,33,IO21*%
%TO.N,unconnected-(U4-IO21-Pad33)*%
X8485000Y67430000D03*
%TO.P,U4,34,RXD0/IO3*%
%TO.N,unconnected-(U4-RXD0{slash}IO3-Pad34)*%
X7215000Y67430000D03*
%TO.P,U4,35,TXD0/IO1*%
%TO.N,unconnected-(U4-TXD0{slash}IO1-Pad35)*%
X5945000Y67430000D03*
%TO.P,U4,36,IO22*%
%TO.N,unconnected-(U4-IO22-Pad36)*%
X4675000Y67430000D03*
%TO.P,U4,37,IO23*%
%TO.N,unconnected-(U4-IO23-Pad37)*%
X3405000Y67430000D03*
%TO.P,U4,38,GND*%
%TO.N,GND*%
X2135000Y67430000D03*
D29*
%TO.P,U4,39,GND*%
X11000000Y78385000D03*
D30*
X10237500Y78385000D03*
D29*
X9475000Y78385000D03*
D30*
X8712500Y78385000D03*
D29*
X7950000Y78385000D03*
D30*
X11000000Y77622500D03*
X9475000Y77622500D03*
X7950000Y77622500D03*
D29*
X11000000Y76860000D03*
D30*
X10237500Y76860000D03*
D29*
X9475000Y76860000D03*
D31*
X9475000Y76860000D03*
D30*
X8712500Y76860000D03*
D29*
X7950000Y76860000D03*
D30*
X11000000Y76097500D03*
X9475000Y76097500D03*
X7950000Y76097500D03*
D29*
X11000000Y75335000D03*
D30*
X10237500Y75335000D03*
D29*
X9475000Y75335000D03*
D30*
X8712500Y75335000D03*
D29*
X7950000Y75335000D03*
%TD*%
D32*
%TO.P,U2,1,GND*%
%TO.N,GND*%
X12150000Y54300000D03*
%TO.P,U2,2,VO*%
%TO.N,+3V3*%
X12150000Y52000000D03*
D33*
X5850000Y52000000D03*
D32*
%TO.P,U2,3,VI*%
%TO.N,+5V*%
X12150000Y49700000D03*
%TD*%
D34*
%TO.N,+3V3*%
X5000000Y63000000D03*
X7000000Y88000000D03*
%TD*%
D35*
%TO.N,GND*%
X2135000Y65865000D02*
X2135000Y67430000D01*
X7500000Y65000000D02*
X3000000Y65000000D01*
X11500000Y59000000D02*
X11500000Y61000000D01*
X11500000Y61000000D02*
X7500000Y65000000D01*
X3000000Y65000000D02*
X2135000Y65865000D01*
X7950000Y78385000D02*
X2135000Y78385000D01*
X18400000Y51329063D02*
X19329063Y51329063D01*
D36*
X39000000Y93000000D02*
X40000000Y94000000D01*
D35*
X12150000Y54300000D02*
X11500000Y54950000D01*
X19895000Y81890000D02*
X22030000Y81890000D01*
D36*
X35080000Y93000000D02*
X39000000Y93000000D01*
D35*
X14505000Y81890000D02*
X11000000Y78385000D01*
D36*
X40000000Y94000000D02*
X44000000Y94000000D01*
D35*
X11500000Y54950000D02*
X11500000Y59000000D01*
X37920000Y80000000D02*
X37920000Y82920000D01*
X44500000Y89500000D02*
X44500000Y92000000D01*
D36*
X44500000Y93500000D02*
X44500000Y92000000D01*
D35*
X37920000Y80000000D02*
X24080000Y80000000D01*
X24080000Y80000000D02*
X24000000Y79920000D01*
X19329063Y51329063D02*
X20000000Y52000000D01*
X12150000Y54300000D02*
X17700000Y54300000D01*
X37920000Y82920000D02*
X44500000Y89500000D01*
D36*
X44000000Y94000000D02*
X44500000Y93500000D01*
D35*
X17700000Y54300000D02*
X20000000Y52000000D01*
X2135000Y84930000D02*
X2135000Y67430000D01*
X22030000Y81890000D02*
X24000000Y79920000D01*
X20200000Y51800000D02*
X20200000Y41400000D01*
X19895000Y81890000D02*
X14505000Y81890000D01*
X20000000Y52000000D02*
X20200000Y51800000D01*
%TO.N,+5V*%
X17470937Y48829063D02*
X16800000Y48158126D01*
X15258126Y49700000D02*
X12150000Y49700000D01*
X18400000Y48829063D02*
X17470937Y48829063D01*
X10041874Y41400000D02*
X16800000Y48158126D01*
X16800000Y48158126D02*
X15258126Y49700000D01*
X4800000Y41400000D02*
X10041874Y41400000D01*
%TO.N,+3V3*%
X7000000Y88000000D02*
X4000000Y88000000D01*
X48080000Y85420000D02*
X48080000Y80000000D01*
X35080000Y95000000D02*
X32000000Y95000000D01*
X47000000Y94000000D02*
X47000000Y90500000D01*
X3405000Y87405000D02*
X3405000Y84930000D01*
X4000000Y88000000D02*
X3405000Y87405000D01*
X37080000Y89000000D02*
X34000000Y89000000D01*
X47000000Y86500000D02*
X48080000Y85420000D01*
X12150000Y52000000D02*
X5850000Y52000000D01*
X9000000Y59000000D02*
X5850000Y55850000D01*
X32000000Y95000000D02*
X14000000Y95000000D01*
X14000000Y95000000D02*
X7000000Y88000000D01*
X46000000Y95000000D02*
X47000000Y94000000D01*
X32000000Y91000000D02*
X32000000Y95000000D01*
X34000000Y89000000D02*
X32000000Y91000000D01*
X35080000Y95000000D02*
X46000000Y95000000D01*
X5850000Y55850000D02*
X5850000Y52000000D01*
X47000000Y90500000D02*
X47000000Y89000000D01*
X9000000Y59000000D02*
X5000000Y63000000D01*
X47000000Y90500000D02*
X47000000Y86500000D01*
%TO.N,Net-(J3-Pin_1)*%
X50500000Y11690000D02*
X47310000Y8500000D01*
X42000000Y32000000D02*
X50500000Y23500000D01*
X47310000Y8500000D02*
X47310000Y3500000D01*
X10000000Y12000000D02*
X10000000Y21000000D01*
X50500000Y23500000D02*
X50500000Y18000000D01*
X50500000Y23500000D02*
X50500000Y11690000D01*
X21000000Y32000000D02*
X42000000Y32000000D01*
X10000000Y21000000D02*
X21000000Y32000000D01*
X47000000Y3810000D02*
X47310000Y3500000D01*
%TO.N,Net-(J3-Pin_2)*%
X21000000Y25000000D02*
X15000000Y19000000D01*
X42000000Y10810000D02*
X39690000Y8500000D01*
X45500000Y21500000D02*
X42000000Y25000000D01*
X42000000Y25000000D02*
X21000000Y25000000D01*
X39690000Y8500000D02*
X45500000Y14310000D01*
X45500000Y14310000D02*
X45500000Y18000000D01*
X45500000Y18000000D02*
X45500000Y21500000D01*
X15000000Y19000000D02*
X15000000Y12000000D01*
X39690000Y3500000D02*
X39690000Y8500000D01*
D36*
%TO.N,Net-(J4-Pin_1)*%
X13565000Y86565000D02*
X14500000Y87500000D01*
X26920000Y89000000D02*
X31000000Y89000000D01*
X14500000Y87500000D02*
X25420000Y87500000D01*
X25420000Y87500000D02*
X26920000Y89000000D01*
X42000000Y90500000D02*
X42000000Y92000000D01*
X37000000Y87000000D02*
X38500000Y87000000D01*
X31000000Y89000000D02*
X33000000Y87000000D01*
X13565000Y84930000D02*
X13565000Y86565000D01*
X38500000Y87000000D02*
X42000000Y90500000D01*
X33000000Y87000000D02*
X37000000Y87000000D01*
D35*
%TO.N,Net-(J1-Pin_1)*%
X22500000Y8500000D02*
X25000000Y11000000D01*
X25000000Y11000000D02*
X32000000Y11000000D01*
X22500000Y5500000D02*
X22500000Y8500000D01*
X35500000Y14500000D02*
X35500000Y18000000D01*
X32000000Y11000000D02*
X35500000Y14500000D01*
%TO.N,Net-(J1-Pin_2)*%
X40500000Y16500000D02*
X40500000Y18000000D01*
X25000000Y8000000D02*
X26000000Y9000000D01*
X27000000Y9000000D02*
X29250000Y9000000D01*
X27000000Y9000000D02*
X33000000Y9000000D01*
X33000000Y9000000D02*
X40500000Y16500000D01*
X26000000Y9000000D02*
X27000000Y9000000D01*
X25000000Y5500000D02*
X25000000Y8000000D01*
D36*
%TO.N,Net-(U1-RX)*%
X15000000Y62000000D02*
X32000000Y62000000D01*
X12295000Y64705000D02*
X15000000Y62000000D01*
X32000000Y62000000D02*
X45540000Y75540000D01*
X12295000Y67430000D02*
X12295000Y64705000D01*
X45540000Y75540000D02*
X45540000Y80000000D01*
%TO.N,Net-(U1-TX)*%
X31000000Y63500000D02*
X16500000Y63500000D01*
X14835000Y65165000D02*
X14835000Y67430000D01*
X43000000Y75500000D02*
X31000000Y63500000D01*
X16500000Y63500000D02*
X14835000Y65165000D01*
X43000000Y80000000D02*
X43000000Y75500000D01*
%TO.N,Net-(U1-CF)*%
X16105000Y67430000D02*
X16105000Y65895000D01*
X16105000Y65895000D02*
X17000000Y65000000D01*
X30000000Y65000000D02*
X40460000Y75460000D01*
X40460000Y75460000D02*
X40460000Y80000000D01*
X17000000Y65000000D02*
X30000000Y65000000D01*
D37*
%TO.N,Net-(D1-K)*%
X13540000Y91000000D02*
X15540000Y93000000D01*
X15540000Y93000000D02*
X24920000Y93000000D01*
D36*
%TO.N,Net-(D2-K)*%
X20540000Y91000000D02*
X23080000Y91000000D01*
X23080000Y91000000D02*
X24000000Y90080000D01*
%TO.N,Net-(D2-A)*%
X11025000Y87025000D02*
X11025000Y84930000D01*
X13000000Y89000000D02*
X11025000Y87025000D01*
X16000000Y89000000D02*
X13000000Y89000000D01*
X18000000Y91000000D02*
X16000000Y89000000D01*
%TD*%
M02*
