M48
; DRILL file {KiCad 7.0.8} date Tue Oct 31 00:38:57 2023
; FORMAT={3:3/ absolute / metric / suppress trailing zeros}
; #@! TF.CreationDate,2023-10-31T00:38:57-07:00
; #@! TF.GenerationSoftware,Kicad,Pcbnew,7.0.8
; #@! TF.FileFunction,MixedPlating,1,2
FMAT,2
METRIC,LZ
; #@! TA.AperFunction,Plated,PTH,ComponentDrill
T1C0.200
; #@! TA.AperFunction,Plated,PTH,ComponentDrill
T2C0.500
; #@! TA.AperFunction,Plated,PTH,ComponentDrill
T3C0.800
; #@! TA.AperFunction,Plated,PTH,ComponentDrill
T4C0.900
; #@! TA.AperFunction,Plated,PTH,ComponentDrill
T5C0.950
; #@! TA.AperFunction,Plated,PTH,ViaDrill
T6C1.000
; #@! TA.AperFunction,Plated,PTH,ComponentDrill
T7C1.000
; #@! TA.AperFunction,Plated,PTH,ComponentDrill
T8C1.200
; #@! TA.AperFunction,Plated,PTH,ComponentDrill
T9C1.300
; #@! TA.AperFunction,Plated,PTH,ComponentDrill
T10C1.400
; #@! TA.AperFunction,Plated,PTH,ComponentDrill
T11C3.200
; #@! TA.AperFunction,NonPlated,NPTH,ComponentDrill
T12C3.250
%
G90
G05
T1
X00795Y077623
X00795Y076097
X008713Y078385
X008713Y07686
X008713Y075335
X009475Y077623
X009475Y076097
X010237Y078385
X010237Y07686
X010237Y075335
X011Y077623
X011Y076097
T2
X0016Y093
X0016Y004
X002303Y094697
X002303Y091303
X002303Y005697
X002303Y002303
X004Y0954
X004Y0906
X004Y0064
X004Y0016
X005697Y094697
X005697Y091303
X005697Y005697
X005697Y002303
X0064Y093
X0064Y004
X0536Y093
X0536Y004
X054303Y094697
X054303Y091303
X054303Y005697
X054303Y002303
X056Y0954
X056Y0906
X056Y0064
X056Y0016
X057697Y094697
X057697Y091303
X057697Y005697
X057697Y002303
X0584Y093
X0584Y004
T3
X009Y059
X0115Y059
X0168Y048158
X0184Y051329
X0184Y048829
X02Y052
X024Y09008
X024Y07992
X02492Y093
X02692Y089
X03508Y093
X03708Y089
T4
X011Y091
X01354Y091
X018Y091
X02054Y091
T5
X042Y092
X0445Y092
X047Y092
T6
X005Y063
X007Y088
T7
X0048Y0414
X01Y012
X015Y012
X0202Y0414
X0225Y0055
X025Y0055
T8
X03792Y08
X04046Y08
X043Y08
X04554Y08
X04808Y08
T9
X03969Y0085
X03969Y0035
X04731Y0085
X04731Y0035
T10
X0355Y018
X0405Y018
X0455Y018
X0505Y018
T11
X004Y093
X004Y004
X056Y093
X056Y004
T12
X0305Y0845
X0305Y0155
X0555Y0845
X0555Y0155
T0
M30
