%TF.GenerationSoftware,KiCad,Pcbnew,7.0.8*%
%TF.CreationDate,2023-10-31T00:38:55-07:00*%
%TF.ProjectId,PZEM-Single LPKF - R1,505a454d-2d53-4696-9e67-6c65204c504b,rev?*%
%TF.SameCoordinates,Original*%
%TF.FileFunction,Legend,Top*%
%TF.FilePolarity,Positive*%
%FSLAX46Y46*%
G04 Gerber Fmt 4.6, Leading zero omitted, Abs format (unit mm)*
G04 Created by KiCad (PCBNEW 7.0.8) date 2023-10-31 00:38:55*
%MOMM*%
%LPD*%
G01*
G04 APERTURE LIST*
%ADD10C,0.150000*%
%ADD11C,0.120000*%
G04 APERTURE END LIST*
D10*
X57778095Y88989180D02*
X57778095Y89989180D01*
X57778095Y89512990D02*
X58349523Y89512990D01*
X58349523Y88989180D02*
X58349523Y89989180D01*
X59254285Y89655847D02*
X59254285Y88989180D01*
X59016190Y90036800D02*
X58778095Y89322514D01*
X58778095Y89322514D02*
X59397142Y89322514D01*
X51174095Y1259180D02*
X51174095Y2259180D01*
X51174095Y1782990D02*
X51745523Y1782990D01*
X51745523Y1259180D02*
X51745523Y2259180D01*
X52126476Y2259180D02*
X52745523Y2259180D01*
X52745523Y2259180D02*
X52412190Y1878228D01*
X52412190Y1878228D02*
X52555047Y1878228D01*
X52555047Y1878228D02*
X52650285Y1830609D01*
X52650285Y1830609D02*
X52697904Y1782990D01*
X52697904Y1782990D02*
X52745523Y1687752D01*
X52745523Y1687752D02*
X52745523Y1449657D01*
X52745523Y1449657D02*
X52697904Y1354419D01*
X52697904Y1354419D02*
X52650285Y1306800D01*
X52650285Y1306800D02*
X52555047Y1259180D01*
X52555047Y1259180D02*
X52269333Y1259180D01*
X52269333Y1259180D02*
X52174095Y1306800D01*
X52174095Y1306800D02*
X52126476Y1354419D01*
X444095Y89116180D02*
X444095Y90116180D01*
X444095Y89639990D02*
X1015523Y89639990D01*
X1015523Y89116180D02*
X1015523Y90116180D01*
X1444095Y90020942D02*
X1491714Y90068561D01*
X1491714Y90068561D02*
X1586952Y90116180D01*
X1586952Y90116180D02*
X1825047Y90116180D01*
X1825047Y90116180D02*
X1920285Y90068561D01*
X1920285Y90068561D02*
X1967904Y90020942D01*
X1967904Y90020942D02*
X2015523Y89925704D01*
X2015523Y89925704D02*
X2015523Y89830466D01*
X2015523Y89830466D02*
X1967904Y89687609D01*
X1967904Y89687609D02*
X1396476Y89116180D01*
X1396476Y89116180D02*
X2015523Y89116180D01*
X7302095Y878180D02*
X7302095Y1878180D01*
X7302095Y1401990D02*
X7873523Y1401990D01*
X7873523Y878180D02*
X7873523Y1878180D01*
X8873523Y878180D02*
X8302095Y878180D01*
X8587809Y878180D02*
X8587809Y1878180D01*
X8587809Y1878180D02*
X8492571Y1735323D01*
X8492571Y1735323D02*
X8397333Y1640085D01*
X8397333Y1640085D02*
X8302095Y1592466D01*
X10083333Y63890419D02*
X10035714Y63842800D01*
X10035714Y63842800D02*
X9892857Y63795180D01*
X9892857Y63795180D02*
X9797619Y63795180D01*
X9797619Y63795180D02*
X9654762Y63842800D01*
X9654762Y63842800D02*
X9559524Y63938038D01*
X9559524Y63938038D02*
X9511905Y64033276D01*
X9511905Y64033276D02*
X9464286Y64223752D01*
X9464286Y64223752D02*
X9464286Y64366609D01*
X9464286Y64366609D02*
X9511905Y64557085D01*
X9511905Y64557085D02*
X9559524Y64652323D01*
X9559524Y64652323D02*
X9654762Y64747561D01*
X9654762Y64747561D02*
X9797619Y64795180D01*
X9797619Y64795180D02*
X9892857Y64795180D01*
X9892857Y64795180D02*
X10035714Y64747561D01*
X10035714Y64747561D02*
X10083333Y64699942D01*
X11035714Y63795180D02*
X10464286Y63795180D01*
X10750000Y63795180D02*
X10750000Y64795180D01*
X10750000Y64795180D02*
X10654762Y64652323D01*
X10654762Y64652323D02*
X10559524Y64557085D01*
X10559524Y64557085D02*
X10464286Y64509466D01*
X41954819Y49238095D02*
X42764342Y49238095D01*
X42764342Y49238095D02*
X42859580Y49285714D01*
X42859580Y49285714D02*
X42907200Y49333333D01*
X42907200Y49333333D02*
X42954819Y49428571D01*
X42954819Y49428571D02*
X42954819Y49619047D01*
X42954819Y49619047D02*
X42907200Y49714285D01*
X42907200Y49714285D02*
X42859580Y49761904D01*
X42859580Y49761904D02*
X42764342Y49809523D01*
X42764342Y49809523D02*
X41954819Y49809523D01*
X42954819Y50809523D02*
X42954819Y50238095D01*
X42954819Y50523809D02*
X41954819Y50523809D01*
X41954819Y50523809D02*
X42097676Y50428571D01*
X42097676Y50428571D02*
X42192914Y50333333D01*
X42192914Y50333333D02*
X42240533Y50238095D01*
X23416666Y9595180D02*
X23416666Y8880895D01*
X23416666Y8880895D02*
X23369047Y8738038D01*
X23369047Y8738038D02*
X23273809Y8642800D01*
X23273809Y8642800D02*
X23130952Y8595180D01*
X23130952Y8595180D02*
X23035714Y8595180D01*
X24416666Y8595180D02*
X23845238Y8595180D01*
X24130952Y8595180D02*
X24130952Y9595180D01*
X24130952Y9595180D02*
X24035714Y9452323D01*
X24035714Y9452323D02*
X23940476Y9357085D01*
X23940476Y9357085D02*
X23845238Y9309466D01*
X26824819Y84833333D02*
X26348628Y84500000D01*
X26824819Y84261905D02*
X25824819Y84261905D01*
X25824819Y84261905D02*
X25824819Y84642857D01*
X25824819Y84642857D02*
X25872438Y84738095D01*
X25872438Y84738095D02*
X25920057Y84785714D01*
X25920057Y84785714D02*
X26015295Y84833333D01*
X26015295Y84833333D02*
X26158152Y84833333D01*
X26158152Y84833333D02*
X26253390Y84785714D01*
X26253390Y84785714D02*
X26301009Y84738095D01*
X26301009Y84738095D02*
X26348628Y84642857D01*
X26348628Y84642857D02*
X26348628Y84261905D01*
X25920057Y85214286D02*
X25872438Y85261905D01*
X25872438Y85261905D02*
X25824819Y85357143D01*
X25824819Y85357143D02*
X25824819Y85595238D01*
X25824819Y85595238D02*
X25872438Y85690476D01*
X25872438Y85690476D02*
X25920057Y85738095D01*
X25920057Y85738095D02*
X26015295Y85785714D01*
X26015295Y85785714D02*
X26110533Y85785714D01*
X26110533Y85785714D02*
X26253390Y85738095D01*
X26253390Y85738095D02*
X26824819Y85166667D01*
X26824819Y85166667D02*
X26824819Y85785714D01*
X40083333Y87045180D02*
X39750000Y87521371D01*
X39511905Y87045180D02*
X39511905Y88045180D01*
X39511905Y88045180D02*
X39892857Y88045180D01*
X39892857Y88045180D02*
X39988095Y87997561D01*
X39988095Y87997561D02*
X40035714Y87949942D01*
X40035714Y87949942D02*
X40083333Y87854704D01*
X40083333Y87854704D02*
X40083333Y87711847D01*
X40083333Y87711847D02*
X40035714Y87616609D01*
X40035714Y87616609D02*
X39988095Y87568990D01*
X39988095Y87568990D02*
X39892857Y87521371D01*
X39892857Y87521371D02*
X39511905Y87521371D01*
X40988095Y88045180D02*
X40511905Y88045180D01*
X40511905Y88045180D02*
X40464286Y87568990D01*
X40464286Y87568990D02*
X40511905Y87616609D01*
X40511905Y87616609D02*
X40607143Y87664228D01*
X40607143Y87664228D02*
X40845238Y87664228D01*
X40845238Y87664228D02*
X40940476Y87616609D01*
X40940476Y87616609D02*
X40988095Y87568990D01*
X40988095Y87568990D02*
X41035714Y87473752D01*
X41035714Y87473752D02*
X41035714Y87235657D01*
X41035714Y87235657D02*
X40988095Y87140419D01*
X40988095Y87140419D02*
X40940476Y87092800D01*
X40940476Y87092800D02*
X40845238Y87045180D01*
X40845238Y87045180D02*
X40607143Y87045180D01*
X40607143Y87045180D02*
X40511905Y87092800D01*
X40511905Y87092800D02*
X40464286Y87140419D01*
X18531905Y86585180D02*
X18531905Y87585180D01*
X18531905Y87585180D02*
X18770000Y87585180D01*
X18770000Y87585180D02*
X18912857Y87537561D01*
X18912857Y87537561D02*
X19008095Y87442323D01*
X19008095Y87442323D02*
X19055714Y87347085D01*
X19055714Y87347085D02*
X19103333Y87156609D01*
X19103333Y87156609D02*
X19103333Y87013752D01*
X19103333Y87013752D02*
X19055714Y86823276D01*
X19055714Y86823276D02*
X19008095Y86728038D01*
X19008095Y86728038D02*
X18912857Y86632800D01*
X18912857Y86632800D02*
X18770000Y86585180D01*
X18770000Y86585180D02*
X18531905Y86585180D01*
X19484286Y87489942D02*
X19531905Y87537561D01*
X19531905Y87537561D02*
X19627143Y87585180D01*
X19627143Y87585180D02*
X19865238Y87585180D01*
X19865238Y87585180D02*
X19960476Y87537561D01*
X19960476Y87537561D02*
X20008095Y87489942D01*
X20008095Y87489942D02*
X20055714Y87394704D01*
X20055714Y87394704D02*
X20055714Y87299466D01*
X20055714Y87299466D02*
X20008095Y87156609D01*
X20008095Y87156609D02*
X19436667Y86585180D01*
X19436667Y86585180D02*
X20055714Y86585180D01*
X12509580Y49912396D02*
X12557200Y49864777D01*
X12557200Y49864777D02*
X12604819Y49721920D01*
X12604819Y49721920D02*
X12604819Y49626682D01*
X12604819Y49626682D02*
X12557200Y49483825D01*
X12557200Y49483825D02*
X12461961Y49388587D01*
X12461961Y49388587D02*
X12366723Y49340968D01*
X12366723Y49340968D02*
X12176247Y49293349D01*
X12176247Y49293349D02*
X12033390Y49293349D01*
X12033390Y49293349D02*
X11842914Y49340968D01*
X11842914Y49340968D02*
X11747676Y49388587D01*
X11747676Y49388587D02*
X11652438Y49483825D01*
X11652438Y49483825D02*
X11604819Y49626682D01*
X11604819Y49626682D02*
X11604819Y49721920D01*
X11604819Y49721920D02*
X11652438Y49864777D01*
X11652438Y49864777D02*
X11700057Y49912396D01*
X11700057Y50293349D02*
X11652438Y50340968D01*
X11652438Y50340968D02*
X11604819Y50436206D01*
X11604819Y50436206D02*
X11604819Y50674301D01*
X11604819Y50674301D02*
X11652438Y50769539D01*
X11652438Y50769539D02*
X11700057Y50817158D01*
X11700057Y50817158D02*
X11795295Y50864777D01*
X11795295Y50864777D02*
X11890533Y50864777D01*
X11890533Y50864777D02*
X12033390Y50817158D01*
X12033390Y50817158D02*
X12604819Y50245730D01*
X12604819Y50245730D02*
X12604819Y50864777D01*
X11531905Y86585180D02*
X11531905Y87585180D01*
X11531905Y87585180D02*
X11770000Y87585180D01*
X11770000Y87585180D02*
X11912857Y87537561D01*
X11912857Y87537561D02*
X12008095Y87442323D01*
X12008095Y87442323D02*
X12055714Y87347085D01*
X12055714Y87347085D02*
X12103333Y87156609D01*
X12103333Y87156609D02*
X12103333Y87013752D01*
X12103333Y87013752D02*
X12055714Y86823276D01*
X12055714Y86823276D02*
X12008095Y86728038D01*
X12008095Y86728038D02*
X11912857Y86632800D01*
X11912857Y86632800D02*
X11770000Y86585180D01*
X11770000Y86585180D02*
X11531905Y86585180D01*
X13055714Y86585180D02*
X12484286Y86585180D01*
X12770000Y86585180D02*
X12770000Y87585180D01*
X12770000Y87585180D02*
X12674762Y87442323D01*
X12674762Y87442323D02*
X12579524Y87347085D01*
X12579524Y87347085D02*
X12484286Y87299466D01*
X44166666Y96095180D02*
X44166666Y95380895D01*
X44166666Y95380895D02*
X44119047Y95238038D01*
X44119047Y95238038D02*
X44023809Y95142800D01*
X44023809Y95142800D02*
X43880952Y95095180D01*
X43880952Y95095180D02*
X43785714Y95095180D01*
X45071428Y95761847D02*
X45071428Y95095180D01*
X44833333Y96142800D02*
X44595238Y95428514D01*
X44595238Y95428514D02*
X45214285Y95428514D01*
X29833333Y94915180D02*
X29500000Y95391371D01*
X29261905Y94915180D02*
X29261905Y95915180D01*
X29261905Y95915180D02*
X29642857Y95915180D01*
X29642857Y95915180D02*
X29738095Y95867561D01*
X29738095Y95867561D02*
X29785714Y95819942D01*
X29785714Y95819942D02*
X29833333Y95724704D01*
X29833333Y95724704D02*
X29833333Y95581847D01*
X29833333Y95581847D02*
X29785714Y95486609D01*
X29785714Y95486609D02*
X29738095Y95438990D01*
X29738095Y95438990D02*
X29642857Y95391371D01*
X29642857Y95391371D02*
X29261905Y95391371D01*
X30785714Y94915180D02*
X30214286Y94915180D01*
X30500000Y94915180D02*
X30500000Y95915180D01*
X30500000Y95915180D02*
X30404762Y95772323D01*
X30404762Y95772323D02*
X30309524Y95677085D01*
X30309524Y95677085D02*
X30214286Y95629466D01*
X29454819Y4666666D02*
X30169104Y4666666D01*
X30169104Y4666666D02*
X30311961Y4619047D01*
X30311961Y4619047D02*
X30407200Y4523809D01*
X30407200Y4523809D02*
X30454819Y4380952D01*
X30454819Y4380952D02*
X30454819Y4285714D01*
X29454819Y5047619D02*
X29454819Y5666666D01*
X29454819Y5666666D02*
X29835771Y5333333D01*
X29835771Y5333333D02*
X29835771Y5476190D01*
X29835771Y5476190D02*
X29883390Y5571428D01*
X29883390Y5571428D02*
X29931009Y5619047D01*
X29931009Y5619047D02*
X30026247Y5666666D01*
X30026247Y5666666D02*
X30264342Y5666666D01*
X30264342Y5666666D02*
X30359580Y5619047D01*
X30359580Y5619047D02*
X30407200Y5571428D01*
X30407200Y5571428D02*
X30454819Y5476190D01*
X30454819Y5476190D02*
X30454819Y5190476D01*
X30454819Y5190476D02*
X30407200Y5095238D01*
X30407200Y5095238D02*
X30359580Y5047619D01*
X954819Y9968095D02*
X1764342Y9968095D01*
X1764342Y9968095D02*
X1859580Y10015714D01*
X1859580Y10015714D02*
X1907200Y10063333D01*
X1907200Y10063333D02*
X1954819Y10158571D01*
X1954819Y10158571D02*
X1954819Y10349047D01*
X1954819Y10349047D02*
X1907200Y10444285D01*
X1907200Y10444285D02*
X1859580Y10491904D01*
X1859580Y10491904D02*
X1764342Y10539523D01*
X1764342Y10539523D02*
X954819Y10539523D01*
X954819Y10920476D02*
X954819Y11539523D01*
X954819Y11539523D02*
X1335771Y11206190D01*
X1335771Y11206190D02*
X1335771Y11349047D01*
X1335771Y11349047D02*
X1383390Y11444285D01*
X1383390Y11444285D02*
X1431009Y11491904D01*
X1431009Y11491904D02*
X1526247Y11539523D01*
X1526247Y11539523D02*
X1764342Y11539523D01*
X1764342Y11539523D02*
X1859580Y11491904D01*
X1859580Y11491904D02*
X1907200Y11444285D01*
X1907200Y11444285D02*
X1954819Y11349047D01*
X1954819Y11349047D02*
X1954819Y11063333D01*
X1954819Y11063333D02*
X1907200Y10968095D01*
X1907200Y10968095D02*
X1859580Y10920476D01*
D11*
%TO.C,C1*%
X5840302Y61315000D02*
X6640302Y61315000D01*
X6240302Y61715000D02*
X6240302Y60915000D01*
X10250000Y63080000D02*
X10250000Y54920000D01*
X10290000Y63080000D02*
X10290000Y54920000D01*
X10330000Y63080000D02*
X10330000Y54920000D01*
X10370000Y63079000D02*
X10370000Y54921000D01*
X10410000Y63077000D02*
X10410000Y54923000D01*
X10450000Y63076000D02*
X10450000Y54924000D01*
X10490000Y63074000D02*
X10490000Y60040000D01*
X10490000Y57960000D02*
X10490000Y54926000D01*
X10530000Y63071000D02*
X10530000Y60040000D01*
X10530000Y57960000D02*
X10530000Y54929000D01*
X10570000Y63068000D02*
X10570000Y60040000D01*
X10570000Y57960000D02*
X10570000Y54932000D01*
X10610000Y63065000D02*
X10610000Y60040000D01*
X10610000Y57960000D02*
X10610000Y54935000D01*
X10650000Y63061000D02*
X10650000Y60040000D01*
X10650000Y57960000D02*
X10650000Y54939000D01*
X10690000Y63057000D02*
X10690000Y60040000D01*
X10690000Y57960000D02*
X10690000Y54943000D01*
X10730000Y63052000D02*
X10730000Y60040000D01*
X10730000Y57960000D02*
X10730000Y54948000D01*
X10770000Y63048000D02*
X10770000Y60040000D01*
X10770000Y57960000D02*
X10770000Y54952000D01*
X10810000Y63042000D02*
X10810000Y60040000D01*
X10810000Y57960000D02*
X10810000Y54958000D01*
X10850000Y63037000D02*
X10850000Y60040000D01*
X10850000Y57960000D02*
X10850000Y54963000D01*
X10890000Y63030000D02*
X10890000Y60040000D01*
X10890000Y57960000D02*
X10890000Y54970000D01*
X10930000Y63024000D02*
X10930000Y60040000D01*
X10930000Y57960000D02*
X10930000Y54976000D01*
X10971000Y63017000D02*
X10971000Y60040000D01*
X10971000Y57960000D02*
X10971000Y54983000D01*
X11011000Y63010000D02*
X11011000Y60040000D01*
X11011000Y57960000D02*
X11011000Y54990000D01*
X11051000Y63002000D02*
X11051000Y60040000D01*
X11051000Y57960000D02*
X11051000Y54998000D01*
X11091000Y62994000D02*
X11091000Y60040000D01*
X11091000Y57960000D02*
X11091000Y55006000D01*
X11131000Y62985000D02*
X11131000Y60040000D01*
X11131000Y57960000D02*
X11131000Y55015000D01*
X11171000Y62976000D02*
X11171000Y60040000D01*
X11171000Y57960000D02*
X11171000Y55024000D01*
X11211000Y62967000D02*
X11211000Y60040000D01*
X11211000Y57960000D02*
X11211000Y55033000D01*
X11251000Y62957000D02*
X11251000Y60040000D01*
X11251000Y57960000D02*
X11251000Y55043000D01*
X11291000Y62947000D02*
X11291000Y60040000D01*
X11291000Y57960000D02*
X11291000Y55053000D01*
X11331000Y62936000D02*
X11331000Y60040000D01*
X11331000Y57960000D02*
X11331000Y55064000D01*
X11371000Y62925000D02*
X11371000Y60040000D01*
X11371000Y57960000D02*
X11371000Y55075000D01*
X11411000Y62914000D02*
X11411000Y60040000D01*
X11411000Y57960000D02*
X11411000Y55086000D01*
X11451000Y62902000D02*
X11451000Y60040000D01*
X11451000Y57960000D02*
X11451000Y55098000D01*
X11491000Y62889000D02*
X11491000Y60040000D01*
X11491000Y57960000D02*
X11491000Y55111000D01*
X11531000Y62877000D02*
X11531000Y60040000D01*
X11531000Y57960000D02*
X11531000Y55123000D01*
X11571000Y62863000D02*
X11571000Y60040000D01*
X11571000Y57960000D02*
X11571000Y55137000D01*
X11611000Y62850000D02*
X11611000Y60040000D01*
X11611000Y57960000D02*
X11611000Y55150000D01*
X11651000Y62835000D02*
X11651000Y60040000D01*
X11651000Y57960000D02*
X11651000Y55165000D01*
X11691000Y62821000D02*
X11691000Y60040000D01*
X11691000Y57960000D02*
X11691000Y55179000D01*
X11731000Y62805000D02*
X11731000Y60040000D01*
X11731000Y57960000D02*
X11731000Y55195000D01*
X11771000Y62790000D02*
X11771000Y60040000D01*
X11771000Y57960000D02*
X11771000Y55210000D01*
X11811000Y62774000D02*
X11811000Y60040000D01*
X11811000Y57960000D02*
X11811000Y55226000D01*
X11851000Y62757000D02*
X11851000Y60040000D01*
X11851000Y57960000D02*
X11851000Y55243000D01*
X11891000Y62740000D02*
X11891000Y60040000D01*
X11891000Y57960000D02*
X11891000Y55260000D01*
X11931000Y62722000D02*
X11931000Y60040000D01*
X11931000Y57960000D02*
X11931000Y55278000D01*
X11971000Y62704000D02*
X11971000Y60040000D01*
X11971000Y57960000D02*
X11971000Y55296000D01*
X12011000Y62686000D02*
X12011000Y60040000D01*
X12011000Y57960000D02*
X12011000Y55314000D01*
X12051000Y62666000D02*
X12051000Y60040000D01*
X12051000Y57960000D02*
X12051000Y55334000D01*
X12091000Y62647000D02*
X12091000Y60040000D01*
X12091000Y57960000D02*
X12091000Y55353000D01*
X12131000Y62627000D02*
X12131000Y60040000D01*
X12131000Y57960000D02*
X12131000Y55373000D01*
X12171000Y62606000D02*
X12171000Y60040000D01*
X12171000Y57960000D02*
X12171000Y55394000D01*
X12211000Y62584000D02*
X12211000Y60040000D01*
X12211000Y57960000D02*
X12211000Y55416000D01*
X12251000Y62562000D02*
X12251000Y60040000D01*
X12251000Y57960000D02*
X12251000Y55438000D01*
X12291000Y62540000D02*
X12291000Y60040000D01*
X12291000Y57960000D02*
X12291000Y55460000D01*
X12331000Y62517000D02*
X12331000Y60040000D01*
X12331000Y57960000D02*
X12331000Y55483000D01*
X12371000Y62493000D02*
X12371000Y60040000D01*
X12371000Y57960000D02*
X12371000Y55507000D01*
X12411000Y62469000D02*
X12411000Y60040000D01*
X12411000Y57960000D02*
X12411000Y55531000D01*
X12451000Y62444000D02*
X12451000Y60040000D01*
X12451000Y57960000D02*
X12451000Y55556000D01*
X12491000Y62418000D02*
X12491000Y60040000D01*
X12491000Y57960000D02*
X12491000Y55582000D01*
X12531000Y62392000D02*
X12531000Y60040000D01*
X12531000Y57960000D02*
X12531000Y55608000D01*
X12571000Y62365000D02*
X12571000Y55635000D01*
X12611000Y62338000D02*
X12611000Y55662000D01*
X12651000Y62309000D02*
X12651000Y55691000D01*
X12691000Y62280000D02*
X12691000Y55720000D01*
X12731000Y62250000D02*
X12731000Y55750000D01*
X12771000Y62220000D02*
X12771000Y55780000D01*
X12811000Y62189000D02*
X12811000Y55811000D01*
X12851000Y62156000D02*
X12851000Y55844000D01*
X12891000Y62124000D02*
X12891000Y55876000D01*
X12931000Y62090000D02*
X12931000Y55910000D01*
X12971000Y62055000D02*
X12971000Y55945000D01*
X13011000Y62019000D02*
X13011000Y55981000D01*
X13051000Y61983000D02*
X13051000Y56017000D01*
X13091000Y61945000D02*
X13091000Y56055000D01*
X13131000Y61907000D02*
X13131000Y56093000D01*
X13171000Y61867000D02*
X13171000Y56133000D01*
X13211000Y61826000D02*
X13211000Y56174000D01*
X13251000Y61784000D02*
X13251000Y56216000D01*
X13291000Y61741000D02*
X13291000Y56259000D01*
X13331000Y61697000D02*
X13331000Y56303000D01*
X13371000Y61651000D02*
X13371000Y56349000D01*
X13411000Y61604000D02*
X13411000Y56396000D01*
X13451000Y61556000D02*
X13451000Y56444000D01*
X13491000Y61505000D02*
X13491000Y56495000D01*
X13531000Y61454000D02*
X13531000Y56546000D01*
X13571000Y61400000D02*
X13571000Y56600000D01*
X13611000Y61345000D02*
X13611000Y56655000D01*
X13651000Y61287000D02*
X13651000Y56713000D01*
X13691000Y61228000D02*
X13691000Y56772000D01*
X13731000Y61166000D02*
X13731000Y56834000D01*
X13771000Y61102000D02*
X13771000Y56898000D01*
X13811000Y61034000D02*
X13811000Y56966000D01*
X13851000Y60964000D02*
X13851000Y57036000D01*
X13891000Y60890000D02*
X13891000Y57110000D01*
X13931000Y60813000D02*
X13931000Y57187000D01*
X13971000Y60731000D02*
X13971000Y57269000D01*
X14011000Y60645000D02*
X14011000Y57355000D01*
X14051000Y60552000D02*
X14051000Y57448000D01*
X14091000Y60453000D02*
X14091000Y57547000D01*
X14131000Y60346000D02*
X14131000Y57654000D01*
X14171000Y60229000D02*
X14171000Y57771000D01*
X14211000Y60098000D02*
X14211000Y57902000D01*
X14251000Y59948000D02*
X14251000Y58052000D01*
X14291000Y59768000D02*
X14291000Y58232000D01*
X14331000Y59533000D02*
X14331000Y58467000D01*
X14370000Y59000000D02*
G75*
G03*
X14370000Y59000000I-4120000J0D01*
G01*
D10*
%TO.C,U1*%
X28000000Y13000000D02*
X58000000Y13000000D01*
X58000000Y13000000D02*
X58000000Y87000000D01*
X28000000Y87000000D02*
X28000000Y13000000D01*
X58000000Y87000000D02*
X28000000Y87000000D01*
D11*
%TO.C,J1*%
X19650000Y8250000D02*
X19650000Y7000000D01*
X19940000Y7960000D02*
X19940000Y1990000D01*
X19940000Y1990000D02*
X27560000Y1990000D01*
X19950000Y7950000D02*
X19950000Y7200000D01*
X19950000Y7200000D02*
X21750000Y7200000D01*
X19950000Y5700000D02*
X20700000Y5700000D01*
X20700000Y5700000D02*
X20700000Y2750000D01*
X20700000Y2750000D02*
X23750000Y2750000D01*
X20900000Y8250000D02*
X19650000Y8250000D01*
X21750000Y7950000D02*
X19950000Y7950000D01*
X21750000Y7200000D02*
X21750000Y7950000D01*
X23250000Y7950000D02*
X23250000Y7200000D01*
X23250000Y7200000D02*
X24250000Y7200000D01*
X24250000Y7950000D02*
X23250000Y7950000D01*
X24250000Y7200000D02*
X24250000Y7950000D01*
X25750000Y7950000D02*
X25750000Y7200000D01*
X25750000Y7200000D02*
X27550000Y7200000D01*
X26800000Y5700000D02*
X26800000Y2750000D01*
X26800000Y2750000D02*
X23750000Y2750000D01*
X27550000Y7950000D02*
X25750000Y7950000D01*
X27550000Y7200000D02*
X27550000Y7950000D01*
X27550000Y5700000D02*
X26800000Y5700000D01*
X27560000Y7960000D02*
X19940000Y7960000D01*
X27560000Y1990000D02*
X27560000Y7960000D01*
%TO.C,R2*%
X24000000Y89040000D02*
X24000000Y88270000D01*
X25370000Y88270000D02*
X22630000Y88270000D01*
X22630000Y88270000D02*
X22630000Y81730000D01*
X25370000Y81730000D02*
X25370000Y88270000D01*
X22630000Y81730000D02*
X25370000Y81730000D01*
X24000000Y80960000D02*
X24000000Y81730000D01*
%TO.C,R5*%
X36040000Y89000000D02*
X35270000Y89000000D01*
X35270000Y87630000D02*
X35270000Y90370000D01*
X35270000Y90370000D02*
X28730000Y90370000D01*
X28730000Y87630000D02*
X35270000Y87630000D01*
X28730000Y90370000D02*
X28730000Y87630000D01*
X27960000Y89000000D02*
X28730000Y89000000D01*
%TO.C,D2*%
X21830000Y89455000D02*
X21830000Y92545000D01*
X16280001Y91000462D02*
G75*
G03*
X21829999Y89455170I2989999J-462D01*
G01*
X21830000Y92544830D02*
G75*
G03*
X16280000Y90999538I-2560000J-1544830D01*
G01*
X21770000Y91000000D02*
G75*
G03*
X21770000Y91000000I-2500000J0D01*
G01*
%TO.C,C2*%
X15525000Y44599417D02*
X15525000Y45599417D01*
X15025000Y45099417D02*
X16025000Y45099417D01*
X13320000Y50079063D02*
X23480000Y50079063D01*
X13320000Y50119063D02*
X23480000Y50119063D01*
X13320000Y50159063D02*
X23480000Y50159063D01*
X13321000Y50199063D02*
X23479000Y50199063D01*
X13322000Y50239063D02*
X23478000Y50239063D01*
X13323000Y50279063D02*
X23477000Y50279063D01*
X13325000Y50319063D02*
X17360000Y50319063D01*
X19440000Y50319063D02*
X23475000Y50319063D01*
X13327000Y50359063D02*
X17360000Y50359063D01*
X19440000Y50359063D02*
X23473000Y50359063D01*
X13330000Y50399063D02*
X17360000Y50399063D01*
X19440000Y50399063D02*
X23470000Y50399063D01*
X13332000Y50439063D02*
X17360000Y50439063D01*
X19440000Y50439063D02*
X23468000Y50439063D01*
X13335000Y50479063D02*
X17360000Y50479063D01*
X19440000Y50479063D02*
X23465000Y50479063D01*
X13338000Y50519063D02*
X17360000Y50519063D01*
X19440000Y50519063D02*
X23462000Y50519063D01*
X13342000Y50559063D02*
X17360000Y50559063D01*
X19440000Y50559063D02*
X23458000Y50559063D01*
X13346000Y50599063D02*
X17360000Y50599063D01*
X19440000Y50599063D02*
X23454000Y50599063D01*
X13350000Y50639063D02*
X17360000Y50639063D01*
X19440000Y50639063D02*
X23450000Y50639063D01*
X13355000Y50679063D02*
X17360000Y50679063D01*
X19440000Y50679063D02*
X23445000Y50679063D01*
X13360000Y50719063D02*
X17360000Y50719063D01*
X19440000Y50719063D02*
X23440000Y50719063D01*
X13365000Y50759063D02*
X17360000Y50759063D01*
X19440000Y50759063D02*
X23435000Y50759063D01*
X13370000Y50800063D02*
X17360000Y50800063D01*
X19440000Y50800063D02*
X23430000Y50800063D01*
X13376000Y50840063D02*
X17360000Y50840063D01*
X19440000Y50840063D02*
X23424000Y50840063D01*
X13382000Y50880063D02*
X17360000Y50880063D01*
X19440000Y50880063D02*
X23418000Y50880063D01*
X13389000Y50920063D02*
X17360000Y50920063D01*
X19440000Y50920063D02*
X23411000Y50920063D01*
X13396000Y50960063D02*
X17360000Y50960063D01*
X19440000Y50960063D02*
X23404000Y50960063D01*
X13403000Y51000063D02*
X17360000Y51000063D01*
X21040000Y51000063D02*
X23397000Y51000063D01*
X13410000Y51040063D02*
X17360000Y51040063D01*
X21040000Y51040063D02*
X23390000Y51040063D01*
X13418000Y51080063D02*
X17360000Y51080063D01*
X21040000Y51080063D02*
X23382000Y51080063D01*
X13426000Y51120063D02*
X17360000Y51120063D01*
X21040000Y51120063D02*
X23374000Y51120063D01*
X13435000Y51160063D02*
X17360000Y51160063D01*
X21040000Y51160063D02*
X23365000Y51160063D01*
X13444000Y51200063D02*
X17360000Y51200063D01*
X21040000Y51200063D02*
X23356000Y51200063D01*
X13453000Y51240063D02*
X17360000Y51240063D01*
X21040000Y51240063D02*
X23347000Y51240063D01*
X13462000Y51280063D02*
X17360000Y51280063D01*
X21040000Y51280063D02*
X23338000Y51280063D01*
X13472000Y51320063D02*
X17360000Y51320063D01*
X21040000Y51320063D02*
X23328000Y51320063D01*
X13482000Y51360063D02*
X17360000Y51360063D01*
X21040000Y51360063D02*
X23318000Y51360063D01*
X13493000Y51400063D02*
X17360000Y51400063D01*
X21040000Y51400063D02*
X23307000Y51400063D01*
X13503000Y51440063D02*
X17360000Y51440063D01*
X21040000Y51440063D02*
X23297000Y51440063D01*
X13515000Y51480063D02*
X17360000Y51480063D01*
X21040000Y51480063D02*
X23285000Y51480063D01*
X13526000Y51520063D02*
X17360000Y51520063D01*
X21040000Y51520063D02*
X23274000Y51520063D01*
X13538000Y51560063D02*
X17360000Y51560063D01*
X21040000Y51560063D02*
X23262000Y51560063D01*
X13550000Y51600063D02*
X17360000Y51600063D01*
X21040000Y51600063D02*
X23250000Y51600063D01*
X13563000Y51640063D02*
X17360000Y51640063D01*
X21040000Y51640063D02*
X23237000Y51640063D01*
X13576000Y51680063D02*
X17360000Y51680063D01*
X21040000Y51680063D02*
X23224000Y51680063D01*
X13589000Y51720063D02*
X17360000Y51720063D01*
X21040000Y51720063D02*
X23211000Y51720063D01*
X13603000Y51760063D02*
X17360000Y51760063D01*
X21040000Y51760063D02*
X23197000Y51760063D01*
X13617000Y51800063D02*
X17360000Y51800063D01*
X21040000Y51800063D02*
X23183000Y51800063D01*
X13632000Y51840063D02*
X17360000Y51840063D01*
X21040000Y51840063D02*
X23168000Y51840063D01*
X13646000Y51880063D02*
X17360000Y51880063D01*
X21040000Y51880063D02*
X23154000Y51880063D01*
X13662000Y51920063D02*
X17360000Y51920063D01*
X21040000Y51920063D02*
X23138000Y51920063D01*
X13677000Y51960063D02*
X17360000Y51960063D01*
X21040000Y51960063D02*
X23123000Y51960063D01*
X13693000Y52000063D02*
X17360000Y52000063D01*
X21040000Y52000063D02*
X23107000Y52000063D01*
X13710000Y52040063D02*
X17360000Y52040063D01*
X21040000Y52040063D02*
X23090000Y52040063D01*
X13726000Y52080063D02*
X17360000Y52080063D01*
X21040000Y52080063D02*
X23074000Y52080063D01*
X13743000Y52120063D02*
X17360000Y52120063D01*
X21040000Y52120063D02*
X23057000Y52120063D01*
X13761000Y52160063D02*
X17360000Y52160063D01*
X21040000Y52160063D02*
X23039000Y52160063D01*
X13779000Y52200063D02*
X17360000Y52200063D01*
X21040000Y52200063D02*
X23021000Y52200063D01*
X13797000Y52240063D02*
X17360000Y52240063D01*
X21040000Y52240063D02*
X23003000Y52240063D01*
X13816000Y52280063D02*
X17360000Y52280063D01*
X21040000Y52280063D02*
X22984000Y52280063D01*
X13836000Y52320063D02*
X17360000Y52320063D01*
X21040000Y52320063D02*
X22964000Y52320063D01*
X13855000Y52360063D02*
X17360000Y52360063D01*
X21040000Y52360063D02*
X22945000Y52360063D01*
X13875000Y52400063D02*
X18960000Y52400063D01*
X21040000Y52400063D02*
X22925000Y52400063D01*
X13896000Y52440063D02*
X18960000Y52440063D01*
X21040000Y52440063D02*
X22904000Y52440063D01*
X13917000Y52480063D02*
X18960000Y52480063D01*
X21040000Y52480063D02*
X22883000Y52480063D01*
X13938000Y52520063D02*
X18960000Y52520063D01*
X21040000Y52520063D02*
X22862000Y52520063D01*
X13960000Y52560063D02*
X18960000Y52560063D01*
X21040000Y52560063D02*
X22840000Y52560063D01*
X13983000Y52600063D02*
X18960000Y52600063D01*
X21040000Y52600063D02*
X22817000Y52600063D01*
X14005000Y52640063D02*
X18960000Y52640063D01*
X21040000Y52640063D02*
X22795000Y52640063D01*
X14029000Y52680063D02*
X18960000Y52680063D01*
X21040000Y52680063D02*
X22771000Y52680063D01*
X14053000Y52720063D02*
X18960000Y52720063D01*
X21040000Y52720063D02*
X22747000Y52720063D01*
X14077000Y52760063D02*
X18960000Y52760063D01*
X21040000Y52760063D02*
X22723000Y52760063D01*
X14102000Y52800063D02*
X18960000Y52800063D01*
X21040000Y52800063D02*
X22698000Y52800063D01*
X14127000Y52840063D02*
X18960000Y52840063D01*
X21040000Y52840063D02*
X22673000Y52840063D01*
X14153000Y52880063D02*
X18960000Y52880063D01*
X21040000Y52880063D02*
X22647000Y52880063D01*
X14179000Y52920063D02*
X18960000Y52920063D01*
X21040000Y52920063D02*
X22621000Y52920063D01*
X14206000Y52960063D02*
X18960000Y52960063D01*
X21040000Y52960063D02*
X22594000Y52960063D01*
X14234000Y53000063D02*
X18960000Y53000063D01*
X21040000Y53000063D02*
X22566000Y53000063D01*
X14262000Y53040063D02*
X18960000Y53040063D01*
X21040000Y53040063D02*
X22538000Y53040063D01*
X14290000Y53080063D02*
X22510000Y53080063D01*
X14320000Y53120063D02*
X22480000Y53120063D01*
X14350000Y53160063D02*
X22450000Y53160063D01*
X14380000Y53200063D02*
X22420000Y53200063D01*
X14411000Y53240063D02*
X22389000Y53240063D01*
X14443000Y53280063D02*
X22357000Y53280063D01*
X14475000Y53320063D02*
X22325000Y53320063D01*
X14508000Y53360063D02*
X22292000Y53360063D01*
X14542000Y53400063D02*
X22258000Y53400063D01*
X14576000Y53440063D02*
X22224000Y53440063D01*
X14611000Y53480063D02*
X22189000Y53480063D01*
X14647000Y53520063D02*
X22153000Y53520063D01*
X14684000Y53560063D02*
X22116000Y53560063D01*
X14721000Y53600063D02*
X22079000Y53600063D01*
X14760000Y53640063D02*
X22040000Y53640063D01*
X14799000Y53680063D02*
X22001000Y53680063D01*
X14839000Y53720063D02*
X21961000Y53720063D01*
X14880000Y53760063D02*
X21920000Y53760063D01*
X14922000Y53800063D02*
X21878000Y53800063D01*
X14964000Y53840063D02*
X21836000Y53840063D01*
X15008000Y53880063D02*
X21792000Y53880063D01*
X15053000Y53920063D02*
X21747000Y53920063D01*
X15099000Y53960063D02*
X21701000Y53960063D01*
X15146000Y54000063D02*
X21654000Y54000063D01*
X15194000Y54040063D02*
X21606000Y54040063D01*
X15244000Y54080063D02*
X21556000Y54080063D01*
X15294000Y54120063D02*
X21506000Y54120063D01*
X15346000Y54160063D02*
X21454000Y54160063D01*
X15400000Y54200063D02*
X21400000Y54200063D01*
X15455000Y54240063D02*
X21345000Y54240063D01*
X15511000Y54280063D02*
X21289000Y54280063D01*
X15570000Y54320063D02*
X21230000Y54320063D01*
X15630000Y54360063D02*
X21170000Y54360063D01*
X15691000Y54400063D02*
X21109000Y54400063D01*
X15755000Y54440063D02*
X21045000Y54440063D01*
X15821000Y54480063D02*
X20979000Y54480063D01*
X15890000Y54520063D02*
X20910000Y54520063D01*
X15961000Y54560063D02*
X20839000Y54560063D01*
X16035000Y54600063D02*
X20765000Y54600063D01*
X16111000Y54640063D02*
X20689000Y54640063D01*
X16191000Y54680063D02*
X20609000Y54680063D01*
X16275000Y54720063D02*
X20525000Y54720063D01*
X16363000Y54760063D02*
X20437000Y54760063D01*
X16456000Y54800063D02*
X20344000Y54800063D01*
X16554000Y54840063D02*
X20246000Y54840063D01*
X16658000Y54880063D02*
X20142000Y54880063D01*
X16770000Y54920063D02*
X20030000Y54920063D01*
X16890000Y54960063D02*
X19910000Y54960063D01*
X17022000Y55000063D02*
X19778000Y55000063D01*
X17170000Y55040063D02*
X19630000Y55040063D01*
X17338000Y55080063D02*
X19462000Y55080063D01*
X17538000Y55120063D02*
X19262000Y55120063D01*
X17801000Y55160063D02*
X18999000Y55160063D01*
X23520000Y50079063D02*
G75*
G03*
X23520000Y50079063I-5120000J0D01*
G01*
%TO.C,D1*%
X14830000Y89455000D02*
X14830000Y92545000D01*
X9280001Y91000462D02*
G75*
G03*
X14829999Y89455170I2989999J-462D01*
G01*
X14830000Y92544830D02*
G75*
G03*
X9280000Y90999538I-2560000J-1544830D01*
G01*
X14770000Y91000000D02*
G75*
G03*
X14770000Y91000000I-2500000J0D01*
G01*
%TO.C,J4*%
X39150000Y94750000D02*
X39150000Y93500000D01*
X39440000Y94460000D02*
X39440000Y88490000D01*
X39440000Y88490000D02*
X49560000Y88490000D01*
X39450000Y94450000D02*
X39450000Y93700000D01*
X39450000Y93700000D02*
X41250000Y93700000D01*
X39450000Y92200000D02*
X40200000Y92200000D01*
X40200000Y92200000D02*
X40200000Y89250000D01*
X40200000Y89250000D02*
X44500000Y89250000D01*
X40400000Y94750000D02*
X39150000Y94750000D01*
X41250000Y94450000D02*
X39450000Y94450000D01*
X41250000Y93700000D02*
X41250000Y94450000D01*
X42750000Y94450000D02*
X42750000Y93700000D01*
X42750000Y93700000D02*
X46250000Y93700000D01*
X46250000Y94450000D02*
X42750000Y94450000D01*
X46250000Y93700000D02*
X46250000Y94450000D01*
X47750000Y94450000D02*
X47750000Y93700000D01*
X47750000Y93700000D02*
X49550000Y93700000D01*
X48800000Y92200000D02*
X48800000Y89250000D01*
X48800000Y89250000D02*
X44500000Y89250000D01*
X49550000Y94450000D02*
X47750000Y94450000D01*
X49550000Y93700000D02*
X49550000Y94450000D01*
X49550000Y92200000D02*
X48800000Y92200000D01*
X49560000Y94460000D02*
X39440000Y94460000D01*
X49560000Y88490000D02*
X49560000Y94460000D01*
%TO.C,R1*%
X25960000Y93000000D02*
X26730000Y93000000D01*
X26730000Y94370000D02*
X26730000Y91630000D01*
X26730000Y91630000D02*
X33270000Y91630000D01*
X33270000Y94370000D02*
X26730000Y94370000D01*
X33270000Y91630000D02*
X33270000Y94370000D01*
X34040000Y93000000D02*
X33270000Y93000000D01*
D10*
%TO.C,J3*%
X50500000Y12000000D02*
X36500000Y12000000D01*
X36500000Y12000000D02*
X36500000Y0D01*
X50500000Y0D02*
X50500000Y12000000D01*
X36500000Y0D02*
X50500000Y0D01*
%TO.C,U3*%
X2500000Y9700000D02*
X22500000Y9700000D01*
X22500000Y9700000D02*
X22500000Y43700000D01*
X2500000Y43700000D02*
X2500000Y9700000D01*
X22500000Y43700000D02*
X2500000Y43700000D01*
%TD*%
M02*
