%TF.GenerationSoftware,KiCad,Pcbnew,(6.0.1)*%
%TF.CreationDate,2023-02-05T15:58:29-08:00*%
%TF.ProjectId,Interface Board,496e7465-7266-4616-9365-20426f617264,rev?*%
%TF.SameCoordinates,Original*%
%TF.FileFunction,Copper,L4,Bot*%
%TF.FilePolarity,Positive*%
%FSLAX46Y46*%
G04 Gerber Fmt 4.6, Leading zero omitted, Abs format (unit mm)*
G04 Created by KiCad (PCBNEW (6.0.1)) date 2023-02-05 15:58:29*
%MOMM*%
%LPD*%
G01*
G04 APERTURE LIST*
G04 Aperture macros list*
%AMRoundRect*
0 Rectangle with rounded corners*
0 $1 Rounding radius*
0 $2 $3 $4 $5 $6 $7 $8 $9 X,Y pos of 4 corners*
0 Add a 4 corners polygon primitive as box body*
4,1,4,$2,$3,$4,$5,$6,$7,$8,$9,$2,$3,0*
0 Add four circle primitives for the rounded corners*
1,1,$1+$1,$2,$3*
1,1,$1+$1,$4,$5*
1,1,$1+$1,$6,$7*
1,1,$1+$1,$8,$9*
0 Add four rect primitives between the rounded corners*
20,1,$1+$1,$2,$3,$4,$5,0*
20,1,$1+$1,$4,$5,$6,$7,0*
20,1,$1+$1,$6,$7,$8,$9,0*
20,1,$1+$1,$8,$9,$2,$3,0*%
G04 Aperture macros list end*
%TA.AperFunction,ComponentPad*%
%ADD10C,1.440000*%
%TD*%
%TA.AperFunction,ComponentPad*%
%ADD11C,1.400000*%
%TD*%
%TA.AperFunction,ComponentPad*%
%ADD12O,1.400000X1.400000*%
%TD*%
%TA.AperFunction,ComponentPad*%
%ADD13R,1.800000X1.800000*%
%TD*%
%TA.AperFunction,ComponentPad*%
%ADD14C,1.800000*%
%TD*%
%TA.AperFunction,ComponentPad*%
%ADD15RoundRect,0.250000X-0.725000X0.600000X-0.725000X-0.600000X0.725000X-0.600000X0.725000X0.600000X0*%
%TD*%
%TA.AperFunction,ComponentPad*%
%ADD16O,1.950000X1.700000*%
%TD*%
%TA.AperFunction,ComponentPad*%
%ADD17R,1.600000X1.600000*%
%TD*%
%TA.AperFunction,ComponentPad*%
%ADD18C,1.600000*%
%TD*%
%TA.AperFunction,ComponentPad*%
%ADD19R,3.000000X3.000000*%
%TD*%
%TA.AperFunction,ComponentPad*%
%ADD20C,3.000000*%
%TD*%
%TA.AperFunction,ComponentPad*%
%ADD21R,2.400000X2.400000*%
%TD*%
%TA.AperFunction,ComponentPad*%
%ADD22O,2.400000X2.400000*%
%TD*%
%TA.AperFunction,ComponentPad*%
%ADD23C,2.000000*%
%TD*%
%TA.AperFunction,ComponentPad*%
%ADD24R,4.000000X3.000000*%
%TD*%
%TA.AperFunction,ComponentPad*%
%ADD25O,4.000000X3.000000*%
%TD*%
%TA.AperFunction,ComponentPad*%
%ADD26R,1.905000X2.000000*%
%TD*%
%TA.AperFunction,ComponentPad*%
%ADD27O,1.905000X2.000000*%
%TD*%
%TA.AperFunction,ComponentPad*%
%ADD28C,2.500000*%
%TD*%
%TA.AperFunction,ComponentPad*%
%ADD29R,2.400000X1.600000*%
%TD*%
%TA.AperFunction,ComponentPad*%
%ADD30O,2.400000X1.600000*%
%TD*%
%TA.AperFunction,ComponentPad*%
%ADD31C,0.800000*%
%TD*%
%TA.AperFunction,ComponentPad*%
%ADD32C,6.400000*%
%TD*%
%TA.AperFunction,ComponentPad*%
%ADD33R,1.600000X2.400000*%
%TD*%
%TA.AperFunction,ComponentPad*%
%ADD34O,1.600000X2.400000*%
%TD*%
%TA.AperFunction,ComponentPad*%
%ADD35RoundRect,0.250000X-0.750000X0.600000X-0.750000X-0.600000X0.750000X-0.600000X0.750000X0.600000X0*%
%TD*%
%TA.AperFunction,ComponentPad*%
%ADD36O,2.000000X1.700000*%
%TD*%
%TA.AperFunction,SMDPad,CuDef*%
%ADD37R,1.000000X1.500000*%
%TD*%
%TA.AperFunction,SMDPad,CuDef*%
%ADD38R,1.500000X1.000000*%
%TD*%
%TA.AperFunction,ViaPad*%
%ADD39C,2.500000*%
%TD*%
%TA.AperFunction,ViaPad*%
%ADD40C,0.800000*%
%TD*%
%TA.AperFunction,Conductor*%
%ADD41C,0.250000*%
%TD*%
%TA.AperFunction,Conductor*%
%ADD42C,1.500000*%
%TD*%
%TA.AperFunction,Conductor*%
%ADD43C,1.000000*%
%TD*%
%TA.AperFunction,Conductor*%
%ADD44C,0.500000*%
%TD*%
%TA.AperFunction,Conductor*%
%ADD45C,3.000000*%
%TD*%
G04 APERTURE END LIST*
%TO.C,JP3*%
G36*
X67100000Y52700000D02*
G01*
X66600000Y52700000D01*
X66600000Y53300000D01*
X67100000Y53300000D01*
X67100000Y52700000D01*
G37*
%TO.C,JP1*%
G36*
X121300000Y72400000D02*
G01*
X120700000Y72400000D01*
X120700000Y72900000D01*
X121300000Y72900000D01*
X121300000Y72400000D01*
G37*
%TO.C,JP2*%
G36*
X121300000Y90400000D02*
G01*
X120700000Y90400000D01*
X120700000Y90900000D01*
X121300000Y90900000D01*
X121300000Y90400000D01*
G37*
%TO.C,JP7*%
G36*
X93300000Y24400000D02*
G01*
X92700000Y24400000D01*
X92700000Y24900000D01*
X93300000Y24900000D01*
X93300000Y24400000D01*
G37*
%TO.C,JP5*%
G36*
X128600000Y44200000D02*
G01*
X128100000Y44200000D01*
X128100000Y44800000D01*
X128600000Y44800000D01*
X128600000Y44200000D01*
G37*
%TO.C,JP4*%
G36*
X64600000Y36700000D02*
G01*
X64100000Y36700000D01*
X64100000Y37300000D01*
X64600000Y37300000D01*
X64600000Y36700000D01*
G37*
%TO.C,JP9*%
G36*
X43800000Y6100000D02*
G01*
X43200000Y6100000D01*
X43200000Y6600000D01*
X43800000Y6600000D01*
X43800000Y6100000D01*
G37*
%TO.C,JP6*%
G36*
X108300000Y20400000D02*
G01*
X107700000Y20400000D01*
X107700000Y20900000D01*
X108300000Y20900000D01*
X108300000Y20400000D01*
G37*
%TO.C,JP8*%
G36*
X137400000Y44200000D02*
G01*
X136900000Y44200000D01*
X136900000Y44800000D01*
X137400000Y44800000D01*
X137400000Y44200000D01*
G37*
%TD*%
D10*
%TO.P,RV1,1,1*%
%TO.N,+5V*%
X114550000Y15125000D03*
%TO.P,RV1,2,2*%
X112010000Y15125000D03*
X112010000Y12585000D03*
%TO.P,RV1,3,3*%
%TO.N,Net-(C11-Pad1)*%
X109470000Y15125000D03*
%TD*%
%TO.P,RV2,1,1*%
%TO.N,Net-(C10-Pad2)*%
X83500000Y8500000D03*
%TO.P,RV2,2,2*%
%TO.N,GND*%
X83500000Y5960000D03*
X86040000Y5960000D03*
%TO.P,RV2,3,3*%
X83500000Y3420000D03*
%TD*%
D11*
%TO.P,R1,1*%
%TO.N,Net-(D1-Pad1)*%
X107000000Y72620000D03*
D12*
%TO.P,R1,2*%
%TO.N,Net-(D2-Pad2)*%
X107000000Y65000000D03*
%TD*%
D11*
%TO.P,R26,1*%
%TO.N,Net-(J11-Pad1)*%
X139000000Y41000000D03*
D12*
%TO.P,R26,2*%
%TO.N,Net-(J11-Pad2)*%
X139000000Y28300000D03*
%TD*%
D13*
%TO.P,D3,1,K*%
%TO.N,Net-(D3-Pad1)*%
X105000000Y94000000D03*
D14*
%TO.P,D3,2,A*%
%TO.N,+12V*%
X105000000Y96540000D03*
%TD*%
D15*
%TO.P,J12,1,Pin_1*%
%TO.N,Net-(J12-Pad1)*%
X145000000Y43500000D03*
D16*
%TO.P,J12,2,Pin_2*%
%TO.N,Net-(J12-Pad2)*%
X145000000Y41000000D03*
%TO.P,J12,3,Pin_3*%
%TO.N,Net-(J12-Pad3)*%
X145000000Y38500000D03*
%TO.P,J12,4,Pin_4*%
%TO.N,Net-(J12-Pad4)*%
X145000000Y36000000D03*
%TO.P,J12,5,Pin_5*%
%TO.N,GND*%
X145000000Y33500000D03*
%TD*%
D11*
%TO.P,R9,1*%
%TO.N,Net-(C3-Pad1)*%
X36310000Y24000000D03*
D12*
%TO.P,R9,2*%
%TO.N,+5V*%
X28690000Y24000000D03*
%TD*%
D17*
%TO.P,C11,1*%
%TO.N,Net-(C11-Pad1)*%
X114347349Y6000000D03*
D18*
%TO.P,C11,2*%
%TO.N,GND*%
X117847349Y6000000D03*
%TD*%
%TO.P,C2,1*%
%TO.N,+5V*%
X102000000Y32000000D03*
%TO.P,C2,2*%
%TO.N,GND*%
X99500000Y32000000D03*
%TD*%
D19*
%TO.P,J4,1,Pin_1*%
%TO.N,Net-(J4-Pad1)*%
X145000000Y88040000D03*
D20*
%TO.P,J4,2,Pin_2*%
%TO.N,GND*%
X145000000Y82960000D03*
%TD*%
D21*
%TO.P,D9,1,K*%
%TO.N,Net-(D9-Pad1)*%
X95650000Y3000000D03*
D22*
%TO.P,D9,2,A*%
%TO.N,Net-(C11-Pad1)*%
X108350000Y3000000D03*
%TD*%
D11*
%TO.P,R10,1*%
%TO.N,Net-(J8-Pad2)*%
X28690000Y26500000D03*
D12*
%TO.P,R10,2*%
%TO.N,Net-(C3-Pad1)*%
X36310000Y26500000D03*
%TD*%
D11*
%TO.P,R5,1*%
%TO.N,Net-(J6-Pad1)*%
X114000000Y47190000D03*
D12*
%TO.P,R5,2*%
%TO.N,Net-(D5-Pad2)*%
X114000000Y54810000D03*
%TD*%
D17*
%TO.P,C8,1*%
%TO.N,+24V*%
X18000000Y89347349D03*
D18*
%TO.P,C8,2*%
%TO.N,GND*%
X18000000Y92847349D03*
%TD*%
D23*
%TO.P,TP5,1,1*%
%TO.N,GND*%
X75000000Y21000000D03*
%TD*%
D11*
%TO.P,R16,1*%
%TO.N,Net-(J12-Pad1)*%
X129000000Y41000000D03*
D12*
%TO.P,R16,2*%
%TO.N,Net-(J12-Pad4)*%
X129000000Y33380000D03*
%TD*%
D24*
%TO.P,PS1,1,+Vin*%
%TO.N,+24V*%
X28767500Y93632500D03*
D25*
%TO.P,PS1,2,-Vin*%
%TO.N,GND*%
X28767500Y71132500D03*
%TO.P,PS1,3,-Vout*%
X76267500Y71132500D03*
%TO.P,PS1,4,+Vout*%
%TO.N,+12V*%
X76267500Y93632500D03*
%TD*%
D11*
%TO.P,R19,1*%
%TO.N,Net-(JP7-Pad2)*%
X85500000Y26310000D03*
D12*
%TO.P,R19,2*%
%TO.N,Net-(C10-Pad1)*%
X85500000Y18690000D03*
%TD*%
D11*
%TO.P,R20,1*%
%TO.N,Net-(R20-Pad1)*%
X95190000Y7500000D03*
D12*
%TO.P,R20,2*%
%TO.N,Net-(D9-Pad1)*%
X102810000Y7500000D03*
%TD*%
D11*
%TO.P,R8,1*%
%TO.N,Net-(J6-Pad2)*%
X123000000Y47190000D03*
D12*
%TO.P,R8,2*%
%TO.N,Net-(D6-Pad2)*%
X123000000Y54810000D03*
%TD*%
D13*
%TO.P,D7,1,K*%
%TO.N,Net-(D7-Pad1)*%
X138000000Y12725000D03*
D14*
%TO.P,D7,2,A*%
%TO.N,Net-(D7-Pad2)*%
X138000000Y15265000D03*
%TD*%
D11*
%TO.P,R11,1*%
%TO.N,Net-(D7-Pad1)*%
X138000000Y9810000D03*
D12*
%TO.P,R11,2*%
%TO.N,GND*%
X138000000Y2190000D03*
%TD*%
D11*
%TO.P,R15,1*%
%TO.N,Net-(D8-Pad1)*%
X131500000Y9810000D03*
D12*
%TO.P,R15,2*%
%TO.N,GND*%
X131500000Y2190000D03*
%TD*%
D11*
%TO.P,R25,1*%
%TO.N,Net-(J11-Pad1)*%
X136500000Y41000000D03*
D12*
%TO.P,R25,2*%
%TO.N,Net-(J11-Pad3)*%
X136500000Y28300000D03*
%TD*%
D23*
%TO.P,TP4,1,1*%
%TO.N,Net-(C11-Pad1)*%
X109500000Y8500000D03*
%TD*%
D26*
%TO.P,U3,1,IN*%
%TO.N,+12V*%
X57460000Y9270000D03*
D27*
%TO.P,U3,2,GND*%
%TO.N,GND*%
X60000000Y9270000D03*
%TO.P,U3,3,OUT*%
%TO.N,+5V*%
X62540000Y9270000D03*
%TD*%
D20*
%TO.P,K2,1*%
%TO.N,Net-(JP2-Pad2)*%
X116500000Y90000000D03*
D28*
%TO.P,K2,2*%
%TO.N,Net-(D4-Pad2)*%
X118450000Y83950000D03*
D20*
%TO.P,K2,3*%
%TO.N,Net-(J4-Pad1)*%
X130650000Y83950000D03*
%TO.P,K2,4*%
%TO.N,unconnected-(K2-Pad4)*%
X130700000Y96000000D03*
D28*
%TO.P,K2,5*%
%TO.N,+12V*%
X118450000Y95950000D03*
%TD*%
D11*
%TO.P,R13,1*%
%TO.N,Net-(J9-Pad2)*%
X28690000Y17000000D03*
D12*
%TO.P,R13,2*%
%TO.N,Net-(R12-Pad1)*%
X36310000Y17000000D03*
%TD*%
D29*
%TO.P,U1,1,I1*%
%TO.N,Net-(R27-Pad2)*%
X90700000Y80900000D03*
D30*
%TO.P,U1,2,I2*%
%TO.N,Net-(R28-Pad2)*%
X90700000Y78360000D03*
%TO.P,U1,3,I3*%
%TO.N,Net-(J6-Pad1)*%
X90700000Y75820000D03*
%TO.P,U1,4,I4*%
%TO.N,Net-(J6-Pad2)*%
X90700000Y73280000D03*
%TO.P,U1,5,I5*%
%TO.N,Net-(D7-Pad2)*%
X90700000Y70740000D03*
%TO.P,U1,6,I6*%
%TO.N,Net-(D8-Pad2)*%
X90700000Y68200000D03*
%TO.P,U1,7,I7*%
%TO.N,Net-(D10-Pad2)*%
X90700000Y65660000D03*
%TO.P,U1,8,GND*%
%TO.N,GND*%
X90700000Y63120000D03*
%TO.P,U1,9,COM*%
%TO.N,+12V*%
X98320000Y63120000D03*
%TO.P,U1,10,O7*%
%TO.N,Net-(J12-Pad4)*%
X98320000Y65660000D03*
%TO.P,U1,11,O6*%
%TO.N,Net-(J12-Pad3)*%
X98320000Y68200000D03*
%TO.P,U1,12,O5*%
%TO.N,Net-(J12-Pad2)*%
X98320000Y70740000D03*
%TO.P,U1,13,O4*%
%TO.N,Net-(J11-Pad3)*%
X98320000Y73280000D03*
%TO.P,U1,14,O3*%
%TO.N,Net-(J11-Pad2)*%
X98320000Y75820000D03*
%TO.P,U1,15,O2*%
%TO.N,Net-(D2-Pad2)*%
X98320000Y78360000D03*
%TO.P,U1,16,O1*%
%TO.N,Net-(D4-Pad2)*%
X98320000Y80900000D03*
%TD*%
D21*
%TO.P,D4,1,K*%
%TO.N,+12V*%
X111000000Y95700000D03*
D22*
%TO.P,D4,2,A*%
%TO.N,Net-(D4-Pad2)*%
X111000000Y83000000D03*
%TD*%
D11*
%TO.P,R12,1*%
%TO.N,Net-(R12-Pad1)*%
X36310000Y19500000D03*
D12*
%TO.P,R12,2*%
%TO.N,+5V*%
X28690000Y19500000D03*
%TD*%
D21*
%TO.P,D11,1,K*%
%TO.N,Net-(C10-Pad2)*%
X91000000Y18350000D03*
D22*
%TO.P,D11,2,A*%
%TO.N,GND*%
X91000000Y5650000D03*
%TD*%
D15*
%TO.P,J3,1,Pin_1*%
%TO.N,/RELAY_IN_1*%
X5000000Y67500000D03*
D16*
%TO.P,J3,2,Pin_2*%
%TO.N,/RELAY_IN_2*%
X5000000Y65000000D03*
%TO.P,J3,3,Pin_3*%
%TO.N,GND*%
X5000000Y62500000D03*
%TD*%
D18*
%TO.P,C3,1*%
%TO.N,Net-(C3-Pad1)*%
X33750000Y29500000D03*
%TO.P,C3,2*%
%TO.N,GND*%
X31250000Y29500000D03*
%TD*%
D17*
%TO.P,C6,1*%
%TO.N,+5V*%
X69500000Y8152651D03*
D18*
%TO.P,C6,2*%
%TO.N,GND*%
X69500000Y4652651D03*
%TD*%
D11*
%TO.P,R23,1*%
%TO.N,Net-(D8-Pad2)*%
X131190000Y22000000D03*
D12*
%TO.P,R23,2*%
%TO.N,Net-(J11-Pad5)*%
X138810000Y22000000D03*
%TD*%
D13*
%TO.P,D5,1,K*%
%TO.N,GND*%
X114000000Y61000000D03*
D14*
%TO.P,D5,2,A*%
%TO.N,Net-(D5-Pad2)*%
X114000000Y58460000D03*
%TD*%
D23*
%TO.P,TP3,1,1*%
%TO.N,Net-(C10-Pad2)*%
X80000000Y13500000D03*
%TD*%
D11*
%TO.P,R29,1*%
%TO.N,/RELAY_IN_1*%
X28690000Y58500000D03*
D12*
%TO.P,R29,2*%
%TO.N,GND*%
X36310000Y58500000D03*
%TD*%
D20*
%TO.P,K1,1*%
%TO.N,Net-(JP1-Pad2)*%
X116500000Y72000000D03*
D28*
%TO.P,K1,2*%
%TO.N,Net-(D2-Pad2)*%
X118450000Y65950000D03*
D20*
%TO.P,K1,3*%
%TO.N,Net-(J2-Pad1)*%
X130650000Y65950000D03*
%TO.P,K1,4*%
%TO.N,unconnected-(K1-Pad4)*%
X130700000Y78000000D03*
D28*
%TO.P,K1,5*%
%TO.N,+12V*%
X118450000Y77950000D03*
%TD*%
D19*
%TO.P,J2,1,Pin_1*%
%TO.N,Net-(J2-Pad1)*%
X145000000Y77000000D03*
D20*
%TO.P,J2,2,Pin_2*%
%TO.N,GND*%
X145000000Y71920000D03*
%TD*%
D31*
%TO.P,H5,1*%
%TO.N,N/C*%
X6697056Y93302944D03*
X6697056Y96697056D03*
X7400000Y95000000D03*
D32*
X5000000Y95000000D03*
D31*
X5000000Y97400000D03*
X2600000Y95000000D03*
X3302944Y96697056D03*
X5000000Y92600000D03*
X3302944Y93302944D03*
%TD*%
D15*
%TO.P,J7,1,Pin_1*%
%TO.N,/LSW_Y*%
X5000000Y56000000D03*
D16*
%TO.P,J7,2,Pin_2*%
%TO.N,GND*%
X5000000Y53500000D03*
%TO.P,J7,3,Pin_3*%
%TO.N,Net-(J7-Pad3)*%
X5000000Y51000000D03*
%TO.P,J7,4,Pin_4*%
%TO.N,GND*%
X5000000Y48500000D03*
%TD*%
D13*
%TO.P,D6,1,K*%
%TO.N,GND*%
X123000000Y61000000D03*
D14*
%TO.P,D6,2,A*%
%TO.N,Net-(D6-Pad2)*%
X123000000Y58460000D03*
%TD*%
D11*
%TO.P,R28,1*%
%TO.N,/RELAY_IN_2*%
X28690000Y53500000D03*
D12*
%TO.P,R28,2*%
%TO.N,Net-(R28-Pad2)*%
X36310000Y53500000D03*
%TD*%
D11*
%TO.P,R14,1*%
%TO.N,GND*%
X28690000Y14500000D03*
D12*
%TO.P,R14,2*%
%TO.N,Net-(R12-Pad1)*%
X36310000Y14500000D03*
%TD*%
D31*
%TO.P,H2,1*%
%TO.N,N/C*%
X143302944Y96697056D03*
X145000000Y92600000D03*
X143302944Y93302944D03*
X147400000Y95000000D03*
X146697056Y93302944D03*
X145000000Y97400000D03*
D32*
X145000000Y95000000D03*
D31*
X146697056Y96697056D03*
X142600000Y95000000D03*
%TD*%
D33*
%TO.P,U2,1*%
%TO.N,Net-(C3-Pad1)*%
X53375000Y41200000D03*
D34*
%TO.P,U2,2*%
%TO.N,Net-(JP3-Pad1)*%
X55915000Y41200000D03*
%TO.P,U2,3*%
%TO.N,Net-(R12-Pad1)*%
X58455000Y41200000D03*
%TO.P,U2,4*%
%TO.N,Net-(JP4-Pad1)*%
X60995000Y41200000D03*
%TO.P,U2,5*%
X63535000Y41200000D03*
%TO.P,U2,6*%
%TO.N,Net-(JP4-Pad3)*%
X66075000Y41200000D03*
%TO.P,U2,7,GND*%
%TO.N,GND*%
X68615000Y41200000D03*
%TO.P,U2,8*%
%TO.N,Net-(JP3-Pad3)*%
X68615000Y48820000D03*
%TO.P,U2,9*%
%TO.N,Net-(JP3-Pad1)*%
X66075000Y48820000D03*
%TO.P,U2,10*%
%TO.N,Net-(J6-Pad2)*%
X63535000Y48820000D03*
%TO.P,U2,11*%
%TO.N,/LSW_Y*%
X60995000Y48820000D03*
%TO.P,U2,12*%
%TO.N,Net-(J6-Pad1)*%
X58455000Y48820000D03*
%TO.P,U2,13*%
%TO.N,/LSW_X*%
X55915000Y48820000D03*
%TO.P,U2,14,VCC*%
%TO.N,+5V*%
X53375000Y48820000D03*
%TD*%
D18*
%TO.P,C1,1*%
%TO.N,+12V*%
X98500000Y59750000D03*
%TO.P,C1,2*%
%TO.N,GND*%
X98500000Y57250000D03*
%TD*%
D23*
%TO.P,TP1,1,1*%
%TO.N,Net-(D10-Pad2)*%
X120500000Y18500000D03*
%TD*%
D15*
%TO.P,J5,1,Pin_1*%
%TO.N,/LSW_X*%
X5000000Y42500000D03*
D16*
%TO.P,J5,2,Pin_2*%
%TO.N,GND*%
X5000000Y40000000D03*
%TO.P,J5,3,Pin_3*%
%TO.N,Net-(J5-Pad3)*%
X5000000Y37500000D03*
%TO.P,J5,4,Pin_4*%
%TO.N,GND*%
X5000000Y35000000D03*
%TD*%
D11*
%TO.P,R3,1*%
%TO.N,+5V*%
X36310000Y42500000D03*
D12*
%TO.P,R3,2*%
%TO.N,/LSW_X*%
X28690000Y42500000D03*
%TD*%
D11*
%TO.P,R24,1*%
%TO.N,Net-(D10-Pad2)*%
X131190000Y19500000D03*
D12*
%TO.P,R24,2*%
%TO.N,Net-(J11-Pad6)*%
X138810000Y19500000D03*
%TD*%
D11*
%TO.P,R22,1*%
%TO.N,Net-(D7-Pad2)*%
X131190000Y24500000D03*
D12*
%TO.P,R22,2*%
%TO.N,Net-(J11-Pad4)*%
X138810000Y24500000D03*
%TD*%
D11*
%TO.P,R21,1*%
%TO.N,Net-(D10-Pad1)*%
X125000000Y9810000D03*
D12*
%TO.P,R21,2*%
%TO.N,GND*%
X125000000Y2190000D03*
%TD*%
D18*
%TO.P,C5,1*%
%TO.N,+12V*%
X54750000Y4000000D03*
%TO.P,C5,2*%
%TO.N,GND*%
X57250000Y4000000D03*
%TD*%
D11*
%TO.P,R2,1*%
%TO.N,+5V*%
X36310000Y37500000D03*
D12*
%TO.P,R2,2*%
%TO.N,Net-(J5-Pad3)*%
X28690000Y37500000D03*
%TD*%
D19*
%TO.P,J10,1,Pin_1*%
%TO.N,+12V*%
X145000000Y66040000D03*
D20*
%TO.P,J10,2,Pin_2*%
%TO.N,GND*%
X145000000Y60960000D03*
%TD*%
D17*
%TO.P,C13,1*%
%TO.N,+12V*%
X87500000Y92500000D03*
D18*
%TO.P,C13,2*%
%TO.N,GND*%
X87500000Y89000000D03*
%TD*%
D15*
%TO.P,J11,1,Pin_1*%
%TO.N,Net-(J11-Pad1)*%
X145000000Y27500000D03*
D16*
%TO.P,J11,2,Pin_2*%
%TO.N,Net-(J11-Pad2)*%
X145000000Y25000000D03*
%TO.P,J11,3,Pin_3*%
%TO.N,Net-(J11-Pad3)*%
X145000000Y22500000D03*
%TO.P,J11,4,Pin_4*%
%TO.N,Net-(J11-Pad4)*%
X145000000Y20000000D03*
%TO.P,J11,5,Pin_5*%
%TO.N,Net-(J11-Pad5)*%
X145000000Y17500000D03*
%TO.P,J11,6,Pin_6*%
%TO.N,Net-(J11-Pad6)*%
X145000000Y15000000D03*
%TO.P,J11,7,Pin_7*%
%TO.N,GND*%
X145000000Y12500000D03*
%TD*%
D15*
%TO.P,J6,1,Pin_1*%
%TO.N,Net-(J6-Pad1)*%
X145525000Y54500000D03*
D16*
%TO.P,J6,2,Pin_2*%
%TO.N,Net-(J6-Pad2)*%
X145525000Y52000000D03*
%TO.P,J6,3,Pin_3*%
%TO.N,GND*%
X145525000Y49500000D03*
%TD*%
D29*
%TO.P,U4,1*%
%TO.N,Net-(D8-Pad2)*%
X96700000Y28625000D03*
D30*
%TO.P,U4,2*%
%TO.N,Net-(JP7-Pad1)*%
X96700000Y26085000D03*
%TO.P,U4,3*%
X96700000Y23545000D03*
%TO.P,U4,4*%
%TO.N,Net-(JP7-Pad3)*%
X96700000Y21005000D03*
%TO.P,U4,5*%
%TO.N,Net-(C10-Pad2)*%
X96700000Y18465000D03*
%TO.P,U4,6*%
%TO.N,Net-(R20-Pad1)*%
X96700000Y15925000D03*
%TO.P,U4,7,GND*%
%TO.N,GND*%
X96700000Y13385000D03*
%TO.P,U4,8*%
%TO.N,Net-(JP6-Pad1)*%
X104320000Y13385000D03*
%TO.P,U4,9*%
%TO.N,Net-(C11-Pad1)*%
X104320000Y15925000D03*
%TO.P,U4,10*%
%TO.N,Net-(JP6-Pad3)*%
X104320000Y18465000D03*
%TO.P,U4,11*%
%TO.N,Net-(JP6-Pad1)*%
X104320000Y21005000D03*
%TO.P,U4,12*%
%TO.N,unconnected-(U4-Pad12)*%
X104320000Y23545000D03*
%TO.P,U4,13*%
%TO.N,GND*%
X104320000Y26085000D03*
%TO.P,U4,14,VCC*%
%TO.N,+5V*%
X104320000Y28625000D03*
%TD*%
D11*
%TO.P,R4,1*%
%TO.N,Net-(D3-Pad1)*%
X107000000Y90620000D03*
D12*
%TO.P,R4,2*%
%TO.N,Net-(D4-Pad2)*%
X107000000Y83000000D03*
%TD*%
D17*
%TO.P,C4,1*%
%TO.N,+12V*%
X49000000Y8152651D03*
D18*
%TO.P,C4,2*%
%TO.N,GND*%
X49000000Y4652651D03*
%TD*%
%TO.P,C12,1*%
%TO.N,+5V*%
X50000000Y46750000D03*
%TO.P,C12,2*%
%TO.N,GND*%
X50000000Y44250000D03*
%TD*%
D11*
%TO.P,R30,1*%
%TO.N,/RELAY_IN_2*%
X28690000Y51000000D03*
D12*
%TO.P,R30,2*%
%TO.N,GND*%
X36310000Y51000000D03*
%TD*%
D11*
%TO.P,R18,1*%
%TO.N,Net-(J12-Pad1)*%
X134000000Y41000000D03*
D12*
%TO.P,R18,2*%
%TO.N,Net-(J12-Pad2)*%
X134000000Y32110000D03*
%TD*%
D23*
%TO.P,TP2,1,1*%
%TO.N,Net-(JP7-Pad1)*%
X89500000Y29500000D03*
%TD*%
D11*
%TO.P,R7,1*%
%TO.N,+5V*%
X36310000Y47500000D03*
D12*
%TO.P,R7,2*%
%TO.N,/LSW_Y*%
X28690000Y47500000D03*
%TD*%
D13*
%TO.P,D8,1,K*%
%TO.N,Net-(D8-Pad1)*%
X131500000Y13000000D03*
D14*
%TO.P,D8,2,A*%
%TO.N,Net-(D8-Pad2)*%
X131500000Y15540000D03*
%TD*%
D17*
%TO.P,C9,1*%
%TO.N,+24V*%
X97500000Y92500000D03*
D18*
%TO.P,C9,2*%
%TO.N,GND*%
X97500000Y89000000D03*
%TD*%
D11*
%TO.P,R6,1*%
%TO.N,+5V*%
X36310000Y45000000D03*
D12*
%TO.P,R6,2*%
%TO.N,Net-(J7-Pad3)*%
X28690000Y45000000D03*
%TD*%
D19*
%TO.P,J1,1,Pin_1*%
%TO.N,+24V*%
X5000000Y77420000D03*
D20*
%TO.P,J1,2,Pin_2*%
%TO.N,GND*%
X5000000Y82500000D03*
%TD*%
D31*
%TO.P,H6,1*%
%TO.N,N/C*%
X5000000Y2600000D03*
X2600000Y5000000D03*
X5000000Y7400000D03*
X6697056Y3302944D03*
X3302944Y6697056D03*
X6697056Y6697056D03*
X7400000Y5000000D03*
X3302944Y3302944D03*
D32*
X5000000Y5000000D03*
%TD*%
D13*
%TO.P,D1,1,K*%
%TO.N,Net-(D1-Pad1)*%
X105000000Y76000000D03*
D14*
%TO.P,D1,2,A*%
%TO.N,+12V*%
X105000000Y78540000D03*
%TD*%
D15*
%TO.P,J9,1,Pin_1*%
%TO.N,Net-(J9-Pad1)*%
X5000000Y19500000D03*
D16*
%TO.P,J9,2,Pin_2*%
%TO.N,Net-(J9-Pad2)*%
X5000000Y17000000D03*
%TO.P,J9,3,Pin_3*%
%TO.N,GND*%
X5000000Y14500000D03*
%TD*%
D35*
%TO.P,J8,1,Pin_1*%
%TO.N,GND*%
X5000000Y29000000D03*
D36*
%TO.P,J8,2,Pin_2*%
%TO.N,Net-(J8-Pad2)*%
X5000000Y26500000D03*
%TD*%
D11*
%TO.P,R27,1*%
%TO.N,/RELAY_IN_1*%
X28690000Y56000000D03*
D12*
%TO.P,R27,2*%
%TO.N,Net-(R27-Pad2)*%
X36310000Y56000000D03*
%TD*%
D18*
%TO.P,C7,1*%
%TO.N,+5V*%
X62750000Y4000000D03*
%TO.P,C7,2*%
%TO.N,GND*%
X60250000Y4000000D03*
%TD*%
D31*
%TO.P,H1,1*%
%TO.N,N/C*%
X146697056Y3302944D03*
X147400000Y5000000D03*
X143302944Y3302944D03*
X142600000Y5000000D03*
X145000000Y2600000D03*
X146697056Y6697056D03*
X145000000Y7400000D03*
X143302944Y6697056D03*
D32*
X145000000Y5000000D03*
%TD*%
D21*
%TO.P,D2,1,K*%
%TO.N,+12V*%
X111000000Y77700000D03*
D22*
%TO.P,D2,2,A*%
%TO.N,Net-(D2-Pad2)*%
X111000000Y65000000D03*
%TD*%
D13*
%TO.P,D10,1,K*%
%TO.N,Net-(D10-Pad1)*%
X125000000Y13000000D03*
D14*
%TO.P,D10,2,A*%
%TO.N,Net-(D10-Pad2)*%
X125000000Y15540000D03*
%TD*%
D11*
%TO.P,R17,1*%
%TO.N,Net-(J12-Pad1)*%
X131500000Y41000000D03*
D12*
%TO.P,R17,2*%
%TO.N,Net-(J12-Pad3)*%
X131500000Y33380000D03*
%TD*%
D18*
%TO.P,C10,1*%
%TO.N,Net-(C10-Pad1)*%
X85500000Y15750000D03*
%TO.P,C10,2*%
%TO.N,Net-(C10-Pad2)*%
X85500000Y13250000D03*
%TD*%
D37*
%TO.P,JP3,1,A*%
%TO.N,Net-(JP3-Pad1)*%
X66200000Y53000000D03*
%TO.P,JP3,2,C*%
%TO.N,Net-(D7-Pad2)*%
X67500000Y53000000D03*
%TO.P,JP3,3,B*%
%TO.N,Net-(JP3-Pad3)*%
X68800000Y53000000D03*
%TD*%
D38*
%TO.P,JP1,1,A*%
%TO.N,+12V*%
X121000000Y73300000D03*
%TO.P,JP1,2,C*%
%TO.N,Net-(JP1-Pad2)*%
X121000000Y72000000D03*
%TO.P,JP1,3,B*%
%TO.N,+24V*%
X121000000Y70700000D03*
%TD*%
%TO.P,JP2,1,A*%
%TO.N,+12V*%
X121000000Y91300000D03*
%TO.P,JP2,2,C*%
%TO.N,Net-(JP2-Pad2)*%
X121000000Y90000000D03*
%TO.P,JP2,3,B*%
%TO.N,+24V*%
X121000000Y88700000D03*
%TD*%
%TO.P,JP7,1,A*%
%TO.N,Net-(JP7-Pad1)*%
X93000000Y25300000D03*
%TO.P,JP7,2,C*%
%TO.N,Net-(JP7-Pad2)*%
X93000000Y24000000D03*
%TO.P,JP7,3,B*%
%TO.N,Net-(JP7-Pad3)*%
X93000000Y22700000D03*
%TD*%
D37*
%TO.P,JP5,1,A*%
%TO.N,+12V*%
X127700000Y44500000D03*
%TO.P,JP5,2,C*%
%TO.N,Net-(J12-Pad1)*%
X129000000Y44500000D03*
%TO.P,JP5,3,B*%
%TO.N,+24V*%
X130300000Y44500000D03*
%TD*%
%TO.P,JP4,1,A*%
%TO.N,Net-(JP4-Pad1)*%
X63700000Y37000000D03*
%TO.P,JP4,2,C*%
%TO.N,Net-(D8-Pad2)*%
X65000000Y37000000D03*
%TO.P,JP4,3,B*%
%TO.N,Net-(JP4-Pad3)*%
X66300000Y37000000D03*
%TD*%
D38*
%TO.P,JP9,1,A*%
%TO.N,+5V*%
X43500000Y5700000D03*
%TO.P,JP9,2,C*%
%TO.N,Net-(J9-Pad1)*%
X43500000Y7000000D03*
%TO.P,JP9,3,B*%
%TO.N,+12V*%
X43500000Y8300000D03*
%TD*%
%TO.P,JP6,1,A*%
%TO.N,Net-(JP6-Pad1)*%
X108000000Y21300000D03*
%TO.P,JP6,2,C*%
%TO.N,Net-(D10-Pad2)*%
X108000000Y20000000D03*
%TO.P,JP6,3,B*%
%TO.N,Net-(JP6-Pad3)*%
X108000000Y18700000D03*
%TD*%
D37*
%TO.P,JP8,1,A*%
%TO.N,+5V*%
X137800000Y44500000D03*
%TO.P,JP8,2,C*%
%TO.N,Net-(J11-Pad1)*%
X136500000Y44500000D03*
%TO.P,JP8,3,B*%
%TO.N,+24V*%
X135200000Y44500000D03*
%TD*%
D39*
%TO.N,+12V*%
X82000000Y39500000D03*
D40*
X110500000Y72000000D03*
%TO.N,GND*%
X79175000Y3420000D03*
%TO.N,+5V*%
X140300000Y44500000D03*
X118875000Y15125000D03*
D39*
%TO.N,+24V*%
X127200000Y88700000D03*
X127200000Y70700000D03*
D40*
%TO.N,Net-(D10-Pad2)*%
X110000000Y20000000D03*
%TO.N,/LSW_Y*%
X55000000Y53000000D03*
%TO.N,Net-(D8-Pad2)*%
X101500000Y38500000D03*
%TD*%
D41*
%TO.N,+5V*%
X112010000Y15125000D02*
X114550000Y15125000D01*
%TO.N,GND*%
X83500000Y5960000D02*
X83500000Y3420000D01*
D42*
%TO.N,+12V*%
X57460000Y9270000D02*
X57460000Y14960000D01*
D43*
X121000000Y73300000D02*
X121000000Y75400000D01*
D41*
X105000000Y78540000D02*
X110160000Y78540000D01*
D42*
X57460000Y14960000D02*
X82000000Y39500000D01*
D43*
X115000000Y84000000D02*
X115000000Y81400000D01*
X112000000Y86000000D02*
X112000000Y89500000D01*
X118450000Y95950000D02*
X111250000Y95950000D01*
D44*
X43500000Y8300000D02*
X44800000Y8300000D01*
X125500000Y57500000D02*
X125500000Y64500000D01*
D43*
X115000000Y81400000D02*
X118450000Y77950000D01*
D41*
X105000000Y96540000D02*
X110160000Y96540000D01*
D44*
X121500000Y68500000D02*
X114000000Y68500000D01*
X50500000Y11000000D02*
X52230000Y9270000D01*
D43*
X112000000Y86000000D02*
X113000000Y86000000D01*
X94500000Y82000000D02*
X91500000Y85000000D01*
X121000000Y75400000D02*
X118450000Y77950000D01*
D41*
X110160000Y96540000D02*
X111000000Y95700000D01*
D43*
X111250000Y77950000D02*
X111000000Y77700000D01*
X85000000Y87500000D02*
X85000000Y90000000D01*
X121000000Y91300000D02*
X121000000Y93400000D01*
D45*
X86367500Y93632500D02*
X87500000Y92500000D01*
D44*
X114000000Y68500000D02*
X110500000Y72000000D01*
D43*
X87500000Y85000000D02*
X85000000Y87500000D01*
X113000000Y86000000D02*
X115000000Y84000000D01*
D44*
X47500000Y11000000D02*
X50500000Y11000000D01*
X127700000Y44500000D02*
X127700000Y55300000D01*
D43*
X96380000Y63120000D02*
X94500000Y65000000D01*
X118450000Y95950000D02*
X112750000Y90250000D01*
X118450000Y77950000D02*
X111250000Y77950000D01*
X94000000Y86000000D02*
X87500000Y92500000D01*
X106000000Y86000000D02*
X94000000Y86000000D01*
X106000000Y86000000D02*
X112000000Y86000000D01*
X111250000Y95950000D02*
X111000000Y95700000D01*
D41*
X110160000Y78540000D02*
X111000000Y77700000D01*
D43*
X98320000Y63120000D02*
X96380000Y63120000D01*
X121000000Y93400000D02*
X118450000Y95950000D01*
D44*
X127700000Y55300000D02*
X125500000Y57500000D01*
D43*
X91500000Y85000000D02*
X87500000Y85000000D01*
X94500000Y65000000D02*
X94500000Y82000000D01*
X112000000Y89500000D02*
X112750000Y90250000D01*
D45*
X76267500Y93632500D02*
X86367500Y93632500D01*
D44*
X52230000Y9270000D02*
X57460000Y9270000D01*
D43*
X85000000Y90000000D02*
X87500000Y92500000D01*
D44*
X44800000Y8300000D02*
X47500000Y11000000D01*
X125500000Y64500000D02*
X121500000Y68500000D01*
D41*
%TO.N,GND*%
X83500000Y3420000D02*
X79175000Y3420000D01*
X83500000Y3420000D02*
X86040000Y5960000D01*
D44*
%TO.N,+5V*%
X43500000Y4000000D02*
X46000000Y1500000D01*
D41*
X114550000Y15125000D02*
X118875000Y15125000D01*
X112010000Y12585000D02*
X114550000Y15125000D01*
D44*
X64000000Y1500000D02*
X65500000Y3000000D01*
X137800000Y44500000D02*
X140300000Y44500000D01*
X62730000Y9270000D02*
X62540000Y9270000D01*
X46000000Y1500000D02*
X64000000Y1500000D01*
X65500000Y3000000D02*
X65500000Y6500000D01*
X65500000Y6500000D02*
X62730000Y9270000D01*
X43500000Y5700000D02*
X43500000Y4000000D01*
D41*
%TO.N,Net-(C3-Pad1)*%
X36310000Y24000000D02*
X36310000Y26500000D01*
X33750000Y29500000D02*
X35000000Y29500000D01*
X43500000Y26500000D02*
X53375000Y36375000D01*
X53375000Y36375000D02*
X53375000Y41200000D01*
X35000000Y29500000D02*
X36310000Y28190000D01*
X36310000Y28190000D02*
X36310000Y26500000D01*
X36310000Y26500000D02*
X43500000Y26500000D01*
%TO.N,Net-(D1-Pad1)*%
X105000000Y74620000D02*
X107000000Y72620000D01*
X105000000Y76000000D02*
X105000000Y74620000D01*
%TO.N,Net-(D3-Pad1)*%
X105000000Y94000000D02*
X105000000Y92620000D01*
X105000000Y92620000D02*
X107000000Y90620000D01*
D44*
%TO.N,+24V*%
X127200000Y58800000D02*
X127200000Y70700000D01*
X132800000Y44500000D02*
X132800000Y53200000D01*
X130300000Y44500000D02*
X132800000Y44500000D01*
D43*
X121000000Y70700000D02*
X127200000Y70700000D01*
X127200000Y88700000D02*
X127200000Y70700000D01*
D44*
X132800000Y44500000D02*
X135200000Y44500000D01*
D43*
X121000000Y88700000D02*
X127200000Y88700000D01*
D44*
X132800000Y53200000D02*
X127200000Y58800000D01*
D43*
%TO.N,Net-(J2-Pad1)*%
X141700000Y77000000D02*
X145000000Y77000000D01*
X130650000Y65950000D02*
X141700000Y77000000D01*
%TO.N,Net-(J4-Pad1)*%
X130650000Y83950000D02*
X134740000Y88040000D01*
X134740000Y88040000D02*
X145000000Y88040000D01*
D41*
%TO.N,Net-(J5-Pad3)*%
X28690000Y37500000D02*
X5000000Y37500000D01*
%TO.N,Net-(J7-Pad3)*%
X11500000Y51000000D02*
X5000000Y51000000D01*
X17500000Y45000000D02*
X11500000Y51000000D01*
X28690000Y45000000D02*
X17500000Y45000000D01*
%TO.N,Net-(J8-Pad2)*%
X5000000Y26500000D02*
X28690000Y26500000D01*
D43*
%TO.N,Net-(JP1-Pad2)*%
X121000000Y72000000D02*
X116500000Y72000000D01*
%TO.N,Net-(JP2-Pad2)*%
X121000000Y90000000D02*
X116500000Y90000000D01*
D41*
%TO.N,Net-(JP3-Pad1)*%
X66075000Y52875000D02*
X66200000Y53000000D01*
X66075000Y48820000D02*
X66075000Y52875000D01*
X56500000Y44000000D02*
X64000000Y44000000D01*
X55915000Y41200000D02*
X55915000Y43415000D01*
X66075000Y46075000D02*
X66075000Y48820000D01*
X64000000Y44000000D02*
X66075000Y46075000D01*
X55915000Y43415000D02*
X56500000Y44000000D01*
%TO.N,Net-(JP3-Pad3)*%
X68800000Y53000000D02*
X68800000Y49005000D01*
X68800000Y49005000D02*
X68615000Y48820000D01*
%TO.N,Net-(JP4-Pad1)*%
X62000000Y37000000D02*
X63700000Y37000000D01*
X60995000Y38005000D02*
X62000000Y37000000D01*
X63700000Y41035000D02*
X63535000Y41200000D01*
X63700000Y37000000D02*
X63700000Y41035000D01*
X60995000Y41200000D02*
X60995000Y38005000D01*
%TO.N,Net-(JP4-Pad3)*%
X66300000Y40975000D02*
X66075000Y41200000D01*
X66300000Y37000000D02*
X66300000Y40975000D01*
%TO.N,Net-(R12-Pad1)*%
X40000000Y19500000D02*
X36310000Y19500000D01*
X58455000Y41200000D02*
X58455000Y37955000D01*
X36310000Y14500000D02*
X36310000Y19500000D01*
X58455000Y37955000D02*
X40000000Y19500000D01*
%TO.N,Net-(C10-Pad1)*%
X85500000Y15750000D02*
X85500000Y18690000D01*
%TO.N,Net-(C10-Pad2)*%
X91115000Y18465000D02*
X91000000Y18350000D01*
X96700000Y18465000D02*
X91115000Y18465000D01*
X85500000Y13250000D02*
X85500000Y10500000D01*
X91000000Y15000000D02*
X89250000Y13250000D01*
X80250000Y13250000D02*
X80000000Y13500000D01*
X85500000Y13250000D02*
X80250000Y13250000D01*
X85500000Y10500000D02*
X83500000Y8500000D01*
X89250000Y13250000D02*
X85500000Y13250000D01*
X91000000Y18350000D02*
X91000000Y15000000D01*
%TO.N,Net-(C11-Pad1)*%
X109470000Y15125000D02*
X107375000Y15125000D01*
X109470000Y15125000D02*
X109470000Y5970000D01*
X112000000Y6000000D02*
X109500000Y6000000D01*
X109470000Y4120000D02*
X108350000Y3000000D01*
X109500000Y6000000D02*
X109470000Y5970000D01*
X104320000Y15925000D02*
X106575000Y15925000D01*
X109470000Y5970000D02*
X109470000Y4120000D01*
X114347349Y6000000D02*
X112000000Y6000000D01*
X106575000Y15925000D02*
X107375000Y15125000D01*
%TO.N,Net-(D9-Pad1)*%
X101500000Y3000000D02*
X102810000Y4310000D01*
X95650000Y3000000D02*
X101500000Y3000000D01*
X102810000Y4310000D02*
X102810000Y7500000D01*
%TO.N,Net-(D10-Pad2)*%
X108000000Y20000000D02*
X113000000Y20000000D01*
X120500000Y18500000D02*
X119000000Y20000000D01*
X131190000Y19500000D02*
X127230000Y15540000D01*
X125000000Y15540000D02*
X123460000Y15540000D01*
X123460000Y15540000D02*
X120500000Y18500000D01*
X127230000Y15540000D02*
X125000000Y15540000D01*
X119000000Y20000000D02*
X113000000Y20000000D01*
%TO.N,Net-(D10-Pad1)*%
X125000000Y13000000D02*
X125000000Y9810000D01*
D44*
%TO.N,Net-(J12-Pad1)*%
X129000000Y41000000D02*
X129000000Y44500000D01*
D41*
%TO.N,Net-(JP6-Pad1)*%
X102505000Y21005000D02*
X100500000Y19000000D01*
X108000000Y21300000D02*
X104615000Y21300000D01*
X104320000Y21005000D02*
X102505000Y21005000D01*
X102615000Y13385000D02*
X104320000Y13385000D01*
X100500000Y15500000D02*
X102615000Y13385000D01*
X100500000Y19000000D02*
X100500000Y15500000D01*
X104615000Y21300000D02*
X104320000Y21005000D01*
%TO.N,Net-(JP6-Pad3)*%
X108000000Y18700000D02*
X104555000Y18700000D01*
X104555000Y18700000D02*
X104320000Y18465000D01*
%TO.N,Net-(JP7-Pad1)*%
X96285000Y26500000D02*
X96700000Y26085000D01*
X93000000Y26000000D02*
X93500000Y26500000D01*
X93500000Y26500000D02*
X96285000Y26500000D01*
X89500000Y26500000D02*
X89500000Y29500000D01*
X93000000Y25300000D02*
X93000000Y26000000D01*
X90700000Y25300000D02*
X89500000Y26500000D01*
X96700000Y23545000D02*
X95955000Y23545000D01*
X94200000Y25300000D02*
X93000000Y25300000D01*
X95955000Y23545000D02*
X94200000Y25300000D01*
X93000000Y25300000D02*
X90700000Y25300000D01*
%TO.N,Net-(JP7-Pad2)*%
X87810000Y24000000D02*
X85500000Y26310000D01*
X93000000Y24000000D02*
X87810000Y24000000D01*
%TO.N,Net-(JP7-Pad3)*%
X96700000Y21005000D02*
X93995000Y21005000D01*
X93995000Y21005000D02*
X93000000Y22000000D01*
X93000000Y22000000D02*
X93000000Y22700000D01*
%TO.N,Net-(R20-Pad1)*%
X98075000Y15925000D02*
X100000000Y14000000D01*
X96700000Y15925000D02*
X98075000Y15925000D01*
X100000000Y14000000D02*
X100000000Y9500000D01*
X100000000Y9500000D02*
X98000000Y7500000D01*
X98000000Y7500000D02*
X95190000Y7500000D01*
D44*
%TO.N,Net-(D2-Pad2)*%
X107000000Y65000000D02*
X117500000Y65000000D01*
X117500000Y65000000D02*
X118450000Y65950000D01*
X98320000Y78360000D02*
X100640000Y78360000D01*
X107000000Y69680000D02*
X107000000Y65000000D01*
X101590000Y77410000D02*
X101590000Y75090000D01*
X101590000Y75090000D02*
X107000000Y69680000D01*
X100640000Y78360000D02*
X101590000Y77410000D01*
%TO.N,Net-(D4-Pad2)*%
X104900000Y80900000D02*
X107000000Y83000000D01*
X98320000Y80900000D02*
X104900000Y80900000D01*
D41*
%TO.N,Net-(R27-Pad2)*%
X90700000Y80900000D02*
X88400000Y80900000D01*
X79000000Y66500000D02*
X49500000Y66500000D01*
X49500000Y66500000D02*
X39000000Y56000000D01*
X88400000Y80900000D02*
X84500000Y77000000D01*
X84500000Y77000000D02*
X84500000Y72000000D01*
X39000000Y56000000D02*
X36310000Y56000000D01*
X84500000Y72000000D02*
X79000000Y66500000D01*
%TO.N,Net-(R28-Pad2)*%
X40000000Y53500000D02*
X36310000Y53500000D01*
X85500000Y75500000D02*
X85500000Y71750000D01*
X90700000Y78360000D02*
X88360000Y78360000D01*
X85500000Y71750000D02*
X79250000Y65500000D01*
X52000000Y65500000D02*
X40000000Y53500000D01*
X88360000Y78360000D02*
X85500000Y75500000D01*
X79250000Y65500000D02*
X52000000Y65500000D01*
%TO.N,/RELAY_IN_1*%
X22000000Y58500000D02*
X19000000Y61500000D01*
X13000000Y67500000D02*
X19000000Y61500000D01*
X28690000Y56000000D02*
X28690000Y58500000D01*
X5000000Y67500000D02*
X13000000Y67500000D01*
X28690000Y58500000D02*
X22000000Y58500000D01*
%TO.N,/RELAY_IN_2*%
X18500000Y56000000D02*
X21000000Y53500000D01*
X9500000Y65000000D02*
X18500000Y56000000D01*
X28690000Y53500000D02*
X28690000Y51000000D01*
X21000000Y53500000D02*
X28690000Y53500000D01*
X5000000Y65000000D02*
X9500000Y65000000D01*
%TO.N,/LSW_X*%
X52000000Y43500000D02*
X55915000Y47415000D01*
X55915000Y47415000D02*
X55915000Y48820000D01*
X48500000Y40000000D02*
X52000000Y43500000D01*
X28690000Y42500000D02*
X31190000Y40000000D01*
X31190000Y40000000D02*
X48500000Y40000000D01*
X28690000Y42500000D02*
X5000000Y42500000D01*
%TO.N,/LSW_Y*%
X30190000Y49000000D02*
X43500000Y49000000D01*
X5000000Y56000000D02*
X11500000Y56000000D01*
X20000000Y47500000D02*
X28690000Y47500000D01*
X28690000Y47500000D02*
X30190000Y49000000D01*
X47500000Y53000000D02*
X55000000Y53000000D01*
X43500000Y49000000D02*
X47500000Y53000000D01*
X11500000Y56000000D02*
X20000000Y47500000D01*
D44*
%TO.N,Net-(J11-Pad1)*%
X136500000Y41000000D02*
X139000000Y41000000D01*
X136500000Y44500000D02*
X136500000Y41000000D01*
X141000000Y39000000D02*
X139000000Y41000000D01*
X141000000Y29000000D02*
X141000000Y39000000D01*
X145000000Y27500000D02*
X142500000Y27500000D01*
X142500000Y27500000D02*
X141000000Y29000000D01*
D41*
%TO.N,Net-(J11-Pad2)*%
X98320000Y75820000D02*
X99180000Y75820000D01*
X99180000Y75820000D02*
X105000000Y70000000D01*
X105000000Y70000000D02*
X105000000Y52500000D01*
X145000000Y25000000D02*
X142300000Y25000000D01*
X142300000Y25000000D02*
X139000000Y28300000D01*
X139000000Y35000000D02*
X139000000Y28300000D01*
X105000000Y52500000D02*
X118500000Y39000000D01*
X135000000Y39000000D02*
X139000000Y35000000D01*
X118500000Y39000000D02*
X135000000Y39000000D01*
%TO.N,Net-(J11-Pad3)*%
X145000000Y22500000D02*
X143000000Y22500000D01*
X143000000Y22500000D02*
X139000000Y26500000D01*
X118000000Y38000000D02*
X104000000Y52000000D01*
X139000000Y26500000D02*
X138300000Y26500000D01*
X136500000Y34500000D02*
X133000000Y38000000D01*
X100220000Y73280000D02*
X98320000Y73280000D01*
X104000000Y52000000D02*
X104000000Y69500000D01*
X133000000Y38000000D02*
X118000000Y38000000D01*
X138300000Y26500000D02*
X136500000Y28300000D01*
X136500000Y28300000D02*
X136500000Y34500000D01*
X104000000Y69500000D02*
X100220000Y73280000D01*
%TO.N,Net-(J11-Pad4)*%
X145000000Y20000000D02*
X143310000Y20000000D01*
X143310000Y20000000D02*
X138810000Y24500000D01*
%TO.N,Net-(J11-Pad5)*%
X143310000Y17500000D02*
X138810000Y22000000D01*
X145000000Y17500000D02*
X143310000Y17500000D01*
%TO.N,Net-(J11-Pad6)*%
X145000000Y15000000D02*
X143310000Y15000000D01*
X143310000Y15000000D02*
X138810000Y19500000D01*
%TO.N,Net-(J12-Pad2)*%
X134000000Y32110000D02*
X134000000Y35000000D01*
X134000000Y35000000D02*
X132000000Y37000000D01*
X99760000Y70740000D02*
X98320000Y70740000D01*
X103000000Y51500000D02*
X103000000Y67500000D01*
X132000000Y37000000D02*
X117500000Y37000000D01*
X103000000Y67500000D02*
X99760000Y70740000D01*
X117500000Y37000000D02*
X103000000Y51500000D01*
%TO.N,Net-(J12-Pad3)*%
X102000000Y51000000D02*
X117000000Y36000000D01*
X98320000Y68200000D02*
X99800000Y68200000D01*
X102000000Y66000000D02*
X102000000Y51000000D01*
X128880000Y36000000D02*
X131500000Y33380000D01*
X117000000Y36000000D02*
X128880000Y36000000D01*
X99800000Y68200000D02*
X102000000Y66000000D01*
%TO.N,Net-(J12-Pad4)*%
X101000000Y50500000D02*
X101000000Y64500000D01*
X129000000Y33380000D02*
X118120000Y33380000D01*
X118120000Y33380000D02*
X101000000Y50500000D01*
X99840000Y65660000D02*
X98320000Y65660000D01*
X101000000Y64500000D02*
X99840000Y65660000D01*
%TO.N,Net-(D7-Pad2)*%
X67500000Y57000000D02*
X67500000Y53000000D01*
X88740000Y70740000D02*
X80500000Y62500000D01*
X73000000Y62500000D02*
X67500000Y57000000D01*
X80500000Y62500000D02*
X73000000Y62500000D01*
X90700000Y70740000D02*
X88740000Y70740000D01*
%TO.N,Net-(D5-Pad2)*%
X114000000Y58460000D02*
X114000000Y54810000D01*
%TO.N,Net-(D6-Pad2)*%
X123000000Y58460000D02*
X123000000Y54810000D01*
%TO.N,Net-(D7-Pad1)*%
X138000000Y12725000D02*
X138000000Y9810000D01*
%TO.N,Net-(D8-Pad1)*%
X131500000Y13000000D02*
X131500000Y9810000D01*
%TO.N,Net-(J6-Pad1)*%
X90700000Y75820000D02*
X87820000Y75820000D01*
X86500000Y71500000D02*
X79500000Y64500000D01*
X79500000Y64500000D02*
X68000000Y64500000D01*
X86500000Y74500000D02*
X86500000Y71500000D01*
X58455000Y54955000D02*
X58455000Y48820000D01*
X87820000Y75820000D02*
X86500000Y74500000D01*
X68000000Y64500000D02*
X58455000Y54955000D01*
%TO.N,Net-(J6-Pad2)*%
X88000000Y71500000D02*
X88000000Y72500000D01*
X88780000Y73280000D02*
X90700000Y73280000D01*
X70500000Y63500000D02*
X63535000Y56535000D01*
X88000000Y72500000D02*
X88780000Y73280000D01*
X88000000Y71500000D02*
X80000000Y63500000D01*
X80000000Y63500000D02*
X70500000Y63500000D01*
X63535000Y56535000D02*
X63535000Y48820000D01*
%TO.N,Net-(D8-Pad2)*%
X96700000Y33700000D02*
X101500000Y38500000D01*
X72000000Y37000000D02*
X69000000Y34000000D01*
X96700000Y28625000D02*
X96700000Y33700000D01*
X90700000Y68200000D02*
X87700000Y68200000D01*
X131190000Y22000000D02*
X133500000Y19690000D01*
X87700000Y68200000D02*
X81000000Y61500000D01*
X69000000Y34000000D02*
X66000000Y34000000D01*
X133500000Y19690000D02*
X133500000Y17540000D01*
X75500000Y61500000D02*
X72000000Y58000000D01*
X133500000Y17540000D02*
X131500000Y15540000D01*
X66000000Y34000000D02*
X65000000Y35000000D01*
X81000000Y61500000D02*
X75500000Y61500000D01*
X65000000Y35000000D02*
X65000000Y37000000D01*
X72000000Y58000000D02*
X72000000Y37000000D01*
D44*
%TO.N,Net-(J9-Pad1)*%
X14500000Y19500000D02*
X27000000Y7000000D01*
X27000000Y7000000D02*
X43500000Y7000000D01*
X5000000Y19500000D02*
X14500000Y19500000D01*
%TD*%
M02*
