M48
; DRILL file {KiCad (6.0.1)} date Sun Feb  5 15:58:29 2023
; FORMAT={-:-/ absolute / inch / decimal}
; #@! TF.CreationDate,2023-02-05T15:58:29-08:00
; #@! TF.GenerationSoftware,Kicad,Pcbnew,(6.0.1)
; #@! TF.FileFunction,Plated,1,4,PTH
FMAT,2
INCH
; #@! TA.AperFunction,Plated,PTH,ViaDrill
T1C0.0157
; #@! TA.AperFunction,Plated,PTH,ComponentDrill
T2C0.0197
; #@! TA.AperFunction,Plated,PTH,ComponentDrill
T3C0.0276
; #@! TA.AperFunction,Plated,PTH,ComponentDrill
T4C0.0315
; #@! TA.AperFunction,Plated,PTH,ComponentDrill
T5C0.0354
; #@! TA.AperFunction,Plated,PTH,ComponentDrill
T6C0.0374
; #@! TA.AperFunction,Plated,PTH,ComponentDrill
T7C0.0394
; #@! TA.AperFunction,Plated,PTH,ComponentDrill
T8C0.0433
; #@! TA.AperFunction,Plated,PTH,ComponentDrill
T9C0.0472
; #@! TA.AperFunction,Plated,PTH,ComponentDrill
T10C0.0512
; #@! TA.AperFunction,Plated,PTH,ViaDrill
T11C0.0591
; #@! TA.AperFunction,Plated,PTH,ComponentDrill
T12C0.0598
; #@! TA.AperFunction,Plated,PTH,ComponentDrill
T13C0.1260
%
G90
G05
T1
X2.1654Y2.0866
X3.1171Y0.1346
X3.9961Y1.5157
X4.3307Y0.7874
X4.3504Y2.8346
X4.6801Y0.5955
X5.5236Y1.752
T2
X0.1024Y3.7402
X0.1024Y0.1969
X0.13Y3.807
X0.13Y3.6733
X0.13Y0.2637
X0.13Y0.13
X0.1969Y3.8346
X0.1969Y3.6457
X0.1969Y0.2913
X0.1969Y0.1024
X0.2637Y3.807
X0.2637Y3.6733
X0.2637Y0.2637
X0.2637Y0.13
X0.2913Y3.7402
X0.2913Y0.1969
X5.6142Y3.7402
X5.6142Y0.1969
X5.6418Y3.807
X5.6418Y3.6733
X5.6418Y0.2637
X5.6418Y0.13
X5.7087Y3.8346
X5.7087Y3.6457
X5.7087Y0.2913
X5.7087Y0.1024
X5.7755Y3.807
X5.7755Y3.6733
X5.7755Y0.2637
X5.7755Y0.13
X5.8031Y3.7402
X5.8031Y0.1969
T3
X1.1295Y2.3031
X1.1295Y2.2047
X1.1295Y2.1063
X1.1295Y2.0079
X1.1295Y1.8701
X1.1295Y1.7717
X1.1295Y1.6732
X1.1295Y1.4764
X1.1295Y1.0433
X1.1295Y0.9449
X1.1295Y0.7677
X1.1295Y0.6693
X1.1295Y0.5709
X1.4295Y2.3031
X1.4295Y2.2047
X1.4295Y2.1063
X1.4295Y2.0079
X1.4295Y1.8701
X1.4295Y1.7717
X1.4295Y1.6732
X1.4295Y1.4764
X1.4295Y1.0433
X1.4295Y0.9449
X1.4295Y0.7677
X1.4295Y0.6693
X1.4295Y0.5709
X3.3661Y1.0358
X3.3661Y0.7358
X3.7476Y0.2953
X4.0476Y0.2953
X4.2126Y3.5677
X4.2126Y3.2677
X4.2126Y2.8591
X4.2126Y2.5591
X4.4882Y2.1579
X4.4882Y1.8579
X4.8425Y2.1579
X4.8425Y1.8579
X4.9213Y0.3862
X4.9213Y0.0862
X5.0787Y1.6142
X5.0787Y1.3142
X5.165Y0.9646
X5.165Y0.8661
X5.165Y0.7677
X5.1772Y1.6142
X5.1772Y1.3142
X5.1772Y0.3862
X5.1772Y0.0862
X5.2756Y1.6142
X5.2756Y1.2642
X5.374Y1.6142
X5.374Y1.1142
X5.4331Y0.3862
X5.4331Y0.0862
X5.465Y0.9646
X5.465Y0.8661
X5.465Y0.7677
X5.4724Y1.6142
X5.4724Y1.1142
T4
X0.7087Y3.6554
X0.7087Y3.5176
X1.2303Y1.1614
X1.3287Y1.1614
X1.9291Y0.321
X1.9291Y0.1832
X1.9685Y1.8406
X1.9685Y1.7421
X2.1014Y1.922
X2.1014Y1.622
X2.1555Y0.1575
X2.2014Y1.922
X2.2014Y1.622
X2.2539Y0.1575
X2.3014Y1.922
X2.3014Y1.622
X2.372Y0.1575
X2.4014Y1.922
X2.4014Y1.622
X2.4705Y0.1575
X2.5014Y1.922
X2.5014Y1.622
X2.6014Y1.922
X2.6014Y1.622
X2.7014Y1.922
X2.7014Y1.622
X2.7362Y0.321
X2.7362Y0.1832
X3.2874Y0.3346
X3.2874Y0.2346
X3.2874Y0.1346
X3.3661Y0.6201
X3.3661Y0.5217
X3.3874Y0.2346
X3.4449Y3.6417
X3.4449Y3.5039
X3.5709Y3.185
X3.5709Y3.085
X3.5709Y2.985
X3.5709Y2.885
X3.5709Y2.785
X3.5709Y2.685
X3.5709Y2.585
X3.5709Y2.485
X3.8071Y1.127
X3.8071Y1.027
X3.8071Y0.927
X3.8071Y0.827
X3.8071Y0.727
X3.8071Y0.627
X3.8071Y0.527
X3.8386Y3.6417
X3.8386Y3.5039
X3.8709Y3.185
X3.8709Y3.085
X3.8709Y2.985
X3.8709Y2.885
X3.8709Y2.785
X3.8709Y2.685
X3.8709Y2.585
X3.8709Y2.485
X3.878Y2.3524
X3.878Y2.2539
X3.9173Y1.2598
X4.0157Y1.2598
X4.1071Y1.127
X4.1071Y1.027
X4.1071Y0.927
X4.1071Y0.827
X4.1071Y0.727
X4.1071Y0.627
X4.1071Y0.527
X4.3098Y0.5955
X4.4098Y0.5955
X4.4098Y0.4955
X4.5019Y0.2362
X4.5098Y0.5955
X4.6397Y0.2362
T5
X4.1339Y3.8008
X4.1339Y3.7008
X4.1339Y3.0921
X4.1339Y2.9921
X4.4882Y2.4016
X4.4882Y2.3016
X4.8425Y2.4016
X4.8425Y2.3016
X4.9213Y0.6118
X4.9213Y0.5118
X5.1772Y0.6118
X5.1772Y0.5118
X5.4331Y0.601
X5.4331Y0.501
T6
X0.1969Y2.6575
X0.1969Y2.5591
X0.1969Y2.4606
X0.1969Y2.2047
X0.1969Y2.1063
X0.1969Y2.0079
X0.1969Y1.9094
X0.1969Y1.6732
X0.1969Y1.5748
X0.1969Y1.4764
X0.1969Y1.378
X0.1969Y0.7677
X0.1969Y0.6693
X0.1969Y0.5709
X5.7087Y1.7126
X5.7087Y1.6142
X5.7087Y1.5157
X5.7087Y1.4173
X5.7087Y1.3189
X5.7087Y1.0827
X5.7087Y0.9843
X5.7087Y0.8858
X5.7087Y0.7874
X5.7087Y0.689
X5.7087Y0.5906
X5.7087Y0.4921
X5.7293Y2.1457
X5.7293Y2.0472
X5.7293Y1.9488
T7
X0.1969Y1.1417
X0.1969Y1.0433
X1.1326Y3.6863
X1.1326Y2.8005
X2.9528Y0.8268
X3.0027Y3.6863
X3.0027Y2.8005
X3.1496Y0.5315
X3.5236Y1.1614
X4.311Y0.3346
X4.6634Y3.7776
X4.6634Y3.3051
X4.6634Y3.0689
X4.6634Y2.5965
X4.7441Y0.7283
T8
X2.2622Y0.365
X2.3622Y0.365
X2.4622Y0.365
T9
X3.5827Y0.7224
X3.5827Y0.2224
X3.7657Y0.1181
X4.2657Y0.1181
X4.3701Y3.7677
X4.3701Y3.2677
X4.3701Y3.0591
X4.3701Y2.5591
T10
X4.5866Y3.5433
X4.5866Y2.8346
X5.1437Y3.3051
X5.1437Y2.5965
X5.1457Y3.7795
X5.1457Y3.0709
T11
X3.2283Y1.5551
X5.0079Y3.4921
X5.0079Y2.7835
T12
X0.1969Y3.248
X0.1969Y3.048
X5.7087Y3.4661
X5.7087Y3.2661
X5.7087Y3.0315
X5.7087Y2.8315
X5.7087Y2.6
X5.7087Y2.4
T13
X0.1969Y3.7402
X0.1969Y0.1969
X5.7087Y3.7402
X5.7087Y0.1969
T0
M30
