%TF.GenerationSoftware,KiCad,Pcbnew,(6.0.1)*%
%TF.CreationDate,2023-02-05T15:58:28-08:00*%
%TF.ProjectId,Interface Board,496e7465-7266-4616-9365-20426f617264,rev?*%
%TF.SameCoordinates,Original*%
%TF.FileFunction,Legend,Top*%
%TF.FilePolarity,Positive*%
%FSLAX46Y46*%
G04 Gerber Fmt 4.6, Leading zero omitted, Abs format (unit mm)*
G04 Created by KiCad (PCBNEW (6.0.1)) date 2023-02-05 15:58:28*
%MOMM*%
%LPD*%
G01*
G04 APERTURE LIST*
G04 Aperture macros list*
%AMRoundRect*
0 Rectangle with rounded corners*
0 $1 Rounding radius*
0 $2 $3 $4 $5 $6 $7 $8 $9 X,Y pos of 4 corners*
0 Add a 4 corners polygon primitive as box body*
4,1,4,$2,$3,$4,$5,$6,$7,$8,$9,$2,$3,0*
0 Add four circle primitives for the rounded corners*
1,1,$1+$1,$2,$3*
1,1,$1+$1,$4,$5*
1,1,$1+$1,$6,$7*
1,1,$1+$1,$8,$9*
0 Add four rect primitives between the rounded corners*
20,1,$1+$1,$2,$3,$4,$5,0*
20,1,$1+$1,$4,$5,$6,$7,0*
20,1,$1+$1,$6,$7,$8,$9,0*
20,1,$1+$1,$8,$9,$2,$3,0*%
G04 Aperture macros list end*
%ADD10C,0.150000*%
%ADD11C,0.300000*%
%ADD12C,0.120000*%
%ADD13C,1.440000*%
%ADD14C,1.400000*%
%ADD15O,1.400000X1.400000*%
%ADD16R,1.800000X1.800000*%
%ADD17C,1.800000*%
%ADD18RoundRect,0.250000X-0.725000X0.600000X-0.725000X-0.600000X0.725000X-0.600000X0.725000X0.600000X0*%
%ADD19O,1.950000X1.700000*%
%ADD20R,1.600000X1.600000*%
%ADD21C,1.600000*%
%ADD22R,3.000000X3.000000*%
%ADD23C,3.000000*%
%ADD24R,2.400000X2.400000*%
%ADD25O,2.400000X2.400000*%
%ADD26C,2.000000*%
%ADD27R,4.000000X3.000000*%
%ADD28O,4.000000X3.000000*%
%ADD29O,3.500000X3.500000*%
%ADD30R,1.905000X2.000000*%
%ADD31O,1.905000X2.000000*%
%ADD32C,2.500000*%
%ADD33R,2.400000X1.600000*%
%ADD34O,2.400000X1.600000*%
%ADD35C,1.200000*%
%ADD36C,0.800000*%
%ADD37C,6.400000*%
%ADD38R,1.600000X2.400000*%
%ADD39O,1.600000X2.400000*%
%ADD40RoundRect,0.250000X-0.750000X0.600000X-0.750000X-0.600000X0.750000X-0.600000X0.750000X0.600000X0*%
%ADD41O,2.000000X1.700000*%
G04 APERTURE END LIST*
D10*
X124000000Y42000000D02*
X112000000Y42000000D01*
X112000000Y42000000D02*
X112000000Y21000000D01*
X112000000Y21000000D02*
X124000000Y21000000D01*
X124000000Y21000000D02*
X124000000Y42000000D01*
X109000000Y53500000D02*
X91000000Y53500000D01*
X91000000Y53500000D02*
X91000000Y38500000D01*
X91000000Y38500000D02*
X109000000Y38500000D01*
X109000000Y38500000D02*
X109000000Y53500000D01*
X141690000Y46110000D02*
X109000000Y46110000D01*
X124000000Y26500000D02*
X141500000Y26500000D01*
D11*
X128875000Y2195000D02*
X128875000Y1611666D01*
X129791666Y1611666D02*
X128041666Y1611666D01*
X128041666Y2445000D01*
X129791666Y3945000D02*
X129791666Y3111666D01*
X128041666Y3111666D01*
X128041666Y4861666D02*
X128041666Y5195000D01*
X128125000Y5361666D01*
X128291666Y5528333D01*
X128625000Y5611666D01*
X129208333Y5611666D01*
X129541666Y5528333D01*
X129708333Y5361666D01*
X129791666Y5195000D01*
X129791666Y4861666D01*
X129708333Y4695000D01*
X129541666Y4528333D01*
X129208333Y4445000D01*
X128625000Y4445000D01*
X128291666Y4528333D01*
X128125000Y4695000D01*
X128041666Y4861666D01*
X128041666Y6195000D02*
X129791666Y6611666D01*
X128541666Y6945000D01*
X129791666Y7278333D01*
X128041666Y7695000D01*
X129791666Y9695000D02*
X128041666Y9695000D01*
X11111666Y66525833D02*
X10528333Y67359166D01*
X10111666Y66525833D02*
X10111666Y68275833D01*
X10778333Y68275833D01*
X10945000Y68192500D01*
X11028333Y68109166D01*
X11111666Y67942500D01*
X11111666Y67692500D01*
X11028333Y67525833D01*
X10945000Y67442500D01*
X10778333Y67359166D01*
X10111666Y67359166D01*
X11861666Y67442500D02*
X12445000Y67442500D01*
X12695000Y66525833D02*
X11861666Y66525833D01*
X11861666Y68275833D01*
X12695000Y68275833D01*
X14278333Y66525833D02*
X13445000Y66525833D01*
X13445000Y68275833D01*
X14778333Y67025833D02*
X15611666Y67025833D01*
X14611666Y66525833D02*
X15195000Y68275833D01*
X15778333Y66525833D01*
X16695000Y67359166D02*
X16695000Y66525833D01*
X16111666Y68275833D02*
X16695000Y67359166D01*
X17278333Y68275833D01*
X19195000Y66525833D02*
X19195000Y68275833D01*
X20028333Y66525833D02*
X20028333Y68275833D01*
X21028333Y66525833D01*
X21028333Y68275833D01*
X24111666Y66525833D02*
X23111666Y66525833D01*
X23611666Y66525833D02*
X23611666Y68275833D01*
X23445000Y68025833D01*
X23278333Y67859166D01*
X23111666Y67775833D01*
X11111666Y63708333D02*
X10528333Y64541666D01*
X10111666Y63708333D02*
X10111666Y65458333D01*
X10778333Y65458333D01*
X10945000Y65375000D01*
X11028333Y65291666D01*
X11111666Y65125000D01*
X11111666Y64875000D01*
X11028333Y64708333D01*
X10945000Y64625000D01*
X10778333Y64541666D01*
X10111666Y64541666D01*
X11861666Y64625000D02*
X12445000Y64625000D01*
X12695000Y63708333D02*
X11861666Y63708333D01*
X11861666Y65458333D01*
X12695000Y65458333D01*
X14278333Y63708333D02*
X13445000Y63708333D01*
X13445000Y65458333D01*
X14778333Y64208333D02*
X15611666Y64208333D01*
X14611666Y63708333D02*
X15195000Y65458333D01*
X15778333Y63708333D01*
X16695000Y64541666D02*
X16695000Y63708333D01*
X16111666Y65458333D02*
X16695000Y64541666D01*
X17278333Y65458333D01*
X19195000Y63708333D02*
X19195000Y65458333D01*
X20028333Y63708333D02*
X20028333Y65458333D01*
X21028333Y63708333D01*
X21028333Y65458333D01*
X23111666Y65291666D02*
X23195000Y65375000D01*
X23361666Y65458333D01*
X23778333Y65458333D01*
X23945000Y65375000D01*
X24028333Y65291666D01*
X24111666Y65125000D01*
X24111666Y64958333D01*
X24028333Y64708333D01*
X23028333Y63708333D01*
X24111666Y63708333D01*
X11028333Y62557500D02*
X10861666Y62640833D01*
X10611666Y62640833D01*
X10361666Y62557500D01*
X10195000Y62390833D01*
X10111666Y62224166D01*
X10028333Y61890833D01*
X10028333Y61640833D01*
X10111666Y61307500D01*
X10195000Y61140833D01*
X10361666Y60974166D01*
X10611666Y60890833D01*
X10778333Y60890833D01*
X11028333Y60974166D01*
X11111666Y61057500D01*
X11111666Y61640833D01*
X10778333Y61640833D01*
X11861666Y60890833D02*
X11861666Y62640833D01*
X12861666Y60890833D01*
X12861666Y62640833D01*
X13695000Y60890833D02*
X13695000Y62640833D01*
X14111666Y62640833D01*
X14361666Y62557500D01*
X14528333Y62390833D01*
X14611666Y62224166D01*
X14695000Y61890833D01*
X14695000Y61640833D01*
X14611666Y61307500D01*
X14528333Y61140833D01*
X14361666Y60974166D01*
X14111666Y60890833D01*
X13695000Y60890833D01*
X127638333Y53525833D02*
X126805000Y53525833D01*
X126805000Y55275833D01*
X128138333Y53609166D02*
X128388333Y53525833D01*
X128805000Y53525833D01*
X128971666Y53609166D01*
X129055000Y53692500D01*
X129138333Y53859166D01*
X129138333Y54025833D01*
X129055000Y54192500D01*
X128971666Y54275833D01*
X128805000Y54359166D01*
X128471666Y54442500D01*
X128305000Y54525833D01*
X128221666Y54609166D01*
X128138333Y54775833D01*
X128138333Y54942500D01*
X128221666Y55109166D01*
X128305000Y55192500D01*
X128471666Y55275833D01*
X128888333Y55275833D01*
X129138333Y55192500D01*
X129721666Y55275833D02*
X130138333Y53525833D01*
X130471666Y54775833D01*
X130805000Y53525833D01*
X131221666Y55275833D01*
X133055000Y55275833D02*
X134221666Y53525833D01*
X134221666Y55275833D02*
X133055000Y53525833D01*
X136555000Y55275833D02*
X136888333Y55275833D01*
X137055000Y55192500D01*
X137221666Y55025833D01*
X137305000Y54692500D01*
X137305000Y54109166D01*
X137221666Y53775833D01*
X137055000Y53609166D01*
X136888333Y53525833D01*
X136555000Y53525833D01*
X136388333Y53609166D01*
X136221666Y53775833D01*
X136138333Y54109166D01*
X136138333Y54692500D01*
X136221666Y55025833D01*
X136388333Y55192500D01*
X136555000Y55275833D01*
X138055000Y55275833D02*
X138055000Y53859166D01*
X138138333Y53692500D01*
X138221666Y53609166D01*
X138388333Y53525833D01*
X138721666Y53525833D01*
X138888333Y53609166D01*
X138971666Y53692500D01*
X139055000Y53859166D01*
X139055000Y55275833D01*
X139638333Y55275833D02*
X140638333Y55275833D01*
X140138333Y53525833D02*
X140138333Y55275833D01*
X127805000Y50708333D02*
X126971666Y50708333D01*
X126971666Y52458333D01*
X128305000Y50791666D02*
X128555000Y50708333D01*
X128971666Y50708333D01*
X129138333Y50791666D01*
X129221666Y50875000D01*
X129305000Y51041666D01*
X129305000Y51208333D01*
X129221666Y51375000D01*
X129138333Y51458333D01*
X128971666Y51541666D01*
X128638333Y51625000D01*
X128471666Y51708333D01*
X128388333Y51791666D01*
X128305000Y51958333D01*
X128305000Y52125000D01*
X128388333Y52291666D01*
X128471666Y52375000D01*
X128638333Y52458333D01*
X129055000Y52458333D01*
X129305000Y52375000D01*
X129888333Y52458333D02*
X130305000Y50708333D01*
X130638333Y51958333D01*
X130971666Y50708333D01*
X131388333Y52458333D01*
X133721666Y51541666D02*
X133721666Y50708333D01*
X133138333Y52458333D02*
X133721666Y51541666D01*
X134305000Y52458333D01*
X136555000Y52458333D02*
X136888333Y52458333D01*
X137055000Y52375000D01*
X137221666Y52208333D01*
X137305000Y51875000D01*
X137305000Y51291666D01*
X137221666Y50958333D01*
X137055000Y50791666D01*
X136888333Y50708333D01*
X136555000Y50708333D01*
X136388333Y50791666D01*
X136221666Y50958333D01*
X136138333Y51291666D01*
X136138333Y51875000D01*
X136221666Y52208333D01*
X136388333Y52375000D01*
X136555000Y52458333D01*
X138055000Y52458333D02*
X138055000Y51041666D01*
X138138333Y50875000D01*
X138221666Y50791666D01*
X138388333Y50708333D01*
X138721666Y50708333D01*
X138888333Y50791666D01*
X138971666Y50875000D01*
X139055000Y51041666D01*
X139055000Y52458333D01*
X139638333Y52458333D02*
X140638333Y52458333D01*
X140138333Y50708333D02*
X140138333Y52458333D01*
X136805000Y49557500D02*
X136638333Y49640833D01*
X136388333Y49640833D01*
X136138333Y49557500D01*
X135971666Y49390833D01*
X135888333Y49224166D01*
X135805000Y48890833D01*
X135805000Y48640833D01*
X135888333Y48307500D01*
X135971666Y48140833D01*
X136138333Y47974166D01*
X136388333Y47890833D01*
X136555000Y47890833D01*
X136805000Y47974166D01*
X136888333Y48057500D01*
X136888333Y48640833D01*
X136555000Y48640833D01*
X137638333Y47890833D02*
X137638333Y49640833D01*
X138638333Y47890833D01*
X138638333Y49640833D01*
X139471666Y47890833D02*
X139471666Y49640833D01*
X139888333Y49640833D01*
X140138333Y49557500D01*
X140305000Y49390833D01*
X140388333Y49224166D01*
X140471666Y48890833D01*
X140471666Y48640833D01*
X140388333Y48307500D01*
X140305000Y48140833D01*
X140138333Y47974166D01*
X139888333Y47890833D01*
X139471666Y47890833D01*
X112861666Y40910833D02*
X113445000Y39160833D01*
X114028333Y40910833D01*
X115611666Y39327500D02*
X115528333Y39244166D01*
X115278333Y39160833D01*
X115111666Y39160833D01*
X114861666Y39244166D01*
X114695000Y39410833D01*
X114611666Y39577500D01*
X114528333Y39910833D01*
X114528333Y40160833D01*
X114611666Y40494166D01*
X114695000Y40660833D01*
X114861666Y40827500D01*
X115111666Y40910833D01*
X115278333Y40910833D01*
X115528333Y40827500D01*
X115611666Y40744166D01*
X117361666Y39327500D02*
X117278333Y39244166D01*
X117028333Y39160833D01*
X116861666Y39160833D01*
X116611666Y39244166D01*
X116445000Y39410833D01*
X116361666Y39577500D01*
X116278333Y39910833D01*
X116278333Y40160833D01*
X116361666Y40494166D01*
X116445000Y40660833D01*
X116611666Y40827500D01*
X116861666Y40910833D01*
X117028333Y40910833D01*
X117278333Y40827500D01*
X117361666Y40744166D01*
X113945000Y36343333D02*
X113111666Y36343333D01*
X113111666Y38093333D01*
X114445000Y36426666D02*
X114695000Y36343333D01*
X115111666Y36343333D01*
X115278333Y36426666D01*
X115361666Y36510000D01*
X115445000Y36676666D01*
X115445000Y36843333D01*
X115361666Y37010000D01*
X115278333Y37093333D01*
X115111666Y37176666D01*
X114778333Y37260000D01*
X114611666Y37343333D01*
X114528333Y37426666D01*
X114445000Y37593333D01*
X114445000Y37760000D01*
X114528333Y37926666D01*
X114611666Y38010000D01*
X114778333Y38093333D01*
X115195000Y38093333D01*
X115445000Y38010000D01*
X116195000Y37010000D02*
X117528333Y37010000D01*
X118195000Y38093333D02*
X119361666Y36343333D01*
X119361666Y38093333D02*
X118195000Y36343333D01*
X113945000Y33525833D02*
X113111666Y33525833D01*
X113111666Y35275833D01*
X114445000Y33609166D02*
X114695000Y33525833D01*
X115111666Y33525833D01*
X115278333Y33609166D01*
X115361666Y33692500D01*
X115445000Y33859166D01*
X115445000Y34025833D01*
X115361666Y34192500D01*
X115278333Y34275833D01*
X115111666Y34359166D01*
X114778333Y34442500D01*
X114611666Y34525833D01*
X114528333Y34609166D01*
X114445000Y34775833D01*
X114445000Y34942500D01*
X114528333Y35109166D01*
X114611666Y35192500D01*
X114778333Y35275833D01*
X115195000Y35275833D01*
X115445000Y35192500D01*
X116195000Y34192500D02*
X117528333Y34192500D01*
X118695000Y34359166D02*
X118695000Y33525833D01*
X118111666Y35275833D02*
X118695000Y34359166D01*
X119278333Y35275833D01*
X113111666Y30708333D02*
X113111666Y32458333D01*
X113528333Y32458333D01*
X113778333Y32375000D01*
X113945000Y32208333D01*
X114028333Y32041666D01*
X114111666Y31708333D01*
X114111666Y31458333D01*
X114028333Y31125000D01*
X113945000Y30958333D01*
X113778333Y30791666D01*
X113528333Y30708333D01*
X113111666Y30708333D01*
X115195000Y32458333D02*
X115528333Y32458333D01*
X115695000Y32375000D01*
X115861666Y32208333D01*
X115945000Y31875000D01*
X115945000Y31291666D01*
X115861666Y30958333D01*
X115695000Y30791666D01*
X115528333Y30708333D01*
X115195000Y30708333D01*
X115028333Y30791666D01*
X114861666Y30958333D01*
X114778333Y31291666D01*
X114778333Y31875000D01*
X114861666Y32208333D01*
X115028333Y32375000D01*
X115195000Y32458333D01*
X117028333Y32458333D02*
X117361666Y32458333D01*
X117528333Y32375000D01*
X117695000Y32208333D01*
X117778333Y31875000D01*
X117778333Y31291666D01*
X117695000Y30958333D01*
X117528333Y30791666D01*
X117361666Y30708333D01*
X117028333Y30708333D01*
X116861666Y30791666D01*
X116695000Y30958333D01*
X116611666Y31291666D01*
X116611666Y31875000D01*
X116695000Y32208333D01*
X116861666Y32375000D01*
X117028333Y32458333D01*
X119528333Y30708333D02*
X118945000Y31541666D01*
X118528333Y30708333D02*
X118528333Y32458333D01*
X119195000Y32458333D01*
X119361666Y32375000D01*
X119445000Y32291666D01*
X119528333Y32125000D01*
X119528333Y31875000D01*
X119445000Y31708333D01*
X119361666Y31625000D01*
X119195000Y31541666D01*
X118528333Y31541666D01*
X113695000Y28807500D02*
X113111666Y28807500D01*
X113111666Y27890833D02*
X113111666Y29640833D01*
X113945000Y29640833D01*
X115445000Y27890833D02*
X114611666Y27890833D01*
X114611666Y29640833D01*
X116361666Y29640833D02*
X116695000Y29640833D01*
X116861666Y29557500D01*
X117028333Y29390833D01*
X117111666Y29057500D01*
X117111666Y28474166D01*
X117028333Y28140833D01*
X116861666Y27974166D01*
X116695000Y27890833D01*
X116361666Y27890833D01*
X116195000Y27974166D01*
X116028333Y28140833D01*
X115945000Y28474166D01*
X115945000Y29057500D01*
X116028333Y29390833D01*
X116195000Y29557500D01*
X116361666Y29640833D01*
X117695000Y29640833D02*
X118111666Y27890833D01*
X118445000Y29140833D01*
X118778333Y27890833D01*
X119195000Y29640833D01*
X119861666Y28557500D02*
X121195000Y28557500D01*
X122028333Y27890833D02*
X122028333Y29640833D01*
X113695000Y25990000D02*
X113111666Y25990000D01*
X113111666Y25073333D02*
X113111666Y26823333D01*
X113945000Y26823333D01*
X115445000Y25073333D02*
X114611666Y25073333D01*
X114611666Y26823333D01*
X116361666Y26823333D02*
X116695000Y26823333D01*
X116861666Y26740000D01*
X117028333Y26573333D01*
X117111666Y26240000D01*
X117111666Y25656666D01*
X117028333Y25323333D01*
X116861666Y25156666D01*
X116695000Y25073333D01*
X116361666Y25073333D01*
X116195000Y25156666D01*
X116028333Y25323333D01*
X115945000Y25656666D01*
X115945000Y26240000D01*
X116028333Y26573333D01*
X116195000Y26740000D01*
X116361666Y26823333D01*
X117695000Y26823333D02*
X118111666Y25073333D01*
X118445000Y26323333D01*
X118778333Y25073333D01*
X119195000Y26823333D01*
X119861666Y25740000D02*
X121195000Y25740000D01*
X122361666Y26823333D02*
X122695000Y26823333D01*
X122861666Y26740000D01*
X123028333Y26573333D01*
X123111666Y26240000D01*
X123111666Y25656666D01*
X123028333Y25323333D01*
X122861666Y25156666D01*
X122695000Y25073333D01*
X122361666Y25073333D01*
X122195000Y25156666D01*
X122028333Y25323333D01*
X121945000Y25656666D01*
X121945000Y26240000D01*
X122028333Y26573333D01*
X122195000Y26740000D01*
X122361666Y26823333D01*
X114028333Y23922500D02*
X113861666Y24005833D01*
X113611666Y24005833D01*
X113361666Y23922500D01*
X113195000Y23755833D01*
X113111666Y23589166D01*
X113028333Y23255833D01*
X113028333Y23005833D01*
X113111666Y22672500D01*
X113195000Y22505833D01*
X113361666Y22339166D01*
X113611666Y22255833D01*
X113778333Y22255833D01*
X114028333Y22339166D01*
X114111666Y22422500D01*
X114111666Y23005833D01*
X113778333Y23005833D01*
X114861666Y22255833D02*
X114861666Y24005833D01*
X115861666Y22255833D01*
X115861666Y24005833D01*
X116695000Y22255833D02*
X116695000Y24005833D01*
X117111666Y24005833D01*
X117361666Y23922500D01*
X117528333Y23755833D01*
X117611666Y23589166D01*
X117695000Y23255833D01*
X117695000Y23005833D01*
X117611666Y22672500D01*
X117528333Y22505833D01*
X117361666Y22339166D01*
X117111666Y22255833D01*
X116695000Y22255833D01*
X10945000Y42434583D02*
X10111666Y42434583D01*
X10111666Y44184583D01*
X11445000Y42517916D02*
X11695000Y42434583D01*
X12111666Y42434583D01*
X12278333Y42517916D01*
X12361666Y42601250D01*
X12445000Y42767916D01*
X12445000Y42934583D01*
X12361666Y43101250D01*
X12278333Y43184583D01*
X12111666Y43267916D01*
X11778333Y43351250D01*
X11611666Y43434583D01*
X11528333Y43517916D01*
X11445000Y43684583D01*
X11445000Y43851250D01*
X11528333Y44017916D01*
X11611666Y44101250D01*
X11778333Y44184583D01*
X12195000Y44184583D01*
X12445000Y44101250D01*
X13028333Y44184583D02*
X13445000Y42434583D01*
X13778333Y43684583D01*
X14111666Y42434583D01*
X14528333Y44184583D01*
X16361666Y44184583D02*
X17528333Y42434583D01*
X17528333Y44184583D02*
X16361666Y42434583D01*
X19528333Y42434583D02*
X19528333Y44184583D01*
X20361666Y42434583D02*
X20361666Y44184583D01*
X21361666Y42434583D01*
X21361666Y44184583D01*
X11028333Y41283750D02*
X10861666Y41367083D01*
X10611666Y41367083D01*
X10361666Y41283750D01*
X10195000Y41117083D01*
X10111666Y40950416D01*
X10028333Y40617083D01*
X10028333Y40367083D01*
X10111666Y40033750D01*
X10195000Y39867083D01*
X10361666Y39700416D01*
X10611666Y39617083D01*
X10778333Y39617083D01*
X11028333Y39700416D01*
X11111666Y39783750D01*
X11111666Y40367083D01*
X10778333Y40367083D01*
X11861666Y39617083D02*
X11861666Y41367083D01*
X12861666Y39617083D01*
X12861666Y41367083D01*
X13695000Y39617083D02*
X13695000Y41367083D01*
X14111666Y41367083D01*
X14361666Y41283750D01*
X14528333Y41117083D01*
X14611666Y40950416D01*
X14695000Y40617083D01*
X14695000Y40367083D01*
X14611666Y40033750D01*
X14528333Y39867083D01*
X14361666Y39700416D01*
X14111666Y39617083D01*
X13695000Y39617083D01*
X10945000Y36799583D02*
X10111666Y36799583D01*
X10111666Y38549583D01*
X11445000Y36882916D02*
X11695000Y36799583D01*
X12111666Y36799583D01*
X12278333Y36882916D01*
X12361666Y36966250D01*
X12445000Y37132916D01*
X12445000Y37299583D01*
X12361666Y37466250D01*
X12278333Y37549583D01*
X12111666Y37632916D01*
X11778333Y37716250D01*
X11611666Y37799583D01*
X11528333Y37882916D01*
X11445000Y38049583D01*
X11445000Y38216250D01*
X11528333Y38382916D01*
X11611666Y38466250D01*
X11778333Y38549583D01*
X12195000Y38549583D01*
X12445000Y38466250D01*
X13028333Y38549583D02*
X13445000Y36799583D01*
X13778333Y38049583D01*
X14111666Y36799583D01*
X14528333Y38549583D01*
X17361666Y36799583D02*
X16528333Y36799583D01*
X16528333Y38549583D01*
X17945000Y37716250D02*
X18528333Y37716250D01*
X18778333Y36799583D02*
X17945000Y36799583D01*
X17945000Y38549583D01*
X18778333Y38549583D01*
X19528333Y36799583D02*
X19528333Y38549583D01*
X19945000Y38549583D01*
X20195000Y38466250D01*
X20361666Y38299583D01*
X20445000Y38132916D01*
X20528333Y37799583D01*
X20528333Y37549583D01*
X20445000Y37216250D01*
X20361666Y37049583D01*
X20195000Y36882916D01*
X19945000Y36799583D01*
X19528333Y36799583D01*
X11028333Y35648750D02*
X10861666Y35732083D01*
X10611666Y35732083D01*
X10361666Y35648750D01*
X10195000Y35482083D01*
X10111666Y35315416D01*
X10028333Y34982083D01*
X10028333Y34732083D01*
X10111666Y34398750D01*
X10195000Y34232083D01*
X10361666Y34065416D01*
X10611666Y33982083D01*
X10778333Y33982083D01*
X11028333Y34065416D01*
X11111666Y34148750D01*
X11111666Y34732083D01*
X10778333Y34732083D01*
X11861666Y33982083D02*
X11861666Y35732083D01*
X12861666Y33982083D01*
X12861666Y35732083D01*
X13695000Y33982083D02*
X13695000Y35732083D01*
X14111666Y35732083D01*
X14361666Y35648750D01*
X14528333Y35482083D01*
X14611666Y35315416D01*
X14695000Y34982083D01*
X14695000Y34732083D01*
X14611666Y34398750D01*
X14528333Y34232083D01*
X14361666Y34065416D01*
X14111666Y33982083D01*
X13695000Y33982083D01*
X10945000Y20775833D02*
X10111666Y20775833D01*
X10028333Y19942500D01*
X10111666Y20025833D01*
X10278333Y20109166D01*
X10695000Y20109166D01*
X10861666Y20025833D01*
X10945000Y19942500D01*
X11028333Y19775833D01*
X11028333Y19359166D01*
X10945000Y19192500D01*
X10861666Y19109166D01*
X10695000Y19025833D01*
X10278333Y19025833D01*
X10111666Y19109166D01*
X10028333Y19192500D01*
X11528333Y20775833D02*
X12111666Y19025833D01*
X12695000Y20775833D01*
X13278333Y19692500D02*
X14611666Y19692500D01*
X13945000Y19025833D02*
X13945000Y20359166D01*
X10695000Y17125000D02*
X10111666Y17125000D01*
X10111666Y16208333D02*
X10111666Y17958333D01*
X10945000Y17958333D01*
X12445000Y16208333D02*
X11611666Y16208333D01*
X11611666Y17958333D01*
X13361666Y17958333D02*
X13695000Y17958333D01*
X13861666Y17875000D01*
X14028333Y17708333D01*
X14111666Y17375000D01*
X14111666Y16791666D01*
X14028333Y16458333D01*
X13861666Y16291666D01*
X13695000Y16208333D01*
X13361666Y16208333D01*
X13195000Y16291666D01*
X13028333Y16458333D01*
X12945000Y16791666D01*
X12945000Y17375000D01*
X13028333Y17708333D01*
X13195000Y17875000D01*
X13361666Y17958333D01*
X14695000Y17958333D02*
X15111666Y16208333D01*
X15445000Y17458333D01*
X15778333Y16208333D01*
X16195000Y17958333D01*
X18111666Y16291666D02*
X18361666Y16208333D01*
X18778333Y16208333D01*
X18945000Y16291666D01*
X19028333Y16375000D01*
X19111666Y16541666D01*
X19111666Y16708333D01*
X19028333Y16875000D01*
X18945000Y16958333D01*
X18778333Y17041666D01*
X18445000Y17125000D01*
X18278333Y17208333D01*
X18195000Y17291666D01*
X18111666Y17458333D01*
X18111666Y17625000D01*
X18195000Y17791666D01*
X18278333Y17875000D01*
X18445000Y17958333D01*
X18861666Y17958333D01*
X19111666Y17875000D01*
X19861666Y17125000D02*
X20445000Y17125000D01*
X20695000Y16208333D02*
X19861666Y16208333D01*
X19861666Y17958333D01*
X20695000Y17958333D01*
X21445000Y16208333D02*
X21445000Y17958333D01*
X22445000Y16208333D01*
X22445000Y17958333D01*
X23195000Y16291666D02*
X23445000Y16208333D01*
X23861666Y16208333D01*
X24028333Y16291666D01*
X24111666Y16375000D01*
X24195000Y16541666D01*
X24195000Y16708333D01*
X24111666Y16875000D01*
X24028333Y16958333D01*
X23861666Y17041666D01*
X23528333Y17125000D01*
X23361666Y17208333D01*
X23278333Y17291666D01*
X23195000Y17458333D01*
X23195000Y17625000D01*
X23278333Y17791666D01*
X23361666Y17875000D01*
X23528333Y17958333D01*
X23945000Y17958333D01*
X24195000Y17875000D01*
X11028333Y15057500D02*
X10861666Y15140833D01*
X10611666Y15140833D01*
X10361666Y15057500D01*
X10195000Y14890833D01*
X10111666Y14724166D01*
X10028333Y14390833D01*
X10028333Y14140833D01*
X10111666Y13807500D01*
X10195000Y13640833D01*
X10361666Y13474166D01*
X10611666Y13390833D01*
X10778333Y13390833D01*
X11028333Y13474166D01*
X11111666Y13557500D01*
X11111666Y14140833D01*
X10778333Y14140833D01*
X11861666Y13390833D02*
X11861666Y15140833D01*
X12861666Y13390833D01*
X12861666Y15140833D01*
X13695000Y13390833D02*
X13695000Y15140833D01*
X14111666Y15140833D01*
X14361666Y15057500D01*
X14528333Y14890833D01*
X14611666Y14724166D01*
X14695000Y14390833D01*
X14695000Y14140833D01*
X14611666Y13807500D01*
X14528333Y13640833D01*
X14361666Y13474166D01*
X14111666Y13390833D01*
X13695000Y13390833D01*
X10945000Y55934583D02*
X10111666Y55934583D01*
X10111666Y57684583D01*
X11445000Y56017916D02*
X11695000Y55934583D01*
X12111666Y55934583D01*
X12278333Y56017916D01*
X12361666Y56101250D01*
X12445000Y56267916D01*
X12445000Y56434583D01*
X12361666Y56601250D01*
X12278333Y56684583D01*
X12111666Y56767916D01*
X11778333Y56851250D01*
X11611666Y56934583D01*
X11528333Y57017916D01*
X11445000Y57184583D01*
X11445000Y57351250D01*
X11528333Y57517916D01*
X11611666Y57601250D01*
X11778333Y57684583D01*
X12195000Y57684583D01*
X12445000Y57601250D01*
X13028333Y57684583D02*
X13445000Y55934583D01*
X13778333Y57184583D01*
X14111666Y55934583D01*
X14528333Y57684583D01*
X16861666Y56767916D02*
X16861666Y55934583D01*
X16278333Y57684583D02*
X16861666Y56767916D01*
X17445000Y57684583D01*
X19361666Y55934583D02*
X19361666Y57684583D01*
X20195000Y55934583D02*
X20195000Y57684583D01*
X21195000Y55934583D01*
X21195000Y57684583D01*
X11028333Y54783750D02*
X10861666Y54867083D01*
X10611666Y54867083D01*
X10361666Y54783750D01*
X10195000Y54617083D01*
X10111666Y54450416D01*
X10028333Y54117083D01*
X10028333Y53867083D01*
X10111666Y53533750D01*
X10195000Y53367083D01*
X10361666Y53200416D01*
X10611666Y53117083D01*
X10778333Y53117083D01*
X11028333Y53200416D01*
X11111666Y53283750D01*
X11111666Y53867083D01*
X10778333Y53867083D01*
X11861666Y53117083D02*
X11861666Y54867083D01*
X12861666Y53117083D01*
X12861666Y54867083D01*
X13695000Y53117083D02*
X13695000Y54867083D01*
X14111666Y54867083D01*
X14361666Y54783750D01*
X14528333Y54617083D01*
X14611666Y54450416D01*
X14695000Y54117083D01*
X14695000Y53867083D01*
X14611666Y53533750D01*
X14528333Y53367083D01*
X14361666Y53200416D01*
X14111666Y53117083D01*
X13695000Y53117083D01*
X10945000Y50299583D02*
X10111666Y50299583D01*
X10111666Y52049583D01*
X11445000Y50382916D02*
X11695000Y50299583D01*
X12111666Y50299583D01*
X12278333Y50382916D01*
X12361666Y50466250D01*
X12445000Y50632916D01*
X12445000Y50799583D01*
X12361666Y50966250D01*
X12278333Y51049583D01*
X12111666Y51132916D01*
X11778333Y51216250D01*
X11611666Y51299583D01*
X11528333Y51382916D01*
X11445000Y51549583D01*
X11445000Y51716250D01*
X11528333Y51882916D01*
X11611666Y51966250D01*
X11778333Y52049583D01*
X12195000Y52049583D01*
X12445000Y51966250D01*
X13028333Y52049583D02*
X13445000Y50299583D01*
X13778333Y51549583D01*
X14111666Y50299583D01*
X14528333Y52049583D01*
X17361666Y50299583D02*
X16528333Y50299583D01*
X16528333Y52049583D01*
X17945000Y51216250D02*
X18528333Y51216250D01*
X18778333Y50299583D02*
X17945000Y50299583D01*
X17945000Y52049583D01*
X18778333Y52049583D01*
X19528333Y50299583D02*
X19528333Y52049583D01*
X19945000Y52049583D01*
X20195000Y51966250D01*
X20361666Y51799583D01*
X20445000Y51632916D01*
X20528333Y51299583D01*
X20528333Y51049583D01*
X20445000Y50716250D01*
X20361666Y50549583D01*
X20195000Y50382916D01*
X19945000Y50299583D01*
X19528333Y50299583D01*
X11028333Y49148750D02*
X10861666Y49232083D01*
X10611666Y49232083D01*
X10361666Y49148750D01*
X10195000Y48982083D01*
X10111666Y48815416D01*
X10028333Y48482083D01*
X10028333Y48232083D01*
X10111666Y47898750D01*
X10195000Y47732083D01*
X10361666Y47565416D01*
X10611666Y47482083D01*
X10778333Y47482083D01*
X11028333Y47565416D01*
X11111666Y47648750D01*
X11111666Y48232083D01*
X10778333Y48232083D01*
X11861666Y47482083D02*
X11861666Y49232083D01*
X12861666Y47482083D01*
X12861666Y49232083D01*
X13695000Y47482083D02*
X13695000Y49232083D01*
X14111666Y49232083D01*
X14361666Y49148750D01*
X14528333Y48982083D01*
X14611666Y48815416D01*
X14695000Y48482083D01*
X14695000Y48232083D01*
X14611666Y47898750D01*
X14528333Y47732083D01*
X14361666Y47565416D01*
X14111666Y47482083D01*
X13695000Y47482083D01*
X10111666Y28117083D02*
X10111666Y29867083D01*
X10528333Y29867083D01*
X10778333Y29783750D01*
X10945000Y29617083D01*
X11028333Y29450416D01*
X11111666Y29117083D01*
X11111666Y28867083D01*
X11028333Y28533750D01*
X10945000Y28367083D01*
X10778333Y28200416D01*
X10528333Y28117083D01*
X10111666Y28117083D01*
X12195000Y29867083D02*
X12528333Y29867083D01*
X12695000Y29783750D01*
X12861666Y29617083D01*
X12945000Y29283750D01*
X12945000Y28700416D01*
X12861666Y28367083D01*
X12695000Y28200416D01*
X12528333Y28117083D01*
X12195000Y28117083D01*
X12028333Y28200416D01*
X11861666Y28367083D01*
X11778333Y28700416D01*
X11778333Y29283750D01*
X11861666Y29617083D01*
X12028333Y29783750D01*
X12195000Y29867083D01*
X14028333Y29867083D02*
X14361666Y29867083D01*
X14528333Y29783750D01*
X14695000Y29617083D01*
X14778333Y29283750D01*
X14778333Y28700416D01*
X14695000Y28367083D01*
X14528333Y28200416D01*
X14361666Y28117083D01*
X14028333Y28117083D01*
X13861666Y28200416D01*
X13695000Y28367083D01*
X13611666Y28700416D01*
X13611666Y29283750D01*
X13695000Y29617083D01*
X13861666Y29783750D01*
X14028333Y29867083D01*
X16528333Y28117083D02*
X15945000Y28950416D01*
X15528333Y28117083D02*
X15528333Y29867083D01*
X16195000Y29867083D01*
X16361666Y29783750D01*
X16445000Y29700416D01*
X16528333Y29533750D01*
X16528333Y29283750D01*
X16445000Y29117083D01*
X16361666Y29033750D01*
X16195000Y28950416D01*
X15528333Y28950416D01*
X18528333Y28200416D02*
X18778333Y28117083D01*
X19195000Y28117083D01*
X19361666Y28200416D01*
X19445000Y28283750D01*
X19528333Y28450416D01*
X19528333Y28617083D01*
X19445000Y28783750D01*
X19361666Y28867083D01*
X19195000Y28950416D01*
X18861666Y29033750D01*
X18695000Y29117083D01*
X18611666Y29200416D01*
X18528333Y29367083D01*
X18528333Y29533750D01*
X18611666Y29700416D01*
X18695000Y29783750D01*
X18861666Y29867083D01*
X19278333Y29867083D01*
X19528333Y29783750D01*
X20111666Y29867083D02*
X20528333Y28117083D01*
X20861666Y29367083D01*
X21195000Y28117083D01*
X21611666Y29867083D01*
X11028333Y26966250D02*
X10861666Y27049583D01*
X10611666Y27049583D01*
X10361666Y26966250D01*
X10195000Y26799583D01*
X10111666Y26632916D01*
X10028333Y26299583D01*
X10028333Y26049583D01*
X10111666Y25716250D01*
X10195000Y25549583D01*
X10361666Y25382916D01*
X10611666Y25299583D01*
X10778333Y25299583D01*
X11028333Y25382916D01*
X11111666Y25466250D01*
X11111666Y26049583D01*
X10778333Y26049583D01*
X11861666Y25299583D02*
X11861666Y27049583D01*
X12861666Y25299583D01*
X12861666Y27049583D01*
X13695000Y25299583D02*
X13695000Y27049583D01*
X14111666Y27049583D01*
X14361666Y26966250D01*
X14528333Y26799583D01*
X14611666Y26632916D01*
X14695000Y26299583D01*
X14695000Y26049583D01*
X14611666Y25716250D01*
X14528333Y25549583D01*
X14361666Y25382916D01*
X14111666Y25299583D01*
X13695000Y25299583D01*
X118382916Y49445000D02*
X118382916Y48611666D01*
X116632916Y48611666D01*
X118299583Y49945000D02*
X118382916Y50195000D01*
X118382916Y50611666D01*
X118299583Y50778333D01*
X118216250Y50861666D01*
X118049583Y50945000D01*
X117882916Y50945000D01*
X117716250Y50861666D01*
X117632916Y50778333D01*
X117549583Y50611666D01*
X117466250Y50278333D01*
X117382916Y50111666D01*
X117299583Y50028333D01*
X117132916Y49945000D01*
X116966250Y49945000D01*
X116799583Y50028333D01*
X116716250Y50111666D01*
X116632916Y50278333D01*
X116632916Y50695000D01*
X116716250Y50945000D01*
X116632916Y51528333D02*
X118382916Y51945000D01*
X117132916Y52278333D01*
X118382916Y52611666D01*
X116632916Y53028333D01*
X116632916Y54861666D02*
X118382916Y56028333D01*
X116632916Y56028333D02*
X118382916Y54861666D01*
X121200416Y49445000D02*
X121200416Y48611666D01*
X119450416Y48611666D01*
X121117083Y49945000D02*
X121200416Y50195000D01*
X121200416Y50611666D01*
X121117083Y50778333D01*
X121033750Y50861666D01*
X120867083Y50945000D01*
X120700416Y50945000D01*
X120533750Y50861666D01*
X120450416Y50778333D01*
X120367083Y50611666D01*
X120283750Y50278333D01*
X120200416Y50111666D01*
X120117083Y50028333D01*
X119950416Y49945000D01*
X119783750Y49945000D01*
X119617083Y50028333D01*
X119533750Y50111666D01*
X119450416Y50278333D01*
X119450416Y50695000D01*
X119533750Y50945000D01*
X119450416Y51528333D02*
X121200416Y51945000D01*
X119950416Y52278333D01*
X121200416Y52611666D01*
X119450416Y53028333D01*
X120367083Y55361666D02*
X121200416Y55361666D01*
X119450416Y54778333D02*
X120367083Y55361666D01*
X119450416Y55945000D01*
X136291666Y1611666D02*
X134541666Y1611666D01*
X134541666Y2028333D01*
X134625000Y2278333D01*
X134791666Y2445000D01*
X134958333Y2528333D01*
X135291666Y2611666D01*
X135541666Y2611666D01*
X135875000Y2528333D01*
X136041666Y2445000D01*
X136208333Y2278333D01*
X136291666Y2028333D01*
X136291666Y1611666D01*
X134541666Y3695000D02*
X134541666Y4028333D01*
X134625000Y4195000D01*
X134791666Y4361666D01*
X135125000Y4445000D01*
X135708333Y4445000D01*
X136041666Y4361666D01*
X136208333Y4195000D01*
X136291666Y4028333D01*
X136291666Y3695000D01*
X136208333Y3528333D01*
X136041666Y3361666D01*
X135708333Y3278333D01*
X135125000Y3278333D01*
X134791666Y3361666D01*
X134625000Y3528333D01*
X134541666Y3695000D01*
X134541666Y5528333D02*
X134541666Y5861666D01*
X134625000Y6028333D01*
X134791666Y6195000D01*
X135125000Y6278333D01*
X135708333Y6278333D01*
X136041666Y6195000D01*
X136208333Y6028333D01*
X136291666Y5861666D01*
X136291666Y5528333D01*
X136208333Y5361666D01*
X136041666Y5195000D01*
X135708333Y5111666D01*
X135125000Y5111666D01*
X134791666Y5195000D01*
X134625000Y5361666D01*
X134541666Y5528333D01*
X136291666Y8028333D02*
X135458333Y7445000D01*
X136291666Y7028333D02*
X134541666Y7028333D01*
X134541666Y7695000D01*
X134625000Y7861666D01*
X134708333Y7945000D01*
X134875000Y8028333D01*
X135125000Y8028333D01*
X135291666Y7945000D01*
X135375000Y7861666D01*
X135458333Y7695000D01*
X135458333Y7028333D01*
X137028333Y61617083D02*
X136028333Y61617083D01*
X136528333Y61617083D02*
X136528333Y63367083D01*
X136361666Y63117083D01*
X136195000Y62950416D01*
X136028333Y62867083D01*
X137695000Y63200416D02*
X137778333Y63283750D01*
X137945000Y63367083D01*
X138361666Y63367083D01*
X138528333Y63283750D01*
X138611666Y63200416D01*
X138695000Y63033750D01*
X138695000Y62867083D01*
X138611666Y62617083D01*
X137611666Y61617083D01*
X138695000Y61617083D01*
X139195000Y63367083D02*
X139778333Y61617083D01*
X140361666Y63367083D01*
X137028333Y60466250D02*
X136861666Y60549583D01*
X136611666Y60549583D01*
X136361666Y60466250D01*
X136195000Y60299583D01*
X136111666Y60132916D01*
X136028333Y59799583D01*
X136028333Y59549583D01*
X136111666Y59216250D01*
X136195000Y59049583D01*
X136361666Y58882916D01*
X136611666Y58799583D01*
X136778333Y58799583D01*
X137028333Y58882916D01*
X137111666Y58966250D01*
X137111666Y59549583D01*
X136778333Y59549583D01*
X137861666Y58799583D02*
X137861666Y60549583D01*
X138861666Y58799583D01*
X138861666Y60549583D01*
X139695000Y58799583D02*
X139695000Y60549583D01*
X140111666Y60549583D01*
X140361666Y60466250D01*
X140528333Y60299583D01*
X140611666Y60132916D01*
X140695000Y59799583D01*
X140695000Y59549583D01*
X140611666Y59216250D01*
X140528333Y59049583D01*
X140361666Y58882916D01*
X140111666Y58799583D01*
X139695000Y58799583D01*
X13028333Y83692500D02*
X12861666Y83775833D01*
X12611666Y83775833D01*
X12361666Y83692500D01*
X12195000Y83525833D01*
X12111666Y83359166D01*
X12028333Y83025833D01*
X12028333Y82775833D01*
X12111666Y82442500D01*
X12195000Y82275833D01*
X12361666Y82109166D01*
X12611666Y82025833D01*
X12778333Y82025833D01*
X13028333Y82109166D01*
X13111666Y82192500D01*
X13111666Y82775833D01*
X12778333Y82775833D01*
X13861666Y82025833D02*
X13861666Y83775833D01*
X14861666Y82025833D01*
X14861666Y83775833D01*
X15695000Y82025833D02*
X15695000Y83775833D01*
X16111666Y83775833D01*
X16361666Y83692500D01*
X16528333Y83525833D01*
X16611666Y83359166D01*
X16695000Y83025833D01*
X16695000Y82775833D01*
X16611666Y82442500D01*
X16528333Y82275833D01*
X16361666Y82109166D01*
X16111666Y82025833D01*
X15695000Y82025833D01*
X12028333Y77974166D02*
X12111666Y78057500D01*
X12278333Y78140833D01*
X12695000Y78140833D01*
X12861666Y78057500D01*
X12945000Y77974166D01*
X13028333Y77807500D01*
X13028333Y77640833D01*
X12945000Y77390833D01*
X11945000Y76390833D01*
X13028333Y76390833D01*
X14528333Y77557500D02*
X14528333Y76390833D01*
X14111666Y78224166D02*
X13695000Y76974166D01*
X14778333Y76974166D01*
X15195000Y78140833D02*
X15778333Y76390833D01*
X16361666Y78140833D01*
X18278333Y76390833D02*
X18278333Y78140833D01*
X19111666Y76390833D02*
X19111666Y78140833D01*
X20111666Y76390833D01*
X20111666Y78140833D01*
X122375000Y2195000D02*
X122375000Y1611666D01*
X123291666Y1611666D02*
X121541666Y1611666D01*
X121541666Y2445000D01*
X123291666Y3945000D02*
X123291666Y3111666D01*
X121541666Y3111666D01*
X121541666Y4861666D02*
X121541666Y5195000D01*
X121625000Y5361666D01*
X121791666Y5528333D01*
X122125000Y5611666D01*
X122708333Y5611666D01*
X123041666Y5528333D01*
X123208333Y5361666D01*
X123291666Y5195000D01*
X123291666Y4861666D01*
X123208333Y4695000D01*
X123041666Y4528333D01*
X122708333Y4445000D01*
X122125000Y4445000D01*
X121791666Y4528333D01*
X121625000Y4695000D01*
X121541666Y4861666D01*
X121541666Y6195000D02*
X123291666Y6611666D01*
X122041666Y6945000D01*
X123291666Y7278333D01*
X121541666Y7695000D01*
X121541666Y10028333D02*
X121541666Y10361666D01*
X121625000Y10528333D01*
X121791666Y10695000D01*
X122125000Y10778333D01*
X122708333Y10778333D01*
X123041666Y10695000D01*
X123208333Y10528333D01*
X123291666Y10361666D01*
X123291666Y10028333D01*
X123208333Y9861666D01*
X123041666Y9695000D01*
X122708333Y9611666D01*
X122125000Y9611666D01*
X121791666Y9695000D01*
X121625000Y9861666D01*
X121541666Y10028333D01*
X91861666Y52593333D02*
X92445000Y50843333D01*
X93028333Y52593333D01*
X94611666Y51010000D02*
X94528333Y50926666D01*
X94278333Y50843333D01*
X94111666Y50843333D01*
X93861666Y50926666D01*
X93695000Y51093333D01*
X93611666Y51260000D01*
X93528333Y51593333D01*
X93528333Y51843333D01*
X93611666Y52176666D01*
X93695000Y52343333D01*
X93861666Y52510000D01*
X94111666Y52593333D01*
X94278333Y52593333D01*
X94528333Y52510000D01*
X94611666Y52426666D01*
X96361666Y51010000D02*
X96278333Y50926666D01*
X96028333Y50843333D01*
X95861666Y50843333D01*
X95611666Y50926666D01*
X95445000Y51093333D01*
X95361666Y51260000D01*
X95278333Y51593333D01*
X95278333Y51843333D01*
X95361666Y52176666D01*
X95445000Y52343333D01*
X95611666Y52510000D01*
X95861666Y52593333D01*
X96028333Y52593333D01*
X96278333Y52510000D01*
X96361666Y52426666D01*
X92445000Y49775833D02*
X92778333Y49775833D01*
X92945000Y49692500D01*
X93111666Y49525833D01*
X93195000Y49192500D01*
X93195000Y48609166D01*
X93111666Y48275833D01*
X92945000Y48109166D01*
X92778333Y48025833D01*
X92445000Y48025833D01*
X92278333Y48109166D01*
X92111666Y48275833D01*
X92028333Y48609166D01*
X92028333Y49192500D01*
X92111666Y49525833D01*
X92278333Y49692500D01*
X92445000Y49775833D01*
X94945000Y48192500D02*
X94861666Y48109166D01*
X94611666Y48025833D01*
X94445000Y48025833D01*
X94195000Y48109166D01*
X94028333Y48275833D01*
X93945000Y48442500D01*
X93861666Y48775833D01*
X93861666Y49025833D01*
X93945000Y49359166D01*
X94028333Y49525833D01*
X94195000Y49692500D01*
X94445000Y49775833D01*
X94611666Y49775833D01*
X94861666Y49692500D01*
X94945000Y49609166D01*
X95695000Y48692500D02*
X97028333Y48692500D01*
X97861666Y48025833D02*
X97861666Y49775833D01*
X98278333Y49775833D01*
X98528333Y49692500D01*
X98695000Y49525833D01*
X98778333Y49359166D01*
X98861666Y49025833D01*
X98861666Y48775833D01*
X98778333Y48442500D01*
X98695000Y48275833D01*
X98528333Y48109166D01*
X98278333Y48025833D01*
X97861666Y48025833D01*
X99945000Y49775833D02*
X100278333Y49775833D01*
X100445000Y49692500D01*
X100611666Y49525833D01*
X100695000Y49192500D01*
X100695000Y48609166D01*
X100611666Y48275833D01*
X100445000Y48109166D01*
X100278333Y48025833D01*
X99945000Y48025833D01*
X99778333Y48109166D01*
X99611666Y48275833D01*
X99528333Y48609166D01*
X99528333Y49192500D01*
X99611666Y49525833D01*
X99778333Y49692500D01*
X99945000Y49775833D01*
X101778333Y49775833D02*
X102111666Y49775833D01*
X102278333Y49692500D01*
X102445000Y49525833D01*
X102528333Y49192500D01*
X102528333Y48609166D01*
X102445000Y48275833D01*
X102278333Y48109166D01*
X102111666Y48025833D01*
X101778333Y48025833D01*
X101611666Y48109166D01*
X101445000Y48275833D01*
X101361666Y48609166D01*
X101361666Y49192500D01*
X101445000Y49525833D01*
X101611666Y49692500D01*
X101778333Y49775833D01*
X104278333Y48025833D02*
X103695000Y48859166D01*
X103278333Y48025833D02*
X103278333Y49775833D01*
X103945000Y49775833D01*
X104111666Y49692500D01*
X104195000Y49609166D01*
X104278333Y49442500D01*
X104278333Y49192500D01*
X104195000Y49025833D01*
X104111666Y48942500D01*
X103945000Y48859166D01*
X103278333Y48859166D01*
X92445000Y46958333D02*
X92778333Y46958333D01*
X92945000Y46875000D01*
X93111666Y46708333D01*
X93195000Y46375000D01*
X93195000Y45791666D01*
X93111666Y45458333D01*
X92945000Y45291666D01*
X92778333Y45208333D01*
X92445000Y45208333D01*
X92278333Y45291666D01*
X92111666Y45458333D01*
X92028333Y45791666D01*
X92028333Y46375000D01*
X92111666Y46708333D01*
X92278333Y46875000D01*
X92445000Y46958333D01*
X94945000Y45375000D02*
X94861666Y45291666D01*
X94611666Y45208333D01*
X94445000Y45208333D01*
X94195000Y45291666D01*
X94028333Y45458333D01*
X93945000Y45625000D01*
X93861666Y45958333D01*
X93861666Y46208333D01*
X93945000Y46541666D01*
X94028333Y46708333D01*
X94195000Y46875000D01*
X94445000Y46958333D01*
X94611666Y46958333D01*
X94861666Y46875000D01*
X94945000Y46791666D01*
X95695000Y45875000D02*
X97028333Y45875000D01*
X98445000Y46125000D02*
X97861666Y46125000D01*
X97861666Y45208333D02*
X97861666Y46958333D01*
X98695000Y46958333D01*
X100195000Y45208333D02*
X99361666Y45208333D01*
X99361666Y46958333D01*
X101111666Y46958333D02*
X101445000Y46958333D01*
X101611666Y46875000D01*
X101778333Y46708333D01*
X101861666Y46375000D01*
X101861666Y45791666D01*
X101778333Y45458333D01*
X101611666Y45291666D01*
X101445000Y45208333D01*
X101111666Y45208333D01*
X100945000Y45291666D01*
X100778333Y45458333D01*
X100695000Y45791666D01*
X100695000Y46375000D01*
X100778333Y46708333D01*
X100945000Y46875000D01*
X101111666Y46958333D01*
X102445000Y46958333D02*
X102861666Y45208333D01*
X103195000Y46458333D01*
X103528333Y45208333D01*
X103945000Y46958333D01*
X104611666Y45875000D02*
X105945000Y45875000D01*
X106778333Y45208333D02*
X106778333Y46958333D01*
X92445000Y44140833D02*
X92778333Y44140833D01*
X92945000Y44057500D01*
X93111666Y43890833D01*
X93195000Y43557500D01*
X93195000Y42974166D01*
X93111666Y42640833D01*
X92945000Y42474166D01*
X92778333Y42390833D01*
X92445000Y42390833D01*
X92278333Y42474166D01*
X92111666Y42640833D01*
X92028333Y42974166D01*
X92028333Y43557500D01*
X92111666Y43890833D01*
X92278333Y44057500D01*
X92445000Y44140833D01*
X94945000Y42557500D02*
X94861666Y42474166D01*
X94611666Y42390833D01*
X94445000Y42390833D01*
X94195000Y42474166D01*
X94028333Y42640833D01*
X93945000Y42807500D01*
X93861666Y43140833D01*
X93861666Y43390833D01*
X93945000Y43724166D01*
X94028333Y43890833D01*
X94195000Y44057500D01*
X94445000Y44140833D01*
X94611666Y44140833D01*
X94861666Y44057500D01*
X94945000Y43974166D01*
X95695000Y43057500D02*
X97028333Y43057500D01*
X98445000Y43307500D02*
X97861666Y43307500D01*
X97861666Y42390833D02*
X97861666Y44140833D01*
X98695000Y44140833D01*
X100195000Y42390833D02*
X99361666Y42390833D01*
X99361666Y44140833D01*
X101111666Y44140833D02*
X101445000Y44140833D01*
X101611666Y44057500D01*
X101778333Y43890833D01*
X101861666Y43557500D01*
X101861666Y42974166D01*
X101778333Y42640833D01*
X101611666Y42474166D01*
X101445000Y42390833D01*
X101111666Y42390833D01*
X100945000Y42474166D01*
X100778333Y42640833D01*
X100695000Y42974166D01*
X100695000Y43557500D01*
X100778333Y43890833D01*
X100945000Y44057500D01*
X101111666Y44140833D01*
X102445000Y44140833D02*
X102861666Y42390833D01*
X103195000Y43640833D01*
X103528333Y42390833D01*
X103945000Y44140833D01*
X104611666Y43057500D02*
X105945000Y43057500D01*
X107111666Y44140833D02*
X107445000Y44140833D01*
X107611666Y44057500D01*
X107778333Y43890833D01*
X107861666Y43557500D01*
X107861666Y42974166D01*
X107778333Y42640833D01*
X107611666Y42474166D01*
X107445000Y42390833D01*
X107111666Y42390833D01*
X106945000Y42474166D01*
X106778333Y42640833D01*
X106695000Y42974166D01*
X106695000Y43557500D01*
X106778333Y43890833D01*
X106945000Y44057500D01*
X107111666Y44140833D01*
X93028333Y41240000D02*
X92861666Y41323333D01*
X92611666Y41323333D01*
X92361666Y41240000D01*
X92195000Y41073333D01*
X92111666Y40906666D01*
X92028333Y40573333D01*
X92028333Y40323333D01*
X92111666Y39990000D01*
X92195000Y39823333D01*
X92361666Y39656666D01*
X92611666Y39573333D01*
X92778333Y39573333D01*
X93028333Y39656666D01*
X93111666Y39740000D01*
X93111666Y40323333D01*
X92778333Y40323333D01*
X93861666Y39573333D02*
X93861666Y41323333D01*
X94861666Y39573333D01*
X94861666Y41323333D01*
X95695000Y39573333D02*
X95695000Y41323333D01*
X96111666Y41323333D01*
X96361666Y41240000D01*
X96528333Y41073333D01*
X96611666Y40906666D01*
X96695000Y40573333D01*
X96695000Y40323333D01*
X96611666Y39990000D01*
X96528333Y39823333D01*
X96361666Y39656666D01*
X96111666Y39573333D01*
X95695000Y39573333D01*
X136028333Y75200416D02*
X136278333Y75117083D01*
X136695000Y75117083D01*
X136861666Y75200416D01*
X136945000Y75283750D01*
X137028333Y75450416D01*
X137028333Y75617083D01*
X136945000Y75783750D01*
X136861666Y75867083D01*
X136695000Y75950416D01*
X136361666Y76033750D01*
X136195000Y76117083D01*
X136111666Y76200416D01*
X136028333Y76367083D01*
X136028333Y76533750D01*
X136111666Y76700416D01*
X136195000Y76783750D01*
X136361666Y76867083D01*
X136778333Y76867083D01*
X137028333Y76783750D01*
X137611666Y76867083D02*
X138028333Y75117083D01*
X138361666Y76367083D01*
X138695000Y75117083D01*
X139111666Y76867083D01*
X139695000Y76700416D02*
X139778333Y76783750D01*
X139945000Y76867083D01*
X140361666Y76867083D01*
X140528333Y76783750D01*
X140611666Y76700416D01*
X140695000Y76533750D01*
X140695000Y76367083D01*
X140611666Y76117083D01*
X139611666Y75117083D01*
X140695000Y75117083D01*
X137028333Y73966250D02*
X136861666Y74049583D01*
X136611666Y74049583D01*
X136361666Y73966250D01*
X136195000Y73799583D01*
X136111666Y73632916D01*
X136028333Y73299583D01*
X136028333Y73049583D01*
X136111666Y72716250D01*
X136195000Y72549583D01*
X136361666Y72382916D01*
X136611666Y72299583D01*
X136778333Y72299583D01*
X137028333Y72382916D01*
X137111666Y72466250D01*
X137111666Y73049583D01*
X136778333Y73049583D01*
X137861666Y72299583D02*
X137861666Y74049583D01*
X138861666Y72299583D01*
X138861666Y74049583D01*
X139695000Y72299583D02*
X139695000Y74049583D01*
X140111666Y74049583D01*
X140361666Y73966250D01*
X140528333Y73799583D01*
X140611666Y73632916D01*
X140695000Y73299583D01*
X140695000Y73049583D01*
X140611666Y72716250D01*
X140528333Y72549583D01*
X140361666Y72382916D01*
X140111666Y72299583D01*
X139695000Y72299583D01*
X136028333Y86200416D02*
X136278333Y86117083D01*
X136695000Y86117083D01*
X136861666Y86200416D01*
X136945000Y86283750D01*
X137028333Y86450416D01*
X137028333Y86617083D01*
X136945000Y86783750D01*
X136861666Y86867083D01*
X136695000Y86950416D01*
X136361666Y87033750D01*
X136195000Y87117083D01*
X136111666Y87200416D01*
X136028333Y87367083D01*
X136028333Y87533750D01*
X136111666Y87700416D01*
X136195000Y87783750D01*
X136361666Y87867083D01*
X136778333Y87867083D01*
X137028333Y87783750D01*
X137611666Y87867083D02*
X138028333Y86117083D01*
X138361666Y87367083D01*
X138695000Y86117083D01*
X139111666Y87867083D01*
X140695000Y86117083D02*
X139695000Y86117083D01*
X140195000Y86117083D02*
X140195000Y87867083D01*
X140028333Y87617083D01*
X139861666Y87450416D01*
X139695000Y87367083D01*
X137028333Y84966250D02*
X136861666Y85049583D01*
X136611666Y85049583D01*
X136361666Y84966250D01*
X136195000Y84799583D01*
X136111666Y84632916D01*
X136028333Y84299583D01*
X136028333Y84049583D01*
X136111666Y83716250D01*
X136195000Y83549583D01*
X136361666Y83382916D01*
X136611666Y83299583D01*
X136778333Y83299583D01*
X137028333Y83382916D01*
X137111666Y83466250D01*
X137111666Y84049583D01*
X136778333Y84049583D01*
X137861666Y83299583D02*
X137861666Y85049583D01*
X138861666Y83299583D01*
X138861666Y85049583D01*
X139695000Y83299583D02*
X139695000Y85049583D01*
X140111666Y85049583D01*
X140361666Y84966250D01*
X140528333Y84799583D01*
X140611666Y84632916D01*
X140695000Y84299583D01*
X140695000Y84049583D01*
X140611666Y83716250D01*
X140528333Y83549583D01*
X140361666Y83382916D01*
X140111666Y83299583D01*
X139695000Y83299583D01*
D10*
%TO.C,RV1*%
X111414761Y17832619D02*
X111081428Y18308809D01*
X110843333Y17832619D02*
X110843333Y18832619D01*
X111224285Y18832619D01*
X111319523Y18785000D01*
X111367142Y18737380D01*
X111414761Y18642142D01*
X111414761Y18499285D01*
X111367142Y18404047D01*
X111319523Y18356428D01*
X111224285Y18308809D01*
X110843333Y18308809D01*
X111700476Y18832619D02*
X112033809Y17832619D01*
X112367142Y18832619D01*
X113224285Y17832619D02*
X112652857Y17832619D01*
X112938571Y17832619D02*
X112938571Y18832619D01*
X112843333Y18689761D01*
X112748095Y18594523D01*
X112652857Y18546904D01*
%TO.C,RV2*%
X80792380Y5364761D02*
X80316190Y5031428D01*
X80792380Y4793333D02*
X79792380Y4793333D01*
X79792380Y5174285D01*
X79840000Y5269523D01*
X79887619Y5317142D01*
X79982857Y5364761D01*
X80125714Y5364761D01*
X80220952Y5317142D01*
X80268571Y5269523D01*
X80316190Y5174285D01*
X80316190Y4793333D01*
X79792380Y5650476D02*
X80792380Y5983809D01*
X79792380Y6317142D01*
X79887619Y6602857D02*
X79840000Y6650476D01*
X79792380Y6745714D01*
X79792380Y6983809D01*
X79840000Y7079047D01*
X79887619Y7126666D01*
X79982857Y7174285D01*
X80078095Y7174285D01*
X80220952Y7126666D01*
X80792380Y6555238D01*
X80792380Y7174285D01*
%TO.C,R1*%
X104952380Y68643333D02*
X104476190Y68310000D01*
X104952380Y68071904D02*
X103952380Y68071904D01*
X103952380Y68452857D01*
X104000000Y68548095D01*
X104047619Y68595714D01*
X104142857Y68643333D01*
X104285714Y68643333D01*
X104380952Y68595714D01*
X104428571Y68548095D01*
X104476190Y68452857D01*
X104476190Y68071904D01*
X104952380Y69595714D02*
X104952380Y69024285D01*
X104952380Y69310000D02*
X103952380Y69310000D01*
X104095238Y69214761D01*
X104190476Y69119523D01*
X104238095Y69024285D01*
%TO.C,R26*%
X140452380Y30357142D02*
X139976190Y30023809D01*
X140452380Y29785714D02*
X139452380Y29785714D01*
X139452380Y30166666D01*
X139500000Y30261904D01*
X139547619Y30309523D01*
X139642857Y30357142D01*
X139785714Y30357142D01*
X139880952Y30309523D01*
X139928571Y30261904D01*
X139976190Y30166666D01*
X139976190Y29785714D01*
X139547619Y30738095D02*
X139500000Y30785714D01*
X139452380Y30880952D01*
X139452380Y31119047D01*
X139500000Y31214285D01*
X139547619Y31261904D01*
X139642857Y31309523D01*
X139738095Y31309523D01*
X139880952Y31261904D01*
X140452380Y30690476D01*
X140452380Y31309523D01*
X139452380Y32166666D02*
X139452380Y31976190D01*
X139500000Y31880952D01*
X139547619Y31833333D01*
X139690476Y31738095D01*
X139880952Y31690476D01*
X140261904Y31690476D01*
X140357142Y31738095D01*
X140404761Y31785714D01*
X140452380Y31880952D01*
X140452380Y32071428D01*
X140404761Y32166666D01*
X140357142Y32214285D01*
X140261904Y32261904D01*
X140023809Y32261904D01*
X139928571Y32214285D01*
X139880952Y32166666D01*
X139833333Y32071428D01*
X139833333Y31880952D01*
X139880952Y31785714D01*
X139928571Y31738095D01*
X140023809Y31690476D01*
%TO.C,D3*%
X101452380Y96261904D02*
X100452380Y96261904D01*
X100452380Y96500000D01*
X100500000Y96642857D01*
X100595238Y96738095D01*
X100690476Y96785714D01*
X100880952Y96833333D01*
X101023809Y96833333D01*
X101214285Y96785714D01*
X101309523Y96738095D01*
X101404761Y96642857D01*
X101452380Y96500000D01*
X101452380Y96261904D01*
X100452380Y97166666D02*
X100452380Y97785714D01*
X100833333Y97452380D01*
X100833333Y97595238D01*
X100880952Y97690476D01*
X100928571Y97738095D01*
X101023809Y97785714D01*
X101261904Y97785714D01*
X101357142Y97738095D01*
X101404761Y97690476D01*
X101452380Y97595238D01*
X101452380Y97309523D01*
X101404761Y97214285D01*
X101357142Y97166666D01*
%TO.C,J12*%
X148852380Y37690476D02*
X149566666Y37690476D01*
X149709523Y37642857D01*
X149804761Y37547619D01*
X149852380Y37404761D01*
X149852380Y37309523D01*
X149852380Y38690476D02*
X149852380Y38119047D01*
X149852380Y38404761D02*
X148852380Y38404761D01*
X148995238Y38309523D01*
X149090476Y38214285D01*
X149138095Y38119047D01*
X148947619Y39071428D02*
X148900000Y39119047D01*
X148852380Y39214285D01*
X148852380Y39452380D01*
X148900000Y39547619D01*
X148947619Y39595238D01*
X149042857Y39642857D01*
X149138095Y39642857D01*
X149280952Y39595238D01*
X149852380Y39023809D01*
X149852380Y39642857D01*
%TO.C,R9*%
X38833333Y23547619D02*
X38500000Y24023809D01*
X38261904Y23547619D02*
X38261904Y24547619D01*
X38642857Y24547619D01*
X38738095Y24500000D01*
X38785714Y24452380D01*
X38833333Y24357142D01*
X38833333Y24214285D01*
X38785714Y24119047D01*
X38738095Y24071428D01*
X38642857Y24023809D01*
X38261904Y24023809D01*
X39309523Y23547619D02*
X39500000Y23547619D01*
X39595238Y23595238D01*
X39642857Y23642857D01*
X39738095Y23785714D01*
X39785714Y23976190D01*
X39785714Y24357142D01*
X39738095Y24452380D01*
X39690476Y24500000D01*
X39595238Y24547619D01*
X39404761Y24547619D01*
X39309523Y24500000D01*
X39261904Y24452380D01*
X39214285Y24357142D01*
X39214285Y24119047D01*
X39261904Y24023809D01*
X39309523Y23976190D01*
X39404761Y23928571D01*
X39595238Y23928571D01*
X39690476Y23976190D01*
X39738095Y24023809D01*
X39785714Y24119047D01*
%TO.C,C11*%
X118857142Y10457857D02*
X118809523Y10410238D01*
X118666666Y10362619D01*
X118571428Y10362619D01*
X118428571Y10410238D01*
X118333333Y10505476D01*
X118285714Y10600714D01*
X118238095Y10791190D01*
X118238095Y10934047D01*
X118285714Y11124523D01*
X118333333Y11219761D01*
X118428571Y11315000D01*
X118571428Y11362619D01*
X118666666Y11362619D01*
X118809523Y11315000D01*
X118857142Y11267380D01*
X119809523Y10362619D02*
X119238095Y10362619D01*
X119523809Y10362619D02*
X119523809Y11362619D01*
X119428571Y11219761D01*
X119333333Y11124523D01*
X119238095Y11076904D01*
X120761904Y10362619D02*
X120190476Y10362619D01*
X120476190Y10362619D02*
X120476190Y11362619D01*
X120380952Y11219761D01*
X120285714Y11124523D01*
X120190476Y11076904D01*
%TO.C,C2*%
X104333333Y32142857D02*
X104285714Y32095238D01*
X104142857Y32047619D01*
X104047619Y32047619D01*
X103904761Y32095238D01*
X103809523Y32190476D01*
X103761904Y32285714D01*
X103714285Y32476190D01*
X103714285Y32619047D01*
X103761904Y32809523D01*
X103809523Y32904761D01*
X103904761Y33000000D01*
X104047619Y33047619D01*
X104142857Y33047619D01*
X104285714Y33000000D01*
X104333333Y32952380D01*
X104714285Y32952380D02*
X104761904Y33000000D01*
X104857142Y33047619D01*
X105095238Y33047619D01*
X105190476Y33000000D01*
X105238095Y32952380D01*
X105285714Y32857142D01*
X105285714Y32761904D01*
X105238095Y32619047D01*
X104666666Y32047619D01*
X105285714Y32047619D01*
%TO.C,J4*%
X139452380Y89666666D02*
X140166666Y89666666D01*
X140309523Y89619047D01*
X140404761Y89523809D01*
X140452380Y89380952D01*
X140452380Y89285714D01*
X139785714Y90571428D02*
X140452380Y90571428D01*
X139404761Y90333333D02*
X140119047Y90095238D01*
X140119047Y90714285D01*
%TO.C,D9*%
X101261904Y5467619D02*
X101261904Y6467619D01*
X101500000Y6467619D01*
X101642857Y6420000D01*
X101738095Y6324761D01*
X101785714Y6229523D01*
X101833333Y6039047D01*
X101833333Y5896190D01*
X101785714Y5705714D01*
X101738095Y5610476D01*
X101642857Y5515238D01*
X101500000Y5467619D01*
X101261904Y5467619D01*
X102309523Y5467619D02*
X102500000Y5467619D01*
X102595238Y5515238D01*
X102642857Y5562857D01*
X102738095Y5705714D01*
X102785714Y5896190D01*
X102785714Y6277142D01*
X102738095Y6372380D01*
X102690476Y6420000D01*
X102595238Y6467619D01*
X102404761Y6467619D01*
X102309523Y6420000D01*
X102261904Y6372380D01*
X102214285Y6277142D01*
X102214285Y6039047D01*
X102261904Y5943809D01*
X102309523Y5896190D01*
X102404761Y5848571D01*
X102595238Y5848571D01*
X102690476Y5896190D01*
X102738095Y5943809D01*
X102785714Y6039047D01*
X95388095Y4747619D02*
X95388095Y5747619D01*
X95959523Y4747619D02*
X95530952Y5319047D01*
X95959523Y5747619D02*
X95388095Y5176190D01*
%TO.C,R10*%
X38857142Y26047619D02*
X38523809Y26523809D01*
X38285714Y26047619D02*
X38285714Y27047619D01*
X38666666Y27047619D01*
X38761904Y27000000D01*
X38809523Y26952380D01*
X38857142Y26857142D01*
X38857142Y26714285D01*
X38809523Y26619047D01*
X38761904Y26571428D01*
X38666666Y26523809D01*
X38285714Y26523809D01*
X39809523Y26047619D02*
X39238095Y26047619D01*
X39523809Y26047619D02*
X39523809Y27047619D01*
X39428571Y26904761D01*
X39333333Y26809523D01*
X39238095Y26761904D01*
X40428571Y27047619D02*
X40523809Y27047619D01*
X40619047Y27000000D01*
X40666666Y26952380D01*
X40714285Y26857142D01*
X40761904Y26666666D01*
X40761904Y26428571D01*
X40714285Y26238095D01*
X40666666Y26142857D01*
X40619047Y26095238D01*
X40523809Y26047619D01*
X40428571Y26047619D01*
X40333333Y26095238D01*
X40285714Y26142857D01*
X40238095Y26238095D01*
X40190476Y26428571D01*
X40190476Y26666666D01*
X40238095Y26857142D01*
X40285714Y26952380D01*
X40333333Y27000000D01*
X40428571Y27047619D01*
%TO.C,R5*%
X112532380Y50833333D02*
X112056190Y50500000D01*
X112532380Y50261904D02*
X111532380Y50261904D01*
X111532380Y50642857D01*
X111580000Y50738095D01*
X111627619Y50785714D01*
X111722857Y50833333D01*
X111865714Y50833333D01*
X111960952Y50785714D01*
X112008571Y50738095D01*
X112056190Y50642857D01*
X112056190Y50261904D01*
X111532380Y51738095D02*
X111532380Y51261904D01*
X112008571Y51214285D01*
X111960952Y51261904D01*
X111913333Y51357142D01*
X111913333Y51595238D01*
X111960952Y51690476D01*
X112008571Y51738095D01*
X112103809Y51785714D01*
X112341904Y51785714D01*
X112437142Y51738095D01*
X112484761Y51690476D01*
X112532380Y51595238D01*
X112532380Y51357142D01*
X112484761Y51261904D01*
X112437142Y51214285D01*
%TO.C,C8*%
X13107142Y90930682D02*
X13154761Y90883063D01*
X13202380Y90740206D01*
X13202380Y90644968D01*
X13154761Y90502110D01*
X13059523Y90406872D01*
X12964285Y90359253D01*
X12773809Y90311634D01*
X12630952Y90311634D01*
X12440476Y90359253D01*
X12345238Y90406872D01*
X12250000Y90502110D01*
X12202380Y90644968D01*
X12202380Y90740206D01*
X12250000Y90883063D01*
X12297619Y90930682D01*
X12630952Y91502110D02*
X12583333Y91406872D01*
X12535714Y91359253D01*
X12440476Y91311634D01*
X12392857Y91311634D01*
X12297619Y91359253D01*
X12250000Y91406872D01*
X12202380Y91502110D01*
X12202380Y91692587D01*
X12250000Y91787825D01*
X12297619Y91835444D01*
X12392857Y91883063D01*
X12440476Y91883063D01*
X12535714Y91835444D01*
X12583333Y91787825D01*
X12630952Y91692587D01*
X12630952Y91502110D01*
X12678571Y91406872D01*
X12726190Y91359253D01*
X12821428Y91311634D01*
X13011904Y91311634D01*
X13107142Y91359253D01*
X13154761Y91406872D01*
X13202380Y91502110D01*
X13202380Y91692587D01*
X13154761Y91787825D01*
X13107142Y91835444D01*
X13011904Y91883063D01*
X12821428Y91883063D01*
X12726190Y91835444D01*
X12678571Y91787825D01*
X12630952Y91692587D01*
%TO.C,TP5*%
X74438095Y19047619D02*
X75009523Y19047619D01*
X74723809Y18047619D02*
X74723809Y19047619D01*
X75342857Y18047619D02*
X75342857Y19047619D01*
X75723809Y19047619D01*
X75819047Y19000000D01*
X75866666Y18952380D01*
X75914285Y18857142D01*
X75914285Y18714285D01*
X75866666Y18619047D01*
X75819047Y18571428D01*
X75723809Y18523809D01*
X75342857Y18523809D01*
X76819047Y19047619D02*
X76342857Y19047619D01*
X76295238Y18571428D01*
X76342857Y18619047D01*
X76438095Y18666666D01*
X76676190Y18666666D01*
X76771428Y18619047D01*
X76819047Y18571428D01*
X76866666Y18476190D01*
X76866666Y18238095D01*
X76819047Y18142857D01*
X76771428Y18095238D01*
X76676190Y18047619D01*
X76438095Y18047619D01*
X76342857Y18095238D01*
X76295238Y18142857D01*
%TO.C,R16*%
X129452380Y29857142D02*
X128976190Y29523809D01*
X129452380Y29285714D02*
X128452380Y29285714D01*
X128452380Y29666666D01*
X128500000Y29761904D01*
X128547619Y29809523D01*
X128642857Y29857142D01*
X128785714Y29857142D01*
X128880952Y29809523D01*
X128928571Y29761904D01*
X128976190Y29666666D01*
X128976190Y29285714D01*
X129452380Y30809523D02*
X129452380Y30238095D01*
X129452380Y30523809D02*
X128452380Y30523809D01*
X128595238Y30428571D01*
X128690476Y30333333D01*
X128738095Y30238095D01*
X128452380Y31666666D02*
X128452380Y31476190D01*
X128500000Y31380952D01*
X128547619Y31333333D01*
X128690476Y31238095D01*
X128880952Y31190476D01*
X129261904Y31190476D01*
X129357142Y31238095D01*
X129404761Y31285714D01*
X129452380Y31380952D01*
X129452380Y31571428D01*
X129404761Y31666666D01*
X129357142Y31714285D01*
X129261904Y31761904D01*
X129023809Y31761904D01*
X128928571Y31714285D01*
X128880952Y31666666D01*
X128833333Y31571428D01*
X128833333Y31380952D01*
X128880952Y31285714D01*
X128928571Y31238095D01*
X129023809Y31190476D01*
%TO.C,PS1*%
X26953214Y96980119D02*
X26953214Y97980119D01*
X27334166Y97980119D01*
X27429404Y97932500D01*
X27477023Y97884880D01*
X27524642Y97789642D01*
X27524642Y97646785D01*
X27477023Y97551547D01*
X27429404Y97503928D01*
X27334166Y97456309D01*
X26953214Y97456309D01*
X27905595Y97027738D02*
X28048452Y96980119D01*
X28286547Y96980119D01*
X28381785Y97027738D01*
X28429404Y97075357D01*
X28477023Y97170595D01*
X28477023Y97265833D01*
X28429404Y97361071D01*
X28381785Y97408690D01*
X28286547Y97456309D01*
X28096071Y97503928D01*
X28000833Y97551547D01*
X27953214Y97599166D01*
X27905595Y97694404D01*
X27905595Y97789642D01*
X27953214Y97884880D01*
X28000833Y97932500D01*
X28096071Y97980119D01*
X28334166Y97980119D01*
X28477023Y97932500D01*
X29429404Y96980119D02*
X28857976Y96980119D01*
X29143690Y96980119D02*
X29143690Y97980119D01*
X29048452Y97837261D01*
X28953214Y97742023D01*
X28857976Y97694404D01*
%TO.C,R19*%
X87872380Y21857142D02*
X87396190Y21523809D01*
X87872380Y21285714D02*
X86872380Y21285714D01*
X86872380Y21666666D01*
X86920000Y21761904D01*
X86967619Y21809523D01*
X87062857Y21857142D01*
X87205714Y21857142D01*
X87300952Y21809523D01*
X87348571Y21761904D01*
X87396190Y21666666D01*
X87396190Y21285714D01*
X87872380Y22809523D02*
X87872380Y22238095D01*
X87872380Y22523809D02*
X86872380Y22523809D01*
X87015238Y22428571D01*
X87110476Y22333333D01*
X87158095Y22238095D01*
X87872380Y23285714D02*
X87872380Y23476190D01*
X87824761Y23571428D01*
X87777142Y23619047D01*
X87634285Y23714285D01*
X87443809Y23761904D01*
X87062857Y23761904D01*
X86967619Y23714285D01*
X86920000Y23666666D01*
X86872380Y23571428D01*
X86872380Y23380952D01*
X86920000Y23285714D01*
X86967619Y23238095D01*
X87062857Y23190476D01*
X87300952Y23190476D01*
X87396190Y23238095D01*
X87443809Y23285714D01*
X87491428Y23380952D01*
X87491428Y23571428D01*
X87443809Y23666666D01*
X87396190Y23714285D01*
X87300952Y23761904D01*
%TO.C,R20*%
X98357142Y8967619D02*
X98023809Y9443809D01*
X97785714Y8967619D02*
X97785714Y9967619D01*
X98166666Y9967619D01*
X98261904Y9920000D01*
X98309523Y9872380D01*
X98357142Y9777142D01*
X98357142Y9634285D01*
X98309523Y9539047D01*
X98261904Y9491428D01*
X98166666Y9443809D01*
X97785714Y9443809D01*
X98738095Y9872380D02*
X98785714Y9920000D01*
X98880952Y9967619D01*
X99119047Y9967619D01*
X99214285Y9920000D01*
X99261904Y9872380D01*
X99309523Y9777142D01*
X99309523Y9681904D01*
X99261904Y9539047D01*
X98690476Y8967619D01*
X99309523Y8967619D01*
X99928571Y9967619D02*
X100023809Y9967619D01*
X100119047Y9920000D01*
X100166666Y9872380D01*
X100214285Y9777142D01*
X100261904Y9586666D01*
X100261904Y9348571D01*
X100214285Y9158095D01*
X100166666Y9062857D01*
X100119047Y9015238D01*
X100023809Y8967619D01*
X99928571Y8967619D01*
X99833333Y9015238D01*
X99785714Y9062857D01*
X99738095Y9158095D01*
X99690476Y9348571D01*
X99690476Y9586666D01*
X99738095Y9777142D01*
X99785714Y9872380D01*
X99833333Y9920000D01*
X99928571Y9967619D01*
%TO.C,R8*%
X125452380Y50833333D02*
X124976190Y50500000D01*
X125452380Y50261904D02*
X124452380Y50261904D01*
X124452380Y50642857D01*
X124500000Y50738095D01*
X124547619Y50785714D01*
X124642857Y50833333D01*
X124785714Y50833333D01*
X124880952Y50785714D01*
X124928571Y50738095D01*
X124976190Y50642857D01*
X124976190Y50261904D01*
X124880952Y51404761D02*
X124833333Y51309523D01*
X124785714Y51261904D01*
X124690476Y51214285D01*
X124642857Y51214285D01*
X124547619Y51261904D01*
X124500000Y51309523D01*
X124452380Y51404761D01*
X124452380Y51595238D01*
X124500000Y51690476D01*
X124547619Y51738095D01*
X124642857Y51785714D01*
X124690476Y51785714D01*
X124785714Y51738095D01*
X124833333Y51690476D01*
X124880952Y51595238D01*
X124880952Y51404761D01*
X124928571Y51309523D01*
X124976190Y51261904D01*
X125071428Y51214285D01*
X125261904Y51214285D01*
X125357142Y51261904D01*
X125404761Y51309523D01*
X125452380Y51404761D01*
X125452380Y51595238D01*
X125404761Y51690476D01*
X125357142Y51738095D01*
X125261904Y51785714D01*
X125071428Y51785714D01*
X124976190Y51738095D01*
X124928571Y51690476D01*
X124880952Y51595238D01*
%TO.C,D7*%
X140452380Y9261904D02*
X139452380Y9261904D01*
X139452380Y9500000D01*
X139500000Y9642857D01*
X139595238Y9738095D01*
X139690476Y9785714D01*
X139880952Y9833333D01*
X140023809Y9833333D01*
X140214285Y9785714D01*
X140309523Y9738095D01*
X140404761Y9642857D01*
X140452380Y9500000D01*
X140452380Y9261904D01*
X139452380Y10166666D02*
X139452380Y10833333D01*
X140452380Y10404761D01*
%TO.C,R11*%
X140452380Y1357142D02*
X139976190Y1023809D01*
X140452380Y785714D02*
X139452380Y785714D01*
X139452380Y1166666D01*
X139500000Y1261904D01*
X139547619Y1309523D01*
X139642857Y1357142D01*
X139785714Y1357142D01*
X139880952Y1309523D01*
X139928571Y1261904D01*
X139976190Y1166666D01*
X139976190Y785714D01*
X140452380Y2309523D02*
X140452380Y1738095D01*
X140452380Y2023809D02*
X139452380Y2023809D01*
X139595238Y1928571D01*
X139690476Y1833333D01*
X139738095Y1738095D01*
X140452380Y3261904D02*
X140452380Y2690476D01*
X140452380Y2976190D02*
X139452380Y2976190D01*
X139595238Y2880952D01*
X139690476Y2785714D01*
X139738095Y2690476D01*
%TO.C,R15*%
X133872380Y1357142D02*
X133396190Y1023809D01*
X133872380Y785714D02*
X132872380Y785714D01*
X132872380Y1166666D01*
X132920000Y1261904D01*
X132967619Y1309523D01*
X133062857Y1357142D01*
X133205714Y1357142D01*
X133300952Y1309523D01*
X133348571Y1261904D01*
X133396190Y1166666D01*
X133396190Y785714D01*
X133872380Y2309523D02*
X133872380Y1738095D01*
X133872380Y2023809D02*
X132872380Y2023809D01*
X133015238Y1928571D01*
X133110476Y1833333D01*
X133158095Y1738095D01*
X132872380Y3214285D02*
X132872380Y2738095D01*
X133348571Y2690476D01*
X133300952Y2738095D01*
X133253333Y2833333D01*
X133253333Y3071428D01*
X133300952Y3166666D01*
X133348571Y3214285D01*
X133443809Y3261904D01*
X133681904Y3261904D01*
X133777142Y3214285D01*
X133824761Y3166666D01*
X133872380Y3071428D01*
X133872380Y2833333D01*
X133824761Y2738095D01*
X133777142Y2690476D01*
%TO.C,R25*%
X137952380Y30357142D02*
X137476190Y30023809D01*
X137952380Y29785714D02*
X136952380Y29785714D01*
X136952380Y30166666D01*
X137000000Y30261904D01*
X137047619Y30309523D01*
X137142857Y30357142D01*
X137285714Y30357142D01*
X137380952Y30309523D01*
X137428571Y30261904D01*
X137476190Y30166666D01*
X137476190Y29785714D01*
X137047619Y30738095D02*
X137000000Y30785714D01*
X136952380Y30880952D01*
X136952380Y31119047D01*
X137000000Y31214285D01*
X137047619Y31261904D01*
X137142857Y31309523D01*
X137238095Y31309523D01*
X137380952Y31261904D01*
X137952380Y30690476D01*
X137952380Y31309523D01*
X136952380Y32214285D02*
X136952380Y31738095D01*
X137428571Y31690476D01*
X137380952Y31738095D01*
X137333333Y31833333D01*
X137333333Y32071428D01*
X137380952Y32166666D01*
X137428571Y32214285D01*
X137523809Y32261904D01*
X137761904Y32261904D01*
X137857142Y32214285D01*
X137904761Y32166666D01*
X137952380Y32071428D01*
X137952380Y31833333D01*
X137904761Y31738095D01*
X137857142Y31690476D01*
%TO.C,TP4*%
X108238095Y6047619D02*
X108809523Y6047619D01*
X108523809Y5047619D02*
X108523809Y6047619D01*
X109142857Y5047619D02*
X109142857Y6047619D01*
X109523809Y6047619D01*
X109619047Y6000000D01*
X109666666Y5952380D01*
X109714285Y5857142D01*
X109714285Y5714285D01*
X109666666Y5619047D01*
X109619047Y5571428D01*
X109523809Y5523809D01*
X109142857Y5523809D01*
X110571428Y5714285D02*
X110571428Y5047619D01*
X110333333Y6095238D02*
X110095238Y5380952D01*
X110714285Y5380952D01*
%TO.C,U3*%
X59238095Y30397619D02*
X59238095Y29588095D01*
X59285714Y29492857D01*
X59333333Y29445238D01*
X59428571Y29397619D01*
X59619047Y29397619D01*
X59714285Y29445238D01*
X59761904Y29492857D01*
X59809523Y29588095D01*
X59809523Y30397619D01*
X60190476Y30397619D02*
X60809523Y30397619D01*
X60476190Y30016666D01*
X60619047Y30016666D01*
X60714285Y29969047D01*
X60761904Y29921428D01*
X60809523Y29826190D01*
X60809523Y29588095D01*
X60761904Y29492857D01*
X60714285Y29445238D01*
X60619047Y29397619D01*
X60333333Y29397619D01*
X60238095Y29445238D01*
X60190476Y29492857D01*
%TO.C,K2*%
X123861904Y80347619D02*
X123861904Y81347619D01*
X124433333Y80347619D02*
X124004761Y80919047D01*
X124433333Y81347619D02*
X123861904Y80776190D01*
X124814285Y81252380D02*
X124861904Y81300000D01*
X124957142Y81347619D01*
X125195238Y81347619D01*
X125290476Y81300000D01*
X125338095Y81252380D01*
X125385714Y81157142D01*
X125385714Y81061904D01*
X125338095Y80919047D01*
X124766666Y80347619D01*
X125385714Y80347619D01*
%TO.C,R13*%
X38857142Y16547619D02*
X38523809Y17023809D01*
X38285714Y16547619D02*
X38285714Y17547619D01*
X38666666Y17547619D01*
X38761904Y17500000D01*
X38809523Y17452380D01*
X38857142Y17357142D01*
X38857142Y17214285D01*
X38809523Y17119047D01*
X38761904Y17071428D01*
X38666666Y17023809D01*
X38285714Y17023809D01*
X39809523Y16547619D02*
X39238095Y16547619D01*
X39523809Y16547619D02*
X39523809Y17547619D01*
X39428571Y17404761D01*
X39333333Y17309523D01*
X39238095Y17261904D01*
X40142857Y17547619D02*
X40761904Y17547619D01*
X40428571Y17166666D01*
X40571428Y17166666D01*
X40666666Y17119047D01*
X40714285Y17071428D01*
X40761904Y16976190D01*
X40761904Y16738095D01*
X40714285Y16642857D01*
X40666666Y16595238D01*
X40571428Y16547619D01*
X40285714Y16547619D01*
X40190476Y16595238D01*
X40142857Y16642857D01*
%TO.C,U1*%
X93748095Y83777619D02*
X93748095Y82968095D01*
X93795714Y82872857D01*
X93843333Y82825238D01*
X93938571Y82777619D01*
X94129047Y82777619D01*
X94224285Y82825238D01*
X94271904Y82872857D01*
X94319523Y82968095D01*
X94319523Y83777619D01*
X95319523Y82777619D02*
X94748095Y82777619D01*
X95033809Y82777619D02*
X95033809Y83777619D01*
X94938571Y83634761D01*
X94843333Y83539523D01*
X94748095Y83491904D01*
%TO.C,D4*%
X114372380Y88611904D02*
X113372380Y88611904D01*
X113372380Y88850000D01*
X113420000Y88992857D01*
X113515238Y89088095D01*
X113610476Y89135714D01*
X113800952Y89183333D01*
X113943809Y89183333D01*
X114134285Y89135714D01*
X114229523Y89088095D01*
X114324761Y88992857D01*
X114372380Y88850000D01*
X114372380Y88611904D01*
X113705714Y90040476D02*
X114372380Y90040476D01*
X113324761Y89802380D02*
X114039047Y89564285D01*
X114039047Y90183333D01*
X113652380Y95438095D02*
X112652380Y95438095D01*
X113652380Y96009523D02*
X113080952Y95580952D01*
X112652380Y96009523D02*
X113223809Y95438095D01*
%TO.C,R12*%
X38857142Y19047619D02*
X38523809Y19523809D01*
X38285714Y19047619D02*
X38285714Y20047619D01*
X38666666Y20047619D01*
X38761904Y20000000D01*
X38809523Y19952380D01*
X38857142Y19857142D01*
X38857142Y19714285D01*
X38809523Y19619047D01*
X38761904Y19571428D01*
X38666666Y19523809D01*
X38285714Y19523809D01*
X39809523Y19047619D02*
X39238095Y19047619D01*
X39523809Y19047619D02*
X39523809Y20047619D01*
X39428571Y19904761D01*
X39333333Y19809523D01*
X39238095Y19761904D01*
X40190476Y19952380D02*
X40238095Y20000000D01*
X40333333Y20047619D01*
X40571428Y20047619D01*
X40666666Y20000000D01*
X40714285Y19952380D01*
X40761904Y19857142D01*
X40761904Y19761904D01*
X40714285Y19619047D01*
X40142857Y19047619D01*
X40761904Y19047619D01*
%TO.C,D11*%
X94372380Y10785714D02*
X93372380Y10785714D01*
X93372380Y11023809D01*
X93420000Y11166666D01*
X93515238Y11261904D01*
X93610476Y11309523D01*
X93800952Y11357142D01*
X93943809Y11357142D01*
X94134285Y11309523D01*
X94229523Y11261904D01*
X94324761Y11166666D01*
X94372380Y11023809D01*
X94372380Y10785714D01*
X94372380Y12309523D02*
X94372380Y11738095D01*
X94372380Y12023809D02*
X93372380Y12023809D01*
X93515238Y11928571D01*
X93610476Y11833333D01*
X93658095Y11738095D01*
X94372380Y13261904D02*
X94372380Y12690476D01*
X94372380Y12976190D02*
X93372380Y12976190D01*
X93515238Y12880952D01*
X93610476Y12785714D01*
X93658095Y12690476D01*
X93652380Y18088095D02*
X92652380Y18088095D01*
X93652380Y18659523D02*
X93080952Y18230952D01*
X92652380Y18659523D02*
X93223809Y18088095D01*
%TO.C,J3*%
X7952380Y62166666D02*
X8666666Y62166666D01*
X8809523Y62119047D01*
X8904761Y62023809D01*
X8952380Y61880952D01*
X8952380Y61785714D01*
X7952380Y62547619D02*
X7952380Y63166666D01*
X8333333Y62833333D01*
X8333333Y62976190D01*
X8380952Y63071428D01*
X8428571Y63119047D01*
X8523809Y63166666D01*
X8761904Y63166666D01*
X8857142Y63119047D01*
X8904761Y63071428D01*
X8952380Y62976190D01*
X8952380Y62690476D01*
X8904761Y62595238D01*
X8857142Y62547619D01*
%TO.C,C3*%
X36333333Y29142857D02*
X36285714Y29095238D01*
X36142857Y29047619D01*
X36047619Y29047619D01*
X35904761Y29095238D01*
X35809523Y29190476D01*
X35761904Y29285714D01*
X35714285Y29476190D01*
X35714285Y29619047D01*
X35761904Y29809523D01*
X35809523Y29904761D01*
X35904761Y30000000D01*
X36047619Y30047619D01*
X36142857Y30047619D01*
X36285714Y30000000D01*
X36333333Y29952380D01*
X36666666Y30047619D02*
X37285714Y30047619D01*
X36952380Y29666666D01*
X37095238Y29666666D01*
X37190476Y29619047D01*
X37238095Y29571428D01*
X37285714Y29476190D01*
X37285714Y29238095D01*
X37238095Y29142857D01*
X37190476Y29095238D01*
X37095238Y29047619D01*
X36809523Y29047619D01*
X36714285Y29095238D01*
X36666666Y29142857D01*
%TO.C,C6*%
X75107142Y6235984D02*
X75154761Y6188365D01*
X75202380Y6045508D01*
X75202380Y5950270D01*
X75154761Y5807412D01*
X75059523Y5712174D01*
X74964285Y5664555D01*
X74773809Y5616936D01*
X74630952Y5616936D01*
X74440476Y5664555D01*
X74345238Y5712174D01*
X74250000Y5807412D01*
X74202380Y5950270D01*
X74202380Y6045508D01*
X74250000Y6188365D01*
X74297619Y6235984D01*
X74202380Y7093127D02*
X74202380Y6902651D01*
X74250000Y6807412D01*
X74297619Y6759793D01*
X74440476Y6664555D01*
X74630952Y6616936D01*
X75011904Y6616936D01*
X75107142Y6664555D01*
X75154761Y6712174D01*
X75202380Y6807412D01*
X75202380Y6997889D01*
X75154761Y7093127D01*
X75107142Y7140746D01*
X75011904Y7188365D01*
X74773809Y7188365D01*
X74678571Y7140746D01*
X74630952Y7093127D01*
X74583333Y6997889D01*
X74583333Y6807412D01*
X74630952Y6712174D01*
X74678571Y6664555D01*
X74773809Y6616936D01*
%TO.C,R23*%
X127857142Y21547619D02*
X127523809Y22023809D01*
X127285714Y21547619D02*
X127285714Y22547619D01*
X127666666Y22547619D01*
X127761904Y22500000D01*
X127809523Y22452380D01*
X127857142Y22357142D01*
X127857142Y22214285D01*
X127809523Y22119047D01*
X127761904Y22071428D01*
X127666666Y22023809D01*
X127285714Y22023809D01*
X128238095Y22452380D02*
X128285714Y22500000D01*
X128380952Y22547619D01*
X128619047Y22547619D01*
X128714285Y22500000D01*
X128761904Y22452380D01*
X128809523Y22357142D01*
X128809523Y22261904D01*
X128761904Y22119047D01*
X128190476Y21547619D01*
X128809523Y21547619D01*
X129142857Y22547619D02*
X129761904Y22547619D01*
X129428571Y22166666D01*
X129571428Y22166666D01*
X129666666Y22119047D01*
X129714285Y22071428D01*
X129761904Y21976190D01*
X129761904Y21738095D01*
X129714285Y21642857D01*
X129666666Y21595238D01*
X129571428Y21547619D01*
X129285714Y21547619D01*
X129190476Y21595238D01*
X129142857Y21642857D01*
%TO.C,D5*%
X109952380Y59261904D02*
X108952380Y59261904D01*
X108952380Y59500000D01*
X109000000Y59642857D01*
X109095238Y59738095D01*
X109190476Y59785714D01*
X109380952Y59833333D01*
X109523809Y59833333D01*
X109714285Y59785714D01*
X109809523Y59738095D01*
X109904761Y59642857D01*
X109952380Y59500000D01*
X109952380Y59261904D01*
X108952380Y60738095D02*
X108952380Y60261904D01*
X109428571Y60214285D01*
X109380952Y60261904D01*
X109333333Y60357142D01*
X109333333Y60595238D01*
X109380952Y60690476D01*
X109428571Y60738095D01*
X109523809Y60785714D01*
X109761904Y60785714D01*
X109857142Y60738095D01*
X109904761Y60690476D01*
X109952380Y60595238D01*
X109952380Y60357142D01*
X109904761Y60261904D01*
X109857142Y60214285D01*
%TO.C,TP3*%
X78738095Y17047619D02*
X79309523Y17047619D01*
X79023809Y16047619D02*
X79023809Y17047619D01*
X79642857Y16047619D02*
X79642857Y17047619D01*
X80023809Y17047619D01*
X80119047Y17000000D01*
X80166666Y16952380D01*
X80214285Y16857142D01*
X80214285Y16714285D01*
X80166666Y16619047D01*
X80119047Y16571428D01*
X80023809Y16523809D01*
X79642857Y16523809D01*
X80547619Y17047619D02*
X81166666Y17047619D01*
X80833333Y16666666D01*
X80976190Y16666666D01*
X81071428Y16619047D01*
X81119047Y16571428D01*
X81166666Y16476190D01*
X81166666Y16238095D01*
X81119047Y16142857D01*
X81071428Y16095238D01*
X80976190Y16047619D01*
X80690476Y16047619D01*
X80595238Y16095238D01*
X80547619Y16142857D01*
%TO.C,R29*%
X38857142Y58047619D02*
X38523809Y58523809D01*
X38285714Y58047619D02*
X38285714Y59047619D01*
X38666666Y59047619D01*
X38761904Y59000000D01*
X38809523Y58952380D01*
X38857142Y58857142D01*
X38857142Y58714285D01*
X38809523Y58619047D01*
X38761904Y58571428D01*
X38666666Y58523809D01*
X38285714Y58523809D01*
X39238095Y58952380D02*
X39285714Y59000000D01*
X39380952Y59047619D01*
X39619047Y59047619D01*
X39714285Y59000000D01*
X39761904Y58952380D01*
X39809523Y58857142D01*
X39809523Y58761904D01*
X39761904Y58619047D01*
X39190476Y58047619D01*
X39809523Y58047619D01*
X40285714Y58047619D02*
X40476190Y58047619D01*
X40571428Y58095238D01*
X40619047Y58142857D01*
X40714285Y58285714D01*
X40761904Y58476190D01*
X40761904Y58857142D01*
X40714285Y58952380D01*
X40666666Y59000000D01*
X40571428Y59047619D01*
X40380952Y59047619D01*
X40285714Y59000000D01*
X40238095Y58952380D01*
X40190476Y58857142D01*
X40190476Y58619047D01*
X40238095Y58523809D01*
X40285714Y58476190D01*
X40380952Y58428571D01*
X40571428Y58428571D01*
X40666666Y58476190D01*
X40714285Y58523809D01*
X40761904Y58619047D01*
%TO.C,K1*%
X129261904Y62547619D02*
X129261904Y63547619D01*
X129833333Y62547619D02*
X129404761Y63119047D01*
X129833333Y63547619D02*
X129261904Y62976190D01*
X130785714Y62547619D02*
X130214285Y62547619D01*
X130500000Y62547619D02*
X130500000Y63547619D01*
X130404761Y63404761D01*
X130309523Y63309523D01*
X130214285Y63261904D01*
%TO.C,J2*%
X139452380Y78166666D02*
X140166666Y78166666D01*
X140309523Y78119047D01*
X140404761Y78023809D01*
X140452380Y77880952D01*
X140452380Y77785714D01*
X139547619Y78595238D02*
X139500000Y78642857D01*
X139452380Y78738095D01*
X139452380Y78976190D01*
X139500000Y79071428D01*
X139547619Y79119047D01*
X139642857Y79166666D01*
X139738095Y79166666D01*
X139880952Y79119047D01*
X140452380Y78547619D01*
X140452380Y79166666D01*
%TO.C,H5*%
X4238095Y98747619D02*
X4238095Y99747619D01*
X4238095Y99271428D02*
X4809523Y99271428D01*
X4809523Y98747619D02*
X4809523Y99747619D01*
X5761904Y99747619D02*
X5285714Y99747619D01*
X5238095Y99271428D01*
X5285714Y99319047D01*
X5380952Y99366666D01*
X5619047Y99366666D01*
X5714285Y99319047D01*
X5761904Y99271428D01*
X5809523Y99176190D01*
X5809523Y98938095D01*
X5761904Y98842857D01*
X5714285Y98795238D01*
X5619047Y98747619D01*
X5380952Y98747619D01*
X5285714Y98795238D01*
X5238095Y98842857D01*
%TO.C,J7*%
X8002380Y51916666D02*
X8716666Y51916666D01*
X8859523Y51869047D01*
X8954761Y51773809D01*
X9002380Y51630952D01*
X9002380Y51535714D01*
X8002380Y52297619D02*
X8002380Y52964285D01*
X9002380Y52535714D01*
%TO.C,D6*%
X127952380Y59761904D02*
X126952380Y59761904D01*
X126952380Y60000000D01*
X127000000Y60142857D01*
X127095238Y60238095D01*
X127190476Y60285714D01*
X127380952Y60333333D01*
X127523809Y60333333D01*
X127714285Y60285714D01*
X127809523Y60238095D01*
X127904761Y60142857D01*
X127952380Y60000000D01*
X127952380Y59761904D01*
X126952380Y61190476D02*
X126952380Y61000000D01*
X127000000Y60904761D01*
X127047619Y60857142D01*
X127190476Y60761904D01*
X127380952Y60714285D01*
X127761904Y60714285D01*
X127857142Y60761904D01*
X127904761Y60809523D01*
X127952380Y60904761D01*
X127952380Y61095238D01*
X127904761Y61190476D01*
X127857142Y61238095D01*
X127761904Y61285714D01*
X127523809Y61285714D01*
X127428571Y61238095D01*
X127380952Y61190476D01*
X127333333Y61095238D01*
X127333333Y60904761D01*
X127380952Y60809523D01*
X127428571Y60761904D01*
X127523809Y60714285D01*
%TO.C,R28*%
X38857142Y53047619D02*
X38523809Y53523809D01*
X38285714Y53047619D02*
X38285714Y54047619D01*
X38666666Y54047619D01*
X38761904Y54000000D01*
X38809523Y53952380D01*
X38857142Y53857142D01*
X38857142Y53714285D01*
X38809523Y53619047D01*
X38761904Y53571428D01*
X38666666Y53523809D01*
X38285714Y53523809D01*
X39238095Y53952380D02*
X39285714Y54000000D01*
X39380952Y54047619D01*
X39619047Y54047619D01*
X39714285Y54000000D01*
X39761904Y53952380D01*
X39809523Y53857142D01*
X39809523Y53761904D01*
X39761904Y53619047D01*
X39190476Y53047619D01*
X39809523Y53047619D01*
X40380952Y53619047D02*
X40285714Y53666666D01*
X40238095Y53714285D01*
X40190476Y53809523D01*
X40190476Y53857142D01*
X40238095Y53952380D01*
X40285714Y54000000D01*
X40380952Y54047619D01*
X40571428Y54047619D01*
X40666666Y54000000D01*
X40714285Y53952380D01*
X40761904Y53857142D01*
X40761904Y53809523D01*
X40714285Y53714285D01*
X40666666Y53666666D01*
X40571428Y53619047D01*
X40380952Y53619047D01*
X40285714Y53571428D01*
X40238095Y53523809D01*
X40190476Y53428571D01*
X40190476Y53238095D01*
X40238095Y53142857D01*
X40285714Y53095238D01*
X40380952Y53047619D01*
X40571428Y53047619D01*
X40666666Y53095238D01*
X40714285Y53142857D01*
X40761904Y53238095D01*
X40761904Y53428571D01*
X40714285Y53523809D01*
X40666666Y53571428D01*
X40571428Y53619047D01*
%TO.C,R14*%
X38857142Y14047619D02*
X38523809Y14523809D01*
X38285714Y14047619D02*
X38285714Y15047619D01*
X38666666Y15047619D01*
X38761904Y15000000D01*
X38809523Y14952380D01*
X38857142Y14857142D01*
X38857142Y14714285D01*
X38809523Y14619047D01*
X38761904Y14571428D01*
X38666666Y14523809D01*
X38285714Y14523809D01*
X39809523Y14047619D02*
X39238095Y14047619D01*
X39523809Y14047619D02*
X39523809Y15047619D01*
X39428571Y14904761D01*
X39333333Y14809523D01*
X39238095Y14761904D01*
X40666666Y14714285D02*
X40666666Y14047619D01*
X40428571Y15095238D02*
X40190476Y14380952D01*
X40809523Y14380952D01*
%TO.C,H2*%
X144238095Y98747619D02*
X144238095Y99747619D01*
X144238095Y99271428D02*
X144809523Y99271428D01*
X144809523Y98747619D02*
X144809523Y99747619D01*
X145238095Y99652380D02*
X145285714Y99700000D01*
X145380952Y99747619D01*
X145619047Y99747619D01*
X145714285Y99700000D01*
X145761904Y99652380D01*
X145809523Y99557142D01*
X145809523Y99461904D01*
X145761904Y99319047D01*
X145190476Y98747619D01*
X145809523Y98747619D01*
%TO.C,U2*%
X50497380Y48238095D02*
X51306904Y48238095D01*
X51402142Y48285714D01*
X51449761Y48333333D01*
X51497380Y48428571D01*
X51497380Y48619047D01*
X51449761Y48714285D01*
X51402142Y48761904D01*
X51306904Y48809523D01*
X50497380Y48809523D01*
X50592619Y49238095D02*
X50545000Y49285714D01*
X50497380Y49380952D01*
X50497380Y49619047D01*
X50545000Y49714285D01*
X50592619Y49761904D01*
X50687857Y49809523D01*
X50783095Y49809523D01*
X50925952Y49761904D01*
X51497380Y49190476D01*
X51497380Y49809523D01*
%TO.C,C1*%
X101407142Y58333333D02*
X101454761Y58285714D01*
X101502380Y58142857D01*
X101502380Y58047619D01*
X101454761Y57904761D01*
X101359523Y57809523D01*
X101264285Y57761904D01*
X101073809Y57714285D01*
X100930952Y57714285D01*
X100740476Y57761904D01*
X100645238Y57809523D01*
X100550000Y57904761D01*
X100502380Y58047619D01*
X100502380Y58142857D01*
X100550000Y58285714D01*
X100597619Y58333333D01*
X101502380Y59285714D02*
X101502380Y58714285D01*
X101502380Y59000000D02*
X100502380Y59000000D01*
X100645238Y58904761D01*
X100740476Y58809523D01*
X100788095Y58714285D01*
%TO.C,TP1*%
X122738095Y19047619D02*
X123309523Y19047619D01*
X123023809Y18047619D02*
X123023809Y19047619D01*
X123642857Y18047619D02*
X123642857Y19047619D01*
X124023809Y19047619D01*
X124119047Y19000000D01*
X124166666Y18952380D01*
X124214285Y18857142D01*
X124214285Y18714285D01*
X124166666Y18619047D01*
X124119047Y18571428D01*
X124023809Y18523809D01*
X123642857Y18523809D01*
X125166666Y18047619D02*
X124595238Y18047619D01*
X124880952Y18047619D02*
X124880952Y19047619D01*
X124785714Y18904761D01*
X124690476Y18809523D01*
X124595238Y18761904D01*
%TO.C,J5*%
X8002380Y38416666D02*
X8716666Y38416666D01*
X8859523Y38369047D01*
X8954761Y38273809D01*
X9002380Y38130952D01*
X9002380Y38035714D01*
X8002380Y39369047D02*
X8002380Y38892857D01*
X8478571Y38845238D01*
X8430952Y38892857D01*
X8383333Y38988095D01*
X8383333Y39226190D01*
X8430952Y39321428D01*
X8478571Y39369047D01*
X8573809Y39416666D01*
X8811904Y39416666D01*
X8907142Y39369047D01*
X8954761Y39321428D01*
X9002380Y39226190D01*
X9002380Y38988095D01*
X8954761Y38892857D01*
X8907142Y38845238D01*
%TO.C,R3*%
X38833333Y42047619D02*
X38500000Y42523809D01*
X38261904Y42047619D02*
X38261904Y43047619D01*
X38642857Y43047619D01*
X38738095Y43000000D01*
X38785714Y42952380D01*
X38833333Y42857142D01*
X38833333Y42714285D01*
X38785714Y42619047D01*
X38738095Y42571428D01*
X38642857Y42523809D01*
X38261904Y42523809D01*
X39166666Y43047619D02*
X39785714Y43047619D01*
X39452380Y42666666D01*
X39595238Y42666666D01*
X39690476Y42619047D01*
X39738095Y42571428D01*
X39785714Y42476190D01*
X39785714Y42238095D01*
X39738095Y42142857D01*
X39690476Y42095238D01*
X39595238Y42047619D01*
X39309523Y42047619D01*
X39214285Y42095238D01*
X39166666Y42142857D01*
%TO.C,R24*%
X127857142Y19047619D02*
X127523809Y19523809D01*
X127285714Y19047619D02*
X127285714Y20047619D01*
X127666666Y20047619D01*
X127761904Y20000000D01*
X127809523Y19952380D01*
X127857142Y19857142D01*
X127857142Y19714285D01*
X127809523Y19619047D01*
X127761904Y19571428D01*
X127666666Y19523809D01*
X127285714Y19523809D01*
X128238095Y19952380D02*
X128285714Y20000000D01*
X128380952Y20047619D01*
X128619047Y20047619D01*
X128714285Y20000000D01*
X128761904Y19952380D01*
X128809523Y19857142D01*
X128809523Y19761904D01*
X128761904Y19619047D01*
X128190476Y19047619D01*
X128809523Y19047619D01*
X129666666Y19714285D02*
X129666666Y19047619D01*
X129428571Y20095238D02*
X129190476Y19380952D01*
X129809523Y19380952D01*
%TO.C,R22*%
X127857142Y24047619D02*
X127523809Y24523809D01*
X127285714Y24047619D02*
X127285714Y25047619D01*
X127666666Y25047619D01*
X127761904Y25000000D01*
X127809523Y24952380D01*
X127857142Y24857142D01*
X127857142Y24714285D01*
X127809523Y24619047D01*
X127761904Y24571428D01*
X127666666Y24523809D01*
X127285714Y24523809D01*
X128238095Y24952380D02*
X128285714Y25000000D01*
X128380952Y25047619D01*
X128619047Y25047619D01*
X128714285Y25000000D01*
X128761904Y24952380D01*
X128809523Y24857142D01*
X128809523Y24761904D01*
X128761904Y24619047D01*
X128190476Y24047619D01*
X128809523Y24047619D01*
X129190476Y24952380D02*
X129238095Y25000000D01*
X129333333Y25047619D01*
X129571428Y25047619D01*
X129666666Y25000000D01*
X129714285Y24952380D01*
X129761904Y24857142D01*
X129761904Y24761904D01*
X129714285Y24619047D01*
X129142857Y24047619D01*
X129761904Y24047619D01*
%TO.C,R21*%
X127372380Y1357142D02*
X126896190Y1023809D01*
X127372380Y785714D02*
X126372380Y785714D01*
X126372380Y1166666D01*
X126420000Y1261904D01*
X126467619Y1309523D01*
X126562857Y1357142D01*
X126705714Y1357142D01*
X126800952Y1309523D01*
X126848571Y1261904D01*
X126896190Y1166666D01*
X126896190Y785714D01*
X126467619Y1738095D02*
X126420000Y1785714D01*
X126372380Y1880952D01*
X126372380Y2119047D01*
X126420000Y2214285D01*
X126467619Y2261904D01*
X126562857Y2309523D01*
X126658095Y2309523D01*
X126800952Y2261904D01*
X127372380Y1690476D01*
X127372380Y2309523D01*
X127372380Y3261904D02*
X127372380Y2690476D01*
X127372380Y2976190D02*
X126372380Y2976190D01*
X126515238Y2880952D01*
X126610476Y2785714D01*
X126658095Y2690476D01*
%TO.C,C5*%
X55833333Y6192857D02*
X55785714Y6145238D01*
X55642857Y6097619D01*
X55547619Y6097619D01*
X55404761Y6145238D01*
X55309523Y6240476D01*
X55261904Y6335714D01*
X55214285Y6526190D01*
X55214285Y6669047D01*
X55261904Y6859523D01*
X55309523Y6954761D01*
X55404761Y7050000D01*
X55547619Y7097619D01*
X55642857Y7097619D01*
X55785714Y7050000D01*
X55833333Y7002380D01*
X56738095Y7097619D02*
X56261904Y7097619D01*
X56214285Y6621428D01*
X56261904Y6669047D01*
X56357142Y6716666D01*
X56595238Y6716666D01*
X56690476Y6669047D01*
X56738095Y6621428D01*
X56785714Y6526190D01*
X56785714Y6288095D01*
X56738095Y6192857D01*
X56690476Y6145238D01*
X56595238Y6097619D01*
X56357142Y6097619D01*
X56261904Y6145238D01*
X56214285Y6192857D01*
%TO.C,R2*%
X38833333Y37047619D02*
X38500000Y37523809D01*
X38261904Y37047619D02*
X38261904Y38047619D01*
X38642857Y38047619D01*
X38738095Y38000000D01*
X38785714Y37952380D01*
X38833333Y37857142D01*
X38833333Y37714285D01*
X38785714Y37619047D01*
X38738095Y37571428D01*
X38642857Y37523809D01*
X38261904Y37523809D01*
X39214285Y37952380D02*
X39261904Y38000000D01*
X39357142Y38047619D01*
X39595238Y38047619D01*
X39690476Y38000000D01*
X39738095Y37952380D01*
X39785714Y37857142D01*
X39785714Y37761904D01*
X39738095Y37619047D01*
X39166666Y37047619D01*
X39785714Y37047619D01*
%TO.C,J10*%
X139452380Y64690476D02*
X140166666Y64690476D01*
X140309523Y64642857D01*
X140404761Y64547619D01*
X140452380Y64404761D01*
X140452380Y64309523D01*
X140452380Y65690476D02*
X140452380Y65119047D01*
X140452380Y65404761D02*
X139452380Y65404761D01*
X139595238Y65309523D01*
X139690476Y65214285D01*
X139738095Y65119047D01*
X139452380Y66309523D02*
X139452380Y66404761D01*
X139500000Y66500000D01*
X139547619Y66547619D01*
X139642857Y66595238D01*
X139833333Y66642857D01*
X140071428Y66642857D01*
X140261904Y66595238D01*
X140357142Y66547619D01*
X140404761Y66500000D01*
X140452380Y66404761D01*
X140452380Y66309523D01*
X140404761Y66214285D01*
X140357142Y66166666D01*
X140261904Y66119047D01*
X140071428Y66071428D01*
X139833333Y66071428D01*
X139642857Y66119047D01*
X139547619Y66166666D01*
X139500000Y66214285D01*
X139452380Y66309523D01*
%TO.C,C13*%
X86857142Y96142857D02*
X86809523Y96095238D01*
X86666666Y96047619D01*
X86571428Y96047619D01*
X86428571Y96095238D01*
X86333333Y96190476D01*
X86285714Y96285714D01*
X86238095Y96476190D01*
X86238095Y96619047D01*
X86285714Y96809523D01*
X86333333Y96904761D01*
X86428571Y97000000D01*
X86571428Y97047619D01*
X86666666Y97047619D01*
X86809523Y97000000D01*
X86857142Y96952380D01*
X87809523Y96047619D02*
X87238095Y96047619D01*
X87523809Y96047619D02*
X87523809Y97047619D01*
X87428571Y96904761D01*
X87333333Y96809523D01*
X87238095Y96761904D01*
X88142857Y97047619D02*
X88761904Y97047619D01*
X88428571Y96666666D01*
X88571428Y96666666D01*
X88666666Y96619047D01*
X88714285Y96571428D01*
X88761904Y96476190D01*
X88761904Y96238095D01*
X88714285Y96142857D01*
X88666666Y96095238D01*
X88571428Y96047619D01*
X88285714Y96047619D01*
X88190476Y96095238D01*
X88142857Y96142857D01*
%TO.C,J11*%
X148852380Y19190476D02*
X149566666Y19190476D01*
X149709523Y19142857D01*
X149804761Y19047619D01*
X149852380Y18904761D01*
X149852380Y18809523D01*
X149852380Y20190476D02*
X149852380Y19619047D01*
X149852380Y19904761D02*
X148852380Y19904761D01*
X148995238Y19809523D01*
X149090476Y19714285D01*
X149138095Y19619047D01*
X149852380Y21142857D02*
X149852380Y20571428D01*
X149852380Y20857142D02*
X148852380Y20857142D01*
X148995238Y20761904D01*
X149090476Y20666666D01*
X149138095Y20571428D01*
%TO.C,J6*%
X148527380Y51666666D02*
X149241666Y51666666D01*
X149384523Y51619047D01*
X149479761Y51523809D01*
X149527380Y51380952D01*
X149527380Y51285714D01*
X148527380Y52571428D02*
X148527380Y52380952D01*
X148575000Y52285714D01*
X148622619Y52238095D01*
X148765476Y52142857D01*
X148955952Y52095238D01*
X149336904Y52095238D01*
X149432142Y52142857D01*
X149479761Y52190476D01*
X149527380Y52285714D01*
X149527380Y52476190D01*
X149479761Y52571428D01*
X149432142Y52619047D01*
X149336904Y52666666D01*
X149098809Y52666666D01*
X149003571Y52619047D01*
X148955952Y52571428D01*
X148908333Y52476190D01*
X148908333Y52285714D01*
X148955952Y52190476D01*
X149003571Y52142857D01*
X149098809Y52095238D01*
%TO.C,U4*%
X103738095Y31440119D02*
X103738095Y30630595D01*
X103785714Y30535357D01*
X103833333Y30487738D01*
X103928571Y30440119D01*
X104119047Y30440119D01*
X104214285Y30487738D01*
X104261904Y30535357D01*
X104309523Y30630595D01*
X104309523Y31440119D01*
X105214285Y31106785D02*
X105214285Y30440119D01*
X104976190Y31487738D02*
X104738095Y30773452D01*
X105357142Y30773452D01*
%TO.C,R4*%
X105452380Y83333333D02*
X104976190Y83000000D01*
X105452380Y82761904D02*
X104452380Y82761904D01*
X104452380Y83142857D01*
X104500000Y83238095D01*
X104547619Y83285714D01*
X104642857Y83333333D01*
X104785714Y83333333D01*
X104880952Y83285714D01*
X104928571Y83238095D01*
X104976190Y83142857D01*
X104976190Y82761904D01*
X104785714Y84190476D02*
X105452380Y84190476D01*
X104404761Y83952380D02*
X105119047Y83714285D01*
X105119047Y84333333D01*
%TO.C,C4*%
X54607142Y6235984D02*
X54654761Y6188365D01*
X54702380Y6045508D01*
X54702380Y5950270D01*
X54654761Y5807412D01*
X54559523Y5712174D01*
X54464285Y5664555D01*
X54273809Y5616936D01*
X54130952Y5616936D01*
X53940476Y5664555D01*
X53845238Y5712174D01*
X53750000Y5807412D01*
X53702380Y5950270D01*
X53702380Y6045508D01*
X53750000Y6188365D01*
X53797619Y6235984D01*
X54035714Y7093127D02*
X54702380Y7093127D01*
X53654761Y6855031D02*
X54369047Y6616936D01*
X54369047Y7235984D01*
%TO.C,C12*%
X49857142Y48857142D02*
X49904761Y48809523D01*
X49952380Y48666666D01*
X49952380Y48571428D01*
X49904761Y48428571D01*
X49809523Y48333333D01*
X49714285Y48285714D01*
X49523809Y48238095D01*
X49380952Y48238095D01*
X49190476Y48285714D01*
X49095238Y48333333D01*
X49000000Y48428571D01*
X48952380Y48571428D01*
X48952380Y48666666D01*
X49000000Y48809523D01*
X49047619Y48857142D01*
X49952380Y49809523D02*
X49952380Y49238095D01*
X49952380Y49523809D02*
X48952380Y49523809D01*
X49095238Y49428571D01*
X49190476Y49333333D01*
X49238095Y49238095D01*
X49047619Y50190476D02*
X49000000Y50238095D01*
X48952380Y50333333D01*
X48952380Y50571428D01*
X49000000Y50666666D01*
X49047619Y50714285D01*
X49142857Y50761904D01*
X49238095Y50761904D01*
X49380952Y50714285D01*
X49952380Y50142857D01*
X49952380Y50761904D01*
%TO.C,R30*%
X38857142Y50547619D02*
X38523809Y51023809D01*
X38285714Y50547619D02*
X38285714Y51547619D01*
X38666666Y51547619D01*
X38761904Y51500000D01*
X38809523Y51452380D01*
X38857142Y51357142D01*
X38857142Y51214285D01*
X38809523Y51119047D01*
X38761904Y51071428D01*
X38666666Y51023809D01*
X38285714Y51023809D01*
X39190476Y51547619D02*
X39809523Y51547619D01*
X39476190Y51166666D01*
X39619047Y51166666D01*
X39714285Y51119047D01*
X39761904Y51071428D01*
X39809523Y50976190D01*
X39809523Y50738095D01*
X39761904Y50642857D01*
X39714285Y50595238D01*
X39619047Y50547619D01*
X39333333Y50547619D01*
X39238095Y50595238D01*
X39190476Y50642857D01*
X40428571Y51547619D02*
X40523809Y51547619D01*
X40619047Y51500000D01*
X40666666Y51452380D01*
X40714285Y51357142D01*
X40761904Y51166666D01*
X40761904Y50928571D01*
X40714285Y50738095D01*
X40666666Y50642857D01*
X40619047Y50595238D01*
X40523809Y50547619D01*
X40428571Y50547619D01*
X40333333Y50595238D01*
X40285714Y50642857D01*
X40238095Y50738095D01*
X40190476Y50928571D01*
X40190476Y51166666D01*
X40238095Y51357142D01*
X40285714Y51452380D01*
X40333333Y51500000D01*
X40428571Y51547619D01*
%TO.C,R18*%
X134452380Y28857142D02*
X133976190Y28523809D01*
X134452380Y28285714D02*
X133452380Y28285714D01*
X133452380Y28666666D01*
X133500000Y28761904D01*
X133547619Y28809523D01*
X133642857Y28857142D01*
X133785714Y28857142D01*
X133880952Y28809523D01*
X133928571Y28761904D01*
X133976190Y28666666D01*
X133976190Y28285714D01*
X134452380Y29809523D02*
X134452380Y29238095D01*
X134452380Y29523809D02*
X133452380Y29523809D01*
X133595238Y29428571D01*
X133690476Y29333333D01*
X133738095Y29238095D01*
X133880952Y30380952D02*
X133833333Y30285714D01*
X133785714Y30238095D01*
X133690476Y30190476D01*
X133642857Y30190476D01*
X133547619Y30238095D01*
X133500000Y30285714D01*
X133452380Y30380952D01*
X133452380Y30571428D01*
X133500000Y30666666D01*
X133547619Y30714285D01*
X133642857Y30761904D01*
X133690476Y30761904D01*
X133785714Y30714285D01*
X133833333Y30666666D01*
X133880952Y30571428D01*
X133880952Y30380952D01*
X133928571Y30285714D01*
X133976190Y30238095D01*
X134071428Y30190476D01*
X134261904Y30190476D01*
X134357142Y30238095D01*
X134404761Y30285714D01*
X134452380Y30380952D01*
X134452380Y30571428D01*
X134404761Y30666666D01*
X134357142Y30714285D01*
X134261904Y30761904D01*
X134071428Y30761904D01*
X133976190Y30714285D01*
X133928571Y30666666D01*
X133880952Y30571428D01*
%TO.C,TP2*%
X88238095Y32547619D02*
X88809523Y32547619D01*
X88523809Y31547619D02*
X88523809Y32547619D01*
X89142857Y31547619D02*
X89142857Y32547619D01*
X89523809Y32547619D01*
X89619047Y32500000D01*
X89666666Y32452380D01*
X89714285Y32357142D01*
X89714285Y32214285D01*
X89666666Y32119047D01*
X89619047Y32071428D01*
X89523809Y32023809D01*
X89142857Y32023809D01*
X90095238Y32452380D02*
X90142857Y32500000D01*
X90238095Y32547619D01*
X90476190Y32547619D01*
X90571428Y32500000D01*
X90619047Y32452380D01*
X90666666Y32357142D01*
X90666666Y32261904D01*
X90619047Y32119047D01*
X90047619Y31547619D01*
X90666666Y31547619D01*
%TO.C,R7*%
X38833333Y47047619D02*
X38500000Y47523809D01*
X38261904Y47047619D02*
X38261904Y48047619D01*
X38642857Y48047619D01*
X38738095Y48000000D01*
X38785714Y47952380D01*
X38833333Y47857142D01*
X38833333Y47714285D01*
X38785714Y47619047D01*
X38738095Y47571428D01*
X38642857Y47523809D01*
X38261904Y47523809D01*
X39166666Y48047619D02*
X39833333Y48047619D01*
X39404761Y47047619D01*
%TO.C,D8*%
X133952380Y9261904D02*
X132952380Y9261904D01*
X132952380Y9500000D01*
X133000000Y9642857D01*
X133095238Y9738095D01*
X133190476Y9785714D01*
X133380952Y9833333D01*
X133523809Y9833333D01*
X133714285Y9785714D01*
X133809523Y9738095D01*
X133904761Y9642857D01*
X133952380Y9500000D01*
X133952380Y9261904D01*
X133380952Y10404761D02*
X133333333Y10309523D01*
X133285714Y10261904D01*
X133190476Y10214285D01*
X133142857Y10214285D01*
X133047619Y10261904D01*
X133000000Y10309523D01*
X132952380Y10404761D01*
X132952380Y10595238D01*
X133000000Y10690476D01*
X133047619Y10738095D01*
X133142857Y10785714D01*
X133190476Y10785714D01*
X133285714Y10738095D01*
X133333333Y10690476D01*
X133380952Y10595238D01*
X133380952Y10404761D01*
X133428571Y10309523D01*
X133476190Y10261904D01*
X133571428Y10214285D01*
X133761904Y10214285D01*
X133857142Y10261904D01*
X133904761Y10309523D01*
X133952380Y10404761D01*
X133952380Y10595238D01*
X133904761Y10690476D01*
X133857142Y10738095D01*
X133761904Y10785714D01*
X133571428Y10785714D01*
X133476190Y10738095D01*
X133428571Y10690476D01*
X133380952Y10595238D01*
%TO.C,C9*%
X97333333Y96142857D02*
X97285714Y96095238D01*
X97142857Y96047619D01*
X97047619Y96047619D01*
X96904761Y96095238D01*
X96809523Y96190476D01*
X96761904Y96285714D01*
X96714285Y96476190D01*
X96714285Y96619047D01*
X96761904Y96809523D01*
X96809523Y96904761D01*
X96904761Y97000000D01*
X97047619Y97047619D01*
X97142857Y97047619D01*
X97285714Y97000000D01*
X97333333Y96952380D01*
X97809523Y96047619D02*
X98000000Y96047619D01*
X98095238Y96095238D01*
X98142857Y96142857D01*
X98238095Y96285714D01*
X98285714Y96476190D01*
X98285714Y96857142D01*
X98238095Y96952380D01*
X98190476Y97000000D01*
X98095238Y97047619D01*
X97904761Y97047619D01*
X97809523Y97000000D01*
X97761904Y96952380D01*
X97714285Y96857142D01*
X97714285Y96619047D01*
X97761904Y96523809D01*
X97809523Y96476190D01*
X97904761Y96428571D01*
X98095238Y96428571D01*
X98190476Y96476190D01*
X98238095Y96523809D01*
X98285714Y96619047D01*
%TO.C,R6*%
X38833333Y44547619D02*
X38500000Y45023809D01*
X38261904Y44547619D02*
X38261904Y45547619D01*
X38642857Y45547619D01*
X38738095Y45500000D01*
X38785714Y45452380D01*
X38833333Y45357142D01*
X38833333Y45214285D01*
X38785714Y45119047D01*
X38738095Y45071428D01*
X38642857Y45023809D01*
X38261904Y45023809D01*
X39690476Y45547619D02*
X39500000Y45547619D01*
X39404761Y45500000D01*
X39357142Y45452380D01*
X39261904Y45309523D01*
X39214285Y45119047D01*
X39214285Y44738095D01*
X39261904Y44642857D01*
X39309523Y44595238D01*
X39404761Y44547619D01*
X39595238Y44547619D01*
X39690476Y44595238D01*
X39738095Y44642857D01*
X39785714Y44738095D01*
X39785714Y44976190D01*
X39738095Y45071428D01*
X39690476Y45119047D01*
X39595238Y45166666D01*
X39404761Y45166666D01*
X39309523Y45119047D01*
X39261904Y45071428D01*
X39214285Y44976190D01*
%TO.C,J1*%
X9452380Y79626666D02*
X10166666Y79626666D01*
X10309523Y79579047D01*
X10404761Y79483809D01*
X10452380Y79340952D01*
X10452380Y79245714D01*
X10452380Y80626666D02*
X10452380Y80055238D01*
X10452380Y80340952D02*
X9452380Y80340952D01*
X9595238Y80245714D01*
X9690476Y80150476D01*
X9738095Y80055238D01*
%TO.C,H6*%
X4238095Y8747619D02*
X4238095Y9747619D01*
X4238095Y9271428D02*
X4809523Y9271428D01*
X4809523Y8747619D02*
X4809523Y9747619D01*
X5714285Y9747619D02*
X5523809Y9747619D01*
X5428571Y9700000D01*
X5380952Y9652380D01*
X5285714Y9509523D01*
X5238095Y9319047D01*
X5238095Y8938095D01*
X5285714Y8842857D01*
X5333333Y8795238D01*
X5428571Y8747619D01*
X5619047Y8747619D01*
X5714285Y8795238D01*
X5761904Y8842857D01*
X5809523Y8938095D01*
X5809523Y9176190D01*
X5761904Y9271428D01*
X5714285Y9319047D01*
X5619047Y9366666D01*
X5428571Y9366666D01*
X5333333Y9319047D01*
X5285714Y9271428D01*
X5238095Y9176190D01*
%TO.C,D1*%
X101492380Y76531904D02*
X100492380Y76531904D01*
X100492380Y76770000D01*
X100540000Y76912857D01*
X100635238Y77008095D01*
X100730476Y77055714D01*
X100920952Y77103333D01*
X101063809Y77103333D01*
X101254285Y77055714D01*
X101349523Y77008095D01*
X101444761Y76912857D01*
X101492380Y76770000D01*
X101492380Y76531904D01*
X101492380Y78055714D02*
X101492380Y77484285D01*
X101492380Y77770000D02*
X100492380Y77770000D01*
X100635238Y77674761D01*
X100730476Y77579523D01*
X100778095Y77484285D01*
%TO.C,J9*%
X8002380Y16666666D02*
X8716666Y16666666D01*
X8859523Y16619047D01*
X8954761Y16523809D01*
X9002380Y16380952D01*
X9002380Y16285714D01*
X9002380Y17190476D02*
X9002380Y17380952D01*
X8954761Y17476190D01*
X8907142Y17523809D01*
X8764285Y17619047D01*
X8573809Y17666666D01*
X8192857Y17666666D01*
X8097619Y17619047D01*
X8050000Y17571428D01*
X8002380Y17476190D01*
X8002380Y17285714D01*
X8050000Y17190476D01*
X8097619Y17142857D01*
X8192857Y17095238D01*
X8430952Y17095238D01*
X8526190Y17142857D01*
X8573809Y17190476D01*
X8621428Y17285714D01*
X8621428Y17476190D01*
X8573809Y17571428D01*
X8526190Y17619047D01*
X8430952Y17666666D01*
%TO.C,J8*%
X8002380Y27416666D02*
X8716666Y27416666D01*
X8859523Y27369047D01*
X8954761Y27273809D01*
X9002380Y27130952D01*
X9002380Y27035714D01*
X8430952Y28035714D02*
X8383333Y27940476D01*
X8335714Y27892857D01*
X8240476Y27845238D01*
X8192857Y27845238D01*
X8097619Y27892857D01*
X8050000Y27940476D01*
X8002380Y28035714D01*
X8002380Y28226190D01*
X8050000Y28321428D01*
X8097619Y28369047D01*
X8192857Y28416666D01*
X8240476Y28416666D01*
X8335714Y28369047D01*
X8383333Y28321428D01*
X8430952Y28226190D01*
X8430952Y28035714D01*
X8478571Y27940476D01*
X8526190Y27892857D01*
X8621428Y27845238D01*
X8811904Y27845238D01*
X8907142Y27892857D01*
X8954761Y27940476D01*
X9002380Y28035714D01*
X9002380Y28226190D01*
X8954761Y28321428D01*
X8907142Y28369047D01*
X8811904Y28416666D01*
X8621428Y28416666D01*
X8526190Y28369047D01*
X8478571Y28321428D01*
X8430952Y28226190D01*
%TO.C,R27*%
X38857142Y55547619D02*
X38523809Y56023809D01*
X38285714Y55547619D02*
X38285714Y56547619D01*
X38666666Y56547619D01*
X38761904Y56500000D01*
X38809523Y56452380D01*
X38857142Y56357142D01*
X38857142Y56214285D01*
X38809523Y56119047D01*
X38761904Y56071428D01*
X38666666Y56023809D01*
X38285714Y56023809D01*
X39238095Y56452380D02*
X39285714Y56500000D01*
X39380952Y56547619D01*
X39619047Y56547619D01*
X39714285Y56500000D01*
X39761904Y56452380D01*
X39809523Y56357142D01*
X39809523Y56261904D01*
X39761904Y56119047D01*
X39190476Y55547619D01*
X39809523Y55547619D01*
X40142857Y56547619D02*
X40809523Y56547619D01*
X40380952Y55547619D01*
%TO.C,C7*%
X61333333Y1092857D02*
X61285714Y1045238D01*
X61142857Y997619D01*
X61047619Y997619D01*
X60904761Y1045238D01*
X60809523Y1140476D01*
X60761904Y1235714D01*
X60714285Y1426190D01*
X60714285Y1569047D01*
X60761904Y1759523D01*
X60809523Y1854761D01*
X60904761Y1950000D01*
X61047619Y1997619D01*
X61142857Y1997619D01*
X61285714Y1950000D01*
X61333333Y1902380D01*
X61666666Y1997619D02*
X62333333Y1997619D01*
X61904761Y997619D01*
%TO.C,H1*%
X144238095Y8747619D02*
X144238095Y9747619D01*
X144238095Y9271428D02*
X144809523Y9271428D01*
X144809523Y8747619D02*
X144809523Y9747619D01*
X145809523Y8747619D02*
X145238095Y8747619D01*
X145523809Y8747619D02*
X145523809Y9747619D01*
X145428571Y9604761D01*
X145333333Y9509523D01*
X145238095Y9461904D01*
%TO.C,D2*%
X114372380Y70611904D02*
X113372380Y70611904D01*
X113372380Y70850000D01*
X113420000Y70992857D01*
X113515238Y71088095D01*
X113610476Y71135714D01*
X113800952Y71183333D01*
X113943809Y71183333D01*
X114134285Y71135714D01*
X114229523Y71088095D01*
X114324761Y70992857D01*
X114372380Y70850000D01*
X114372380Y70611904D01*
X113467619Y71564285D02*
X113420000Y71611904D01*
X113372380Y71707142D01*
X113372380Y71945238D01*
X113420000Y72040476D01*
X113467619Y72088095D01*
X113562857Y72135714D01*
X113658095Y72135714D01*
X113800952Y72088095D01*
X114372380Y71516666D01*
X114372380Y72135714D01*
X113652380Y77438095D02*
X112652380Y77438095D01*
X113652380Y78009523D02*
X113080952Y77580952D01*
X112652380Y78009523D02*
X113223809Y77438095D01*
%TO.C,D10*%
X127452380Y8785714D02*
X126452380Y8785714D01*
X126452380Y9023809D01*
X126500000Y9166666D01*
X126595238Y9261904D01*
X126690476Y9309523D01*
X126880952Y9357142D01*
X127023809Y9357142D01*
X127214285Y9309523D01*
X127309523Y9261904D01*
X127404761Y9166666D01*
X127452380Y9023809D01*
X127452380Y8785714D01*
X127452380Y10309523D02*
X127452380Y9738095D01*
X127452380Y10023809D02*
X126452380Y10023809D01*
X126595238Y9928571D01*
X126690476Y9833333D01*
X126738095Y9738095D01*
X126452380Y10928571D02*
X126452380Y11023809D01*
X126500000Y11119047D01*
X126547619Y11166666D01*
X126642857Y11214285D01*
X126833333Y11261904D01*
X127071428Y11261904D01*
X127261904Y11214285D01*
X127357142Y11166666D01*
X127404761Y11119047D01*
X127452380Y11023809D01*
X127452380Y10928571D01*
X127404761Y10833333D01*
X127357142Y10785714D01*
X127261904Y10738095D01*
X127071428Y10690476D01*
X126833333Y10690476D01*
X126642857Y10738095D01*
X126547619Y10785714D01*
X126500000Y10833333D01*
X126452380Y10928571D01*
%TO.C,R17*%
X131952380Y29857142D02*
X131476190Y29523809D01*
X131952380Y29285714D02*
X130952380Y29285714D01*
X130952380Y29666666D01*
X131000000Y29761904D01*
X131047619Y29809523D01*
X131142857Y29857142D01*
X131285714Y29857142D01*
X131380952Y29809523D01*
X131428571Y29761904D01*
X131476190Y29666666D01*
X131476190Y29285714D01*
X131952380Y30809523D02*
X131952380Y30238095D01*
X131952380Y30523809D02*
X130952380Y30523809D01*
X131095238Y30428571D01*
X131190476Y30333333D01*
X131238095Y30238095D01*
X130952380Y31142857D02*
X130952380Y31809523D01*
X131952380Y31380952D01*
%TO.C,C10*%
X88407142Y13857142D02*
X88454761Y13809523D01*
X88502380Y13666666D01*
X88502380Y13571428D01*
X88454761Y13428571D01*
X88359523Y13333333D01*
X88264285Y13285714D01*
X88073809Y13238095D01*
X87930952Y13238095D01*
X87740476Y13285714D01*
X87645238Y13333333D01*
X87550000Y13428571D01*
X87502380Y13571428D01*
X87502380Y13666666D01*
X87550000Y13809523D01*
X87597619Y13857142D01*
X88502380Y14809523D02*
X88502380Y14238095D01*
X88502380Y14523809D02*
X87502380Y14523809D01*
X87645238Y14428571D01*
X87740476Y14333333D01*
X87788095Y14238095D01*
X87502380Y15428571D02*
X87502380Y15523809D01*
X87550000Y15619047D01*
X87597619Y15666666D01*
X87692857Y15714285D01*
X87883333Y15761904D01*
X88121428Y15761904D01*
X88311904Y15714285D01*
X88407142Y15666666D01*
X88454761Y15619047D01*
X88502380Y15523809D01*
X88502380Y15428571D01*
X88454761Y15333333D01*
X88407142Y15285714D01*
X88311904Y15238095D01*
X88121428Y15190476D01*
X87883333Y15190476D01*
X87692857Y15238095D01*
X87597619Y15285714D01*
X87550000Y15333333D01*
X87502380Y15428571D01*
D12*
%TO.C,RV1*%
X107125000Y10815000D02*
X116895000Y10815000D01*
X107125000Y17155000D02*
X107125000Y10815000D01*
X116895000Y17155000D02*
X116895000Y10815000D01*
X107125000Y17155000D02*
X116895000Y17155000D01*
%TO.C,RV2*%
X87810000Y1075000D02*
X87810000Y10845000D01*
X81470000Y1075000D02*
X87810000Y1075000D01*
X81470000Y10845000D02*
X87810000Y10845000D01*
X81470000Y1075000D02*
X81470000Y10845000D01*
%TO.C,R1*%
X106080000Y66890000D02*
X107920000Y66890000D01*
X106080000Y70730000D02*
X106080000Y66890000D01*
X107920000Y66890000D02*
X107920000Y70730000D01*
X107000000Y71680000D02*
X107000000Y70730000D01*
X107920000Y70730000D02*
X106080000Y70730000D01*
X107000000Y65940000D02*
X107000000Y66890000D01*
%TO.C,R26*%
X139920000Y36570000D02*
X138080000Y36570000D01*
X139920000Y32730000D02*
X139920000Y36570000D01*
X139000000Y31780000D02*
X139000000Y32730000D01*
X138080000Y36570000D02*
X138080000Y32730000D01*
X138080000Y32730000D02*
X139920000Y32730000D01*
X139000000Y37520000D02*
X139000000Y36570000D01*
%TO.C,D3*%
X103455000Y92710000D02*
X106545000Y92710000D01*
X106544830Y92710000D02*
G75*
G03*
X104999538Y98260000I-1544830J2560000D01*
G01*
X105000462Y98260000D02*
G75*
G03*
X103455170Y92710000I-462J-2990000D01*
G01*
X107500000Y95270000D02*
G75*
G03*
X107500000Y95270000I-2500000J0D01*
G01*
%TO.C,J12*%
X148310000Y46110000D02*
X141690000Y46110000D01*
X148310000Y30890000D02*
X148310000Y35800000D01*
X146700000Y31900000D02*
X146700000Y45100000D01*
X142400000Y45100000D02*
X142400000Y31900000D01*
X142400000Y31900000D02*
X146700000Y31900000D01*
X145000000Y30890000D02*
X145000000Y31900000D01*
X147310000Y39300000D02*
X147310000Y41200000D01*
X148310000Y41200000D02*
X148310000Y46110000D01*
X141690000Y30890000D02*
X148310000Y30890000D01*
X145000000Y46110000D02*
X145000000Y45100000D01*
X147310000Y35800000D02*
X147310000Y37700000D01*
X146700000Y45100000D02*
X142400000Y45100000D01*
X147310000Y37700000D02*
X147910000Y37700000D01*
X147910000Y37700000D02*
X147910000Y39300000D01*
X147310000Y41200000D02*
X148310000Y41200000D01*
X147910000Y39300000D02*
X147310000Y39300000D01*
X148610000Y45160000D02*
X148610000Y46410000D01*
X141690000Y46110000D02*
X141690000Y30890000D01*
X148610000Y46410000D02*
X147360000Y46410000D01*
X148310000Y35800000D02*
X147310000Y35800000D01*
%TO.C,R9*%
X30580000Y24920000D02*
X30580000Y23080000D01*
X30580000Y23080000D02*
X34420000Y23080000D01*
X35370000Y24000000D02*
X34420000Y24000000D01*
X29630000Y24000000D02*
X30580000Y24000000D01*
X34420000Y24920000D02*
X30580000Y24920000D01*
X34420000Y23080000D02*
X34420000Y24920000D01*
%TO.C,C11*%
X118058349Y4960000D02*
X118058349Y2416000D01*
X117738349Y9740000D02*
X117738349Y7040000D01*
X116938349Y9994000D02*
X116938349Y7040000D01*
X117898349Y9666000D02*
X117898349Y7040000D01*
X117458349Y4960000D02*
X117458349Y2150000D01*
X118738349Y9124000D02*
X118738349Y7040000D01*
X119858349Y7645000D02*
X119858349Y4355000D01*
X117818349Y4960000D02*
X117818349Y2296000D01*
X117578349Y9805000D02*
X117578349Y7040000D01*
X118178349Y9517000D02*
X118178349Y7040000D01*
X116657349Y10042000D02*
X116657349Y1958000D01*
X116737349Y10030000D02*
X116737349Y1970000D01*
X118378349Y9392000D02*
X118378349Y7040000D01*
X118418349Y9365000D02*
X118418349Y7040000D01*
X116377349Y10071000D02*
X116377349Y1929000D01*
X117258349Y4960000D02*
X117258349Y2086000D01*
X118698349Y9156000D02*
X118698349Y7040000D01*
X116818349Y4960000D02*
X116818349Y1983000D01*
X117618349Y9790000D02*
X117618349Y7040000D01*
X118898349Y8983000D02*
X118898349Y3017000D01*
X118778349Y9090000D02*
X118778349Y7040000D01*
X119178349Y8697000D02*
X119178349Y3303000D01*
X119218349Y8651000D02*
X119218349Y3349000D01*
X117178349Y4960000D02*
X117178349Y2064000D01*
X116858349Y4960000D02*
X116858349Y1990000D01*
X119378349Y8454000D02*
X119378349Y3546000D01*
X117018349Y4960000D02*
X117018349Y2024000D01*
X118258349Y4960000D02*
X118258349Y2531000D01*
X119578349Y8166000D02*
X119578349Y3834000D01*
X118778349Y4960000D02*
X118778349Y2910000D01*
X118098349Y9562000D02*
X118098349Y7040000D01*
X119698349Y7964000D02*
X119698349Y4036000D01*
X118498349Y4960000D02*
X118498349Y2691000D01*
X119018349Y8867000D02*
X119018349Y3133000D01*
X118938349Y8945000D02*
X118938349Y3055000D01*
X118618349Y9220000D02*
X118618349Y7040000D01*
X118858349Y9019000D02*
X118858349Y7040000D01*
X119818349Y7731000D02*
X119818349Y4269000D01*
X120018349Y7229000D02*
X120018349Y4771000D01*
X117258349Y9914000D02*
X117258349Y7040000D01*
X120058349Y7098000D02*
X120058349Y4902000D01*
X118138349Y4960000D02*
X118138349Y2460000D01*
X117538349Y4960000D02*
X117538349Y2179000D01*
X119338349Y8505000D02*
X119338349Y3495000D01*
X118738349Y4960000D02*
X118738349Y2876000D01*
X118458349Y9338000D02*
X118458349Y7040000D01*
X119898349Y7552000D02*
X119898349Y4448000D01*
X119458349Y8345000D02*
X119458349Y3655000D01*
X117938349Y9647000D02*
X117938349Y7040000D01*
X116978349Y4960000D02*
X116978349Y2015000D01*
X117458349Y9850000D02*
X117458349Y7040000D01*
X118858349Y4960000D02*
X118858349Y2981000D01*
X119978349Y7346000D02*
X119978349Y4654000D01*
X117498349Y4960000D02*
X117498349Y2165000D01*
X118498349Y9309000D02*
X118498349Y7040000D01*
X119538349Y8228000D02*
X119538349Y3772000D01*
X117018349Y9976000D02*
X117018349Y7040000D01*
X116858349Y10010000D02*
X116858349Y7040000D01*
X117698349Y4960000D02*
X117698349Y2243000D01*
X119658349Y8034000D02*
X119658349Y3966000D01*
X117058349Y4960000D02*
X117058349Y2033000D01*
X116177349Y10080000D02*
X116177349Y1920000D01*
X118298349Y9444000D02*
X118298349Y7040000D01*
X117378349Y4960000D02*
X117378349Y2123000D01*
X111687651Y8315000D02*
X112487651Y8315000D01*
X120138349Y6768000D02*
X120138349Y5232000D01*
X117618349Y4960000D02*
X117618349Y2210000D01*
X118218349Y4960000D02*
X118218349Y2507000D01*
X116978349Y9985000D02*
X116978349Y7040000D01*
X117298349Y9902000D02*
X117298349Y7040000D01*
X118378349Y4960000D02*
X118378349Y2608000D01*
X117578349Y4960000D02*
X117578349Y2195000D01*
X117938349Y4960000D02*
X117938349Y2353000D01*
X117658349Y4960000D02*
X117658349Y2226000D01*
X117338349Y9889000D02*
X117338349Y7040000D01*
X117378349Y9877000D02*
X117378349Y7040000D01*
X116697349Y10037000D02*
X116697349Y1963000D01*
X119138349Y8741000D02*
X119138349Y3259000D01*
X116417349Y10068000D02*
X116417349Y1932000D01*
X117858349Y9686000D02*
X117858349Y7040000D01*
X120178349Y6533000D02*
X120178349Y5467000D01*
X116938349Y4960000D02*
X116938349Y2006000D01*
X117418349Y9863000D02*
X117418349Y7040000D01*
X118098349Y4960000D02*
X118098349Y2438000D01*
X118338349Y4960000D02*
X118338349Y2582000D01*
X116898349Y4960000D02*
X116898349Y1998000D01*
X118458349Y4960000D02*
X118458349Y2662000D01*
X116818349Y10017000D02*
X116818349Y7040000D01*
X116617349Y10048000D02*
X116617349Y1952000D01*
X116137349Y10080000D02*
X116137349Y1920000D01*
X116297349Y10076000D02*
X116297349Y1924000D01*
X119058349Y8826000D02*
X119058349Y3174000D01*
X116457349Y10065000D02*
X116457349Y1935000D01*
X117898349Y4960000D02*
X117898349Y2334000D01*
X117778349Y4960000D02*
X117778349Y2278000D01*
X116537349Y10057000D02*
X116537349Y1943000D01*
X119778349Y7813000D02*
X119778349Y4187000D01*
X117178349Y9936000D02*
X117178349Y7040000D01*
X119298349Y8556000D02*
X119298349Y3444000D01*
X116097349Y10080000D02*
X116097349Y1920000D01*
X118018349Y9606000D02*
X118018349Y7040000D01*
X117138349Y9947000D02*
X117138349Y7040000D01*
X116257349Y10077000D02*
X116257349Y1923000D01*
X118978349Y8907000D02*
X118978349Y3093000D01*
X117658349Y9774000D02*
X117658349Y7040000D01*
X116577349Y10052000D02*
X116577349Y1948000D01*
X118658349Y4960000D02*
X118658349Y2811000D01*
X118218349Y9493000D02*
X118218349Y7040000D01*
X117098349Y9957000D02*
X117098349Y7040000D01*
X117218349Y9925000D02*
X117218349Y7040000D01*
X116898349Y10002000D02*
X116898349Y7040000D01*
X118418349Y4960000D02*
X118418349Y2635000D01*
X117698349Y9757000D02*
X117698349Y7040000D01*
X117978349Y4960000D02*
X117978349Y2373000D01*
X118818349Y9055000D02*
X118818349Y7040000D01*
X120098349Y6948000D02*
X120098349Y5052000D01*
X116497349Y10061000D02*
X116497349Y1939000D01*
X117818349Y9704000D02*
X117818349Y7040000D01*
X119098349Y8784000D02*
X119098349Y3216000D01*
X117418349Y4960000D02*
X117418349Y2137000D01*
X118338349Y9418000D02*
X118338349Y7040000D01*
X117298349Y4960000D02*
X117298349Y2098000D01*
X118018349Y4960000D02*
X118018349Y2394000D01*
X118578349Y4960000D02*
X118578349Y2750000D01*
X119738349Y7890000D02*
X119738349Y4110000D01*
X118138349Y9540000D02*
X118138349Y7040000D01*
X117218349Y4960000D02*
X117218349Y2075000D01*
X117098349Y4960000D02*
X117098349Y2043000D01*
X118178349Y4960000D02*
X118178349Y2483000D01*
X118058349Y9584000D02*
X118058349Y7040000D01*
X118538349Y4960000D02*
X118538349Y2720000D01*
X118818349Y4960000D02*
X118818349Y2945000D01*
X118298349Y4960000D02*
X118298349Y2556000D01*
X116337349Y10074000D02*
X116337349Y1926000D01*
X117978349Y9627000D02*
X117978349Y7040000D01*
X117058349Y9967000D02*
X117058349Y7040000D01*
X116217349Y10079000D02*
X116217349Y1921000D01*
X119618349Y8102000D02*
X119618349Y3898000D01*
X117738349Y4960000D02*
X117738349Y2260000D01*
X118538349Y9280000D02*
X118538349Y7040000D01*
X118618349Y4960000D02*
X118618349Y2780000D01*
X117858349Y4960000D02*
X117858349Y2314000D01*
X118658349Y9189000D02*
X118658349Y7040000D01*
X116777349Y10024000D02*
X116777349Y1976000D01*
X117498349Y9835000D02*
X117498349Y7040000D01*
X117538349Y9821000D02*
X117538349Y7040000D01*
X119258349Y8604000D02*
X119258349Y3396000D01*
X119938349Y7453000D02*
X119938349Y4547000D01*
X119418349Y8400000D02*
X119418349Y3600000D01*
X117778349Y9722000D02*
X117778349Y7040000D01*
X119498349Y8287000D02*
X119498349Y3713000D01*
X112087651Y8715000D02*
X112087651Y7915000D01*
X118258349Y9469000D02*
X118258349Y7040000D01*
X117138349Y4960000D02*
X117138349Y2053000D01*
X118578349Y9250000D02*
X118578349Y7040000D01*
X117338349Y4960000D02*
X117338349Y2111000D01*
X118698349Y4960000D02*
X118698349Y2844000D01*
X120217349Y6000000D02*
G75*
G03*
X120217349Y6000000I-4120000J0D01*
G01*
%TO.C,C2*%
X98730000Y30580000D02*
X98730000Y31205000D01*
X98730000Y32795000D02*
X98730000Y33420000D01*
X102770000Y32795000D02*
X102770000Y33420000D01*
X102770000Y30580000D02*
X98730000Y30580000D01*
X102770000Y30580000D02*
X102770000Y31205000D01*
X102770000Y33420000D02*
X98730000Y33420000D01*
%TO.C,J4*%
X148810000Y90580000D02*
X141190000Y90580000D01*
X148810000Y80420000D02*
X148810000Y90580000D01*
X142460000Y80420000D02*
X142460000Y90580000D01*
X141190000Y90580000D02*
X141190000Y80420000D01*
X141190000Y80420000D02*
X148810000Y80420000D01*
%TO.C,D9*%
X99220000Y4920000D02*
X99220000Y1080000D01*
X105920000Y1080000D02*
X105920000Y4920000D01*
X105920000Y4920000D02*
X98080000Y4920000D01*
X98080000Y4920000D02*
X98080000Y1080000D01*
X99340000Y4920000D02*
X99340000Y1080000D01*
X99460000Y4920000D02*
X99460000Y1080000D01*
X98080000Y1080000D02*
X105920000Y1080000D01*
X97090000Y3000000D02*
X98080000Y3000000D01*
X106910000Y3000000D02*
X105920000Y3000000D01*
%TO.C,R10*%
X35370000Y26500000D02*
X34420000Y26500000D01*
X34420000Y25580000D02*
X34420000Y27420000D01*
X29630000Y26500000D02*
X30580000Y26500000D01*
X30580000Y25580000D02*
X34420000Y25580000D01*
X34420000Y27420000D02*
X30580000Y27420000D01*
X30580000Y27420000D02*
X30580000Y25580000D01*
%TO.C,R5*%
X113080000Y52920000D02*
X113080000Y49080000D01*
X113080000Y49080000D02*
X114920000Y49080000D01*
X114920000Y49080000D02*
X114920000Y52920000D01*
X114000000Y53870000D02*
X114000000Y52920000D01*
X114920000Y52920000D02*
X113080000Y52920000D01*
X114000000Y48130000D02*
X114000000Y49080000D01*
%TO.C,C8*%
X15600000Y94418349D02*
X20400000Y94418349D01*
X16654000Y94978349D02*
X19346000Y94978349D01*
X13932000Y91417349D02*
X22068000Y91417349D01*
X17232000Y95138349D02*
X18768000Y95138349D01*
X19040000Y93418349D02*
X21365000Y93418349D01*
X19040000Y92538349D02*
X21821000Y92538349D01*
X14507000Y93218349D02*
X16960000Y93218349D01*
X15685000Y86687651D02*
X15685000Y87487651D01*
X16547000Y94938349D02*
X19453000Y94938349D01*
X14662000Y93458349D02*
X16960000Y93458349D01*
X15093000Y93978349D02*
X20907000Y93978349D01*
X14876000Y93738349D02*
X16960000Y93738349D01*
X14314000Y92858349D02*
X16960000Y92858349D01*
X14483000Y93178349D02*
X16960000Y93178349D01*
X14024000Y92018349D02*
X16960000Y92018349D01*
X13920000Y91137349D02*
X22080000Y91137349D01*
X19040000Y92938349D02*
X21647000Y92938349D01*
X13939000Y91497349D02*
X22061000Y91497349D01*
X13998000Y91898349D02*
X16960000Y91898349D01*
X19040000Y91898349D02*
X22002000Y91898349D01*
X14720000Y93538349D02*
X16960000Y93538349D01*
X15216000Y94098349D02*
X20784000Y94098349D01*
X15174000Y94058349D02*
X20826000Y94058349D01*
X19040000Y92298349D02*
X21902000Y92298349D01*
X14394000Y93018349D02*
X16960000Y93018349D01*
X14334000Y92898349D02*
X16960000Y92898349D01*
X19040000Y92138349D02*
X21947000Y92138349D01*
X14053000Y92138349D02*
X16960000Y92138349D01*
X15396000Y94258349D02*
X20604000Y94258349D01*
X19040000Y92578349D02*
X21805000Y92578349D01*
X19040000Y93138349D02*
X21540000Y93138349D01*
X14981000Y93858349D02*
X16960000Y93858349D01*
X13920000Y91177349D02*
X22080000Y91177349D01*
X19040000Y93538349D02*
X21280000Y93538349D01*
X19040000Y93738349D02*
X21124000Y93738349D01*
X19040000Y91938349D02*
X21994000Y91938349D01*
X19040000Y92858349D02*
X21686000Y92858349D01*
X13921000Y91217349D02*
X22079000Y91217349D01*
X15713000Y94498349D02*
X20287000Y94498349D01*
X14945000Y93818349D02*
X16960000Y93818349D01*
X19040000Y93658349D02*
X21189000Y93658349D01*
X16448000Y94898349D02*
X19552000Y94898349D01*
X19040000Y93698349D02*
X21156000Y93698349D01*
X19040000Y92378349D02*
X21877000Y92378349D01*
X14210000Y92618349D02*
X16960000Y92618349D01*
X15285000Y87087651D02*
X16085000Y87087651D01*
X15966000Y94658349D02*
X20034000Y94658349D01*
X14075000Y92218349D02*
X16960000Y92218349D01*
X19040000Y93818349D02*
X21055000Y93818349D01*
X13943000Y91537349D02*
X22057000Y91537349D01*
X16187000Y94778349D02*
X19813000Y94778349D01*
X14556000Y93298349D02*
X16960000Y93298349D01*
X13963000Y91697349D02*
X22037000Y91697349D01*
X15444000Y94298349D02*
X20556000Y94298349D01*
X14750000Y93578349D02*
X16960000Y93578349D01*
X16110000Y94738349D02*
X19890000Y94738349D01*
X14635000Y93418349D02*
X16960000Y93418349D01*
X13990000Y91858349D02*
X16960000Y91858349D01*
X14043000Y92098349D02*
X16960000Y92098349D01*
X14608000Y93378349D02*
X16960000Y93378349D01*
X19040000Y92218349D02*
X21925000Y92218349D01*
X14064000Y92178349D02*
X16960000Y92178349D01*
X19040000Y93618349D02*
X21220000Y93618349D01*
X19040000Y93458349D02*
X21338000Y93458349D01*
X13976000Y91777349D02*
X22024000Y91777349D01*
X13935000Y91457349D02*
X22065000Y91457349D01*
X14531000Y93258349D02*
X16960000Y93258349D01*
X14123000Y92378349D02*
X16960000Y92378349D01*
X19040000Y93178349D02*
X21517000Y93178349D01*
X19040000Y92738349D02*
X21740000Y92738349D01*
X15055000Y93938349D02*
X20945000Y93938349D01*
X15495000Y94338349D02*
X20505000Y94338349D01*
X17052000Y95098349D02*
X18948000Y95098349D01*
X19040000Y91858349D02*
X22010000Y91858349D01*
X15655000Y94458349D02*
X20345000Y94458349D01*
X19040000Y93578349D02*
X21250000Y93578349D01*
X14582000Y93338349D02*
X16960000Y93338349D01*
X14910000Y93778349D02*
X16960000Y93778349D01*
X15259000Y94138349D02*
X20741000Y94138349D01*
X15772000Y94538349D02*
X20228000Y94538349D01*
X14373000Y92978349D02*
X16960000Y92978349D01*
X19040000Y93098349D02*
X21562000Y93098349D01*
X14296000Y92818349D02*
X16960000Y92818349D01*
X16269000Y94818349D02*
X19731000Y94818349D01*
X19040000Y92098349D02*
X21957000Y92098349D01*
X14165000Y92498349D02*
X16960000Y92498349D01*
X19040000Y92058349D02*
X21967000Y92058349D01*
X14460000Y93138349D02*
X16960000Y93138349D01*
X14416000Y93058349D02*
X16960000Y93058349D01*
X13952000Y91617349D02*
X22048000Y91617349D01*
X19040000Y93778349D02*
X21090000Y93778349D01*
X14137000Y92418349D02*
X16960000Y92418349D01*
X19040000Y93218349D02*
X21493000Y93218349D01*
X19040000Y92618349D02*
X21790000Y92618349D01*
X19040000Y92658349D02*
X21774000Y92658349D01*
X13924000Y91297349D02*
X22076000Y91297349D01*
X16355000Y94858349D02*
X19645000Y94858349D01*
X19040000Y93378349D02*
X21392000Y93378349D01*
X14691000Y93498349D02*
X16960000Y93498349D01*
X14226000Y92658349D02*
X16960000Y92658349D01*
X19040000Y92418349D02*
X21863000Y92418349D01*
X14438000Y93098349D02*
X16960000Y93098349D01*
X13920000Y91097349D02*
X22080000Y91097349D01*
X19040000Y93058349D02*
X21584000Y93058349D01*
X19040000Y92898349D02*
X21666000Y92898349D01*
X19040000Y92498349D02*
X21835000Y92498349D01*
X13970000Y91737349D02*
X22030000Y91737349D01*
X19040000Y91818349D02*
X22017000Y91818349D01*
X13926000Y91337349D02*
X22074000Y91337349D01*
X19040000Y91978349D02*
X21985000Y91978349D01*
X14243000Y92698349D02*
X16960000Y92698349D01*
X19040000Y93338349D02*
X21418000Y93338349D01*
X17467000Y95178349D02*
X18533000Y95178349D01*
X13929000Y91377349D02*
X22071000Y91377349D01*
X15133000Y94018349D02*
X20867000Y94018349D01*
X15898000Y94618349D02*
X20102000Y94618349D01*
X14150000Y92458349D02*
X16960000Y92458349D01*
X19040000Y93298349D02*
X21444000Y93298349D01*
X14260000Y92738349D02*
X16960000Y92738349D01*
X14780000Y93618349D02*
X16960000Y93618349D01*
X19040000Y92338349D02*
X21889000Y92338349D01*
X19040000Y92458349D02*
X21850000Y92458349D01*
X19040000Y92018349D02*
X21976000Y92018349D01*
X19040000Y92698349D02*
X21757000Y92698349D01*
X16771000Y95018349D02*
X19229000Y95018349D01*
X19040000Y93498349D02*
X21309000Y93498349D01*
X14098000Y92298349D02*
X16960000Y92298349D01*
X15546000Y94378349D02*
X20454000Y94378349D01*
X19040000Y92178349D02*
X21936000Y92178349D01*
X15017000Y93898349D02*
X20983000Y93898349D01*
X13948000Y91577349D02*
X22052000Y91577349D01*
X19040000Y93858349D02*
X21019000Y93858349D01*
X15303000Y94178349D02*
X20697000Y94178349D01*
X19040000Y92978349D02*
X21627000Y92978349D01*
X14033000Y92058349D02*
X16960000Y92058349D01*
X19040000Y92258349D02*
X21914000Y92258349D01*
X13923000Y91257349D02*
X22077000Y91257349D01*
X19040000Y93258349D02*
X21469000Y93258349D01*
X14179000Y92538349D02*
X16960000Y92538349D01*
X13958000Y91657349D02*
X22042000Y91657349D01*
X13983000Y91818349D02*
X16960000Y91818349D01*
X14811000Y93658349D02*
X16960000Y93658349D01*
X19040000Y92818349D02*
X21704000Y92818349D01*
X14006000Y91938349D02*
X16960000Y91938349D01*
X14278000Y92778349D02*
X16960000Y92778349D01*
X16036000Y94698349D02*
X19964000Y94698349D01*
X14353000Y92938349D02*
X16960000Y92938349D01*
X14086000Y92258349D02*
X16960000Y92258349D01*
X15349000Y94218349D02*
X20651000Y94218349D01*
X14195000Y92578349D02*
X16960000Y92578349D01*
X15834000Y94578349D02*
X20166000Y94578349D01*
X16902000Y95058349D02*
X19098000Y95058349D01*
X19040000Y93018349D02*
X21606000Y93018349D01*
X14015000Y91978349D02*
X16960000Y91978349D01*
X19040000Y92778349D02*
X21722000Y92778349D01*
X14844000Y93698349D02*
X16960000Y93698349D01*
X14111000Y92338349D02*
X16960000Y92338349D01*
X22120000Y91097349D02*
G75*
G03*
X22120000Y91097349I-4120000J0D01*
G01*
%TO.C,TP5*%
X76500000Y21000000D02*
G75*
G03*
X76500000Y21000000I-1500000J0D01*
G01*
%TO.C,R16*%
X128080000Y35270000D02*
X129920000Y35270000D01*
X128080000Y39110000D02*
X128080000Y35270000D01*
X129920000Y39110000D02*
X128080000Y39110000D01*
X129920000Y35270000D02*
X129920000Y39110000D01*
X129000000Y34320000D02*
X129000000Y35270000D01*
X129000000Y40060000D02*
X129000000Y39110000D01*
%TO.C,PS1*%
X26267500Y96132500D02*
X78767500Y96132500D01*
X78767500Y96132500D02*
X78767500Y68632500D01*
X26267500Y68632500D02*
X26267500Y96132500D01*
X78767500Y68632500D02*
X26267500Y68632500D01*
X26167500Y96432500D02*
X30167500Y96432500D01*
%TO.C,R19*%
X84580000Y20580000D02*
X86420000Y20580000D01*
X85500000Y25370000D02*
X85500000Y24420000D01*
X86420000Y24420000D02*
X84580000Y24420000D01*
X84580000Y24420000D02*
X84580000Y20580000D01*
X86420000Y20580000D02*
X86420000Y24420000D01*
X85500000Y19630000D02*
X85500000Y20580000D01*
%TO.C,R20*%
X101870000Y7500000D02*
X100920000Y7500000D01*
X97080000Y8420000D02*
X97080000Y6580000D01*
X100920000Y6580000D02*
X100920000Y8420000D01*
X96130000Y7500000D02*
X97080000Y7500000D01*
X100920000Y8420000D02*
X97080000Y8420000D01*
X97080000Y6580000D02*
X100920000Y6580000D01*
%TO.C,R8*%
X123000000Y53870000D02*
X123000000Y52920000D01*
X122080000Y49080000D02*
X123920000Y49080000D01*
X122080000Y52920000D02*
X122080000Y49080000D01*
X123920000Y49080000D02*
X123920000Y52920000D01*
X123920000Y52920000D02*
X122080000Y52920000D01*
X123000000Y48130000D02*
X123000000Y49080000D01*
%TO.C,D7*%
X136455000Y11435000D02*
X139545000Y11435000D01*
X139544830Y11435000D02*
G75*
G03*
X137999538Y16985000I-1544830J2560000D01*
G01*
X138000462Y16985000D02*
G75*
G03*
X136455170Y11435000I-462J-2990000D01*
G01*
X140500000Y13995000D02*
G75*
G03*
X140500000Y13995000I-2500000J0D01*
G01*
%TO.C,R11*%
X137080000Y4080000D02*
X138920000Y4080000D01*
X138920000Y4080000D02*
X138920000Y7920000D01*
X138920000Y7920000D02*
X137080000Y7920000D01*
X137080000Y7920000D02*
X137080000Y4080000D01*
X138000000Y8870000D02*
X138000000Y7920000D01*
X138000000Y3130000D02*
X138000000Y4080000D01*
%TO.C,R15*%
X132420000Y4080000D02*
X132420000Y7920000D01*
X130580000Y7920000D02*
X130580000Y4080000D01*
X130580000Y4080000D02*
X132420000Y4080000D01*
X131500000Y8870000D02*
X131500000Y7920000D01*
X132420000Y7920000D02*
X130580000Y7920000D01*
X131500000Y3130000D02*
X131500000Y4080000D01*
%TO.C,R25*%
X137420000Y36570000D02*
X135580000Y36570000D01*
X136500000Y31780000D02*
X136500000Y32730000D01*
X137420000Y32730000D02*
X137420000Y36570000D01*
X136500000Y37520000D02*
X136500000Y36570000D01*
X135580000Y36570000D02*
X135580000Y32730000D01*
X135580000Y32730000D02*
X137420000Y32730000D01*
%TO.C,TP4*%
X111000000Y8500000D02*
G75*
G03*
X111000000Y8500000I-1500000J0D01*
G01*
%TO.C,U3*%
X65120000Y28850000D02*
X65120000Y12960000D01*
X57460000Y12960000D02*
X57460000Y10420000D01*
X54880000Y28850000D02*
X65120000Y28850000D01*
X54880000Y12960000D02*
X65120000Y12960000D01*
X54880000Y28850000D02*
X54880000Y12960000D01*
X62540000Y12960000D02*
X62540000Y10420000D01*
X60000000Y12960000D02*
X60000000Y10420000D01*
%TO.C,K2*%
X134900000Y97800000D02*
X134900000Y82200000D01*
X115100000Y97800000D02*
X134900000Y97800000D01*
X119150000Y89950000D02*
X118350000Y89950000D01*
X120550000Y88150000D02*
X120550000Y91750000D01*
X130650000Y94200000D02*
X130650000Y91700000D01*
X134900000Y82200000D02*
X115100000Y82200000D01*
X125950000Y86350000D02*
X119150000Y86350000D01*
X125950000Y89950000D02*
X127450000Y89950000D01*
X122550000Y95950000D02*
X122550000Y91750000D01*
X130650000Y85800000D02*
X130650000Y88250000D01*
X122550000Y88150000D02*
X122550000Y83950000D01*
X127450000Y89950000D02*
X132050000Y92450000D01*
X124550000Y88150000D02*
X120550000Y91750000D01*
X120050000Y83950000D02*
X122550000Y83950000D01*
X124550000Y88150000D02*
X120550000Y88150000D01*
X119150000Y89950000D02*
X119150000Y86350000D01*
X125950000Y89950000D02*
X125950000Y86350000D01*
X124550000Y91750000D02*
X124550000Y88150000D01*
X115100000Y88800000D02*
X115100000Y82200000D01*
X120550000Y91750000D02*
X124550000Y91750000D01*
X115100000Y97800000D02*
X115100000Y91200000D01*
X122550000Y95950000D02*
X120050000Y95950000D01*
%TO.C,R13*%
X34420000Y17920000D02*
X30580000Y17920000D01*
X30580000Y16080000D02*
X34420000Y16080000D01*
X29630000Y17000000D02*
X30580000Y17000000D01*
X34420000Y16080000D02*
X34420000Y17920000D01*
X35370000Y17000000D02*
X34420000Y17000000D01*
X30580000Y17920000D02*
X30580000Y16080000D01*
%TO.C,U1*%
X96760000Y82230000D02*
X95510000Y82230000D01*
X99760000Y82290000D02*
X89260000Y82290000D01*
X93510000Y82230000D02*
X92260000Y82230000D01*
X92260000Y61790000D02*
X96760000Y61790000D01*
X96760000Y61790000D02*
X96760000Y82230000D01*
X89260000Y61730000D02*
X99760000Y61730000D01*
X89260000Y82290000D02*
X89260000Y61730000D01*
X99760000Y61730000D02*
X99760000Y82290000D01*
X92260000Y82230000D02*
X92260000Y61790000D01*
X93510000Y82230000D02*
G75*
G03*
X95510000Y82230000I1000000J0D01*
G01*
%TO.C,D4*%
X112920000Y92130000D02*
X109080000Y92130000D01*
X111000000Y84440000D02*
X111000000Y85430000D01*
X112920000Y91890000D02*
X109080000Y91890000D01*
X109080000Y85430000D02*
X112920000Y85430000D01*
X112920000Y85430000D02*
X112920000Y93270000D01*
X109080000Y93270000D02*
X109080000Y85430000D01*
X112920000Y92010000D02*
X109080000Y92010000D01*
X111000000Y94260000D02*
X111000000Y93270000D01*
X112920000Y93270000D02*
X109080000Y93270000D01*
%TO.C,R12*%
X34420000Y20420000D02*
X30580000Y20420000D01*
X30580000Y20420000D02*
X30580000Y18580000D01*
X34420000Y18580000D02*
X34420000Y20420000D01*
X29630000Y19500000D02*
X30580000Y19500000D01*
X35370000Y19500000D02*
X34420000Y19500000D01*
X30580000Y18580000D02*
X34420000Y18580000D01*
%TO.C,D11*%
X91000000Y7090000D02*
X91000000Y8080000D01*
X92920000Y15920000D02*
X89080000Y15920000D01*
X92920000Y14780000D02*
X89080000Y14780000D01*
X92920000Y8080000D02*
X92920000Y15920000D01*
X92920000Y14660000D02*
X89080000Y14660000D01*
X89080000Y8080000D02*
X92920000Y8080000D01*
X92920000Y14540000D02*
X89080000Y14540000D01*
X89080000Y15920000D02*
X89080000Y8080000D01*
X91000000Y16910000D02*
X91000000Y15920000D01*
%TO.C,J3*%
X5200000Y59950000D02*
X5200000Y60700000D01*
X6700000Y59950000D02*
X7450000Y59950000D01*
X7750000Y70350000D02*
X6500000Y70350000D01*
X2250000Y60700000D02*
X2250000Y65000000D01*
X2250000Y65000000D02*
X2250000Y68240000D01*
X7450000Y61750000D02*
X6700000Y61750000D01*
X5200000Y60700000D02*
X2250000Y60700000D01*
X7460000Y59940000D02*
X7460000Y70060000D01*
X7450000Y63250000D02*
X7450000Y66750000D01*
X6700000Y70050000D02*
X6700000Y68250000D01*
X7450000Y66750000D02*
X6700000Y66750000D01*
X1490000Y59940000D02*
X7460000Y59940000D01*
X1490000Y70060000D02*
X1490000Y59940000D01*
X7450000Y59950000D02*
X7450000Y61750000D01*
X6700000Y68250000D02*
X7450000Y68250000D01*
X7450000Y68250000D02*
X7450000Y70050000D01*
X6700000Y66750000D02*
X6700000Y63250000D01*
X6700000Y61750000D02*
X6700000Y59950000D01*
X7450000Y70050000D02*
X6700000Y70050000D01*
X7460000Y70060000D02*
X1490000Y70060000D01*
X5200000Y69300000D02*
X3860000Y69300000D01*
X6700000Y63250000D02*
X7450000Y63250000D01*
X7750000Y69100000D02*
X7750000Y70350000D01*
X5200000Y70050000D02*
X5200000Y69300000D01*
%TO.C,C3*%
X34520000Y28080000D02*
X30480000Y28080000D01*
X30480000Y30295000D02*
X30480000Y30920000D01*
X34520000Y30920000D02*
X30480000Y30920000D01*
X30480000Y28080000D02*
X30480000Y28705000D01*
X34520000Y28080000D02*
X34520000Y28705000D01*
X34520000Y30295000D02*
X34520000Y30920000D01*
%TO.C,C6*%
X71534000Y2841651D02*
X67466000Y2841651D01*
X73377000Y5121651D02*
X70540000Y5121651D01*
X73568000Y6082651D02*
X65432000Y6082651D01*
X72720000Y3881651D02*
X70540000Y3881651D01*
X68460000Y4881651D02*
X65710000Y4881651D01*
X73166000Y4601651D02*
X70540000Y4601651D01*
X73580000Y6402651D02*
X65420000Y6402651D01*
X71815000Y10812349D02*
X71815000Y10012349D01*
X73147000Y4561651D02*
X70540000Y4561651D01*
X70448000Y2401651D02*
X68552000Y2401651D01*
X73062000Y4401651D02*
X70540000Y4401651D01*
X73447000Y5361651D02*
X70540000Y5361651D01*
X68460000Y4481651D02*
X65894000Y4481651D01*
X68460000Y4681651D02*
X65796000Y4681651D01*
X73542000Y5842651D02*
X65458000Y5842651D01*
X68460000Y5121651D02*
X65623000Y5121651D01*
X68460000Y5201651D02*
X65598000Y5201651D01*
X73552000Y5922651D02*
X65448000Y5922651D01*
X73557000Y5962651D02*
X65443000Y5962651D01*
X68460000Y4281651D02*
X66007000Y4281651D01*
X72445000Y3561651D02*
X66555000Y3561651D01*
X73017000Y4321651D02*
X70540000Y4321651D01*
X72656000Y3801651D02*
X70540000Y3801651D01*
X72944000Y4201651D02*
X70540000Y4201651D01*
X73476000Y5481651D02*
X70540000Y5481651D01*
X72056000Y3201651D02*
X66944000Y3201651D01*
X68460000Y4921651D02*
X65695000Y4921651D01*
X73274000Y4841651D02*
X70540000Y4841651D01*
X73561000Y6002651D02*
X65439000Y6002651D01*
X68460000Y5481651D02*
X65524000Y5481651D01*
X70268000Y2361651D02*
X68732000Y2361651D01*
X73502000Y5601651D02*
X70540000Y5601651D01*
X70846000Y2521651D02*
X68154000Y2521651D01*
X73040000Y4361651D02*
X70540000Y4361651D01*
X68460000Y4641651D02*
X65814000Y4641651D01*
X71390000Y2761651D02*
X67610000Y2761651D01*
X73485000Y5521651D02*
X70540000Y5521651D01*
X68460000Y5081651D02*
X65637000Y5081651D01*
X73577000Y6242651D02*
X65423000Y6242651D01*
X68460000Y5681651D02*
X65483000Y5681651D01*
X72590000Y3721651D02*
X70540000Y3721651D01*
X73580000Y6362651D02*
X65420000Y6362651D01*
X72780000Y3961651D02*
X70540000Y3961651D01*
X68460000Y5321651D02*
X65564000Y5321651D01*
X72838000Y4041651D02*
X70540000Y4041651D01*
X73436000Y5321651D02*
X70540000Y5321651D01*
X72865000Y4081651D02*
X70540000Y4081651D01*
X73305000Y4921651D02*
X70540000Y4921651D01*
X68460000Y5641651D02*
X65490000Y5641651D01*
X72624000Y3761651D02*
X70540000Y3761651D01*
X70953000Y2561651D02*
X68047000Y2561651D01*
X68460000Y3721651D02*
X66410000Y3721651D01*
X73257000Y4801651D02*
X70540000Y4801651D01*
X73510000Y5641651D02*
X70540000Y5641651D01*
X73186000Y4641651D02*
X70540000Y4641651D01*
X68460000Y4841651D02*
X65726000Y4841651D01*
X70598000Y2441651D02*
X68402000Y2441651D01*
X68460000Y4521651D02*
X65873000Y4521651D01*
X71464000Y2801651D02*
X67536000Y2801651D01*
X72151000Y3281651D02*
X66849000Y3281651D01*
X68460000Y5161651D02*
X65611000Y5161651D01*
X68460000Y5241651D02*
X65586000Y5241651D01*
X72809000Y4001651D02*
X70540000Y4001651D01*
X73290000Y4881651D02*
X70540000Y4881651D01*
X68460000Y3761651D02*
X66376000Y3761651D01*
X72969000Y4241651D02*
X70540000Y4241651D01*
X68460000Y5401651D02*
X65543000Y5401651D01*
X70729000Y2481651D02*
X68271000Y2481651D01*
X73321000Y4961651D02*
X70540000Y4961651D01*
X68460000Y4321651D02*
X65983000Y4321651D01*
X71787000Y3001651D02*
X67213000Y3001651D01*
X73548000Y5882651D02*
X65452000Y5882651D01*
X72483000Y3601651D02*
X66517000Y3601651D01*
X71313000Y2721651D02*
X67687000Y2721651D01*
X68460000Y5601651D02*
X65498000Y5601651D01*
X73565000Y6042651D02*
X65435000Y6042651D01*
X73363000Y5081651D02*
X70540000Y5081651D01*
X72918000Y4161651D02*
X70540000Y4161651D01*
X72284000Y3401651D02*
X66716000Y3401651D01*
X72367000Y3481651D02*
X66633000Y3481651D01*
X68460000Y3841651D02*
X66311000Y3841651D01*
X68460000Y5521651D02*
X65515000Y5521651D01*
X72689000Y3841651D02*
X70540000Y3841651D01*
X72555000Y3681651D02*
X70540000Y3681651D01*
X72993000Y4281651D02*
X70540000Y4281651D01*
X68460000Y4001651D02*
X66191000Y4001651D01*
X72241000Y3361651D02*
X66759000Y3361651D01*
X73425000Y5281651D02*
X70540000Y5281651D01*
X72892000Y4121651D02*
X70540000Y4121651D01*
X71666000Y2921651D02*
X67334000Y2921651D01*
X72326000Y3441651D02*
X66674000Y3441651D01*
X73571000Y6122651D02*
X65429000Y6122651D01*
X71728000Y2961651D02*
X67272000Y2961651D01*
X68460000Y3681651D02*
X66445000Y3681651D01*
X73457000Y5401651D02*
X70540000Y5401651D01*
X72215000Y10412349D02*
X71415000Y10412349D01*
X73414000Y5241651D02*
X70540000Y5241651D01*
X68460000Y5561651D02*
X65506000Y5561651D01*
X71231000Y2681651D02*
X67769000Y2681651D01*
X72005000Y3161651D02*
X66995000Y3161651D01*
X68460000Y5361651D02*
X65553000Y5361651D01*
X71954000Y3121651D02*
X67046000Y3121651D01*
X68460000Y4401651D02*
X65938000Y4401651D01*
X68460000Y3881651D02*
X66280000Y3881651D01*
X73204000Y4681651D02*
X70540000Y4681651D01*
X71900000Y3081651D02*
X67100000Y3081651D01*
X72407000Y3521651D02*
X66593000Y3521651D01*
X68460000Y4241651D02*
X66031000Y4241651D01*
X73524000Y5722651D02*
X65476000Y5722651D01*
X72197000Y3321651D02*
X66803000Y3321651D01*
X73240000Y4761651D02*
X70540000Y4761651D01*
X68460000Y5001651D02*
X65665000Y5001651D01*
X72519000Y3641651D02*
X70540000Y3641651D01*
X73517000Y5681651D02*
X70540000Y5681651D01*
X68460000Y5281651D02*
X65575000Y5281651D01*
X73402000Y5201651D02*
X70540000Y5201651D01*
X73222000Y4721651D02*
X70540000Y4721651D01*
X68460000Y4201651D02*
X66056000Y4201651D01*
X68460000Y4761651D02*
X65760000Y4761651D01*
X68460000Y4161651D02*
X66082000Y4161651D01*
X73389000Y5161651D02*
X70540000Y5161651D01*
X68460000Y4361651D02*
X65960000Y4361651D01*
X73579000Y6282651D02*
X65421000Y6282651D01*
X68460000Y5441651D02*
X65533000Y5441651D01*
X71145000Y2641651D02*
X67855000Y2641651D01*
X68460000Y4721651D02*
X65778000Y4721651D01*
X68460000Y4961651D02*
X65679000Y4961651D01*
X73350000Y5041651D02*
X70540000Y5041651D01*
X73576000Y6202651D02*
X65424000Y6202651D01*
X73530000Y5762651D02*
X65470000Y5762651D01*
X73580000Y6322651D02*
X65420000Y6322651D01*
X68460000Y4801651D02*
X65743000Y4801651D01*
X68460000Y4441651D02*
X65916000Y4441651D01*
X68460000Y4561651D02*
X65853000Y4561651D01*
X68460000Y3961651D02*
X66220000Y3961651D01*
X73127000Y4521651D02*
X70540000Y4521651D01*
X73335000Y5001651D02*
X70540000Y5001651D01*
X73537000Y5802651D02*
X65463000Y5802651D01*
X70033000Y2321651D02*
X68967000Y2321651D01*
X68460000Y4601651D02*
X65834000Y4601651D01*
X68460000Y3641651D02*
X66481000Y3641651D01*
X73494000Y5561651D02*
X70540000Y5561651D01*
X71052000Y2601651D02*
X67948000Y2601651D01*
X68460000Y3801651D02*
X66344000Y3801651D01*
X68460000Y3921651D02*
X66250000Y3921651D01*
X73106000Y4481651D02*
X70540000Y4481651D01*
X73467000Y5441651D02*
X70540000Y5441651D01*
X71845000Y3041651D02*
X67155000Y3041651D01*
X68460000Y5041651D02*
X65650000Y5041651D01*
X68460000Y4041651D02*
X66162000Y4041651D01*
X72750000Y3921651D02*
X70540000Y3921651D01*
X68460000Y4121651D02*
X66108000Y4121651D01*
X72104000Y3241651D02*
X66896000Y3241651D01*
X73084000Y4441651D02*
X70540000Y4441651D01*
X71602000Y2881651D02*
X67398000Y2881651D01*
X68460000Y4081651D02*
X66135000Y4081651D01*
X73574000Y6162651D02*
X65426000Y6162651D01*
X73620000Y6402651D02*
G75*
G03*
X73620000Y6402651I-4120000J0D01*
G01*
%TO.C,R23*%
X136920000Y21080000D02*
X136920000Y22920000D01*
X136920000Y22920000D02*
X133080000Y22920000D01*
X132130000Y22000000D02*
X133080000Y22000000D01*
X137870000Y22000000D02*
X136920000Y22000000D01*
X133080000Y21080000D02*
X136920000Y21080000D01*
X133080000Y22920000D02*
X133080000Y21080000D01*
%TO.C,D5*%
X115545000Y62290000D02*
X112455000Y62290000D01*
X113999538Y56740000D02*
G75*
G03*
X115544830Y62290000I462J2990000D01*
G01*
X112455170Y62290000D02*
G75*
G03*
X114000462Y56740000I1544830J-2560000D01*
G01*
X116500000Y59730000D02*
G75*
G03*
X116500000Y59730000I-2500000J0D01*
G01*
%TO.C,TP3*%
X81500000Y13500000D02*
G75*
G03*
X81500000Y13500000I-1500000J0D01*
G01*
%TO.C,R29*%
X30580000Y59420000D02*
X30580000Y57580000D01*
X29630000Y58500000D02*
X30580000Y58500000D01*
X34420000Y59420000D02*
X30580000Y59420000D01*
X35370000Y58500000D02*
X34420000Y58500000D01*
X30580000Y57580000D02*
X34420000Y57580000D01*
X34420000Y57580000D02*
X34420000Y59420000D01*
%TO.C,K1*%
X127450000Y71950000D02*
X132050000Y74450000D01*
X125950000Y71950000D02*
X125950000Y68350000D01*
X125950000Y68350000D02*
X119150000Y68350000D01*
X119150000Y71950000D02*
X119150000Y68350000D01*
X120550000Y73750000D02*
X124550000Y73750000D01*
X122550000Y70150000D02*
X122550000Y65950000D01*
X122550000Y77950000D02*
X120050000Y77950000D01*
X134900000Y79800000D02*
X134900000Y64200000D01*
X119150000Y71950000D02*
X118350000Y71950000D01*
X124550000Y73750000D02*
X124550000Y70150000D01*
X134900000Y64200000D02*
X115100000Y64200000D01*
X124550000Y70150000D02*
X120550000Y70150000D01*
X120050000Y65950000D02*
X122550000Y65950000D01*
X130650000Y67800000D02*
X130650000Y70250000D01*
X130650000Y76200000D02*
X130650000Y73700000D01*
X115100000Y79800000D02*
X115100000Y73200000D01*
X115100000Y70800000D02*
X115100000Y64200000D01*
X120550000Y70150000D02*
X120550000Y73750000D01*
X115100000Y79800000D02*
X134900000Y79800000D01*
X122550000Y77950000D02*
X122550000Y73750000D01*
X124550000Y70150000D02*
X120550000Y73750000D01*
X125950000Y71950000D02*
X127450000Y71950000D01*
%TO.C,J2*%
X148810000Y69380000D02*
X148810000Y79540000D01*
X141190000Y79540000D02*
X141190000Y69380000D01*
X148810000Y79540000D02*
X141190000Y79540000D01*
X141190000Y69380000D02*
X148810000Y69380000D01*
X142460000Y69380000D02*
X142460000Y79540000D01*
%TO.C,J7*%
X5200000Y58550000D02*
X5200000Y57800000D01*
X6700000Y55250000D02*
X6700000Y49250000D01*
X5200000Y57800000D02*
X3860000Y57800000D01*
X2250000Y52250000D02*
X2250000Y56740000D01*
X7450000Y58550000D02*
X6700000Y58550000D01*
X6700000Y49250000D02*
X7450000Y49250000D01*
X5200000Y45950000D02*
X5200000Y46700000D01*
X6700000Y56750000D02*
X7450000Y56750000D01*
X2250000Y46700000D02*
X2250000Y52250000D01*
X7460000Y45940000D02*
X7460000Y58560000D01*
X5200000Y46700000D02*
X2250000Y46700000D01*
X7750000Y57600000D02*
X7750000Y58850000D01*
X6700000Y47750000D02*
X6700000Y45950000D01*
X7450000Y45950000D02*
X7450000Y47750000D01*
X7450000Y56750000D02*
X7450000Y58550000D01*
X1490000Y58560000D02*
X1490000Y45940000D01*
X6700000Y58550000D02*
X6700000Y56750000D01*
X1490000Y45940000D02*
X7460000Y45940000D01*
X7750000Y58850000D02*
X6500000Y58850000D01*
X7450000Y55250000D02*
X6700000Y55250000D01*
X7450000Y49250000D02*
X7450000Y55250000D01*
X6700000Y45950000D02*
X7450000Y45950000D01*
X7450000Y47750000D02*
X6700000Y47750000D01*
X7460000Y58560000D02*
X1490000Y58560000D01*
%TO.C,D6*%
X124545000Y62290000D02*
X121455000Y62290000D01*
X121455170Y62290000D02*
G75*
G03*
X123000462Y56740000I1544830J-2560000D01*
G01*
X122999538Y56740000D02*
G75*
G03*
X124544830Y62290000I462J2990000D01*
G01*
X125500000Y59730000D02*
G75*
G03*
X125500000Y59730000I-2500000J0D01*
G01*
%TO.C,R28*%
X29630000Y53500000D02*
X30580000Y53500000D01*
X35370000Y53500000D02*
X34420000Y53500000D01*
X34420000Y54420000D02*
X30580000Y54420000D01*
X30580000Y54420000D02*
X30580000Y52580000D01*
X34420000Y52580000D02*
X34420000Y54420000D01*
X30580000Y52580000D02*
X34420000Y52580000D01*
%TO.C,R14*%
X34420000Y13580000D02*
X34420000Y15420000D01*
X34420000Y15420000D02*
X30580000Y15420000D01*
X35370000Y14500000D02*
X34420000Y14500000D01*
X29630000Y14500000D02*
X30580000Y14500000D01*
X30580000Y13580000D02*
X34420000Y13580000D01*
X30580000Y15420000D02*
X30580000Y13580000D01*
%TO.C,U2*%
X69945000Y42760000D02*
X69945000Y47260000D01*
X51985000Y39760000D02*
X70005000Y39760000D01*
X52045000Y47260000D02*
X52045000Y46010000D01*
X69945000Y47260000D02*
X52045000Y47260000D01*
X70005000Y39760000D02*
X70005000Y50260000D01*
X70005000Y50260000D02*
X51985000Y50260000D01*
X52045000Y44010000D02*
X52045000Y42760000D01*
X52045000Y42760000D02*
X69945000Y42760000D01*
X51985000Y50260000D02*
X51985000Y39760000D01*
X52045000Y44010000D02*
G75*
G03*
X52045000Y46010000I0J1000000D01*
G01*
%TO.C,C1*%
X99920000Y60520000D02*
X99920000Y56480000D01*
X97705000Y56480000D02*
X97080000Y56480000D01*
X99920000Y60520000D02*
X99295000Y60520000D01*
X97080000Y60520000D02*
X97080000Y56480000D01*
X97705000Y60520000D02*
X97080000Y60520000D01*
X99920000Y56480000D02*
X99295000Y56480000D01*
%TO.C,TP1*%
X122000000Y18500000D02*
G75*
G03*
X122000000Y18500000I-1500000J0D01*
G01*
%TO.C,J5*%
X6700000Y45050000D02*
X6700000Y43250000D01*
X7450000Y34250000D02*
X6700000Y34250000D01*
X5200000Y45050000D02*
X5200000Y44300000D01*
X5200000Y33200000D02*
X2250000Y33200000D01*
X1490000Y32440000D02*
X7460000Y32440000D01*
X7450000Y45050000D02*
X6700000Y45050000D01*
X7450000Y35750000D02*
X7450000Y41750000D01*
X2250000Y33200000D02*
X2250000Y38750000D01*
X7450000Y41750000D02*
X6700000Y41750000D01*
X6700000Y35750000D02*
X7450000Y35750000D01*
X7750000Y44100000D02*
X7750000Y45350000D01*
X7750000Y45350000D02*
X6500000Y45350000D01*
X7450000Y32450000D02*
X7450000Y34250000D01*
X2250000Y38750000D02*
X2250000Y43240000D01*
X5200000Y32450000D02*
X5200000Y33200000D01*
X7450000Y43250000D02*
X7450000Y45050000D01*
X7460000Y45060000D02*
X1490000Y45060000D01*
X6700000Y41750000D02*
X6700000Y35750000D01*
X1490000Y45060000D02*
X1490000Y32440000D01*
X6700000Y32450000D02*
X7450000Y32450000D01*
X5200000Y44300000D02*
X3860000Y44300000D01*
X6700000Y34250000D02*
X6700000Y32450000D01*
X7460000Y32440000D02*
X7460000Y45060000D01*
X6700000Y43250000D02*
X7450000Y43250000D01*
%TO.C,R3*%
X34420000Y41580000D02*
X34420000Y43420000D01*
X34420000Y43420000D02*
X30580000Y43420000D01*
X30580000Y41580000D02*
X34420000Y41580000D01*
X35370000Y42500000D02*
X34420000Y42500000D01*
X30580000Y43420000D02*
X30580000Y41580000D01*
X29630000Y42500000D02*
X30580000Y42500000D01*
%TO.C,R24*%
X133080000Y18580000D02*
X136920000Y18580000D01*
X137870000Y19500000D02*
X136920000Y19500000D01*
X132130000Y19500000D02*
X133080000Y19500000D01*
X136920000Y18580000D02*
X136920000Y20420000D01*
X133080000Y20420000D02*
X133080000Y18580000D01*
X136920000Y20420000D02*
X133080000Y20420000D01*
%TO.C,R22*%
X136920000Y23580000D02*
X136920000Y25420000D01*
X133080000Y25420000D02*
X133080000Y23580000D01*
X136920000Y25420000D02*
X133080000Y25420000D01*
X137870000Y24500000D02*
X136920000Y24500000D01*
X132130000Y24500000D02*
X133080000Y24500000D01*
X133080000Y23580000D02*
X136920000Y23580000D01*
%TO.C,R21*%
X124080000Y7920000D02*
X124080000Y4080000D01*
X125920000Y4080000D02*
X125920000Y7920000D01*
X125000000Y3130000D02*
X125000000Y4080000D01*
X125000000Y8870000D02*
X125000000Y7920000D01*
X125920000Y7920000D02*
X124080000Y7920000D01*
X124080000Y4080000D02*
X125920000Y4080000D01*
%TO.C,C5*%
X53980000Y2580000D02*
X58020000Y2580000D01*
X53980000Y3205000D02*
X53980000Y2580000D01*
X53980000Y5420000D02*
X58020000Y5420000D01*
X58020000Y3205000D02*
X58020000Y2580000D01*
X58020000Y5420000D02*
X58020000Y4795000D01*
X53980000Y5420000D02*
X53980000Y4795000D01*
%TO.C,R2*%
X30580000Y36580000D02*
X34420000Y36580000D01*
X30580000Y38420000D02*
X30580000Y36580000D01*
X34420000Y36580000D02*
X34420000Y38420000D01*
X35370000Y37500000D02*
X34420000Y37500000D01*
X34420000Y38420000D02*
X30580000Y38420000D01*
X29630000Y37500000D02*
X30580000Y37500000D01*
%TO.C,J10*%
X148810000Y68580000D02*
X141190000Y68580000D01*
X141190000Y58420000D02*
X148810000Y58420000D01*
X148810000Y58420000D02*
X148810000Y68580000D01*
X141190000Y68580000D02*
X141190000Y58420000D01*
X142460000Y58420000D02*
X142460000Y68580000D01*
%TO.C,C13*%
X91476000Y89829000D02*
X88540000Y89829000D01*
X91127000Y88869000D02*
X88540000Y88869000D01*
X89666000Y87269000D02*
X85334000Y87269000D01*
X91425000Y89629000D02*
X88540000Y89629000D01*
X90483000Y87949000D02*
X84517000Y87949000D01*
X91574000Y90510000D02*
X83426000Y90510000D01*
X89900000Y87429000D02*
X85100000Y87429000D01*
X91274000Y89189000D02*
X88540000Y89189000D01*
X89728000Y87309000D02*
X85272000Y87309000D01*
X86460000Y88749000D02*
X83938000Y88749000D01*
X86460000Y88229000D02*
X84280000Y88229000D01*
X91204000Y89029000D02*
X88540000Y89029000D01*
X90005000Y87509000D02*
X84995000Y87509000D01*
X86460000Y88909000D02*
X83853000Y88909000D01*
X86460000Y90029000D02*
X83483000Y90029000D01*
X88729000Y86829000D02*
X86271000Y86829000D01*
X88598000Y86789000D02*
X86402000Y86789000D01*
X90689000Y88189000D02*
X88540000Y88189000D01*
X86460000Y88469000D02*
X84108000Y88469000D01*
X91222000Y89069000D02*
X88540000Y89069000D01*
X89954000Y87469000D02*
X85046000Y87469000D01*
X91580000Y90670000D02*
X83420000Y90670000D01*
X90720000Y88229000D02*
X88540000Y88229000D01*
X91106000Y88829000D02*
X88540000Y88829000D01*
X90865000Y88429000D02*
X88540000Y88429000D01*
X90809000Y88349000D02*
X88540000Y88349000D01*
X86460000Y89389000D02*
X83650000Y89389000D01*
X91548000Y90230000D02*
X83452000Y90230000D01*
X86460000Y88829000D02*
X83894000Y88829000D01*
X90151000Y87629000D02*
X84849000Y87629000D01*
X91240000Y89109000D02*
X88540000Y89109000D01*
X90197000Y87669000D02*
X84803000Y87669000D01*
X89602000Y87229000D02*
X85398000Y87229000D01*
X86460000Y88629000D02*
X84007000Y88629000D01*
X86460000Y88429000D02*
X84135000Y88429000D01*
X91363000Y89429000D02*
X88540000Y89429000D01*
X88033000Y86669000D02*
X86967000Y86669000D01*
X91580000Y90750000D02*
X83420000Y90750000D01*
X86460000Y89269000D02*
X83695000Y89269000D01*
X90519000Y87989000D02*
X88540000Y87989000D01*
X86460000Y89469000D02*
X83623000Y89469000D01*
X90555000Y88029000D02*
X88540000Y88029000D01*
X90445000Y87909000D02*
X84555000Y87909000D01*
X89052000Y86949000D02*
X85948000Y86949000D01*
X86460000Y89069000D02*
X83778000Y89069000D01*
X86460000Y89789000D02*
X83533000Y89789000D01*
X90944000Y88549000D02*
X88540000Y88549000D01*
X86460000Y88869000D02*
X83873000Y88869000D01*
X86460000Y89349000D02*
X83665000Y89349000D01*
X89390000Y87109000D02*
X85610000Y87109000D01*
X89815000Y95159698D02*
X89815000Y94359698D01*
X91568000Y90430000D02*
X83432000Y90430000D01*
X91389000Y89509000D02*
X88540000Y89509000D01*
X90590000Y88069000D02*
X88540000Y88069000D01*
X86460000Y88349000D02*
X84191000Y88349000D01*
X86460000Y88389000D02*
X84162000Y88389000D01*
X86460000Y89829000D02*
X83524000Y89829000D01*
X86460000Y88709000D02*
X83960000Y88709000D01*
X91552000Y90270000D02*
X83448000Y90270000D01*
X88953000Y86909000D02*
X86047000Y86909000D01*
X86460000Y88189000D02*
X84311000Y88189000D01*
X91040000Y88709000D02*
X88540000Y88709000D01*
X86460000Y89109000D02*
X83760000Y89109000D01*
X90284000Y87749000D02*
X84716000Y87749000D01*
X91436000Y89669000D02*
X88540000Y89669000D01*
X91457000Y89749000D02*
X88540000Y89749000D01*
X90215000Y94759698D02*
X89415000Y94759698D01*
X90780000Y88309000D02*
X88540000Y88309000D01*
X88268000Y86709000D02*
X86732000Y86709000D01*
X86460000Y88309000D02*
X84220000Y88309000D01*
X86460000Y88269000D02*
X84250000Y88269000D01*
X91290000Y89229000D02*
X88540000Y89229000D01*
X88448000Y86749000D02*
X86552000Y86749000D01*
X90993000Y88629000D02*
X88540000Y88629000D01*
X91321000Y89309000D02*
X88540000Y89309000D01*
X91537000Y90150000D02*
X83463000Y90150000D01*
X86460000Y89589000D02*
X83586000Y89589000D01*
X89845000Y87389000D02*
X85155000Y87389000D01*
X89145000Y86989000D02*
X85855000Y86989000D01*
X91447000Y89709000D02*
X88540000Y89709000D01*
X90407000Y87869000D02*
X84593000Y87869000D01*
X91494000Y89909000D02*
X88540000Y89909000D01*
X91186000Y88989000D02*
X88540000Y88989000D01*
X91502000Y89949000D02*
X88540000Y89949000D01*
X86460000Y87989000D02*
X84481000Y87989000D01*
X86460000Y89869000D02*
X83515000Y89869000D01*
X86460000Y89429000D02*
X83637000Y89429000D01*
X91561000Y90350000D02*
X83439000Y90350000D01*
X91305000Y89269000D02*
X88540000Y89269000D01*
X88846000Y86869000D02*
X86154000Y86869000D01*
X86460000Y88149000D02*
X84344000Y88149000D01*
X91571000Y90470000D02*
X83429000Y90470000D01*
X90624000Y88109000D02*
X88540000Y88109000D01*
X91350000Y89389000D02*
X88540000Y89389000D01*
X86460000Y89189000D02*
X83726000Y89189000D01*
X86460000Y88989000D02*
X83814000Y88989000D01*
X90056000Y87549000D02*
X84944000Y87549000D01*
X89231000Y87029000D02*
X85769000Y87029000D01*
X91147000Y88909000D02*
X88540000Y88909000D01*
X86460000Y89549000D02*
X83598000Y89549000D01*
X91579000Y90630000D02*
X83421000Y90630000D01*
X91485000Y89869000D02*
X88540000Y89869000D01*
X91062000Y88749000D02*
X88540000Y88749000D01*
X91335000Y89349000D02*
X88540000Y89349000D01*
X90892000Y88469000D02*
X88540000Y88469000D01*
X86460000Y89749000D02*
X83543000Y89749000D01*
X90104000Y87589000D02*
X84896000Y87589000D01*
X91524000Y90070000D02*
X83476000Y90070000D01*
X86460000Y88549000D02*
X84056000Y88549000D01*
X91017000Y88669000D02*
X88540000Y88669000D01*
X86460000Y89229000D02*
X83710000Y89229000D01*
X90367000Y87829000D02*
X84633000Y87829000D01*
X91565000Y90390000D02*
X83435000Y90390000D01*
X91414000Y89589000D02*
X88540000Y89589000D01*
X86460000Y88069000D02*
X84410000Y88069000D01*
X90656000Y88149000D02*
X88540000Y88149000D01*
X86460000Y89909000D02*
X83506000Y89909000D01*
X86460000Y89149000D02*
X83743000Y89149000D01*
X91402000Y89549000D02*
X88540000Y89549000D01*
X91577000Y90590000D02*
X83423000Y90590000D01*
X91510000Y89989000D02*
X88540000Y89989000D01*
X86460000Y89509000D02*
X83611000Y89509000D01*
X91542000Y90190000D02*
X83458000Y90190000D01*
X86460000Y89989000D02*
X83490000Y89989000D01*
X86460000Y89669000D02*
X83564000Y89669000D01*
X90969000Y88589000D02*
X88540000Y88589000D01*
X86460000Y88109000D02*
X84376000Y88109000D01*
X86460000Y88589000D02*
X84031000Y88589000D01*
X90750000Y88269000D02*
X88540000Y88269000D01*
X90241000Y87709000D02*
X84759000Y87709000D01*
X86460000Y89629000D02*
X83575000Y89629000D01*
X91517000Y90029000D02*
X88540000Y90029000D01*
X91377000Y89469000D02*
X88540000Y89469000D01*
X91576000Y90550000D02*
X83424000Y90550000D01*
X89464000Y87149000D02*
X85536000Y87149000D01*
X86460000Y89709000D02*
X83553000Y89709000D01*
X86460000Y89309000D02*
X83679000Y89309000D01*
X91257000Y89149000D02*
X88540000Y89149000D01*
X90918000Y88509000D02*
X88540000Y88509000D01*
X91467000Y89789000D02*
X88540000Y89789000D01*
X89313000Y87069000D02*
X85687000Y87069000D01*
X91580000Y90710000D02*
X83420000Y90710000D01*
X86460000Y89029000D02*
X83796000Y89029000D01*
X86460000Y88669000D02*
X83983000Y88669000D01*
X86460000Y88789000D02*
X83916000Y88789000D01*
X91530000Y90110000D02*
X83470000Y90110000D01*
X90838000Y88389000D02*
X88540000Y88389000D01*
X86460000Y88029000D02*
X84445000Y88029000D01*
X91166000Y88949000D02*
X88540000Y88949000D01*
X91557000Y90310000D02*
X83443000Y90310000D01*
X86460000Y88949000D02*
X83834000Y88949000D01*
X86460000Y89949000D02*
X83498000Y89949000D01*
X90326000Y87789000D02*
X84674000Y87789000D01*
X89534000Y87189000D02*
X85466000Y87189000D01*
X86460000Y88509000D02*
X84082000Y88509000D01*
X91084000Y88789000D02*
X88540000Y88789000D01*
X89787000Y87349000D02*
X85213000Y87349000D01*
X91620000Y90750000D02*
G75*
G03*
X91620000Y90750000I-4120000J0D01*
G01*
%TO.C,J11*%
X148610000Y30410000D02*
X147360000Y30410000D01*
X147310000Y15200000D02*
X148310000Y15200000D01*
X145000000Y30110000D02*
X145000000Y29100000D01*
X141690000Y9890000D02*
X148310000Y9890000D01*
X148310000Y15200000D02*
X148310000Y17300000D01*
X146700000Y29100000D02*
X142400000Y29100000D01*
X147310000Y20800000D02*
X147310000Y22700000D01*
X147310000Y19200000D02*
X147910000Y19200000D01*
X148310000Y17300000D02*
X147310000Y17300000D01*
X147310000Y12190000D02*
X147310000Y15200000D01*
X147910000Y20800000D02*
X147310000Y20800000D01*
X142400000Y29100000D02*
X142400000Y10900000D01*
X148310000Y27810000D02*
X148310000Y30110000D01*
X148310000Y30110000D02*
X141690000Y30110000D01*
X147310000Y22700000D02*
X148310000Y22700000D01*
X148310000Y24800000D02*
X147310000Y24800000D01*
X147310000Y27810000D02*
X148310000Y27810000D01*
X142400000Y10900000D02*
X146700000Y10900000D01*
X147310000Y17300000D02*
X147310000Y19200000D01*
X141690000Y30110000D02*
X141690000Y9890000D01*
X148310000Y12190000D02*
X147310000Y12190000D01*
X145000000Y9890000D02*
X145000000Y10900000D01*
X147310000Y24800000D02*
X147310000Y27810000D01*
X146700000Y10900000D02*
X146700000Y29100000D01*
X148310000Y9890000D02*
X148310000Y12190000D01*
X147910000Y19200000D02*
X147910000Y20800000D01*
X148610000Y29160000D02*
X148610000Y30410000D01*
X148310000Y22700000D02*
X148310000Y24800000D01*
%TO.C,J6*%
X147975000Y50250000D02*
X147975000Y53750000D01*
X147975000Y55250000D02*
X147975000Y57050000D01*
X147225000Y50250000D02*
X147975000Y50250000D01*
X148275000Y56100000D02*
X148275000Y57350000D01*
X145725000Y57050000D02*
X145725000Y56300000D01*
X147985000Y46940000D02*
X147985000Y57060000D01*
X147985000Y57060000D02*
X142015000Y57060000D01*
X147225000Y55250000D02*
X147975000Y55250000D01*
X145725000Y56300000D02*
X144385000Y56300000D01*
X145725000Y47700000D02*
X142775000Y47700000D01*
X147975000Y53750000D02*
X147225000Y53750000D01*
X147225000Y53750000D02*
X147225000Y50250000D01*
X147225000Y48750000D02*
X147225000Y46950000D01*
X148275000Y57350000D02*
X147025000Y57350000D01*
X145725000Y46950000D02*
X145725000Y47700000D01*
X147975000Y48750000D02*
X147225000Y48750000D01*
X147225000Y46950000D02*
X147975000Y46950000D01*
X147975000Y57050000D02*
X147225000Y57050000D01*
X147975000Y46950000D02*
X147975000Y48750000D01*
X142015000Y57060000D02*
X142015000Y46940000D01*
X142015000Y46940000D02*
X147985000Y46940000D01*
X142775000Y52000000D02*
X142775000Y55240000D01*
X142775000Y47700000D02*
X142775000Y52000000D01*
X147225000Y57050000D02*
X147225000Y55250000D01*
%TO.C,U4*%
X99510000Y29955000D02*
X98260000Y29955000D01*
X95260000Y11995000D02*
X105760000Y11995000D01*
X98260000Y29955000D02*
X98260000Y12055000D01*
X105760000Y11995000D02*
X105760000Y30015000D01*
X102760000Y12055000D02*
X102760000Y29955000D01*
X95260000Y30015000D02*
X95260000Y11995000D01*
X102760000Y29955000D02*
X101510000Y29955000D01*
X98260000Y12055000D02*
X102760000Y12055000D01*
X105760000Y30015000D02*
X95260000Y30015000D01*
X99510000Y29955000D02*
G75*
G03*
X101510000Y29955000I1000000J0D01*
G01*
%TO.C,R4*%
X107920000Y88730000D02*
X106080000Y88730000D01*
X106080000Y84890000D02*
X107920000Y84890000D01*
X106080000Y88730000D02*
X106080000Y84890000D01*
X107920000Y84890000D02*
X107920000Y88730000D01*
X107000000Y89680000D02*
X107000000Y88730000D01*
X107000000Y83940000D02*
X107000000Y84890000D01*
%TO.C,C4*%
X51907000Y3521651D02*
X46093000Y3521651D01*
X52647000Y4561651D02*
X50040000Y4561651D01*
X52889000Y5161651D02*
X50040000Y5161651D01*
X47960000Y3641651D02*
X45981000Y3641651D01*
X51651000Y3281651D02*
X46349000Y3281651D01*
X52925000Y5281651D02*
X50040000Y5281651D01*
X51228000Y2961651D02*
X46772000Y2961651D01*
X47960000Y4761651D02*
X45260000Y4761651D01*
X47960000Y4161651D02*
X45582000Y4161651D01*
X51715000Y10412349D02*
X50915000Y10412349D01*
X53010000Y5641651D02*
X50040000Y5641651D01*
X52957000Y5401651D02*
X50040000Y5401651D01*
X51287000Y3001651D02*
X46713000Y3001651D01*
X47960000Y4601651D02*
X45334000Y4601651D01*
X51345000Y3041651D02*
X46655000Y3041651D01*
X47960000Y4241651D02*
X45531000Y4241651D01*
X47960000Y5561651D02*
X45006000Y5561651D01*
X47960000Y5121651D02*
X45123000Y5121651D01*
X47960000Y3681651D02*
X45945000Y3681651D01*
X47960000Y5001651D02*
X45165000Y5001651D01*
X51983000Y3601651D02*
X46017000Y3601651D01*
X52627000Y4521651D02*
X50040000Y4521651D01*
X47960000Y3881651D02*
X45780000Y3881651D01*
X47960000Y4521651D02*
X45373000Y4521651D01*
X52850000Y5041651D02*
X50040000Y5041651D01*
X53061000Y6002651D02*
X44939000Y6002651D01*
X47960000Y4921651D02*
X45195000Y4921651D01*
X47960000Y5161651D02*
X45111000Y5161651D01*
X49948000Y2401651D02*
X48052000Y2401651D01*
X47960000Y5401651D02*
X45043000Y5401651D01*
X51741000Y3361651D02*
X46259000Y3361651D01*
X47960000Y4281651D02*
X45507000Y4281651D01*
X52309000Y4001651D02*
X50040000Y4001651D01*
X47960000Y4081651D02*
X45635000Y4081651D01*
X50229000Y2481651D02*
X47771000Y2481651D01*
X53074000Y6162651D02*
X44926000Y6162651D01*
X52914000Y5241651D02*
X50040000Y5241651D01*
X47960000Y4881651D02*
X45210000Y4881651D01*
X52124000Y3761651D02*
X50040000Y3761651D01*
X50731000Y2681651D02*
X47269000Y2681651D01*
X52220000Y3881651D02*
X50040000Y3881651D01*
X51826000Y3441651D02*
X46174000Y3441651D01*
X47960000Y5041651D02*
X45150000Y5041651D01*
X47960000Y5361651D02*
X45053000Y5361651D01*
X50453000Y2561651D02*
X47547000Y2561651D01*
X53076000Y6202651D02*
X44924000Y6202651D01*
X52338000Y4041651D02*
X50040000Y4041651D01*
X52757000Y4801651D02*
X50040000Y4801651D01*
X47960000Y5521651D02*
X45015000Y5521651D01*
X47960000Y5481651D02*
X45024000Y5481651D01*
X47960000Y4841651D02*
X45226000Y4841651D01*
X53030000Y5762651D02*
X44970000Y5762651D01*
X52863000Y5081651D02*
X50040000Y5081651D01*
X53048000Y5882651D02*
X44952000Y5882651D01*
X52444000Y4201651D02*
X50040000Y4201651D01*
X52704000Y4681651D02*
X50040000Y4681651D01*
X52835000Y5001651D02*
X50040000Y5001651D01*
X53024000Y5722651D02*
X44976000Y5722651D01*
X52250000Y3921651D02*
X50040000Y3921651D01*
X52902000Y5201651D02*
X50040000Y5201651D01*
X52418000Y4161651D02*
X50040000Y4161651D01*
X47960000Y5321651D02*
X45064000Y5321651D01*
X52493000Y4281651D02*
X50040000Y4281651D01*
X52790000Y4881651D02*
X50040000Y4881651D01*
X53080000Y6322651D02*
X44920000Y6322651D01*
X47960000Y5281651D02*
X45075000Y5281651D01*
X52994000Y5561651D02*
X50040000Y5561651D01*
X51784000Y3401651D02*
X46216000Y3401651D01*
X53017000Y5681651D02*
X50040000Y5681651D01*
X52540000Y4361651D02*
X50040000Y4361651D01*
X53077000Y6242651D02*
X44923000Y6242651D01*
X51102000Y2881651D02*
X46898000Y2881651D01*
X53079000Y6282651D02*
X44921000Y6282651D01*
X52584000Y4441651D02*
X50040000Y4441651D01*
X52562000Y4401651D02*
X50040000Y4401651D01*
X52280000Y3961651D02*
X50040000Y3961651D01*
X47960000Y4121651D02*
X45608000Y4121651D01*
X53071000Y6122651D02*
X44929000Y6122651D01*
X52392000Y4121651D02*
X50040000Y4121651D01*
X51166000Y2921651D02*
X46834000Y2921651D01*
X47960000Y5441651D02*
X45033000Y5441651D01*
X52606000Y4481651D02*
X50040000Y4481651D01*
X53042000Y5842651D02*
X44958000Y5842651D01*
X47960000Y5241651D02*
X45086000Y5241651D01*
X50964000Y2801651D02*
X47036000Y2801651D01*
X52740000Y4761651D02*
X50040000Y4761651D01*
X50346000Y2521651D02*
X47654000Y2521651D01*
X51454000Y3121651D02*
X46546000Y3121651D01*
X51556000Y3201651D02*
X46444000Y3201651D01*
X52019000Y3641651D02*
X50040000Y3641651D01*
X47960000Y5681651D02*
X44983000Y5681651D01*
X50813000Y2721651D02*
X47187000Y2721651D01*
X47960000Y4361651D02*
X45460000Y4361651D01*
X47960000Y3801651D02*
X45844000Y3801651D01*
X53080000Y6362651D02*
X44920000Y6362651D01*
X51034000Y2841651D02*
X46966000Y2841651D01*
X47960000Y4561651D02*
X45353000Y4561651D01*
X53052000Y5922651D02*
X44948000Y5922651D01*
X51400000Y3081651D02*
X46600000Y3081651D01*
X50645000Y2641651D02*
X47355000Y2641651D01*
X50552000Y2601651D02*
X47448000Y2601651D01*
X47960000Y4681651D02*
X45296000Y4681651D01*
X53037000Y5802651D02*
X44963000Y5802651D01*
X47960000Y5081651D02*
X45137000Y5081651D01*
X51604000Y3241651D02*
X46396000Y3241651D01*
X52469000Y4241651D02*
X50040000Y4241651D01*
X49533000Y2321651D02*
X48467000Y2321651D01*
X52821000Y4961651D02*
X50040000Y4961651D01*
X52517000Y4321651D02*
X50040000Y4321651D01*
X50890000Y2761651D02*
X47110000Y2761651D01*
X47960000Y4441651D02*
X45416000Y4441651D01*
X52805000Y4921651D02*
X50040000Y4921651D01*
X52967000Y5441651D02*
X50040000Y5441651D01*
X47960000Y3761651D02*
X45876000Y3761651D01*
X47960000Y5601651D02*
X44998000Y5601651D01*
X52976000Y5481651D02*
X50040000Y5481651D01*
X51505000Y3161651D02*
X46495000Y3161651D01*
X53065000Y6042651D02*
X44935000Y6042651D01*
X47960000Y4801651D02*
X45243000Y4801651D01*
X52156000Y3801651D02*
X50040000Y3801651D01*
X52090000Y3721651D02*
X50040000Y3721651D01*
X47960000Y4041651D02*
X45662000Y4041651D01*
X47960000Y4321651D02*
X45483000Y4321651D01*
X52722000Y4721651D02*
X50040000Y4721651D01*
X53080000Y6402651D02*
X44920000Y6402651D01*
X47960000Y3721651D02*
X45910000Y3721651D01*
X47960000Y3961651D02*
X45720000Y3961651D01*
X51315000Y10812349D02*
X51315000Y10012349D01*
X47960000Y4481651D02*
X45394000Y4481651D01*
X47960000Y4201651D02*
X45556000Y4201651D01*
X47960000Y3841651D02*
X45811000Y3841651D01*
X51945000Y3561651D02*
X46055000Y3561651D01*
X52686000Y4641651D02*
X50040000Y4641651D01*
X53068000Y6082651D02*
X44932000Y6082651D01*
X52936000Y5321651D02*
X50040000Y5321651D01*
X47960000Y4961651D02*
X45179000Y4961651D01*
X47960000Y4401651D02*
X45438000Y4401651D01*
X52877000Y5121651D02*
X50040000Y5121651D01*
X47960000Y4721651D02*
X45278000Y4721651D01*
X47960000Y5641651D02*
X44990000Y5641651D01*
X47960000Y5201651D02*
X45098000Y5201651D01*
X52947000Y5361651D02*
X50040000Y5361651D01*
X52189000Y3841651D02*
X50040000Y3841651D01*
X51697000Y3321651D02*
X46303000Y3321651D01*
X47960000Y4641651D02*
X45314000Y4641651D01*
X53057000Y5962651D02*
X44943000Y5962651D01*
X52666000Y4601651D02*
X50040000Y4601651D01*
X52774000Y4841651D02*
X50040000Y4841651D01*
X52985000Y5521651D02*
X50040000Y5521651D01*
X47960000Y4001651D02*
X45691000Y4001651D01*
X50098000Y2441651D02*
X47902000Y2441651D01*
X52365000Y4081651D02*
X50040000Y4081651D01*
X52055000Y3681651D02*
X50040000Y3681651D01*
X47960000Y3921651D02*
X45750000Y3921651D01*
X49768000Y2361651D02*
X48232000Y2361651D01*
X53002000Y5601651D02*
X50040000Y5601651D01*
X51867000Y3481651D02*
X46133000Y3481651D01*
X53120000Y6402651D02*
G75*
G03*
X53120000Y6402651I-4120000J0D01*
G01*
%TO.C,C12*%
X51420000Y47520000D02*
X50795000Y47520000D01*
X51420000Y47520000D02*
X51420000Y43480000D01*
X49205000Y43480000D02*
X48580000Y43480000D01*
X48580000Y47520000D02*
X48580000Y43480000D01*
X51420000Y43480000D02*
X50795000Y43480000D01*
X49205000Y47520000D02*
X48580000Y47520000D01*
%TO.C,R30*%
X29630000Y51000000D02*
X30580000Y51000000D01*
X30580000Y51920000D02*
X30580000Y50080000D01*
X34420000Y51920000D02*
X30580000Y51920000D01*
X35370000Y51000000D02*
X34420000Y51000000D01*
X34420000Y50080000D02*
X34420000Y51920000D01*
X30580000Y50080000D02*
X34420000Y50080000D01*
%TO.C,R18*%
X133080000Y38580000D02*
X133080000Y34740000D01*
X134920000Y34740000D02*
X134920000Y38580000D01*
X133080000Y34740000D02*
X134920000Y34740000D01*
X134000000Y33790000D02*
X134000000Y34740000D01*
X134000000Y39530000D02*
X134000000Y38580000D01*
X134920000Y38580000D02*
X133080000Y38580000D01*
%TO.C,TP2*%
X91000000Y29500000D02*
G75*
G03*
X91000000Y29500000I-1500000J0D01*
G01*
%TO.C,R7*%
X30580000Y46580000D02*
X34420000Y46580000D01*
X29630000Y47500000D02*
X30580000Y47500000D01*
X34420000Y46580000D02*
X34420000Y48420000D01*
X30580000Y48420000D02*
X30580000Y46580000D01*
X35370000Y47500000D02*
X34420000Y47500000D01*
X34420000Y48420000D02*
X30580000Y48420000D01*
%TO.C,D8*%
X129955000Y11710000D02*
X133045000Y11710000D01*
X133044830Y11710000D02*
G75*
G03*
X131499538Y17260000I-1544830J2560000D01*
G01*
X131500462Y17260000D02*
G75*
G03*
X129955170Y11710000I-462J-2990000D01*
G01*
X134000000Y14270000D02*
G75*
G03*
X134000000Y14270000I-2500000J0D01*
G01*
%TO.C,C9*%
X100056000Y87549000D02*
X94944000Y87549000D01*
X100689000Y88189000D02*
X98540000Y88189000D01*
X100892000Y88469000D02*
X98540000Y88469000D01*
X98033000Y86669000D02*
X96967000Y86669000D01*
X96460000Y89029000D02*
X93796000Y89029000D01*
X100944000Y88549000D02*
X98540000Y88549000D01*
X96460000Y88269000D02*
X94250000Y88269000D01*
X100151000Y87629000D02*
X94849000Y87629000D01*
X100241000Y87709000D02*
X94759000Y87709000D01*
X100624000Y88109000D02*
X98540000Y88109000D01*
X96460000Y90029000D02*
X93483000Y90029000D01*
X100326000Y87789000D02*
X94674000Y87789000D01*
X96460000Y89549000D02*
X93598000Y89549000D01*
X101502000Y89949000D02*
X98540000Y89949000D01*
X98448000Y86749000D02*
X96552000Y86749000D01*
X101524000Y90070000D02*
X93476000Y90070000D01*
X98598000Y86789000D02*
X96402000Y86789000D01*
X96460000Y89589000D02*
X93586000Y89589000D01*
X98268000Y86709000D02*
X96732000Y86709000D01*
X100104000Y87589000D02*
X94896000Y87589000D01*
X101106000Y88829000D02*
X98540000Y88829000D01*
X99464000Y87149000D02*
X95536000Y87149000D01*
X101389000Y89509000D02*
X98540000Y89509000D01*
X96460000Y88829000D02*
X93894000Y88829000D01*
X101576000Y90550000D02*
X93424000Y90550000D01*
X96460000Y88749000D02*
X93938000Y88749000D01*
X101517000Y90029000D02*
X98540000Y90029000D01*
X98846000Y86869000D02*
X96154000Y86869000D01*
X101321000Y89309000D02*
X98540000Y89309000D01*
X101457000Y89749000D02*
X98540000Y89749000D01*
X96460000Y89389000D02*
X93650000Y89389000D01*
X96460000Y88949000D02*
X93834000Y88949000D01*
X96460000Y87989000D02*
X94481000Y87989000D01*
X100918000Y88509000D02*
X98540000Y88509000D01*
X96460000Y88509000D02*
X94082000Y88509000D01*
X101274000Y89189000D02*
X98540000Y89189000D01*
X99954000Y87469000D02*
X95046000Y87469000D01*
X96460000Y89309000D02*
X93679000Y89309000D01*
X99052000Y86949000D02*
X95948000Y86949000D01*
X96460000Y89749000D02*
X93543000Y89749000D01*
X96460000Y88789000D02*
X93916000Y88789000D01*
X100215000Y94759698D02*
X99415000Y94759698D01*
X101147000Y88909000D02*
X98540000Y88909000D01*
X101436000Y89669000D02*
X98540000Y89669000D01*
X101574000Y90510000D02*
X93426000Y90510000D01*
X96460000Y88189000D02*
X94311000Y88189000D01*
X100555000Y88029000D02*
X98540000Y88029000D01*
X96460000Y89149000D02*
X93743000Y89149000D01*
X101476000Y89829000D02*
X98540000Y89829000D01*
X96460000Y88309000D02*
X94220000Y88309000D01*
X96460000Y89829000D02*
X93524000Y89829000D01*
X96460000Y88469000D02*
X94108000Y88469000D01*
X101580000Y90670000D02*
X93420000Y90670000D01*
X100656000Y88149000D02*
X98540000Y88149000D01*
X96460000Y88669000D02*
X93983000Y88669000D01*
X101542000Y90190000D02*
X93458000Y90190000D01*
X101580000Y90750000D02*
X93420000Y90750000D01*
X96460000Y89349000D02*
X93665000Y89349000D01*
X96460000Y88029000D02*
X94445000Y88029000D01*
X100865000Y88429000D02*
X98540000Y88429000D01*
X101402000Y89549000D02*
X98540000Y89549000D01*
X96460000Y89989000D02*
X93490000Y89989000D01*
X101335000Y89349000D02*
X98540000Y89349000D01*
X96460000Y89709000D02*
X93553000Y89709000D01*
X101166000Y88949000D02*
X98540000Y88949000D01*
X100197000Y87669000D02*
X94803000Y87669000D01*
X96460000Y88909000D02*
X93853000Y88909000D01*
X96460000Y88389000D02*
X94162000Y88389000D01*
X99787000Y87349000D02*
X95213000Y87349000D01*
X99845000Y87389000D02*
X95155000Y87389000D01*
X101425000Y89629000D02*
X98540000Y89629000D01*
X96460000Y88069000D02*
X94410000Y88069000D01*
X98953000Y86909000D02*
X96047000Y86909000D01*
X101290000Y89229000D02*
X98540000Y89229000D01*
X101494000Y89909000D02*
X98540000Y89909000D01*
X96460000Y89269000D02*
X93695000Y89269000D01*
X100809000Y88349000D02*
X98540000Y88349000D01*
X101557000Y90310000D02*
X93443000Y90310000D01*
X96460000Y88589000D02*
X94031000Y88589000D01*
X101571000Y90470000D02*
X93429000Y90470000D01*
X99390000Y87109000D02*
X95610000Y87109000D01*
X101240000Y89109000D02*
X98540000Y89109000D01*
X101447000Y89709000D02*
X98540000Y89709000D01*
X101040000Y88709000D02*
X98540000Y88709000D01*
X100005000Y87509000D02*
X94995000Y87509000D01*
X100445000Y87909000D02*
X94555000Y87909000D01*
X101257000Y89149000D02*
X98540000Y89149000D01*
X96460000Y89069000D02*
X93778000Y89069000D01*
X101204000Y89029000D02*
X98540000Y89029000D01*
X99728000Y87309000D02*
X95272000Y87309000D01*
X96460000Y89229000D02*
X93710000Y89229000D01*
X96460000Y88629000D02*
X94007000Y88629000D01*
X96460000Y88149000D02*
X94344000Y88149000D01*
X100483000Y87949000D02*
X94517000Y87949000D01*
X96460000Y89189000D02*
X93726000Y89189000D01*
X100590000Y88069000D02*
X98540000Y88069000D01*
X101062000Y88749000D02*
X98540000Y88749000D01*
X99666000Y87269000D02*
X95334000Y87269000D01*
X101577000Y90590000D02*
X93423000Y90590000D01*
X100407000Y87869000D02*
X94593000Y87869000D01*
X96460000Y88109000D02*
X94376000Y88109000D01*
X101537000Y90150000D02*
X93463000Y90150000D01*
X101568000Y90430000D02*
X93432000Y90430000D01*
X99145000Y86989000D02*
X95855000Y86989000D01*
X99231000Y87029000D02*
X95769000Y87029000D01*
X101510000Y89989000D02*
X98540000Y89989000D01*
X101084000Y88789000D02*
X98540000Y88789000D01*
X100519000Y87989000D02*
X98540000Y87989000D01*
X101561000Y90350000D02*
X93439000Y90350000D01*
X101548000Y90230000D02*
X93452000Y90230000D01*
X100367000Y87829000D02*
X94633000Y87829000D01*
X96460000Y89669000D02*
X93564000Y89669000D01*
X96460000Y89949000D02*
X93498000Y89949000D01*
X99900000Y87429000D02*
X95100000Y87429000D01*
X101552000Y90270000D02*
X93448000Y90270000D01*
X101127000Y88869000D02*
X98540000Y88869000D01*
X99602000Y87229000D02*
X95398000Y87229000D01*
X96460000Y88549000D02*
X94056000Y88549000D01*
X96460000Y88709000D02*
X93960000Y88709000D01*
X96460000Y88989000D02*
X93814000Y88989000D01*
X101580000Y90710000D02*
X93420000Y90710000D01*
X101377000Y89469000D02*
X98540000Y89469000D01*
X96460000Y89109000D02*
X93760000Y89109000D01*
X100750000Y88269000D02*
X98540000Y88269000D01*
X96460000Y89909000D02*
X93506000Y89909000D01*
X101017000Y88669000D02*
X98540000Y88669000D01*
X100838000Y88389000D02*
X98540000Y88389000D01*
X98729000Y86829000D02*
X96271000Y86829000D01*
X96460000Y89469000D02*
X93623000Y89469000D01*
X101485000Y89869000D02*
X98540000Y89869000D01*
X96460000Y88349000D02*
X94191000Y88349000D01*
X99534000Y87189000D02*
X95466000Y87189000D01*
X100720000Y88229000D02*
X98540000Y88229000D01*
X101467000Y89789000D02*
X98540000Y89789000D01*
X96460000Y88429000D02*
X94135000Y88429000D01*
X101414000Y89589000D02*
X98540000Y89589000D01*
X100969000Y88589000D02*
X98540000Y88589000D01*
X99815000Y95159698D02*
X99815000Y94359698D01*
X101363000Y89429000D02*
X98540000Y89429000D01*
X96460000Y89629000D02*
X93575000Y89629000D01*
X100780000Y88309000D02*
X98540000Y88309000D01*
X99313000Y87069000D02*
X95687000Y87069000D01*
X96460000Y88229000D02*
X94280000Y88229000D01*
X101350000Y89389000D02*
X98540000Y89389000D01*
X100993000Y88629000D02*
X98540000Y88629000D01*
X101305000Y89269000D02*
X98540000Y89269000D01*
X96460000Y89789000D02*
X93533000Y89789000D01*
X101530000Y90110000D02*
X93470000Y90110000D01*
X96460000Y89869000D02*
X93515000Y89869000D01*
X101222000Y89069000D02*
X98540000Y89069000D01*
X96460000Y89429000D02*
X93637000Y89429000D01*
X101186000Y88989000D02*
X98540000Y88989000D01*
X96460000Y88869000D02*
X93873000Y88869000D01*
X101565000Y90390000D02*
X93435000Y90390000D01*
X100284000Y87749000D02*
X94716000Y87749000D01*
X96460000Y89509000D02*
X93611000Y89509000D01*
X101579000Y90630000D02*
X93421000Y90630000D01*
X101620000Y90750000D02*
G75*
G03*
X101620000Y90750000I-4120000J0D01*
G01*
%TO.C,R6*%
X34420000Y44080000D02*
X34420000Y45920000D01*
X34420000Y45920000D02*
X30580000Y45920000D01*
X30580000Y44080000D02*
X34420000Y44080000D01*
X35370000Y45000000D02*
X34420000Y45000000D01*
X29630000Y45000000D02*
X30580000Y45000000D01*
X30580000Y45920000D02*
X30580000Y44080000D01*
%TO.C,J1*%
X8810000Y74880000D02*
X8810000Y85040000D01*
X1190000Y85040000D02*
X1190000Y74880000D01*
X7540000Y85040000D02*
X7540000Y74880000D01*
X1190000Y74880000D02*
X8810000Y74880000D01*
X8810000Y85040000D02*
X1190000Y85040000D01*
%TO.C,D1*%
X103455000Y74710000D02*
X106545000Y74710000D01*
X105000462Y80260000D02*
G75*
G03*
X103455170Y74710000I-462J-2990000D01*
G01*
X106544830Y74710000D02*
G75*
G03*
X104999538Y80260000I-1544830J2560000D01*
G01*
X107500000Y77270000D02*
G75*
G03*
X107500000Y77270000I-2500000J0D01*
G01*
%TO.C,J9*%
X1490000Y11940000D02*
X7460000Y11940000D01*
X6700000Y13750000D02*
X6700000Y11950000D01*
X5200000Y12700000D02*
X2250000Y12700000D01*
X5200000Y21300000D02*
X3860000Y21300000D01*
X7460000Y11940000D02*
X7460000Y22060000D01*
X7450000Y15250000D02*
X7450000Y18750000D01*
X7450000Y18750000D02*
X6700000Y18750000D01*
X7450000Y13750000D02*
X6700000Y13750000D01*
X6700000Y20250000D02*
X7450000Y20250000D01*
X6700000Y15250000D02*
X7450000Y15250000D01*
X6700000Y11950000D02*
X7450000Y11950000D01*
X2250000Y12700000D02*
X2250000Y17000000D01*
X2250000Y17000000D02*
X2250000Y20240000D01*
X7750000Y21100000D02*
X7750000Y22350000D01*
X7750000Y22350000D02*
X6500000Y22350000D01*
X6700000Y22050000D02*
X6700000Y20250000D01*
X5200000Y22050000D02*
X5200000Y21300000D01*
X1490000Y22060000D02*
X1490000Y11940000D01*
X7450000Y20250000D02*
X7450000Y22050000D01*
X7450000Y11950000D02*
X7450000Y13750000D01*
X5200000Y11950000D02*
X5200000Y12700000D01*
X6700000Y18750000D02*
X6700000Y15250000D01*
X7460000Y22060000D02*
X1490000Y22060000D01*
X7450000Y22050000D02*
X6700000Y22050000D01*
%TO.C,J8*%
X7460000Y31560000D02*
X1490000Y31560000D01*
X2250000Y24700000D02*
X2250000Y27750000D01*
X6700000Y23950000D02*
X7450000Y23950000D01*
X7450000Y27250000D02*
X7450000Y28250000D01*
X7460000Y23940000D02*
X7460000Y31560000D01*
X5200000Y23950000D02*
X5200000Y24700000D01*
X5200000Y31550000D02*
X5200000Y30800000D01*
X7450000Y23950000D02*
X7450000Y25750000D01*
X1490000Y23940000D02*
X7460000Y23940000D01*
X7450000Y31550000D02*
X6700000Y31550000D01*
X2250000Y27750000D02*
X2250000Y29740000D01*
X1490000Y31560000D02*
X1490000Y23940000D01*
X7450000Y29750000D02*
X7450000Y31550000D01*
X6700000Y25750000D02*
X6700000Y23950000D01*
X6700000Y27250000D02*
X7450000Y27250000D01*
X7750000Y31850000D02*
X6500000Y31850000D01*
X6700000Y28250000D02*
X6700000Y27250000D01*
X5200000Y30800000D02*
X3860000Y30800000D01*
X6700000Y31550000D02*
X6700000Y29750000D01*
X7750000Y30600000D02*
X7750000Y31850000D01*
X7450000Y28250000D02*
X6700000Y28250000D01*
X5200000Y24700000D02*
X2250000Y24700000D01*
X6700000Y29750000D02*
X7450000Y29750000D01*
X7450000Y25750000D02*
X6700000Y25750000D01*
%TO.C,R27*%
X30580000Y56920000D02*
X30580000Y55080000D01*
X35370000Y56000000D02*
X34420000Y56000000D01*
X34420000Y56920000D02*
X30580000Y56920000D01*
X30580000Y55080000D02*
X34420000Y55080000D01*
X29630000Y56000000D02*
X30580000Y56000000D01*
X34420000Y55080000D02*
X34420000Y56920000D01*
%TO.C,C7*%
X59480000Y2580000D02*
X59480000Y3205000D01*
X63520000Y4795000D02*
X63520000Y5420000D01*
X63520000Y2580000D02*
X63520000Y3205000D01*
X63520000Y5420000D02*
X59480000Y5420000D01*
X59480000Y4795000D02*
X59480000Y5420000D01*
X63520000Y2580000D02*
X59480000Y2580000D01*
%TO.C,D2*%
X112920000Y75270000D02*
X109080000Y75270000D01*
X109080000Y75270000D02*
X109080000Y67430000D01*
X111000000Y66440000D02*
X111000000Y67430000D01*
X111000000Y76260000D02*
X111000000Y75270000D01*
X112920000Y74130000D02*
X109080000Y74130000D01*
X109080000Y67430000D02*
X112920000Y67430000D01*
X112920000Y73890000D02*
X109080000Y73890000D01*
X112920000Y67430000D02*
X112920000Y75270000D01*
X112920000Y74010000D02*
X109080000Y74010000D01*
%TO.C,D10*%
X123455000Y11710000D02*
X126545000Y11710000D01*
X125000462Y17260000D02*
G75*
G03*
X123455170Y11710000I-462J-2990000D01*
G01*
X126544830Y11710000D02*
G75*
G03*
X124999538Y17260000I-1544830J2560000D01*
G01*
X127500000Y14270000D02*
G75*
G03*
X127500000Y14270000I-2500000J0D01*
G01*
%TO.C,R17*%
X130580000Y35270000D02*
X132420000Y35270000D01*
X131500000Y40060000D02*
X131500000Y39110000D01*
X132420000Y35270000D02*
X132420000Y39110000D01*
X132420000Y39110000D02*
X130580000Y39110000D01*
X130580000Y39110000D02*
X130580000Y35270000D01*
X131500000Y34320000D02*
X131500000Y35270000D01*
%TO.C,C10*%
X84080000Y16520000D02*
X84080000Y12480000D01*
X86920000Y12480000D02*
X86295000Y12480000D01*
X86920000Y16520000D02*
X86295000Y16520000D01*
X84705000Y12480000D02*
X84080000Y12480000D01*
X84705000Y16520000D02*
X84080000Y16520000D01*
X86920000Y16520000D02*
X86920000Y12480000D01*
%TD*%
%LPC*%
D13*
%TO.C,RV1*%
X114550000Y15125000D03*
X112010000Y15125000D03*
X112010000Y12585000D03*
X109470000Y15125000D03*
%TD*%
%TO.C,RV2*%
X83500000Y8500000D03*
X83500000Y5960000D03*
X86040000Y5960000D03*
X83500000Y3420000D03*
%TD*%
D14*
%TO.C,R1*%
X107000000Y72620000D03*
D15*
X107000000Y65000000D03*
%TD*%
D14*
%TO.C,R26*%
X139000000Y41000000D03*
D15*
X139000000Y28300000D03*
%TD*%
D16*
%TO.C,D3*%
X105000000Y94000000D03*
D17*
X105000000Y96540000D03*
%TD*%
D18*
%TO.C,J12*%
X145000000Y43500000D03*
D19*
X145000000Y41000000D03*
X145000000Y38500000D03*
X145000000Y36000000D03*
X145000000Y33500000D03*
%TD*%
D14*
%TO.C,R9*%
X36310000Y24000000D03*
D15*
X28690000Y24000000D03*
%TD*%
D20*
%TO.C,C11*%
X114347349Y6000000D03*
D21*
X117847349Y6000000D03*
%TD*%
%TO.C,C2*%
X102000000Y32000000D03*
X99500000Y32000000D03*
%TD*%
D22*
%TO.C,J4*%
X145000000Y88040000D03*
D23*
X145000000Y82960000D03*
%TD*%
D24*
%TO.C,D9*%
X95650000Y3000000D03*
D25*
X108350000Y3000000D03*
%TD*%
D14*
%TO.C,R10*%
X28690000Y26500000D03*
D15*
X36310000Y26500000D03*
%TD*%
D14*
%TO.C,R5*%
X114000000Y47190000D03*
D15*
X114000000Y54810000D03*
%TD*%
D20*
%TO.C,C8*%
X18000000Y89347349D03*
D21*
X18000000Y92847349D03*
%TD*%
D26*
%TO.C,TP5*%
X75000000Y21000000D03*
%TD*%
D14*
%TO.C,R16*%
X129000000Y41000000D03*
D15*
X129000000Y33380000D03*
%TD*%
D27*
%TO.C,PS1*%
X28767500Y93632500D03*
D28*
X28767500Y71132500D03*
X76267500Y71132500D03*
X76267500Y93632500D03*
%TD*%
D14*
%TO.C,R19*%
X85500000Y26310000D03*
D15*
X85500000Y18690000D03*
%TD*%
D14*
%TO.C,R20*%
X95190000Y7500000D03*
D15*
X102810000Y7500000D03*
%TD*%
D14*
%TO.C,R8*%
X123000000Y47190000D03*
D15*
X123000000Y54810000D03*
%TD*%
D16*
%TO.C,D7*%
X138000000Y12725000D03*
D17*
X138000000Y15265000D03*
%TD*%
D14*
%TO.C,R11*%
X138000000Y9810000D03*
D15*
X138000000Y2190000D03*
%TD*%
D14*
%TO.C,R15*%
X131500000Y9810000D03*
D15*
X131500000Y2190000D03*
%TD*%
D14*
%TO.C,R25*%
X136500000Y41000000D03*
D15*
X136500000Y28300000D03*
%TD*%
D26*
%TO.C,TP4*%
X109500000Y8500000D03*
%TD*%
D29*
%TO.C,U3*%
X60000000Y25930000D03*
D30*
X57460000Y9270000D03*
D31*
X60000000Y9270000D03*
X62540000Y9270000D03*
%TD*%
D23*
%TO.C,K2*%
X116500000Y90000000D03*
D32*
X118450000Y83950000D03*
D23*
X130650000Y83950000D03*
X130700000Y96000000D03*
D32*
X118450000Y95950000D03*
%TD*%
D14*
%TO.C,R13*%
X28690000Y17000000D03*
D15*
X36310000Y17000000D03*
%TD*%
D33*
%TO.C,U1*%
X90700000Y80900000D03*
D34*
X90700000Y78360000D03*
X90700000Y75820000D03*
X90700000Y73280000D03*
X90700000Y70740000D03*
X90700000Y68200000D03*
X90700000Y65660000D03*
X90700000Y63120000D03*
X98320000Y63120000D03*
X98320000Y65660000D03*
X98320000Y68200000D03*
X98320000Y70740000D03*
X98320000Y73280000D03*
X98320000Y75820000D03*
X98320000Y78360000D03*
X98320000Y80900000D03*
%TD*%
D24*
%TO.C,D4*%
X111000000Y95700000D03*
D25*
X111000000Y83000000D03*
%TD*%
D14*
%TO.C,R12*%
X36310000Y19500000D03*
D15*
X28690000Y19500000D03*
%TD*%
D24*
%TO.C,D11*%
X91000000Y18350000D03*
D25*
X91000000Y5650000D03*
%TD*%
D35*
%TO.C,J3*%
X3000000Y69100000D03*
D18*
X5000000Y67500000D03*
D19*
X5000000Y65000000D03*
X5000000Y62500000D03*
%TD*%
D21*
%TO.C,C3*%
X33750000Y29500000D03*
X31250000Y29500000D03*
%TD*%
D20*
%TO.C,C6*%
X69500000Y8152651D03*
D21*
X69500000Y4652651D03*
%TD*%
D14*
%TO.C,R23*%
X131190000Y22000000D03*
D15*
X138810000Y22000000D03*
%TD*%
D16*
%TO.C,D5*%
X114000000Y61000000D03*
D17*
X114000000Y58460000D03*
%TD*%
D26*
%TO.C,TP3*%
X80000000Y13500000D03*
%TD*%
D14*
%TO.C,R29*%
X28690000Y58500000D03*
D15*
X36310000Y58500000D03*
%TD*%
D23*
%TO.C,K1*%
X116500000Y72000000D03*
D32*
X118450000Y65950000D03*
D23*
X130650000Y65950000D03*
X130700000Y78000000D03*
D32*
X118450000Y77950000D03*
%TD*%
D22*
%TO.C,J2*%
X145000000Y77000000D03*
D23*
X145000000Y71920000D03*
%TD*%
D36*
%TO.C,H5*%
X6697056Y93302944D03*
X6697056Y96697056D03*
X7400000Y95000000D03*
D37*
X5000000Y95000000D03*
D36*
X5000000Y97400000D03*
X2600000Y95000000D03*
X3302944Y96697056D03*
X5000000Y92600000D03*
X3302944Y93302944D03*
%TD*%
D35*
%TO.C,J7*%
X3000000Y57600000D03*
D18*
X5000000Y56000000D03*
D19*
X5000000Y53500000D03*
X5000000Y51000000D03*
X5000000Y48500000D03*
%TD*%
D16*
%TO.C,D6*%
X123000000Y61000000D03*
D17*
X123000000Y58460000D03*
%TD*%
D14*
%TO.C,R28*%
X28690000Y53500000D03*
D15*
X36310000Y53500000D03*
%TD*%
D14*
%TO.C,R14*%
X28690000Y14500000D03*
D15*
X36310000Y14500000D03*
%TD*%
D36*
%TO.C,H2*%
X143302944Y96697056D03*
X145000000Y92600000D03*
X143302944Y93302944D03*
X147400000Y95000000D03*
X146697056Y93302944D03*
X145000000Y97400000D03*
D37*
X145000000Y95000000D03*
D36*
X146697056Y96697056D03*
X142600000Y95000000D03*
%TD*%
D38*
%TO.C,U2*%
X53375000Y41200000D03*
D39*
X55915000Y41200000D03*
X58455000Y41200000D03*
X60995000Y41200000D03*
X63535000Y41200000D03*
X66075000Y41200000D03*
X68615000Y41200000D03*
X68615000Y48820000D03*
X66075000Y48820000D03*
X63535000Y48820000D03*
X60995000Y48820000D03*
X58455000Y48820000D03*
X55915000Y48820000D03*
X53375000Y48820000D03*
%TD*%
D21*
%TO.C,C1*%
X98500000Y59750000D03*
X98500000Y57250000D03*
%TD*%
D26*
%TO.C,TP1*%
X120500000Y18500000D03*
%TD*%
D35*
%TO.C,J5*%
X3000000Y44100000D03*
D18*
X5000000Y42500000D03*
D19*
X5000000Y40000000D03*
X5000000Y37500000D03*
X5000000Y35000000D03*
%TD*%
D14*
%TO.C,R3*%
X36310000Y42500000D03*
D15*
X28690000Y42500000D03*
%TD*%
D14*
%TO.C,R24*%
X131190000Y19500000D03*
D15*
X138810000Y19500000D03*
%TD*%
D14*
%TO.C,R22*%
X131190000Y24500000D03*
D15*
X138810000Y24500000D03*
%TD*%
D14*
%TO.C,R21*%
X125000000Y9810000D03*
D15*
X125000000Y2190000D03*
%TD*%
D21*
%TO.C,C5*%
X54750000Y4000000D03*
X57250000Y4000000D03*
%TD*%
D14*
%TO.C,R2*%
X36310000Y37500000D03*
D15*
X28690000Y37500000D03*
%TD*%
D22*
%TO.C,J10*%
X145000000Y66040000D03*
D23*
X145000000Y60960000D03*
%TD*%
D20*
%TO.C,C13*%
X87500000Y92500000D03*
D21*
X87500000Y89000000D03*
%TD*%
D18*
%TO.C,J11*%
X145000000Y27500000D03*
D19*
X145000000Y25000000D03*
X145000000Y22500000D03*
X145000000Y20000000D03*
X145000000Y17500000D03*
X145000000Y15000000D03*
X145000000Y12500000D03*
%TD*%
D35*
%TO.C,J6*%
X143525000Y56100000D03*
D18*
X145525000Y54500000D03*
D19*
X145525000Y52000000D03*
X145525000Y49500000D03*
%TD*%
D33*
%TO.C,U4*%
X96700000Y28625000D03*
D34*
X96700000Y26085000D03*
X96700000Y23545000D03*
X96700000Y21005000D03*
X96700000Y18465000D03*
X96700000Y15925000D03*
X96700000Y13385000D03*
X104320000Y13385000D03*
X104320000Y15925000D03*
X104320000Y18465000D03*
X104320000Y21005000D03*
X104320000Y23545000D03*
X104320000Y26085000D03*
X104320000Y28625000D03*
%TD*%
D14*
%TO.C,R4*%
X107000000Y90620000D03*
D15*
X107000000Y83000000D03*
%TD*%
D20*
%TO.C,C4*%
X49000000Y8152651D03*
D21*
X49000000Y4652651D03*
%TD*%
%TO.C,C12*%
X50000000Y46750000D03*
X50000000Y44250000D03*
%TD*%
D14*
%TO.C,R30*%
X28690000Y51000000D03*
D15*
X36310000Y51000000D03*
%TD*%
D14*
%TO.C,R18*%
X134000000Y41000000D03*
D15*
X134000000Y32110000D03*
%TD*%
D26*
%TO.C,TP2*%
X89500000Y29500000D03*
%TD*%
D14*
%TO.C,R7*%
X36310000Y47500000D03*
D15*
X28690000Y47500000D03*
%TD*%
D16*
%TO.C,D8*%
X131500000Y13000000D03*
D17*
X131500000Y15540000D03*
%TD*%
D20*
%TO.C,C9*%
X97500000Y92500000D03*
D21*
X97500000Y89000000D03*
%TD*%
D14*
%TO.C,R6*%
X36310000Y45000000D03*
D15*
X28690000Y45000000D03*
%TD*%
D22*
%TO.C,J1*%
X5000000Y77420000D03*
D23*
X5000000Y82500000D03*
%TD*%
D36*
%TO.C,H6*%
X5000000Y2600000D03*
X2600000Y5000000D03*
X5000000Y7400000D03*
X6697056Y3302944D03*
X3302944Y6697056D03*
X6697056Y6697056D03*
X7400000Y5000000D03*
X3302944Y3302944D03*
D37*
X5000000Y5000000D03*
%TD*%
D16*
%TO.C,D1*%
X105000000Y76000000D03*
D17*
X105000000Y78540000D03*
%TD*%
D35*
%TO.C,J9*%
X3000000Y21100000D03*
D18*
X5000000Y19500000D03*
D19*
X5000000Y17000000D03*
X5000000Y14500000D03*
%TD*%
D35*
%TO.C,J8*%
X3000000Y30600000D03*
D40*
X5000000Y29000000D03*
D41*
X5000000Y26500000D03*
%TD*%
D14*
%TO.C,R27*%
X28690000Y56000000D03*
D15*
X36310000Y56000000D03*
%TD*%
D21*
%TO.C,C7*%
X62750000Y4000000D03*
X60250000Y4000000D03*
%TD*%
D36*
%TO.C,H1*%
X146697056Y3302944D03*
X147400000Y5000000D03*
X143302944Y3302944D03*
X142600000Y5000000D03*
X145000000Y2600000D03*
X146697056Y6697056D03*
X145000000Y7400000D03*
X143302944Y6697056D03*
D37*
X145000000Y5000000D03*
%TD*%
D24*
%TO.C,D2*%
X111000000Y77700000D03*
D25*
X111000000Y65000000D03*
%TD*%
D16*
%TO.C,D10*%
X125000000Y13000000D03*
D17*
X125000000Y15540000D03*
%TD*%
D14*
%TO.C,R17*%
X131500000Y41000000D03*
D15*
X131500000Y33380000D03*
%TD*%
D21*
%TO.C,C10*%
X85500000Y15750000D03*
X85500000Y13250000D03*
%TD*%
D32*
X82000000Y39500000D03*
D36*
X110500000Y72000000D03*
X79175000Y3420000D03*
X140300000Y44500000D03*
X118875000Y15125000D03*
D32*
X127200000Y88700000D03*
X127200000Y70700000D03*
D36*
X110000000Y20000000D03*
X55000000Y53000000D03*
X101500000Y38500000D03*
M02*
