%TF.GenerationSoftware,KiCad,Pcbnew,(6.0.1)*%
%TF.CreationDate,2023-02-05T15:58:29-08:00*%
%TF.ProjectId,Interface Board,496e7465-7266-4616-9365-20426f617264,rev?*%
%TF.SameCoordinates,Original*%
%TF.FileFunction,Soldermask,Bot*%
%TF.FilePolarity,Negative*%
%FSLAX46Y46*%
G04 Gerber Fmt 4.6, Leading zero omitted, Abs format (unit mm)*
G04 Created by KiCad (PCBNEW (6.0.1)) date 2023-02-05 15:58:29*
%MOMM*%
%LPD*%
G01*
G04 APERTURE LIST*
G04 Aperture macros list*
%AMRoundRect*
0 Rectangle with rounded corners*
0 $1 Rounding radius*
0 $2 $3 $4 $5 $6 $7 $8 $9 X,Y pos of 4 corners*
0 Add a 4 corners polygon primitive as box body*
4,1,4,$2,$3,$4,$5,$6,$7,$8,$9,$2,$3,0*
0 Add four circle primitives for the rounded corners*
1,1,$1+$1,$2,$3*
1,1,$1+$1,$4,$5*
1,1,$1+$1,$6,$7*
1,1,$1+$1,$8,$9*
0 Add four rect primitives between the rounded corners*
20,1,$1+$1,$2,$3,$4,$5,0*
20,1,$1+$1,$4,$5,$6,$7,0*
20,1,$1+$1,$6,$7,$8,$9,0*
20,1,$1+$1,$8,$9,$2,$3,0*%
G04 Aperture macros list end*
%ADD10C,1.440000*%
%ADD11C,1.400000*%
%ADD12O,1.400000X1.400000*%
%ADD13R,1.800000X1.800000*%
%ADD14C,1.800000*%
%ADD15RoundRect,0.250000X-0.725000X0.600000X-0.725000X-0.600000X0.725000X-0.600000X0.725000X0.600000X0*%
%ADD16O,1.950000X1.700000*%
%ADD17R,1.600000X1.600000*%
%ADD18C,1.600000*%
%ADD19R,3.000000X3.000000*%
%ADD20C,3.000000*%
%ADD21R,2.400000X2.400000*%
%ADD22O,2.400000X2.400000*%
%ADD23C,2.000000*%
%ADD24R,4.000000X3.000000*%
%ADD25O,4.000000X3.000000*%
%ADD26O,3.500000X3.500000*%
%ADD27R,1.905000X2.000000*%
%ADD28O,1.905000X2.000000*%
%ADD29C,2.500000*%
%ADD30R,2.400000X1.600000*%
%ADD31O,2.400000X1.600000*%
%ADD32C,1.200000*%
%ADD33C,0.800000*%
%ADD34C,6.400000*%
%ADD35R,1.600000X2.400000*%
%ADD36O,1.600000X2.400000*%
%ADD37RoundRect,0.250000X-0.750000X0.600000X-0.750000X-0.600000X0.750000X-0.600000X0.750000X0.600000X0*%
%ADD38O,2.000000X1.700000*%
%ADD39R,1.000000X1.500000*%
%ADD40R,1.500000X1.000000*%
G04 APERTURE END LIST*
D10*
%TO.C,RV1*%
X114550000Y15125000D03*
X112010000Y15125000D03*
X112010000Y12585000D03*
X109470000Y15125000D03*
%TD*%
%TO.C,RV2*%
X83500000Y8500000D03*
X83500000Y5960000D03*
X86040000Y5960000D03*
X83500000Y3420000D03*
%TD*%
D11*
%TO.C,R1*%
X107000000Y72620000D03*
D12*
X107000000Y65000000D03*
%TD*%
D11*
%TO.C,R26*%
X139000000Y41000000D03*
D12*
X139000000Y28300000D03*
%TD*%
D13*
%TO.C,D3*%
X105000000Y94000000D03*
D14*
X105000000Y96540000D03*
%TD*%
D15*
%TO.C,J12*%
X145000000Y43500000D03*
D16*
X145000000Y41000000D03*
X145000000Y38500000D03*
X145000000Y36000000D03*
X145000000Y33500000D03*
%TD*%
D11*
%TO.C,R9*%
X36310000Y24000000D03*
D12*
X28690000Y24000000D03*
%TD*%
D17*
%TO.C,C11*%
X114347349Y6000000D03*
D18*
X117847349Y6000000D03*
%TD*%
%TO.C,C2*%
X102000000Y32000000D03*
X99500000Y32000000D03*
%TD*%
D19*
%TO.C,J4*%
X145000000Y88040000D03*
D20*
X145000000Y82960000D03*
%TD*%
D21*
%TO.C,D9*%
X95650000Y3000000D03*
D22*
X108350000Y3000000D03*
%TD*%
D11*
%TO.C,R10*%
X28690000Y26500000D03*
D12*
X36310000Y26500000D03*
%TD*%
D11*
%TO.C,R5*%
X114000000Y47190000D03*
D12*
X114000000Y54810000D03*
%TD*%
D17*
%TO.C,C8*%
X18000000Y89347349D03*
D18*
X18000000Y92847349D03*
%TD*%
D23*
%TO.C,TP5*%
X75000000Y21000000D03*
%TD*%
D11*
%TO.C,R16*%
X129000000Y41000000D03*
D12*
X129000000Y33380000D03*
%TD*%
D24*
%TO.C,PS1*%
X28767500Y93632500D03*
D25*
X28767500Y71132500D03*
X76267500Y71132500D03*
X76267500Y93632500D03*
%TD*%
D11*
%TO.C,R19*%
X85500000Y26310000D03*
D12*
X85500000Y18690000D03*
%TD*%
D11*
%TO.C,R20*%
X95190000Y7500000D03*
D12*
X102810000Y7500000D03*
%TD*%
D11*
%TO.C,R8*%
X123000000Y47190000D03*
D12*
X123000000Y54810000D03*
%TD*%
D13*
%TO.C,D7*%
X138000000Y12725000D03*
D14*
X138000000Y15265000D03*
%TD*%
D11*
%TO.C,R11*%
X138000000Y9810000D03*
D12*
X138000000Y2190000D03*
%TD*%
D11*
%TO.C,R15*%
X131500000Y9810000D03*
D12*
X131500000Y2190000D03*
%TD*%
D11*
%TO.C,R25*%
X136500000Y41000000D03*
D12*
X136500000Y28300000D03*
%TD*%
D23*
%TO.C,TP4*%
X109500000Y8500000D03*
%TD*%
D26*
%TO.C,U3*%
X60000000Y25930000D03*
D27*
X57460000Y9270000D03*
D28*
X60000000Y9270000D03*
X62540000Y9270000D03*
%TD*%
D20*
%TO.C,K2*%
X116500000Y90000000D03*
D29*
X118450000Y83950000D03*
D20*
X130650000Y83950000D03*
X130700000Y96000000D03*
D29*
X118450000Y95950000D03*
%TD*%
D11*
%TO.C,R13*%
X28690000Y17000000D03*
D12*
X36310000Y17000000D03*
%TD*%
D30*
%TO.C,U1*%
X90700000Y80900000D03*
D31*
X90700000Y78360000D03*
X90700000Y75820000D03*
X90700000Y73280000D03*
X90700000Y70740000D03*
X90700000Y68200000D03*
X90700000Y65660000D03*
X90700000Y63120000D03*
X98320000Y63120000D03*
X98320000Y65660000D03*
X98320000Y68200000D03*
X98320000Y70740000D03*
X98320000Y73280000D03*
X98320000Y75820000D03*
X98320000Y78360000D03*
X98320000Y80900000D03*
%TD*%
D21*
%TO.C,D4*%
X111000000Y95700000D03*
D22*
X111000000Y83000000D03*
%TD*%
D11*
%TO.C,R12*%
X36310000Y19500000D03*
D12*
X28690000Y19500000D03*
%TD*%
D21*
%TO.C,D11*%
X91000000Y18350000D03*
D22*
X91000000Y5650000D03*
%TD*%
D32*
%TO.C,J3*%
X3000000Y69100000D03*
D15*
X5000000Y67500000D03*
D16*
X5000000Y65000000D03*
X5000000Y62500000D03*
%TD*%
D18*
%TO.C,C3*%
X33750000Y29500000D03*
X31250000Y29500000D03*
%TD*%
D17*
%TO.C,C6*%
X69500000Y8152651D03*
D18*
X69500000Y4652651D03*
%TD*%
D11*
%TO.C,R23*%
X131190000Y22000000D03*
D12*
X138810000Y22000000D03*
%TD*%
D13*
%TO.C,D5*%
X114000000Y61000000D03*
D14*
X114000000Y58460000D03*
%TD*%
D23*
%TO.C,TP3*%
X80000000Y13500000D03*
%TD*%
D11*
%TO.C,R29*%
X28690000Y58500000D03*
D12*
X36310000Y58500000D03*
%TD*%
D20*
%TO.C,K1*%
X116500000Y72000000D03*
D29*
X118450000Y65950000D03*
D20*
X130650000Y65950000D03*
X130700000Y78000000D03*
D29*
X118450000Y77950000D03*
%TD*%
D19*
%TO.C,J2*%
X145000000Y77000000D03*
D20*
X145000000Y71920000D03*
%TD*%
D33*
%TO.C,H5*%
X6697056Y93302944D03*
X6697056Y96697056D03*
X7400000Y95000000D03*
D34*
X5000000Y95000000D03*
D33*
X5000000Y97400000D03*
X2600000Y95000000D03*
X3302944Y96697056D03*
X5000000Y92600000D03*
X3302944Y93302944D03*
%TD*%
D32*
%TO.C,J7*%
X3000000Y57600000D03*
D15*
X5000000Y56000000D03*
D16*
X5000000Y53500000D03*
X5000000Y51000000D03*
X5000000Y48500000D03*
%TD*%
D13*
%TO.C,D6*%
X123000000Y61000000D03*
D14*
X123000000Y58460000D03*
%TD*%
D11*
%TO.C,R28*%
X28690000Y53500000D03*
D12*
X36310000Y53500000D03*
%TD*%
D11*
%TO.C,R14*%
X28690000Y14500000D03*
D12*
X36310000Y14500000D03*
%TD*%
D33*
%TO.C,H2*%
X143302944Y96697056D03*
X145000000Y92600000D03*
X143302944Y93302944D03*
X147400000Y95000000D03*
X146697056Y93302944D03*
X145000000Y97400000D03*
D34*
X145000000Y95000000D03*
D33*
X146697056Y96697056D03*
X142600000Y95000000D03*
%TD*%
D35*
%TO.C,U2*%
X53375000Y41200000D03*
D36*
X55915000Y41200000D03*
X58455000Y41200000D03*
X60995000Y41200000D03*
X63535000Y41200000D03*
X66075000Y41200000D03*
X68615000Y41200000D03*
X68615000Y48820000D03*
X66075000Y48820000D03*
X63535000Y48820000D03*
X60995000Y48820000D03*
X58455000Y48820000D03*
X55915000Y48820000D03*
X53375000Y48820000D03*
%TD*%
D18*
%TO.C,C1*%
X98500000Y59750000D03*
X98500000Y57250000D03*
%TD*%
D23*
%TO.C,TP1*%
X120500000Y18500000D03*
%TD*%
D32*
%TO.C,J5*%
X3000000Y44100000D03*
D15*
X5000000Y42500000D03*
D16*
X5000000Y40000000D03*
X5000000Y37500000D03*
X5000000Y35000000D03*
%TD*%
D11*
%TO.C,R3*%
X36310000Y42500000D03*
D12*
X28690000Y42500000D03*
%TD*%
D11*
%TO.C,R24*%
X131190000Y19500000D03*
D12*
X138810000Y19500000D03*
%TD*%
D11*
%TO.C,R22*%
X131190000Y24500000D03*
D12*
X138810000Y24500000D03*
%TD*%
D11*
%TO.C,R21*%
X125000000Y9810000D03*
D12*
X125000000Y2190000D03*
%TD*%
D18*
%TO.C,C5*%
X54750000Y4000000D03*
X57250000Y4000000D03*
%TD*%
D11*
%TO.C,R2*%
X36310000Y37500000D03*
D12*
X28690000Y37500000D03*
%TD*%
D19*
%TO.C,J10*%
X145000000Y66040000D03*
D20*
X145000000Y60960000D03*
%TD*%
D17*
%TO.C,C13*%
X87500000Y92500000D03*
D18*
X87500000Y89000000D03*
%TD*%
D15*
%TO.C,J11*%
X145000000Y27500000D03*
D16*
X145000000Y25000000D03*
X145000000Y22500000D03*
X145000000Y20000000D03*
X145000000Y17500000D03*
X145000000Y15000000D03*
X145000000Y12500000D03*
%TD*%
D32*
%TO.C,J6*%
X143525000Y56100000D03*
D15*
X145525000Y54500000D03*
D16*
X145525000Y52000000D03*
X145525000Y49500000D03*
%TD*%
D30*
%TO.C,U4*%
X96700000Y28625000D03*
D31*
X96700000Y26085000D03*
X96700000Y23545000D03*
X96700000Y21005000D03*
X96700000Y18465000D03*
X96700000Y15925000D03*
X96700000Y13385000D03*
X104320000Y13385000D03*
X104320000Y15925000D03*
X104320000Y18465000D03*
X104320000Y21005000D03*
X104320000Y23545000D03*
X104320000Y26085000D03*
X104320000Y28625000D03*
%TD*%
D11*
%TO.C,R4*%
X107000000Y90620000D03*
D12*
X107000000Y83000000D03*
%TD*%
D17*
%TO.C,C4*%
X49000000Y8152651D03*
D18*
X49000000Y4652651D03*
%TD*%
%TO.C,C12*%
X50000000Y46750000D03*
X50000000Y44250000D03*
%TD*%
D11*
%TO.C,R30*%
X28690000Y51000000D03*
D12*
X36310000Y51000000D03*
%TD*%
D11*
%TO.C,R18*%
X134000000Y41000000D03*
D12*
X134000000Y32110000D03*
%TD*%
D23*
%TO.C,TP2*%
X89500000Y29500000D03*
%TD*%
D11*
%TO.C,R7*%
X36310000Y47500000D03*
D12*
X28690000Y47500000D03*
%TD*%
D13*
%TO.C,D8*%
X131500000Y13000000D03*
D14*
X131500000Y15540000D03*
%TD*%
D17*
%TO.C,C9*%
X97500000Y92500000D03*
D18*
X97500000Y89000000D03*
%TD*%
D11*
%TO.C,R6*%
X36310000Y45000000D03*
D12*
X28690000Y45000000D03*
%TD*%
D19*
%TO.C,J1*%
X5000000Y77420000D03*
D20*
X5000000Y82500000D03*
%TD*%
D33*
%TO.C,H6*%
X5000000Y2600000D03*
X2600000Y5000000D03*
X5000000Y7400000D03*
X6697056Y3302944D03*
X3302944Y6697056D03*
X6697056Y6697056D03*
X7400000Y5000000D03*
X3302944Y3302944D03*
D34*
X5000000Y5000000D03*
%TD*%
D13*
%TO.C,D1*%
X105000000Y76000000D03*
D14*
X105000000Y78540000D03*
%TD*%
D32*
%TO.C,J9*%
X3000000Y21100000D03*
D15*
X5000000Y19500000D03*
D16*
X5000000Y17000000D03*
X5000000Y14500000D03*
%TD*%
D32*
%TO.C,J8*%
X3000000Y30600000D03*
D37*
X5000000Y29000000D03*
D38*
X5000000Y26500000D03*
%TD*%
D11*
%TO.C,R27*%
X28690000Y56000000D03*
D12*
X36310000Y56000000D03*
%TD*%
D18*
%TO.C,C7*%
X62750000Y4000000D03*
X60250000Y4000000D03*
%TD*%
D33*
%TO.C,H1*%
X146697056Y3302944D03*
X147400000Y5000000D03*
X143302944Y3302944D03*
X142600000Y5000000D03*
X145000000Y2600000D03*
X146697056Y6697056D03*
X145000000Y7400000D03*
X143302944Y6697056D03*
D34*
X145000000Y5000000D03*
%TD*%
D21*
%TO.C,D2*%
X111000000Y77700000D03*
D22*
X111000000Y65000000D03*
%TD*%
D13*
%TO.C,D10*%
X125000000Y13000000D03*
D14*
X125000000Y15540000D03*
%TD*%
D11*
%TO.C,R17*%
X131500000Y41000000D03*
D12*
X131500000Y33380000D03*
%TD*%
D18*
%TO.C,C10*%
X85500000Y15750000D03*
X85500000Y13250000D03*
%TD*%
D39*
%TO.C,JP3*%
X66200000Y53000000D03*
X67500000Y53000000D03*
X68800000Y53000000D03*
%TD*%
D40*
%TO.C,JP1*%
X121000000Y73300000D03*
X121000000Y72000000D03*
X121000000Y70700000D03*
%TD*%
%TO.C,JP2*%
X121000000Y91300000D03*
X121000000Y90000000D03*
X121000000Y88700000D03*
%TD*%
%TO.C,JP7*%
X93000000Y25300000D03*
X93000000Y24000000D03*
X93000000Y22700000D03*
%TD*%
D39*
%TO.C,JP5*%
X127700000Y44500000D03*
X129000000Y44500000D03*
X130300000Y44500000D03*
%TD*%
%TO.C,JP4*%
X63700000Y37000000D03*
X65000000Y37000000D03*
X66300000Y37000000D03*
%TD*%
D40*
%TO.C,JP9*%
X43500000Y5700000D03*
X43500000Y7000000D03*
X43500000Y8300000D03*
%TD*%
%TO.C,JP6*%
X108000000Y21300000D03*
X108000000Y20000000D03*
X108000000Y18700000D03*
%TD*%
D39*
%TO.C,JP8*%
X137800000Y44500000D03*
X136500000Y44500000D03*
X135200000Y44500000D03*
%TD*%
D29*
X82000000Y39500000D03*
D33*
X110500000Y72000000D03*
X79175000Y3420000D03*
X140300000Y44500000D03*
X118875000Y15125000D03*
D29*
X127200000Y88700000D03*
X127200000Y70700000D03*
D33*
X110000000Y20000000D03*
X55000000Y53000000D03*
X101500000Y38500000D03*
M02*
