%TF.GenerationSoftware,KiCad,Pcbnew,7.0.8*%
%TF.CreationDate,2024-04-03T00:11:47-07:00*%
%TF.ProjectId,DrapeCurrent - R1,44726170-6543-4757-9272-656e74202d20,rev?*%
%TF.SameCoordinates,Original*%
%TF.FileFunction,Soldermask,Bot*%
%TF.FilePolarity,Negative*%
%FSLAX46Y46*%
G04 Gerber Fmt 4.6, Leading zero omitted, Abs format (unit mm)*
G04 Created by KiCad (PCBNEW 7.0.8) date 2024-04-03 00:11:47*
%MOMM*%
%LPD*%
G01*
G04 APERTURE LIST*
%ADD10R,1.524000X1.524000*%
%ADD11C,1.524000*%
%ADD12C,1.600000*%
%ADD13O,1.600000X1.600000*%
%ADD14R,1.980000X3.960000*%
%ADD15O,1.980000X3.960000*%
G04 APERTURE END LIST*
D10*
%TO.C,J1*%
X1270000Y24130000D03*
D11*
X1270000Y21590000D03*
X1270000Y19050000D03*
X1270000Y16510000D03*
X1270000Y13970000D03*
X1270000Y11430000D03*
X1270000Y8890000D03*
X1270000Y6350000D03*
X1270000Y3810000D03*
X1270000Y1270000D03*
X3810000Y24130000D03*
X3810000Y21590000D03*
X3810000Y19050000D03*
X3810000Y16510000D03*
X3810000Y13970000D03*
X3810000Y11430000D03*
X3810000Y8890000D03*
X3810000Y6350000D03*
X3810000Y1270000D03*
D10*
X32766000Y24130000D03*
D11*
X32766000Y21590000D03*
X32766000Y19050000D03*
X32766000Y16510000D03*
X32766000Y13970000D03*
X32766000Y11430000D03*
X32766000Y8890000D03*
X32766000Y6350000D03*
X32766000Y3810000D03*
X32766000Y1270000D03*
X35306000Y24130000D03*
X35306000Y21590000D03*
X35306000Y19050000D03*
X35306000Y16510000D03*
X35306000Y13970000D03*
X35306000Y11430000D03*
X35306000Y8890000D03*
X35306000Y6350000D03*
X35306000Y3810000D03*
X35306000Y1270000D03*
%TD*%
D12*
%TO.C,R2*%
X7620000Y16510000D03*
D13*
X7620000Y6350000D03*
%TD*%
D12*
%TO.C,R1*%
X11430000Y22860000D03*
D13*
X11430000Y12700000D03*
%TD*%
D14*
%TO.C,J2*%
X16920000Y2540000D03*
D15*
X21920000Y2540000D03*
%TD*%
M02*
