%TF.GenerationSoftware,KiCad,Pcbnew,7.0.8*%
%TF.CreationDate,2024-04-03T00:11:47-07:00*%
%TF.ProjectId,DrapeCurrent - R1,44726170-6543-4757-9272-656e74202d20,rev?*%
%TF.SameCoordinates,Original*%
%TF.FileFunction,Copper,L2,Bot*%
%TF.FilePolarity,Positive*%
%FSLAX46Y46*%
G04 Gerber Fmt 4.6, Leading zero omitted, Abs format (unit mm)*
G04 Created by KiCad (PCBNEW 7.0.8) date 2024-04-03 00:11:47*
%MOMM*%
%LPD*%
G01*
G04 APERTURE LIST*
%TA.AperFunction,ComponentPad*%
%ADD10R,1.524000X1.524000*%
%TD*%
%TA.AperFunction,ComponentPad*%
%ADD11C,1.524000*%
%TD*%
%TA.AperFunction,ComponentPad*%
%ADD12C,1.600000*%
%TD*%
%TA.AperFunction,ComponentPad*%
%ADD13O,1.600000X1.600000*%
%TD*%
%TA.AperFunction,ComponentPad*%
%ADD14R,1.980000X3.960000*%
%TD*%
%TA.AperFunction,ComponentPad*%
%ADD15O,1.980000X3.960000*%
%TD*%
G04 APERTURE END LIST*
D10*
%TO.P,J1,1,3V3*%
%TO.N,unconnected-(J1-3V3-Pad1)*%
X1270000Y24130000D03*
D11*
%TO.P,J1,2,SVP*%
%TO.N,unconnected-(J1-SVP-Pad2)*%
X1270000Y21590000D03*
%TO.P,J1,3,G34*%
%TO.N,unconnected-(J1-G34-Pad3)*%
X1270000Y19050000D03*
%TO.P,J1,4,G32*%
%TO.N,unconnected-(J1-G32-Pad4)*%
X1270000Y16510000D03*
%TO.P,J1,5,G25*%
%TO.N,unconnected-(J1-G25-Pad5)*%
X1270000Y13970000D03*
%TO.P,J1,6,G27*%
%TO.N,unconnected-(J1-G27-Pad6)*%
X1270000Y11430000D03*
%TO.P,J1,7,G12*%
%TO.N,unconnected-(J1-G12-Pad7)*%
X1270000Y8890000D03*
%TO.P,J1,8,SD2*%
%TO.N,unconnected-(J1-SD2-Pad8)*%
X1270000Y6350000D03*
%TO.P,J1,9,CMD*%
%TO.N,unconnected-(J1-CMD-Pad9)*%
X1270000Y3810000D03*
%TO.P,J1,10,GND*%
%TO.N,GND*%
X1270000Y1270000D03*
%TO.P,J1,11,GND*%
X3810000Y24130000D03*
%TO.P,J1,12,EN*%
%TO.N,unconnected-(J1-EN-Pad12)*%
X3810000Y21590000D03*
%TO.P,J1,13,SVN*%
%TO.N,unconnected-(J1-SVN-Pad13)*%
X3810000Y19050000D03*
%TO.P,J1,14,G35*%
%TO.N,Net-(J1-G35)*%
X3810000Y16510000D03*
%TO.P,J1,15,G33*%
%TO.N,unconnected-(J1-G33-Pad15)*%
X3810000Y13970000D03*
%TO.P,J1,16,G26*%
%TO.N,unconnected-(J1-G26-Pad16)*%
X3810000Y11430000D03*
%TO.P,J1,17,G14*%
%TO.N,unconnected-(J1-G14-Pad17)*%
X3810000Y8890000D03*
%TO.P,J1,18,G13*%
%TO.N,unconnected-(J1-G13-Pad18)*%
X3810000Y6350000D03*
%TO.P,J1,20,5V*%
%TO.N,+5V*%
X3810000Y1270000D03*
D10*
%TO.P,J1,21,GND*%
%TO.N,GND*%
X32766000Y24130000D03*
D11*
%TO.P,J1,22,G22*%
%TO.N,unconnected-(J1-G22-Pad22)*%
X32766000Y21590000D03*
%TO.P,J1,23,G3/RXD*%
%TO.N,unconnected-(J1-G3{slash}RXD-Pad23)*%
X32766000Y19050000D03*
%TO.P,J1,24,GND*%
%TO.N,GND*%
X32766000Y16510000D03*
%TO.P,J1,25,G18*%
%TO.N,unconnected-(J1-G18-Pad25)*%
X32766000Y13970000D03*
%TO.P,J1,26,G17*%
%TO.N,unconnected-(J1-G17-Pad26)*%
X32766000Y11430000D03*
%TO.P,J1,27,G4*%
%TO.N,unconnected-(J1-G4-Pad27)*%
X32766000Y8890000D03*
%TO.P,J1,28,G2*%
%TO.N,unconnected-(J1-G2-Pad28)*%
X32766000Y6350000D03*
%TO.P,J1,29,SDI*%
%TO.N,unconnected-(J1-SDI-Pad29)*%
X32766000Y3810000D03*
%TO.P,J1,30,CLK*%
%TO.N,unconnected-(J1-CLK-Pad30)*%
X32766000Y1270000D03*
%TO.P,J1,31,G23*%
%TO.N,unconnected-(J1-G23-Pad31)*%
X35306000Y24130000D03*
%TO.P,J1,32,G1/TXD*%
%TO.N,unconnected-(J1-G1{slash}TXD-Pad32)*%
X35306000Y21590000D03*
%TO.P,J1,33,G21*%
%TO.N,unconnected-(J1-G21-Pad33)*%
X35306000Y19050000D03*
%TO.P,J1,34,G19*%
%TO.N,unconnected-(J1-G19-Pad34)*%
X35306000Y16510000D03*
%TO.P,J1,35,G5*%
%TO.N,unconnected-(J1-G5-Pad35)*%
X35306000Y13970000D03*
%TO.P,J1,36,G16*%
%TO.N,unconnected-(J1-G16-Pad36)*%
X35306000Y11430000D03*
%TO.P,J1,37,G0*%
%TO.N,unconnected-(J1-G0-Pad37)*%
X35306000Y8890000D03*
%TO.P,J1,38,G15*%
%TO.N,unconnected-(J1-G15-Pad38)*%
X35306000Y6350000D03*
%TO.P,J1,39,SDO*%
%TO.N,unconnected-(J1-SDO-Pad39)*%
X35306000Y3810000D03*
%TO.P,J1,40,3V3*%
%TO.N,unconnected-(J1-3V3-Pad40)*%
X35306000Y1270000D03*
%TD*%
D12*
%TO.P,R2,1*%
%TO.N,Net-(J1-G35)*%
X7620000Y16510000D03*
D13*
%TO.P,R2,2*%
%TO.N,GND*%
X7620000Y6350000D03*
%TD*%
D12*
%TO.P,R1,1*%
%TO.N,Net-(U1-VIOUT)*%
X11430000Y22860000D03*
D13*
%TO.P,R1,2*%
%TO.N,Net-(J1-G35)*%
X11430000Y12700000D03*
%TD*%
D14*
%TO.P,J2,1,Pin_1*%
%TO.N,Net-(J2-Pin_1)*%
X16920000Y2540000D03*
D15*
%TO.P,J2,2,Pin_2*%
%TO.N,Net-(J2-Pin_2)*%
X21920000Y2540000D03*
%TD*%
M02*
