%TF.GenerationSoftware,KiCad,Pcbnew,7.0.8*%
%TF.CreationDate,2024-04-03T00:11:47-07:00*%
%TF.ProjectId,DrapeCurrent - R1,44726170-6543-4757-9272-656e74202d20,rev?*%
%TF.SameCoordinates,Original*%
%TF.FileFunction,Legend,Top*%
%TF.FilePolarity,Positive*%
%FSLAX46Y46*%
G04 Gerber Fmt 4.6, Leading zero omitted, Abs format (unit mm)*
G04 Created by KiCad (PCBNEW 7.0.8) date 2024-04-03 00:11:47*
%MOMM*%
%LPD*%
G01*
G04 APERTURE LIST*
%ADD10C,0.150000*%
%ADD11C,0.120000*%
G04 APERTURE END LIST*
D10*
X7667666Y24675180D02*
X7667666Y23960895D01*
X7667666Y23960895D02*
X7620047Y23818038D01*
X7620047Y23818038D02*
X7524809Y23722800D01*
X7524809Y23722800D02*
X7381952Y23675180D01*
X7381952Y23675180D02*
X7286714Y23675180D01*
X8667666Y23675180D02*
X8096238Y23675180D01*
X8381952Y23675180D02*
X8381952Y24675180D01*
X8381952Y24675180D02*
X8286714Y24532323D01*
X8286714Y24532323D02*
X8191476Y24437085D01*
X8191476Y24437085D02*
X8096238Y24389466D01*
X15739819Y12573095D02*
X16549342Y12573095D01*
X16549342Y12573095D02*
X16644580Y12620714D01*
X16644580Y12620714D02*
X16692200Y12668333D01*
X16692200Y12668333D02*
X16739819Y12763571D01*
X16739819Y12763571D02*
X16739819Y12954047D01*
X16739819Y12954047D02*
X16692200Y13049285D01*
X16692200Y13049285D02*
X16644580Y13096904D01*
X16644580Y13096904D02*
X16549342Y13144523D01*
X16549342Y13144523D02*
X15739819Y13144523D01*
X16739819Y14144523D02*
X16739819Y13573095D01*
X16739819Y13858809D02*
X15739819Y13858809D01*
X15739819Y13858809D02*
X15882676Y13763571D01*
X15882676Y13763571D02*
X15977914Y13668333D01*
X15977914Y13668333D02*
X16025533Y13573095D01*
X10444819Y11263333D02*
X9968628Y10930000D01*
X10444819Y10691905D02*
X9444819Y10691905D01*
X9444819Y10691905D02*
X9444819Y11072857D01*
X9444819Y11072857D02*
X9492438Y11168095D01*
X9492438Y11168095D02*
X9540057Y11215714D01*
X9540057Y11215714D02*
X9635295Y11263333D01*
X9635295Y11263333D02*
X9778152Y11263333D01*
X9778152Y11263333D02*
X9873390Y11215714D01*
X9873390Y11215714D02*
X9921009Y11168095D01*
X9921009Y11168095D02*
X9968628Y11072857D01*
X9968628Y11072857D02*
X9968628Y10691905D01*
X9540057Y11644286D02*
X9492438Y11691905D01*
X9492438Y11691905D02*
X9444819Y11787143D01*
X9444819Y11787143D02*
X9444819Y12025238D01*
X9444819Y12025238D02*
X9492438Y12120476D01*
X9492438Y12120476D02*
X9540057Y12168095D01*
X9540057Y12168095D02*
X9635295Y12215714D01*
X9635295Y12215714D02*
X9730533Y12215714D01*
X9730533Y12215714D02*
X9873390Y12168095D01*
X9873390Y12168095D02*
X10444819Y11596667D01*
X10444819Y11596667D02*
X10444819Y12215714D01*
X14254819Y17613333D02*
X13778628Y17280000D01*
X14254819Y17041905D02*
X13254819Y17041905D01*
X13254819Y17041905D02*
X13254819Y17422857D01*
X13254819Y17422857D02*
X13302438Y17518095D01*
X13302438Y17518095D02*
X13350057Y17565714D01*
X13350057Y17565714D02*
X13445295Y17613333D01*
X13445295Y17613333D02*
X13588152Y17613333D01*
X13588152Y17613333D02*
X13683390Y17565714D01*
X13683390Y17565714D02*
X13731009Y17518095D01*
X13731009Y17518095D02*
X13778628Y17422857D01*
X13778628Y17422857D02*
X13778628Y17041905D01*
X14254819Y18565714D02*
X14254819Y17994286D01*
X14254819Y18280000D02*
X13254819Y18280000D01*
X13254819Y18280000D02*
X13397676Y18184762D01*
X13397676Y18184762D02*
X13492914Y18089524D01*
X13492914Y18089524D02*
X13540533Y17994286D01*
X14666666Y10075180D02*
X14666666Y9360895D01*
X14666666Y9360895D02*
X14619047Y9218038D01*
X14619047Y9218038D02*
X14523809Y9122800D01*
X14523809Y9122800D02*
X14380952Y9075180D01*
X14380952Y9075180D02*
X14285714Y9075180D01*
X15095238Y9979942D02*
X15142857Y10027561D01*
X15142857Y10027561D02*
X15238095Y10075180D01*
X15238095Y10075180D02*
X15476190Y10075180D01*
X15476190Y10075180D02*
X15571428Y10027561D01*
X15571428Y10027561D02*
X15619047Y9979942D01*
X15619047Y9979942D02*
X15666666Y9884704D01*
X15666666Y9884704D02*
X15666666Y9789466D01*
X15666666Y9789466D02*
X15619047Y9646609D01*
X15619047Y9646609D02*
X15047619Y9075180D01*
X15047619Y9075180D02*
X15666666Y9075180D01*
X13639580Y7453333D02*
X13687200Y7405714D01*
X13687200Y7405714D02*
X13734819Y7262857D01*
X13734819Y7262857D02*
X13734819Y7167619D01*
X13734819Y7167619D02*
X13687200Y7024762D01*
X13687200Y7024762D02*
X13591961Y6929524D01*
X13591961Y6929524D02*
X13496723Y6881905D01*
X13496723Y6881905D02*
X13306247Y6834286D01*
X13306247Y6834286D02*
X13163390Y6834286D01*
X13163390Y6834286D02*
X12972914Y6881905D01*
X12972914Y6881905D02*
X12877676Y6929524D01*
X12877676Y6929524D02*
X12782438Y7024762D01*
X12782438Y7024762D02*
X12734819Y7167619D01*
X12734819Y7167619D02*
X12734819Y7262857D01*
X12734819Y7262857D02*
X12782438Y7405714D01*
X12782438Y7405714D02*
X12830057Y7453333D01*
X12734819Y7786667D02*
X12734819Y8405714D01*
X12734819Y8405714D02*
X13115771Y8072381D01*
X13115771Y8072381D02*
X13115771Y8215238D01*
X13115771Y8215238D02*
X13163390Y8310476D01*
X13163390Y8310476D02*
X13211009Y8358095D01*
X13211009Y8358095D02*
X13306247Y8405714D01*
X13306247Y8405714D02*
X13544342Y8405714D01*
X13544342Y8405714D02*
X13639580Y8358095D01*
X13639580Y8358095D02*
X13687200Y8310476D01*
X13687200Y8310476D02*
X13734819Y8215238D01*
X13734819Y8215238D02*
X13734819Y7929524D01*
X13734819Y7929524D02*
X13687200Y7834286D01*
X13687200Y7834286D02*
X13639580Y7786667D01*
X22639580Y14438333D02*
X22687200Y14390714D01*
X22687200Y14390714D02*
X22734819Y14247857D01*
X22734819Y14247857D02*
X22734819Y14152619D01*
X22734819Y14152619D02*
X22687200Y14009762D01*
X22687200Y14009762D02*
X22591961Y13914524D01*
X22591961Y13914524D02*
X22496723Y13866905D01*
X22496723Y13866905D02*
X22306247Y13819286D01*
X22306247Y13819286D02*
X22163390Y13819286D01*
X22163390Y13819286D02*
X21972914Y13866905D01*
X21972914Y13866905D02*
X21877676Y13914524D01*
X21877676Y13914524D02*
X21782438Y14009762D01*
X21782438Y14009762D02*
X21734819Y14152619D01*
X21734819Y14152619D02*
X21734819Y14247857D01*
X21734819Y14247857D02*
X21782438Y14390714D01*
X21782438Y14390714D02*
X21830057Y14438333D01*
X21830057Y14819286D02*
X21782438Y14866905D01*
X21782438Y14866905D02*
X21734819Y14962143D01*
X21734819Y14962143D02*
X21734819Y15200238D01*
X21734819Y15200238D02*
X21782438Y15295476D01*
X21782438Y15295476D02*
X21830057Y15343095D01*
X21830057Y15343095D02*
X21925295Y15390714D01*
X21925295Y15390714D02*
X22020533Y15390714D01*
X22020533Y15390714D02*
X22163390Y15343095D01*
X22163390Y15343095D02*
X22734819Y14771667D01*
X22734819Y14771667D02*
X22734819Y15390714D01*
X21423333Y21175419D02*
X21375714Y21127800D01*
X21375714Y21127800D02*
X21232857Y21080180D01*
X21232857Y21080180D02*
X21137619Y21080180D01*
X21137619Y21080180D02*
X20994762Y21127800D01*
X20994762Y21127800D02*
X20899524Y21223038D01*
X20899524Y21223038D02*
X20851905Y21318276D01*
X20851905Y21318276D02*
X20804286Y21508752D01*
X20804286Y21508752D02*
X20804286Y21651609D01*
X20804286Y21651609D02*
X20851905Y21842085D01*
X20851905Y21842085D02*
X20899524Y21937323D01*
X20899524Y21937323D02*
X20994762Y22032561D01*
X20994762Y22032561D02*
X21137619Y22080180D01*
X21137619Y22080180D02*
X21232857Y22080180D01*
X21232857Y22080180D02*
X21375714Y22032561D01*
X21375714Y22032561D02*
X21423333Y21984942D01*
X22375714Y21080180D02*
X21804286Y21080180D01*
X22090000Y21080180D02*
X22090000Y22080180D01*
X22090000Y22080180D02*
X21994762Y21937323D01*
X21994762Y21937323D02*
X21899524Y21842085D01*
X21899524Y21842085D02*
X21804286Y21794466D01*
%TO.C,J1*%
X0Y25400000D02*
X0Y0D01*
X0Y0D02*
X5080000Y0D01*
X5080000Y25400000D02*
X0Y25400000D01*
X5080000Y25400000D02*
X31496000Y25400000D01*
X5080000Y0D02*
X5080000Y25400000D01*
X31496000Y25400000D02*
X31496000Y0D01*
X31496000Y25400000D02*
X31496000Y0D01*
X31496000Y0D02*
X5080000Y0D01*
X31496000Y0D02*
X36576000Y0D01*
X36576000Y25400000D02*
X31496000Y25400000D01*
X36576000Y0D02*
X36576000Y25400000D01*
D11*
%TO.C,U1*%
X17125000Y13335000D02*
X17125000Y15285000D01*
X22245000Y13335000D02*
X22245000Y15285000D01*
X17125000Y13335000D02*
X17125000Y9885000D01*
X22245000Y13335000D02*
X22245000Y11385000D01*
%TO.C,R2*%
X7620000Y7390000D02*
X7620000Y8160000D01*
X7620000Y15470000D02*
X7620000Y14700000D01*
X8990000Y14700000D02*
X6250000Y14700000D01*
X6250000Y8160000D02*
X8990000Y8160000D01*
X6250000Y14700000D02*
X6250000Y8160000D01*
X8990000Y8160000D02*
X8990000Y14700000D01*
%TO.C,R1*%
X11430000Y13740000D02*
X11430000Y14510000D01*
X11430000Y21820000D02*
X11430000Y21050000D01*
X12800000Y21050000D02*
X10060000Y21050000D01*
X10060000Y14510000D02*
X12800000Y14510000D01*
X10060000Y21050000D02*
X10060000Y14510000D01*
X12800000Y14510000D02*
X12800000Y21050000D01*
%TO.C,J2*%
X25120000Y-3060000D02*
X25120000Y-1160000D01*
X24620000Y-3760000D02*
X24620000Y-2810000D01*
X24620000Y4040000D02*
X25120000Y3740000D01*
X24620000Y-2810000D02*
X25120000Y-3060000D01*
X24620000Y-1360000D02*
X24620000Y4040000D01*
X14270000Y8840000D02*
X14270000Y-3760000D01*
X25120000Y8840000D02*
X14270000Y8840000D01*
X25120000Y3740000D02*
X25120000Y8840000D01*
X25120000Y-1160000D02*
X25120000Y-1110000D01*
X14270000Y-3760000D02*
X24620000Y-3760000D01*
X25120000Y-1110000D02*
X24620000Y-1360000D01*
%TO.C,C3*%
X10520000Y8331252D02*
X10520000Y6908748D01*
X12340000Y8331252D02*
X12340000Y6908748D01*
%TO.C,C2*%
X25040000Y13893748D02*
X25040000Y15316252D01*
X23220000Y13893748D02*
X23220000Y15316252D01*
%TO.C,C1*%
X20878748Y18775000D02*
X22301252Y18775000D01*
X20878748Y20595000D02*
X22301252Y20595000D01*
%TD*%
M02*
