M48
; DRILL file {KiCad 7.0.8} date Wed Apr  3 00:11:41 2024
; FORMAT={3:3/ absolute / metric / suppress trailing zeros}
; #@! TF.CreationDate,2024-04-03T00:11:41-07:00
; #@! TF.GenerationSoftware,Kicad,Pcbnew,7.0.8
; #@! TF.FileFunction,MixedPlating,1,2
FMAT,2
METRIC,LZ
; #@! TA.AperFunction,Plated,PTH,ComponentDrill
T1C0.762
; #@! TA.AperFunction,Plated,PTH,ComponentDrill
T2C0.800
; #@! TA.AperFunction,Plated,PTH,ComponentDrill
T3C1.320
%
G90
G05
T1
X00127Y02413
X00127Y02159
X00127Y01905
X00127Y01651
X00127Y01397
X00127Y01143
X00127Y00889
X00127Y00635
X00127Y00381
X00127Y00127
X00381Y02413
X00381Y02159
X00381Y01905
X00381Y01651
X00381Y01397
X00381Y01143
X00381Y00889
X00381Y00635
X00381Y00127
X032766Y02413
X032766Y02159
X032766Y01905
X032766Y01651
X032766Y01397
X032766Y01143
X032766Y00889
X032766Y00635
X032766Y00381
X032766Y00127
X035306Y02413
X035306Y02159
X035306Y01905
X035306Y01651
X035306Y01397
X035306Y01143
X035306Y00889
X035306Y00635
X035306Y00381
X035306Y00127
T2
X00762Y01651
X00762Y00635
X01143Y02286
X01143Y0127
T3
X01692Y00254
X02192Y00254
T0
M30
