%TF.GenerationSoftware,KiCad,Pcbnew,7.0.8*%
%TF.CreationDate,2024-04-03T00:11:47-07:00*%
%TF.ProjectId,DrapeCurrent - R1,44726170-6543-4757-9272-656e74202d20,rev?*%
%TF.SameCoordinates,Original*%
%TF.FileFunction,Copper,L1,Top*%
%TF.FilePolarity,Positive*%
%FSLAX46Y46*%
G04 Gerber Fmt 4.6, Leading zero omitted, Abs format (unit mm)*
G04 Created by KiCad (PCBNEW 7.0.8) date 2024-04-03 00:11:47*
%MOMM*%
%LPD*%
G01*
G04 APERTURE LIST*
G04 Aperture macros list*
%AMRoundRect*
0 Rectangle with rounded corners*
0 $1 Rounding radius*
0 $2 $3 $4 $5 $6 $7 $8 $9 X,Y pos of 4 corners*
0 Add a 4 corners polygon primitive as box body*
4,1,4,$2,$3,$4,$5,$6,$7,$8,$9,$2,$3,0*
0 Add four circle primitives for the rounded corners*
1,1,$1+$1,$2,$3*
1,1,$1+$1,$4,$5*
1,1,$1+$1,$6,$7*
1,1,$1+$1,$8,$9*
0 Add four rect primitives between the rounded corners*
20,1,$1+$1,$2,$3,$4,$5,0*
20,1,$1+$1,$4,$5,$6,$7,0*
20,1,$1+$1,$6,$7,$8,$9,0*
20,1,$1+$1,$8,$9,$2,$3,0*%
G04 Aperture macros list end*
%TA.AperFunction,ComponentPad*%
%ADD10R,1.524000X1.524000*%
%TD*%
%TA.AperFunction,ComponentPad*%
%ADD11C,1.524000*%
%TD*%
%TA.AperFunction,SMDPad,CuDef*%
%ADD12RoundRect,0.150000X0.150000X-0.825000X0.150000X0.825000X-0.150000X0.825000X-0.150000X-0.825000X0*%
%TD*%
%TA.AperFunction,ComponentPad*%
%ADD13C,1.600000*%
%TD*%
%TA.AperFunction,ComponentPad*%
%ADD14O,1.600000X1.600000*%
%TD*%
%TA.AperFunction,ComponentPad*%
%ADD15R,1.980000X3.960000*%
%TD*%
%TA.AperFunction,ComponentPad*%
%ADD16O,1.980000X3.960000*%
%TD*%
%TA.AperFunction,SMDPad,CuDef*%
%ADD17RoundRect,0.250000X-0.650000X0.412500X-0.650000X-0.412500X0.650000X-0.412500X0.650000X0.412500X0*%
%TD*%
%TA.AperFunction,SMDPad,CuDef*%
%ADD18RoundRect,0.250000X0.650000X-0.412500X0.650000X0.412500X-0.650000X0.412500X-0.650000X-0.412500X0*%
%TD*%
%TA.AperFunction,SMDPad,CuDef*%
%ADD19RoundRect,0.250000X-0.412500X-0.650000X0.412500X-0.650000X0.412500X0.650000X-0.412500X0.650000X0*%
%TD*%
%TA.AperFunction,Conductor*%
%ADD20C,0.254000*%
%TD*%
%TA.AperFunction,Conductor*%
%ADD21C,0.508000*%
%TD*%
%TA.AperFunction,Conductor*%
%ADD22C,0.762000*%
%TD*%
%TA.AperFunction,Conductor*%
%ADD23C,0.250000*%
%TD*%
G04 APERTURE END LIST*
D10*
%TO.P,J1,1,3V3*%
%TO.N,unconnected-(J1-3V3-Pad1)*%
X1270000Y24130000D03*
D11*
%TO.P,J1,2,SVP*%
%TO.N,unconnected-(J1-SVP-Pad2)*%
X1270000Y21590000D03*
%TO.P,J1,3,G34*%
%TO.N,unconnected-(J1-G34-Pad3)*%
X1270000Y19050000D03*
%TO.P,J1,4,G32*%
%TO.N,unconnected-(J1-G32-Pad4)*%
X1270000Y16510000D03*
%TO.P,J1,5,G25*%
%TO.N,unconnected-(J1-G25-Pad5)*%
X1270000Y13970000D03*
%TO.P,J1,6,G27*%
%TO.N,unconnected-(J1-G27-Pad6)*%
X1270000Y11430000D03*
%TO.P,J1,7,G12*%
%TO.N,unconnected-(J1-G12-Pad7)*%
X1270000Y8890000D03*
%TO.P,J1,8,SD2*%
%TO.N,unconnected-(J1-SD2-Pad8)*%
X1270000Y6350000D03*
%TO.P,J1,9,CMD*%
%TO.N,unconnected-(J1-CMD-Pad9)*%
X1270000Y3810000D03*
%TO.P,J1,10,GND*%
%TO.N,GND*%
X1270000Y1270000D03*
%TO.P,J1,11,GND*%
X3810000Y24130000D03*
%TO.P,J1,12,EN*%
%TO.N,unconnected-(J1-EN-Pad12)*%
X3810000Y21590000D03*
%TO.P,J1,13,SVN*%
%TO.N,unconnected-(J1-SVN-Pad13)*%
X3810000Y19050000D03*
%TO.P,J1,14,G35*%
%TO.N,Net-(J1-G35)*%
X3810000Y16510000D03*
%TO.P,J1,15,G33*%
%TO.N,unconnected-(J1-G33-Pad15)*%
X3810000Y13970000D03*
%TO.P,J1,16,G26*%
%TO.N,unconnected-(J1-G26-Pad16)*%
X3810000Y11430000D03*
%TO.P,J1,17,G14*%
%TO.N,unconnected-(J1-G14-Pad17)*%
X3810000Y8890000D03*
%TO.P,J1,18,G13*%
%TO.N,unconnected-(J1-G13-Pad18)*%
X3810000Y6350000D03*
%TO.P,J1,20,5V*%
%TO.N,+5V*%
X3810000Y1270000D03*
D10*
%TO.P,J1,21,GND*%
%TO.N,GND*%
X32766000Y24130000D03*
D11*
%TO.P,J1,22,G22*%
%TO.N,unconnected-(J1-G22-Pad22)*%
X32766000Y21590000D03*
%TO.P,J1,23,G3/RXD*%
%TO.N,unconnected-(J1-G3{slash}RXD-Pad23)*%
X32766000Y19050000D03*
%TO.P,J1,24,GND*%
%TO.N,GND*%
X32766000Y16510000D03*
%TO.P,J1,25,G18*%
%TO.N,unconnected-(J1-G18-Pad25)*%
X32766000Y13970000D03*
%TO.P,J1,26,G17*%
%TO.N,unconnected-(J1-G17-Pad26)*%
X32766000Y11430000D03*
%TO.P,J1,27,G4*%
%TO.N,unconnected-(J1-G4-Pad27)*%
X32766000Y8890000D03*
%TO.P,J1,28,G2*%
%TO.N,unconnected-(J1-G2-Pad28)*%
X32766000Y6350000D03*
%TO.P,J1,29,SDI*%
%TO.N,unconnected-(J1-SDI-Pad29)*%
X32766000Y3810000D03*
%TO.P,J1,30,CLK*%
%TO.N,unconnected-(J1-CLK-Pad30)*%
X32766000Y1270000D03*
%TO.P,J1,31,G23*%
%TO.N,unconnected-(J1-G23-Pad31)*%
X35306000Y24130000D03*
%TO.P,J1,32,G1/TXD*%
%TO.N,unconnected-(J1-G1{slash}TXD-Pad32)*%
X35306000Y21590000D03*
%TO.P,J1,33,G21*%
%TO.N,unconnected-(J1-G21-Pad33)*%
X35306000Y19050000D03*
%TO.P,J1,34,G19*%
%TO.N,unconnected-(J1-G19-Pad34)*%
X35306000Y16510000D03*
%TO.P,J1,35,G5*%
%TO.N,unconnected-(J1-G5-Pad35)*%
X35306000Y13970000D03*
%TO.P,J1,36,G16*%
%TO.N,unconnected-(J1-G16-Pad36)*%
X35306000Y11430000D03*
%TO.P,J1,37,G0*%
%TO.N,unconnected-(J1-G0-Pad37)*%
X35306000Y8890000D03*
%TO.P,J1,38,G15*%
%TO.N,unconnected-(J1-G15-Pad38)*%
X35306000Y6350000D03*
%TO.P,J1,39,SDO*%
%TO.N,unconnected-(J1-SDO-Pad39)*%
X35306000Y3810000D03*
%TO.P,J1,40,3V3*%
%TO.N,unconnected-(J1-3V3-Pad40)*%
X35306000Y1270000D03*
%TD*%
D12*
%TO.P,U1,1,IP+*%
%TO.N,Net-(J2-Pin_1)*%
X17780000Y10860000D03*
%TO.P,U1,2,IP+*%
X19050000Y10860000D03*
%TO.P,U1,3,IP-*%
%TO.N,Net-(J2-Pin_2)*%
X20320000Y10860000D03*
%TO.P,U1,4,IP-*%
X21590000Y10860000D03*
%TO.P,U1,5,GND*%
%TO.N,GND*%
X21590000Y15810000D03*
%TO.P,U1,6,FILTER*%
%TO.N,Net-(U1-FILTER)*%
X20320000Y15810000D03*
%TO.P,U1,7,VIOUT*%
%TO.N,Net-(U1-VIOUT)*%
X19050000Y15810000D03*
%TO.P,U1,8,VCC*%
%TO.N,+5V*%
X17780000Y15810000D03*
%TD*%
D13*
%TO.P,R2,1*%
%TO.N,Net-(J1-G35)*%
X7620000Y16510000D03*
D14*
%TO.P,R2,2*%
%TO.N,GND*%
X7620000Y6350000D03*
%TD*%
D13*
%TO.P,R1,1*%
%TO.N,Net-(U1-VIOUT)*%
X11430000Y22860000D03*
D14*
%TO.P,R1,2*%
%TO.N,Net-(J1-G35)*%
X11430000Y12700000D03*
%TD*%
D15*
%TO.P,J2,1,Pin_1*%
%TO.N,Net-(J2-Pin_1)*%
X16920000Y2540000D03*
D16*
%TO.P,J2,2,Pin_2*%
%TO.N,Net-(J2-Pin_2)*%
X21920000Y2540000D03*
%TD*%
D17*
%TO.P,C3,1*%
%TO.N,Net-(J1-G35)*%
X11430000Y9182500D03*
%TO.P,C3,2*%
%TO.N,GND*%
X11430000Y6057500D03*
%TD*%
D18*
%TO.P,C2,1*%
%TO.N,+5V*%
X24130000Y13042500D03*
%TO.P,C2,2*%
%TO.N,GND*%
X24130000Y16167500D03*
%TD*%
D19*
%TO.P,C1,1*%
%TO.N,Net-(U1-FILTER)*%
X20027500Y19685000D03*
%TO.P,C1,2*%
%TO.N,GND*%
X23152500Y19685000D03*
%TD*%
D20*
%TO.N,Net-(J1-G35)*%
X11430000Y9182500D02*
X11430000Y12700000D01*
D21*
%TO.N,+5V*%
X14605000Y10795000D02*
X17145000Y13335000D01*
X14605000Y3175000D02*
X14605000Y10795000D01*
X12700000Y1270000D02*
X14605000Y3175000D01*
X3810000Y1270000D02*
X12700000Y1270000D01*
X17145000Y13335000D02*
X17780000Y13335000D01*
%TO.N,GND*%
X21590000Y18122500D02*
X23152500Y19685000D01*
X21590000Y15810000D02*
X21590000Y18122500D01*
X21590000Y15810000D02*
X23772500Y15810000D01*
X23772500Y15810000D02*
X24130000Y16167500D01*
D20*
%TO.N,Net-(U1-FILTER)*%
X20320000Y19392500D02*
X20027500Y19685000D01*
X20320000Y15810000D02*
X20320000Y19392500D01*
%TO.N,Net-(U1-VIOUT)*%
X19050000Y18729582D02*
X19050000Y15810000D01*
X11430000Y22860000D02*
X14919582Y22860000D01*
X14919582Y22860000D02*
X19050000Y18729582D01*
D21*
%TO.N,+5V*%
X17780000Y13970000D02*
X17780000Y13335000D01*
X23837500Y13335000D02*
X17780000Y13335000D01*
D22*
X24130000Y13042500D02*
X23837500Y13335000D01*
D21*
X17780000Y13970000D02*
X17780000Y15810000D01*
D23*
%TO.N,Net-(J1-G35)*%
X7620000Y16510000D02*
X11430000Y12700000D01*
X3810000Y16510000D02*
X7620000Y16510000D01*
%TD*%
%TA.AperFunction,Conductor*%
%TO.N,Net-(J2-Pin_1)*%
G36*
X18993039Y11410315D02*
G01*
X19038794Y11357511D01*
X19050000Y11306000D01*
X19050000Y1394000D01*
X19030315Y1326961D01*
X18977511Y1281206D01*
X18926000Y1270000D01*
X15364000Y1270000D01*
X15296961Y1289685D01*
X15251206Y1342489D01*
X15240000Y1394000D01*
X15240000Y2723972D01*
X15251617Y2776376D01*
X15284172Y2846191D01*
X15318824Y2915189D01*
X15318825Y2915194D01*
X15321295Y2921979D01*
X15321347Y2921960D01*
X15323858Y2929185D01*
X15323807Y2929203D01*
X15326080Y2936062D01*
X15332719Y2968219D01*
X15341695Y3011689D01*
X15359500Y3086812D01*
X15359500Y3086815D01*
X15360339Y3093986D01*
X15360391Y3093979D01*
X15361169Y3101596D01*
X15361117Y3101601D01*
X15361746Y3108790D01*
X15359500Y3185981D01*
X15359500Y9593138D01*
X15379185Y9660177D01*
X15395819Y9680819D01*
X17108681Y11393681D01*
X17170004Y11427166D01*
X17196362Y11430000D01*
X18926000Y11430000D01*
X18993039Y11410315D01*
G37*
%TD.AperFunction*%
%TD*%
%TA.AperFunction,Conductor*%
%TO.N,Net-(J2-Pin_2)*%
G36*
X22250706Y11410315D02*
G01*
X22258062Y11405203D01*
X24715400Y9562200D01*
X24757221Y9506229D01*
X24765000Y9463000D01*
X24765000Y1394000D01*
X24745315Y1326961D01*
X24692511Y1281206D01*
X24641000Y1270000D01*
X20444000Y1270000D01*
X20376961Y1289685D01*
X20331206Y1342489D01*
X20320000Y1394000D01*
X20320000Y11306000D01*
X20339685Y11373039D01*
X20392489Y11418794D01*
X20444000Y11430000D01*
X22183667Y11430000D01*
X22250706Y11410315D01*
G37*
%TD.AperFunction*%
%TD*%
%TA.AperFunction,Conductor*%
%TO.N,GND*%
G36*
X33800780Y24745315D02*
G01*
X33846535Y24692511D01*
X33856479Y24623353D01*
X33852745Y24607296D01*
X33852768Y24607291D01*
X33852014Y24604152D01*
X33851674Y24602688D01*
X33851631Y24602557D01*
X33795612Y24369219D01*
X33776786Y24130000D01*
X33795612Y23890780D01*
X33851630Y23657446D01*
X33851630Y23657445D01*
X33943457Y23435754D01*
X33943459Y23435751D01*
X34068837Y23231153D01*
X34068841Y23231148D01*
X34224681Y23048682D01*
X34335201Y22954291D01*
X34373395Y22895784D01*
X34373894Y22825916D01*
X34336540Y22766869D01*
X34335232Y22765736D01*
X34224682Y22671318D01*
X34130291Y22560799D01*
X34071784Y22522605D01*
X34001916Y22522106D01*
X33942869Y22559460D01*
X33941709Y22560799D01*
X33847318Y22671318D01*
X33664849Y22827160D01*
X33460249Y22952540D01*
X33460246Y22952541D01*
X33460245Y22952542D01*
X33238553Y23044369D01*
X33220588Y23048682D01*
X33005222Y23100387D01*
X32766000Y23119214D01*
X32526778Y23100387D01*
X32371224Y23063041D01*
X32293446Y23044369D01*
X32293445Y23044369D01*
X32071754Y22952542D01*
X32071751Y22952540D01*
X31867153Y22827162D01*
X31867148Y22827158D01*
X31801481Y22771073D01*
X31684682Y22671318D01*
X31599482Y22571561D01*
X31528841Y22488851D01*
X31528837Y22488846D01*
X31403459Y22284248D01*
X31403457Y22284245D01*
X31311630Y22062554D01*
X31311630Y22062553D01*
X31255612Y21829219D01*
X31236786Y21590000D01*
X31255612Y21350780D01*
X31311630Y21117446D01*
X31311630Y21117445D01*
X31403457Y20895754D01*
X31403459Y20895751D01*
X31528837Y20691153D01*
X31528841Y20691148D01*
X31684681Y20508682D01*
X31760736Y20443725D01*
X31776203Y20430516D01*
X31795201Y20414291D01*
X31833395Y20355784D01*
X31833894Y20285916D01*
X31796540Y20226869D01*
X31795201Y20225709D01*
X31684681Y20131317D01*
X31528841Y19948851D01*
X31528837Y19948846D01*
X31403459Y19744248D01*
X31403457Y19744245D01*
X31311630Y19522554D01*
X31311630Y19522553D01*
X31255612Y19289219D01*
X31236786Y19050000D01*
X31255612Y18810780D01*
X31311630Y18577446D01*
X31311630Y18577445D01*
X31403457Y18355754D01*
X31403459Y18355751D01*
X31528837Y18151153D01*
X31528841Y18151148D01*
X31684682Y17968682D01*
X31867148Y17812841D01*
X31867153Y17812837D01*
X32071751Y17687459D01*
X32071754Y17687457D01*
X32293446Y17595630D01*
X32526781Y17539612D01*
X32526780Y17539612D01*
X32766000Y17520786D01*
X33005219Y17539612D01*
X33238553Y17595630D01*
X33238554Y17595630D01*
X33460245Y17687457D01*
X33460248Y17687459D01*
X33664846Y17812837D01*
X33664851Y17812841D01*
X33847317Y17968681D01*
X33847318Y17968682D01*
X33941709Y18079201D01*
X34000216Y18117395D01*
X34070084Y18117894D01*
X34129131Y18080540D01*
X34130263Y18079232D01*
X34224682Y17968682D01*
X34297482Y17906505D01*
X34335201Y17874291D01*
X34373395Y17815784D01*
X34373894Y17745916D01*
X34336540Y17686869D01*
X34335201Y17685709D01*
X34224681Y17591317D01*
X34068841Y17408851D01*
X34068837Y17408846D01*
X33943459Y17204248D01*
X33943457Y17204245D01*
X33851630Y16982554D01*
X33851630Y16982553D01*
X33795612Y16749219D01*
X33776786Y16510000D01*
X33795612Y16270780D01*
X33851630Y16037446D01*
X33851630Y16037445D01*
X33943457Y15815754D01*
X33943459Y15815751D01*
X34068837Y15611153D01*
X34068841Y15611148D01*
X34224681Y15428682D01*
X34335201Y15334291D01*
X34373395Y15275784D01*
X34373894Y15205916D01*
X34336540Y15146869D01*
X34335232Y15145736D01*
X34224682Y15051318D01*
X34135242Y14946596D01*
X34130291Y14940799D01*
X34071784Y14902605D01*
X34001916Y14902106D01*
X33942869Y14939460D01*
X33941709Y14940799D01*
X33936758Y14946596D01*
X33847318Y15051318D01*
X33664849Y15207160D01*
X33460249Y15332540D01*
X33460246Y15332541D01*
X33460245Y15332542D01*
X33238553Y15424369D01*
X33220588Y15428682D01*
X33005222Y15480387D01*
X32766000Y15499214D01*
X32526778Y15480387D01*
X32371224Y15443041D01*
X32293446Y15424369D01*
X32293445Y15424369D01*
X32071754Y15332542D01*
X32071751Y15332540D01*
X31867153Y15207162D01*
X31867148Y15207158D01*
X31801481Y15151073D01*
X31684682Y15051318D01*
X31599482Y14951561D01*
X31528841Y14868851D01*
X31528837Y14868846D01*
X31403459Y14664248D01*
X31403457Y14664245D01*
X31311630Y14442554D01*
X31311630Y14442553D01*
X31255612Y14209219D01*
X31236786Y13970000D01*
X31255612Y13730780D01*
X31311630Y13497446D01*
X31311630Y13497445D01*
X31403457Y13275754D01*
X31403459Y13275751D01*
X31528837Y13071153D01*
X31528841Y13071148D01*
X31684681Y12888682D01*
X31795201Y12794291D01*
X31833395Y12735784D01*
X31833894Y12665916D01*
X31796540Y12606869D01*
X31795232Y12605736D01*
X31684682Y12511318D01*
X31684681Y12511317D01*
X31528841Y12328851D01*
X31528837Y12328846D01*
X31403459Y12124248D01*
X31403457Y12124245D01*
X31311630Y11902554D01*
X31311630Y11902553D01*
X31255612Y11669219D01*
X31236786Y11430000D01*
X31255612Y11190780D01*
X31311630Y10957446D01*
X31311630Y10957445D01*
X31403457Y10735754D01*
X31403459Y10735751D01*
X31528837Y10531153D01*
X31528841Y10531148D01*
X31684681Y10348682D01*
X31795201Y10254291D01*
X31833395Y10195784D01*
X31833894Y10125916D01*
X31796540Y10066869D01*
X31795232Y10065736D01*
X31699931Y9984342D01*
X31684681Y9971317D01*
X31528841Y9788851D01*
X31528837Y9788846D01*
X31403459Y9584248D01*
X31403457Y9584245D01*
X31311630Y9362554D01*
X31311630Y9362553D01*
X31255612Y9129219D01*
X31236786Y8890000D01*
X31255612Y8650780D01*
X31311630Y8417446D01*
X31311630Y8417445D01*
X31403457Y8195754D01*
X31403459Y8195751D01*
X31528837Y7991153D01*
X31528841Y7991148D01*
X31684681Y7808682D01*
X31795201Y7714291D01*
X31833395Y7655784D01*
X31833894Y7585916D01*
X31796540Y7526869D01*
X31795201Y7525709D01*
X31684681Y7431317D01*
X31528841Y7248851D01*
X31528837Y7248846D01*
X31403459Y7044248D01*
X31403457Y7044245D01*
X31311630Y6822554D01*
X31311630Y6822553D01*
X31255612Y6589219D01*
X31236786Y6350000D01*
X31255612Y6110780D01*
X31311630Y5877446D01*
X31311630Y5877445D01*
X31403457Y5655754D01*
X31403459Y5655751D01*
X31528837Y5451153D01*
X31528841Y5451148D01*
X31684681Y5268682D01*
X31795201Y5174291D01*
X31833395Y5115784D01*
X31833894Y5045916D01*
X31796540Y4986869D01*
X31795201Y4985709D01*
X31684681Y4891317D01*
X31528841Y4708851D01*
X31528837Y4708846D01*
X31403459Y4504248D01*
X31403457Y4504245D01*
X31311630Y4282554D01*
X31311630Y4282553D01*
X31255612Y4049219D01*
X31236786Y3810000D01*
X31255612Y3570780D01*
X31311630Y3337446D01*
X31311630Y3337445D01*
X31403457Y3115754D01*
X31403459Y3115751D01*
X31528837Y2911153D01*
X31528841Y2911148D01*
X31684681Y2728682D01*
X31795201Y2634291D01*
X31833395Y2575784D01*
X31833894Y2505916D01*
X31796540Y2446869D01*
X31795232Y2445736D01*
X31689782Y2355674D01*
X31684681Y2351317D01*
X31528841Y2168851D01*
X31528837Y2168846D01*
X31403459Y1964248D01*
X31403457Y1964245D01*
X31311630Y1742554D01*
X31311630Y1742553D01*
X31255612Y1509219D01*
X31236786Y1270000D01*
X31255612Y1030780D01*
X31311631Y797442D01*
X31311674Y797312D01*
X31311675Y797259D01*
X31312768Y792709D01*
X31311811Y792479D01*
X31313666Y727471D01*
X31277582Y667640D01*
X31214880Y636815D01*
X31193741Y635000D01*
X25427771Y635000D01*
X25360732Y654685D01*
X25314977Y707489D01*
X25305033Y776647D01*
X25327917Y832520D01*
X25412007Y946726D01*
X25481724Y1110725D01*
X25501409Y1177764D01*
X25511812Y1217002D01*
X25532500Y1394000D01*
X25532500Y9463000D01*
X25520367Y9598927D01*
X25520368Y9598927D01*
X25512589Y9642150D01*
X25512588Y9642156D01*
X25461420Y9811451D01*
X25372049Y9965623D01*
X25330228Y10021594D01*
X25305085Y10053451D01*
X25175900Y10176200D01*
X23551764Y11394300D01*
X23509944Y11450271D01*
X23505023Y11519967D01*
X23538563Y11581260D01*
X23599916Y11614690D01*
X23626165Y11617500D01*
X24829736Y11617500D01*
X24978481Y11632149D01*
X24978483Y11632149D01*
X24978485Y11632150D01*
X25169342Y11690046D01*
X25169348Y11690048D01*
X25345231Y11784060D01*
X25345238Y11784065D01*
X25499410Y11910589D01*
X25625934Y12064761D01*
X25625936Y12064763D01*
X25657730Y12124245D01*
X25719951Y12240651D01*
X25719951Y12240654D01*
X25719954Y12240658D01*
X25777850Y12431515D01*
X25792500Y12580259D01*
X25792499Y13504740D01*
X25777850Y13653485D01*
X25719954Y13844342D01*
X25625936Y14020237D01*
X25499410Y14174410D01*
X25345237Y14300936D01*
X25238472Y14358003D01*
X25169348Y14394951D01*
X25169347Y14394951D01*
X25169342Y14394954D01*
X24978485Y14452850D01*
X24829741Y14467500D01*
X24000041Y14467499D01*
X23991469Y14468093D01*
X23890537Y14482173D01*
X23678842Y14472386D01*
X23672246Y14470834D01*
X23672069Y14470793D01*
X23643678Y14467499D01*
X23430260Y14467499D01*
X23281515Y14452850D01*
X23090658Y14394954D01*
X23036753Y14366141D01*
X22978301Y14351500D01*
X21373688Y14351500D01*
X21306649Y14371185D01*
X21260894Y14423989D01*
X21250950Y14493147D01*
X21263203Y14531794D01*
X21326583Y14656186D01*
X21326584Y14656188D01*
X21376230Y14841467D01*
X21382500Y14921137D01*
X21382499Y16698862D01*
X21376230Y16778533D01*
X21326584Y16963812D01*
X21239502Y17134720D01*
X21239499Y17134723D01*
X21239498Y17134726D01*
X21237139Y17137639D01*
X21236297Y17139655D01*
X21235958Y17140179D01*
X21236053Y17140241D01*
X21210243Y17202124D01*
X21209500Y17215680D01*
X21209500Y18332257D01*
X21229185Y18399296D01*
X21237647Y18410922D01*
X21285934Y18469761D01*
X21285936Y18469763D01*
X21285939Y18469768D01*
X21379951Y18645651D01*
X21379951Y18645654D01*
X21379954Y18645658D01*
X21437850Y18836515D01*
X21452500Y18985259D01*
X21452499Y20384740D01*
X21437850Y20533485D01*
X21379954Y20724342D01*
X21285936Y20900237D01*
X21159410Y21054410D01*
X21005237Y21180936D01*
X20829342Y21274954D01*
X20638485Y21332850D01*
X20489741Y21347500D01*
X19565260Y21347499D01*
X19416515Y21332850D01*
X19225658Y21274954D01*
X19225654Y21274951D01*
X19225651Y21274951D01*
X19049768Y21180939D01*
X19049766Y21180937D01*
X19049763Y21180936D01*
X19049761Y21180934D01*
X18895589Y21054410D01*
X18769065Y20900238D01*
X18769060Y20900231D01*
X18675046Y20724344D01*
X18650877Y20644671D01*
X18612579Y20586233D01*
X18548766Y20557777D01*
X18479700Y20568339D01*
X18444539Y20592984D01*
X15604953Y23432570D01*
X15592324Y23447357D01*
X15584251Y23458470D01*
X15533274Y23504368D01*
X15530953Y23506570D01*
X15515588Y23521937D01*
X15498700Y23535611D01*
X15496298Y23537662D01*
X15445297Y23583585D01*
X15433403Y23590450D01*
X15417369Y23601471D01*
X15406707Y23610107D01*
X15345571Y23641255D01*
X15342767Y23642779D01*
X15283367Y23677075D01*
X15270311Y23681316D01*
X15252336Y23688761D01*
X15240106Y23694994D01*
X15173841Y23712749D01*
X15170755Y23713664D01*
X15105538Y23734855D01*
X15091886Y23736289D01*
X15072764Y23739833D01*
X15059497Y23743389D01*
X14990974Y23746978D01*
X14987822Y23747226D01*
X14966202Y23749500D01*
X14966197Y23749500D01*
X14944504Y23749500D01*
X14941260Y23749584D01*
X14872772Y23753174D01*
X14859215Y23751026D01*
X14839818Y23749500D01*
X12782285Y23749500D01*
X12715246Y23769185D01*
X12687995Y23792968D01*
X12604456Y23890778D01*
X12538271Y23968271D01*
X12351255Y24127998D01*
X12141554Y24256503D01*
X12141551Y24256504D01*
X12141550Y24256505D01*
X12027943Y24303562D01*
X11914332Y24350621D01*
X11675185Y24408036D01*
X11430000Y24427332D01*
X11184815Y24408036D01*
X10945668Y24350621D01*
X10945663Y24350619D01*
X10718449Y24256505D01*
X10718446Y24256503D01*
X10508750Y24128001D01*
X10508747Y24128000D01*
X10508745Y24127998D01*
X10321729Y23968271D01*
X10255544Y23890778D01*
X10161999Y23781252D01*
X10161998Y23781249D01*
X10033496Y23571553D01*
X10033494Y23571550D01*
X9939380Y23344336D01*
X9939379Y23344332D01*
X9885333Y23119214D01*
X9881963Y23105179D01*
X9862668Y22860000D01*
X9881963Y22614820D01*
X9939380Y22375663D01*
X10033494Y22148449D01*
X10033496Y22148446D01*
X10161998Y21938750D01*
X10161999Y21938747D01*
X10321729Y21751729D01*
X10508747Y21591999D01*
X10508750Y21591998D01*
X10718446Y21463496D01*
X10718449Y21463494D01*
X10945663Y21369380D01*
X11036799Y21347500D01*
X11184815Y21311964D01*
X11184816Y21311963D01*
X11184820Y21311963D01*
X11430000Y21292668D01*
X11675179Y21311963D01*
X11675182Y21311963D01*
X11675185Y21311964D01*
X11914332Y21369379D01*
X11914336Y21369380D01*
X12141550Y21463494D01*
X12141553Y21463496D01*
X12351249Y21591998D01*
X12351252Y21591999D01*
X12414625Y21646125D01*
X12538271Y21751729D01*
X12618658Y21845850D01*
X12687995Y21927032D01*
X12746502Y21965225D01*
X12782285Y21970500D01*
X14499777Y21970500D01*
X14566816Y21950815D01*
X14587458Y21934181D01*
X18124181Y18397458D01*
X18157666Y18336135D01*
X18160500Y18309777D01*
X18160500Y17668528D01*
X18140815Y17601489D01*
X18088011Y17555734D01*
X18026771Y17544910D01*
X18010584Y17546184D01*
X17993865Y17547500D01*
X17993863Y17547499D01*
X17993863Y17547500D01*
X17780000Y17547499D01*
X17566137Y17547499D01*
X17546220Y17545931D01*
X17486467Y17541230D01*
X17301188Y17491584D01*
X17138806Y17408846D01*
X17130278Y17404501D01*
X16981211Y17283790D01*
X16981209Y17283788D01*
X16860498Y17134721D01*
X16816957Y17049266D01*
X16773416Y16963812D01*
X16773416Y16963811D01*
X16723769Y16778529D01*
X16717500Y16698865D01*
X16717501Y14921136D01*
X16717501Y14921137D01*
X16723769Y14841468D01*
X16759275Y14708960D01*
X16763500Y14676867D01*
X16763500Y14358003D01*
X16743815Y14290964D01*
X16697953Y14248645D01*
X16589397Y14190621D01*
X16577530Y14184278D01*
X16577527Y14184276D01*
X16559242Y14169269D01*
X16422747Y14057252D01*
X16392846Y14020816D01*
X16388766Y14016314D01*
X13923684Y11551232D01*
X13919183Y11547153D01*
X13882747Y11517252D01*
X13820996Y11442006D01*
X13755722Y11362469D01*
X13755720Y11362465D01*
X13755718Y11362463D01*
X13661333Y11185881D01*
X13603208Y10994270D01*
X13595708Y10918115D01*
X13583581Y10794999D01*
X13588201Y10748091D01*
X13588500Y10742010D01*
X13588500Y3647410D01*
X13568815Y3580371D01*
X13552181Y3559729D01*
X12315271Y2322819D01*
X12253948Y2289334D01*
X12227590Y2286500D01*
X5003843Y2286500D01*
X4936804Y2306185D01*
X4909552Y2329969D01*
X4891323Y2351312D01*
X4891318Y2351318D01*
X4708849Y2507160D01*
X4504249Y2632540D01*
X4504246Y2632541D01*
X4504245Y2632542D01*
X4282553Y2724369D01*
X4264588Y2728682D01*
X4049222Y2780387D01*
X3810000Y2799214D01*
X3570778Y2780387D01*
X3415224Y2743041D01*
X3337446Y2724369D01*
X3337445Y2724369D01*
X3115754Y2632542D01*
X3115751Y2632540D01*
X2911153Y2507162D01*
X2911148Y2507158D01*
X2845481Y2451073D01*
X2728682Y2351318D01*
X2643482Y2251561D01*
X2572841Y2168851D01*
X2572837Y2168846D01*
X2447459Y1964248D01*
X2447457Y1964245D01*
X2355630Y1742554D01*
X2355630Y1742553D01*
X2299612Y1509219D01*
X2280786Y1270000D01*
X2299612Y1030780D01*
X2355631Y797442D01*
X2355674Y797312D01*
X2355675Y797259D01*
X2356768Y792709D01*
X2355811Y792479D01*
X2357666Y727471D01*
X2321582Y667640D01*
X2258880Y636815D01*
X2237741Y635000D01*
X759000Y635000D01*
X691961Y654685D01*
X646206Y707489D01*
X635000Y759000D01*
X635000Y2237741D01*
X654685Y2304780D01*
X707489Y2350535D01*
X776647Y2360479D01*
X792703Y2356745D01*
X792709Y2356768D01*
X795847Y2356014D01*
X797312Y2355674D01*
X797442Y2355631D01*
X1030781Y2299612D01*
X1030780Y2299612D01*
X1270000Y2280786D01*
X1509219Y2299612D01*
X1742553Y2355630D01*
X1742554Y2355630D01*
X1964245Y2447457D01*
X1964248Y2447459D01*
X2168846Y2572837D01*
X2168851Y2572841D01*
X2251561Y2643482D01*
X2351318Y2728682D01*
X2478756Y2877894D01*
X2507158Y2911148D01*
X2507162Y2911153D01*
X2632540Y3115751D01*
X2632542Y3115754D01*
X2724369Y3337445D01*
X2724369Y3337446D01*
X2780387Y3570780D01*
X2786418Y3647410D01*
X2799214Y3810000D01*
X2780387Y4049222D01*
X2724369Y4282553D01*
X2632540Y4504249D01*
X2507160Y4708849D01*
X2351318Y4891318D01*
X2240798Y4985709D01*
X2202605Y5044216D01*
X2202106Y5114084D01*
X2239460Y5173131D01*
X2240799Y5174291D01*
X2351318Y5268682D01*
X2445709Y5379201D01*
X2504216Y5417395D01*
X2574084Y5417894D01*
X2633131Y5380540D01*
X2634291Y5379201D01*
X2728682Y5268681D01*
X2911148Y5112841D01*
X2911153Y5112837D01*
X3115751Y4987459D01*
X3115754Y4987457D01*
X3337446Y4895630D01*
X3570781Y4839612D01*
X3570780Y4839612D01*
X3810000Y4820786D01*
X4049219Y4839612D01*
X4282553Y4895630D01*
X4282554Y4895630D01*
X4504245Y4987457D01*
X4504248Y4987459D01*
X4708846Y5112837D01*
X4708851Y5112841D01*
X4791561Y5183482D01*
X4891318Y5268682D01*
X5018756Y5417894D01*
X5047158Y5451148D01*
X5047162Y5451153D01*
X5172540Y5655751D01*
X5172542Y5655754D01*
X5264369Y5877445D01*
X5264369Y5877446D01*
X5320387Y6110780D01*
X5339214Y6350000D01*
X5320387Y6589222D01*
X5264369Y6822553D01*
X5172540Y7044249D01*
X5047160Y7248849D01*
X4891318Y7431318D01*
X4780798Y7525709D01*
X4742605Y7584216D01*
X4742106Y7654084D01*
X4779460Y7713131D01*
X4780799Y7714291D01*
X4891318Y7808682D01*
X5047158Y7991148D01*
X5047162Y7991153D01*
X5172540Y8195751D01*
X5172542Y8195754D01*
X5264369Y8417445D01*
X5264369Y8417446D01*
X5283041Y8495224D01*
X5320387Y8650778D01*
X5339214Y8890000D01*
X5320387Y9129222D01*
X5264369Y9362553D01*
X5222764Y9462996D01*
X5172542Y9584245D01*
X5172540Y9584248D01*
X5172540Y9584249D01*
X5047160Y9788849D01*
X4891318Y9971318D01*
X4780798Y10065709D01*
X4742605Y10124216D01*
X4742106Y10194084D01*
X4779460Y10253131D01*
X4780799Y10254291D01*
X4891318Y10348682D01*
X5047158Y10531148D01*
X5047162Y10531153D01*
X5172540Y10735751D01*
X5172542Y10735754D01*
X5264369Y10957445D01*
X5264369Y10957446D01*
X5320387Y11190780D01*
X5339214Y11430000D01*
X5320387Y11669222D01*
X5264369Y11902553D01*
X5261040Y11910589D01*
X5172542Y12124245D01*
X5172540Y12124248D01*
X5172540Y12124249D01*
X5047160Y12328849D01*
X4891318Y12511318D01*
X4780798Y12605709D01*
X4742605Y12664216D01*
X4742106Y12734084D01*
X4779460Y12793131D01*
X4780799Y12794291D01*
X4891318Y12888682D01*
X5047158Y13071148D01*
X5047162Y13071153D01*
X5172540Y13275751D01*
X5172542Y13275754D01*
X5264369Y13497445D01*
X5264369Y13497446D01*
X5294093Y13621255D01*
X5320387Y13730778D01*
X5339214Y13970000D01*
X5320387Y14209222D01*
X5264369Y14442553D01*
X5252012Y14472385D01*
X5172542Y14664245D01*
X5172540Y14664248D01*
X5172540Y14664249D01*
X5047160Y14868849D01*
X4891318Y15051318D01*
X4780798Y15145709D01*
X4742605Y15204216D01*
X4742106Y15274084D01*
X4779460Y15333131D01*
X4780799Y15334291D01*
X4891318Y15428682D01*
X5019727Y15579031D01*
X5078234Y15617225D01*
X5114018Y15622500D01*
X6266008Y15622500D01*
X6333047Y15602815D01*
X6360298Y15579032D01*
X6511729Y15401729D01*
X6698747Y15241999D01*
X6698750Y15241998D01*
X6908446Y15113496D01*
X6908449Y15113494D01*
X7135663Y15019380D01*
X7255241Y14990671D01*
X7374815Y14961964D01*
X7374816Y14961963D01*
X7374820Y14961963D01*
X7620000Y14942668D01*
X7852450Y14960961D01*
X7920827Y14946596D01*
X7949859Y14925024D01*
X9845024Y13029859D01*
X9878509Y12968536D01*
X9880961Y12932450D01*
X9862668Y12700000D01*
X9881963Y12454820D01*
X9939380Y12215663D01*
X10033494Y11988449D01*
X10033496Y11988446D01*
X10161998Y11778750D01*
X10161999Y11778747D01*
X10321729Y11591729D01*
X10497032Y11442006D01*
X10535225Y11383499D01*
X10540500Y11347716D01*
X10540500Y10672372D01*
X10520815Y10605333D01*
X10468011Y10559578D01*
X10452503Y10553714D01*
X10390658Y10534954D01*
X10390654Y10534952D01*
X10214768Y10440939D01*
X10214766Y10440937D01*
X10214763Y10440936D01*
X10214761Y10440934D01*
X10060589Y10314410D01*
X9934065Y10160238D01*
X9934060Y10160231D01*
X9840048Y9984348D01*
X9840046Y9984342D01*
X9790984Y9822605D01*
X9782149Y9793481D01*
X9767500Y9644737D01*
X9767500Y8720263D01*
X9782149Y8571518D01*
X9840048Y8380651D01*
X9934060Y8204768D01*
X9934065Y8204761D01*
X10060589Y8050589D01*
X10214761Y7924065D01*
X10214768Y7924060D01*
X10390651Y7830048D01*
X10581518Y7772149D01*
X10686312Y7761828D01*
X10730259Y7757500D01*
X10730261Y7757500D01*
X10730262Y7757500D01*
X12129736Y7757500D01*
X12278481Y7772149D01*
X12278483Y7772149D01*
X12278485Y7772150D01*
X12469342Y7830046D01*
X12469348Y7830048D01*
X12645231Y7924060D01*
X12645238Y7924065D01*
X12799410Y8050589D01*
X12918540Y8195751D01*
X12925936Y8204763D01*
X12925939Y8204768D01*
X13019951Y8380651D01*
X13019951Y8380654D01*
X13019954Y8380658D01*
X13077850Y8571515D01*
X13092500Y8720259D01*
X13092499Y9644740D01*
X13077850Y9793485D01*
X13019954Y9984342D01*
X12925936Y10160237D01*
X12799410Y10314410D01*
X12645237Y10440936D01*
X12469342Y10534954D01*
X12407503Y10553712D01*
X12349067Y10592008D01*
X12320610Y10655820D01*
X12319500Y10672372D01*
X12319500Y11347716D01*
X12339185Y11414755D01*
X12362968Y11442006D01*
X12372645Y11450271D01*
X12538271Y11591729D01*
X12697998Y11778745D01*
X12698000Y11778747D01*
X12698001Y11778750D01*
X12826503Y11988446D01*
X12826505Y11988449D01*
X12920619Y12215663D01*
X12920621Y12215668D01*
X12978036Y12454815D01*
X12997332Y12700000D01*
X12978036Y12945185D01*
X12920621Y13184332D01*
X12826503Y13411554D01*
X12697998Y13621255D01*
X12538271Y13808271D01*
X12351255Y13967998D01*
X12141554Y14096503D01*
X12141551Y14096504D01*
X12141550Y14096505D01*
X12027943Y14143562D01*
X11914332Y14190621D01*
X11675185Y14248036D01*
X11430000Y14267332D01*
X11197547Y14249038D01*
X11129170Y14263402D01*
X11100141Y14284972D01*
X9204973Y16180140D01*
X9171490Y16241461D01*
X9169038Y16277548D01*
X9187332Y16510000D01*
X9168036Y16755185D01*
X9110621Y16994332D01*
X9050427Y17139655D01*
X9016505Y17221550D01*
X9016503Y17221553D01*
X9016503Y17221554D01*
X8887998Y17431255D01*
X8728271Y17618271D01*
X8541255Y17777998D01*
X8331554Y17906503D01*
X8331551Y17906504D01*
X8331550Y17906505D01*
X8181440Y17968682D01*
X8104332Y18000621D01*
X7865185Y18058036D01*
X7620000Y18077332D01*
X7374815Y18058036D01*
X7135668Y18000621D01*
X7135663Y18000619D01*
X6908449Y17906505D01*
X6908446Y17906503D01*
X6698750Y17778001D01*
X6698747Y17778000D01*
X6698745Y17777998D01*
X6511729Y17618271D01*
X6394317Y17480799D01*
X6360298Y17440968D01*
X6301791Y17402775D01*
X6266008Y17397500D01*
X5114018Y17397500D01*
X5046979Y17417185D01*
X5019727Y17440969D01*
X5018330Y17442605D01*
X4891318Y17591318D01*
X4780798Y17685709D01*
X4742605Y17744216D01*
X4742106Y17814084D01*
X4779460Y17873131D01*
X4780799Y17874291D01*
X4818518Y17906505D01*
X4891318Y17968682D01*
X4967633Y18058036D01*
X5047158Y18151148D01*
X5047162Y18151153D01*
X5172540Y18355751D01*
X5172542Y18355754D01*
X5264369Y18577445D01*
X5264369Y18577446D01*
X5320387Y18810780D01*
X5339214Y19050000D01*
X5320387Y19289222D01*
X5264369Y19522553D01*
X5172540Y19744249D01*
X5047160Y19948849D01*
X4891318Y20131318D01*
X4780798Y20225709D01*
X4742605Y20284216D01*
X4742106Y20354084D01*
X4779460Y20413131D01*
X4780799Y20414291D01*
X4799797Y20430516D01*
X4891318Y20508682D01*
X4933249Y20557777D01*
X5047158Y20691148D01*
X5047162Y20691153D01*
X5172540Y20895751D01*
X5172542Y20895754D01*
X5264369Y21117445D01*
X5264369Y21117446D01*
X5311068Y21311963D01*
X5320387Y21350778D01*
X5339214Y21590000D01*
X5320387Y21829222D01*
X5264369Y22062553D01*
X5228791Y22148446D01*
X5172542Y22284245D01*
X5172540Y22284248D01*
X5172540Y22284249D01*
X5047160Y22488849D01*
X4891318Y22671318D01*
X4708849Y22827160D01*
X4504249Y22952540D01*
X4504246Y22952541D01*
X4504245Y22952542D01*
X4282553Y23044369D01*
X4264588Y23048682D01*
X4049222Y23100387D01*
X3810000Y23119214D01*
X3570778Y23100387D01*
X3415224Y23063041D01*
X3337446Y23044369D01*
X3337445Y23044369D01*
X3115754Y22952542D01*
X3115751Y22952540D01*
X2911153Y22827162D01*
X2911148Y22827158D01*
X2842507Y22768533D01*
X2778745Y22739962D01*
X2709660Y22750399D01*
X2657184Y22796530D01*
X2637978Y22863708D01*
X2656435Y22927918D01*
X2727764Y23043560D01*
X2783831Y23212759D01*
X2794500Y23317189D01*
X2794499Y24641000D01*
X2814184Y24708039D01*
X2866987Y24753794D01*
X2918499Y24765000D01*
X33733741Y24765000D01*
X33800780Y24745315D01*
G37*
%TD.AperFunction*%
%TD*%
M02*
