%TF.GenerationSoftware,KiCad,Pcbnew,7.0.8*%
%TF.CreationDate,2023-11-12T18:28:25-08:00*%
%TF.ProjectId,Water Meter Analog - R1,57617465-7220-44d6-9574-657220416e61,rev?*%
%TF.SameCoordinates,Original*%
%TF.FileFunction,Legend,Bot*%
%TF.FilePolarity,Positive*%
%FSLAX46Y46*%
G04 Gerber Fmt 4.6, Leading zero omitted, Abs format (unit mm)*
G04 Created by KiCad (PCBNEW 7.0.8) date 2023-11-12 18:28:25*
%MOMM*%
%LPD*%
G01*
G04 APERTURE LIST*
%ADD10C,0.150000*%
%ADD11C,0.120000*%
G04 APERTURE END LIST*
D10*
X19576904Y87335180D02*
X19576904Y86525657D01*
X19576904Y86525657D02*
X19529285Y86430419D01*
X19529285Y86430419D02*
X19481666Y86382800D01*
X19481666Y86382800D02*
X19386428Y86335180D01*
X19386428Y86335180D02*
X19195952Y86335180D01*
X19195952Y86335180D02*
X19100714Y86382800D01*
X19100714Y86382800D02*
X19053095Y86430419D01*
X19053095Y86430419D02*
X19005476Y86525657D01*
X19005476Y86525657D02*
X19005476Y87335180D01*
X18100714Y87001847D02*
X18100714Y86335180D01*
X18338809Y87382800D02*
X18576904Y86668514D01*
X18576904Y86668514D02*
X17957857Y86668514D01*
X30709580Y78104166D02*
X30757200Y78151785D01*
X30757200Y78151785D02*
X30804819Y78294642D01*
X30804819Y78294642D02*
X30804819Y78389880D01*
X30804819Y78389880D02*
X30757200Y78532737D01*
X30757200Y78532737D02*
X30661961Y78627975D01*
X30661961Y78627975D02*
X30566723Y78675594D01*
X30566723Y78675594D02*
X30376247Y78723213D01*
X30376247Y78723213D02*
X30233390Y78723213D01*
X30233390Y78723213D02*
X30042914Y78675594D01*
X30042914Y78675594D02*
X29947676Y78627975D01*
X29947676Y78627975D02*
X29852438Y78532737D01*
X29852438Y78532737D02*
X29804819Y78389880D01*
X29804819Y78389880D02*
X29804819Y78294642D01*
X29804819Y78294642D02*
X29852438Y78151785D01*
X29852438Y78151785D02*
X29900057Y78104166D01*
X29804819Y77770832D02*
X29804819Y77151785D01*
X29804819Y77151785D02*
X30185771Y77485118D01*
X30185771Y77485118D02*
X30185771Y77342261D01*
X30185771Y77342261D02*
X30233390Y77247023D01*
X30233390Y77247023D02*
X30281009Y77199404D01*
X30281009Y77199404D02*
X30376247Y77151785D01*
X30376247Y77151785D02*
X30614342Y77151785D01*
X30614342Y77151785D02*
X30709580Y77199404D01*
X30709580Y77199404D02*
X30757200Y77247023D01*
X30757200Y77247023D02*
X30804819Y77342261D01*
X30804819Y77342261D02*
X30804819Y77627975D01*
X30804819Y77627975D02*
X30757200Y77723213D01*
X30757200Y77723213D02*
X30709580Y77770832D01*
X39269819Y65261904D02*
X40079342Y65261904D01*
X40079342Y65261904D02*
X40174580Y65214285D01*
X40174580Y65214285D02*
X40222200Y65166666D01*
X40222200Y65166666D02*
X40269819Y65071428D01*
X40269819Y65071428D02*
X40269819Y64880952D01*
X40269819Y64880952D02*
X40222200Y64785714D01*
X40222200Y64785714D02*
X40174580Y64738095D01*
X40174580Y64738095D02*
X40079342Y64690476D01*
X40079342Y64690476D02*
X39269819Y64690476D01*
X39365057Y64261904D02*
X39317438Y64214285D01*
X39317438Y64214285D02*
X39269819Y64119047D01*
X39269819Y64119047D02*
X39269819Y63880952D01*
X39269819Y63880952D02*
X39317438Y63785714D01*
X39317438Y63785714D02*
X39365057Y63738095D01*
X39365057Y63738095D02*
X39460295Y63690476D01*
X39460295Y63690476D02*
X39555533Y63690476D01*
X39555533Y63690476D02*
X39698390Y63738095D01*
X39698390Y63738095D02*
X40269819Y64309523D01*
X40269819Y64309523D02*
X40269819Y63690476D01*
X37509580Y64229166D02*
X37557200Y64276785D01*
X37557200Y64276785D02*
X37604819Y64419642D01*
X37604819Y64419642D02*
X37604819Y64514880D01*
X37604819Y64514880D02*
X37557200Y64657737D01*
X37557200Y64657737D02*
X37461961Y64752975D01*
X37461961Y64752975D02*
X37366723Y64800594D01*
X37366723Y64800594D02*
X37176247Y64848213D01*
X37176247Y64848213D02*
X37033390Y64848213D01*
X37033390Y64848213D02*
X36842914Y64800594D01*
X36842914Y64800594D02*
X36747676Y64752975D01*
X36747676Y64752975D02*
X36652438Y64657737D01*
X36652438Y64657737D02*
X36604819Y64514880D01*
X36604819Y64514880D02*
X36604819Y64419642D01*
X36604819Y64419642D02*
X36652438Y64276785D01*
X36652438Y64276785D02*
X36700057Y64229166D01*
X36604819Y63372023D02*
X36604819Y63562499D01*
X36604819Y63562499D02*
X36652438Y63657737D01*
X36652438Y63657737D02*
X36700057Y63705356D01*
X36700057Y63705356D02*
X36842914Y63800594D01*
X36842914Y63800594D02*
X37033390Y63848213D01*
X37033390Y63848213D02*
X37414342Y63848213D01*
X37414342Y63848213D02*
X37509580Y63800594D01*
X37509580Y63800594D02*
X37557200Y63752975D01*
X37557200Y63752975D02*
X37604819Y63657737D01*
X37604819Y63657737D02*
X37604819Y63467261D01*
X37604819Y63467261D02*
X37557200Y63372023D01*
X37557200Y63372023D02*
X37509580Y63324404D01*
X37509580Y63324404D02*
X37414342Y63276785D01*
X37414342Y63276785D02*
X37176247Y63276785D01*
X37176247Y63276785D02*
X37081009Y63324404D01*
X37081009Y63324404D02*
X37033390Y63372023D01*
X37033390Y63372023D02*
X36985771Y63467261D01*
X36985771Y63467261D02*
X36985771Y63657737D01*
X36985771Y63657737D02*
X37033390Y63752975D01*
X37033390Y63752975D02*
X37081009Y63800594D01*
X37081009Y63800594D02*
X37176247Y63848213D01*
X59209580Y65666666D02*
X59257200Y65714285D01*
X59257200Y65714285D02*
X59304819Y65857142D01*
X59304819Y65857142D02*
X59304819Y65952380D01*
X59304819Y65952380D02*
X59257200Y66095237D01*
X59257200Y66095237D02*
X59161961Y66190475D01*
X59161961Y66190475D02*
X59066723Y66238094D01*
X59066723Y66238094D02*
X58876247Y66285713D01*
X58876247Y66285713D02*
X58733390Y66285713D01*
X58733390Y66285713D02*
X58542914Y66238094D01*
X58542914Y66238094D02*
X58447676Y66190475D01*
X58447676Y66190475D02*
X58352438Y66095237D01*
X58352438Y66095237D02*
X58304819Y65952380D01*
X58304819Y65952380D02*
X58304819Y65857142D01*
X58304819Y65857142D02*
X58352438Y65714285D01*
X58352438Y65714285D02*
X58400057Y65666666D01*
X58304819Y65333332D02*
X58304819Y64666666D01*
X58304819Y64666666D02*
X59304819Y65095237D01*
D11*
%TO.C,U4*%
X20265000Y85300000D02*
X20265000Y84300000D01*
X19485000Y85300000D02*
X20265000Y85300000D01*
X940000Y85300000D02*
X940000Y85680000D01*
X-5475000Y85300000D02*
X940000Y85300000D01*
X-5475000Y85300000D02*
X-5475000Y67060000D01*
X20265000Y67060000D02*
X20265000Y68060000D01*
X19485000Y67060000D02*
X20265000Y67060000D01*
X-5475000Y67060000D02*
X940000Y67060000D01*
%TO.C,C3*%
X27590000Y77226248D02*
X27590000Y78648752D01*
X29410000Y77226248D02*
X29410000Y78648752D01*
%TO.C,U2*%
X47075000Y67260000D02*
X46330000Y67260000D01*
X41400000Y67260000D02*
X41400000Y68950000D01*
X40655000Y67260000D02*
X41400000Y67260000D01*
X47075000Y64500000D02*
X47075000Y67260000D01*
X47075000Y64500000D02*
X47075000Y61740000D01*
X40655000Y64500000D02*
X40655000Y67260000D01*
X40655000Y64500000D02*
X40655000Y61740000D01*
X47075000Y61740000D02*
X46330000Y61740000D01*
X40655000Y61740000D02*
X41400000Y61740000D01*
%TO.C,C6*%
X39910000Y64773752D02*
X39910000Y63351248D01*
X38090000Y64773752D02*
X38090000Y63351248D01*
%TO.C,C7*%
X56090000Y64788748D02*
X56090000Y66211252D01*
X57910000Y64788748D02*
X57910000Y66211252D01*
%TD*%
M02*
