%TF.GenerationSoftware,KiCad,Pcbnew,7.0.8*%
%TF.CreationDate,2023-11-05T22:27:44-08:00*%
%TF.ProjectId,Water Meter Analog - R1,57617465-7220-44d6-9574-657220416e61,rev?*%
%TF.SameCoordinates,Original*%
%TF.FileFunction,Copper,L2,Bot*%
%TF.FilePolarity,Positive*%
%FSLAX46Y46*%
G04 Gerber Fmt 4.6, Leading zero omitted, Abs format (unit mm)*
G04 Created by KiCad (PCBNEW 7.0.8) date 2023-11-05 22:27:44*
%MOMM*%
%LPD*%
G01*
G04 APERTURE LIST*
G04 Aperture macros list*
%AMRoundRect*
0 Rectangle with rounded corners*
0 $1 Rounding radius*
0 $2 $3 $4 $5 $6 $7 $8 $9 X,Y pos of 4 corners*
0 Add a 4 corners polygon primitive as box body*
4,1,4,$2,$3,$4,$5,$6,$7,$8,$9,$2,$3,0*
0 Add four circle primitives for the rounded corners*
1,1,$1+$1,$2,$3*
1,1,$1+$1,$4,$5*
1,1,$1+$1,$6,$7*
1,1,$1+$1,$8,$9*
0 Add four rect primitives between the rounded corners*
20,1,$1+$1,$2,$3,$4,$5,0*
20,1,$1+$1,$4,$5,$6,$7,0*
20,1,$1+$1,$6,$7,$8,$9,0*
20,1,$1+$1,$8,$9,$2,$3,0*%
G04 Aperture macros list end*
%TA.AperFunction,SMDPad,CuDef*%
%ADD10RoundRect,0.250000X0.650000X-0.412500X0.650000X0.412500X-0.650000X0.412500X-0.650000X-0.412500X0*%
%TD*%
%TA.AperFunction,SMDPad,CuDef*%
%ADD11RoundRect,0.250000X-0.650000X0.412500X-0.650000X-0.412500X0.650000X-0.412500X0.650000X0.412500X0*%
%TD*%
%TA.AperFunction,SMDPad,CuDef*%
%ADD12R,0.900000X1.500000*%
%TD*%
%TA.AperFunction,SMDPad,CuDef*%
%ADD13R,1.500000X0.900000*%
%TD*%
%TA.AperFunction,SMDPad,CuDef*%
%ADD14R,1.050000X1.050000*%
%TD*%
%TA.AperFunction,SMDPad,CuDef*%
%ADD15R,4.200000X4.200000*%
%TD*%
%TA.AperFunction,ComponentPad*%
%ADD16C,1.600000*%
%TD*%
%TA.AperFunction,ComponentPad*%
%ADD17O,1.600000X1.600000*%
%TD*%
%TA.AperFunction,SMDPad,CuDef*%
%ADD18RoundRect,0.150000X-0.150000X0.800000X-0.150000X-0.800000X0.150000X-0.800000X0.150000X0.800000X0*%
%TD*%
%TA.AperFunction,ComponentPad*%
%ADD19C,1.440000*%
%TD*%
%TA.AperFunction,ComponentPad*%
%ADD20R,1.800000X1.800000*%
%TD*%
%TA.AperFunction,ComponentPad*%
%ADD21C,1.800000*%
%TD*%
%TA.AperFunction,ComponentPad*%
%ADD22R,1.600000X1.600000*%
%TD*%
%TA.AperFunction,ComponentPad*%
%ADD23RoundRect,0.250000X0.600000X0.725000X-0.600000X0.725000X-0.600000X-0.725000X0.600000X-0.725000X0*%
%TD*%
%TA.AperFunction,ComponentPad*%
%ADD24O,1.700000X1.950000*%
%TD*%
%TA.AperFunction,ComponentPad*%
%ADD25RoundRect,0.250000X0.725000X-0.600000X0.725000X0.600000X-0.725000X0.600000X-0.725000X-0.600000X0*%
%TD*%
%TA.AperFunction,ComponentPad*%
%ADD26O,1.950000X1.700000*%
%TD*%
%TA.AperFunction,ComponentPad*%
%ADD27O,1.905000X2.000000*%
%TD*%
%TA.AperFunction,ComponentPad*%
%ADD28R,1.905000X2.000000*%
%TD*%
%TA.AperFunction,ComponentPad*%
%ADD29C,0.800000*%
%TD*%
%TA.AperFunction,ComponentPad*%
%ADD30C,6.400000*%
%TD*%
%TA.AperFunction,ComponentPad*%
%ADD31C,3.000000*%
%TD*%
%TA.AperFunction,ComponentPad*%
%ADD32R,2.000000X1.905000*%
%TD*%
%TA.AperFunction,ComponentPad*%
%ADD33O,2.000000X1.905000*%
%TD*%
%TA.AperFunction,ViaPad*%
%ADD34C,2.000000*%
%TD*%
%TA.AperFunction,ViaPad*%
%ADD35C,1.500000*%
%TD*%
%TA.AperFunction,Conductor*%
%ADD36C,0.381000*%
%TD*%
%TA.AperFunction,Conductor*%
%ADD37C,0.250000*%
%TD*%
%TA.AperFunction,Conductor*%
%ADD38C,0.635000*%
%TD*%
%TA.AperFunction,Conductor*%
%ADD39C,1.016000*%
%TD*%
G04 APERTURE END LIST*
D10*
%TO.P,C7,1*%
%TO.N,GND*%
X57000000Y63937500D03*
%TO.P,C7,2*%
%TO.N,Net-(C7-Pad2)*%
X57000000Y67062500D03*
%TD*%
D11*
%TO.P,C6,1*%
%TO.N,GND*%
X39000000Y65625000D03*
%TO.P,C6,2*%
%TO.N,+5V*%
X39000000Y62500000D03*
%TD*%
D10*
%TO.P,C3,1*%
%TO.N,GND*%
X28500000Y76375000D03*
%TO.P,C3,2*%
%TO.N,Net-(U4-SENSOR_VP)*%
X28500000Y79500000D03*
%TD*%
D12*
%TO.P,U4,1,GND*%
%TO.N,GND*%
X2135000Y84930000D03*
%TO.P,U4,2,VDD*%
%TO.N,+3V3*%
X3405000Y84930000D03*
%TO.P,U4,3,EN*%
%TO.N,Net-(U4-EN)*%
X4675000Y84930000D03*
%TO.P,U4,4,SENSOR_VP*%
%TO.N,Net-(U4-SENSOR_VP)*%
X5945000Y84930000D03*
%TO.P,U4,5,SENSOR_VN*%
%TO.N,unconnected-(U4-SENSOR_VN-Pad5)*%
X7215000Y84930000D03*
%TO.P,U4,6,IO34*%
%TO.N,unconnected-(U4-IO34-Pad6)*%
X8485000Y84930000D03*
%TO.P,U4,7,IO35*%
%TO.N,unconnected-(U4-IO35-Pad7)*%
X9755000Y84930000D03*
%TO.P,U4,8,IO32*%
%TO.N,Net-(D2-A)*%
X11025000Y84930000D03*
%TO.P,U4,9,IO33*%
%TO.N,unconnected-(U4-IO33-Pad9)*%
X12295000Y84930000D03*
%TO.P,U4,10,IO25*%
%TO.N,Net-(J4-Pin_1)*%
X13565000Y84930000D03*
%TO.P,U4,11,IO26*%
%TO.N,unconnected-(U4-IO26-Pad11)*%
X14835000Y84930000D03*
%TO.P,U4,12,IO27*%
%TO.N,unconnected-(U4-IO27-Pad12)*%
X16105000Y84930000D03*
%TO.P,U4,13,IO14*%
%TO.N,unconnected-(U4-IO14-Pad13)*%
X17375000Y84930000D03*
%TO.P,U4,14,IO12*%
%TO.N,unconnected-(U4-IO12-Pad14)*%
X18645000Y84930000D03*
D13*
%TO.P,U4,15,GND*%
%TO.N,GND*%
X19895000Y81890000D03*
%TO.P,U4,16,IO13*%
%TO.N,unconnected-(U4-IO13-Pad16)*%
X19895000Y80620000D03*
%TO.P,U4,17,SHD/SD2*%
%TO.N,unconnected-(U4-SHD{slash}SD2-Pad17)*%
X19895000Y79350000D03*
%TO.P,U4,18,SWP/SD3*%
%TO.N,unconnected-(U4-SWP{slash}SD3-Pad18)*%
X19895000Y78080000D03*
%TO.P,U4,19,SCS/CMD*%
%TO.N,unconnected-(U4-SCS{slash}CMD-Pad19)*%
X19895000Y76810000D03*
%TO.P,U4,20,SCK/CLK*%
%TO.N,unconnected-(U4-SCK{slash}CLK-Pad20)*%
X19895000Y75540000D03*
%TO.P,U4,21,SDO/SD0*%
%TO.N,unconnected-(U4-SDO{slash}SD0-Pad21)*%
X19895000Y74270000D03*
%TO.P,U4,22,SDI/SD1*%
%TO.N,unconnected-(U4-SDI{slash}SD1-Pad22)*%
X19895000Y73000000D03*
%TO.P,U4,23,IO15*%
%TO.N,Net-(U4-IO15)*%
X19895000Y71730000D03*
%TO.P,U4,24,IO2*%
%TO.N,unconnected-(U4-IO2-Pad24)*%
X19895000Y70460000D03*
D12*
%TO.P,U4,25,IO0*%
%TO.N,unconnected-(U4-IO0-Pad25)*%
X18645000Y67430000D03*
%TO.P,U4,26,IO4*%
%TO.N,unconnected-(U4-IO4-Pad26)*%
X17375000Y67430000D03*
%TO.P,U4,27,IO16*%
%TO.N,Net-(J1-Pin_5)*%
X16105000Y67430000D03*
%TO.P,U4,28,IO17*%
%TO.N,Net-(J1-Pin_4)*%
X14835000Y67430000D03*
%TO.P,U4,29,IO5*%
%TO.N,unconnected-(U4-IO5-Pad29)*%
X13565000Y67430000D03*
%TO.P,U4,30,IO18*%
%TO.N,Net-(J1-Pin_3)*%
X12295000Y67430000D03*
%TO.P,U4,31,IO19*%
%TO.N,Net-(J1-Pin_2)*%
X11025000Y67430000D03*
%TO.P,U4,32,NC*%
%TO.N,unconnected-(U4-NC-Pad32)*%
X9755000Y67430000D03*
%TO.P,U4,33,IO21*%
%TO.N,unconnected-(U4-IO21-Pad33)*%
X8485000Y67430000D03*
%TO.P,U4,34,RXD0/IO3*%
%TO.N,unconnected-(U4-RXD0{slash}IO3-Pad34)*%
X7215000Y67430000D03*
%TO.P,U4,35,TXD0/IO1*%
%TO.N,unconnected-(U4-TXD0{slash}IO1-Pad35)*%
X5945000Y67430000D03*
%TO.P,U4,36,IO22*%
%TO.N,unconnected-(U4-IO22-Pad36)*%
X4675000Y67430000D03*
%TO.P,U4,37,IO23*%
%TO.N,unconnected-(U4-IO23-Pad37)*%
X3405000Y67430000D03*
%TO.P,U4,38,GND*%
%TO.N,GND*%
X2135000Y67430000D03*
D14*
%TO.P,U4,39,GND*%
X11000000Y78385000D03*
X9475000Y78385000D03*
X7950000Y78385000D03*
X11000000Y76860000D03*
X9475000Y76860000D03*
D15*
X9475000Y76860000D03*
D14*
X7950000Y76860000D03*
X11000000Y75335000D03*
X9475000Y75335000D03*
X7950000Y75335000D03*
%TD*%
D16*
%TO.P,R9,1*%
%TO.N,+3V3*%
X39370000Y80500000D03*
D17*
%TO.P,R9,2*%
%TO.N,Net-(U4-IO15)*%
X36830000Y80500000D03*
%TD*%
D18*
%TO.P,U2,8,V+*%
%TO.N,+5V*%
X41960000Y61000000D03*
%TO.P,U2,7*%
%TO.N,unconnected-(U2-Pad7)*%
X43230000Y61000000D03*
%TO.P,U2,6,-*%
%TO.N,GND*%
X44500000Y61000000D03*
%TO.P,U2,5,+*%
X45770000Y61000000D03*
%TO.P,U2,4,V-*%
X45770000Y68000000D03*
%TO.P,U2,3,+*%
%TO.N,Net-(U2A-+)*%
X44500000Y68000000D03*
%TO.P,U2,2,-*%
%TO.N,Net-(J2-Pin_2)*%
X43230000Y68000000D03*
%TO.P,U2,1*%
%TO.N,Net-(U4-IO15)*%
X41960000Y68000000D03*
%TD*%
D19*
%TO.P,RV2,1,1*%
%TO.N,GND*%
X54000000Y64460000D03*
%TO.P,RV2,2,2*%
%TO.N,Net-(C7-Pad2)*%
X54000000Y67000000D03*
X51460000Y67000000D03*
%TO.P,RV2,3,3*%
%TO.N,+5V*%
X54000000Y69540000D03*
%TD*%
D16*
%TO.P,R8,1*%
%TO.N,Net-(U2A-+)*%
X47920000Y74000000D03*
D17*
%TO.P,R8,2*%
%TO.N,Net-(C7-Pad2)*%
X58080000Y74000000D03*
%TD*%
D16*
%TO.P,R7,1*%
%TO.N,Net-(U4-IO15)*%
X34420000Y74000000D03*
D17*
%TO.P,R7,2*%
%TO.N,Net-(U2A-+)*%
X44580000Y74000000D03*
%TD*%
D16*
%TO.P,R6,1*%
%TO.N,Net-(D3-K)*%
X44580000Y77000000D03*
D17*
%TO.P,R6,2*%
%TO.N,Net-(U4-IO15)*%
X34420000Y77000000D03*
%TD*%
D20*
%TO.P,D3,1,K*%
%TO.N,Net-(D3-K)*%
X49000000Y77460000D03*
D21*
%TO.P,D3,2,A*%
%TO.N,+5V*%
X49000000Y80000000D03*
%TD*%
D22*
%TO.P,C5,1*%
%TO.N,+5V*%
X6000000Y48500000D03*
D16*
%TO.P,C5,2*%
%TO.N,GND*%
X3500000Y48500000D03*
%TD*%
D22*
%TO.P,C2,1*%
%TO.N,+5V*%
X14500000Y45500000D03*
D16*
%TO.P,C2,2*%
%TO.N,GND*%
X14500000Y43000000D03*
%TD*%
%TO.P,R5,1*%
%TO.N,+3V3*%
X36830000Y89000000D03*
D17*
%TO.P,R5,2*%
%TO.N,Net-(J4-Pin_1)*%
X26670000Y89000000D03*
%TD*%
D16*
%TO.P,R4,1*%
%TO.N,Net-(R4-Pad1)*%
X34420000Y84500000D03*
D17*
%TO.P,R4,2*%
%TO.N,Net-(J2-Pin_2)*%
X44580000Y84500000D03*
%TD*%
D16*
%TO.P,R2,1*%
%TO.N,Net-(D2-K)*%
X24000000Y89830000D03*
D17*
%TO.P,R2,2*%
%TO.N,GND*%
X24000000Y79670000D03*
%TD*%
D16*
%TO.P,R1,1*%
%TO.N,Net-(D1-K)*%
X24920000Y93000000D03*
D17*
%TO.P,R1,2*%
%TO.N,GND*%
X35080000Y93000000D03*
%TD*%
%TO.P,R3,2*%
%TO.N,+3V3*%
X8000000Y90290000D03*
D16*
%TO.P,R3,1*%
%TO.N,Net-(U4-EN)*%
X8000000Y87750000D03*
%TD*%
D23*
%TO.P,J4,1,Pin_1*%
%TO.N,Net-(J4-Pin_1)*%
X47000000Y92000000D03*
D24*
%TO.P,J4,2,Pin_2*%
%TO.N,+3V3*%
X44500000Y92000000D03*
%TO.P,J4,3,Pin_3*%
%TO.N,GND*%
X42000000Y92000000D03*
%TD*%
D25*
%TO.P,J1,1,Pin_1*%
%TO.N,+3V3*%
X55000000Y45250000D03*
D26*
%TO.P,J1,2,Pin_2*%
%TO.N,Net-(J1-Pin_2)*%
X55000000Y47750000D03*
%TO.P,J1,3,Pin_3*%
%TO.N,Net-(J1-Pin_3)*%
X55000000Y50250000D03*
%TO.P,J1,4,Pin_4*%
%TO.N,Net-(J1-Pin_4)*%
X55000000Y52750000D03*
%TO.P,J1,5,Pin_5*%
%TO.N,Net-(J1-Pin_5)*%
X55000000Y55250000D03*
%TO.P,J1,6,Pin_6*%
%TO.N,GND*%
X55000000Y57750000D03*
%TD*%
D27*
%TO.P,U1,3,VO*%
%TO.N,+5V*%
X14460000Y53195000D03*
%TO.P,U1,2,GND*%
%TO.N,GND*%
X17000000Y53195000D03*
D28*
%TO.P,U1,1,VI*%
%TO.N,Net-(J3-Pin_1)*%
X19540000Y53195000D03*
%TD*%
D19*
%TO.P,RV1,1,1*%
%TO.N,GND*%
X31125000Y79450000D03*
%TO.P,RV1,2,2*%
%TO.N,Net-(U4-SENSOR_VP)*%
X31125000Y81990000D03*
X28585000Y81990000D03*
%TO.P,RV1,3,3*%
%TO.N,Net-(R4-Pad1)*%
X31125000Y84530000D03*
%TD*%
D25*
%TO.P,J2,1,Pin_1*%
%TO.N,+5V*%
X55000000Y80500000D03*
D26*
%TO.P,J2,2,Pin_2*%
%TO.N,Net-(J2-Pin_2)*%
X55000000Y83000000D03*
%TO.P,J2,3,Pin_3*%
%TO.N,GND*%
X55000000Y85500000D03*
%TD*%
D22*
%TO.P,C4,1*%
%TO.N,Net-(J3-Pin_1)*%
X28600000Y53170937D03*
X30200000Y53841874D03*
D16*
%TO.P,C4,2*%
%TO.N,GND*%
X28600000Y50670937D03*
X27000000Y50000000D03*
%TD*%
D29*
%TO.P,H4,1*%
%TO.N,N/C*%
X53600000Y93000000D03*
X54302944Y94697056D03*
X54302944Y91302944D03*
X56000000Y95400000D03*
D30*
X56000000Y93000000D03*
D29*
X56000000Y90600000D03*
X57697056Y94697056D03*
X57697056Y91302944D03*
X58400000Y93000000D03*
%TD*%
%TO.P,H3,1*%
%TO.N,N/C*%
X53600000Y38000000D03*
X54302944Y39697056D03*
X54302944Y36302944D03*
X56000000Y40400000D03*
D30*
X56000000Y38000000D03*
D29*
X56000000Y35600000D03*
X57697056Y39697056D03*
X57697056Y36302944D03*
X58400000Y38000000D03*
%TD*%
%TO.P,H2,1*%
%TO.N,N/C*%
X1600000Y93000000D03*
X2302944Y94697056D03*
X2302944Y91302944D03*
X4000000Y95400000D03*
D30*
X4000000Y93000000D03*
D29*
X4000000Y90600000D03*
X5697056Y94697056D03*
X5697056Y91302944D03*
X6400000Y93000000D03*
%TD*%
%TO.P,H1,1*%
%TO.N,N/C*%
X6400000Y38000000D03*
X5697056Y36302944D03*
X5697056Y39697056D03*
X4000000Y35600000D03*
D30*
X4000000Y38000000D03*
D29*
X4000000Y40400000D03*
X2302944Y36302944D03*
X2302944Y39697056D03*
X1600000Y38000000D03*
%TD*%
D22*
%TO.P,C1,1*%
%TO.N,+3V3*%
X11500000Y60750000D03*
D16*
%TO.P,C1,2*%
%TO.N,GND*%
X11500000Y58250000D03*
%TD*%
D20*
%TO.P,D2,1,K*%
%TO.N,Net-(D2-K)*%
X20540000Y92500000D03*
D21*
%TO.P,D2,2,A*%
%TO.N,Net-(D2-A)*%
X18000000Y92500000D03*
%TD*%
D20*
%TO.P,D1,1,K*%
%TO.N,Net-(D1-K)*%
X13540000Y92500000D03*
D21*
%TO.P,D1,2,A*%
%TO.N,+3V3*%
X11000000Y92500000D03*
%TD*%
D31*
%TO.P,J3,1,Pin_1*%
%TO.N,Net-(J3-Pin_1)*%
X29810000Y42500000D03*
X29810000Y37500000D03*
%TO.P,J3,2,Pin_2*%
%TO.N,GND*%
X22190000Y42500000D03*
X22190000Y37500000D03*
%TD*%
D32*
%TO.P,U5,1,VI*%
%TO.N,+5V*%
X5080000Y55880000D03*
D33*
%TO.P,U5,2,GND*%
%TO.N,GND*%
X5080000Y58420000D03*
%TO.P,U5,3,VO*%
%TO.N,+3V3*%
X5080000Y60960000D03*
%TD*%
D34*
%TO.N,GND*%
X23500000Y74000000D03*
X23500000Y69500000D03*
D35*
%TO.N,+3V3*%
X39370000Y88870000D03*
X39370000Y82870000D03*
D34*
%TO.N,+5V*%
X35500000Y64500000D03*
%TO.N,GND*%
X11750000Y48750000D03*
X17500000Y48750000D03*
X10000000Y50500000D03*
X8750000Y45000000D03*
X35500000Y50500000D03*
X41250000Y56250000D03*
%TO.N,+5V*%
X25250000Y57500000D03*
%TO.N,+3V3*%
X3405000Y87405000D03*
%TO.N,GND*%
X24000000Y47250000D03*
X34625000Y47250000D03*
X23500000Y60250000D03*
X23500000Y67750000D03*
%TO.N,+3V3*%
X5000000Y64750000D03*
%TD*%
D36*
%TO.N,GND*%
X31125000Y76875000D02*
X31500000Y76500000D01*
X31125000Y79450000D02*
X31125000Y76875000D01*
X53460000Y65000000D02*
X52000000Y65000000D01*
X54000000Y64460000D02*
X53460000Y65000000D01*
X59000000Y62500000D02*
X58500000Y62000000D01*
X59000000Y63500000D02*
X59000000Y62500000D01*
X58562500Y63937500D02*
X59000000Y63500000D01*
X57000000Y63937500D02*
X58562500Y63937500D01*
X27670937Y50670937D02*
X27000000Y50000000D01*
X28600000Y50670937D02*
X27670937Y50670937D01*
D37*
%TO.N,Net-(U4-SENSOR_VP)*%
X28585000Y79585000D02*
X28500000Y79500000D01*
X28585000Y81990000D02*
X28585000Y79585000D01*
D36*
%TO.N,Net-(J2-Pin_2)*%
X52000000Y83000000D02*
X46080000Y83000000D01*
X52000000Y83000000D02*
X55000000Y83000000D01*
X46080000Y83000000D02*
X44580000Y84500000D01*
X50500000Y83000000D02*
X52000000Y83000000D01*
%TO.N,GND*%
X55000000Y63460000D02*
X55000000Y62000000D01*
X54000000Y64460000D02*
X55000000Y63460000D01*
X37375000Y65625000D02*
X36000000Y67000000D01*
X39000000Y65625000D02*
X37375000Y65625000D01*
%TO.N,Net-(J2-Pin_2)*%
X42500000Y78500000D02*
X44580000Y80580000D01*
X44580000Y80580000D02*
X44580000Y84500000D01*
X42500000Y78500000D02*
X43000000Y79000000D01*
X42000000Y78000000D02*
X42500000Y78500000D01*
D37*
%TO.N,Net-(J4-Pin_1)*%
X14815000Y87750000D02*
X13565000Y86500000D01*
X26920000Y89000000D02*
X25670000Y87750000D01*
X13565000Y86500000D02*
X13565000Y84930000D01*
X31000000Y89000000D02*
X26920000Y89000000D01*
X25670000Y87750000D02*
X14815000Y87750000D01*
X33000000Y87000000D02*
X31000000Y89000000D01*
X34000000Y87000000D02*
X33000000Y87000000D01*
D36*
%TO.N,+5V*%
X41125000Y63500000D02*
X40375000Y62750000D01*
X48500000Y63500000D02*
X41125000Y63500000D01*
X49500000Y64500000D02*
X48500000Y63500000D01*
X49500000Y68500000D02*
X49500000Y64500000D01*
X50540000Y69540000D02*
X49500000Y68500000D01*
X54000000Y69540000D02*
X50540000Y69540000D01*
X40375000Y62750000D02*
X38500000Y62750000D01*
%TO.N,+3V3*%
X39370000Y80500000D02*
X39370000Y82870000D01*
%TO.N,Net-(U4-IO15)*%
X36830000Y80500000D02*
X36830000Y79410000D01*
X36830000Y79410000D02*
X34420000Y77000000D01*
X34420000Y74000000D02*
X34420000Y77000000D01*
%TO.N,GND*%
X45770000Y61000000D02*
X45770000Y58000000D01*
X44500000Y61000000D02*
X44500000Y58000000D01*
D37*
%TO.N,Net-(J4-Pin_1)*%
X45000000Y88000000D02*
X41000000Y88000000D01*
X41000000Y88000000D02*
X40000000Y87000000D01*
X47000000Y90000000D02*
X45000000Y88000000D01*
X40000000Y87000000D02*
X34000000Y87000000D01*
X47000000Y92000000D02*
X47000000Y90000000D01*
D36*
%TO.N,GND*%
X45770000Y70770000D02*
X46500000Y71500000D01*
X45770000Y68000000D02*
X45770000Y70770000D01*
X45770000Y65770000D02*
X45500000Y65500000D01*
X45770000Y68000000D02*
X45770000Y65770000D01*
%TO.N,+5V*%
X55000000Y70540000D02*
X54000000Y69540000D01*
X55000000Y80500000D02*
X55000000Y70540000D01*
X49500000Y80500000D02*
X55000000Y80500000D01*
X49000000Y80000000D02*
X49500000Y80500000D01*
D37*
%TO.N,Net-(R4-Pad1)*%
X31125000Y84530000D02*
X33890000Y84530000D01*
X33890000Y84530000D02*
X34420000Y84000000D01*
D36*
%TO.N,Net-(J2-Pin_2)*%
X43230000Y72270000D02*
X42000000Y73500000D01*
X43230000Y68000000D02*
X43230000Y72270000D01*
X42000000Y73500000D02*
X42000000Y78000000D01*
%TO.N,Net-(U2A-+)*%
X44500000Y73920000D02*
X44580000Y74000000D01*
X44500000Y68000000D02*
X44500000Y73920000D01*
%TO.N,Net-(U4-IO15)*%
X41960000Y70540000D02*
X41960000Y68000000D01*
X38500000Y74000000D02*
X41960000Y70540000D01*
X34420000Y74000000D02*
X38500000Y74000000D01*
D38*
%TO.N,+5V*%
X35500000Y64500000D02*
X37250000Y62750000D01*
X40250000Y61000000D02*
X38500000Y62750000D01*
X41960000Y61000000D02*
X40250000Y61000000D01*
X37250000Y62750000D02*
X38500000Y62750000D01*
D36*
%TO.N,Net-(U4-IO15)*%
X30230000Y71730000D02*
X19895000Y71730000D01*
X32500000Y74000000D02*
X30230000Y71730000D01*
X34420000Y74000000D02*
X32500000Y74000000D01*
%TO.N,Net-(U2A-+)*%
X44580000Y74000000D02*
X47920000Y74000000D01*
%TO.N,Net-(D3-K)*%
X48540000Y77000000D02*
X44580000Y77000000D01*
X49000000Y77460000D02*
X48540000Y77000000D01*
%TO.N,Net-(C7-Pad2)*%
X58000000Y73920000D02*
X58080000Y74000000D01*
X58000000Y67000000D02*
X58000000Y73920000D01*
X51460000Y67000000D02*
X58000000Y67000000D01*
D37*
%TO.N,Net-(J1-Pin_5)*%
X49875000Y51750000D02*
X53375000Y55250000D01*
X42500000Y51750000D02*
X49875000Y51750000D01*
X28750000Y65500000D02*
X42500000Y51750000D01*
X53375000Y55250000D02*
X55000000Y55250000D01*
X16105000Y65895000D02*
X16500000Y65500000D01*
X16500000Y65500000D02*
X28750000Y65500000D01*
X16105000Y67430000D02*
X16105000Y65895000D01*
%TO.N,Net-(J1-Pin_4)*%
X14835000Y66165000D02*
X14835000Y67430000D01*
X16250000Y64750000D02*
X14835000Y66165000D01*
X42250000Y51000000D02*
X28500000Y64750000D01*
X28500000Y64750000D02*
X16250000Y64750000D01*
X51750000Y51000000D02*
X42250000Y51000000D01*
X53500000Y52750000D02*
X51750000Y51000000D01*
X55000000Y52750000D02*
X53500000Y52750000D01*
%TO.N,Net-(J1-Pin_3)*%
X42000000Y50250000D02*
X55000000Y50250000D01*
X28250000Y64000000D02*
X42000000Y50250000D01*
X14500000Y64000000D02*
X28250000Y64000000D01*
X12295000Y66205000D02*
X14500000Y64000000D01*
X12295000Y67430000D02*
X12295000Y66205000D01*
%TO.N,Net-(J1-Pin_2)*%
X11025000Y65975000D02*
X11025000Y67430000D01*
X51750000Y49500000D02*
X41750000Y49500000D01*
X28000000Y63250000D02*
X13750000Y63250000D01*
X13750000Y63250000D02*
X11025000Y65975000D01*
X55000000Y47750000D02*
X53500000Y47750000D01*
X53500000Y47750000D02*
X51750000Y49500000D01*
X41750000Y49500000D02*
X28000000Y63250000D01*
D36*
%TO.N,+3V3*%
X41250000Y48750000D02*
X50000000Y48750000D01*
X36000000Y54000000D02*
X41250000Y48750000D01*
X36000000Y54000000D02*
X36500000Y53500000D01*
X27500000Y62500000D02*
X36000000Y54000000D01*
X50000000Y48750000D02*
X53500000Y45250000D01*
X13250000Y62500000D02*
X27500000Y62500000D01*
X11500000Y60750000D02*
X13250000Y62500000D01*
X53500000Y45250000D02*
X55000000Y45250000D01*
D37*
%TO.N,Net-(R4-Pad1)*%
X31125000Y84530000D02*
X31595000Y85000000D01*
%TO.N,Net-(J4-Pin_1)*%
X34000000Y87000000D02*
X35000000Y87000000D01*
D36*
%TO.N,+3V3*%
X44500000Y90250000D02*
X44500000Y92000000D01*
X43250000Y89000000D02*
X44500000Y90250000D01*
X36830000Y89000000D02*
X43250000Y89000000D01*
D37*
%TO.N,Net-(J4-Pin_1)*%
X35000000Y87000000D02*
X35750000Y87000000D01*
D38*
%TO.N,+5V*%
X25250000Y57500000D02*
X17750000Y57500000D01*
X17750000Y57500000D02*
X14460000Y54210000D01*
X14460000Y54210000D02*
X14460000Y52250000D01*
X14460000Y52250000D02*
X14500000Y52210000D01*
X14500000Y52210000D02*
X14500000Y45500000D01*
D39*
%TO.N,Net-(J3-Pin_1)*%
X28575937Y53195000D02*
X28600000Y53170937D01*
X19540000Y53195000D02*
X28575937Y53195000D01*
D38*
%TO.N,GND*%
X17000000Y53195000D02*
X17000000Y50500000D01*
X18250000Y55750000D02*
X20500000Y55750000D01*
X18000000Y55500000D02*
X18250000Y55750000D01*
X17000000Y54500000D02*
X18000000Y55500000D01*
X17000000Y53195000D02*
X17000000Y54500000D01*
%TO.N,+5V*%
X11750000Y45500000D02*
X14500000Y45500000D01*
X8750000Y48500000D02*
X11750000Y45500000D01*
X6000000Y48500000D02*
X8750000Y48500000D01*
X6000000Y52750000D02*
X6000000Y48500000D01*
X5080000Y53670000D02*
X6000000Y52750000D01*
X5080000Y55880000D02*
X5080000Y53670000D01*
D37*
%TO.N,Net-(U4-EN)*%
X6000000Y87750000D02*
X8000000Y87750000D01*
X4675000Y86425000D02*
X6000000Y87750000D01*
X4675000Y84930000D02*
X4675000Y86425000D01*
X4675000Y84930000D02*
X4675000Y86000000D01*
%TO.N,Net-(D2-A)*%
X11025000Y87025000D02*
X11025000Y84930000D01*
X15750000Y90250000D02*
X14250000Y90250000D01*
X18000000Y92500000D02*
X15750000Y90250000D01*
X14250000Y90250000D02*
X11025000Y87025000D01*
D38*
%TO.N,+3V3*%
X6500000Y88750000D02*
X8750000Y91000000D01*
X4750000Y88750000D02*
X6500000Y88750000D01*
X3405000Y87405000D02*
X4750000Y88750000D01*
X3405000Y84930000D02*
X3405000Y87405000D01*
D37*
%TO.N,Net-(D1-K)*%
X23420000Y94500000D02*
X24920000Y93000000D01*
X13540000Y92500000D02*
X15540000Y94500000D01*
X15540000Y94500000D02*
X23420000Y94500000D01*
D38*
%TO.N,+3V3*%
X27500000Y95500000D02*
X32375000Y90625000D01*
X8750000Y91000000D02*
X13250000Y95500000D01*
X13250000Y95500000D02*
X27500000Y95500000D01*
D37*
%TO.N,Net-(U4-SENSOR_VP)*%
X28585000Y81990000D02*
X31125000Y81990000D01*
X27325000Y83250000D02*
X28585000Y81990000D01*
X19750000Y83250000D02*
X27325000Y83250000D01*
D39*
%TO.N,Net-(J3-Pin_1)*%
X30870937Y53170937D02*
X32000000Y52041874D01*
X28600000Y53170937D02*
X30870937Y53170937D01*
X29529063Y53170937D02*
X30200000Y53841874D01*
X28600000Y53170937D02*
X29529063Y53170937D01*
X32000000Y52041874D02*
X30200000Y53841874D01*
X29810000Y45560000D02*
X32000000Y47750000D01*
X32000000Y47750000D02*
X32000000Y52041874D01*
X29810000Y42500000D02*
X29810000Y45560000D01*
X29810000Y37500000D02*
X29810000Y42500000D01*
D38*
%TO.N,+3V3*%
X32375000Y90625000D02*
X32000000Y91000000D01*
X34000000Y89000000D02*
X32375000Y90625000D01*
%TO.N,GND*%
X20000000Y69000000D02*
X21000000Y68000000D01*
X18000000Y69000000D02*
X20000000Y69000000D01*
X17000000Y70000000D02*
X18000000Y69000000D01*
%TO.N,+3V3*%
X5000000Y61040000D02*
X5080000Y60960000D01*
X5000000Y64750000D02*
X5000000Y61040000D01*
%TO.N,GND*%
X5080000Y58420000D02*
X11330000Y58420000D01*
X11330000Y58420000D02*
X11500000Y58250000D01*
%TO.N,+3V3*%
X11290000Y60960000D02*
X11500000Y60750000D01*
X5080000Y60960000D02*
X11290000Y60960000D01*
%TO.N,GND*%
X3580000Y58420000D02*
X5080000Y58420000D01*
X2135000Y59865000D02*
X3580000Y58420000D01*
X2135000Y67430000D02*
X2135000Y59865000D01*
D37*
%TO.N,Net-(U4-SENSOR_VP)*%
X6250000Y83250000D02*
X19750000Y83250000D01*
X19750000Y83250000D02*
X26500000Y83250000D01*
X5945000Y83555000D02*
X6250000Y83250000D01*
X5945000Y84930000D02*
X5945000Y83555000D01*
D38*
%TO.N,+3V3*%
X11000000Y92000000D02*
X11000000Y92500000D01*
D37*
%TO.N,Net-(D2-K)*%
X23920000Y90000000D02*
X24000000Y90080000D01*
X20540000Y90920000D02*
X21460000Y90000000D01*
X21460000Y90000000D02*
X23920000Y90000000D01*
X20540000Y92500000D02*
X20540000Y90920000D01*
X21000000Y92040000D02*
X20540000Y92500000D01*
D38*
%TO.N,GND*%
X7950000Y78385000D02*
X2135000Y78385000D01*
X19895000Y81890000D02*
X22030000Y81890000D01*
X14505000Y81890000D02*
X11000000Y78385000D01*
X24080000Y80000000D02*
X24000000Y79920000D01*
X2135000Y84930000D02*
X2135000Y67430000D01*
X22030000Y81890000D02*
X24000000Y79920000D01*
X19895000Y81890000D02*
X14505000Y81890000D01*
%TO.N,+3V3*%
X37080000Y89000000D02*
X34000000Y89000000D01*
%TD*%
%TA.AperFunction,Conductor*%
%TO.N,GND*%
G36*
X2090203Y66156266D02*
G01*
X2112537Y66130789D01*
X2115302Y66126592D01*
X2243893Y65968888D01*
X2339362Y65891043D01*
X2378878Y65833422D01*
X2385000Y65794942D01*
X2385000Y65680000D01*
X2643002Y65680000D01*
X2756191Y65690063D01*
X2778153Y65690063D01*
X2845560Y65684070D01*
X2896963Y65679500D01*
X3032972Y65679500D01*
X3100011Y65659815D01*
X3145766Y65607011D01*
X3155710Y65537853D01*
X3149155Y65512173D01*
X3082388Y65333161D01*
X3075628Y65315037D01*
X3014804Y65035433D01*
X2994390Y64750001D01*
X2994390Y64749998D01*
X3014804Y64464566D01*
X3075628Y64184962D01*
X3175635Y63916833D01*
X3312770Y63665690D01*
X3312775Y63665682D01*
X3484254Y63436612D01*
X3484270Y63436594D01*
X3645681Y63275184D01*
X3679166Y63213861D01*
X3682000Y63187503D01*
X3682000Y62422821D01*
X3662315Y62355782D01*
X3645685Y62335144D01*
X3595941Y62285400D01*
X3552753Y62242212D01*
X3552744Y62242202D01*
X3385336Y62018571D01*
X3385331Y62018563D01*
X3251453Y61773384D01*
X3251451Y61773378D01*
X3153823Y61511629D01*
X3153821Y61511622D01*
X3153821Y61511621D01*
X3094442Y61238661D01*
X3094440Y61238647D01*
X3074511Y60960001D01*
X3074511Y60959998D01*
X3094440Y60681352D01*
X3094442Y60681338D01*
X3153821Y60408378D01*
X3153823Y60408371D01*
X3202637Y60277496D01*
X3251453Y60146615D01*
X3385331Y59901436D01*
X3385336Y59901428D01*
X3488295Y59763892D01*
X3512712Y59698428D01*
X3497860Y59630155D01*
X3488295Y59615272D01*
X3385758Y59478299D01*
X3385753Y59478291D01*
X3251909Y59233174D01*
X3251907Y59233170D01*
X3154303Y58971481D01*
X3094937Y58698584D01*
X3092893Y58670000D01*
X4585148Y58670000D01*
X4536441Y58532953D01*
X4526123Y58382114D01*
X4556884Y58234085D01*
X4590090Y58170000D01*
X3092893Y58170000D01*
X3094937Y58141415D01*
X3154303Y57868518D01*
X3251905Y57606835D01*
X3251910Y57606823D01*
X3279547Y57556210D01*
X3294398Y57487937D01*
X3269980Y57422473D01*
X3266816Y57418425D01*
X3240305Y57385912D01*
X3240303Y57385908D01*
X3240302Y57385907D01*
X3185405Y57280812D01*
X3146089Y57205545D01*
X3130505Y57151079D01*
X3090114Y57009918D01*
X3090114Y57009916D01*
X3090113Y57009913D01*
X3079500Y56890535D01*
X3079500Y56890534D01*
X3079501Y54869468D01*
X3079501Y54869467D01*
X3090113Y54750084D01*
X3146089Y54554454D01*
X3240304Y54374090D01*
X3368890Y54216390D01*
X3526590Y54087804D01*
X3526591Y54087803D01*
X3526593Y54087802D01*
X3695413Y53999617D01*
X3745719Y53951132D01*
X3762000Y53889710D01*
X3762000Y53788354D01*
X3761999Y53788333D01*
X3761999Y53785310D01*
X3761999Y53554690D01*
X3767913Y53521147D01*
X3771559Y53500468D01*
X3772265Y53495105D01*
X3777065Y53440255D01*
X3791314Y53387075D01*
X3792485Y53381794D01*
X3802047Y53327569D01*
X3820873Y53275846D01*
X3822500Y53270688D01*
X3836754Y53217495D01*
X3860024Y53167590D01*
X3862093Y53162594D01*
X3880923Y53110862D01*
X3880925Y53110857D01*
X3908452Y53063179D01*
X3910949Y53058380D01*
X3934213Y53008490D01*
X3934218Y53008482D01*
X3965799Y52963380D01*
X3968705Y52958817D01*
X3996234Y52911137D01*
X4031616Y52868970D01*
X4034909Y52864679D01*
X4066497Y52819567D01*
X4645681Y52240384D01*
X4679166Y52179061D01*
X4682000Y52152703D01*
X4682000Y50227456D01*
X4662315Y50160417D01*
X4636363Y50131357D01*
X4556099Y50065910D01*
X4491704Y50038802D01*
X4422875Y50050811D01*
X4407884Y50059562D01*
X4402520Y50063219D01*
X4159460Y50180269D01*
X4159462Y50180269D01*
X3901662Y50259790D01*
X3901656Y50259792D01*
X3634898Y50299999D01*
X3634890Y50300000D01*
X3365110Y50300000D01*
X3365101Y50299999D01*
X3098343Y50259792D01*
X3098337Y50259790D01*
X2840538Y50180269D01*
X2597485Y50063221D01*
X2597483Y50063220D01*
X2414848Y49938702D01*
X3455599Y48897953D01*
X3374852Y48885165D01*
X3261955Y48827641D01*
X3172359Y48738045D01*
X3114835Y48625148D01*
X3102046Y48544400D01*
X2062295Y49584151D01*
X2062294Y49584151D01*
X2008602Y49516822D01*
X1873709Y49283181D01*
X1775148Y49032052D01*
X1775142Y49032033D01*
X1715113Y48769028D01*
X1715113Y48769026D01*
X1694953Y48500004D01*
X1694953Y48499995D01*
X1715113Y48230973D01*
X1715113Y48230971D01*
X1775142Y47967966D01*
X1775148Y47967947D01*
X1873709Y47716818D01*
X1873708Y47716818D01*
X2008600Y47483180D01*
X2062295Y47415848D01*
X3102046Y48455599D01*
X3114835Y48374852D01*
X3172359Y48261955D01*
X3261955Y48172359D01*
X3374852Y48114835D01*
X3455598Y48102046D01*
X2414848Y47061296D01*
X2597476Y46936783D01*
X2597485Y46936778D01*
X2840539Y46819730D01*
X2840537Y46819730D01*
X3098337Y46740209D01*
X3098343Y46740207D01*
X3365101Y46700000D01*
X3634898Y46700000D01*
X3901656Y46740207D01*
X3901662Y46740209D01*
X4159461Y46819730D01*
X4402521Y46936781D01*
X4407891Y46940442D01*
X4474371Y46961940D01*
X4541921Y46944084D01*
X4556100Y46934088D01*
X4646587Y46860305D01*
X4826954Y46766089D01*
X4983376Y46721332D01*
X5022582Y46710114D01*
X5022583Y46710113D01*
X5022586Y46710113D01*
X5116146Y46701795D01*
X5141963Y46699500D01*
X5141964Y46699500D01*
X5141965Y46699500D01*
X5141966Y46699500D01*
X5877422Y46699500D01*
X6858036Y46699501D01*
X6889872Y46702331D01*
X6977415Y46710113D01*
X7173045Y46766089D01*
X7193730Y46776894D01*
X7353407Y46860302D01*
X7410740Y46907051D01*
X7511109Y46988890D01*
X7631355Y47136361D01*
X7688976Y47175878D01*
X7727457Y47182000D01*
X8152704Y47182000D01*
X8219743Y47162315D01*
X8240384Y47145681D01*
X9537241Y45848824D01*
X10736493Y44649572D01*
X10899567Y44486497D01*
X10944679Y44454909D01*
X10948970Y44451616D01*
X10991137Y44416234D01*
X11038817Y44388705D01*
X11043380Y44385799D01*
X11088482Y44354218D01*
X11088490Y44354213D01*
X11138380Y44330949D01*
X11143179Y44328452D01*
X11190860Y44300923D01*
X11190862Y44300922D01*
X11242589Y44282094D01*
X11247585Y44280025D01*
X11297490Y44256756D01*
X11297494Y44256754D01*
X11350677Y44242503D01*
X11355835Y44240876D01*
X11407571Y44222046D01*
X11461797Y44212484D01*
X11467079Y44211313D01*
X11520255Y44197065D01*
X11575095Y44192266D01*
X11580456Y44191560D01*
X11634689Y44181999D01*
X11634690Y44181999D01*
X11867843Y44181999D01*
X11867867Y44182000D01*
X12772543Y44182000D01*
X12839582Y44162315D01*
X12868646Y44136360D01*
X12936939Y44052604D01*
X12964047Y43988208D01*
X12952037Y43919378D01*
X12948223Y43912244D01*
X12873709Y43783181D01*
X12775148Y43532052D01*
X12775142Y43532033D01*
X12715113Y43269028D01*
X12715113Y43269026D01*
X12694953Y43000004D01*
X12694953Y42999995D01*
X12715113Y42730973D01*
X12715113Y42730971D01*
X12775142Y42467966D01*
X12775148Y42467947D01*
X12873709Y42216818D01*
X12873708Y42216818D01*
X13008600Y41983180D01*
X13062295Y41915848D01*
X14102046Y42955599D01*
X14114835Y42874852D01*
X14172359Y42761955D01*
X14261955Y42672359D01*
X14374852Y42614835D01*
X14455599Y42602046D01*
X13414848Y41561296D01*
X13597476Y41436783D01*
X13597485Y41436778D01*
X13840539Y41319730D01*
X13840537Y41319730D01*
X14098337Y41240209D01*
X14098343Y41240207D01*
X14365101Y41200000D01*
X14634898Y41200000D01*
X14901656Y41240207D01*
X14901662Y41240209D01*
X15159461Y41319730D01*
X15402516Y41436778D01*
X15402517Y41436779D01*
X15585150Y41561296D01*
X14544401Y42602046D01*
X14625148Y42614835D01*
X14738045Y42672359D01*
X14827641Y42761955D01*
X14885165Y42874852D01*
X14897953Y42955597D01*
X15937704Y41915847D01*
X15991397Y41983177D01*
X16126290Y42216818D01*
X16224851Y42467947D01*
X16224857Y42467966D01*
X16284886Y42730971D01*
X16284886Y42730973D01*
X16305047Y42999995D01*
X16305047Y43000004D01*
X16284886Y43269026D01*
X16284886Y43269028D01*
X16224857Y43532033D01*
X16224851Y43532052D01*
X16126292Y43783178D01*
X16051775Y43912243D01*
X16035302Y43980143D01*
X16058154Y44046170D01*
X16063046Y44052587D01*
X16139698Y44146593D01*
X16233909Y44326951D01*
X16234339Y44328452D01*
X16245102Y44366070D01*
X16289886Y44522582D01*
X16300500Y44641963D01*
X16300499Y46358036D01*
X16289886Y46477418D01*
X16233909Y46673049D01*
X16139698Y46853407D01*
X16011109Y47011109D01*
X15994920Y47024309D01*
X15863640Y47131354D01*
X15824122Y47188974D01*
X15818000Y47227456D01*
X15818000Y51359312D01*
X15837685Y51426351D01*
X15890489Y51472106D01*
X15959647Y51482050D01*
X16001427Y51468144D01*
X16186824Y51366909D01*
X16186829Y51366907D01*
X16448518Y51269303D01*
X16721415Y51209937D01*
X16750000Y51207892D01*
X16750000Y52703316D01*
X16778819Y52685791D01*
X16924404Y52645000D01*
X17037622Y52645000D01*
X17149783Y52660416D01*
X17250000Y52703946D01*
X17250000Y51207892D01*
X17278584Y51209937D01*
X17551481Y51269303D01*
X17813170Y51366907D01*
X17813174Y51366909D01*
X17863787Y51394546D01*
X17932060Y51409398D01*
X17997524Y51384981D01*
X18001573Y51381817D01*
X18034088Y51355305D01*
X18034087Y51355305D01*
X18214454Y51261089D01*
X18370876Y51216332D01*
X18410082Y51205114D01*
X18410083Y51205113D01*
X18410086Y51205113D01*
X18503646Y51196795D01*
X18529463Y51194500D01*
X18529464Y51194500D01*
X18529465Y51194500D01*
X18529466Y51194500D01*
X19395637Y51194500D01*
X20550536Y51194501D01*
X20582372Y51197331D01*
X20669915Y51205113D01*
X20865545Y51261089D01*
X20881270Y51269303D01*
X21045907Y51355302D01*
X21133042Y51426351D01*
X21203609Y51483890D01*
X21331601Y51640861D01*
X21389222Y51680378D01*
X21427703Y51686500D01*
X25876302Y51686500D01*
X25943341Y51666815D01*
X25989096Y51614011D01*
X25999040Y51544853D01*
X25970015Y51481297D01*
X25946154Y51460046D01*
X25914848Y51438702D01*
X26955599Y50397953D01*
X26874852Y50385165D01*
X26761955Y50327641D01*
X26672359Y50238045D01*
X26614835Y50125148D01*
X26602046Y50044400D01*
X25562295Y51084151D01*
X25562294Y51084151D01*
X25508602Y51016822D01*
X25373709Y50783181D01*
X25275148Y50532052D01*
X25275142Y50532033D01*
X25215113Y50269028D01*
X25215113Y50269026D01*
X25194953Y50000004D01*
X25194953Y49999995D01*
X25215113Y49730973D01*
X25215113Y49730971D01*
X25275142Y49467966D01*
X25275148Y49467947D01*
X25373709Y49216818D01*
X25373708Y49216818D01*
X25508600Y48983180D01*
X25562295Y48915848D01*
X26602046Y49955599D01*
X26614835Y49874852D01*
X26672359Y49761955D01*
X26761955Y49672359D01*
X26874852Y49614835D01*
X26955599Y49602046D01*
X25914848Y48561296D01*
X26097476Y48436783D01*
X26097485Y48436778D01*
X26340539Y48319730D01*
X26340537Y48319730D01*
X26598337Y48240209D01*
X26598343Y48240207D01*
X26865101Y48200000D01*
X27134898Y48200000D01*
X27401656Y48240207D01*
X27401662Y48240209D01*
X27659461Y48319730D01*
X27902516Y48436778D01*
X27902517Y48436779D01*
X28085150Y48561296D01*
X27044401Y49602046D01*
X27125148Y49614835D01*
X27238045Y49672359D01*
X27327641Y49761955D01*
X27385165Y49874852D01*
X27397953Y49955598D01*
X28448912Y48904640D01*
X28471433Y48870937D01*
X28734898Y48870937D01*
X29001656Y48911144D01*
X29001662Y48911146D01*
X29259461Y48990667D01*
X29502516Y49107715D01*
X29502517Y49107716D01*
X29685150Y49232233D01*
X28644400Y50272983D01*
X28725148Y50285772D01*
X28838045Y50343296D01*
X28927641Y50432892D01*
X28985165Y50545789D01*
X28997953Y50626534D01*
X30037704Y49586784D01*
X30091397Y49654114D01*
X30226289Y49887753D01*
X30252072Y49953445D01*
X30294888Y50008658D01*
X30360758Y50031959D01*
X30428769Y50015948D01*
X30477327Y49965710D01*
X30491500Y49908142D01*
X30491500Y48426204D01*
X30471815Y48359165D01*
X30455181Y48338523D01*
X28754059Y46637401D01*
X28680118Y46566380D01*
X28677199Y46563576D01*
X28632546Y46504155D01*
X28630207Y46501230D01*
X28582055Y46444622D01*
X28559990Y46408122D01*
X28556495Y46402949D01*
X28530881Y46368863D01*
X28496354Y46303077D01*
X28494514Y46299815D01*
X28473277Y46264683D01*
X28456052Y46236189D01*
X28456050Y46236184D01*
X28456048Y46236181D01*
X28440127Y46196620D01*
X28437506Y46190951D01*
X28417694Y46153203D01*
X28394162Y46082716D01*
X28392870Y46079201D01*
X28365118Y46010244D01*
X28365115Y46010232D01*
X28355748Y45968642D01*
X28354071Y45962629D01*
X28340570Y45922186D01*
X28340566Y45922171D01*
X28328647Y45848824D01*
X28327935Y45845147D01*
X28311605Y45772641D01*
X28309029Y45730065D01*
X28308339Y45723860D01*
X28301500Y45681779D01*
X28301500Y45607475D01*
X28301387Y45603731D01*
X28296898Y45529521D01*
X28301186Y45487085D01*
X28301500Y45480849D01*
X28301500Y44557980D01*
X28281815Y44490941D01*
X28250385Y44457661D01*
X28212970Y44430478D01*
X28002736Y44233054D01*
X27983608Y44215092D01*
X27983606Y44215090D01*
X27783054Y43972665D01*
X27783051Y43972661D01*
X27614464Y43707009D01*
X27614461Y43707003D01*
X27480499Y43422321D01*
X27480497Y43422316D01*
X27430691Y43269028D01*
X27383269Y43123079D01*
X27353790Y42968547D01*
X27324311Y42814011D01*
X27324310Y42814004D01*
X27304556Y42500005D01*
X27304556Y42499994D01*
X27324310Y42185995D01*
X27324311Y42185988D01*
X27331854Y42146447D01*
X27381644Y41885437D01*
X27383270Y41876916D01*
X27480497Y41577683D01*
X27480499Y41577678D01*
X27614461Y41292996D01*
X27614464Y41292990D01*
X27783051Y41027338D01*
X27783054Y41027334D01*
X27983606Y40784909D01*
X27983608Y40784907D01*
X28212966Y40569525D01*
X28212974Y40569518D01*
X28250386Y40542337D01*
X28293052Y40487007D01*
X28301500Y40442020D01*
X28301500Y39557980D01*
X28281815Y39490941D01*
X28250385Y39457661D01*
X28212970Y39430478D01*
X28212968Y39430476D01*
X27983608Y39215092D01*
X27983606Y39215090D01*
X27783054Y38972665D01*
X27783051Y38972661D01*
X27614464Y38707009D01*
X27614461Y38707003D01*
X27480499Y38422321D01*
X27480497Y38422316D01*
X27477219Y38412227D01*
X27383269Y38123079D01*
X27353790Y37968547D01*
X27324311Y37814011D01*
X27324310Y37814004D01*
X27304556Y37500005D01*
X27304556Y37499994D01*
X27324310Y37185995D01*
X27324311Y37185988D01*
X27383270Y36876916D01*
X27480497Y36577683D01*
X27480499Y36577678D01*
X27614461Y36292996D01*
X27614464Y36292990D01*
X27783051Y36027338D01*
X27783054Y36027334D01*
X27983606Y35784909D01*
X27983608Y35784907D01*
X28212968Y35569523D01*
X28212978Y35569515D01*
X28467504Y35384591D01*
X28467516Y35384584D01*
X28563145Y35332011D01*
X28743860Y35232662D01*
X28793124Y35183116D01*
X28807780Y35114800D01*
X28783176Y35049406D01*
X28727123Y35007695D01*
X28684122Y35000000D01*
X23314839Y35000000D01*
X23247800Y35019685D01*
X23202045Y35072489D01*
X23192101Y35141647D01*
X23221126Y35205203D01*
X23255102Y35232662D01*
X23532209Y35385002D01*
X23532227Y35385014D01*
X23775026Y35561417D01*
X23775027Y35561419D01*
X22437534Y36898913D01*
X22505629Y36925874D01*
X22638492Y37022405D01*
X22743175Y37148945D01*
X22791631Y37251920D01*
X24125712Y35917838D01*
X24216539Y36027628D01*
X24216542Y36027632D01*
X24385096Y36293232D01*
X24385099Y36293238D01*
X24519034Y36577862D01*
X24519036Y36577867D01*
X24616244Y36877041D01*
X24675191Y37186050D01*
X24675192Y37186057D01*
X24694943Y37499994D01*
X24694943Y37500005D01*
X24675192Y37813942D01*
X24675191Y37813949D01*
X24616244Y38122958D01*
X24519036Y38422132D01*
X24519034Y38422137D01*
X24385099Y38706761D01*
X24385096Y38706767D01*
X24216544Y38972364D01*
X24125712Y39082160D01*
X22792547Y37748994D01*
X22782812Y37778956D01*
X22694814Y37917619D01*
X22575097Y38030040D01*
X22440489Y38104041D01*
X23775027Y39438579D01*
X23532219Y39614990D01*
X23532209Y39614996D01*
X23256552Y39766540D01*
X23256544Y39766544D01*
X22960447Y39883777D01*
X22960866Y39884836D01*
X22907240Y39921500D01*
X22880037Y39985857D01*
X22891947Y40054704D01*
X22939187Y40106183D01*
X22960557Y40115942D01*
X22960447Y40116223D01*
X23256544Y40233455D01*
X23256552Y40233459D01*
X23532209Y40385003D01*
X23532227Y40385014D01*
X23775026Y40561417D01*
X23775027Y40561419D01*
X22437534Y41898913D01*
X22505629Y41925874D01*
X22638492Y42022405D01*
X22743175Y42148945D01*
X22791631Y42251920D01*
X24125712Y40917838D01*
X24216539Y41027628D01*
X24216542Y41027632D01*
X24385096Y41293232D01*
X24385099Y41293238D01*
X24519034Y41577862D01*
X24519036Y41577867D01*
X24616244Y41877041D01*
X24675191Y42186050D01*
X24675192Y42186057D01*
X24694943Y42499994D01*
X24694943Y42500005D01*
X24675192Y42813942D01*
X24675191Y42813949D01*
X24616244Y43122958D01*
X24519036Y43422132D01*
X24519034Y43422137D01*
X24385099Y43706761D01*
X24385096Y43706767D01*
X24216544Y43972364D01*
X24125712Y44082160D01*
X22792547Y42748994D01*
X22782812Y42778956D01*
X22694814Y42917619D01*
X22575097Y43030040D01*
X22440489Y43104041D01*
X23775027Y44438579D01*
X23532219Y44614990D01*
X23532209Y44614996D01*
X23256552Y44766540D01*
X23256544Y44766544D01*
X22964073Y44882340D01*
X22659379Y44960573D01*
X22659370Y44960575D01*
X22347298Y44999999D01*
X22347285Y45000000D01*
X22032715Y45000000D01*
X22032701Y44999999D01*
X21720629Y44960575D01*
X21720620Y44960573D01*
X21415926Y44882340D01*
X21123455Y44766544D01*
X21123447Y44766540D01*
X20847790Y44614996D01*
X20847772Y44614985D01*
X20604972Y44438581D01*
X20604971Y44438579D01*
X21942465Y43101086D01*
X21874371Y43074126D01*
X21741508Y42977595D01*
X21636825Y42851055D01*
X21588368Y42748078D01*
X20254286Y44082160D01*
X20163460Y43972371D01*
X20163457Y43972367D01*
X19994903Y43706767D01*
X19994900Y43706761D01*
X19860965Y43422137D01*
X19860963Y43422132D01*
X19763755Y43122958D01*
X19704808Y42813949D01*
X19704807Y42813942D01*
X19685057Y42500005D01*
X19685057Y42499994D01*
X19704807Y42186057D01*
X19704808Y42186050D01*
X19763755Y41877041D01*
X19860963Y41577867D01*
X19860965Y41577862D01*
X19994900Y41293238D01*
X19994903Y41293232D01*
X20163457Y41027632D01*
X20163459Y41027629D01*
X20254286Y40917838D01*
X21587453Y42251005D01*
X21597188Y42221044D01*
X21685186Y42082381D01*
X21804903Y41969960D01*
X21939510Y41895958D01*
X20604971Y40561419D01*
X20604972Y40561418D01*
X20847782Y40385007D01*
X20847787Y40385004D01*
X21123447Y40233459D01*
X21123455Y40233455D01*
X21419553Y40116223D01*
X21419134Y40115166D01*
X21472767Y40078490D01*
X21499963Y40014131D01*
X21488047Y39945285D01*
X21440801Y39893811D01*
X21419442Y39884056D01*
X21419553Y39883777D01*
X21123455Y39766544D01*
X21123447Y39766540D01*
X20847790Y39614996D01*
X20847772Y39614985D01*
X20604972Y39438581D01*
X20604971Y39438579D01*
X21942465Y38101086D01*
X21874371Y38074126D01*
X21741508Y37977595D01*
X21636825Y37851055D01*
X21588368Y37748078D01*
X20254286Y39082160D01*
X20163460Y38972371D01*
X20163457Y38972367D01*
X19994903Y38706767D01*
X19994900Y38706761D01*
X19860965Y38422137D01*
X19860963Y38422132D01*
X19763755Y38122958D01*
X19704808Y37813949D01*
X19704807Y37813942D01*
X19685057Y37500005D01*
X19685057Y37499994D01*
X19704807Y37186057D01*
X19704808Y37186050D01*
X19763755Y36877041D01*
X19860963Y36577867D01*
X19860965Y36577862D01*
X19994900Y36293238D01*
X19994903Y36293232D01*
X20163457Y36027632D01*
X20163459Y36027629D01*
X20254286Y35917838D01*
X21587453Y37251005D01*
X21597188Y37221044D01*
X21685186Y37082381D01*
X21804903Y36969960D01*
X21939510Y36895958D01*
X20604971Y35561419D01*
X20604972Y35561418D01*
X20847782Y35385007D01*
X20847787Y35385004D01*
X21124898Y35232662D01*
X21174162Y35183116D01*
X21188819Y35114801D01*
X21164216Y35049406D01*
X21108163Y35007695D01*
X21065161Y35000000D01*
X7229763Y35000000D01*
X7162724Y35019685D01*
X7116969Y35072489D01*
X7107025Y35141647D01*
X7136050Y35205203D01*
X7137885Y35207273D01*
X7250941Y35332011D01*
X7250942Y35332013D01*
X7250946Y35332017D01*
X7496800Y35663513D01*
X7708978Y36017510D01*
X7885436Y36390600D01*
X7885439Y36390609D01*
X7885444Y36390620D01*
X8024472Y36779178D01*
X8024476Y36779189D01*
X8124757Y37179535D01*
X8185315Y37587782D01*
X8205566Y38000000D01*
X8185315Y38412218D01*
X8124757Y38820465D01*
X8024476Y39220811D01*
X7927822Y39490941D01*
X7885444Y39609379D01*
X7885441Y39609385D01*
X7885436Y39609400D01*
X7708978Y39982490D01*
X7496800Y40336487D01*
X7250946Y40667983D01*
X6973784Y40973784D01*
X6667983Y41250946D01*
X6336487Y41496800D01*
X5982490Y41708978D01*
X5609400Y41885436D01*
X5609385Y41885441D01*
X5609379Y41885444D01*
X5336225Y41983180D01*
X5220811Y42024476D01*
X4820465Y42124757D01*
X4412218Y42185315D01*
X4000000Y42205566D01*
X3587782Y42185315D01*
X3179535Y42124757D01*
X2779189Y42024476D01*
X2779178Y42024472D01*
X2390620Y41885444D01*
X2390609Y41885439D01*
X2390600Y41885436D01*
X2017510Y41708978D01*
X1663513Y41496800D01*
X1332017Y41250946D01*
X1207270Y41137882D01*
X1144381Y41107448D01*
X1075018Y41115846D01*
X1021206Y41160412D01*
X1000031Y41226995D01*
X1000000Y41229762D01*
X1000000Y65704934D01*
X1019685Y65771973D01*
X1072489Y65817728D01*
X1141647Y65827672D01*
X1181411Y65814843D01*
X1312138Y65746557D01*
X1507671Y65690609D01*
X1507674Y65690608D01*
X1626998Y65680000D01*
X1885000Y65680000D01*
X1885000Y66062553D01*
X1904685Y66129592D01*
X1957489Y66175347D01*
X2026647Y66185291D01*
X2090203Y66156266D01*
G37*
%TD.AperFunction*%
%TA.AperFunction,Conductor*%
G36*
X53165256Y79289315D02*
G01*
X53200145Y79255616D01*
X53311174Y79095354D01*
X53311184Y79095342D01*
X53470342Y78936184D01*
X53470354Y78936174D01*
X53655367Y78807996D01*
X53736282Y78771243D01*
X53789179Y78725596D01*
X53809000Y78658596D01*
X53809000Y71357855D01*
X53789315Y71290816D01*
X53736511Y71245061D01*
X53703483Y71235241D01*
X53644638Y71226371D01*
X53616084Y71222068D01*
X53616082Y71222067D01*
X53616079Y71222067D01*
X53369668Y71146059D01*
X53137338Y71034174D01*
X52924278Y70888913D01*
X52825235Y70797014D01*
X52789763Y70764101D01*
X52727231Y70732933D01*
X52705422Y70731000D01*
X50568946Y70731000D01*
X50566082Y70731066D01*
X50556214Y70731522D01*
X50484760Y70734826D01*
X50404090Y70723572D01*
X50401299Y70723248D01*
X50320217Y70715736D01*
X50297717Y70709334D01*
X50289324Y70707563D01*
X50266152Y70704331D01*
X50188951Y70678456D01*
X50186256Y70677621D01*
X50107918Y70655332D01*
X50086986Y70644909D01*
X50079048Y70641620D01*
X50056869Y70634187D01*
X50056865Y70634185D01*
X50056860Y70634183D01*
X49985741Y70594569D01*
X49983211Y70593235D01*
X49910333Y70556946D01*
X49891665Y70542849D01*
X49884470Y70538161D01*
X49864040Y70526782D01*
X49801396Y70474763D01*
X49799150Y70472985D01*
X49734194Y70423933D01*
X49734191Y70423930D01*
X49716127Y70404114D01*
X49679354Y70363776D01*
X49677375Y70361704D01*
X48678294Y69362623D01*
X48676233Y69360655D01*
X48616070Y69305809D01*
X48573649Y69249634D01*
X48567014Y69240848D01*
X48565238Y69238605D01*
X48513219Y69175961D01*
X48513216Y69175957D01*
X48513216Y69175956D01*
X48501837Y69155529D01*
X48497147Y69148331D01*
X48483055Y69129668D01*
X48483050Y69129661D01*
X48446764Y69056791D01*
X48445429Y69054257D01*
X48405814Y68983134D01*
X48398380Y68960955D01*
X48395092Y68953017D01*
X48384668Y68932082D01*
X48367292Y68871012D01*
X48362386Y68853771D01*
X48361539Y68851036D01*
X48335669Y68773851D01*
X48332436Y68750683D01*
X48330663Y68742278D01*
X48324264Y68719787D01*
X48324264Y68719783D01*
X48322864Y68704670D01*
X48316752Y68638720D01*
X48316422Y68635875D01*
X48306815Y68567003D01*
X48305174Y68555240D01*
X48306382Y68529108D01*
X48308934Y68473909D01*
X48309000Y68471046D01*
X48309000Y65044690D01*
X48289315Y64977651D01*
X48272681Y64957009D01*
X48042990Y64727319D01*
X47981667Y64693834D01*
X47955309Y64691000D01*
X41153946Y64691000D01*
X41151082Y64691066D01*
X41141214Y64691522D01*
X41069760Y64694826D01*
X41016522Y64687399D01*
X40989115Y64683576D01*
X40986318Y64683250D01*
X40975897Y64682285D01*
X40907332Y64695697D01*
X40856899Y64744052D01*
X40840614Y64811998D01*
X40844215Y64836053D01*
X40889599Y65016167D01*
X40900000Y65148306D01*
X40900000Y65375000D01*
X38874000Y65375000D01*
X38806961Y65394685D01*
X38761206Y65447489D01*
X38750000Y65499000D01*
X38750000Y67287499D01*
X38285808Y67287499D01*
X38153667Y67277099D01*
X37935480Y67222122D01*
X37730625Y67129071D01*
X37730619Y67129068D01*
X37545676Y67000940D01*
X37545664Y67000930D01*
X37386569Y66841835D01*
X37386559Y66841823D01*
X37258431Y66656880D01*
X37258428Y66656874D01*
X37165377Y66452019D01*
X37110400Y66233832D01*
X37100000Y66101694D01*
X37100000Y66028497D01*
X37080315Y65961458D01*
X37027511Y65915703D01*
X36958353Y65905759D01*
X36894797Y65934784D01*
X36888319Y65940816D01*
X36813405Y66015729D01*
X36813395Y66015739D01*
X36584315Y66187226D01*
X36333166Y66324364D01*
X36333165Y66324364D01*
X36333161Y66324367D01*
X36065046Y66424369D01*
X35937941Y66452019D01*
X35785433Y66485195D01*
X35785432Y66485195D01*
X35785428Y66485196D01*
X35509452Y66504934D01*
X35500001Y66505610D01*
X35499999Y66505610D01*
X35468220Y66503337D01*
X35214572Y66485196D01*
X35214568Y66485195D01*
X35214566Y66485195D01*
X34934962Y66424371D01*
X34934960Y66424370D01*
X34934954Y66424369D01*
X34666839Y66324367D01*
X34666834Y66324364D01*
X34666833Y66324364D01*
X34415690Y66187229D01*
X34415682Y66187224D01*
X34186612Y66015745D01*
X34186594Y66015729D01*
X33984270Y65813405D01*
X33984254Y65813387D01*
X33812775Y65584317D01*
X33812770Y65584309D01*
X33675635Y65333166D01*
X33675633Y65333161D01*
X33606686Y65148306D01*
X33575628Y65065037D01*
X33514804Y64785433D01*
X33494390Y64500001D01*
X33494390Y64499998D01*
X33514804Y64214566D01*
X33575628Y63934962D01*
X33675635Y63666833D01*
X33812770Y63415690D01*
X33812775Y63415682D01*
X33984254Y63186612D01*
X33984270Y63186594D01*
X34186594Y62984270D01*
X34186612Y62984254D01*
X34415682Y62812775D01*
X34415690Y62812770D01*
X34666833Y62675635D01*
X34666832Y62675635D01*
X34934962Y62575628D01*
X35214566Y62514804D01*
X35499999Y62494390D01*
X35500000Y62494390D01*
X35500002Y62494390D01*
X35575735Y62499806D01*
X35644008Y62484954D01*
X35672261Y62463803D01*
X36236493Y61899572D01*
X36399567Y61736497D01*
X36444679Y61704909D01*
X36448970Y61701616D01*
X36491137Y61666234D01*
X36538817Y61638705D01*
X36543380Y61635799D01*
X36588482Y61604218D01*
X36588490Y61604213D01*
X36638380Y61580949D01*
X36643179Y61578452D01*
X36690860Y61550923D01*
X36690862Y61550922D01*
X36742589Y61532094D01*
X36747585Y61530025D01*
X36797490Y61506756D01*
X36797494Y61506754D01*
X36850677Y61492503D01*
X36855835Y61490876D01*
X36907571Y61472046D01*
X36961797Y61462484D01*
X36967079Y61461313D01*
X37020255Y61447065D01*
X37075095Y61442266D01*
X37080456Y61441560D01*
X37134689Y61431999D01*
X37134690Y61431999D01*
X37217903Y61431999D01*
X37284942Y61412314D01*
X37319831Y61378615D01*
X37386178Y61282848D01*
X37545348Y61123679D01*
X37545354Y61123674D01*
X37730367Y60995497D01*
X37730377Y60995491D01*
X37935318Y60902403D01*
X37935321Y60902402D01*
X38153579Y60847405D01*
X38153586Y60847404D01*
X38285781Y60837000D01*
X38285783Y60837000D01*
X38497703Y60837000D01*
X38564742Y60817315D01*
X38585384Y60800681D01*
X39399567Y59986497D01*
X39444679Y59954909D01*
X39448970Y59951616D01*
X39491137Y59916234D01*
X39538817Y59888705D01*
X39543380Y59885799D01*
X39588482Y59854218D01*
X39588490Y59854213D01*
X39638380Y59830949D01*
X39643179Y59828452D01*
X39690860Y59800923D01*
X39690862Y59800922D01*
X39742589Y59782094D01*
X39747585Y59780025D01*
X39797490Y59756756D01*
X39797494Y59756754D01*
X39850677Y59742503D01*
X39855835Y59740876D01*
X39907571Y59722046D01*
X39961797Y59712484D01*
X39967079Y59711313D01*
X40020255Y59697065D01*
X40075095Y59692266D01*
X40080456Y59691560D01*
X40134689Y59681999D01*
X40134690Y59681999D01*
X40367843Y59681999D01*
X40367867Y59682000D01*
X40704926Y59682000D01*
X40771965Y59662315D01*
X40807226Y59628077D01*
X40921088Y59461858D01*
X40921093Y59461852D01*
X41071852Y59311093D01*
X41071858Y59311088D01*
X41247761Y59190592D01*
X41247762Y59190591D01*
X41247763Y59190591D01*
X41311966Y59162243D01*
X41442817Y59104467D01*
X41442823Y59104465D01*
X41650359Y59055652D01*
X41650374Y59055650D01*
X41724705Y59050491D01*
X41738988Y59049500D01*
X41738990Y59049500D01*
X42181010Y59049500D01*
X42181012Y59049500D01*
X42196546Y59050578D01*
X42269625Y59055650D01*
X42269639Y59055652D01*
X42477175Y59104465D01*
X42477186Y59104468D01*
X42544915Y59134373D01*
X42614194Y59143444D01*
X42645085Y59134373D01*
X42712813Y59104468D01*
X42712824Y59104465D01*
X42920360Y59055652D01*
X42920374Y59055650D01*
X42994705Y59050491D01*
X43008988Y59049500D01*
X43008990Y59049500D01*
X43451010Y59049500D01*
X43451012Y59049500D01*
X43466546Y59050578D01*
X43539625Y59055650D01*
X43539640Y59055652D01*
X43747176Y59104465D01*
X43747186Y59104468D01*
X43815533Y59134646D01*
X43884811Y59143717D01*
X43915702Y59134646D01*
X43982976Y59104942D01*
X44190434Y59056149D01*
X44190450Y59056146D01*
X44249998Y59052012D01*
X44250000Y59052013D01*
X44250000Y59395852D01*
X44269685Y59462891D01*
X44271700Y59465929D01*
X44309139Y59520583D01*
X44389409Y59637763D01*
X44475532Y59832815D01*
X44487994Y59885799D01*
X44505294Y59959350D01*
X44539804Y60020102D01*
X44601682Y60052552D01*
X44671280Y60046397D01*
X44726502Y60003592D01*
X44749815Y59937726D01*
X44750000Y59930960D01*
X44750000Y59052015D01*
X44750001Y59052013D01*
X44809559Y59056147D01*
X44809568Y59056148D01*
X45017017Y59104941D01*
X45017028Y59104944D01*
X45084915Y59134919D01*
X45154193Y59143990D01*
X45185085Y59134919D01*
X45252971Y59104944D01*
X45252982Y59104941D01*
X45460434Y59056149D01*
X45460450Y59056146D01*
X45519998Y59052012D01*
X45520000Y59052013D01*
X45520000Y60750000D01*
X46020000Y60750000D01*
X46020000Y59052015D01*
X46020001Y59052013D01*
X46079559Y59056147D01*
X46079568Y59056148D01*
X46287017Y59104941D01*
X46287032Y59104946D01*
X46481990Y59191028D01*
X46657820Y59311474D01*
X46808525Y59462179D01*
X46928971Y59638009D01*
X47015053Y59832967D01*
X47015058Y59832982D01*
X47063850Y60040429D01*
X47063852Y60040443D01*
X47070000Y60129017D01*
X47070000Y60750000D01*
X46020000Y60750000D01*
X45520000Y60750000D01*
X44750000Y60750000D01*
X44742181Y60742181D01*
X44680858Y60708696D01*
X44611166Y60713680D01*
X44555233Y60755552D01*
X44530816Y60821016D01*
X44530500Y60829862D01*
X44530500Y61126000D01*
X44550185Y61193039D01*
X44602989Y61238794D01*
X44654500Y61250000D01*
X47069999Y61250000D01*
X47069999Y61870982D01*
X47063852Y61959559D01*
X47063851Y61959568D01*
X47017507Y62156610D01*
X47021320Y62226376D01*
X47062245Y62283005D01*
X47127290Y62308518D01*
X47138213Y62309000D01*
X48471047Y62309000D01*
X48473910Y62308934D01*
X48517928Y62306899D01*
X48555240Y62305174D01*
X48555243Y62305174D01*
X48635875Y62316422D01*
X48638720Y62316752D01*
X48687907Y62321310D01*
X48719783Y62324264D01*
X48719787Y62324264D01*
X48742278Y62330663D01*
X48750683Y62332436D01*
X48773851Y62335669D01*
X48851036Y62361539D01*
X48853771Y62362386D01*
X48932082Y62384668D01*
X48953017Y62395092D01*
X48960955Y62398380D01*
X48983134Y62405814D01*
X49054257Y62445429D01*
X49056791Y62446764D01*
X49129661Y62483050D01*
X49129668Y62483055D01*
X49130801Y62483910D01*
X49133145Y62485681D01*
X49148331Y62497147D01*
X49155529Y62501837D01*
X49175956Y62513216D01*
X49175957Y62513216D01*
X49175961Y62513219D01*
X49238605Y62565238D01*
X49240848Y62567014D01*
X49267073Y62586818D01*
X49305809Y62616070D01*
X49360655Y62676233D01*
X49362623Y62678294D01*
X49812311Y63127982D01*
X50321706Y63637377D01*
X50323755Y63639333D01*
X50343315Y63657165D01*
X50383930Y63694191D01*
X50398139Y63713007D01*
X50432993Y63759161D01*
X50434772Y63761407D01*
X50486780Y63824038D01*
X50486781Y63824039D01*
X50498167Y63844480D01*
X50502847Y63851662D01*
X50516946Y63870333D01*
X50553238Y63943217D01*
X50554572Y63945746D01*
X50594183Y64016862D01*
X50594187Y64016871D01*
X50601620Y64039048D01*
X50604905Y64046980D01*
X50615332Y64067918D01*
X50637611Y64146221D01*
X50638451Y64148938D01*
X50664332Y64226153D01*
X50667564Y64249331D01*
X50669335Y64257720D01*
X50675736Y64280217D01*
X50683248Y64361289D01*
X50683573Y64364091D01*
X50694826Y64444760D01*
X50691066Y64526090D01*
X50691000Y64528953D01*
X50691000Y65268700D01*
X50710685Y65335739D01*
X50763489Y65381494D01*
X50832647Y65391438D01*
X50851550Y65387191D01*
X51076077Y65317933D01*
X51076083Y65317931D01*
X51331058Y65279500D01*
X51331066Y65279500D01*
X51588941Y65279500D01*
X51843916Y65317931D01*
X51843922Y65317933D01*
X51922683Y65342228D01*
X52090332Y65393941D01*
X52090335Y65393942D01*
X52090337Y65393943D01*
X52322658Y65505824D01*
X52322669Y65505830D01*
X52360388Y65531546D01*
X52426867Y65553046D01*
X52494417Y65535191D01*
X52541590Y65483651D01*
X52553410Y65414788D01*
X52537625Y65367092D01*
X52445988Y65208373D01*
X52351808Y64968406D01*
X52351803Y64968389D01*
X52294441Y64717069D01*
X52275177Y64460004D01*
X52275177Y64459995D01*
X52294441Y64202930D01*
X52351803Y63951610D01*
X52351808Y63951593D01*
X52445988Y63711626D01*
X52445987Y63711626D01*
X52574883Y63488373D01*
X52619221Y63432775D01*
X53602046Y64415600D01*
X53614835Y64334852D01*
X53672359Y64221955D01*
X53761955Y64132359D01*
X53874852Y64074835D01*
X53955599Y64062046D01*
X52972420Y63078866D01*
X53137581Y62966263D01*
X53137594Y62966256D01*
X53369848Y62854409D01*
X53369846Y62854409D01*
X53616182Y62778424D01*
X53616188Y62778423D01*
X53871098Y62740000D01*
X54128901Y62740000D01*
X54383811Y62778423D01*
X54383817Y62778424D01*
X54630152Y62854409D01*
X54862404Y62966254D01*
X54862405Y62966255D01*
X55021967Y63075043D01*
X55088446Y63096543D01*
X55155997Y63078689D01*
X55203171Y63027149D01*
X55204718Y63023871D01*
X55258430Y62905621D01*
X55258431Y62905619D01*
X55386559Y62720676D01*
X55386569Y62720664D01*
X55545664Y62561569D01*
X55545676Y62561559D01*
X55730619Y62433431D01*
X55730625Y62433428D01*
X55935480Y62340377D01*
X56153667Y62285400D01*
X56285806Y62275000D01*
X56750000Y62275000D01*
X56750000Y64063500D01*
X56769685Y64130539D01*
X56822489Y64176294D01*
X56874000Y64187500D01*
X57126000Y64187500D01*
X57193039Y64167815D01*
X57238794Y64115011D01*
X57250000Y64063500D01*
X57250000Y62275000D01*
X57714192Y62275001D01*
X57846332Y62285400D01*
X58064519Y62340377D01*
X58269374Y62433428D01*
X58269380Y62433431D01*
X58454323Y62561559D01*
X58454335Y62561569D01*
X58613430Y62720664D01*
X58613440Y62720676D01*
X58741568Y62905619D01*
X58741569Y62905621D01*
X58763101Y62953023D01*
X58808749Y63005920D01*
X58875748Y63025741D01*
X58942827Y63006192D01*
X58988689Y62953481D01*
X59000000Y62901741D01*
X59000000Y41229762D01*
X58980315Y41162723D01*
X58927511Y41116968D01*
X58858353Y41107024D01*
X58794797Y41136049D01*
X58792799Y41137819D01*
X58667983Y41250946D01*
X58336487Y41496800D01*
X57982490Y41708978D01*
X57609400Y41885436D01*
X57609385Y41885441D01*
X57609379Y41885444D01*
X57336225Y41983180D01*
X57220811Y42024476D01*
X56820465Y42124757D01*
X56412218Y42185315D01*
X56000000Y42205566D01*
X55587782Y42185315D01*
X55179535Y42124757D01*
X54779189Y42024476D01*
X54779178Y42024472D01*
X54390620Y41885444D01*
X54390609Y41885439D01*
X54390600Y41885436D01*
X54017510Y41708978D01*
X53663513Y41496800D01*
X53332017Y41250946D01*
X53332016Y41250945D01*
X53332011Y41250941D01*
X53026215Y40973784D01*
X52749058Y40667988D01*
X52749055Y40667984D01*
X52749054Y40667983D01*
X52503200Y40336487D01*
X52291022Y39982490D01*
X52188886Y39766540D01*
X52114562Y39609395D01*
X52114555Y39609379D01*
X51975527Y39220821D01*
X51975525Y39220815D01*
X51975524Y39220811D01*
X51974091Y39215090D01*
X51875244Y38820471D01*
X51816156Y38422132D01*
X51814685Y38412218D01*
X51794434Y38000000D01*
X51814685Y37587782D01*
X51814685Y37587776D01*
X51814686Y37587772D01*
X51875244Y37179528D01*
X51975527Y36779178D01*
X52114555Y36390620D01*
X52114562Y36390604D01*
X52291024Y36017506D01*
X52503198Y35663515D01*
X52749058Y35332011D01*
X52862115Y35207273D01*
X52892551Y35144381D01*
X52884153Y35075018D01*
X52839587Y35021206D01*
X52773003Y35000031D01*
X52770237Y35000000D01*
X30935878Y35000000D01*
X30868839Y35019685D01*
X30823084Y35072489D01*
X30813140Y35141647D01*
X30842165Y35205203D01*
X30876140Y35232662D01*
X30876766Y35233006D01*
X31152484Y35384584D01*
X31152488Y35384586D01*
X31152495Y35384591D01*
X31407021Y35569515D01*
X31407031Y35569523D01*
X31636391Y35784907D01*
X31636393Y35784909D01*
X31836945Y36027334D01*
X31836948Y36027338D01*
X32005535Y36292990D01*
X32005538Y36292996D01*
X32139500Y36577678D01*
X32139502Y36577683D01*
X32139503Y36577685D01*
X32236731Y36876921D01*
X32295688Y37185985D01*
X32302707Y37297543D01*
X32315444Y37499994D01*
X32315444Y37500005D01*
X32295689Y37814004D01*
X32295688Y37814011D01*
X32295688Y37814015D01*
X32236731Y38123079D01*
X32139503Y38422315D01*
X32005537Y38707007D01*
X31836947Y38972663D01*
X31636390Y39215094D01*
X31407030Y39430478D01*
X31369614Y39457661D01*
X31326949Y39512991D01*
X31318500Y39557980D01*
X31318500Y40442020D01*
X31338185Y40509059D01*
X31369614Y40542337D01*
X31407025Y40569518D01*
X31407033Y40569525D01*
X31636391Y40784907D01*
X31636393Y40784909D01*
X31836945Y41027334D01*
X31836948Y41027338D01*
X32005535Y41292990D01*
X32005538Y41292996D01*
X32139500Y41577678D01*
X32139502Y41577683D01*
X32139503Y41577685D01*
X32236731Y41876921D01*
X32295688Y42185985D01*
X32302707Y42297543D01*
X32315444Y42499994D01*
X32315444Y42500005D01*
X32295689Y42814004D01*
X32295688Y42814011D01*
X32295688Y42814015D01*
X32236731Y43123079D01*
X32139503Y43422315D01*
X32005537Y43707007D01*
X31836947Y43972663D01*
X31636390Y44215094D01*
X31407030Y44430478D01*
X31369614Y44457661D01*
X31326949Y44512991D01*
X31318500Y44557980D01*
X31318500Y44883797D01*
X31338185Y44950836D01*
X31354819Y44971478D01*
X33055915Y46672574D01*
X33132801Y46746423D01*
X33177448Y46805838D01*
X33179788Y46808762D01*
X33227942Y46865375D01*
X33227947Y46865382D01*
X33250007Y46901874D01*
X33253504Y46907051D01*
X33279111Y46941126D01*
X33279116Y46941134D01*
X33279117Y46941135D01*
X33313655Y47006942D01*
X33315487Y47010190D01*
X33316044Y47011111D01*
X33353948Y47073812D01*
X33369868Y47113371D01*
X33372487Y47119036D01*
X33392304Y47156794D01*
X33415839Y47227291D01*
X33417132Y47230807D01*
X33444880Y47299752D01*
X33444882Y47299757D01*
X33454250Y47341359D01*
X33455920Y47347351D01*
X33469431Y47387818D01*
X33481350Y47461165D01*
X33482062Y47464838D01*
X33490140Y47500709D01*
X33498396Y47537363D01*
X33500970Y47579934D01*
X33501658Y47586127D01*
X33508500Y47628221D01*
X33508500Y47702519D01*
X33508613Y47706263D01*
X33510233Y47733054D01*
X33513102Y47780476D01*
X33508813Y47822914D01*
X33508500Y47829150D01*
X33508500Y52026662D01*
X33509754Y52088936D01*
X33510647Y52133251D01*
X33500203Y52206841D01*
X33499790Y52210558D01*
X33493810Y52284642D01*
X33483598Y52326066D01*
X33482418Y52332160D01*
X33476426Y52374393D01*
X33454313Y52445349D01*
X33453317Y52448923D01*
X33435523Y52521122D01*
X33418801Y52560365D01*
X33416654Y52566204D01*
X33403967Y52606923D01*
X33370755Y52673422D01*
X33369196Y52676793D01*
X33340056Y52745190D01*
X33317257Y52781242D01*
X33314204Y52786656D01*
X33295146Y52824818D01*
X33251689Y52885138D01*
X33249614Y52888211D01*
X33209883Y52951042D01*
X33181599Y52982966D01*
X33177700Y52987842D01*
X33152784Y53022430D01*
X33152783Y53022430D01*
X33152781Y53022434D01*
X33100229Y53074985D01*
X33097678Y53077696D01*
X33089424Y53087013D01*
X33048375Y53133348D01*
X33015322Y53160333D01*
X33010720Y53164493D01*
X32524353Y53650862D01*
X32036818Y54138397D01*
X32003333Y54199720D01*
X32000499Y54226078D01*
X32000499Y54699907D01*
X32000110Y54704289D01*
X31989886Y54819292D01*
X31933909Y55014923D01*
X31839698Y55195281D01*
X31711109Y55352983D01*
X31553407Y55481572D01*
X31373049Y55575783D01*
X31177418Y55631760D01*
X31058037Y55642374D01*
X31058035Y55642373D01*
X31058035Y55642374D01*
X31058034Y55642374D01*
X30322577Y55642373D01*
X29341964Y55642373D01*
X29222582Y55631760D01*
X29026951Y55575783D01*
X28846593Y55481572D01*
X28782803Y55429558D01*
X28688890Y55352983D01*
X28583592Y55223844D01*
X28560302Y55195281D01*
X28478157Y55038023D01*
X28429672Y54987717D01*
X28368250Y54971436D01*
X27741964Y54971436D01*
X27622582Y54960823D01*
X27426951Y54904846D01*
X27246593Y54810635D01*
X27246590Y54810632D01*
X27246587Y54810631D01*
X27149415Y54731398D01*
X27085019Y54704289D01*
X27071055Y54703500D01*
X21427703Y54703500D01*
X21360664Y54723185D01*
X21331601Y54749139D01*
X21330830Y54750084D01*
X21203609Y54906109D01*
X21045907Y55034698D01*
X20865549Y55128909D01*
X20669918Y55184886D01*
X20550537Y55195500D01*
X20550535Y55195499D01*
X20550535Y55195500D01*
X20550534Y55195500D01*
X19684362Y55195499D01*
X18529464Y55195499D01*
X18410082Y55184886D01*
X18214451Y55128909D01*
X18034093Y55034698D01*
X18001575Y55008183D01*
X17937178Y54981074D01*
X17868349Y54993083D01*
X17863786Y54995454D01*
X17813179Y55023088D01*
X17813170Y55023092D01*
X17551481Y55120696D01*
X17513141Y55129037D01*
X17451818Y55162521D01*
X17418332Y55223844D01*
X17423316Y55293536D01*
X17451817Y55337884D01*
X18259614Y56145681D01*
X18320937Y56179166D01*
X18347295Y56182000D01*
X23687504Y56182000D01*
X23754543Y56162315D01*
X23775180Y56145685D01*
X23822476Y56098390D01*
X23936602Y55984263D01*
X23936612Y55984254D01*
X24165682Y55812775D01*
X24165690Y55812770D01*
X24416833Y55675635D01*
X24416832Y55675635D01*
X24684962Y55575628D01*
X24964566Y55514804D01*
X25249999Y55494390D01*
X25250000Y55494390D01*
X25250001Y55494390D01*
X25535433Y55514804D01*
X25815037Y55575628D01*
X25815043Y55575630D01*
X25815046Y55575631D01*
X26083161Y55675633D01*
X26083166Y55675635D01*
X26334309Y55812770D01*
X26334317Y55812775D01*
X26563387Y55984254D01*
X26563405Y55984270D01*
X26765729Y56186594D01*
X26765745Y56186612D01*
X26937224Y56415682D01*
X26937229Y56415690D01*
X27074364Y56666833D01*
X27074364Y56666834D01*
X27074367Y56666839D01*
X27174369Y56934954D01*
X27184825Y56983020D01*
X27235195Y57214566D01*
X27235195Y57214568D01*
X27235196Y57214572D01*
X27255610Y57500000D01*
X27235196Y57785428D01*
X27174369Y58065046D01*
X27074367Y58333161D01*
X26937226Y58584315D01*
X26765739Y58813395D01*
X26563395Y59015739D01*
X26334315Y59187226D01*
X26083166Y59324364D01*
X26083165Y59324364D01*
X26083161Y59324367D01*
X25815046Y59424369D01*
X25791197Y59429557D01*
X25535433Y59485195D01*
X25535432Y59485195D01*
X25535428Y59485196D01*
X25278595Y59503564D01*
X25250001Y59505610D01*
X25249999Y59505610D01*
X25218220Y59503337D01*
X24964572Y59485196D01*
X24964568Y59485195D01*
X24964566Y59485195D01*
X24684962Y59424371D01*
X24684960Y59424370D01*
X24684954Y59424369D01*
X24416839Y59324367D01*
X24416834Y59324364D01*
X24416833Y59324364D01*
X24165690Y59187229D01*
X24165682Y59187224D01*
X23936612Y59015745D01*
X23936606Y59015740D01*
X23936605Y59015739D01*
X23775183Y58854317D01*
X23713862Y58820834D01*
X23687504Y58818000D01*
X17867867Y58818000D01*
X17867843Y58818001D01*
X17865310Y58818001D01*
X17634690Y58818001D01*
X17580457Y58808438D01*
X17575098Y58807733D01*
X17572789Y58807531D01*
X17520257Y58802935D01*
X17467054Y58788679D01*
X17461827Y58787519D01*
X17407573Y58777954D01*
X17355812Y58759114D01*
X17350688Y58757498D01*
X17297495Y58743246D01*
X17247589Y58719974D01*
X17242614Y58717913D01*
X17190862Y58699077D01*
X17143174Y58671544D01*
X17138395Y58669056D01*
X17088483Y58645782D01*
X17088482Y58645781D01*
X17088476Y58645778D01*
X17043387Y58614205D01*
X17038822Y58611296D01*
X16991139Y58583767D01*
X16991136Y58583765D01*
X16983838Y58577641D01*
X16948956Y58548371D01*
X16944693Y58545100D01*
X16899569Y58513504D01*
X16899565Y58513501D01*
X16734570Y58348505D01*
X16734545Y58348478D01*
X13611725Y55225659D01*
X13611703Y55225639D01*
X13446498Y55060434D01*
X13446496Y55060431D01*
X13414902Y55015310D01*
X13411626Y55011041D01*
X13396558Y54993083D01*
X13378394Y54971436D01*
X13376233Y54968861D01*
X13348704Y54921179D01*
X13345805Y54916628D01*
X13314218Y54871518D01*
X13314214Y54871511D01*
X13293601Y54827307D01*
X13255531Y54780447D01*
X13177800Y54722257D01*
X13177795Y54722252D01*
X13177790Y54722249D01*
X13177786Y54722245D01*
X13177779Y54722239D01*
X12980260Y54524720D01*
X12980244Y54524702D01*
X12812836Y54301071D01*
X12812831Y54301063D01*
X12678953Y54055884D01*
X12678951Y54055878D01*
X12581323Y53794129D01*
X12581321Y53794122D01*
X12581321Y53794121D01*
X12521942Y53521161D01*
X12521940Y53521147D01*
X12507000Y53312254D01*
X12507000Y53077746D01*
X12521940Y52868852D01*
X12521942Y52868838D01*
X12581321Y52595878D01*
X12581323Y52595871D01*
X12630137Y52464996D01*
X12678953Y52334115D01*
X12812831Y52088936D01*
X12812836Y52088928D01*
X12980244Y51865297D01*
X12980260Y51865279D01*
X13145681Y51699859D01*
X13179166Y51638536D01*
X13182000Y51612178D01*
X13182000Y47227456D01*
X13162315Y47160417D01*
X13136360Y47131354D01*
X12988892Y47011111D01*
X12868645Y46863639D01*
X12811024Y46824122D01*
X12772543Y46818000D01*
X12347296Y46818000D01*
X12280257Y46837685D01*
X12259615Y46854319D01*
X11649096Y47464838D01*
X9770570Y49343362D01*
X9770565Y49343369D01*
X9763505Y49350429D01*
X9763504Y49350431D01*
X9600431Y49513504D01*
X9555310Y49545095D01*
X9551048Y49548366D01*
X9508861Y49583767D01*
X9461159Y49611306D01*
X9456626Y49614194D01*
X9411517Y49645782D01*
X9361603Y49669056D01*
X9356815Y49671550D01*
X9309138Y49699077D01*
X9257386Y49717912D01*
X9252427Y49719965D01*
X9202505Y49743246D01*
X9149297Y49757502D01*
X9144191Y49759111D01*
X9092427Y49777953D01*
X9038204Y49787513D01*
X9032944Y49788678D01*
X8979743Y49802935D01*
X8924888Y49807733D01*
X8919556Y49808435D01*
X8865310Y49818001D01*
X8634690Y49818001D01*
X8632157Y49818001D01*
X8632133Y49818000D01*
X7727457Y49818000D01*
X7660418Y49837685D01*
X7631355Y49863639D01*
X7606903Y49893626D01*
X7511109Y50011109D01*
X7505174Y50015948D01*
X7363640Y50131354D01*
X7324122Y50188974D01*
X7318000Y50227456D01*
X7318000Y52631934D01*
X7318001Y52631959D01*
X7318001Y52865307D01*
X7318001Y52865310D01*
X7308435Y52919556D01*
X7307733Y52924888D01*
X7302935Y52979743D01*
X7288678Y53032944D01*
X7287513Y53038207D01*
X7280550Y53077696D01*
X7277953Y53092427D01*
X7259120Y53144167D01*
X7257498Y53149310D01*
X7243246Y53202505D01*
X7219969Y53252418D01*
X7217907Y53257399D01*
X7211193Y53275846D01*
X7199077Y53309139D01*
X7171534Y53356842D01*
X7169054Y53361607D01*
X7145782Y53411517D01*
X7114189Y53456636D01*
X7111308Y53461159D01*
X7083767Y53508862D01*
X7048358Y53551058D01*
X7045092Y53555315D01*
X7013504Y53600431D01*
X6850431Y53763504D01*
X6850428Y53763505D01*
X6844597Y53769337D01*
X6844581Y53769350D01*
X6671363Y53942569D01*
X6637879Y54003891D01*
X6642863Y54073583D01*
X6680684Y54126351D01*
X6791109Y54216390D01*
X6918332Y54372418D01*
X6919698Y54374093D01*
X7013909Y54554451D01*
X7069886Y54750082D01*
X7080500Y54869463D01*
X7080499Y56890536D01*
X7069886Y57009918D01*
X7013909Y57205549D01*
X6919698Y57385907D01*
X6893184Y57418423D01*
X6866074Y57482817D01*
X6878082Y57551648D01*
X6880453Y57556213D01*
X6908092Y57606830D01*
X7005696Y57868518D01*
X7065062Y58141415D01*
X7067107Y58170000D01*
X5574852Y58170000D01*
X5623559Y58307047D01*
X5633877Y58457886D01*
X5603116Y58605915D01*
X5569910Y58670000D01*
X7067107Y58670000D01*
X7065062Y58698584D01*
X7005696Y58971481D01*
X6908092Y59233170D01*
X6908090Y59233174D01*
X6785014Y59458573D01*
X6770162Y59526846D01*
X6794579Y59592311D01*
X6850513Y59634182D01*
X6893846Y59642000D01*
X9656987Y59642000D01*
X9724026Y59622315D01*
X9766894Y59575412D01*
X9814020Y59485196D01*
X9860302Y59396592D01*
X9936939Y59302604D01*
X9964047Y59238208D01*
X9952037Y59169378D01*
X9948223Y59162244D01*
X9873709Y59033181D01*
X9775148Y58782052D01*
X9775142Y58782033D01*
X9715113Y58519028D01*
X9715113Y58519026D01*
X9694953Y58250004D01*
X9694953Y58249995D01*
X9715113Y57980973D01*
X9715113Y57980971D01*
X9775142Y57717966D01*
X9775148Y57717947D01*
X9873709Y57466818D01*
X9873708Y57466818D01*
X10008600Y57233180D01*
X10062295Y57165848D01*
X11102046Y58205599D01*
X11114835Y58124852D01*
X11172359Y58011955D01*
X11261955Y57922359D01*
X11374852Y57864835D01*
X11455599Y57852046D01*
X10414848Y56811296D01*
X10597476Y56686783D01*
X10597485Y56686778D01*
X10840539Y56569730D01*
X10840537Y56569730D01*
X11098337Y56490209D01*
X11098343Y56490207D01*
X11365101Y56450000D01*
X11634898Y56450000D01*
X11901656Y56490207D01*
X11901662Y56490209D01*
X12159461Y56569730D01*
X12402516Y56686778D01*
X12402517Y56686779D01*
X12585150Y56811296D01*
X11544401Y57852046D01*
X11625148Y57864835D01*
X11738045Y57922359D01*
X11827641Y58011955D01*
X11885165Y58124852D01*
X11897953Y58205597D01*
X12937704Y57165847D01*
X12991397Y57233177D01*
X13126290Y57466818D01*
X13224851Y57717947D01*
X13224857Y57717966D01*
X13284886Y57980971D01*
X13284886Y57980973D01*
X13305047Y58249995D01*
X13305047Y58250004D01*
X13284886Y58519026D01*
X13284886Y58519028D01*
X13224857Y58782033D01*
X13224851Y58782052D01*
X13126292Y59033178D01*
X13051775Y59162243D01*
X13035302Y59230143D01*
X13058154Y59296170D01*
X13063046Y59302587D01*
X13139698Y59396593D01*
X13233909Y59576951D01*
X13289886Y59772582D01*
X13300500Y59891963D01*
X13300499Y60814808D01*
X13320183Y60881847D01*
X13336818Y60902489D01*
X13707009Y61272681D01*
X13768332Y61306166D01*
X13794690Y61309000D01*
X26955309Y61309000D01*
X27022348Y61289315D01*
X27042990Y61272681D01*
X35118903Y53196768D01*
X40387365Y47928305D01*
X40389342Y47926234D01*
X40444190Y47866071D01*
X40509162Y47817004D01*
X40511405Y47815227D01*
X40574038Y47763219D01*
X40574039Y47763218D01*
X40589688Y47754501D01*
X40594472Y47751836D01*
X40601666Y47747149D01*
X40620336Y47733051D01*
X40693209Y47696763D01*
X40695741Y47695429D01*
X40766864Y47655814D01*
X40789049Y47648377D01*
X40796983Y47645090D01*
X40817916Y47634668D01*
X40896221Y47612387D01*
X40898953Y47611541D01*
X40976150Y47585669D01*
X40999311Y47582437D01*
X41007716Y47580664D01*
X41030213Y47574264D01*
X41111278Y47566752D01*
X41114123Y47566422D01*
X41194756Y47555174D01*
X41194759Y47555174D01*
X41194760Y47555174D01*
X41238710Y47557206D01*
X41276082Y47558934D01*
X41278946Y47559000D01*
X49455309Y47559000D01*
X49522348Y47539315D01*
X49542990Y47522681D01*
X52637355Y44428316D01*
X52639332Y44426245D01*
X52694190Y44366071D01*
X52759158Y44317007D01*
X52761401Y44315231D01*
X52824037Y44263220D01*
X52824043Y44263216D01*
X52835641Y44256756D01*
X52844472Y44251836D01*
X52851666Y44247149D01*
X52870336Y44233051D01*
X52943209Y44196763D01*
X52945741Y44195429D01*
X53016864Y44155814D01*
X53039049Y44148377D01*
X53046983Y44145090D01*
X53067919Y44134667D01*
X53090448Y44128257D01*
X53149541Y44090977D01*
X53169410Y44060276D01*
X53182993Y44030372D01*
X53311174Y43845354D01*
X53311184Y43845342D01*
X53470342Y43686184D01*
X53470354Y43686174D01*
X53655367Y43557997D01*
X53655377Y43557991D01*
X53860318Y43464903D01*
X53860321Y43464902D01*
X54078579Y43409905D01*
X54078586Y43409904D01*
X54210781Y43399500D01*
X54210782Y43399500D01*
X54210783Y43399500D01*
X54999999Y43399500D01*
X55789218Y43399501D01*
X55921413Y43409904D01*
X55921420Y43409905D01*
X56139678Y43464902D01*
X56139681Y43464903D01*
X56344622Y43557991D01*
X56344623Y43557991D01*
X56344626Y43557993D01*
X56344632Y43557997D01*
X56529645Y43686174D01*
X56529650Y43686178D01*
X56529654Y43686181D01*
X56688819Y43845346D01*
X56735166Y43912243D01*
X56817002Y44030367D01*
X56817007Y44030374D01*
X56910096Y44235317D01*
X56934193Y44330949D01*
X56965094Y44453579D01*
X56965095Y44453586D01*
X56965096Y44453588D01*
X56975500Y44585783D01*
X56975499Y45914216D01*
X56965096Y46046412D01*
X56910096Y46264683D01*
X56817007Y46469626D01*
X56703043Y46634121D01*
X56681047Y46700437D01*
X56698395Y46768119D01*
X56704114Y46776873D01*
X56708799Y46783421D01*
X56771076Y46904550D01*
X56832649Y47024309D01*
X56832652Y47024318D01*
X56832656Y47024325D01*
X56901955Y47227456D01*
X56920115Y47280685D01*
X56920115Y47280688D01*
X56920118Y47280695D01*
X56969319Y47547067D01*
X56979212Y47817765D01*
X56949586Y48087018D01*
X56881072Y48349088D01*
X56775130Y48598390D01*
X56634018Y48829610D01*
X56560890Y48917481D01*
X56533139Y48981599D01*
X56544458Y49050546D01*
X56555351Y49068940D01*
X56708799Y49283421D01*
X56747162Y49358037D01*
X56832649Y49524309D01*
X56832652Y49524318D01*
X56832656Y49524325D01*
X56899405Y49719981D01*
X56920115Y49780685D01*
X56920115Y49780688D01*
X56920118Y49780695D01*
X56969319Y50047067D01*
X56979212Y50317765D01*
X56949586Y50587018D01*
X56881072Y50849088D01*
X56775130Y51098390D01*
X56634018Y51329610D01*
X56560890Y51417481D01*
X56533139Y51481599D01*
X56544458Y51550546D01*
X56555351Y51568940D01*
X56708799Y51783421D01*
X56750894Y51865297D01*
X56832649Y52024309D01*
X56832652Y52024318D01*
X56832656Y52024325D01*
X56894920Y52206833D01*
X56920115Y52280685D01*
X56920115Y52280688D01*
X56920118Y52280695D01*
X56969319Y52547067D01*
X56979212Y52817765D01*
X56949586Y53087018D01*
X56881072Y53349088D01*
X56775130Y53598390D01*
X56634018Y53829610D01*
X56560890Y53917481D01*
X56533139Y53981599D01*
X56544458Y54050546D01*
X56555351Y54068940D01*
X56708799Y54283421D01*
X56746783Y54357301D01*
X56832649Y54524309D01*
X56832652Y54524318D01*
X56832656Y54524325D01*
X56894052Y54704289D01*
X56920115Y54780685D01*
X56920115Y54780688D01*
X56920118Y54780695D01*
X56969319Y55047067D01*
X56979212Y55317765D01*
X56949586Y55587018D01*
X56881072Y55849088D01*
X56775130Y56098390D01*
X56634018Y56329610D01*
X56560559Y56417880D01*
X56532808Y56481997D01*
X56544127Y56550944D01*
X56555025Y56569347D01*
X56708369Y56783681D01*
X56708372Y56783686D01*
X56832187Y57024505D01*
X56832194Y57024523D01*
X56919629Y57280812D01*
X56919632Y57280826D01*
X56960116Y57499999D01*
X56960116Y57500000D01*
X55403969Y57500000D01*
X55436519Y57550649D01*
X55475000Y57681705D01*
X55475000Y57818295D01*
X55436519Y57949351D01*
X55403969Y58000000D01*
X56958657Y58000000D01*
X56949091Y58086923D01*
X56949090Y58086933D01*
X56880598Y58348920D01*
X56774682Y58598160D01*
X56633612Y58829313D01*
X56633611Y58829315D01*
X56460382Y59037474D01*
X56258695Y59218184D01*
X56032847Y59367604D01*
X55787635Y59482554D01*
X55528333Y59560567D01*
X55528319Y59560570D01*
X55260398Y59599999D01*
X55260397Y59600000D01*
X55250000Y59600000D01*
X55250000Y58158018D01*
X55135199Y58210446D01*
X55033975Y58225000D01*
X54966025Y58225000D01*
X54864801Y58210446D01*
X54750000Y58158018D01*
X54750000Y59595798D01*
X54604917Y59585180D01*
X54604907Y59585179D01*
X54340595Y59526300D01*
X54340590Y59526298D01*
X54087652Y59429557D01*
X53851501Y59297023D01*
X53851498Y59297021D01*
X53637157Y59131513D01*
X53449208Y58936569D01*
X53449202Y58936562D01*
X53291630Y58716318D01*
X53291627Y58716313D01*
X53167812Y58475494D01*
X53167805Y58475476D01*
X53080370Y58219187D01*
X53080367Y58219173D01*
X53039883Y58000000D01*
X54596031Y58000000D01*
X54563481Y57949351D01*
X54525000Y57818295D01*
X54525000Y57681705D01*
X54563481Y57550649D01*
X54596031Y57500000D01*
X53041343Y57500000D01*
X53050908Y57413076D01*
X53050909Y57413066D01*
X53119401Y57151079D01*
X53225317Y56901839D01*
X53366387Y56670686D01*
X53366393Y56670677D01*
X53439408Y56582939D01*
X53467160Y56518817D01*
X53455840Y56449871D01*
X53444947Y56431476D01*
X53441999Y56427355D01*
X53386984Y56384283D01*
X53341147Y56375500D01*
X53321382Y56375500D01*
X53310232Y56374435D01*
X53305832Y56374172D01*
X53240774Y56372624D01*
X53240769Y56372623D01*
X53240766Y56372623D01*
X53213582Y56366708D01*
X53204881Y56364815D01*
X53197599Y56363679D01*
X53161029Y56360188D01*
X53098579Y56341850D01*
X53094327Y56340765D01*
X53043043Y56329610D01*
X53030745Y56326935D01*
X53030743Y56326934D01*
X53030741Y56326934D01*
X53030737Y56326932D01*
X53030736Y56326932D01*
X52996980Y56312476D01*
X52990031Y56309978D01*
X52954793Y56299632D01*
X52954791Y56299631D01*
X52896971Y56269822D01*
X52892966Y56267935D01*
X52853296Y56250947D01*
X52833151Y56242321D01*
X52802728Y56221730D01*
X52796397Y56217973D01*
X52763741Y56201138D01*
X52712600Y56160921D01*
X52709025Y56158310D01*
X52655151Y56121848D01*
X52655146Y56121843D01*
X52655145Y56121843D01*
X52629164Y56095862D01*
X52623657Y56090975D01*
X52594783Y56068268D01*
X52594781Y56068266D01*
X52552172Y56019093D01*
X52549155Y56015853D01*
X49445122Y52911819D01*
X49383799Y52878334D01*
X49357441Y52875500D01*
X43017560Y52875500D01*
X42950521Y52895185D01*
X42929879Y52911819D01*
X40712661Y55129037D01*
X29619618Y66222077D01*
X29606293Y66237832D01*
X29604466Y66240399D01*
X29536349Y66305347D01*
X29507935Y66333762D01*
X29499284Y66340903D01*
X29496013Y66343806D01*
X29448903Y66388727D01*
X29417986Y66408595D01*
X29412065Y66412918D01*
X29383721Y66436322D01*
X29326594Y66467514D01*
X29322848Y66469735D01*
X29268080Y66504935D01*
X29233964Y66518591D01*
X29227311Y66521727D01*
X29195069Y66539334D01*
X29133072Y66559151D01*
X29128942Y66560636D01*
X29068532Y66584822D01*
X29042460Y66589846D01*
X29032468Y66591772D01*
X29025321Y66593595D01*
X28990331Y66604782D01*
X28925681Y66612510D01*
X28921381Y66613181D01*
X28857472Y66625500D01*
X28857467Y66625500D01*
X28820748Y66625500D01*
X28813381Y66625939D01*
X28810271Y66626310D01*
X28776906Y66630300D01*
X28712000Y66625657D01*
X28707579Y66625500D01*
X20219500Y66625500D01*
X20152461Y66645185D01*
X20106706Y66697989D01*
X20095500Y66749500D01*
X20095499Y68238032D01*
X20095499Y68238033D01*
X20090624Y68292876D01*
X20084886Y68357418D01*
X20028909Y68553049D01*
X19934698Y68733407D01*
X19874576Y68807140D01*
X19847468Y68871535D01*
X19859477Y68940365D01*
X19906792Y68991776D01*
X19970679Y69009500D01*
X20703022Y69009500D01*
X20703036Y69009501D01*
X20734872Y69012331D01*
X20822415Y69020113D01*
X21018045Y69076089D01*
X21018049Y69076091D01*
X21198407Y69170302D01*
X21284925Y69240848D01*
X21356109Y69298890D01*
X21432684Y69392803D01*
X21484698Y69456593D01*
X21578909Y69636951D01*
X21634886Y69832582D01*
X21645500Y69951963D01*
X21645499Y70415000D01*
X21665183Y70482039D01*
X21717987Y70527794D01*
X21769499Y70539000D01*
X30201047Y70539000D01*
X30203910Y70538934D01*
X30247928Y70536899D01*
X30285240Y70535174D01*
X30285243Y70535174D01*
X30365875Y70546422D01*
X30368720Y70546752D01*
X30417907Y70551310D01*
X30449783Y70554264D01*
X30449787Y70554264D01*
X30472278Y70560663D01*
X30480683Y70562436D01*
X30503851Y70565669D01*
X30581036Y70591539D01*
X30583771Y70592386D01*
X30591443Y70594569D01*
X30662082Y70614668D01*
X30683017Y70625092D01*
X30690955Y70628380D01*
X30713134Y70635814D01*
X30784257Y70675429D01*
X30786791Y70676764D01*
X30859661Y70713050D01*
X30859668Y70713055D01*
X30878331Y70727147D01*
X30885529Y70731837D01*
X30905956Y70743216D01*
X30905957Y70743216D01*
X30905961Y70743219D01*
X30968605Y70795238D01*
X30970848Y70797014D01*
X31035809Y70846070D01*
X31090655Y70906233D01*
X31092623Y70908294D01*
X32939255Y72754927D01*
X33000578Y72788412D01*
X33070270Y72783428D01*
X33111277Y72758145D01*
X33288826Y72593405D01*
X33294259Y72588365D01*
X33393673Y72520586D01*
X33517230Y72436346D01*
X33760358Y72319262D01*
X34018226Y72239720D01*
X34018232Y72239718D01*
X34285063Y72199500D01*
X34285071Y72199500D01*
X34554936Y72199500D01*
X34821767Y72239718D01*
X34821773Y72239720D01*
X35079644Y72319263D01*
X35322767Y72436344D01*
X35322768Y72436345D01*
X35322771Y72436347D01*
X35322775Y72436349D01*
X35545741Y72588365D01*
X35570657Y72611484D01*
X35746963Y72775071D01*
X35748329Y72773597D01*
X35801181Y72805090D01*
X35832072Y72809000D01*
X37955309Y72809000D01*
X38022348Y72789315D01*
X38042990Y72772681D01*
X40732681Y70082990D01*
X40766166Y70021667D01*
X40769000Y69995309D01*
X40769000Y69316847D01*
X40758435Y69266761D01*
X40714703Y69167716D01*
X40714467Y69167182D01*
X40714465Y69167176D01*
X40665652Y68959640D01*
X40665650Y68959625D01*
X40659500Y68871010D01*
X40659500Y67128988D01*
X40661412Y67101442D01*
X40646415Y67033201D01*
X40596905Y66983900D01*
X40528601Y66969193D01*
X40463188Y66993749D01*
X40458231Y66997678D01*
X40454325Y67000938D01*
X40269380Y67129068D01*
X40269374Y67129071D01*
X40064519Y67222122D01*
X39846332Y67277099D01*
X39714193Y67287500D01*
X39250000Y67287499D01*
X39250000Y65875000D01*
X40899999Y65875000D01*
X40899999Y66101692D01*
X40893143Y66188796D01*
X40907507Y66257174D01*
X40956558Y66306931D01*
X41024723Y66322270D01*
X41086837Y66300826D01*
X41247758Y66190593D01*
X41442817Y66104467D01*
X41442823Y66104465D01*
X41650359Y66055652D01*
X41650374Y66055650D01*
X41724705Y66050491D01*
X41738988Y66049500D01*
X41738990Y66049500D01*
X42181010Y66049500D01*
X42181012Y66049500D01*
X42196546Y66050578D01*
X42269625Y66055650D01*
X42269639Y66055652D01*
X42477175Y66104465D01*
X42477186Y66104468D01*
X42544915Y66134373D01*
X42614194Y66143444D01*
X42645085Y66134373D01*
X42712813Y66104468D01*
X42712824Y66104465D01*
X42920360Y66055652D01*
X42920374Y66055650D01*
X42994705Y66050491D01*
X43008988Y66049500D01*
X43008990Y66049500D01*
X43451010Y66049500D01*
X43451012Y66049500D01*
X43466546Y66050578D01*
X43539625Y66055650D01*
X43539639Y66055652D01*
X43747175Y66104465D01*
X43747186Y66104468D01*
X43814915Y66134373D01*
X43884194Y66143444D01*
X43915085Y66134373D01*
X43982813Y66104468D01*
X43982824Y66104465D01*
X44190360Y66055652D01*
X44190374Y66055650D01*
X44264705Y66050491D01*
X44278988Y66049500D01*
X44278990Y66049500D01*
X44721010Y66049500D01*
X44721012Y66049500D01*
X44736546Y66050578D01*
X44809625Y66055650D01*
X44809640Y66055652D01*
X45017176Y66104465D01*
X45017186Y66104468D01*
X45085533Y66134646D01*
X45154811Y66143717D01*
X45185702Y66134646D01*
X45252976Y66104942D01*
X45460434Y66056149D01*
X45460450Y66056146D01*
X45519998Y66052012D01*
X45520000Y66052013D01*
X45520000Y66395852D01*
X45539685Y66462891D01*
X45541700Y66465929D01*
X45591984Y66539335D01*
X45659409Y66637763D01*
X45745532Y66832815D01*
X45768616Y66930960D01*
X45775294Y66959350D01*
X45809804Y67020102D01*
X45871682Y67052552D01*
X45941280Y67046397D01*
X45996502Y67003592D01*
X46019815Y66937726D01*
X46020000Y66930960D01*
X46020000Y66052015D01*
X46020001Y66052013D01*
X46079559Y66056147D01*
X46079568Y66056148D01*
X46287017Y66104941D01*
X46287032Y66104946D01*
X46481990Y66191028D01*
X46657820Y66311474D01*
X46808525Y66462179D01*
X46928971Y66638009D01*
X47015053Y66832967D01*
X47015058Y66832982D01*
X47063850Y67040429D01*
X47063852Y67040443D01*
X47070000Y67129017D01*
X47070000Y67750000D01*
X46020000Y67750000D01*
X46012181Y67742181D01*
X45950858Y67708696D01*
X45881166Y67713680D01*
X45825233Y67755552D01*
X45800816Y67821016D01*
X45800500Y67829862D01*
X45800500Y68170138D01*
X45820185Y68237177D01*
X45872989Y68282932D01*
X45942147Y68292876D01*
X46005703Y68263851D01*
X46012181Y68257819D01*
X46020000Y68250000D01*
X47069999Y68250000D01*
X47069999Y68870982D01*
X47063852Y68959559D01*
X47063851Y68959568D01*
X47015058Y69167017D01*
X47015053Y69167032D01*
X46928971Y69361990D01*
X46808525Y69537820D01*
X46657820Y69688525D01*
X46481990Y69808971D01*
X46287032Y69895053D01*
X46287017Y69895058D01*
X46079568Y69943851D01*
X46079559Y69943852D01*
X46020001Y69947986D01*
X46020000Y69947985D01*
X46020000Y69069039D01*
X46000315Y69002000D01*
X45947511Y68956245D01*
X45878353Y68946301D01*
X45814797Y68975326D01*
X45777023Y69034104D01*
X45775294Y69040649D01*
X45748273Y69155529D01*
X45745532Y69167185D01*
X45701564Y69266761D01*
X45691000Y69316847D01*
X45691000Y72520586D01*
X45710685Y72587625D01*
X45730659Y72611484D01*
X45906963Y72775070D01*
X45908329Y72773597D01*
X45961181Y72805090D01*
X45992072Y72809000D01*
X46507928Y72809000D01*
X46574967Y72789315D01*
X46592574Y72774572D01*
X46593037Y72775071D01*
X46794258Y72588365D01*
X47017230Y72436346D01*
X47260358Y72319262D01*
X47518226Y72239720D01*
X47518232Y72239718D01*
X47785063Y72199500D01*
X47785071Y72199500D01*
X48054936Y72199500D01*
X48321767Y72239718D01*
X48321773Y72239720D01*
X48579644Y72319263D01*
X48822767Y72436344D01*
X48822768Y72436345D01*
X48822771Y72436347D01*
X48822775Y72436349D01*
X49045741Y72588365D01*
X49045742Y72588366D01*
X49243557Y72771910D01*
X49273135Y72809000D01*
X49411815Y72982898D01*
X49546743Y73216602D01*
X49645334Y73467805D01*
X49705383Y73730897D01*
X49725549Y74000000D01*
X49705383Y74269103D01*
X49645334Y74532195D01*
X49546743Y74783398D01*
X49411815Y75017102D01*
X49243561Y75228085D01*
X49117983Y75344604D01*
X49082230Y75404629D01*
X49084605Y75474458D01*
X49124355Y75531918D01*
X49188860Y75558767D01*
X49202326Y75559500D01*
X49958023Y75559500D01*
X49958036Y75559501D01*
X49989872Y75562331D01*
X50077415Y75570113D01*
X50273045Y75626089D01*
X50273049Y75626091D01*
X50453407Y75720302D01*
X50516697Y75771908D01*
X50611109Y75848890D01*
X50720377Y75982898D01*
X50739698Y76006593D01*
X50833909Y76186951D01*
X50889886Y76382582D01*
X50900500Y76501963D01*
X50900499Y78418036D01*
X50889886Y78537418D01*
X50833909Y78733049D01*
X50739698Y78913407D01*
X50691972Y78971936D01*
X50664864Y79036330D01*
X50676873Y79105160D01*
X50679243Y79109723D01*
X50733169Y79208481D01*
X50733171Y79208485D01*
X50733172Y79208487D01*
X50740574Y79228333D01*
X50782445Y79284267D01*
X50847910Y79308684D01*
X50856756Y79309000D01*
X53098217Y79309000D01*
X53165256Y79289315D01*
G37*
%TD.AperFunction*%
%TA.AperFunction,Conductor*%
G36*
X2090203Y83656266D02*
G01*
X2112537Y83630789D01*
X2115302Y83626592D01*
X2243893Y83468888D01*
X2339362Y83391043D01*
X2378878Y83333422D01*
X2385000Y83294942D01*
X2385000Y83180000D01*
X2643002Y83180000D01*
X2756191Y83190063D01*
X2778153Y83190063D01*
X2827082Y83185713D01*
X2896963Y83179500D01*
X2896964Y83179500D01*
X2896965Y83179500D01*
X2896966Y83179500D01*
X3332422Y83179500D01*
X3913036Y83179501D01*
X4029021Y83189812D01*
X4050979Y83189812D01*
X4166963Y83179500D01*
X4796738Y83179500D01*
X4863777Y83159815D01*
X4906954Y83112317D01*
X4911702Y83103108D01*
X4925181Y83076960D01*
X4927066Y83072958D01*
X4952676Y83013155D01*
X4952682Y83013145D01*
X4973266Y82982731D01*
X4977029Y82976389D01*
X4993862Y82943741D01*
X4993866Y82943734D01*
X5034077Y82892600D01*
X5036685Y82889028D01*
X5073160Y82835139D01*
X5099134Y82809165D01*
X5104030Y82803649D01*
X5126730Y82774784D01*
X5126732Y82774782D01*
X5175907Y82732170D01*
X5179146Y82729155D01*
X5380379Y82527921D01*
X5393693Y82512184D01*
X5395529Y82509605D01*
X5395533Y82509600D01*
X5440586Y82466643D01*
X5463649Y82444653D01*
X5492065Y82416238D01*
X5492071Y82416232D01*
X5500692Y82409113D01*
X5503999Y82406179D01*
X5551089Y82361279D01*
X5551105Y82361267D01*
X5581998Y82341412D01*
X5587954Y82337063D01*
X5616271Y82313683D01*
X5616278Y82313678D01*
X5673383Y82282496D01*
X5677189Y82280238D01*
X5731919Y82245065D01*
X5731922Y82245063D01*
X5766021Y82231411D01*
X5772694Y82228267D01*
X5804928Y82210667D01*
X5804934Y82210664D01*
X5866903Y82190855D01*
X5871069Y82189357D01*
X5931466Y82165178D01*
X5931469Y82165177D01*
X5967542Y82158223D01*
X5974687Y82156399D01*
X6009669Y82145218D01*
X6074274Y82137493D01*
X6078647Y82136811D01*
X6088152Y82134979D01*
X6142528Y82124500D01*
X6179261Y82124500D01*
X6186628Y82124061D01*
X6223093Y82119701D01*
X6223094Y82119701D01*
X6287988Y82124342D01*
X6292411Y82124500D01*
X18506732Y82124500D01*
X18573771Y82104815D01*
X18619526Y82052011D01*
X18629470Y81982853D01*
X18600445Y81919297D01*
X18585093Y81904398D01*
X18433961Y81781166D01*
X18433891Y81781109D01*
X18356044Y81685638D01*
X18298425Y81646122D01*
X18259944Y81640000D01*
X18145000Y81640000D01*
X18145000Y81381998D01*
X18155063Y81268810D01*
X18155063Y81246848D01*
X18148257Y81170297D01*
X18144500Y81128037D01*
X18144501Y80111964D01*
X18154455Y80000000D01*
X18154812Y79995980D01*
X18154812Y79974021D01*
X18144500Y79858037D01*
X18144501Y78841964D01*
X18154184Y78733047D01*
X18154812Y78725980D01*
X18154812Y78704021D01*
X18144500Y78588037D01*
X18144501Y77571964D01*
X18148037Y77532188D01*
X18154812Y77455980D01*
X18154812Y77434021D01*
X18144500Y77318037D01*
X18144500Y77318035D01*
X18144500Y77318034D01*
X18144501Y76301968D01*
X18144501Y76301967D01*
X18154812Y76185980D01*
X18154812Y76164021D01*
X18144500Y76048037D01*
X18144501Y75031964D01*
X18153300Y74932988D01*
X18154812Y74915980D01*
X18154812Y74894021D01*
X18144976Y74783392D01*
X18144500Y74778035D01*
X18144500Y74778034D01*
X18144501Y73761968D01*
X18144501Y73761967D01*
X18154812Y73645980D01*
X18154812Y73624021D01*
X18144500Y73508037D01*
X18144501Y72491964D01*
X18149446Y72436345D01*
X18154812Y72375980D01*
X18154812Y72354021D01*
X18144500Y72238037D01*
X18144500Y72238035D01*
X18144500Y72238034D01*
X18144501Y71221968D01*
X18144501Y71221967D01*
X18154812Y71105980D01*
X18154812Y71084019D01*
X18144500Y70968035D01*
X18144500Y70968034D01*
X18144501Y69951968D01*
X18144501Y69951967D01*
X18155113Y69832584D01*
X18211089Y69636954D01*
X18211091Y69636951D01*
X18305302Y69456593D01*
X18365424Y69382858D01*
X18392533Y69318464D01*
X18380524Y69249634D01*
X18333209Y69198224D01*
X18269322Y69180499D01*
X18136964Y69180499D01*
X18020979Y69170188D01*
X17999021Y69170188D01*
X17883037Y69180500D01*
X17883035Y69180499D01*
X17883035Y69180500D01*
X17883034Y69180500D01*
X17447577Y69180499D01*
X16866964Y69180499D01*
X16750979Y69170188D01*
X16729021Y69170188D01*
X16613037Y69180500D01*
X16613035Y69180499D01*
X16613035Y69180500D01*
X16613034Y69180500D01*
X16177577Y69180499D01*
X15596964Y69180499D01*
X15480979Y69170188D01*
X15459021Y69170188D01*
X15343037Y69180500D01*
X15343035Y69180499D01*
X15343035Y69180500D01*
X15343034Y69180500D01*
X14907577Y69180499D01*
X14326964Y69180499D01*
X14210979Y69170188D01*
X14189021Y69170188D01*
X14073037Y69180500D01*
X14073035Y69180499D01*
X14073035Y69180500D01*
X14073034Y69180500D01*
X13637577Y69180499D01*
X13056964Y69180499D01*
X12940979Y69170188D01*
X12919021Y69170188D01*
X12803037Y69180500D01*
X12803035Y69180499D01*
X12803035Y69180500D01*
X12803034Y69180500D01*
X12367577Y69180499D01*
X11786964Y69180499D01*
X11670979Y69170188D01*
X11649021Y69170188D01*
X11533037Y69180500D01*
X11533035Y69180499D01*
X11533035Y69180500D01*
X11533034Y69180500D01*
X11097577Y69180499D01*
X10516964Y69180499D01*
X10400979Y69170188D01*
X10379021Y69170188D01*
X10263037Y69180500D01*
X10263035Y69180499D01*
X10263035Y69180500D01*
X10263034Y69180500D01*
X9827577Y69180499D01*
X9246964Y69180499D01*
X9130979Y69170188D01*
X9109021Y69170188D01*
X8993037Y69180500D01*
X8993035Y69180499D01*
X8993035Y69180500D01*
X8993034Y69180500D01*
X8557577Y69180499D01*
X7976964Y69180499D01*
X7860979Y69170188D01*
X7839021Y69170188D01*
X7723037Y69180500D01*
X7723035Y69180499D01*
X7723035Y69180500D01*
X7723034Y69180500D01*
X7287577Y69180499D01*
X6706964Y69180499D01*
X6590979Y69170188D01*
X6569021Y69170188D01*
X6453037Y69180500D01*
X6453035Y69180499D01*
X6453035Y69180500D01*
X6453034Y69180500D01*
X6017577Y69180499D01*
X5436964Y69180499D01*
X5320979Y69170188D01*
X5299021Y69170188D01*
X5183037Y69180500D01*
X5183035Y69180499D01*
X5183035Y69180500D01*
X5183034Y69180500D01*
X4747577Y69180499D01*
X4166964Y69180499D01*
X4050979Y69170188D01*
X4029021Y69170188D01*
X3913037Y69180500D01*
X3913035Y69180499D01*
X3913035Y69180500D01*
X3913034Y69180500D01*
X3477577Y69180499D01*
X2896964Y69180499D01*
X2778144Y69169936D01*
X2756190Y69169936D01*
X2643001Y69180000D01*
X2385000Y69180000D01*
X2385000Y69065056D01*
X2365315Y68998017D01*
X2339362Y68968955D01*
X2243891Y68891109D01*
X2243889Y68891107D01*
X2243888Y68891106D01*
X2115303Y68733408D01*
X2112540Y68729215D01*
X2059215Y68684069D01*
X1989948Y68674918D01*
X1926729Y68704670D01*
X1889630Y68763877D01*
X1885000Y68797446D01*
X1885000Y69180000D01*
X1626998Y69180000D01*
X1507674Y69169391D01*
X1507671Y69169390D01*
X1312140Y69113443D01*
X1181412Y69045156D01*
X1112877Y69031565D01*
X1047873Y69057184D01*
X1007040Y69113879D01*
X1000000Y69155065D01*
X1000000Y76610000D01*
X6375000Y76610000D01*
X6375000Y74701998D01*
X6385608Y74582674D01*
X6385609Y74582671D01*
X6441557Y74387138D01*
X6535721Y74206870D01*
X6664246Y74049246D01*
X6821870Y73920721D01*
X7002138Y73826557D01*
X7197671Y73770609D01*
X7197674Y73770608D01*
X7316998Y73760000D01*
X9225000Y73760000D01*
X9725000Y73760000D01*
X11633002Y73760000D01*
X11752325Y73770608D01*
X11752328Y73770609D01*
X11947861Y73826557D01*
X12128129Y73920721D01*
X12285753Y74049246D01*
X12414278Y74206870D01*
X12508442Y74387138D01*
X12564390Y74582671D01*
X12564391Y74582674D01*
X12575000Y74701998D01*
X12575000Y76610000D01*
X11250000Y76610000D01*
X11250000Y75209000D01*
X11230315Y75141961D01*
X11177511Y75096206D01*
X11126000Y75085000D01*
X9725000Y75085000D01*
X9725000Y73760000D01*
X9225000Y73760000D01*
X9225000Y75085000D01*
X7824000Y75085000D01*
X7756961Y75104685D01*
X7711206Y75157489D01*
X7700000Y75209000D01*
X7700000Y76610000D01*
X8200000Y76610000D01*
X8200000Y75585000D01*
X9225000Y75585000D01*
X9225000Y76610000D01*
X9725000Y76610000D01*
X9725000Y75585000D01*
X10750000Y75585000D01*
X10750000Y76610000D01*
X9725000Y76610000D01*
X9225000Y76610000D01*
X8200000Y76610000D01*
X7700000Y76610000D01*
X6375000Y76610000D01*
X1000000Y76610000D01*
X1000000Y77110000D01*
X6375000Y77110000D01*
X7700000Y77110000D01*
X7700000Y78135000D01*
X8200000Y78135000D01*
X8200000Y77110000D01*
X9225000Y77110000D01*
X9225000Y78135000D01*
X9725000Y78135000D01*
X9725000Y77110000D01*
X10750000Y77110000D01*
X10750000Y78135000D01*
X9725000Y78135000D01*
X9225000Y78135000D01*
X8200000Y78135000D01*
X7700000Y78135000D01*
X7700000Y78511000D01*
X7719685Y78578039D01*
X7772489Y78623794D01*
X7824000Y78635000D01*
X9225000Y78635000D01*
X9225000Y79960000D01*
X9725000Y79960000D01*
X9725000Y78635000D01*
X11126000Y78635000D01*
X11193039Y78615315D01*
X11238794Y78562511D01*
X11250000Y78511000D01*
X11250000Y77110000D01*
X12575000Y77110000D01*
X12575000Y79018002D01*
X12564391Y79137325D01*
X12564390Y79137328D01*
X12508442Y79332861D01*
X12414278Y79513129D01*
X12285753Y79670753D01*
X12128129Y79799278D01*
X11947861Y79893442D01*
X11752328Y79949390D01*
X11752325Y79949391D01*
X11633002Y79960000D01*
X9725000Y79960000D01*
X9225000Y79960000D01*
X7316998Y79960000D01*
X7197674Y79949391D01*
X7197671Y79949390D01*
X7002138Y79893442D01*
X6821870Y79799278D01*
X6664246Y79670753D01*
X6535721Y79513129D01*
X6441557Y79332861D01*
X6385609Y79137328D01*
X6385608Y79137325D01*
X6375000Y79018002D01*
X6375000Y77110000D01*
X1000000Y77110000D01*
X1000000Y83204934D01*
X1019685Y83271973D01*
X1072489Y83317728D01*
X1141647Y83327672D01*
X1181411Y83314843D01*
X1312138Y83246557D01*
X1507671Y83190609D01*
X1507674Y83190608D01*
X1626998Y83180000D01*
X1885000Y83180000D01*
X1885000Y83562553D01*
X1904685Y83629592D01*
X1957489Y83675347D01*
X2026647Y83685291D01*
X2090203Y83656266D01*
G37*
%TD.AperFunction*%
%TA.AperFunction,Conductor*%
G36*
X52837276Y95980315D02*
G01*
X52883031Y95927511D01*
X52892975Y95858353D01*
X52863950Y95794797D01*
X52862115Y95792727D01*
X52749058Y95667988D01*
X52749055Y95667984D01*
X52749054Y95667983D01*
X52503200Y95336487D01*
X52291022Y94982490D01*
X52114564Y94609400D01*
X52114562Y94609395D01*
X52114555Y94609379D01*
X51975527Y94220821D01*
X51975525Y94220815D01*
X51975524Y94220811D01*
X51963578Y94173118D01*
X51875244Y93820471D01*
X51832106Y93529657D01*
X51814685Y93412218D01*
X51794434Y93000000D01*
X51814685Y92587782D01*
X51814685Y92587776D01*
X51814686Y92587772D01*
X51875244Y92179528D01*
X51975527Y91779178D01*
X52114555Y91390620D01*
X52114562Y91390604D01*
X52291024Y91017506D01*
X52503198Y90663515D01*
X52749058Y90332011D01*
X53026215Y90026215D01*
X53332011Y89749058D01*
X53663515Y89503198D01*
X54017506Y89291024D01*
X54017509Y89291022D01*
X54017510Y89291022D01*
X54121011Y89242070D01*
X54390604Y89114562D01*
X54390620Y89114555D01*
X54779178Y88975527D01*
X54779186Y88975524D01*
X54779189Y88975524D01*
X54838502Y88960667D01*
X55179528Y88875244D01*
X55587772Y88814686D01*
X55587776Y88814685D01*
X55587782Y88814685D01*
X56000000Y88794434D01*
X56412218Y88814685D01*
X56412223Y88814685D01*
X56412227Y88814686D01*
X56813602Y88874225D01*
X56820465Y88875243D01*
X56820466Y88875243D01*
X56820471Y88875244D01*
X57079729Y88940185D01*
X57220811Y88975524D01*
X57220815Y88975525D01*
X57220821Y88975527D01*
X57609379Y89114555D01*
X57609395Y89114562D01*
X57609396Y89114562D01*
X57609400Y89114564D01*
X57982490Y89291022D01*
X58171196Y89404128D01*
X58336484Y89503198D01*
X58489806Y89616909D01*
X58667983Y89749054D01*
X58667984Y89749055D01*
X58667988Y89749058D01*
X58792727Y89862115D01*
X58855619Y89892551D01*
X58924982Y89884153D01*
X58978794Y89839587D01*
X58999969Y89773003D01*
X59000000Y89770237D01*
X59000000Y75752700D01*
X58980315Y75685661D01*
X58927511Y75639906D01*
X58858353Y75629962D01*
X58822201Y75640978D01*
X58739641Y75680738D01*
X58481772Y75760280D01*
X58481768Y75760280D01*
X58481767Y75760281D01*
X58214936Y75800499D01*
X58214933Y75800499D01*
X58214929Y75800500D01*
X57945071Y75800500D01*
X57945068Y75800499D01*
X57945063Y75800499D01*
X57678232Y75760281D01*
X57678229Y75760280D01*
X57678228Y75760280D01*
X57420359Y75680738D01*
X57306041Y75625685D01*
X57190647Y75570114D01*
X57177226Y75563651D01*
X56954259Y75411635D01*
X56954258Y75411634D01*
X56756442Y75228089D01*
X56756439Y75228085D01*
X56588185Y75017102D01*
X56519086Y74897418D01*
X56453258Y74783400D01*
X56453254Y74783392D01*
X56430428Y74725232D01*
X56387612Y74670018D01*
X56321742Y74646717D01*
X56253732Y74662728D01*
X56205173Y74712966D01*
X56191000Y74770534D01*
X56191000Y78658344D01*
X56210685Y78725383D01*
X56263489Y78771138D01*
X56263718Y78771243D01*
X56283730Y78780333D01*
X56344626Y78807993D01*
X56344627Y78807993D01*
X56344632Y78807996D01*
X56529645Y78936174D01*
X56529650Y78936178D01*
X56529654Y78936181D01*
X56688819Y79095346D01*
X56695619Y79105160D01*
X56811143Y79271910D01*
X56817007Y79280374D01*
X56910096Y79485317D01*
X56949358Y79641130D01*
X56965094Y79703579D01*
X56965095Y79703586D01*
X56965096Y79703588D01*
X56973862Y79814973D01*
X56975500Y79835781D01*
X56975499Y81164218D01*
X56973980Y81183505D01*
X56965096Y81296412D01*
X56910096Y81514683D01*
X56817007Y81719626D01*
X56703043Y81884121D01*
X56681047Y81950437D01*
X56698395Y82018119D01*
X56704114Y82026873D01*
X56708799Y82033421D01*
X56755626Y82124500D01*
X56832649Y82274309D01*
X56832652Y82274318D01*
X56832656Y82274325D01*
X56909153Y82498553D01*
X56920115Y82530685D01*
X56920115Y82530688D01*
X56920118Y82530695D01*
X56969319Y82797067D01*
X56979212Y83067765D01*
X56949586Y83337018D01*
X56881072Y83599088D01*
X56775130Y83848390D01*
X56634018Y84079610D01*
X56560559Y84167880D01*
X56532808Y84231997D01*
X56544127Y84300944D01*
X56555025Y84319347D01*
X56708369Y84533681D01*
X56708372Y84533686D01*
X56832187Y84774505D01*
X56832194Y84774523D01*
X56919629Y85030812D01*
X56919632Y85030826D01*
X56960116Y85249999D01*
X56960116Y85250000D01*
X55403969Y85250000D01*
X55436519Y85300649D01*
X55475000Y85431705D01*
X55475000Y85568295D01*
X55436519Y85699351D01*
X55403969Y85750000D01*
X56958657Y85750000D01*
X56949091Y85836923D01*
X56949090Y85836933D01*
X56880598Y86098920D01*
X56774682Y86348160D01*
X56633612Y86579313D01*
X56633611Y86579315D01*
X56460382Y86787474D01*
X56258695Y86968184D01*
X56032847Y87117604D01*
X55787635Y87232554D01*
X55528333Y87310567D01*
X55528319Y87310570D01*
X55260398Y87349999D01*
X55260397Y87350000D01*
X55250000Y87350000D01*
X55250000Y85908018D01*
X55135199Y85960446D01*
X55033975Y85975000D01*
X54966025Y85975000D01*
X54864801Y85960446D01*
X54750000Y85908018D01*
X54750000Y87345798D01*
X54604917Y87335180D01*
X54604907Y87335179D01*
X54340595Y87276300D01*
X54340590Y87276298D01*
X54087652Y87179557D01*
X53851501Y87047023D01*
X53851498Y87047021D01*
X53637157Y86881513D01*
X53449208Y86686569D01*
X53449202Y86686562D01*
X53291630Y86466318D01*
X53291627Y86466313D01*
X53167812Y86225494D01*
X53167805Y86225476D01*
X53080370Y85969187D01*
X53080367Y85969173D01*
X53039883Y85750000D01*
X54596031Y85750000D01*
X54563481Y85699351D01*
X54525000Y85568295D01*
X54525000Y85431705D01*
X54563481Y85300649D01*
X54596031Y85250000D01*
X53041343Y85250000D01*
X53050908Y85163076D01*
X53050909Y85163066D01*
X53119401Y84901079D01*
X53225317Y84651839D01*
X53366387Y84420686D01*
X53366394Y84420676D01*
X53388329Y84394319D01*
X53416082Y84330198D01*
X53404763Y84261251D01*
X53357965Y84209370D01*
X53293017Y84191000D01*
X46624691Y84191000D01*
X46557652Y84210685D01*
X46537014Y84227314D01*
X46417319Y84347008D01*
X46383836Y84408329D01*
X46381349Y84443955D01*
X46385549Y84499996D01*
X46385549Y84500004D01*
X46365383Y84769101D01*
X46364150Y84774505D01*
X46305334Y85032195D01*
X46206743Y85283398D01*
X46071815Y85517102D01*
X45903561Y85728085D01*
X45892836Y85738036D01*
X45859259Y85769190D01*
X45705741Y85911635D01*
X45482775Y86063651D01*
X45239641Y86180738D01*
X44981772Y86260280D01*
X44981768Y86260280D01*
X44981767Y86260281D01*
X44714936Y86300499D01*
X44714933Y86300499D01*
X44714929Y86300500D01*
X44445071Y86300500D01*
X44445068Y86300499D01*
X44445063Y86300499D01*
X44178232Y86260281D01*
X44178229Y86260280D01*
X44178228Y86260280D01*
X43920359Y86180738D01*
X43677226Y86063651D01*
X43454259Y85911635D01*
X43443183Y85901358D01*
X43256442Y85728089D01*
X43256439Y85728085D01*
X43088185Y85517102D01*
X42981770Y85332784D01*
X42953258Y85283400D01*
X42953256Y85283396D01*
X42854666Y85032195D01*
X42854664Y85032188D01*
X42794616Y84769101D01*
X42774451Y84500004D01*
X42774451Y84499995D01*
X42794616Y84230898D01*
X42854664Y83967811D01*
X42854666Y83967804D01*
X42953256Y83716603D01*
X42953258Y83716599D01*
X43088185Y83482898D01*
X43256444Y83271908D01*
X43256447Y83271905D01*
X43349341Y83185713D01*
X43385096Y83125685D01*
X43389000Y83094815D01*
X43389000Y81124691D01*
X43369315Y81057652D01*
X43352681Y81037010D01*
X41897700Y79582029D01*
X41617954Y79302284D01*
X41617911Y79302239D01*
X41287606Y78971935D01*
X41178295Y78862624D01*
X41176234Y78860656D01*
X41116070Y78805809D01*
X41077301Y78754470D01*
X41067014Y78740848D01*
X41065238Y78738605D01*
X41013219Y78675961D01*
X41013216Y78675957D01*
X41013216Y78675956D01*
X41001837Y78655529D01*
X40997147Y78648331D01*
X40983055Y78629668D01*
X40983050Y78629661D01*
X40946764Y78556791D01*
X40945429Y78554257D01*
X40905814Y78483134D01*
X40898380Y78460955D01*
X40895092Y78453017D01*
X40884668Y78432082D01*
X40878850Y78411634D01*
X40862386Y78353771D01*
X40861539Y78351036D01*
X40835669Y78273851D01*
X40832436Y78250683D01*
X40830663Y78242278D01*
X40824264Y78219787D01*
X40824264Y78219782D01*
X40816752Y78138720D01*
X40816422Y78135875D01*
X40805174Y78055243D01*
X40808934Y77973909D01*
X40809000Y77971046D01*
X40809000Y73674690D01*
X40789315Y73607651D01*
X40736511Y73561896D01*
X40667353Y73551952D01*
X40603797Y73580977D01*
X40597319Y73587009D01*
X40135082Y74049246D01*
X39362602Y74821725D01*
X39360655Y74823765D01*
X39305809Y74883930D01*
X39240813Y74933011D01*
X39238620Y74934748D01*
X39175961Y74986781D01*
X39155516Y74998167D01*
X39148327Y75002854D01*
X39129667Y75016946D01*
X39056785Y75053236D01*
X39054274Y75054560D01*
X39054258Y75054569D01*
X38983131Y75094187D01*
X38960951Y75101620D01*
X38953017Y75104906D01*
X38932082Y75115332D01*
X38853761Y75137615D01*
X38851072Y75138447D01*
X38773848Y75164331D01*
X38750700Y75167560D01*
X38750686Y75167562D01*
X38742282Y75169334D01*
X38719783Y75175736D01*
X38638694Y75183249D01*
X38635913Y75183571D01*
X38555240Y75194826D01*
X38480194Y75191356D01*
X38473910Y75191066D01*
X38471047Y75191000D01*
X35832072Y75191000D01*
X35765033Y75210685D01*
X35747425Y75225427D01*
X35746963Y75224929D01*
X35650659Y75314285D01*
X35614904Y75374313D01*
X35611000Y75405184D01*
X35611000Y75594815D01*
X35630685Y75661854D01*
X35650659Y75685713D01*
X35743552Y75771905D01*
X35743555Y75771908D01*
X35744902Y75773597D01*
X35911815Y75982898D01*
X36046743Y76216602D01*
X36145334Y76467805D01*
X36205383Y76730897D01*
X36214435Y76851694D01*
X36225549Y76999995D01*
X36225549Y77000003D01*
X36221349Y77056044D01*
X36235968Y77124367D01*
X36257321Y77152992D01*
X37651693Y78547365D01*
X37653765Y78549344D01*
X37713930Y78604191D01*
X37740274Y78639077D01*
X37762993Y78669161D01*
X37764772Y78671407D01*
X37810090Y78725981D01*
X37816781Y78734039D01*
X37828167Y78754480D01*
X37832847Y78761662D01*
X37846946Y78780333D01*
X37883238Y78853217D01*
X37884572Y78855746D01*
X37924182Y78926861D01*
X37924186Y78926869D01*
X37924187Y78926870D01*
X37931619Y78949046D01*
X37934908Y78956984D01*
X37945332Y78977918D01*
X37967621Y79056258D01*
X37968460Y79058964D01*
X37978452Y79088778D01*
X38011685Y79140273D01*
X38015661Y79143962D01*
X38078194Y79175129D01*
X38147650Y79167540D01*
X38184340Y79143960D01*
X38244254Y79088368D01*
X38467230Y78936346D01*
X38710358Y78819262D01*
X38968226Y78739720D01*
X38968232Y78739718D01*
X39235063Y78699500D01*
X39235071Y78699500D01*
X39504936Y78699500D01*
X39771767Y78739718D01*
X39771773Y78739720D01*
X39993108Y78807993D01*
X40029641Y78819262D01*
X40029644Y78819263D01*
X40272767Y78936344D01*
X40272768Y78936345D01*
X40272771Y78936347D01*
X40272775Y78936349D01*
X40495741Y79088365D01*
X40513842Y79105160D01*
X40693557Y79271910D01*
X40717726Y79302217D01*
X40861815Y79482898D01*
X40996743Y79716602D01*
X41095334Y79967805D01*
X41155383Y80230897D01*
X41162598Y80327181D01*
X41175549Y80499995D01*
X41175549Y80500004D01*
X41155383Y80769101D01*
X41150268Y80791513D01*
X41095334Y81032195D01*
X40996743Y81283398D01*
X40861815Y81517102D01*
X40757597Y81647785D01*
X40731190Y81712470D01*
X40743945Y81781166D01*
X40757598Y81802410D01*
X40820386Y81881143D01*
X40951568Y82108357D01*
X41047420Y82352584D01*
X41105802Y82608370D01*
X41112631Y82699500D01*
X41125408Y82869995D01*
X41125408Y82870004D01*
X41105803Y83131620D01*
X41105802Y83131625D01*
X41105802Y83131630D01*
X41047420Y83387416D01*
X40951568Y83631643D01*
X40820386Y83858857D01*
X40656805Y84063981D01*
X40626286Y84092298D01*
X40576249Y84138726D01*
X40464479Y84242433D01*
X40247704Y84390228D01*
X40011323Y84504063D01*
X39760615Y84581396D01*
X39501182Y84620500D01*
X39238818Y84620500D01*
X38979385Y84581396D01*
X38728677Y84504063D01*
X38728673Y84504061D01*
X38492303Y84390232D01*
X38492302Y84390231D01*
X38492296Y84390228D01*
X38293857Y84254934D01*
X38275520Y84242432D01*
X38083198Y84063985D01*
X38051736Y84024533D01*
X37919614Y83858857D01*
X37788432Y83631643D01*
X37694004Y83391043D01*
X37692582Y83387421D01*
X37692576Y83387402D01*
X37660323Y83246091D01*
X37634920Y83134791D01*
X37634197Y83131625D01*
X37634196Y83131620D01*
X37614592Y82870004D01*
X37614592Y82869995D01*
X37634196Y82608379D01*
X37634197Y82608374D01*
X37692576Y82352597D01*
X37692582Y82352578D01*
X37707610Y82314288D01*
X37713779Y82244691D01*
X37681341Y82182808D01*
X37620596Y82148285D01*
X37550829Y82152085D01*
X37538388Y82157262D01*
X37489641Y82180738D01*
X37231772Y82260280D01*
X37231768Y82260280D01*
X37231767Y82260281D01*
X36964936Y82300499D01*
X36964933Y82300499D01*
X36964929Y82300500D01*
X36695071Y82300500D01*
X36695068Y82300499D01*
X36695063Y82300499D01*
X36428232Y82260281D01*
X36428229Y82260280D01*
X36428228Y82260280D01*
X36170359Y82180738D01*
X35927226Y82063651D01*
X35704259Y81911635D01*
X35704258Y81911634D01*
X35506442Y81728089D01*
X35506439Y81728085D01*
X35338185Y81517102D01*
X35295431Y81443049D01*
X35203258Y81283400D01*
X35203256Y81283396D01*
X35104666Y81032195D01*
X35104664Y81032188D01*
X35044616Y80769101D01*
X35024451Y80500004D01*
X35024451Y80499995D01*
X35044616Y80230898D01*
X35104664Y79967811D01*
X35104666Y79967804D01*
X35203256Y79716604D01*
X35203259Y79716598D01*
X35246829Y79641130D01*
X35263300Y79573230D01*
X35240447Y79507203D01*
X35227122Y79491451D01*
X34572490Y78836819D01*
X34511167Y78803334D01*
X34484809Y78800500D01*
X34285071Y78800500D01*
X34285068Y78800499D01*
X34285063Y78800499D01*
X34018232Y78760281D01*
X34018229Y78760280D01*
X34018228Y78760280D01*
X33760359Y78680738D01*
X33517226Y78563651D01*
X33303642Y78418032D01*
X33294258Y78411634D01*
X33096442Y78228089D01*
X33082563Y78210685D01*
X32928185Y78017102D01*
X32861965Y77902404D01*
X32793258Y77783400D01*
X32793256Y77783396D01*
X32694666Y77532195D01*
X32694664Y77532188D01*
X32634616Y77269101D01*
X32614451Y77000004D01*
X32614451Y76999995D01*
X32634616Y76730898D01*
X32694664Y76467811D01*
X32694666Y76467804D01*
X32793256Y76216603D01*
X32793258Y76216599D01*
X32928185Y75982898D01*
X33096444Y75771908D01*
X33096447Y75771905D01*
X33189341Y75685713D01*
X33225096Y75625685D01*
X33229000Y75594815D01*
X33229000Y75405184D01*
X33209315Y75338145D01*
X33189341Y75314285D01*
X33093037Y75224929D01*
X33091670Y75226402D01*
X33038819Y75194910D01*
X33007928Y75191000D01*
X32528953Y75191000D01*
X32526090Y75191066D01*
X32515871Y75191538D01*
X32444760Y75194826D01*
X32364092Y75183572D01*
X32361301Y75183248D01*
X32280217Y75175736D01*
X32280213Y75175735D01*
X32280211Y75175735D01*
X32257720Y75169335D01*
X32249305Y75167560D01*
X32226153Y75164331D01*
X32171541Y75146027D01*
X32148954Y75138457D01*
X32146248Y75137618D01*
X32067918Y75115332D01*
X32046988Y75104910D01*
X32046986Y75104909D01*
X32039048Y75101620D01*
X32016869Y75094187D01*
X32016865Y75094185D01*
X32016860Y75094183D01*
X31945741Y75054569D01*
X31943211Y75053235D01*
X31870333Y75016946D01*
X31851665Y75002849D01*
X31844477Y74998164D01*
X31824039Y74986781D01*
X31812198Y74976948D01*
X31761407Y74934772D01*
X31759161Y74932993D01*
X31732133Y74912582D01*
X31694191Y74883930D01*
X31639353Y74823775D01*
X31639344Y74823765D01*
X31637365Y74821693D01*
X29772990Y72957319D01*
X29711667Y72923834D01*
X29685309Y72921000D01*
X21769500Y72921000D01*
X21702461Y72940685D01*
X21656706Y72993489D01*
X21645500Y73045000D01*
X21645499Y73508032D01*
X21645499Y73508033D01*
X21643767Y73527513D01*
X21635188Y73624020D01*
X21635188Y73645981D01*
X21637741Y73674690D01*
X21645500Y73761963D01*
X21645499Y74778036D01*
X21635188Y74894020D01*
X21635188Y74915981D01*
X21636778Y74933857D01*
X21645500Y75031963D01*
X21645499Y76048036D01*
X21638657Y76125000D01*
X26600001Y76125000D01*
X26600001Y75898308D01*
X26610400Y75766167D01*
X26665377Y75547980D01*
X26758428Y75343125D01*
X26758431Y75343119D01*
X26886559Y75158176D01*
X26886569Y75158164D01*
X27045664Y74999069D01*
X27045676Y74999059D01*
X27230619Y74870931D01*
X27230625Y74870928D01*
X27435480Y74777877D01*
X27653667Y74722900D01*
X27785806Y74712500D01*
X28250000Y74712500D01*
X28250000Y76125000D01*
X28750000Y76125000D01*
X28750000Y74712500D01*
X29214192Y74712501D01*
X29346332Y74722900D01*
X29564519Y74777877D01*
X29769374Y74870928D01*
X29769380Y74870931D01*
X29954323Y74999059D01*
X29954335Y74999069D01*
X30113430Y75158164D01*
X30113440Y75158176D01*
X30241568Y75343119D01*
X30241571Y75343125D01*
X30334622Y75547980D01*
X30389599Y75766167D01*
X30400000Y75898306D01*
X30400000Y76125000D01*
X28750000Y76125000D01*
X28250000Y76125000D01*
X26600001Y76125000D01*
X21638657Y76125000D01*
X21635188Y76164020D01*
X21635188Y76185981D01*
X21637911Y76216602D01*
X21645500Y76301963D01*
X21645499Y77318036D01*
X21635188Y77434020D01*
X21635188Y77455981D01*
X21641964Y77532188D01*
X21645500Y77571963D01*
X21645499Y78588036D01*
X21635188Y78704020D01*
X21635188Y78725981D01*
X21635817Y78733049D01*
X21645500Y78841963D01*
X21645499Y79419999D01*
X22213687Y79419999D01*
X22215112Y79400977D01*
X22215114Y79400968D01*
X22275142Y79137966D01*
X22275148Y79137947D01*
X22373709Y78886818D01*
X22373708Y78886818D01*
X22508600Y78653181D01*
X22676810Y78442251D01*
X22874571Y78258757D01*
X23097483Y78106779D01*
X23097485Y78106778D01*
X23340539Y77989730D01*
X23340537Y77989730D01*
X23598334Y77910210D01*
X23750000Y77887349D01*
X23750000Y79354314D01*
X23761955Y79342359D01*
X23874852Y79284835D01*
X23968519Y79270000D01*
X24031481Y79270000D01*
X24125148Y79284835D01*
X24238045Y79342359D01*
X24250000Y79354314D01*
X24250000Y77887349D01*
X24401665Y77910210D01*
X24659461Y77989730D01*
X24902516Y78106778D01*
X24902517Y78106779D01*
X25125428Y78258757D01*
X25323189Y78442251D01*
X25491399Y78653181D01*
X25626290Y78886818D01*
X25724851Y79137947D01*
X25724857Y79137966D01*
X25784885Y79400968D01*
X25784887Y79400977D01*
X25786312Y79419999D01*
X25786312Y79420000D01*
X24315686Y79420000D01*
X24327641Y79431955D01*
X24385165Y79544852D01*
X24404986Y79670000D01*
X24385165Y79795148D01*
X24327641Y79908045D01*
X24315686Y79920000D01*
X25786312Y79920000D01*
X25784887Y79939022D01*
X25784885Y79939031D01*
X25724857Y80202033D01*
X25724851Y80202052D01*
X25626290Y80453181D01*
X25626291Y80453181D01*
X25491399Y80686818D01*
X25323189Y80897748D01*
X25125428Y81081242D01*
X24902517Y81233220D01*
X24902516Y81233221D01*
X24659460Y81350269D01*
X24659462Y81350269D01*
X24401662Y81429790D01*
X24401656Y81429792D01*
X24250000Y81452650D01*
X24250000Y79985686D01*
X24238045Y79997641D01*
X24125148Y80055165D01*
X24031481Y80070000D01*
X23968519Y80070000D01*
X23874852Y80055165D01*
X23761955Y79997641D01*
X23750000Y79985686D01*
X23750000Y81452649D01*
X23749999Y81452650D01*
X23598343Y81429792D01*
X23598337Y81429790D01*
X23340538Y81350269D01*
X23097485Y81233221D01*
X23097483Y81233220D01*
X22874571Y81081242D01*
X22676810Y80897748D01*
X22508600Y80686818D01*
X22373709Y80453181D01*
X22275148Y80202052D01*
X22275142Y80202033D01*
X22215114Y79939031D01*
X22215112Y79939022D01*
X22213687Y79920000D01*
X23684314Y79920000D01*
X23672359Y79908045D01*
X23614835Y79795148D01*
X23595014Y79670000D01*
X23614835Y79544852D01*
X23672359Y79431955D01*
X23684314Y79420000D01*
X22213688Y79420000D01*
X22213687Y79419999D01*
X21645499Y79419999D01*
X21645499Y79858036D01*
X21635188Y79974020D01*
X21635188Y79995981D01*
X21635546Y80000000D01*
X21645500Y80111963D01*
X21645499Y81128036D01*
X21634936Y81246855D01*
X21634936Y81268810D01*
X21645000Y81381999D01*
X21645000Y81640000D01*
X21530056Y81640000D01*
X21463017Y81659685D01*
X21433955Y81685637D01*
X21356109Y81781109D01*
X21204907Y81904398D01*
X21165390Y81962019D01*
X21163298Y82031857D01*
X21199296Y82091740D01*
X21261954Y82122655D01*
X21283268Y82124500D01*
X26553618Y82124500D01*
X26736115Y82124500D01*
X26803154Y82104815D01*
X26848909Y82052011D01*
X26859161Y81994639D01*
X26859676Y81994639D01*
X26859676Y81991758D01*
X26859768Y81991238D01*
X26859677Y81990004D01*
X26859676Y81989996D01*
X26859676Y81989995D01*
X26878945Y81732856D01*
X26936324Y81481463D01*
X26936329Y81481446D01*
X27030536Y81241411D01*
X27128232Y81072194D01*
X27144703Y81004294D01*
X27121851Y80938267D01*
X27091459Y80908266D01*
X27045346Y80876319D01*
X26886181Y80717154D01*
X26886178Y80717150D01*
X26886174Y80717145D01*
X26757997Y80532132D01*
X26757991Y80532122D01*
X26664903Y80327181D01*
X26664902Y80327178D01*
X26609905Y80108920D01*
X26609904Y80108913D01*
X26599500Y79976719D01*
X26599501Y79023282D01*
X26609904Y78891086D01*
X26609905Y78891079D01*
X26664902Y78672821D01*
X26664903Y78672818D01*
X26757991Y78467877D01*
X26757997Y78467867D01*
X26886174Y78282854D01*
X26886184Y78282842D01*
X27045342Y78123684D01*
X27045350Y78123678D01*
X27167396Y78039123D01*
X27211292Y77984764D01*
X27218831Y77915302D01*
X27187619Y77852791D01*
X27167395Y77835267D01*
X27045676Y77750940D01*
X27045664Y77750930D01*
X26886569Y77591835D01*
X26886559Y77591823D01*
X26758431Y77406880D01*
X26758428Y77406874D01*
X26665377Y77202019D01*
X26610400Y76983832D01*
X26600000Y76851694D01*
X26600000Y76625000D01*
X30399999Y76625000D01*
X30399999Y76851692D01*
X30389599Y76983832D01*
X30334622Y77202019D01*
X30241571Y77406874D01*
X30241568Y77406880D01*
X30113440Y77591823D01*
X30113430Y77591835D01*
X29954335Y77750930D01*
X29954330Y77750934D01*
X29832604Y77835266D01*
X29788708Y77889625D01*
X29781168Y77959086D01*
X29812378Y78021598D01*
X29832604Y78039123D01*
X29915537Y78096579D01*
X29981854Y78118576D01*
X30049535Y78101228D01*
X30056004Y78097105D01*
X30262588Y77956259D01*
X30262596Y77956254D01*
X30494848Y77844409D01*
X30494846Y77844409D01*
X30741182Y77768424D01*
X30741188Y77768423D01*
X30996098Y77730000D01*
X31253901Y77730000D01*
X31508811Y77768423D01*
X31508817Y77768424D01*
X31755152Y77844409D01*
X31987404Y77956254D01*
X31987412Y77956259D01*
X32152578Y78068867D01*
X31169400Y79052046D01*
X31250148Y79064835D01*
X31363045Y79122359D01*
X31452641Y79211955D01*
X31510165Y79324852D01*
X31522953Y79405599D01*
X32505778Y78422774D01*
X32550115Y78478373D01*
X32679011Y78701626D01*
X32773191Y78941593D01*
X32773196Y78941610D01*
X32830558Y79192930D01*
X32849823Y79449995D01*
X32849823Y79450004D01*
X32830558Y79707069D01*
X32773196Y79958389D01*
X32773191Y79958406D01*
X32679011Y80198373D01*
X32679012Y80198373D01*
X32550116Y80421625D01*
X32505777Y80477224D01*
X31522953Y79494400D01*
X31510165Y79575148D01*
X31452641Y79688045D01*
X31363045Y79777641D01*
X31250148Y79835165D01*
X31169400Y79847953D01*
X31661363Y80339917D01*
X31712493Y80370727D01*
X31755335Y80383942D01*
X31987658Y80495824D01*
X31987662Y80495826D01*
X32200719Y80641085D01*
X32200722Y80641087D01*
X32338688Y80769101D01*
X32389748Y80816477D01*
X32389752Y80816482D01*
X32550530Y81018090D01*
X32679463Y81241410D01*
X32773673Y81481452D01*
X32831054Y81732854D01*
X32839642Y81847450D01*
X32850324Y81989995D01*
X32850324Y81990004D01*
X32837197Y82165177D01*
X32831054Y82247146D01*
X32773673Y82498548D01*
X32679463Y82738590D01*
X32550530Y82961910D01*
X32389752Y83163518D01*
X32383733Y83169103D01*
X32347979Y83229132D01*
X32350356Y83298962D01*
X32383737Y83350901D01*
X32389750Y83356480D01*
X32390814Y83357814D01*
X32391312Y83358164D01*
X32392899Y83359874D01*
X32393153Y83359637D01*
X32393156Y83359640D01*
X32393185Y83359608D01*
X32393265Y83359534D01*
X32448003Y83397954D01*
X32487760Y83404500D01*
X32930991Y83404500D01*
X32998030Y83384815D01*
X33027938Y83357813D01*
X33096442Y83271910D01*
X33294258Y83088365D01*
X33517230Y82936346D01*
X33760358Y82819262D01*
X34018226Y82739720D01*
X34018232Y82739718D01*
X34285063Y82699500D01*
X34285071Y82699500D01*
X34554936Y82699500D01*
X34821767Y82739718D01*
X34821773Y82739720D01*
X35079644Y82819263D01*
X35322767Y82936344D01*
X35322768Y82936345D01*
X35322771Y82936347D01*
X35322775Y82936349D01*
X35545741Y83088365D01*
X35743557Y83271910D01*
X35806550Y83350901D01*
X35911815Y83482898D01*
X36046743Y83716602D01*
X36145334Y83967805D01*
X36205383Y84230897D01*
X36217323Y84390232D01*
X36225549Y84499995D01*
X36225549Y84500004D01*
X36205383Y84769101D01*
X36204150Y84774505D01*
X36145334Y85032195D01*
X36046743Y85283398D01*
X35911815Y85517102D01*
X35787339Y85673189D01*
X35760932Y85737873D01*
X35773687Y85806569D01*
X35821558Y85857463D01*
X35884287Y85874500D01*
X39895667Y85874500D01*
X39916234Y85872782D01*
X39919330Y85872261D01*
X39919339Y85872260D01*
X39919341Y85872260D01*
X39919342Y85872260D01*
X40013427Y85874500D01*
X40053618Y85874500D01*
X40058003Y85874918D01*
X40064763Y85875563D01*
X40069176Y85875826D01*
X40129703Y85877268D01*
X40134226Y85877376D01*
X40170127Y85885185D01*
X40177398Y85886319D01*
X40208794Y85889317D01*
X40213972Y85889812D01*
X40276400Y85908141D01*
X40280686Y85909235D01*
X40335217Y85921099D01*
X40344258Y85923066D01*
X40344262Y85923067D01*
X40344269Y85923069D01*
X40378025Y85937525D01*
X40384965Y85940020D01*
X40412339Y85948058D01*
X40420207Y85950368D01*
X40420208Y85950368D01*
X40478047Y85980185D01*
X40482051Y85982072D01*
X40541850Y86007679D01*
X40572265Y86028265D01*
X40578607Y86032028D01*
X40589703Y86037749D01*
X40611259Y86048861D01*
X40644144Y86074723D01*
X40662409Y86089087D01*
X40665963Y86091681D01*
X40719855Y86128157D01*
X40719858Y86128159D01*
X40745827Y86154128D01*
X40751346Y86159027D01*
X40780218Y86181733D01*
X40822826Y86230905D01*
X40825828Y86234130D01*
X41429879Y86838181D01*
X41491202Y86871666D01*
X41517560Y86874500D01*
X44895667Y86874500D01*
X44916234Y86872782D01*
X44919330Y86872261D01*
X44919339Y86872260D01*
X44919341Y86872260D01*
X44919342Y86872260D01*
X45013427Y86874500D01*
X45053618Y86874500D01*
X45058003Y86874918D01*
X45064763Y86875563D01*
X45069176Y86875826D01*
X45129703Y86877268D01*
X45134226Y86877376D01*
X45170127Y86885185D01*
X45177398Y86886319D01*
X45208794Y86889317D01*
X45213972Y86889812D01*
X45276400Y86908141D01*
X45280686Y86909235D01*
X45335217Y86921099D01*
X45344258Y86923066D01*
X45344262Y86923067D01*
X45344269Y86923069D01*
X45378025Y86937525D01*
X45384965Y86940020D01*
X45400123Y86944471D01*
X45420207Y86950368D01*
X45420208Y86950368D01*
X45478047Y86980185D01*
X45482051Y86982072D01*
X45541850Y87007679D01*
X45572265Y87028265D01*
X45578607Y87032028D01*
X45588572Y87037166D01*
X45611259Y87048861D01*
X45644144Y87074723D01*
X45662409Y87089087D01*
X45665963Y87091681D01*
X45719855Y87128157D01*
X45719858Y87128159D01*
X45745827Y87154128D01*
X45751346Y87159027D01*
X45780218Y87181733D01*
X45822827Y87230906D01*
X45825829Y87234131D01*
X47722072Y89130375D01*
X47737824Y89143700D01*
X47740391Y89145528D01*
X47740392Y89145529D01*
X47740399Y89145534D01*
X47780437Y89187525D01*
X47805347Y89213649D01*
X47823769Y89232072D01*
X47833762Y89242065D01*
X47840888Y89250695D01*
X47843827Y89254006D01*
X47888726Y89301096D01*
X47888727Y89301097D01*
X47908591Y89332006D01*
X47912931Y89337948D01*
X47936322Y89366279D01*
X47959664Y89409027D01*
X47967504Y89423384D01*
X47969763Y89427192D01*
X48004935Y89481919D01*
X48004936Y89481921D01*
X48018583Y89516013D01*
X48021729Y89522690D01*
X48039334Y89554931D01*
X48059146Y89616909D01*
X48060644Y89621076D01*
X48084822Y89681468D01*
X48091776Y89717550D01*
X48093595Y89724678D01*
X48104781Y89759669D01*
X48112504Y89824266D01*
X48113183Y89828624D01*
X48125500Y89892528D01*
X48125500Y89929260D01*
X48125939Y89936626D01*
X48130298Y89973089D01*
X48130299Y89973094D01*
X48125657Y90037988D01*
X48125500Y90042411D01*
X48125500Y90060370D01*
X48145185Y90127409D01*
X48197989Y90173164D01*
X48198218Y90173269D01*
X48219627Y90182993D01*
X48219633Y90182996D01*
X48404645Y90311174D01*
X48404650Y90311178D01*
X48404654Y90311181D01*
X48563819Y90470346D01*
X48583388Y90498591D01*
X48692002Y90655367D01*
X48692007Y90655374D01*
X48785096Y90860317D01*
X48835844Y91061712D01*
X48840094Y91078579D01*
X48840095Y91078586D01*
X48840096Y91078588D01*
X48850500Y91210783D01*
X48850499Y92789216D01*
X48840096Y92921412D01*
X48785096Y93139683D01*
X48692007Y93344626D01*
X48563819Y93529654D01*
X48404654Y93688819D01*
X48219626Y93817007D01*
X48014683Y93910096D01*
X47796412Y93965096D01*
X47683508Y93973981D01*
X47664219Y93975500D01*
X47664217Y93975499D01*
X47664217Y93975500D01*
X47000000Y93975499D01*
X46335782Y93975499D01*
X46314976Y93973861D01*
X46203588Y93965096D01*
X46203581Y93965094D01*
X46203579Y93965094D01*
X46103838Y93939961D01*
X45985317Y93910096D01*
X45780374Y93817007D01*
X45780371Y93817005D01*
X45615878Y93703044D01*
X45549562Y93681047D01*
X45481880Y93698395D01*
X45473125Y93704115D01*
X45466579Y93708799D01*
X45390838Y93747740D01*
X45225690Y93832649D01*
X45225684Y93832651D01*
X45225675Y93832656D01*
X44985812Y93914486D01*
X44969314Y93920115D01*
X44969313Y93920115D01*
X44969305Y93920118D01*
X44702933Y93969319D01*
X44459304Y93978222D01*
X44432236Y93979212D01*
X44432235Y93979211D01*
X44432235Y93979212D01*
X44162982Y93949586D01*
X43900912Y93881072D01*
X43651610Y93775130D01*
X43420390Y93634018D01*
X43332120Y93560559D01*
X43268001Y93532808D01*
X43199055Y93544127D01*
X43180652Y93555026D01*
X42966328Y93708363D01*
X42966313Y93708372D01*
X42725494Y93832187D01*
X42725476Y93832194D01*
X42469187Y93919629D01*
X42469173Y93919632D01*
X42250000Y93960116D01*
X42250000Y92408018D01*
X42135199Y92460446D01*
X42033975Y92475000D01*
X41966025Y92475000D01*
X41864801Y92460446D01*
X41750000Y92408018D01*
X41750000Y93958656D01*
X41749999Y93958656D01*
X41663085Y93949093D01*
X41663071Y93949091D01*
X41401079Y93880598D01*
X41151839Y93774682D01*
X40920686Y93633612D01*
X40920684Y93633611D01*
X40712525Y93460382D01*
X40531815Y93258695D01*
X40382395Y93032847D01*
X40267445Y92787636D01*
X40267445Y92787634D01*
X40189432Y92528333D01*
X40189429Y92528319D01*
X40150000Y92260398D01*
X40150000Y92250000D01*
X41596031Y92250000D01*
X41563481Y92199351D01*
X41525000Y92068295D01*
X41525000Y91931705D01*
X41563481Y91800649D01*
X41596031Y91750000D01*
X40154201Y91750000D01*
X40164819Y91604917D01*
X40164820Y91604907D01*
X40223699Y91340595D01*
X40223701Y91340590D01*
X40320442Y91087652D01*
X40452976Y90851501D01*
X40452978Y90851498D01*
X40618486Y90637157D01*
X40813430Y90449208D01*
X40813437Y90449202D01*
X40860058Y90415848D01*
X40903127Y90360831D01*
X40909614Y90291263D01*
X40877460Y90229231D01*
X40816874Y90194431D01*
X40787907Y90191000D01*
X40568577Y90191000D01*
X40501538Y90210685D01*
X40484237Y90224101D01*
X40470829Y90236540D01*
X40464479Y90242433D01*
X40247704Y90390228D01*
X40011323Y90504063D01*
X39760615Y90581396D01*
X39501182Y90620500D01*
X39238818Y90620500D01*
X38979385Y90581396D01*
X38728677Y90504063D01*
X38728673Y90504061D01*
X38492303Y90390232D01*
X38492302Y90390231D01*
X38492296Y90390228D01*
X38297767Y90257600D01*
X38278009Y90244129D01*
X38211529Y90222629D01*
X38143979Y90240483D01*
X38123816Y90255684D01*
X37955741Y90411635D01*
X37732775Y90563651D01*
X37489641Y90680738D01*
X37231772Y90760280D01*
X37231768Y90760280D01*
X37231767Y90760281D01*
X36964936Y90800499D01*
X36964933Y90800499D01*
X36964929Y90800500D01*
X36695071Y90800500D01*
X36695068Y90800499D01*
X36695063Y90800499D01*
X36428232Y90760281D01*
X36428229Y90760280D01*
X36428228Y90760280D01*
X36170359Y90680738D01*
X35927226Y90563651D01*
X35704259Y90411635D01*
X35678592Y90387819D01*
X35639019Y90351101D01*
X35576487Y90319933D01*
X35554678Y90318000D01*
X34597296Y90318000D01*
X34530257Y90337685D01*
X34509615Y90354319D01*
X32891273Y91972661D01*
X32113935Y92749999D01*
X33293687Y92749999D01*
X33295112Y92730977D01*
X33295114Y92730968D01*
X33355142Y92467966D01*
X33355148Y92467947D01*
X33453709Y92216818D01*
X33453708Y92216818D01*
X33588600Y91983181D01*
X33756810Y91772251D01*
X33954571Y91588757D01*
X34177483Y91436779D01*
X34177485Y91436778D01*
X34420539Y91319730D01*
X34420537Y91319730D01*
X34678334Y91240210D01*
X34830000Y91217349D01*
X34830000Y92684314D01*
X34841955Y92672359D01*
X34954852Y92614835D01*
X35048519Y92600000D01*
X35111481Y92600000D01*
X35205148Y92614835D01*
X35318045Y92672359D01*
X35330000Y92684314D01*
X35330000Y91217349D01*
X35481665Y91240210D01*
X35739461Y91319730D01*
X35982516Y91436778D01*
X35982517Y91436779D01*
X36205428Y91588757D01*
X36403189Y91772251D01*
X36571399Y91983181D01*
X36706290Y92216818D01*
X36804851Y92467947D01*
X36804857Y92467966D01*
X36864885Y92730968D01*
X36864887Y92730977D01*
X36866312Y92749999D01*
X36866312Y92750000D01*
X35395686Y92750000D01*
X35407641Y92761955D01*
X35465165Y92874852D01*
X35484986Y93000000D01*
X35465165Y93125148D01*
X35407641Y93238045D01*
X35395686Y93250000D01*
X36866312Y93250000D01*
X36864887Y93269022D01*
X36864885Y93269031D01*
X36804857Y93532033D01*
X36804851Y93532052D01*
X36706290Y93783181D01*
X36706291Y93783181D01*
X36571399Y94016818D01*
X36403189Y94227748D01*
X36205428Y94411242D01*
X35982517Y94563220D01*
X35982516Y94563221D01*
X35739460Y94680269D01*
X35739462Y94680269D01*
X35481662Y94759790D01*
X35481656Y94759792D01*
X35330000Y94782650D01*
X35330000Y93315686D01*
X35318045Y93327641D01*
X35205148Y93385165D01*
X35111481Y93400000D01*
X35048519Y93400000D01*
X34954852Y93385165D01*
X34841955Y93327641D01*
X34830000Y93315686D01*
X34830000Y94782649D01*
X34829999Y94782650D01*
X34678343Y94759792D01*
X34678337Y94759790D01*
X34420538Y94680269D01*
X34177485Y94563221D01*
X34177483Y94563220D01*
X33954571Y94411242D01*
X33756810Y94227748D01*
X33588600Y94016818D01*
X33453709Y93783181D01*
X33355148Y93532052D01*
X33355142Y93532033D01*
X33295114Y93269031D01*
X33295112Y93269022D01*
X33293687Y93250000D01*
X34764314Y93250000D01*
X34752359Y93238045D01*
X34694835Y93125148D01*
X34675014Y93000000D01*
X34694835Y92874852D01*
X34752359Y92761955D01*
X34764314Y92750000D01*
X33293688Y92750000D01*
X33293687Y92749999D01*
X32113935Y92749999D01*
X31031278Y93832656D01*
X29075613Y95788319D01*
X29042129Y95849642D01*
X29047113Y95919334D01*
X29088985Y95975267D01*
X29154449Y95999684D01*
X29163295Y96000000D01*
X52770237Y96000000D01*
X52837276Y95980315D01*
G37*
%TD.AperFunction*%
%TD*%
M02*
