M48
; DRILL file {KiCad 7.0.8} date Sun Nov 12 18:28:15 2023
; FORMAT={3:3/ absolute / metric / suppress trailing zeros}
; #@! TF.CreationDate,2023-11-12T18:28:15-08:00
; #@! TF.GenerationSoftware,Kicad,Pcbnew,7.0.8
; #@! TF.FileFunction,MixedPlating,1,2
FMAT,2
METRIC,LZ
; #@! TA.AperFunction,Plated,PTH,ComponentDrill
T1C0.500
; #@! TA.AperFunction,Plated,PTH,ViaDrill
T2C0.800
; #@! TA.AperFunction,Plated,PTH,ComponentDrill
T3C0.800
; #@! TA.AperFunction,Plated,PTH,ComponentDrill
T4C0.900
; #@! TA.AperFunction,Plated,PTH,ComponentDrill
T5C0.950
; #@! TA.AperFunction,Plated,PTH,ViaDrill
T6C1.000
; #@! TA.AperFunction,Plated,PTH,ComponentDrill
T7C1.100
; #@! TA.AperFunction,Plated,PTH,ComponentDrill
T8C1.300
; #@! TA.AperFunction,Plated,PTH,ComponentDrill
T9C3.200
%
G90
G05
T1
X0016Y093
X0016Y038
X002303Y094697
X002303Y091303
X002303Y039697
X002303Y036303
X004Y0954
X004Y0906
X004Y0404
X004Y0356
X005697Y094697
X005697Y091303
X005697Y039697
X005697Y036303
X0064Y093
X0064Y038
X0536Y093
X0536Y038
X054303Y094697
X054303Y091303
X054303Y039697
X054303Y036303
X056Y0954
X056Y0906
X056Y0404
X056Y0356
X057697Y094697
X057697Y091303
X057697Y039697
X057697Y036303
X0584Y093
X0584Y038
T2
X04Y08887
X04Y08287
X053Y0765
X057Y0765
T3
X0035Y0485
X006Y0485
X008Y09029
X008Y08775
X0115Y06075
X0115Y05825
X0145Y0455
X0145Y043
X024Y08983
X024Y07967
X02492Y093
X02667Y089
X027Y05
X028585Y08199
X0286Y053171
X0286Y050671
X0302Y053842
X031125Y08453
X031125Y08199
X031125Y07945
X03442Y084
X03442Y077
X03442Y074
X03508Y093
X03683Y089
X03683Y0805
X03937Y0805
X04204Y084
X04458Y077
X04458Y074
X04546Y086
X04792Y074
X048Y086
X05054Y086
X05146Y067
X054Y06954
X054Y067
X054Y06446
X05808Y074
T4
X011Y0925
X01354Y0925
X018Y0925
X02054Y0925
X049Y08
X049Y07746
T5
X042Y092
X0445Y092
X047Y092
X055Y0855
X055Y083
X055Y0805
X055Y05775
X055Y05525
X055Y05275
X055Y05025
X055Y04775
X055Y04525
T6
X003405Y087405
X005Y06475
X00875Y045
X01Y0505
X01175Y04875
X0175Y04875
X0235Y074
X0235Y0695
X0235Y06775
X0235Y06025
X024Y04725
X02525Y0575
X034625Y04725
X0355Y0645
X0355Y0505
X04125Y05625
T7
X00508Y06096
X00508Y05842
X00508Y05588
X01446Y053195
X017Y053195
X01954Y053195
T8
X02219Y0425
X02219Y0375
X02981Y0425
X02981Y0375
T9
X004Y093
X004Y038
X056Y093
X056Y038
T0
M30
