%TF.GenerationSoftware,KiCad,Pcbnew,7.0.8*%
%TF.CreationDate,2024-03-25T00:11:56-07:00*%
%TF.ProjectId,Adafruit Speaker Bonnet,41646166-7275-4697-9420-537065616b65,rev?*%
%TF.SameCoordinates,Original*%
%TF.FileFunction,Copper,L2,Bot*%
%TF.FilePolarity,Positive*%
%FSLAX46Y46*%
G04 Gerber Fmt 4.6, Leading zero omitted, Abs format (unit mm)*
G04 Created by KiCad (PCBNEW 7.0.8) date 2024-03-25 00:11:56*
%MOMM*%
%LPD*%
G01*
G04 APERTURE LIST*
%TA.AperFunction,ComponentPad*%
%ADD10C,1.676400*%
%TD*%
%TA.AperFunction,ComponentPad*%
%ADD11C,1.930400*%
%TD*%
%TA.AperFunction,ViaPad*%
%ADD12C,1.270000*%
%TD*%
%TA.AperFunction,Conductor*%
%ADD13C,0.200000*%
%TD*%
G04 APERTURE END LIST*
D10*
%TO.P,CONN1,25,25*%
%TO.N,/DIN*%
X179247100Y-99124800D03*
%TO.P,CONN1,24,24*%
%TO.N,/GPIO20*%
X176707100Y-99124800D03*
%TO.P,CONN1,23,23*%
%TO.N,/LRCLK*%
X174167100Y-99124800D03*
%TO.P,CONN1,22,22*%
%TO.N,/GPIO16*%
X171627100Y-99124800D03*
%TO.P,CONN1,21,21*%
%TO.N,/GPIO13*%
X169087100Y-99124800D03*
%TO.P,CONN1,20,20*%
%TO.N,/GPIO12*%
X166547100Y-99124800D03*
%TO.P,CONN1,19,19*%
%TO.N,/GPIO6*%
X164007100Y-99124800D03*
%TO.P,CONN1,18,18*%
%TO.N,/GPIO5*%
X161467100Y-99124800D03*
%TO.P,CONN1,17,17*%
%TO.N,/SPI_CE1*%
X158927100Y-99124800D03*
%TO.P,CONN1,16,16*%
%TO.N,/SPI_CE0*%
X156387100Y-99124800D03*
%TO.P,CONN1,15,15*%
%TO.N,/SPI_SCLK*%
X153847100Y-99124800D03*
%TO.P,CONN1,14,14*%
%TO.N,/SPI_MISO*%
X151307100Y-99124800D03*
%TO.P,CONN1,13,13*%
%TO.N,/SPI_MOSI*%
X148767100Y-99124800D03*
%TO.P,CONN1,12,12*%
%TO.N,/GPIO25*%
X146227100Y-99124800D03*
%TO.P,CONN1,11,11*%
%TO.N,/GPIO24*%
X143687100Y-99124800D03*
%TO.P,CONN1,10,10*%
%TO.N,/GPIO23*%
X141147100Y-99124800D03*
%TO.P,CONN1,9,9*%
%TO.N,/GPIO22*%
X138607100Y-99124800D03*
%TO.P,CONN1,8,8*%
%TO.N,/GPIO27*%
X136067100Y-99124800D03*
%TO.P,CONN1,7,7*%
%TO.N,/BCLK*%
X133527100Y-99124800D03*
%TO.P,CONN1,6,6*%
%TO.N,/GPIO17*%
X130987100Y-99124800D03*
%TO.P,CONN1,5,5*%
%TO.N,/GPIO4*%
X128447100Y-99124800D03*
%TO.P,CONN1,4,4*%
%TO.N,/RXD*%
X125907100Y-99124800D03*
%TO.P,CONN1,3,3*%
%TO.N,/FAN_PWM*%
X123367100Y-99124800D03*
%TO.P,CONN1,2,2*%
%TO.N,/SCL*%
X120827100Y-99124800D03*
%TO.P,CONN1,1,1*%
%TO.N,/SDA*%
X118287100Y-99124800D03*
%TD*%
D11*
%TO.P,JP2,3,3*%
%TO.N,+5V*%
X121462100Y-107379800D03*
%TO.P,JP2,2,2*%
X124002100Y-107379800D03*
%TO.P,JP2,1,1*%
X126542100Y-107379800D03*
%TD*%
%TO.P,JP5,3,3*%
%TO.N,GND*%
X126542100Y-104839800D03*
%TO.P,JP5,2,2*%
X124002100Y-104839800D03*
%TO.P,JP5,1,1*%
X121462100Y-104839800D03*
%TD*%
D12*
%TO.N,/GPIO12*%
X129159000Y-109728000D03*
X124333000Y-110490000D03*
X124333000Y-113030000D03*
%TO.N,+5V*%
X117475000Y-112776000D03*
X117475000Y-108712000D03*
%TD*%
D13*
%TO.N,/GPIO12*%
X128397000Y-110490000D02*
X124333000Y-110490000D01*
X129159000Y-109728000D02*
X128397000Y-110490000D01*
X124333000Y-113030000D02*
X124333000Y-110490000D01*
%TO.N,+5V*%
X117475000Y-108712000D02*
X117475000Y-112776000D01*
%TD*%
M02*
