M48
; DRILL file {KiCad 7.0.8} date Mon Mar 25 00:11:52 2024
; FORMAT={3:3/ absolute / metric / suppress trailing zeros}
; #@! TF.CreationDate,2024-03-25T00:11:52-07:00
; #@! TF.GenerationSoftware,Kicad,Pcbnew,7.0.8
; #@! TF.FileFunction,MixedPlating,1,2
FMAT,2
METRIC,LZ
; #@! TA.AperFunction,Plated,PTH,ViaDrill
T1C0.127
; #@! TA.AperFunction,Plated,PTH,ComponentDrill
T2C1.000
%
G90
G05
T1
X117475Y-108712
X117475Y-112776
X124333Y-11049
X124333Y-11303
X129159Y-109728
T2
X118287Y-099125
X120827Y-099125
X121462Y-10484
X121462Y-10738
X123367Y-099125
X124002Y-10484
X124002Y-10738
X125907Y-099125
X126542Y-10484
X126542Y-10738
X128447Y-099125
X130987Y-099125
X133527Y-099125
X136067Y-099125
X138607Y-099125
X141147Y-099125
X143687Y-099125
X146227Y-099125
X148767Y-099125
X151307Y-099125
X153847Y-099125
X156387Y-099125
X158927Y-099125
X161467Y-099125
X164007Y-099125
X166547Y-099125
X169087Y-099125
X171627Y-099125
X174167Y-099125
X176707Y-099125
X179247Y-099125
T0
M30
