%TF.GenerationSoftware,KiCad,Pcbnew,7.0.8*%
%TF.CreationDate,2024-03-25T00:11:56-07:00*%
%TF.ProjectId,Adafruit Speaker Bonnet,41646166-7275-4697-9420-537065616b65,rev?*%
%TF.SameCoordinates,Original*%
%TF.FileFunction,Copper,L1,Top*%
%TF.FilePolarity,Positive*%
%FSLAX46Y46*%
G04 Gerber Fmt 4.6, Leading zero omitted, Abs format (unit mm)*
G04 Created by KiCad (PCBNEW 7.0.8) date 2024-03-25 00:11:56*
%MOMM*%
%LPD*%
G01*
G04 APERTURE LIST*
G04 Aperture macros list*
%AMRoundRect*
0 Rectangle with rounded corners*
0 $1 Rounding radius*
0 $2 $3 $4 $5 $6 $7 $8 $9 X,Y pos of 4 corners*
0 Add a 4 corners polygon primitive as box body*
4,1,4,$2,$3,$4,$5,$6,$7,$8,$9,$2,$3,0*
0 Add four circle primitives for the rounded corners*
1,1,$1+$1,$2,$3*
1,1,$1+$1,$4,$5*
1,1,$1+$1,$6,$7*
1,1,$1+$1,$8,$9*
0 Add four rect primitives between the rounded corners*
20,1,$1+$1,$2,$3,$4,$5,0*
20,1,$1+$1,$4,$5,$6,$7,0*
20,1,$1+$1,$6,$7,$8,$9,0*
20,1,$1+$1,$8,$9,$2,$3,0*%
G04 Aperture macros list end*
%TA.AperFunction,SMDPad,CuDef*%
%ADD10RoundRect,0.150000X-0.700000X0.150000X-0.700000X-0.150000X0.700000X-0.150000X0.700000X0.150000X0*%
%TD*%
%TA.AperFunction,SMDPad,CuDef*%
%ADD11RoundRect,0.250000X-1.100000X0.250000X-1.100000X-0.250000X1.100000X-0.250000X1.100000X0.250000X0*%
%TD*%
%TA.AperFunction,SMDPad,CuDef*%
%ADD12RoundRect,0.150000X0.512500X0.150000X-0.512500X0.150000X-0.512500X-0.150000X0.512500X-0.150000X0*%
%TD*%
%TA.AperFunction,SMDPad,CuDef*%
%ADD13RoundRect,0.225000X0.225000X0.250000X-0.225000X0.250000X-0.225000X-0.250000X0.225000X-0.250000X0*%
%TD*%
%TA.AperFunction,ComponentPad*%
%ADD14C,1.676400*%
%TD*%
%TA.AperFunction,ComponentPad*%
%ADD15C,1.930400*%
%TD*%
%TA.AperFunction,ViaPad*%
%ADD16C,1.270000*%
%TD*%
%TA.AperFunction,Conductor*%
%ADD17C,0.200000*%
%TD*%
%TA.AperFunction,Conductor*%
%ADD18C,0.635000*%
%TD*%
G04 APERTURE END LIST*
%TA.AperFunction,NonConductor*%
G36*
X109220000Y-115570000D02*
G01*
X113030000Y-115570000D01*
X113030000Y-118110000D01*
X109220000Y-118110000D01*
X109220000Y-115570000D01*
G37*
%TD.AperFunction*%
%TA.AperFunction,NonConductor*%
G36*
X109220000Y-106680000D02*
G01*
X113030000Y-106680000D01*
X113030000Y-111760000D01*
X109220000Y-111760000D01*
X109220000Y-106680000D01*
G37*
%TD.AperFunction*%
%TA.AperFunction,NonConductor*%
G36*
X109220000Y-97790000D02*
G01*
X113030000Y-97790000D01*
X113030000Y-102870000D01*
X109220000Y-102870000D01*
X109220000Y-97790000D01*
G37*
%TD.AperFunction*%
%TA.AperFunction,NonConductor*%
G36*
X109220000Y-92075000D02*
G01*
X113030000Y-92075000D01*
X113030000Y-93980000D01*
X109220000Y-93980000D01*
X109220000Y-92075000D01*
G37*
%TD.AperFunction*%
D10*
%TO.P,J3,1,Pin_1*%
%TO.N,GND*%
X114245000Y-103525000D03*
%TO.P,J3,2,Pin_2*%
%TO.N,+5V*%
X114245000Y-104775000D03*
%TO.P,J3,3,Pin_3*%
%TO.N,Net-(J3-Pin_3)*%
X114245000Y-106025000D03*
D11*
%TO.P,J3,MP*%
%TO.N,N/C*%
X111045000Y-101675000D03*
X111045000Y-107875000D03*
%TD*%
D10*
%TO.P,J2,1,Pin_1*%
%TO.N,GND*%
X114245000Y-112415000D03*
%TO.P,J2,2,Pin_2*%
%TO.N,+5V*%
X114245000Y-113665000D03*
%TO.P,J2,3,Pin_3*%
%TO.N,Net-(J2-Pin_3)*%
X114245000Y-114915000D03*
D11*
%TO.P,J2,MP*%
%TO.N,N/C*%
X111045000Y-110565000D03*
X111045000Y-116765000D03*
%TD*%
D10*
%TO.P,J1,1,Pin_1*%
%TO.N,GND*%
X114325000Y-94710000D03*
%TO.P,J1,2,Pin_2*%
%TO.N,/FAN_PWM*%
X114325000Y-95960000D03*
%TO.P,J1,3,Pin_3*%
%TO.N,+5V*%
X114325000Y-97210000D03*
D11*
%TO.P,J1,MP*%
%TO.N,N/C*%
X111125000Y-92860000D03*
X111125000Y-99060000D03*
%TD*%
D12*
%TO.P,U1,6*%
%TO.N,Net-(J2-Pin_3)*%
X120147500Y-112710000D03*
%TO.P,U1,5,VCC*%
%TO.N,GND*%
X120147500Y-111760000D03*
%TO.P,U1,4*%
%TO.N,Net-(J3-Pin_3)*%
X120147500Y-110810000D03*
%TO.P,U1,3*%
%TO.N,/GPIO12*%
X122422500Y-110810000D03*
%TO.P,U1,2,GND*%
%TO.N,+5V*%
X122422500Y-111760000D03*
%TO.P,U1,1*%
%TO.N,/GPIO12*%
X122422500Y-112710000D03*
%TD*%
D13*
%TO.P,C1,1*%
%TO.N,+5V*%
X121920000Y-114935000D03*
%TO.P,C1,2*%
%TO.N,GND*%
X120370000Y-114935000D03*
%TD*%
D14*
%TO.P,CONN1,25,25*%
%TO.N,/DIN*%
X179247100Y-99124800D03*
%TO.P,CONN1,24,24*%
%TO.N,/GPIO20*%
X176707100Y-99124800D03*
%TO.P,CONN1,23,23*%
%TO.N,/LRCLK*%
X174167100Y-99124800D03*
%TO.P,CONN1,22,22*%
%TO.N,/GPIO16*%
X171627100Y-99124800D03*
%TO.P,CONN1,21,21*%
%TO.N,/GPIO13*%
X169087100Y-99124800D03*
%TO.P,CONN1,20,20*%
%TO.N,/GPIO12*%
X166547100Y-99124800D03*
%TO.P,CONN1,19,19*%
%TO.N,/GPIO6*%
X164007100Y-99124800D03*
%TO.P,CONN1,18,18*%
%TO.N,/GPIO5*%
X161467100Y-99124800D03*
%TO.P,CONN1,17,17*%
%TO.N,/SPI_CE1*%
X158927100Y-99124800D03*
%TO.P,CONN1,16,16*%
%TO.N,/SPI_CE0*%
X156387100Y-99124800D03*
%TO.P,CONN1,15,15*%
%TO.N,/SPI_SCLK*%
X153847100Y-99124800D03*
%TO.P,CONN1,14,14*%
%TO.N,/SPI_MISO*%
X151307100Y-99124800D03*
%TO.P,CONN1,13,13*%
%TO.N,/SPI_MOSI*%
X148767100Y-99124800D03*
%TO.P,CONN1,12,12*%
%TO.N,/GPIO25*%
X146227100Y-99124800D03*
%TO.P,CONN1,11,11*%
%TO.N,/GPIO24*%
X143687100Y-99124800D03*
%TO.P,CONN1,10,10*%
%TO.N,/GPIO23*%
X141147100Y-99124800D03*
%TO.P,CONN1,9,9*%
%TO.N,/GPIO22*%
X138607100Y-99124800D03*
%TO.P,CONN1,8,8*%
%TO.N,/GPIO27*%
X136067100Y-99124800D03*
%TO.P,CONN1,7,7*%
%TO.N,/BCLK*%
X133527100Y-99124800D03*
%TO.P,CONN1,6,6*%
%TO.N,/GPIO17*%
X130987100Y-99124800D03*
%TO.P,CONN1,5,5*%
%TO.N,/GPIO4*%
X128447100Y-99124800D03*
%TO.P,CONN1,4,4*%
%TO.N,/RXD*%
X125907100Y-99124800D03*
%TO.P,CONN1,3,3*%
%TO.N,/FAN_PWM*%
X123367100Y-99124800D03*
%TO.P,CONN1,2,2*%
%TO.N,/SCL*%
X120827100Y-99124800D03*
%TO.P,CONN1,1,1*%
%TO.N,/SDA*%
X118287100Y-99124800D03*
%TD*%
D15*
%TO.P,JP2,3,3*%
%TO.N,+5V*%
X121462100Y-107379800D03*
%TO.P,JP2,2,2*%
X124002100Y-107379800D03*
%TO.P,JP2,1,1*%
X126542100Y-107379800D03*
%TD*%
%TO.P,JP5,3,3*%
%TO.N,GND*%
X126542100Y-104839800D03*
%TO.P,JP5,2,2*%
X124002100Y-104839800D03*
%TO.P,JP5,1,1*%
X121462100Y-104839800D03*
%TD*%
D16*
%TO.N,/GPIO12*%
X129159000Y-109728000D03*
X124333000Y-110490000D03*
X124333000Y-113030000D03*
%TO.N,+5V*%
X117475000Y-112776000D03*
X117475000Y-108712000D03*
%TD*%
D17*
%TO.N,/GPIO12*%
X165989000Y-101092000D02*
X137795000Y-101092000D01*
X166547100Y-100533900D02*
X165989000Y-101092000D01*
X137795000Y-101092000D02*
X129159000Y-109728000D01*
X166547100Y-99124800D02*
X166547100Y-100533900D01*
D18*
%TO.N,+5V*%
X116586000Y-113665000D02*
X117475000Y-112776000D01*
X115189000Y-113665000D02*
X116078000Y-113665000D01*
X115189000Y-113665000D02*
X116586000Y-113665000D01*
X114245000Y-113665000D02*
X115189000Y-113665000D01*
X116078000Y-113665000D02*
X116205000Y-113538000D01*
D17*
%TO.N,Net-(J3-Pin_3)*%
X117541000Y-110810000D02*
X120147500Y-110810000D01*
X115951000Y-109220000D02*
X117541000Y-110810000D01*
X115951000Y-106680000D02*
X115951000Y-109220000D01*
X114245000Y-106025000D02*
X115296000Y-106025000D01*
X115296000Y-106025000D02*
X115951000Y-106680000D01*
D18*
%TO.N,+5V*%
X117475000Y-107950000D02*
X117475000Y-108712000D01*
X118237000Y-107188000D02*
X117475000Y-107950000D01*
X118237000Y-107188000D02*
X118237000Y-107379800D01*
X118237000Y-104648000D02*
X118237000Y-107188000D01*
X121462100Y-107379800D02*
X126542100Y-107379800D01*
X118237000Y-104775000D02*
X114245000Y-104775000D01*
X118237000Y-103632000D02*
X118237000Y-104648000D01*
X117221000Y-102616000D02*
X118237000Y-103632000D01*
X117221000Y-102616000D02*
X114325000Y-99720000D01*
X118237000Y-107379800D02*
X119061200Y-107379800D01*
D17*
%TO.N,Net-(J2-Pin_3)*%
X119827000Y-112710000D02*
X117622000Y-114915000D01*
X120147500Y-112710000D02*
X119827000Y-112710000D01*
X117622000Y-114915000D02*
X114245000Y-114915000D01*
D18*
%TO.N,+5V*%
X121462100Y-107379800D02*
X119061200Y-107379800D01*
D17*
X125476000Y-113665000D02*
X124206000Y-114935000D01*
X124206000Y-114935000D02*
X121920000Y-114935000D01*
X125476000Y-111760000D02*
X125476000Y-113665000D01*
%TO.N,/GPIO12*%
X129159000Y-109728000D02*
X128651000Y-109728000D01*
D18*
%TO.N,+5V*%
X114325000Y-99720000D02*
X114325000Y-97210000D01*
D17*
%TO.N,/GPIO12*%
X124013000Y-112710000D02*
X124333000Y-113030000D01*
X122422500Y-112710000D02*
X124013000Y-112710000D01*
X124013000Y-110810000D02*
X124333000Y-110490000D01*
X122422500Y-110810000D02*
X124013000Y-110810000D01*
%TO.N,+5V*%
X126542100Y-110693900D02*
X126542100Y-107379800D01*
X125476000Y-111760000D02*
X126542100Y-110693900D01*
X124333000Y-111760000D02*
X125476000Y-111760000D01*
%TO.N,/FAN_PWM*%
X120202300Y-95960000D02*
X123367100Y-99124800D01*
X114325000Y-95960000D02*
X120202300Y-95960000D01*
%TO.N,+5V*%
X122422500Y-111760000D02*
X124333000Y-111760000D01*
%TO.N,/GPIO12*%
X122422500Y-112710000D02*
X122489000Y-112710000D01*
%TO.N,GND*%
X121031000Y-111760000D02*
X121285000Y-112014000D01*
X120147500Y-111760000D02*
X121031000Y-111760000D01*
X121285000Y-112014000D02*
X121285000Y-112395000D01*
X121285000Y-112395000D02*
X121285000Y-114020000D01*
X121285000Y-112395000D02*
X121285000Y-113665000D01*
%TD*%
%TA.AperFunction,Conductor*%
%TO.N,GND*%
G36*
X118928432Y-111430185D02*
G01*
X118974187Y-111482989D01*
X118976894Y-111498305D01*
X118987705Y-111510000D01*
X119253185Y-111510000D01*
X119316306Y-111527268D01*
X119374602Y-111561744D01*
X119387527Y-111565499D01*
X119532426Y-111607597D01*
X119532429Y-111607597D01*
X119532431Y-111607598D01*
X119544722Y-111608565D01*
X119569304Y-111610500D01*
X120273500Y-111610500D01*
X120340539Y-111630185D01*
X120386294Y-111682989D01*
X120397500Y-111734500D01*
X120397500Y-111785500D01*
X120377815Y-111852539D01*
X120325011Y-111898294D01*
X120273500Y-111909500D01*
X119569304Y-111909500D01*
X119532432Y-111912401D01*
X119532426Y-111912402D01*
X119374606Y-111958254D01*
X119374603Y-111958255D01*
X119316306Y-111992732D01*
X119253185Y-112010000D01*
X118987705Y-112010000D01*
X118987704Y-112010001D01*
X118987899Y-112012488D01*
X118987900Y-112012494D01*
X119033716Y-112170193D01*
X119033720Y-112170203D01*
X119034427Y-112171398D01*
X119034695Y-112172454D01*
X119036816Y-112177356D01*
X119036024Y-112177698D01*
X119051603Y-112239123D01*
X119035993Y-112292284D01*
X119036355Y-112292441D01*
X119035087Y-112295369D01*
X119034427Y-112297620D01*
X119033259Y-112299594D01*
X119033254Y-112299607D01*
X118987402Y-112457426D01*
X118987401Y-112457432D01*
X118984500Y-112494304D01*
X118984500Y-112651902D01*
X118964815Y-112718941D01*
X118948181Y-112739583D01*
X118827046Y-112860718D01*
X118765723Y-112894203D01*
X118696031Y-112889219D01*
X118640098Y-112847347D01*
X118615681Y-112781883D01*
X118615537Y-112777857D01*
X118609533Y-112713066D01*
X118595948Y-112566458D01*
X118538359Y-112364053D01*
X118444558Y-112175675D01*
X118317740Y-112007741D01*
X118301632Y-111993057D01*
X118162223Y-111865969D01*
X118162221Y-111865967D01*
X117983307Y-111755188D01*
X117983301Y-111755185D01*
X117796939Y-111682989D01*
X117787076Y-111679168D01*
X117665214Y-111656388D01*
X117602935Y-111624721D01*
X117567662Y-111564408D01*
X117570596Y-111494600D01*
X117610805Y-111437460D01*
X117675523Y-111411129D01*
X117688001Y-111410500D01*
X118861393Y-111410500D01*
X118928432Y-111430185D01*
G37*
%TD.AperFunction*%
%TA.AperFunction,Conductor*%
G36*
X123542607Y-104629956D02*
G01*
X123502100Y-104767911D01*
X123502100Y-104911689D01*
X123542607Y-105049644D01*
X123568414Y-105089800D01*
X121895786Y-105089800D01*
X121921593Y-105049644D01*
X121962100Y-104911689D01*
X121962100Y-104767911D01*
X121921593Y-104629956D01*
X121895786Y-104589800D01*
X123568414Y-104589800D01*
X123542607Y-104629956D01*
G37*
%TD.AperFunction*%
%TA.AperFunction,Conductor*%
G36*
X126082607Y-104629956D02*
G01*
X126042100Y-104767911D01*
X126042100Y-104911689D01*
X126082607Y-105049644D01*
X126108414Y-105089800D01*
X124435786Y-105089800D01*
X124461593Y-105049644D01*
X124502100Y-104911689D01*
X124502100Y-104767911D01*
X124461593Y-104629956D01*
X124435786Y-104589800D01*
X126108414Y-104589800D01*
X126082607Y-104629956D01*
G37*
%TD.AperFunction*%
%TA.AperFunction,Conductor*%
G36*
X118125677Y-92094685D02*
G01*
X118146319Y-92111319D01*
X123190000Y-97155000D01*
X179653638Y-97155000D01*
X179720677Y-97174685D01*
X179741319Y-97191319D01*
X180938681Y-98388681D01*
X180972166Y-98450004D01*
X180975000Y-98476362D01*
X180975000Y-100913638D01*
X180955315Y-100980677D01*
X180938681Y-101001319D01*
X179741319Y-102198681D01*
X179679996Y-102232166D01*
X179653638Y-102235000D01*
X139064999Y-102235000D01*
X123226319Y-118073681D01*
X123164996Y-118107166D01*
X123138638Y-118110000D01*
X109344000Y-118110000D01*
X109276961Y-118090315D01*
X109231206Y-118037511D01*
X109220000Y-117986000D01*
X109220000Y-117650730D01*
X109239685Y-117583691D01*
X109292489Y-117537936D01*
X109361647Y-117527992D01*
X109425203Y-117557017D01*
X109431681Y-117563049D01*
X109476344Y-117607712D01*
X109625666Y-117699814D01*
X109792203Y-117754999D01*
X109894991Y-117765500D01*
X112195008Y-117765499D01*
X112297797Y-117754999D01*
X112464334Y-117699814D01*
X112613656Y-117607712D01*
X112737712Y-117483656D01*
X112829814Y-117334334D01*
X112884999Y-117167797D01*
X112895500Y-117065009D01*
X112895499Y-116464992D01*
X112884999Y-116362203D01*
X112829814Y-116195666D01*
X112737712Y-116046344D01*
X112613656Y-115922288D01*
X112490860Y-115846547D01*
X112464336Y-115830187D01*
X112464331Y-115830185D01*
X112462862Y-115829698D01*
X112297797Y-115775001D01*
X112297795Y-115775000D01*
X112195010Y-115764500D01*
X109894998Y-115764500D01*
X109894981Y-115764501D01*
X109792203Y-115775000D01*
X109792200Y-115775001D01*
X109625668Y-115830185D01*
X109625663Y-115830187D01*
X109476342Y-115922289D01*
X109431681Y-115966951D01*
X109370358Y-116000436D01*
X109300666Y-115995452D01*
X109244733Y-115953580D01*
X109220316Y-115888116D01*
X109220000Y-115879270D01*
X109220000Y-115130696D01*
X112894500Y-115130696D01*
X112897401Y-115167567D01*
X112897402Y-115167573D01*
X112943254Y-115325393D01*
X112943255Y-115325396D01*
X112943256Y-115325398D01*
X112965661Y-115363283D01*
X113026917Y-115466862D01*
X113026923Y-115466870D01*
X113143129Y-115583076D01*
X113143133Y-115583079D01*
X113143135Y-115583081D01*
X113284602Y-115666744D01*
X113326224Y-115678836D01*
X113442426Y-115712597D01*
X113442429Y-115712597D01*
X113442431Y-115712598D01*
X113454722Y-115713565D01*
X113479304Y-115715500D01*
X113479306Y-115715500D01*
X115010696Y-115715500D01*
X115029131Y-115714049D01*
X115047569Y-115712598D01*
X115047571Y-115712597D01*
X115047573Y-115712597D01*
X115089191Y-115700505D01*
X115205398Y-115666744D01*
X115346865Y-115583081D01*
X115378126Y-115551820D01*
X115439448Y-115518334D01*
X115465808Y-115515500D01*
X117578572Y-115515500D01*
X117586670Y-115516030D01*
X117622000Y-115520682D01*
X117622001Y-115520682D01*
X117674254Y-115513802D01*
X117778762Y-115500044D01*
X117924841Y-115439536D01*
X117992721Y-115387450D01*
X118050282Y-115343282D01*
X118071984Y-115314998D01*
X118077310Y-115308923D01*
X118201233Y-115185000D01*
X119420001Y-115185000D01*
X119420001Y-115233322D01*
X119430144Y-115332607D01*
X119483452Y-115493481D01*
X119483457Y-115493492D01*
X119572424Y-115637728D01*
X119572427Y-115637732D01*
X119692267Y-115757572D01*
X119692271Y-115757575D01*
X119836507Y-115846542D01*
X119836518Y-115846547D01*
X119997393Y-115899855D01*
X120096683Y-115909999D01*
X120120000Y-115909998D01*
X120120000Y-115185000D01*
X119420001Y-115185000D01*
X118201233Y-115185000D01*
X118701234Y-114685000D01*
X119420000Y-114685000D01*
X120120000Y-114685000D01*
X120120000Y-113959999D01*
X120096693Y-113960000D01*
X120096674Y-113960001D01*
X119997392Y-113970144D01*
X119836518Y-114023452D01*
X119836507Y-114023457D01*
X119692271Y-114112424D01*
X119692267Y-114112427D01*
X119572427Y-114232267D01*
X119572424Y-114232271D01*
X119483457Y-114376507D01*
X119483452Y-114376518D01*
X119430144Y-114537393D01*
X119420000Y-114636677D01*
X119420000Y-114685000D01*
X118701234Y-114685000D01*
X119839416Y-113546819D01*
X119900739Y-113513334D01*
X119927097Y-113510500D01*
X120725696Y-113510500D01*
X120744131Y-113509049D01*
X120762569Y-113507598D01*
X120762571Y-113507597D01*
X120762573Y-113507597D01*
X120804191Y-113495505D01*
X120920398Y-113461744D01*
X121061865Y-113378081D01*
X121178081Y-113261865D01*
X121178267Y-113261549D01*
X121178477Y-113261353D01*
X121182861Y-113255702D01*
X121183772Y-113256409D01*
X121229336Y-113213866D01*
X121298077Y-113201362D01*
X121362667Y-113228006D01*
X121386855Y-113255921D01*
X121387139Y-113255702D01*
X121391179Y-113260911D01*
X121391732Y-113261548D01*
X121391919Y-113261865D01*
X121391921Y-113261867D01*
X121391923Y-113261870D01*
X121508129Y-113378076D01*
X121508133Y-113378079D01*
X121508135Y-113378081D01*
X121649602Y-113461744D01*
X121691224Y-113473836D01*
X121807426Y-113507597D01*
X121807429Y-113507597D01*
X121807431Y-113507598D01*
X121819722Y-113508565D01*
X121844304Y-113510500D01*
X121844306Y-113510500D01*
X123000696Y-113510500D01*
X123019131Y-113509049D01*
X123037569Y-113507598D01*
X123169431Y-113469288D01*
X123239298Y-113469487D01*
X123297969Y-113507428D01*
X123315025Y-113533092D01*
X123359083Y-113621571D01*
X123363442Y-113630325D01*
X123419351Y-113704361D01*
X123490261Y-113798260D01*
X123645776Y-113940030D01*
X123645778Y-113940032D01*
X123824692Y-114050811D01*
X123824698Y-114050814D01*
X123938428Y-114094873D01*
X123993829Y-114137446D01*
X124017420Y-114203213D01*
X124001709Y-114271293D01*
X123951685Y-114320072D01*
X123893634Y-114334500D01*
X122850425Y-114334500D01*
X122783386Y-114314815D01*
X122744887Y-114275598D01*
X122717968Y-114231956D01*
X122598044Y-114112032D01*
X122598040Y-114112029D01*
X122453705Y-114023001D01*
X122453699Y-114022998D01*
X122453697Y-114022997D01*
X122453694Y-114022996D01*
X122292709Y-113969651D01*
X122193346Y-113959500D01*
X121646662Y-113959500D01*
X121646644Y-113959501D01*
X121547292Y-113969650D01*
X121547289Y-113969651D01*
X121386305Y-114022996D01*
X121386294Y-114023001D01*
X121241959Y-114112029D01*
X121241953Y-114112033D01*
X121232324Y-114121663D01*
X121171000Y-114155146D01*
X121101308Y-114150159D01*
X121056965Y-114121660D01*
X121047732Y-114112427D01*
X121047728Y-114112424D01*
X120903492Y-114023457D01*
X120903481Y-114023452D01*
X120742606Y-113970144D01*
X120643322Y-113960000D01*
X120620000Y-113960000D01*
X120620000Y-115909999D01*
X120643308Y-115909999D01*
X120643322Y-115909998D01*
X120742607Y-115899855D01*
X120903481Y-115846547D01*
X120903492Y-115846542D01*
X121047731Y-115757573D01*
X121056959Y-115748345D01*
X121118279Y-115714856D01*
X121187971Y-115719835D01*
X121232327Y-115748339D01*
X121241955Y-115757967D01*
X121241959Y-115757970D01*
X121386294Y-115846998D01*
X121386297Y-115846999D01*
X121386303Y-115847003D01*
X121547292Y-115900349D01*
X121646655Y-115910500D01*
X122193344Y-115910499D01*
X122193352Y-115910498D01*
X122193355Y-115910498D01*
X122247760Y-115904940D01*
X122292708Y-115900349D01*
X122453697Y-115847003D01*
X122598044Y-115757968D01*
X122717968Y-115638044D01*
X122744887Y-115594402D01*
X122796835Y-115547678D01*
X122850425Y-115535500D01*
X124162572Y-115535500D01*
X124170670Y-115536030D01*
X124206000Y-115540682D01*
X124206001Y-115540682D01*
X124258254Y-115533802D01*
X124362762Y-115520044D01*
X124508841Y-115459536D01*
X124634282Y-115363282D01*
X124655983Y-115334999D01*
X124661311Y-115328922D01*
X125869922Y-114120311D01*
X125875999Y-114114983D01*
X125904282Y-114093282D01*
X126000536Y-113967841D01*
X126061044Y-113821762D01*
X126076500Y-113704361D01*
X126081682Y-113665000D01*
X126077030Y-113629669D01*
X126076500Y-113621571D01*
X126076500Y-112060096D01*
X126096185Y-111993057D01*
X126112815Y-111972419D01*
X126936023Y-111149210D01*
X126942098Y-111143884D01*
X126970382Y-111122182D01*
X127066636Y-110996741D01*
X127127144Y-110850662D01*
X127142600Y-110733261D01*
X127147782Y-110693900D01*
X127143130Y-110658569D01*
X127142600Y-110650471D01*
X127142600Y-108795278D01*
X127162285Y-108728239D01*
X127207583Y-108686223D01*
X127231926Y-108673049D01*
X127346509Y-108611040D01*
X127538194Y-108461846D01*
X127702707Y-108283137D01*
X127835562Y-108079787D01*
X127933135Y-107857343D01*
X127992764Y-107621873D01*
X128005166Y-107472203D01*
X128012823Y-107379805D01*
X128012823Y-107379794D01*
X127999450Y-107218418D01*
X127992764Y-107137727D01*
X127933135Y-106902257D01*
X127835562Y-106679813D01*
X127768301Y-106576862D01*
X127702709Y-106476465D01*
X127664899Y-106435393D01*
X127538194Y-106297754D01*
X127538189Y-106297750D01*
X127538187Y-106297748D01*
X127422026Y-106207336D01*
X127381213Y-106150626D01*
X127377538Y-106080853D01*
X127412170Y-106020170D01*
X127422026Y-106011629D01*
X127537854Y-105921476D01*
X127537857Y-105921473D01*
X127702305Y-105742837D01*
X127702313Y-105742826D01*
X127835121Y-105539549D01*
X127932661Y-105317178D01*
X127990242Y-105089800D01*
X126975786Y-105089800D01*
X127001593Y-105049644D01*
X127042100Y-104911689D01*
X127042100Y-104767911D01*
X127001593Y-104629956D01*
X126975786Y-104589800D01*
X127990242Y-104589800D01*
X127932661Y-104362421D01*
X127835121Y-104140050D01*
X127702313Y-103936773D01*
X127702305Y-103936762D01*
X127537857Y-103758126D01*
X127537847Y-103758117D01*
X127346238Y-103608981D01*
X127346229Y-103608975D01*
X127132687Y-103493413D01*
X127132673Y-103493407D01*
X126903019Y-103414565D01*
X126792100Y-103396057D01*
X126792100Y-104404298D01*
X126684415Y-104355120D01*
X126577863Y-104339800D01*
X126506337Y-104339800D01*
X126399785Y-104355120D01*
X126292100Y-104404298D01*
X126292100Y-103396057D01*
X126292099Y-103396057D01*
X126181180Y-103414565D01*
X125951526Y-103493407D01*
X125951512Y-103493413D01*
X125737970Y-103608975D01*
X125737961Y-103608981D01*
X125546352Y-103758117D01*
X125546342Y-103758126D01*
X125381894Y-103936762D01*
X125381890Y-103936768D01*
X125375908Y-103945925D01*
X125322761Y-103991281D01*
X125253529Y-104000703D01*
X125190194Y-103971201D01*
X125168292Y-103945925D01*
X125162309Y-103936768D01*
X125162305Y-103936762D01*
X124997857Y-103758126D01*
X124997847Y-103758117D01*
X124806238Y-103608981D01*
X124806229Y-103608975D01*
X124592687Y-103493413D01*
X124592673Y-103493407D01*
X124363019Y-103414565D01*
X124252100Y-103396057D01*
X124252100Y-104404298D01*
X124144415Y-104355120D01*
X124037863Y-104339800D01*
X123966337Y-104339800D01*
X123859785Y-104355120D01*
X123752100Y-104404298D01*
X123752100Y-103396057D01*
X123752099Y-103396057D01*
X123641180Y-103414565D01*
X123411526Y-103493407D01*
X123411512Y-103493413D01*
X123197970Y-103608975D01*
X123197961Y-103608981D01*
X123006352Y-103758117D01*
X123006342Y-103758126D01*
X122841894Y-103936762D01*
X122841890Y-103936768D01*
X122835908Y-103945925D01*
X122782761Y-103991281D01*
X122713529Y-104000703D01*
X122650194Y-103971201D01*
X122628292Y-103945925D01*
X122622309Y-103936768D01*
X122622305Y-103936762D01*
X122457857Y-103758126D01*
X122457847Y-103758117D01*
X122266238Y-103608981D01*
X122266229Y-103608975D01*
X122052687Y-103493413D01*
X122052673Y-103493407D01*
X121823019Y-103414565D01*
X121712100Y-103396057D01*
X121712100Y-104404298D01*
X121604415Y-104355120D01*
X121497863Y-104339800D01*
X121426337Y-104339800D01*
X121319785Y-104355120D01*
X121212100Y-104404298D01*
X121212100Y-103396057D01*
X121212099Y-103396057D01*
X121101180Y-103414565D01*
X120871526Y-103493407D01*
X120871512Y-103493413D01*
X120657970Y-103608975D01*
X120657961Y-103608981D01*
X120466352Y-103758117D01*
X120466342Y-103758126D01*
X120301894Y-103936762D01*
X120301886Y-103936773D01*
X120169078Y-104140050D01*
X120071538Y-104362421D01*
X120013958Y-104589800D01*
X121028414Y-104589800D01*
X121002607Y-104629956D01*
X120962100Y-104767911D01*
X120962100Y-104911689D01*
X121002607Y-105049644D01*
X121028414Y-105089800D01*
X120013958Y-105089800D01*
X120071538Y-105317178D01*
X120169078Y-105539549D01*
X120301886Y-105742826D01*
X120301894Y-105742837D01*
X120466342Y-105921473D01*
X120466345Y-105921476D01*
X120582174Y-106011629D01*
X120622987Y-106068340D01*
X120626662Y-106138113D01*
X120592030Y-106198796D01*
X120582174Y-106207336D01*
X120466012Y-106297748D01*
X120466009Y-106297751D01*
X120301488Y-106476468D01*
X120282443Y-106505621D01*
X120229297Y-106550978D01*
X120178634Y-106561800D01*
X119179000Y-106561800D01*
X119111961Y-106542115D01*
X119066206Y-106489311D01*
X119055000Y-106437800D01*
X119055000Y-104824419D01*
X119055389Y-104817480D01*
X119060176Y-104775000D01*
X119055389Y-104732519D01*
X119055000Y-104725579D01*
X119055000Y-103539837D01*
X119055000Y-103539834D01*
X119051213Y-103523245D01*
X119045488Y-103498159D01*
X119044322Y-103491299D01*
X119043553Y-103484477D01*
X119039537Y-103448826D01*
X119025419Y-103408481D01*
X119023493Y-103401794D01*
X119013982Y-103360121D01*
X118995436Y-103321611D01*
X118992772Y-103315181D01*
X118978658Y-103274843D01*
X118978656Y-103274837D01*
X118955910Y-103238637D01*
X118952547Y-103232553D01*
X118949824Y-103226899D01*
X118934003Y-103194044D01*
X118934002Y-103194043D01*
X118934002Y-103194042D01*
X118920259Y-103176809D01*
X118907347Y-103160619D01*
X118903325Y-103154949D01*
X118880587Y-103118761D01*
X118880586Y-103118760D01*
X118880585Y-103118758D01*
X118750242Y-102988415D01*
X118750241Y-102988414D01*
X118747909Y-102986082D01*
X118747898Y-102986072D01*
X117833458Y-102071632D01*
X117833430Y-102071602D01*
X115179319Y-99417491D01*
X115145834Y-99356168D01*
X115143000Y-99329810D01*
X115143000Y-98096216D01*
X115162685Y-98029177D01*
X115215489Y-97983422D01*
X115232400Y-97977140D01*
X115285398Y-97961744D01*
X115426865Y-97878081D01*
X115543081Y-97761865D01*
X115626744Y-97620398D01*
X115672598Y-97462569D01*
X115675500Y-97425694D01*
X115675500Y-96994306D01*
X115672598Y-96957431D01*
X115626744Y-96799602D01*
X115596001Y-96747619D01*
X115578820Y-96679896D01*
X115600981Y-96613634D01*
X115655447Y-96569871D01*
X115702735Y-96560500D01*
X119902203Y-96560500D01*
X119969242Y-96580185D01*
X119989884Y-96596819D01*
X120966413Y-97573348D01*
X120999898Y-97634671D01*
X120994914Y-97704363D01*
X120953042Y-97760296D01*
X120887578Y-97784713D01*
X120867926Y-97784557D01*
X120827104Y-97780986D01*
X120827099Y-97780986D01*
X120593753Y-97801401D01*
X120593743Y-97801403D01*
X120367496Y-97862025D01*
X120367489Y-97862027D01*
X120367489Y-97862028D01*
X120155193Y-97961023D01*
X119963313Y-98095379D01*
X119963311Y-98095380D01*
X119963308Y-98095383D01*
X119797683Y-98261008D01*
X119797680Y-98261011D01*
X119797679Y-98261013D01*
X119708285Y-98388681D01*
X119660218Y-98457328D01*
X119658780Y-98456321D01*
X119613910Y-98499097D01*
X119545302Y-98512313D01*
X119480440Y-98486340D01*
X119454802Y-98456753D01*
X119453982Y-98457328D01*
X119448854Y-98450004D01*
X119316521Y-98261013D01*
X119150887Y-98095379D01*
X118959007Y-97961023D01*
X118746711Y-97862028D01*
X118746707Y-97862027D01*
X118746703Y-97862025D01*
X118520456Y-97801403D01*
X118520446Y-97801401D01*
X118287101Y-97780986D01*
X118287099Y-97780986D01*
X118053753Y-97801401D01*
X118053743Y-97801403D01*
X117827496Y-97862025D01*
X117827489Y-97862027D01*
X117827489Y-97862028D01*
X117615193Y-97961023D01*
X117423313Y-98095379D01*
X117423311Y-98095380D01*
X117423308Y-98095383D01*
X117257683Y-98261008D01*
X117257680Y-98261011D01*
X117257679Y-98261013D01*
X117210368Y-98328580D01*
X117123323Y-98452893D01*
X117024329Y-98665187D01*
X117024325Y-98665196D01*
X116963703Y-98891443D01*
X116963701Y-98891453D01*
X116943286Y-99124799D01*
X116943286Y-99124800D01*
X116963701Y-99358146D01*
X116963703Y-99358156D01*
X117024325Y-99584403D01*
X117024327Y-99584407D01*
X117024328Y-99584411D01*
X117123323Y-99796707D01*
X117257679Y-99988587D01*
X117423313Y-100154221D01*
X117615193Y-100288577D01*
X117827489Y-100387572D01*
X118053749Y-100448198D01*
X118240429Y-100464530D01*
X118287099Y-100468614D01*
X118287100Y-100468614D01*
X118287101Y-100468614D01*
X118325991Y-100465211D01*
X118520451Y-100448198D01*
X118746711Y-100387572D01*
X118959007Y-100288577D01*
X119150887Y-100154221D01*
X119316521Y-99988587D01*
X119450877Y-99796707D01*
X119450877Y-99796705D01*
X119453982Y-99792272D01*
X119455423Y-99793281D01*
X119500272Y-99750512D01*
X119568878Y-99737284D01*
X119633745Y-99763247D01*
X119659394Y-99792848D01*
X119660218Y-99792272D01*
X119663322Y-99796705D01*
X119663323Y-99796707D01*
X119797679Y-99988587D01*
X119963313Y-100154221D01*
X120155193Y-100288577D01*
X120367489Y-100387572D01*
X120593749Y-100448198D01*
X120780429Y-100464530D01*
X120827099Y-100468614D01*
X120827100Y-100468614D01*
X120827101Y-100468614D01*
X120865991Y-100465211D01*
X121060451Y-100448198D01*
X121286711Y-100387572D01*
X121499007Y-100288577D01*
X121690887Y-100154221D01*
X121856521Y-99988587D01*
X121990877Y-99796707D01*
X121990877Y-99796705D01*
X121993982Y-99792272D01*
X121995423Y-99793281D01*
X122040272Y-99750512D01*
X122108878Y-99737284D01*
X122173745Y-99763247D01*
X122199394Y-99792848D01*
X122200218Y-99792272D01*
X122203322Y-99796705D01*
X122203323Y-99796707D01*
X122337679Y-99988587D01*
X122503313Y-100154221D01*
X122695193Y-100288577D01*
X122907489Y-100387572D01*
X123133749Y-100448198D01*
X123320429Y-100464530D01*
X123367099Y-100468614D01*
X123367100Y-100468614D01*
X123367101Y-100468614D01*
X123405991Y-100465211D01*
X123600451Y-100448198D01*
X123826711Y-100387572D01*
X124039007Y-100288577D01*
X124230887Y-100154221D01*
X124396521Y-99988587D01*
X124530877Y-99796707D01*
X124530877Y-99796705D01*
X124533982Y-99792272D01*
X124535423Y-99793281D01*
X124580272Y-99750512D01*
X124648878Y-99737284D01*
X124713745Y-99763247D01*
X124739394Y-99792848D01*
X124740218Y-99792272D01*
X124743322Y-99796705D01*
X124743323Y-99796707D01*
X124877679Y-99988587D01*
X125043313Y-100154221D01*
X125235193Y-100288577D01*
X125447489Y-100387572D01*
X125673749Y-100448198D01*
X125860429Y-100464530D01*
X125907099Y-100468614D01*
X125907100Y-100468614D01*
X125907101Y-100468614D01*
X125945991Y-100465211D01*
X126140451Y-100448198D01*
X126366711Y-100387572D01*
X126579007Y-100288577D01*
X126770887Y-100154221D01*
X126936521Y-99988587D01*
X127070877Y-99796707D01*
X127070877Y-99796705D01*
X127073982Y-99792272D01*
X127075423Y-99793281D01*
X127120272Y-99750512D01*
X127188878Y-99737284D01*
X127253745Y-99763247D01*
X127279394Y-99792848D01*
X127280218Y-99792272D01*
X127283322Y-99796705D01*
X127283323Y-99796707D01*
X127417679Y-99988587D01*
X127583313Y-100154221D01*
X127775193Y-100288577D01*
X127987489Y-100387572D01*
X128213749Y-100448198D01*
X128400429Y-100464530D01*
X128447099Y-100468614D01*
X128447100Y-100468614D01*
X128447101Y-100468614D01*
X128485991Y-100465211D01*
X128680451Y-100448198D01*
X128906711Y-100387572D01*
X129119007Y-100288577D01*
X129310887Y-100154221D01*
X129476521Y-99988587D01*
X129610877Y-99796707D01*
X129610877Y-99796705D01*
X129613982Y-99792272D01*
X129615423Y-99793281D01*
X129660272Y-99750512D01*
X129728878Y-99737284D01*
X129793745Y-99763247D01*
X129819394Y-99792848D01*
X129820218Y-99792272D01*
X129823322Y-99796705D01*
X129823323Y-99796707D01*
X129957679Y-99988587D01*
X130123313Y-100154221D01*
X130315193Y-100288577D01*
X130527489Y-100387572D01*
X130753749Y-100448198D01*
X130940429Y-100464530D01*
X130987099Y-100468614D01*
X130987100Y-100468614D01*
X130987101Y-100468614D01*
X131025991Y-100465211D01*
X131220451Y-100448198D01*
X131446711Y-100387572D01*
X131659007Y-100288577D01*
X131850887Y-100154221D01*
X132016521Y-99988587D01*
X132150877Y-99796707D01*
X132150877Y-99796705D01*
X132153982Y-99792272D01*
X132155423Y-99793281D01*
X132200272Y-99750512D01*
X132268878Y-99737284D01*
X132333745Y-99763247D01*
X132359394Y-99792848D01*
X132360218Y-99792272D01*
X132363322Y-99796705D01*
X132363323Y-99796707D01*
X132497679Y-99988587D01*
X132663313Y-100154221D01*
X132855193Y-100288577D01*
X133067489Y-100387572D01*
X133293749Y-100448198D01*
X133480429Y-100464530D01*
X133527099Y-100468614D01*
X133527100Y-100468614D01*
X133527101Y-100468614D01*
X133565991Y-100465211D01*
X133760451Y-100448198D01*
X133986711Y-100387572D01*
X134199007Y-100288577D01*
X134390887Y-100154221D01*
X134556521Y-99988587D01*
X134690877Y-99796707D01*
X134690877Y-99796705D01*
X134693982Y-99792272D01*
X134695423Y-99793281D01*
X134740272Y-99750512D01*
X134808878Y-99737284D01*
X134873745Y-99763247D01*
X134899394Y-99792848D01*
X134900218Y-99792272D01*
X134903322Y-99796705D01*
X134903323Y-99796707D01*
X135037679Y-99988587D01*
X135203313Y-100154221D01*
X135395193Y-100288577D01*
X135607489Y-100387572D01*
X135833749Y-100448198D01*
X136020429Y-100464530D01*
X136067099Y-100468614D01*
X136067100Y-100468614D01*
X136067101Y-100468614D01*
X136105991Y-100465211D01*
X136300451Y-100448198D01*
X136526711Y-100387572D01*
X136739007Y-100288577D01*
X136930887Y-100154221D01*
X137096521Y-99988587D01*
X137230877Y-99796707D01*
X137230877Y-99796705D01*
X137233982Y-99792272D01*
X137235423Y-99793281D01*
X137280272Y-99750512D01*
X137348878Y-99737284D01*
X137413745Y-99763247D01*
X137439394Y-99792848D01*
X137440218Y-99792272D01*
X137443322Y-99796705D01*
X137443323Y-99796707D01*
X137577679Y-99988587D01*
X137743313Y-100154221D01*
X137900351Y-100264180D01*
X137943975Y-100318756D01*
X137951167Y-100388255D01*
X137919645Y-100450609D01*
X137859415Y-100486023D01*
X137813041Y-100488693D01*
X137795001Y-100486318D01*
X137795000Y-100486318D01*
X137755639Y-100491500D01*
X137638239Y-100506955D01*
X137638237Y-100506956D01*
X137492160Y-100567463D01*
X137366714Y-100663721D01*
X137345024Y-100691990D01*
X137339671Y-100698094D01*
X129462968Y-108574795D01*
X129401645Y-108608280D01*
X129352503Y-108609002D01*
X129264220Y-108592500D01*
X129053780Y-108592500D01*
X128846924Y-108631168D01*
X128846921Y-108631168D01*
X128846921Y-108631169D01*
X128650698Y-108707185D01*
X128650692Y-108707188D01*
X128471778Y-108817967D01*
X128471776Y-108817969D01*
X128316261Y-108959739D01*
X128189442Y-109127674D01*
X128095642Y-109316049D01*
X128095641Y-109316053D01*
X128052071Y-109469188D01*
X128038051Y-109518462D01*
X128018635Y-109727999D01*
X128018635Y-109728000D01*
X128038051Y-109937537D01*
X128038051Y-109937539D01*
X128038052Y-109937542D01*
X128095641Y-110139947D01*
X128095642Y-110139950D01*
X128154494Y-110258140D01*
X128189442Y-110328325D01*
X128311533Y-110490000D01*
X128316261Y-110496260D01*
X128471776Y-110638030D01*
X128471778Y-110638032D01*
X128650692Y-110748811D01*
X128650698Y-110748814D01*
X128692268Y-110764918D01*
X128846924Y-110824832D01*
X129053780Y-110863500D01*
X129053782Y-110863500D01*
X129264218Y-110863500D01*
X129264220Y-110863500D01*
X129471076Y-110824832D01*
X129667304Y-110748813D01*
X129846223Y-110638031D01*
X130001740Y-110496259D01*
X130128558Y-110328325D01*
X130222359Y-110139947D01*
X130279948Y-109937542D01*
X130299365Y-109728000D01*
X130280046Y-109519518D01*
X130293461Y-109450950D01*
X130315833Y-109420400D01*
X138007416Y-101728819D01*
X138068739Y-101695334D01*
X138095097Y-101692500D01*
X165945572Y-101692500D01*
X165953670Y-101693030D01*
X165989000Y-101697682D01*
X165989001Y-101697682D01*
X166041254Y-101690802D01*
X166145762Y-101677044D01*
X166291841Y-101616536D01*
X166417282Y-101520282D01*
X166438983Y-101491999D01*
X166444311Y-101485922D01*
X166941022Y-100989211D01*
X166947099Y-100983883D01*
X166975382Y-100962182D01*
X167071636Y-100836741D01*
X167132144Y-100690662D01*
X167138873Y-100639550D01*
X167152783Y-100533900D01*
X167148131Y-100498565D01*
X167147600Y-100490463D01*
X167147600Y-100400871D01*
X167167285Y-100333832D01*
X167214878Y-100292259D01*
X167214316Y-100291285D01*
X167218993Y-100288583D01*
X167219007Y-100288577D01*
X167410887Y-100154221D01*
X167576521Y-99988587D01*
X167710877Y-99796707D01*
X167710877Y-99796705D01*
X167713982Y-99792272D01*
X167715423Y-99793281D01*
X167760272Y-99750512D01*
X167828878Y-99737284D01*
X167893745Y-99763247D01*
X167919394Y-99792848D01*
X167920218Y-99792272D01*
X167923322Y-99796705D01*
X167923323Y-99796707D01*
X168057679Y-99988587D01*
X168223313Y-100154221D01*
X168415193Y-100288577D01*
X168627489Y-100387572D01*
X168853749Y-100448198D01*
X169040429Y-100464530D01*
X169087099Y-100468614D01*
X169087100Y-100468614D01*
X169087101Y-100468614D01*
X169125991Y-100465211D01*
X169320451Y-100448198D01*
X169546711Y-100387572D01*
X169759007Y-100288577D01*
X169950887Y-100154221D01*
X170116521Y-99988587D01*
X170250877Y-99796707D01*
X170250877Y-99796705D01*
X170253982Y-99792272D01*
X170255423Y-99793281D01*
X170300272Y-99750512D01*
X170368878Y-99737284D01*
X170433745Y-99763247D01*
X170459394Y-99792848D01*
X170460218Y-99792272D01*
X170463322Y-99796705D01*
X170463323Y-99796707D01*
X170597679Y-99988587D01*
X170763313Y-100154221D01*
X170955193Y-100288577D01*
X171167489Y-100387572D01*
X171393749Y-100448198D01*
X171580429Y-100464530D01*
X171627099Y-100468614D01*
X171627100Y-100468614D01*
X171627101Y-100468614D01*
X171665991Y-100465211D01*
X171860451Y-100448198D01*
X172086711Y-100387572D01*
X172299007Y-100288577D01*
X172490887Y-100154221D01*
X172656521Y-99988587D01*
X172790877Y-99796707D01*
X172790877Y-99796705D01*
X172793982Y-99792272D01*
X172795423Y-99793281D01*
X172840272Y-99750512D01*
X172908878Y-99737284D01*
X172973745Y-99763247D01*
X172999394Y-99792848D01*
X173000218Y-99792272D01*
X173003322Y-99796705D01*
X173003323Y-99796707D01*
X173137679Y-99988587D01*
X173303313Y-100154221D01*
X173495193Y-100288577D01*
X173707489Y-100387572D01*
X173933749Y-100448198D01*
X174120429Y-100464530D01*
X174167099Y-100468614D01*
X174167100Y-100468614D01*
X174167101Y-100468614D01*
X174205991Y-100465211D01*
X174400451Y-100448198D01*
X174626711Y-100387572D01*
X174839007Y-100288577D01*
X175030887Y-100154221D01*
X175196521Y-99988587D01*
X175330877Y-99796707D01*
X175330877Y-99796705D01*
X175333982Y-99792272D01*
X175335423Y-99793281D01*
X175380272Y-99750512D01*
X175448878Y-99737284D01*
X175513745Y-99763247D01*
X175539394Y-99792848D01*
X175540218Y-99792272D01*
X175543322Y-99796705D01*
X175543323Y-99796707D01*
X175677679Y-99988587D01*
X175843313Y-100154221D01*
X176035193Y-100288577D01*
X176247489Y-100387572D01*
X176473749Y-100448198D01*
X176660429Y-100464530D01*
X176707099Y-100468614D01*
X176707100Y-100468614D01*
X176707101Y-100468614D01*
X176745991Y-100465211D01*
X176940451Y-100448198D01*
X177166711Y-100387572D01*
X177379007Y-100288577D01*
X177570887Y-100154221D01*
X177736521Y-99988587D01*
X177870877Y-99796707D01*
X177870877Y-99796705D01*
X177873982Y-99792272D01*
X177875423Y-99793281D01*
X177920272Y-99750512D01*
X177988878Y-99737284D01*
X178053745Y-99763247D01*
X178079394Y-99792848D01*
X178080218Y-99792272D01*
X178083322Y-99796705D01*
X178083323Y-99796707D01*
X178217679Y-99988587D01*
X178383313Y-100154221D01*
X178575193Y-100288577D01*
X178787489Y-100387572D01*
X179013749Y-100448198D01*
X179200429Y-100464530D01*
X179247099Y-100468614D01*
X179247100Y-100468614D01*
X179247101Y-100468614D01*
X179285991Y-100465211D01*
X179480451Y-100448198D01*
X179706711Y-100387572D01*
X179919007Y-100288577D01*
X180110887Y-100154221D01*
X180276521Y-99988587D01*
X180410877Y-99796707D01*
X180509872Y-99584411D01*
X180570498Y-99358151D01*
X180590914Y-99124800D01*
X180570498Y-98891449D01*
X180509872Y-98665189D01*
X180410877Y-98452893D01*
X180276521Y-98261013D01*
X180110887Y-98095379D01*
X179919007Y-97961023D01*
X179706711Y-97862028D01*
X179706707Y-97862027D01*
X179706703Y-97862025D01*
X179480456Y-97801403D01*
X179480446Y-97801401D01*
X179247101Y-97780986D01*
X179247099Y-97780986D01*
X179013753Y-97801401D01*
X179013743Y-97801403D01*
X178787496Y-97862025D01*
X178787489Y-97862027D01*
X178787489Y-97862028D01*
X178575193Y-97961023D01*
X178383313Y-98095379D01*
X178383311Y-98095380D01*
X178383308Y-98095383D01*
X178217683Y-98261008D01*
X178217680Y-98261011D01*
X178217679Y-98261013D01*
X178128285Y-98388681D01*
X178080218Y-98457328D01*
X178078780Y-98456321D01*
X178033910Y-98499097D01*
X177965302Y-98512313D01*
X177900440Y-98486340D01*
X177874802Y-98456753D01*
X177873982Y-98457328D01*
X177868854Y-98450004D01*
X177736521Y-98261013D01*
X177570887Y-98095379D01*
X177379007Y-97961023D01*
X177166711Y-97862028D01*
X177166707Y-97862027D01*
X177166703Y-97862025D01*
X176940456Y-97801403D01*
X176940446Y-97801401D01*
X176707101Y-97780986D01*
X176707099Y-97780986D01*
X176473753Y-97801401D01*
X176473743Y-97801403D01*
X176247496Y-97862025D01*
X176247489Y-97862027D01*
X176247489Y-97862028D01*
X176035193Y-97961023D01*
X175843313Y-98095379D01*
X175843311Y-98095380D01*
X175843308Y-98095383D01*
X175677683Y-98261008D01*
X175677680Y-98261011D01*
X175677679Y-98261013D01*
X175588285Y-98388681D01*
X175540218Y-98457328D01*
X175538780Y-98456321D01*
X175493910Y-98499097D01*
X175425302Y-98512313D01*
X175360440Y-98486340D01*
X175334802Y-98456753D01*
X175333982Y-98457328D01*
X175328854Y-98450004D01*
X175196521Y-98261013D01*
X175030887Y-98095379D01*
X174839007Y-97961023D01*
X174626711Y-97862028D01*
X174626707Y-97862027D01*
X174626703Y-97862025D01*
X174400456Y-97801403D01*
X174400446Y-97801401D01*
X174167101Y-97780986D01*
X174167099Y-97780986D01*
X173933753Y-97801401D01*
X173933743Y-97801403D01*
X173707496Y-97862025D01*
X173707489Y-97862027D01*
X173707489Y-97862028D01*
X173495193Y-97961023D01*
X173303313Y-98095379D01*
X173303311Y-98095380D01*
X173303308Y-98095383D01*
X173137683Y-98261008D01*
X173137680Y-98261011D01*
X173137679Y-98261013D01*
X173048285Y-98388681D01*
X173000218Y-98457328D01*
X172998780Y-98456321D01*
X172953910Y-98499097D01*
X172885302Y-98512313D01*
X172820440Y-98486340D01*
X172794802Y-98456753D01*
X172793982Y-98457328D01*
X172788854Y-98450004D01*
X172656521Y-98261013D01*
X172490887Y-98095379D01*
X172299007Y-97961023D01*
X172086711Y-97862028D01*
X172086707Y-97862027D01*
X172086703Y-97862025D01*
X171860456Y-97801403D01*
X171860446Y-97801401D01*
X171627101Y-97780986D01*
X171627099Y-97780986D01*
X171393753Y-97801401D01*
X171393743Y-97801403D01*
X171167496Y-97862025D01*
X171167489Y-97862027D01*
X171167489Y-97862028D01*
X170955193Y-97961023D01*
X170763313Y-98095379D01*
X170763311Y-98095380D01*
X170763308Y-98095383D01*
X170597683Y-98261008D01*
X170597680Y-98261011D01*
X170597679Y-98261013D01*
X170508285Y-98388681D01*
X170460218Y-98457328D01*
X170458780Y-98456321D01*
X170413910Y-98499097D01*
X170345302Y-98512313D01*
X170280440Y-98486340D01*
X170254802Y-98456753D01*
X170253982Y-98457328D01*
X170248854Y-98450004D01*
X170116521Y-98261013D01*
X169950887Y-98095379D01*
X169759007Y-97961023D01*
X169546711Y-97862028D01*
X169546707Y-97862027D01*
X169546703Y-97862025D01*
X169320456Y-97801403D01*
X169320446Y-97801401D01*
X169087101Y-97780986D01*
X169087099Y-97780986D01*
X168853753Y-97801401D01*
X168853743Y-97801403D01*
X168627496Y-97862025D01*
X168627489Y-97862027D01*
X168627489Y-97862028D01*
X168415193Y-97961023D01*
X168223313Y-98095379D01*
X168223311Y-98095380D01*
X168223308Y-98095383D01*
X168057683Y-98261008D01*
X168057680Y-98261011D01*
X168057679Y-98261013D01*
X167968285Y-98388681D01*
X167920218Y-98457328D01*
X167918780Y-98456321D01*
X167873910Y-98499097D01*
X167805302Y-98512313D01*
X167740440Y-98486340D01*
X167714802Y-98456753D01*
X167713982Y-98457328D01*
X167708854Y-98450004D01*
X167576521Y-98261013D01*
X167410887Y-98095379D01*
X167219007Y-97961023D01*
X167006711Y-97862028D01*
X167006707Y-97862027D01*
X167006703Y-97862025D01*
X166780456Y-97801403D01*
X166780446Y-97801401D01*
X166547101Y-97780986D01*
X166547099Y-97780986D01*
X166313753Y-97801401D01*
X166313743Y-97801403D01*
X166087496Y-97862025D01*
X166087489Y-97862027D01*
X166087489Y-97862028D01*
X165875193Y-97961023D01*
X165683313Y-98095379D01*
X165683311Y-98095380D01*
X165683308Y-98095383D01*
X165517683Y-98261008D01*
X165517680Y-98261011D01*
X165517679Y-98261013D01*
X165428285Y-98388681D01*
X165380218Y-98457328D01*
X165378780Y-98456321D01*
X165333910Y-98499097D01*
X165265302Y-98512313D01*
X165200440Y-98486340D01*
X165174802Y-98456753D01*
X165173982Y-98457328D01*
X165168854Y-98450004D01*
X165036521Y-98261013D01*
X164870887Y-98095379D01*
X164679007Y-97961023D01*
X164466711Y-97862028D01*
X164466707Y-97862027D01*
X164466703Y-97862025D01*
X164240456Y-97801403D01*
X164240446Y-97801401D01*
X164007101Y-97780986D01*
X164007099Y-97780986D01*
X163773753Y-97801401D01*
X163773743Y-97801403D01*
X163547496Y-97862025D01*
X163547489Y-97862027D01*
X163547489Y-97862028D01*
X163335193Y-97961023D01*
X163143313Y-98095379D01*
X163143311Y-98095380D01*
X163143308Y-98095383D01*
X162977683Y-98261008D01*
X162977680Y-98261011D01*
X162977679Y-98261013D01*
X162888285Y-98388681D01*
X162840218Y-98457328D01*
X162838780Y-98456321D01*
X162793910Y-98499097D01*
X162725302Y-98512313D01*
X162660440Y-98486340D01*
X162634802Y-98456753D01*
X162633982Y-98457328D01*
X162628854Y-98450004D01*
X162496521Y-98261013D01*
X162330887Y-98095379D01*
X162139007Y-97961023D01*
X161926711Y-97862028D01*
X161926707Y-97862027D01*
X161926703Y-97862025D01*
X161700456Y-97801403D01*
X161700446Y-97801401D01*
X161467101Y-97780986D01*
X161467099Y-97780986D01*
X161233753Y-97801401D01*
X161233743Y-97801403D01*
X161007496Y-97862025D01*
X161007489Y-97862027D01*
X161007489Y-97862028D01*
X160795193Y-97961023D01*
X160603313Y-98095379D01*
X160603311Y-98095380D01*
X160603308Y-98095383D01*
X160437683Y-98261008D01*
X160437680Y-98261011D01*
X160437679Y-98261013D01*
X160348285Y-98388681D01*
X160300218Y-98457328D01*
X160298780Y-98456321D01*
X160253910Y-98499097D01*
X160185302Y-98512313D01*
X160120440Y-98486340D01*
X160094802Y-98456753D01*
X160093982Y-98457328D01*
X160088854Y-98450004D01*
X159956521Y-98261013D01*
X159790887Y-98095379D01*
X159599007Y-97961023D01*
X159386711Y-97862028D01*
X159386707Y-97862027D01*
X159386703Y-97862025D01*
X159160456Y-97801403D01*
X159160446Y-97801401D01*
X158927101Y-97780986D01*
X158927099Y-97780986D01*
X158693753Y-97801401D01*
X158693743Y-97801403D01*
X158467496Y-97862025D01*
X158467489Y-97862027D01*
X158467489Y-97862028D01*
X158255193Y-97961023D01*
X158063313Y-98095379D01*
X158063311Y-98095380D01*
X158063308Y-98095383D01*
X157897683Y-98261008D01*
X157897680Y-98261011D01*
X157897679Y-98261013D01*
X157808285Y-98388681D01*
X157760218Y-98457328D01*
X157758780Y-98456321D01*
X157713910Y-98499097D01*
X157645302Y-98512313D01*
X157580440Y-98486340D01*
X157554802Y-98456753D01*
X157553982Y-98457328D01*
X157548854Y-98450004D01*
X157416521Y-98261013D01*
X157250887Y-98095379D01*
X157059007Y-97961023D01*
X156846711Y-97862028D01*
X156846707Y-97862027D01*
X156846703Y-97862025D01*
X156620456Y-97801403D01*
X156620446Y-97801401D01*
X156387101Y-97780986D01*
X156387099Y-97780986D01*
X156153753Y-97801401D01*
X156153743Y-97801403D01*
X155927496Y-97862025D01*
X155927489Y-97862027D01*
X155927489Y-97862028D01*
X155715193Y-97961023D01*
X155523313Y-98095379D01*
X155523311Y-98095380D01*
X155523308Y-98095383D01*
X155357683Y-98261008D01*
X155357680Y-98261011D01*
X155357679Y-98261013D01*
X155268285Y-98388681D01*
X155220218Y-98457328D01*
X155218780Y-98456321D01*
X155173910Y-98499097D01*
X155105302Y-98512313D01*
X155040440Y-98486340D01*
X155014802Y-98456753D01*
X155013982Y-98457328D01*
X155008854Y-98450004D01*
X154876521Y-98261013D01*
X154710887Y-98095379D01*
X154519007Y-97961023D01*
X154306711Y-97862028D01*
X154306707Y-97862027D01*
X154306703Y-97862025D01*
X154080456Y-97801403D01*
X154080446Y-97801401D01*
X153847101Y-97780986D01*
X153847099Y-97780986D01*
X153613753Y-97801401D01*
X153613743Y-97801403D01*
X153387496Y-97862025D01*
X153387489Y-97862027D01*
X153387489Y-97862028D01*
X153175193Y-97961023D01*
X152983313Y-98095379D01*
X152983311Y-98095380D01*
X152983308Y-98095383D01*
X152817683Y-98261008D01*
X152817680Y-98261011D01*
X152817679Y-98261013D01*
X152728285Y-98388681D01*
X152680218Y-98457328D01*
X152678780Y-98456321D01*
X152633910Y-98499097D01*
X152565302Y-98512313D01*
X152500440Y-98486340D01*
X152474802Y-98456753D01*
X152473982Y-98457328D01*
X152468854Y-98450004D01*
X152336521Y-98261013D01*
X152170887Y-98095379D01*
X151979007Y-97961023D01*
X151766711Y-97862028D01*
X151766707Y-97862027D01*
X151766703Y-97862025D01*
X151540456Y-97801403D01*
X151540446Y-97801401D01*
X151307101Y-97780986D01*
X151307099Y-97780986D01*
X151073753Y-97801401D01*
X151073743Y-97801403D01*
X150847496Y-97862025D01*
X150847489Y-97862027D01*
X150847489Y-97862028D01*
X150635193Y-97961023D01*
X150443313Y-98095379D01*
X150443311Y-98095380D01*
X150443308Y-98095383D01*
X150277683Y-98261008D01*
X150277680Y-98261011D01*
X150277679Y-98261013D01*
X150188285Y-98388681D01*
X150140218Y-98457328D01*
X150138780Y-98456321D01*
X150093910Y-98499097D01*
X150025302Y-98512313D01*
X149960440Y-98486340D01*
X149934802Y-98456753D01*
X149933982Y-98457328D01*
X149928854Y-98450004D01*
X149796521Y-98261013D01*
X149630887Y-98095379D01*
X149439007Y-97961023D01*
X149226711Y-97862028D01*
X149226707Y-97862027D01*
X149226703Y-97862025D01*
X149000456Y-97801403D01*
X149000446Y-97801401D01*
X148767101Y-97780986D01*
X148767099Y-97780986D01*
X148533753Y-97801401D01*
X148533743Y-97801403D01*
X148307496Y-97862025D01*
X148307489Y-97862027D01*
X148307489Y-97862028D01*
X148095193Y-97961023D01*
X147903313Y-98095379D01*
X147903311Y-98095380D01*
X147903308Y-98095383D01*
X147737683Y-98261008D01*
X147737680Y-98261011D01*
X147737679Y-98261013D01*
X147648285Y-98388681D01*
X147600218Y-98457328D01*
X147598780Y-98456321D01*
X147553910Y-98499097D01*
X147485302Y-98512313D01*
X147420440Y-98486340D01*
X147394802Y-98456753D01*
X147393982Y-98457328D01*
X147388854Y-98450004D01*
X147256521Y-98261013D01*
X147090887Y-98095379D01*
X146899007Y-97961023D01*
X146686711Y-97862028D01*
X146686707Y-97862027D01*
X146686703Y-97862025D01*
X146460456Y-97801403D01*
X146460446Y-97801401D01*
X146227101Y-97780986D01*
X146227099Y-97780986D01*
X145993753Y-97801401D01*
X145993743Y-97801403D01*
X145767496Y-97862025D01*
X145767489Y-97862027D01*
X145767489Y-97862028D01*
X145555193Y-97961023D01*
X145363313Y-98095379D01*
X145363311Y-98095380D01*
X145363308Y-98095383D01*
X145197683Y-98261008D01*
X145197680Y-98261011D01*
X145197679Y-98261013D01*
X145108285Y-98388681D01*
X145060218Y-98457328D01*
X145058780Y-98456321D01*
X145013910Y-98499097D01*
X144945302Y-98512313D01*
X144880440Y-98486340D01*
X144854802Y-98456753D01*
X144853982Y-98457328D01*
X144848854Y-98450004D01*
X144716521Y-98261013D01*
X144550887Y-98095379D01*
X144359007Y-97961023D01*
X144146711Y-97862028D01*
X144146707Y-97862027D01*
X144146703Y-97862025D01*
X143920456Y-97801403D01*
X143920446Y-97801401D01*
X143687101Y-97780986D01*
X143687099Y-97780986D01*
X143453753Y-97801401D01*
X143453743Y-97801403D01*
X143227496Y-97862025D01*
X143227489Y-97862027D01*
X143227489Y-97862028D01*
X143015193Y-97961023D01*
X142823313Y-98095379D01*
X142823311Y-98095380D01*
X142823308Y-98095383D01*
X142657683Y-98261008D01*
X142657680Y-98261011D01*
X142657679Y-98261013D01*
X142568285Y-98388681D01*
X142520218Y-98457328D01*
X142518780Y-98456321D01*
X142473910Y-98499097D01*
X142405302Y-98512313D01*
X142340440Y-98486340D01*
X142314802Y-98456753D01*
X142313982Y-98457328D01*
X142308854Y-98450004D01*
X142176521Y-98261013D01*
X142010887Y-98095379D01*
X141819007Y-97961023D01*
X141606711Y-97862028D01*
X141606707Y-97862027D01*
X141606703Y-97862025D01*
X141380456Y-97801403D01*
X141380446Y-97801401D01*
X141147101Y-97780986D01*
X141147099Y-97780986D01*
X140913753Y-97801401D01*
X140913743Y-97801403D01*
X140687496Y-97862025D01*
X140687489Y-97862027D01*
X140687489Y-97862028D01*
X140475193Y-97961023D01*
X140283313Y-98095379D01*
X140283311Y-98095380D01*
X140283308Y-98095383D01*
X140117683Y-98261008D01*
X140117680Y-98261011D01*
X140117679Y-98261013D01*
X140028285Y-98388681D01*
X139980218Y-98457328D01*
X139978780Y-98456321D01*
X139933910Y-98499097D01*
X139865302Y-98512313D01*
X139800440Y-98486340D01*
X139774802Y-98456753D01*
X139773982Y-98457328D01*
X139768854Y-98450004D01*
X139636521Y-98261013D01*
X139470887Y-98095379D01*
X139279007Y-97961023D01*
X139066711Y-97862028D01*
X139066707Y-97862027D01*
X139066703Y-97862025D01*
X138840456Y-97801403D01*
X138840446Y-97801401D01*
X138607101Y-97780986D01*
X138607099Y-97780986D01*
X138373753Y-97801401D01*
X138373743Y-97801403D01*
X138147496Y-97862025D01*
X138147489Y-97862027D01*
X138147489Y-97862028D01*
X137935193Y-97961023D01*
X137743313Y-98095379D01*
X137743311Y-98095380D01*
X137743308Y-98095383D01*
X137577683Y-98261008D01*
X137577680Y-98261011D01*
X137577679Y-98261013D01*
X137488285Y-98388681D01*
X137440218Y-98457328D01*
X137438780Y-98456321D01*
X137393910Y-98499097D01*
X137325302Y-98512313D01*
X137260440Y-98486340D01*
X137234802Y-98456753D01*
X137233982Y-98457328D01*
X137228854Y-98450004D01*
X137096521Y-98261013D01*
X136930887Y-98095379D01*
X136739007Y-97961023D01*
X136526711Y-97862028D01*
X136526707Y-97862027D01*
X136526703Y-97862025D01*
X136300456Y-97801403D01*
X136300446Y-97801401D01*
X136067101Y-97780986D01*
X136067099Y-97780986D01*
X135833753Y-97801401D01*
X135833743Y-97801403D01*
X135607496Y-97862025D01*
X135607489Y-97862027D01*
X135607489Y-97862028D01*
X135395193Y-97961023D01*
X135203313Y-98095379D01*
X135203311Y-98095380D01*
X135203308Y-98095383D01*
X135037683Y-98261008D01*
X135037680Y-98261011D01*
X135037679Y-98261013D01*
X134948285Y-98388681D01*
X134900218Y-98457328D01*
X134898780Y-98456321D01*
X134853910Y-98499097D01*
X134785302Y-98512313D01*
X134720440Y-98486340D01*
X134694802Y-98456753D01*
X134693982Y-98457328D01*
X134688854Y-98450004D01*
X134556521Y-98261013D01*
X134390887Y-98095379D01*
X134199007Y-97961023D01*
X133986711Y-97862028D01*
X133986707Y-97862027D01*
X133986703Y-97862025D01*
X133760456Y-97801403D01*
X133760446Y-97801401D01*
X133527101Y-97780986D01*
X133527099Y-97780986D01*
X133293753Y-97801401D01*
X133293743Y-97801403D01*
X133067496Y-97862025D01*
X133067489Y-97862027D01*
X133067489Y-97862028D01*
X132855193Y-97961023D01*
X132663313Y-98095379D01*
X132663311Y-98095380D01*
X132663308Y-98095383D01*
X132497683Y-98261008D01*
X132497680Y-98261011D01*
X132497679Y-98261013D01*
X132408285Y-98388681D01*
X132360218Y-98457328D01*
X132358780Y-98456321D01*
X132313910Y-98499097D01*
X132245302Y-98512313D01*
X132180440Y-98486340D01*
X132154802Y-98456753D01*
X132153982Y-98457328D01*
X132148854Y-98450004D01*
X132016521Y-98261013D01*
X131850887Y-98095379D01*
X131659007Y-97961023D01*
X131446711Y-97862028D01*
X131446707Y-97862027D01*
X131446703Y-97862025D01*
X131220456Y-97801403D01*
X131220446Y-97801401D01*
X130987101Y-97780986D01*
X130987099Y-97780986D01*
X130753753Y-97801401D01*
X130753743Y-97801403D01*
X130527496Y-97862025D01*
X130527489Y-97862027D01*
X130527489Y-97862028D01*
X130315193Y-97961023D01*
X130123313Y-98095379D01*
X130123311Y-98095380D01*
X130123308Y-98095383D01*
X129957683Y-98261008D01*
X129957680Y-98261011D01*
X129957679Y-98261013D01*
X129868285Y-98388681D01*
X129820218Y-98457328D01*
X129818780Y-98456321D01*
X129773910Y-98499097D01*
X129705302Y-98512313D01*
X129640440Y-98486340D01*
X129614802Y-98456753D01*
X129613982Y-98457328D01*
X129608854Y-98450004D01*
X129476521Y-98261013D01*
X129310887Y-98095379D01*
X129119007Y-97961023D01*
X128906711Y-97862028D01*
X128906707Y-97862027D01*
X128906703Y-97862025D01*
X128680456Y-97801403D01*
X128680446Y-97801401D01*
X128447101Y-97780986D01*
X128447099Y-97780986D01*
X128213753Y-97801401D01*
X128213743Y-97801403D01*
X127987496Y-97862025D01*
X127987489Y-97862027D01*
X127987489Y-97862028D01*
X127775193Y-97961023D01*
X127583313Y-98095379D01*
X127583311Y-98095380D01*
X127583308Y-98095383D01*
X127417683Y-98261008D01*
X127417680Y-98261011D01*
X127417679Y-98261013D01*
X127328285Y-98388681D01*
X127280218Y-98457328D01*
X127278780Y-98456321D01*
X127233910Y-98499097D01*
X127165302Y-98512313D01*
X127100440Y-98486340D01*
X127074802Y-98456753D01*
X127073982Y-98457328D01*
X127068854Y-98450004D01*
X126936521Y-98261013D01*
X126770887Y-98095379D01*
X126579007Y-97961023D01*
X126366711Y-97862028D01*
X126366707Y-97862027D01*
X126366703Y-97862025D01*
X126140456Y-97801403D01*
X126140446Y-97801401D01*
X125907101Y-97780986D01*
X125907099Y-97780986D01*
X125673753Y-97801401D01*
X125673743Y-97801403D01*
X125447496Y-97862025D01*
X125447489Y-97862027D01*
X125447489Y-97862028D01*
X125235193Y-97961023D01*
X125043313Y-98095379D01*
X125043311Y-98095380D01*
X125043308Y-98095383D01*
X124877683Y-98261008D01*
X124877680Y-98261011D01*
X124877679Y-98261013D01*
X124788285Y-98388681D01*
X124740218Y-98457328D01*
X124738780Y-98456321D01*
X124693910Y-98499097D01*
X124625302Y-98512313D01*
X124560440Y-98486340D01*
X124534802Y-98456753D01*
X124533982Y-98457328D01*
X124528854Y-98450004D01*
X124396521Y-98261013D01*
X124230887Y-98095379D01*
X124039007Y-97961023D01*
X123826711Y-97862028D01*
X123826707Y-97862027D01*
X123826703Y-97862025D01*
X123600456Y-97801403D01*
X123600446Y-97801401D01*
X123367101Y-97780986D01*
X123367099Y-97780986D01*
X123133753Y-97801401D01*
X123133743Y-97801403D01*
X123012977Y-97833762D01*
X122943127Y-97832099D01*
X122893203Y-97801668D01*
X121778210Y-96686675D01*
X120657620Y-95566085D01*
X120652280Y-95559995D01*
X120630582Y-95531718D01*
X120505141Y-95435464D01*
X120359062Y-95374956D01*
X120359060Y-95374955D01*
X120241661Y-95359500D01*
X120202300Y-95354318D01*
X120166970Y-95358969D01*
X120158872Y-95359500D01*
X115702154Y-95359500D01*
X115635115Y-95339815D01*
X115589360Y-95287011D01*
X115579416Y-95217853D01*
X115595422Y-95172379D01*
X115626281Y-95120198D01*
X115672100Y-94962486D01*
X115672295Y-94960001D01*
X115672295Y-94960000D01*
X112977705Y-94960000D01*
X112977704Y-94960001D01*
X112977899Y-94962486D01*
X113023718Y-95120198D01*
X113111288Y-95268271D01*
X113109285Y-95269455D01*
X113130551Y-95323645D01*
X113116860Y-95392160D01*
X113110671Y-95401788D01*
X113023255Y-95549603D01*
X113023254Y-95549606D01*
X112977402Y-95707426D01*
X112977401Y-95707432D01*
X112974500Y-95744304D01*
X112974500Y-96175696D01*
X112977401Y-96212567D01*
X112977402Y-96212573D01*
X113023254Y-96370393D01*
X113023255Y-96370396D01*
X113110890Y-96518580D01*
X113108919Y-96519745D01*
X113130232Y-96574058D01*
X113116540Y-96642573D01*
X113110864Y-96651404D01*
X113110890Y-96651420D01*
X113023255Y-96799603D01*
X113023254Y-96799606D01*
X112977402Y-96957426D01*
X112977401Y-96957432D01*
X112974500Y-96994304D01*
X112974500Y-97425696D01*
X112977401Y-97462567D01*
X112977402Y-97462573D01*
X113023254Y-97620393D01*
X113023255Y-97620396D01*
X113106917Y-97761862D01*
X113106923Y-97761870D01*
X113223129Y-97878076D01*
X113223133Y-97878079D01*
X113223135Y-97878081D01*
X113364602Y-97961744D01*
X113417595Y-97977139D01*
X113476480Y-98014746D01*
X113505687Y-98078218D01*
X113507000Y-98096216D01*
X113507000Y-99812172D01*
X113516511Y-99853840D01*
X113517677Y-99860700D01*
X113522461Y-99903170D01*
X113527991Y-99918974D01*
X113536584Y-99943530D01*
X113538506Y-99950203D01*
X113548017Y-99991877D01*
X113566563Y-100030387D01*
X113569225Y-100036814D01*
X113583344Y-100077164D01*
X113583346Y-100077167D01*
X113606088Y-100113360D01*
X113609454Y-100119451D01*
X113627997Y-100157956D01*
X113652054Y-100188123D01*
X113654644Y-100191370D01*
X113658672Y-100197046D01*
X113681415Y-100233242D01*
X113818823Y-100370650D01*
X113818829Y-100370655D01*
X116676602Y-103228430D01*
X116676632Y-103228458D01*
X117193493Y-103745319D01*
X117226978Y-103806642D01*
X117221994Y-103876334D01*
X117180122Y-103932267D01*
X117114658Y-103956684D01*
X117105812Y-103957000D01*
X115705100Y-103957000D01*
X115638061Y-103937315D01*
X115592306Y-103884511D01*
X115582362Y-103815353D01*
X115586024Y-103798405D01*
X115592099Y-103777494D01*
X115592100Y-103777488D01*
X115592295Y-103775001D01*
X115592295Y-103775000D01*
X112897705Y-103775000D01*
X112897704Y-103775001D01*
X112897899Y-103777486D01*
X112943718Y-103935198D01*
X113031288Y-104083271D01*
X113029285Y-104084455D01*
X113050551Y-104138645D01*
X113036860Y-104207160D01*
X113030671Y-104216788D01*
X112943255Y-104364603D01*
X112943254Y-104364606D01*
X112897402Y-104522426D01*
X112897401Y-104522432D01*
X112894500Y-104559304D01*
X112894500Y-104990696D01*
X112897401Y-105027567D01*
X112897402Y-105027573D01*
X112943254Y-105185393D01*
X112943255Y-105185396D01*
X113030890Y-105333580D01*
X113028919Y-105334745D01*
X113050232Y-105389058D01*
X113036540Y-105457573D01*
X113030864Y-105466404D01*
X113030890Y-105466420D01*
X112943255Y-105614603D01*
X112943254Y-105614606D01*
X112897402Y-105772426D01*
X112897401Y-105772432D01*
X112894500Y-105809304D01*
X112894500Y-106240696D01*
X112897401Y-106277567D01*
X112897402Y-106277573D01*
X112943254Y-106435393D01*
X112943255Y-106435396D01*
X113026917Y-106576862D01*
X113026923Y-106576870D01*
X113143129Y-106693076D01*
X113143133Y-106693079D01*
X113143135Y-106693081D01*
X113284602Y-106776744D01*
X113326224Y-106788836D01*
X113442426Y-106822597D01*
X113442429Y-106822597D01*
X113442431Y-106822598D01*
X113454722Y-106823565D01*
X113479304Y-106825500D01*
X113479306Y-106825500D01*
X115010696Y-106825500D01*
X115029131Y-106824049D01*
X115047569Y-106822598D01*
X115129637Y-106798754D01*
X115199506Y-106798953D01*
X115251914Y-106830149D01*
X115314181Y-106892416D01*
X115347666Y-106953739D01*
X115350500Y-106980097D01*
X115350500Y-109176571D01*
X115349969Y-109184673D01*
X115345318Y-109219999D01*
X115345318Y-109220000D01*
X115350500Y-109259360D01*
X115365955Y-109376760D01*
X115365956Y-109376762D01*
X115426464Y-109522841D01*
X115522718Y-109648282D01*
X115550995Y-109669980D01*
X115557085Y-109675320D01*
X116326930Y-110445165D01*
X117085669Y-111203904D01*
X117091020Y-111210005D01*
X117112718Y-111238282D01*
X117165710Y-111278944D01*
X117238159Y-111334536D01*
X117238162Y-111334537D01*
X117238163Y-111334538D01*
X117384235Y-111395043D01*
X117384236Y-111395043D01*
X117384238Y-111395044D01*
X117384239Y-111395044D01*
X117391957Y-111397112D01*
X117451618Y-111433476D01*
X117482148Y-111496322D01*
X117473854Y-111565698D01*
X117429369Y-111619577D01*
X117375317Y-111638924D01*
X117375415Y-111639447D01*
X117372156Y-111640056D01*
X117371316Y-111640357D01*
X117369789Y-111640498D01*
X117284781Y-111656389D01*
X117162924Y-111679168D01*
X117162921Y-111679168D01*
X117162921Y-111679169D01*
X116966698Y-111755185D01*
X116966692Y-111755188D01*
X116787778Y-111865967D01*
X116787776Y-111865969D01*
X116632261Y-112007739D01*
X116505442Y-112175674D01*
X116411642Y-112364049D01*
X116354051Y-112566462D01*
X116350254Y-112607442D01*
X116324467Y-112672379D01*
X116267667Y-112713066D01*
X116226783Y-112720000D01*
X116112828Y-112720000D01*
X115933118Y-112761019D01*
X115780078Y-112834720D01*
X115726276Y-112847000D01*
X115705100Y-112847000D01*
X115638061Y-112827315D01*
X115592306Y-112774511D01*
X115582362Y-112705353D01*
X115586024Y-112688405D01*
X115592099Y-112667494D01*
X115592100Y-112667488D01*
X115592295Y-112665001D01*
X115592295Y-112665000D01*
X112897705Y-112665000D01*
X112897704Y-112665001D01*
X112897899Y-112667486D01*
X112943718Y-112825198D01*
X113031288Y-112973271D01*
X113029285Y-112974455D01*
X113050551Y-113028645D01*
X113036860Y-113097160D01*
X113030671Y-113106788D01*
X112943255Y-113254603D01*
X112943254Y-113254606D01*
X112897402Y-113412426D01*
X112897401Y-113412432D01*
X112894500Y-113449304D01*
X112894500Y-113880696D01*
X112897401Y-113917567D01*
X112897402Y-113917573D01*
X112943254Y-114075393D01*
X112943255Y-114075396D01*
X112943256Y-114075398D01*
X112964921Y-114112032D01*
X113030890Y-114223580D01*
X113028919Y-114224745D01*
X113050232Y-114279058D01*
X113036540Y-114347573D01*
X113030864Y-114356404D01*
X113030890Y-114356420D01*
X112943255Y-114504603D01*
X112943254Y-114504606D01*
X112897402Y-114662426D01*
X112897401Y-114662432D01*
X112894500Y-114699304D01*
X112894500Y-115130696D01*
X109220000Y-115130696D01*
X109220000Y-112164998D01*
X112897704Y-112164998D01*
X112897705Y-112165000D01*
X113995000Y-112165000D01*
X113995000Y-111615000D01*
X114495000Y-111615000D01*
X114495000Y-112165000D01*
X115592295Y-112165000D01*
X115592295Y-112164998D01*
X115592100Y-112162513D01*
X115546281Y-112004801D01*
X115462685Y-111863447D01*
X115462678Y-111863438D01*
X115346561Y-111747321D01*
X115346552Y-111747314D01*
X115205196Y-111663717D01*
X115205193Y-111663716D01*
X115047495Y-111617900D01*
X115047489Y-111617899D01*
X115010644Y-111615000D01*
X114495000Y-111615000D01*
X113995000Y-111615000D01*
X113479356Y-111615000D01*
X113442510Y-111617899D01*
X113442504Y-111617900D01*
X113284806Y-111663716D01*
X113284803Y-111663717D01*
X113143447Y-111747314D01*
X113143438Y-111747321D01*
X113027321Y-111863438D01*
X113027314Y-111863447D01*
X112943718Y-112004801D01*
X112897899Y-112162513D01*
X112897704Y-112164998D01*
X109220000Y-112164998D01*
X109220000Y-111450730D01*
X109239685Y-111383691D01*
X109292489Y-111337936D01*
X109361647Y-111327992D01*
X109425203Y-111357017D01*
X109431681Y-111363049D01*
X109476344Y-111407712D01*
X109625666Y-111499814D01*
X109792203Y-111554999D01*
X109894991Y-111565500D01*
X112195008Y-111565499D01*
X112297797Y-111554999D01*
X112464334Y-111499814D01*
X112613656Y-111407712D01*
X112737712Y-111283656D01*
X112829814Y-111134334D01*
X112884999Y-110967797D01*
X112895500Y-110865009D01*
X112895499Y-110264992D01*
X112894896Y-110259092D01*
X112884999Y-110162203D01*
X112884998Y-110162200D01*
X112878279Y-110141923D01*
X112829814Y-109995666D01*
X112737712Y-109846344D01*
X112613656Y-109722288D01*
X112520888Y-109665069D01*
X112464336Y-109630187D01*
X112464331Y-109630185D01*
X112439721Y-109622030D01*
X112297797Y-109575001D01*
X112297795Y-109575000D01*
X112195010Y-109564500D01*
X109894998Y-109564500D01*
X109894981Y-109564501D01*
X109792203Y-109575000D01*
X109792200Y-109575001D01*
X109625668Y-109630185D01*
X109625663Y-109630187D01*
X109476342Y-109722289D01*
X109431681Y-109766951D01*
X109370358Y-109800436D01*
X109300666Y-109795452D01*
X109244733Y-109753580D01*
X109220316Y-109688116D01*
X109220000Y-109679270D01*
X109220000Y-108760730D01*
X109239685Y-108693691D01*
X109292489Y-108647936D01*
X109361647Y-108637992D01*
X109425203Y-108667017D01*
X109431681Y-108673049D01*
X109476344Y-108717712D01*
X109625666Y-108809814D01*
X109792203Y-108864999D01*
X109894991Y-108875500D01*
X112195008Y-108875499D01*
X112297797Y-108864999D01*
X112464334Y-108809814D01*
X112613656Y-108717712D01*
X112737712Y-108593656D01*
X112829814Y-108444334D01*
X112884999Y-108277797D01*
X112895500Y-108175009D01*
X112895499Y-107574992D01*
X112884999Y-107472203D01*
X112829814Y-107305666D01*
X112737712Y-107156344D01*
X112613656Y-107032288D01*
X112464334Y-106940186D01*
X112297797Y-106885001D01*
X112297795Y-106885000D01*
X112195010Y-106874500D01*
X109894998Y-106874500D01*
X109894981Y-106874501D01*
X109792203Y-106885000D01*
X109792200Y-106885001D01*
X109625668Y-106940185D01*
X109625663Y-106940187D01*
X109476342Y-107032289D01*
X109431681Y-107076951D01*
X109370358Y-107110436D01*
X109300666Y-107105452D01*
X109244733Y-107063580D01*
X109220316Y-106998116D01*
X109220000Y-106989270D01*
X109220000Y-103274998D01*
X112897704Y-103274998D01*
X112897705Y-103275000D01*
X113995000Y-103275000D01*
X113995000Y-102725000D01*
X114495000Y-102725000D01*
X114495000Y-103275000D01*
X115592295Y-103275000D01*
X115592295Y-103274998D01*
X115592100Y-103272513D01*
X115546281Y-103114801D01*
X115462685Y-102973447D01*
X115462678Y-102973438D01*
X115346561Y-102857321D01*
X115346552Y-102857314D01*
X115205196Y-102773717D01*
X115205193Y-102773716D01*
X115047495Y-102727900D01*
X115047489Y-102727899D01*
X115010644Y-102725000D01*
X114495000Y-102725000D01*
X113995000Y-102725000D01*
X113479356Y-102725000D01*
X113442510Y-102727899D01*
X113442504Y-102727900D01*
X113284806Y-102773716D01*
X113284803Y-102773717D01*
X113143447Y-102857314D01*
X113143438Y-102857321D01*
X113027321Y-102973438D01*
X113027314Y-102973447D01*
X112943718Y-103114801D01*
X112897899Y-103272513D01*
X112897704Y-103274998D01*
X109220000Y-103274998D01*
X109220000Y-102560730D01*
X109239685Y-102493691D01*
X109292489Y-102447936D01*
X109361647Y-102437992D01*
X109425203Y-102467017D01*
X109431681Y-102473049D01*
X109476344Y-102517712D01*
X109625666Y-102609814D01*
X109792203Y-102664999D01*
X109894991Y-102675500D01*
X112195008Y-102675499D01*
X112297797Y-102664999D01*
X112464334Y-102609814D01*
X112613656Y-102517712D01*
X112737712Y-102393656D01*
X112829814Y-102244334D01*
X112884999Y-102077797D01*
X112895500Y-101975009D01*
X112895499Y-101374992D01*
X112891367Y-101334546D01*
X112884999Y-101272203D01*
X112884998Y-101272200D01*
X112855096Y-101181963D01*
X112829814Y-101105666D01*
X112737712Y-100956344D01*
X112613656Y-100832288D01*
X112464334Y-100740186D01*
X112297797Y-100685001D01*
X112297795Y-100685000D01*
X112195010Y-100674500D01*
X109894998Y-100674500D01*
X109894981Y-100674501D01*
X109792203Y-100685000D01*
X109792200Y-100685001D01*
X109625668Y-100740185D01*
X109625663Y-100740187D01*
X109476342Y-100832289D01*
X109431681Y-100876951D01*
X109370358Y-100910436D01*
X109300666Y-100905452D01*
X109244733Y-100863580D01*
X109220316Y-100798116D01*
X109220000Y-100789270D01*
X109220000Y-99865730D01*
X109239685Y-99798691D01*
X109292489Y-99752936D01*
X109361647Y-99742992D01*
X109425203Y-99772017D01*
X109431681Y-99778049D01*
X109432288Y-99778656D01*
X109556344Y-99902712D01*
X109705666Y-99994814D01*
X109872203Y-100049999D01*
X109974991Y-100060500D01*
X112275008Y-100060499D01*
X112377797Y-100049999D01*
X112544334Y-99994814D01*
X112693656Y-99902712D01*
X112817712Y-99778656D01*
X112909814Y-99629334D01*
X112964999Y-99462797D01*
X112975500Y-99360009D01*
X112975499Y-98759992D01*
X112965815Y-98665196D01*
X112964999Y-98657203D01*
X112964998Y-98657200D01*
X112909814Y-98490666D01*
X112817712Y-98341344D01*
X112693656Y-98217288D01*
X112544334Y-98125186D01*
X112377797Y-98070001D01*
X112377795Y-98070000D01*
X112275010Y-98059500D01*
X109974998Y-98059500D01*
X109974981Y-98059501D01*
X109872203Y-98070000D01*
X109872200Y-98070001D01*
X109705668Y-98125185D01*
X109705663Y-98125187D01*
X109556342Y-98217289D01*
X109431681Y-98341951D01*
X109370358Y-98375436D01*
X109300666Y-98370452D01*
X109244733Y-98328580D01*
X109220316Y-98263116D01*
X109220000Y-98254270D01*
X109220000Y-94459998D01*
X112977704Y-94459998D01*
X112977705Y-94460000D01*
X114075000Y-94460000D01*
X114075000Y-93910000D01*
X114575000Y-93910000D01*
X114575000Y-94460000D01*
X115672295Y-94460000D01*
X115672295Y-94459998D01*
X115672100Y-94457513D01*
X115626281Y-94299801D01*
X115542685Y-94158447D01*
X115542678Y-94158438D01*
X115426561Y-94042321D01*
X115426552Y-94042314D01*
X115285196Y-93958717D01*
X115285193Y-93958716D01*
X115127495Y-93912900D01*
X115127489Y-93912899D01*
X115090644Y-93910000D01*
X114575000Y-93910000D01*
X114075000Y-93910000D01*
X113559356Y-93910000D01*
X113522510Y-93912899D01*
X113522504Y-93912900D01*
X113364806Y-93958716D01*
X113364803Y-93958717D01*
X113223447Y-94042314D01*
X113223438Y-94042321D01*
X113107321Y-94158438D01*
X113107314Y-94158447D01*
X113023718Y-94299801D01*
X112977899Y-94457513D01*
X112977704Y-94459998D01*
X109220000Y-94459998D01*
X109220000Y-93665730D01*
X109239685Y-93598691D01*
X109292489Y-93552936D01*
X109361647Y-93542992D01*
X109425203Y-93572017D01*
X109431681Y-93578049D01*
X109432288Y-93578656D01*
X109556344Y-93702712D01*
X109705666Y-93794814D01*
X109872203Y-93849999D01*
X109974991Y-93860500D01*
X112275008Y-93860499D01*
X112377797Y-93849999D01*
X112544334Y-93794814D01*
X112693656Y-93702712D01*
X112817712Y-93578656D01*
X112909814Y-93429334D01*
X112964999Y-93262797D01*
X112975500Y-93160009D01*
X112975499Y-92559992D01*
X112964999Y-92457203D01*
X112909814Y-92290666D01*
X112893426Y-92264096D01*
X112874986Y-92196703D01*
X112895909Y-92130040D01*
X112949552Y-92085271D01*
X112998965Y-92075000D01*
X118058638Y-92075000D01*
X118125677Y-92094685D01*
G37*
%TD.AperFunction*%
%TD*%
M02*
