%TF.GenerationSoftware,KiCad,Pcbnew,7.0.8*%
%TF.CreationDate,2024-03-25T00:11:57-07:00*%
%TF.ProjectId,Adafruit Speaker Bonnet,41646166-7275-4697-9420-537065616b65,rev?*%
%TF.SameCoordinates,Original*%
%TF.FileFunction,Soldermask,Top*%
%TF.FilePolarity,Negative*%
%FSLAX46Y46*%
G04 Gerber Fmt 4.6, Leading zero omitted, Abs format (unit mm)*
G04 Created by KiCad (PCBNEW 7.0.8) date 2024-03-25 00:11:57*
%MOMM*%
%LPD*%
G01*
G04 APERTURE LIST*
G04 Aperture macros list*
%AMRoundRect*
0 Rectangle with rounded corners*
0 $1 Rounding radius*
0 $2 $3 $4 $5 $6 $7 $8 $9 X,Y pos of 4 corners*
0 Add a 4 corners polygon primitive as box body*
4,1,4,$2,$3,$4,$5,$6,$7,$8,$9,$2,$3,0*
0 Add four circle primitives for the rounded corners*
1,1,$1+$1,$2,$3*
1,1,$1+$1,$4,$5*
1,1,$1+$1,$6,$7*
1,1,$1+$1,$8,$9*
0 Add four rect primitives between the rounded corners*
20,1,$1+$1,$2,$3,$4,$5,0*
20,1,$1+$1,$4,$5,$6,$7,0*
20,1,$1+$1,$6,$7,$8,$9,0*
20,1,$1+$1,$8,$9,$2,$3,0*%
G04 Aperture macros list end*
%ADD10RoundRect,0.150000X-0.700000X0.150000X-0.700000X-0.150000X0.700000X-0.150000X0.700000X0.150000X0*%
%ADD11RoundRect,0.250000X-1.100000X0.250000X-1.100000X-0.250000X1.100000X-0.250000X1.100000X0.250000X0*%
%ADD12RoundRect,0.150000X0.512500X0.150000X-0.512500X0.150000X-0.512500X-0.150000X0.512500X-0.150000X0*%
%ADD13RoundRect,0.225000X0.225000X0.250000X-0.225000X0.250000X-0.225000X-0.250000X0.225000X-0.250000X0*%
%ADD14C,1.778000*%
%ADD15C,2.032000*%
G04 APERTURE END LIST*
D10*
%TO.C,J3*%
X114245000Y-103525000D03*
X114245000Y-104775000D03*
X114245000Y-106025000D03*
D11*
X111045000Y-101675000D03*
X111045000Y-107875000D03*
%TD*%
D10*
%TO.C,J2*%
X114245000Y-112415000D03*
X114245000Y-113665000D03*
X114245000Y-114915000D03*
D11*
X111045000Y-110565000D03*
X111045000Y-116765000D03*
%TD*%
D10*
%TO.C,J1*%
X114325000Y-94710000D03*
X114325000Y-95960000D03*
X114325000Y-97210000D03*
D11*
X111125000Y-92860000D03*
X111125000Y-99060000D03*
%TD*%
D12*
%TO.C,U1*%
X120147500Y-112710000D03*
X120147500Y-111760000D03*
X120147500Y-110810000D03*
X122422500Y-110810000D03*
X122422500Y-111760000D03*
X122422500Y-112710000D03*
%TD*%
D13*
%TO.C,C1*%
X121920000Y-114935000D03*
X120370000Y-114935000D03*
%TD*%
D14*
%TO.C,CONN1*%
X179247100Y-99124800D03*
X176707100Y-99124800D03*
X174167100Y-99124800D03*
X171627100Y-99124800D03*
X169087100Y-99124800D03*
X166547100Y-99124800D03*
X164007100Y-99124800D03*
X161467100Y-99124800D03*
X158927100Y-99124800D03*
X156387100Y-99124800D03*
X153847100Y-99124800D03*
X151307100Y-99124800D03*
X148767100Y-99124800D03*
X146227100Y-99124800D03*
X143687100Y-99124800D03*
X141147100Y-99124800D03*
X138607100Y-99124800D03*
X136067100Y-99124800D03*
X133527100Y-99124800D03*
X130987100Y-99124800D03*
X128447100Y-99124800D03*
X125907100Y-99124800D03*
X123367100Y-99124800D03*
X120827100Y-99124800D03*
X118287100Y-99124800D03*
%TD*%
D15*
%TO.C,JP2*%
X121462100Y-107379800D03*
X124002100Y-107379800D03*
X126542100Y-107379800D03*
%TD*%
%TO.C,JP5*%
X126542100Y-104839800D03*
X124002100Y-104839800D03*
X121462100Y-104839800D03*
%TD*%
M02*
