M48
; DRILL file {KiCad 7.0.8} date Sun Dec 24 03:52:33 2023
; FORMAT={3:3/ absolute / metric / suppress trailing zeros}
; #@! TF.CreationDate,2023-12-24T03:52:33-08:00
; #@! TF.GenerationSoftware,Kicad,Pcbnew,7.0.8
; #@! TF.FileFunction,MixedPlating,1,2
FMAT,2
METRIC,LZ
; #@! TA.AperFunction,Plated,PTH,ViaDrill
T1C0.300
; #@! TA.AperFunction,Plated,PTH,ComponentDrill
T2C0.800
%
G90
G05
T1
X033027Y138948
X033619Y124587
X033719Y136144
X034925Y134011
X03683Y139481
X03683Y136109
X03683Y133223
X037084Y128905
X037211Y128016
X03748Y135524
X03748Y134127
X037694Y123926
X039995Y137344
X039995Y134844
X040229Y132344
X040894Y126365
X042037Y125222
X042926Y129032
T2
X03188Y140465
X03188Y137925
X03188Y135385
X03188Y132845
X03188Y130305
X03188Y127765
X03188Y125225
X03188Y122685
X04458Y140465
X04458Y137925
X04458Y135385
X04458Y132845
X04458Y130305
X04458Y127765
X04458Y125225
X04458Y122685
T0
M30
