%TF.GenerationSoftware,KiCad,Pcbnew,7.0.8*%
%TF.CreationDate,2023-12-24T03:51:33-08:00*%
%TF.ProjectId,STD Teknic Converter - R1,53544420-5465-46b6-9e69-6320436f6e76,rev?*%
%TF.SameCoordinates,Original*%
%TF.FileFunction,Copper,L2,Bot*%
%TF.FilePolarity,Positive*%
%FSLAX46Y46*%
G04 Gerber Fmt 4.6, Leading zero omitted, Abs format (unit mm)*
G04 Created by KiCad (PCBNEW 7.0.8) date 2023-12-24 03:51:33*
%MOMM*%
%LPD*%
G01*
G04 APERTURE LIST*
G04 Aperture macros list*
%AMRoundRect*
0 Rectangle with rounded corners*
0 $1 Rounding radius*
0 $2 $3 $4 $5 $6 $7 $8 $9 X,Y pos of 4 corners*
0 Add a 4 corners polygon primitive as box body*
4,1,4,$2,$3,$4,$5,$6,$7,$8,$9,$2,$3,0*
0 Add four circle primitives for the rounded corners*
1,1,$1+$1,$2,$3*
1,1,$1+$1,$4,$5*
1,1,$1+$1,$6,$7*
1,1,$1+$1,$8,$9*
0 Add four rect primitives between the rounded corners*
20,1,$1+$1,$2,$3,$4,$5,0*
20,1,$1+$1,$4,$5,$6,$7,0*
20,1,$1+$1,$6,$7,$8,$9,0*
20,1,$1+$1,$8,$9,$2,$3,0*%
G04 Aperture macros list end*
%TA.AperFunction,ComponentPad*%
%ADD10R,1.600000X1.600000*%
%TD*%
%TA.AperFunction,ComponentPad*%
%ADD11O,1.600000X1.600000*%
%TD*%
%TA.AperFunction,SMDPad,CuDef*%
%ADD12RoundRect,0.225000X0.250000X-0.225000X0.250000X0.225000X-0.250000X0.225000X-0.250000X-0.225000X0*%
%TD*%
%TA.AperFunction,SMDPad,CuDef*%
%ADD13R,0.650000X0.400000*%
%TD*%
%TA.AperFunction,SMDPad,CuDef*%
%ADD14RoundRect,0.200000X0.200000X0.275000X-0.200000X0.275000X-0.200000X-0.275000X0.200000X-0.275000X0*%
%TD*%
%TA.AperFunction,SMDPad,CuDef*%
%ADD15RoundRect,0.200000X-0.200000X-0.275000X0.200000X-0.275000X0.200000X0.275000X-0.200000X0.275000X0*%
%TD*%
%TA.AperFunction,SMDPad,CuDef*%
%ADD16R,0.400000X0.650000*%
%TD*%
%TA.AperFunction,SMDPad,CuDef*%
%ADD17RoundRect,0.225000X0.225000X0.250000X-0.225000X0.250000X-0.225000X-0.250000X0.225000X-0.250000X0*%
%TD*%
%TA.AperFunction,ViaPad*%
%ADD18C,0.600000*%
%TD*%
%TA.AperFunction,Conductor*%
%ADD19C,0.200000*%
%TD*%
G04 APERTURE END LIST*
D10*
%TO.P,A1,J1-1,~{ENABLE}*%
%TO.N,/\u005CENABLE*%
X31880000Y140465000D03*
D11*
%TO.P,A1,J1-2,MS1*%
%TO.N,unconnected-(A1-MS1-PadJ1-2)*%
X31880000Y137925000D03*
%TO.P,A1,J1-3,MS2*%
%TO.N,unconnected-(A1-MS2-PadJ1-3)*%
X31880000Y135385000D03*
%TO.P,A1,J1-4,PDN/UART_RX*%
%TO.N,unconnected-(A1-PDN{slash}UART_RX-PadJ1-4)*%
X31880000Y132845000D03*
%TO.P,A1,J1-5,PDN/UART_TX*%
%TO.N,unconnected-(A1-PDN{slash}UART_TX-PadJ1-5)*%
X31880000Y130305000D03*
%TO.P,A1,J1-6,CLK*%
%TO.N,/DIAG*%
X31880000Y127765000D03*
%TO.P,A1,J1-7,STEP*%
%TO.N,/STEP*%
X31880000Y125225000D03*
%TO.P,A1,J1-8,DIR*%
%TO.N,/DIR*%
X31880000Y122685000D03*
D10*
%TO.P,A1,J2-1,VMOT*%
%TO.N,unconnected-(A1-VMOT-PadJ2-1)*%
X44580000Y140465000D03*
D11*
%TO.P,A1,J2-2,GND*%
%TO.N,GND*%
X44580000Y137925000D03*
%TO.P,A1,J2-3,A2*%
%TO.N,unconnected-(A1-A2-PadJ2-3)*%
X44580000Y135385000D03*
%TO.P,A1,J2-4,A1*%
%TO.N,unconnected-(A1-A1-PadJ2-4)*%
X44580000Y132845000D03*
%TO.P,A1,J2-5,B1*%
%TO.N,unconnected-(A1-B1-PadJ2-5)*%
X44580000Y130305000D03*
%TO.P,A1,J2-6,B2*%
%TO.N,unconnected-(A1-B2-PadJ2-6)*%
X44580000Y127765000D03*
%TO.P,A1,J2-7,VCC_IO*%
%TO.N,+5V*%
X44580000Y125225000D03*
%TO.P,A1,J2-8,GND*%
%TO.N,GND*%
X44580000Y122685000D03*
%TD*%
D12*
%TO.P,C1,1*%
%TO.N,+5V*%
X34544000Y137020000D03*
%TO.P,C1,2*%
%TO.N,GND*%
X34544000Y138570000D03*
%TD*%
D13*
%TO.P,U2,6*%
%TO.N,/B-DIR*%
X36256000Y123937000D03*
%TO.P,U2,5,VCC*%
%TO.N,+5V*%
X36256000Y124587000D03*
%TO.P,U2,4*%
%TO.N,/B-STEP*%
X36256000Y125237000D03*
%TO.P,U2,3*%
%TO.N,/STEP*%
X34356000Y125237000D03*
%TO.P,U2,2,GND*%
%TO.N,GND*%
X34356000Y124587000D03*
%TO.P,U2,1*%
%TO.N,/DIR*%
X34356000Y123937000D03*
%TD*%
D14*
%TO.P,R2,2*%
%TO.N,/DIAG*%
X34481000Y128905000D03*
%TO.P,R2,1*%
%TO.N,GND*%
X36131000Y128905000D03*
%TD*%
D15*
%TO.P,R1,2*%
%TO.N,Net-(D4-A)*%
X36131000Y130683000D03*
%TO.P,R1,1*%
%TO.N,/DIAG*%
X34481000Y130683000D03*
%TD*%
D16*
%TO.P,U3,1*%
%TO.N,/\u005CENABLE*%
X36180000Y138745000D03*
%TO.P,U3,2,GND*%
%TO.N,GND*%
X36830000Y138745000D03*
%TO.P,U3,3*%
%TO.N,/B-DIAG*%
X37480000Y138745000D03*
%TO.P,U3,4*%
%TO.N,Net-(D4-A)*%
X37480000Y136845000D03*
%TO.P,U3,5,VCC*%
%TO.N,+5V*%
X36830000Y136845000D03*
%TO.P,U3,6*%
%TO.N,/B-ENABLE*%
X36180000Y136845000D03*
%TD*%
D17*
%TO.P,C2,1*%
%TO.N,+5V*%
X36081000Y126873000D03*
%TO.P,C2,2*%
%TO.N,GND*%
X34531000Y126873000D03*
%TD*%
D18*
%TO.N,/B-ENABLE*%
X33719000Y136144000D03*
%TO.N,Net-(D4-A)*%
X34925000Y134010500D03*
%TO.N,/B-STEP*%
X40229000Y132344000D03*
%TO.N,+5V*%
X33026506Y138947735D03*
%TO.N,GND*%
X37084000Y128905000D03*
%TO.N,/B-STEP*%
X37211000Y128016000D03*
%TO.N,Net-(D4-A)*%
X37480000Y134127000D03*
X37480000Y135524000D03*
%TO.N,+5V*%
X36830000Y133223000D03*
X40894000Y126365000D03*
X36830000Y136108500D03*
%TO.N,GND*%
X36830000Y139481500D03*
X33619500Y124587000D03*
%TO.N,/B-DIR*%
X37693500Y123926500D03*
%TO.N,/B-DIAG*%
X39995000Y137344000D03*
%TO.N,/B-ENABLE*%
X39995000Y134844000D03*
%TO.N,+5V*%
X42037000Y125222000D03*
%TO.N,/B-DIR*%
X42926000Y129032000D03*
%TD*%
D19*
%TO.N,+5V*%
X33026506Y138537494D02*
X34544000Y137020000D01*
X33026506Y138947735D02*
X33026506Y138537494D01*
%TO.N,/B-ENABLE*%
X34339000Y135524000D02*
X35306000Y135524000D01*
X33719000Y136144000D02*
X34339000Y135524000D01*
X35306000Y135524000D02*
X35433000Y135524000D01*
X34402000Y135524000D02*
X35306000Y135524000D01*
X35799000Y135524000D02*
X35433000Y135524000D01*
X35433000Y135524000D02*
X36180000Y135524000D01*
%TO.N,Net-(D4-A)*%
X34925000Y134010500D02*
X34925000Y132969000D01*
X35941000Y131953000D02*
X35941000Y130873000D01*
X34925000Y132969000D02*
X35941000Y131953000D01*
X35041500Y134127000D02*
X34925000Y134010500D01*
X37480000Y134127000D02*
X35041500Y134127000D01*
%TO.N,/B-STEP*%
X42037000Y127508000D02*
X42037000Y126746000D01*
X40229000Y129316000D02*
X42037000Y127508000D01*
X40229000Y132344000D02*
X40229000Y129316000D01*
X42037000Y126365000D02*
X42037000Y126746000D01*
%TO.N,/B-ENABLE*%
X36830000Y134874000D02*
X39965000Y134874000D01*
X39965000Y134874000D02*
X39995000Y134844000D01*
X36180000Y135905000D02*
X36180000Y135524000D01*
X36180000Y135524000D02*
X36830000Y134874000D01*
%TO.N,/\u005CENABLE*%
X36180000Y139715000D02*
X34798000Y141097000D01*
X32512000Y141097000D02*
X31880000Y140465000D01*
X36180000Y138745000D02*
X36180000Y139715000D01*
X34798000Y141097000D02*
X32512000Y141097000D01*
%TO.N,Net-(D4-A)*%
X35941000Y130873000D02*
X36131000Y130683000D01*
X37480000Y134127000D02*
X35941000Y134127000D01*
%TO.N,GND*%
X37084000Y128905000D02*
X36131000Y128905000D01*
%TO.N,/B-STEP*%
X37211000Y125237000D02*
X37211000Y128016000D01*
X37211000Y125237000D02*
X40909000Y125237000D01*
X36256000Y125237000D02*
X37211000Y125237000D01*
X40909000Y125237000D02*
X42037000Y126365000D01*
%TO.N,/DIAG*%
X33341000Y127765000D02*
X31880000Y127765000D01*
X34481000Y128905000D02*
X33341000Y127765000D01*
X34481000Y130683000D02*
X34481000Y128905000D01*
%TO.N,Net-(D4-A)*%
X37480000Y136845000D02*
X37480000Y135524000D01*
%TO.N,+5V*%
X36830000Y133223000D02*
X37846000Y132207000D01*
X37846000Y132207000D02*
X37846000Y129413000D01*
X37846000Y129413000D02*
X40894000Y126365000D01*
X36830000Y136845000D02*
X36830000Y136108500D01*
%TO.N,GND*%
X36830000Y138745000D02*
X36830000Y139481500D01*
X34356000Y124587000D02*
X33619500Y124587000D01*
%TO.N,+5V*%
X42037000Y125222000D02*
X41402000Y124587000D01*
X36256000Y124587000D02*
X39497000Y124587000D01*
X41402000Y124587000D02*
X39497000Y124587000D01*
%TO.N,/B-ENABLE*%
X36180000Y136845000D02*
X36180000Y135905000D01*
%TO.N,/B-DIAG*%
X38594000Y138745000D02*
X39995000Y137344000D01*
X37480000Y138745000D02*
X38594000Y138745000D01*
%TO.N,/B-DIR*%
X42926000Y124587000D02*
X42926000Y129032000D01*
X42276000Y123937000D02*
X42926000Y124587000D01*
X36256000Y123937000D02*
X42276000Y123937000D01*
%TO.N,+5V*%
X35560000Y124841000D02*
X35814000Y124587000D01*
X36081000Y126124000D02*
X35560000Y125603000D01*
X36081000Y126873000D02*
X36081000Y126124000D01*
X35560000Y125603000D02*
X35560000Y124841000D01*
X35814000Y124587000D02*
X36256000Y124587000D01*
%TO.N,GND*%
X34531000Y126873000D02*
X34531000Y126124000D01*
X34798000Y124587000D02*
X34356000Y124587000D01*
X35052000Y124841000D02*
X34798000Y124587000D01*
X35052000Y125603000D02*
X35052000Y124841000D01*
X34531000Y126124000D02*
X35052000Y125603000D01*
X36576000Y138049000D02*
X36830000Y138303000D01*
X35293000Y138570000D02*
X35814000Y138049000D01*
X34544000Y138570000D02*
X35293000Y138570000D01*
X35814000Y138049000D02*
X36576000Y138049000D01*
X36830000Y138303000D02*
X36830000Y138745000D01*
%TO.N,+5V*%
X36830000Y137287000D02*
X36830000Y136845000D01*
X35814000Y137541000D02*
X36576000Y137541000D01*
X36576000Y137541000D02*
X36830000Y137287000D01*
X35293000Y137020000D02*
X35814000Y137541000D01*
X34544000Y137020000D02*
X35293000Y137020000D01*
%TO.N,/STEP*%
X31892000Y125237000D02*
X31880000Y125225000D01*
X34356000Y125237000D02*
X31892000Y125237000D01*
%TO.N,/DIR*%
X33132000Y123937000D02*
X31880000Y122685000D01*
X34356000Y123937000D02*
X33132000Y123937000D01*
%TD*%
M02*
