%TF.GenerationSoftware,KiCad,Pcbnew,7.0.8*%
%TF.CreationDate,2023-12-24T03:51:33-08:00*%
%TF.ProjectId,STD Teknic Converter - R1,53544420-5465-46b6-9e69-6320436f6e76,rev?*%
%TF.SameCoordinates,Original*%
%TF.FileFunction,Legend,Top*%
%TF.FilePolarity,Positive*%
%FSLAX46Y46*%
G04 Gerber Fmt 4.6, Leading zero omitted, Abs format (unit mm)*
G04 Created by KiCad (PCBNEW 7.0.8) date 2023-12-24 03:51:33*
%MOMM*%
%LPD*%
G01*
G04 APERTURE LIST*
%ADD10C,0.203200*%
%ADD11C,0.120000*%
G04 APERTURE END LIST*
D10*
X38602588Y123705906D02*
X38602588Y124721906D01*
X38602588Y124721906D02*
X38844493Y124721906D01*
X38844493Y124721906D02*
X38989636Y124673525D01*
X38989636Y124673525D02*
X39086398Y124576763D01*
X39086398Y124576763D02*
X39134779Y124480001D01*
X39134779Y124480001D02*
X39183160Y124286477D01*
X39183160Y124286477D02*
X39183160Y124141334D01*
X39183160Y124141334D02*
X39134779Y123947810D01*
X39134779Y123947810D02*
X39086398Y123851048D01*
X39086398Y123851048D02*
X38989636Y123754287D01*
X38989636Y123754287D02*
X38844493Y123705906D01*
X38844493Y123705906D02*
X38602588Y123705906D01*
X39618588Y123705906D02*
X39618588Y124721906D01*
X40682970Y123705906D02*
X40344303Y124189715D01*
X40102398Y123705906D02*
X40102398Y124721906D01*
X40102398Y124721906D02*
X40489446Y124721906D01*
X40489446Y124721906D02*
X40586208Y124673525D01*
X40586208Y124673525D02*
X40634589Y124625144D01*
X40634589Y124625144D02*
X40682970Y124528382D01*
X40682970Y124528382D02*
X40682970Y124383239D01*
X40682970Y124383239D02*
X40634589Y124286477D01*
X40634589Y124286477D02*
X40586208Y124238096D01*
X40586208Y124238096D02*
X40489446Y124189715D01*
X40489446Y124189715D02*
X40102398Y124189715D01*
X33584287Y128069792D02*
X33535906Y127924649D01*
X33535906Y127924649D02*
X33535906Y127682744D01*
X33535906Y127682744D02*
X33584287Y127585982D01*
X33584287Y127585982D02*
X33632667Y127537601D01*
X33632667Y127537601D02*
X33729429Y127489220D01*
X33729429Y127489220D02*
X33826191Y127489220D01*
X33826191Y127489220D02*
X33922953Y127537601D01*
X33922953Y127537601D02*
X33971334Y127585982D01*
X33971334Y127585982D02*
X34019715Y127682744D01*
X34019715Y127682744D02*
X34068096Y127876268D01*
X34068096Y127876268D02*
X34116477Y127973030D01*
X34116477Y127973030D02*
X34164858Y128021411D01*
X34164858Y128021411D02*
X34261620Y128069792D01*
X34261620Y128069792D02*
X34358382Y128069792D01*
X34358382Y128069792D02*
X34455144Y128021411D01*
X34455144Y128021411D02*
X34503525Y127973030D01*
X34503525Y127973030D02*
X34551906Y127876268D01*
X34551906Y127876268D02*
X34551906Y127634363D01*
X34551906Y127634363D02*
X34503525Y127489220D01*
X34551906Y127198935D02*
X34551906Y126618363D01*
X33535906Y126908649D02*
X34551906Y126908649D01*
X34068096Y126279697D02*
X34068096Y125941030D01*
X33535906Y125795887D02*
X33535906Y126279697D01*
X33535906Y126279697D02*
X34551906Y126279697D01*
X34551906Y126279697D02*
X34551906Y125795887D01*
X33535906Y125360459D02*
X34551906Y125360459D01*
X34551906Y125360459D02*
X34551906Y124973411D01*
X34551906Y124973411D02*
X34503525Y124876649D01*
X34503525Y124876649D02*
X34455144Y124828268D01*
X34455144Y124828268D02*
X34358382Y124779887D01*
X34358382Y124779887D02*
X34213239Y124779887D01*
X34213239Y124779887D02*
X34116477Y124828268D01*
X34116477Y124828268D02*
X34068096Y124876649D01*
X34068096Y124876649D02*
X34019715Y124973411D01*
X34019715Y124973411D02*
X34019715Y125360459D01*
X35313906Y135133411D02*
X36329906Y135133411D01*
X36329906Y135133411D02*
X36329906Y134891506D01*
X36329906Y134891506D02*
X36281525Y134746363D01*
X36281525Y134746363D02*
X36184763Y134649601D01*
X36184763Y134649601D02*
X36088001Y134601220D01*
X36088001Y134601220D02*
X35894477Y134552839D01*
X35894477Y134552839D02*
X35749334Y134552839D01*
X35749334Y134552839D02*
X35555810Y134601220D01*
X35555810Y134601220D02*
X35459048Y134649601D01*
X35459048Y134649601D02*
X35362287Y134746363D01*
X35362287Y134746363D02*
X35313906Y134891506D01*
X35313906Y134891506D02*
X35313906Y135133411D01*
X35313906Y134117411D02*
X36329906Y134117411D01*
X35604191Y133681982D02*
X35604191Y133198172D01*
X35313906Y133778744D02*
X36329906Y133440077D01*
X36329906Y133440077D02*
X35313906Y133101410D01*
X36281525Y132230553D02*
X36329906Y132327315D01*
X36329906Y132327315D02*
X36329906Y132472458D01*
X36329906Y132472458D02*
X36281525Y132617601D01*
X36281525Y132617601D02*
X36184763Y132714363D01*
X36184763Y132714363D02*
X36088001Y132762744D01*
X36088001Y132762744D02*
X35894477Y132811125D01*
X35894477Y132811125D02*
X35749334Y132811125D01*
X35749334Y132811125D02*
X35555810Y132762744D01*
X35555810Y132762744D02*
X35459048Y132714363D01*
X35459048Y132714363D02*
X35362287Y132617601D01*
X35362287Y132617601D02*
X35313906Y132472458D01*
X35313906Y132472458D02*
X35313906Y132375696D01*
X35313906Y132375696D02*
X35362287Y132230553D01*
X35362287Y132230553D02*
X35410667Y132182172D01*
X35410667Y132182172D02*
X35749334Y132182172D01*
X35749334Y132182172D02*
X35749334Y132375696D01*
X34284588Y136811096D02*
X34623255Y136811096D01*
X34768398Y136278906D02*
X34284588Y136278906D01*
X34284588Y136278906D02*
X34284588Y137294906D01*
X34284588Y137294906D02*
X34768398Y137294906D01*
X35203826Y136278906D02*
X35203826Y137294906D01*
X35203826Y137294906D02*
X35784398Y136278906D01*
X35784398Y136278906D02*
X35784398Y137294906D01*
D11*
%TO.C,A1*%
X30480000Y141865000D02*
X30480000Y140465000D01*
X30480000Y139195000D02*
X30480000Y121285000D01*
X30480000Y121285000D02*
X45980000Y121285000D01*
X31880000Y141865000D02*
X30480000Y141865000D01*
X33150000Y141865000D02*
X33150000Y139195000D01*
X33150000Y139195000D02*
X30480000Y139195000D01*
X33150000Y139195000D02*
X33150000Y121285000D01*
X43310000Y141865000D02*
X43310000Y121285000D01*
X45980000Y141865000D02*
X33150000Y141865000D01*
X45980000Y121285000D02*
X45980000Y141865000D01*
%TO.C,D1*%
X36054500Y138965000D02*
X36054500Y140435000D01*
X36054500Y140435000D02*
X33769500Y140435000D01*
X33769500Y138965000D02*
X36054500Y138965000D01*
%TO.C,R5*%
X41766258Y122159500D02*
X41291742Y122159500D01*
X41766258Y123204500D02*
X41291742Y123204500D01*
%TO.C,D2*%
X34825000Y123737000D02*
X36295000Y123737000D01*
X36295000Y123737000D02*
X36295000Y126022000D01*
X34825000Y126022000D02*
X34825000Y123737000D01*
%TO.C,R4*%
X35195742Y123204500D02*
X35670258Y123204500D01*
X35195742Y122159500D02*
X35670258Y122159500D01*
%TO.C,R6*%
X34908258Y130414500D02*
X34433742Y130414500D01*
X34908258Y131459500D02*
X34433742Y131459500D01*
%TO.C,R3*%
X34306742Y138698500D02*
X34781258Y138698500D01*
X34306742Y137653500D02*
X34781258Y137653500D01*
%TO.C,J1*%
X40392000Y126984000D02*
X41342000Y126984000D01*
X41342000Y126984000D02*
X41342000Y127934000D01*
X41342000Y138004000D02*
X42032000Y138004000D01*
X37422000Y138584000D02*
X37422000Y127354000D01*
X40392000Y138954000D02*
X41342000Y138954000D01*
X41342000Y138954000D02*
X41342000Y138004000D01*
%TO.C,D3*%
X39966000Y121947000D02*
X39966000Y123417000D01*
X39966000Y123417000D02*
X37681000Y123417000D01*
X37681000Y121947000D02*
X39966000Y121947000D01*
%TO.C,D4*%
X33174000Y131738000D02*
X34644000Y131738000D01*
X34644000Y131738000D02*
X34644000Y134023000D01*
X33174000Y134023000D02*
X33174000Y131738000D01*
%TD*%
M02*
