%TF.GenerationSoftware,KiCad,Pcbnew,7.0.8*%
%TF.CreationDate,2023-12-24T03:51:33-08:00*%
%TF.ProjectId,STD Teknic Converter - R1,53544420-5465-46b6-9e69-6320436f6e76,rev?*%
%TF.SameCoordinates,Original*%
%TF.FileFunction,Legend,Bot*%
%TF.FilePolarity,Positive*%
%FSLAX46Y46*%
G04 Gerber Fmt 4.6, Leading zero omitted, Abs format (unit mm)*
G04 Created by KiCad (PCBNEW 7.0.8) date 2023-12-24 03:51:33*
%MOMM*%
%LPD*%
G01*
G04 APERTURE LIST*
%ADD10C,0.203200*%
%ADD11C,0.150000*%
%ADD12C,0.120000*%
G04 APERTURE END LIST*
D10*
X41648093Y139886839D02*
X41164284Y140225506D01*
X41648093Y140467411D02*
X40632093Y140467411D01*
X40632093Y140467411D02*
X40632093Y140080363D01*
X40632093Y140080363D02*
X40680474Y139983601D01*
X40680474Y139983601D02*
X40728855Y139935220D01*
X40728855Y139935220D02*
X40825617Y139886839D01*
X40825617Y139886839D02*
X40970760Y139886839D01*
X40970760Y139886839D02*
X41067522Y139935220D01*
X41067522Y139935220D02*
X41115903Y139983601D01*
X41115903Y139983601D02*
X41164284Y140080363D01*
X41164284Y140080363D02*
X41164284Y140467411D01*
X41648093Y138919220D02*
X41648093Y139499792D01*
X41648093Y139209506D02*
X40632093Y139209506D01*
X40632093Y139209506D02*
X40777236Y139306268D01*
X40777236Y139306268D02*
X40873998Y139403030D01*
X40873998Y139403030D02*
X40922379Y139499792D01*
X41551332Y137129125D02*
X41599713Y137177506D01*
X41599713Y137177506D02*
X41648093Y137322649D01*
X41648093Y137322649D02*
X41648093Y137419411D01*
X41648093Y137419411D02*
X41599713Y137564554D01*
X41599713Y137564554D02*
X41502951Y137661316D01*
X41502951Y137661316D02*
X41406189Y137709697D01*
X41406189Y137709697D02*
X41212665Y137758078D01*
X41212665Y137758078D02*
X41067522Y137758078D01*
X41067522Y137758078D02*
X40873998Y137709697D01*
X40873998Y137709697D02*
X40777236Y137661316D01*
X40777236Y137661316D02*
X40680474Y137564554D01*
X40680474Y137564554D02*
X40632093Y137419411D01*
X40632093Y137419411D02*
X40632093Y137322649D01*
X40632093Y137322649D02*
X40680474Y137177506D01*
X40680474Y137177506D02*
X40728855Y137129125D01*
X40632093Y136016364D02*
X41648093Y135774459D01*
X41648093Y135774459D02*
X40922379Y135580935D01*
X40922379Y135580935D02*
X41648093Y135387411D01*
X41648093Y135387411D02*
X40632093Y135145507D01*
X41648093Y134613316D02*
X41599713Y134710078D01*
X41599713Y134710078D02*
X41551332Y134758459D01*
X41551332Y134758459D02*
X41454570Y134806840D01*
X41454570Y134806840D02*
X41164284Y134806840D01*
X41164284Y134806840D02*
X41067522Y134758459D01*
X41067522Y134758459D02*
X41019141Y134710078D01*
X41019141Y134710078D02*
X40970760Y134613316D01*
X40970760Y134613316D02*
X40970760Y134468173D01*
X40970760Y134468173D02*
X41019141Y134371411D01*
X41019141Y134371411D02*
X41067522Y134323030D01*
X41067522Y134323030D02*
X41164284Y134274649D01*
X41164284Y134274649D02*
X41454570Y134274649D01*
X41454570Y134274649D02*
X41551332Y134323030D01*
X41551332Y134323030D02*
X41599713Y134371411D01*
X41599713Y134371411D02*
X41648093Y134468173D01*
X41648093Y134468173D02*
X41648093Y134613316D01*
X41648093Y133694078D02*
X41599713Y133790840D01*
X41599713Y133790840D02*
X41502951Y133839221D01*
X41502951Y133839221D02*
X40632093Y133839221D01*
X40970760Y133452174D02*
X40970760Y133065126D01*
X41648093Y133307031D02*
X40777236Y133307031D01*
X40777236Y133307031D02*
X40680474Y133258650D01*
X40680474Y133258650D02*
X40632093Y133161888D01*
X40632093Y133161888D02*
X40632093Y133065126D01*
X39440713Y140515792D02*
X39489093Y140370649D01*
X39489093Y140370649D02*
X39489093Y140128744D01*
X39489093Y140128744D02*
X39440713Y140031982D01*
X39440713Y140031982D02*
X39392332Y139983601D01*
X39392332Y139983601D02*
X39295570Y139935220D01*
X39295570Y139935220D02*
X39198808Y139935220D01*
X39198808Y139935220D02*
X39102046Y139983601D01*
X39102046Y139983601D02*
X39053665Y140031982D01*
X39053665Y140031982D02*
X39005284Y140128744D01*
X39005284Y140128744D02*
X38956903Y140322268D01*
X38956903Y140322268D02*
X38908522Y140419030D01*
X38908522Y140419030D02*
X38860141Y140467411D01*
X38860141Y140467411D02*
X38763379Y140515792D01*
X38763379Y140515792D02*
X38666617Y140515792D01*
X38666617Y140515792D02*
X38569855Y140467411D01*
X38569855Y140467411D02*
X38521474Y140419030D01*
X38521474Y140419030D02*
X38473093Y140322268D01*
X38473093Y140322268D02*
X38473093Y140080363D01*
X38473093Y140080363D02*
X38521474Y139935220D01*
X38473093Y139644935D02*
X38473093Y139064363D01*
X39489093Y139354649D02*
X38473093Y139354649D01*
X38956903Y138725697D02*
X38956903Y138387030D01*
X39489093Y138241887D02*
X39489093Y138725697D01*
X39489093Y138725697D02*
X38473093Y138725697D01*
X38473093Y138725697D02*
X38473093Y138241887D01*
X39489093Y137806459D02*
X38473093Y137806459D01*
X38473093Y137806459D02*
X38473093Y137419411D01*
X38473093Y137419411D02*
X38521474Y137322649D01*
X38521474Y137322649D02*
X38569855Y137274268D01*
X38569855Y137274268D02*
X38666617Y137225887D01*
X38666617Y137225887D02*
X38811760Y137225887D01*
X38811760Y137225887D02*
X38908522Y137274268D01*
X38908522Y137274268D02*
X38956903Y137322649D01*
X38956903Y137322649D02*
X39005284Y137419411D01*
X39005284Y137419411D02*
X39005284Y137806459D01*
X39489093Y136790459D02*
X38473093Y136790459D01*
X38473093Y136790459D02*
X38473093Y136403411D01*
X38473093Y136403411D02*
X38521474Y136306649D01*
X38521474Y136306649D02*
X38569855Y136258268D01*
X38569855Y136258268D02*
X38666617Y136209887D01*
X38666617Y136209887D02*
X38811760Y136209887D01*
X38811760Y136209887D02*
X38908522Y136258268D01*
X38908522Y136258268D02*
X38956903Y136306649D01*
X38956903Y136306649D02*
X39005284Y136403411D01*
X39005284Y136403411D02*
X39005284Y136790459D01*
X38956903Y135774459D02*
X38956903Y135435792D01*
X39489093Y135290649D02*
X39489093Y135774459D01*
X39489093Y135774459D02*
X38473093Y135774459D01*
X38473093Y135774459D02*
X38473093Y135290649D01*
X39489093Y134274649D02*
X39005284Y134613316D01*
X39489093Y134855221D02*
X38473093Y134855221D01*
X38473093Y134855221D02*
X38473093Y134468173D01*
X38473093Y134468173D02*
X38521474Y134371411D01*
X38521474Y134371411D02*
X38569855Y134323030D01*
X38569855Y134323030D02*
X38666617Y134274649D01*
X38666617Y134274649D02*
X38811760Y134274649D01*
X38811760Y134274649D02*
X38908522Y134323030D01*
X38908522Y134323030D02*
X38956903Y134371411D01*
X38956903Y134371411D02*
X39005284Y134468173D01*
X39005284Y134468173D02*
X39005284Y134855221D01*
X39489093Y132581316D02*
X39489093Y133065126D01*
X39489093Y133065126D02*
X38473093Y133065126D01*
X39489093Y132242650D02*
X38473093Y132242650D01*
X39489093Y131758840D02*
X38473093Y131758840D01*
X38473093Y131758840D02*
X39489093Y131178268D01*
X39489093Y131178268D02*
X38473093Y131178268D01*
X38956903Y130694459D02*
X38956903Y130355792D01*
X39489093Y130210649D02*
X39489093Y130694459D01*
X39489093Y130694459D02*
X38473093Y130694459D01*
X38473093Y130694459D02*
X38473093Y130210649D01*
X39489093Y129001126D02*
X38473093Y129001126D01*
X38473093Y129001126D02*
X38473093Y128759221D01*
X38473093Y128759221D02*
X38521474Y128614078D01*
X38521474Y128614078D02*
X38618236Y128517316D01*
X38618236Y128517316D02*
X38714998Y128468935D01*
X38714998Y128468935D02*
X38908522Y128420554D01*
X38908522Y128420554D02*
X39053665Y128420554D01*
X39053665Y128420554D02*
X39247189Y128468935D01*
X39247189Y128468935D02*
X39343951Y128517316D01*
X39343951Y128517316D02*
X39440713Y128614078D01*
X39440713Y128614078D02*
X39489093Y128759221D01*
X39489093Y128759221D02*
X39489093Y129001126D01*
X39489093Y127404554D02*
X39005284Y127743221D01*
X39489093Y127985126D02*
X38473093Y127985126D01*
X38473093Y127985126D02*
X38473093Y127598078D01*
X38473093Y127598078D02*
X38521474Y127501316D01*
X38521474Y127501316D02*
X38569855Y127452935D01*
X38569855Y127452935D02*
X38666617Y127404554D01*
X38666617Y127404554D02*
X38811760Y127404554D01*
X38811760Y127404554D02*
X38908522Y127452935D01*
X38908522Y127452935D02*
X38956903Y127501316D01*
X38956903Y127501316D02*
X39005284Y127598078D01*
X39005284Y127598078D02*
X39005284Y127985126D01*
X39489093Y126969126D02*
X38473093Y126969126D01*
X38473093Y126630459D02*
X39489093Y126291792D01*
X39489093Y126291792D02*
X38473093Y125953125D01*
X38956903Y125614459D02*
X38956903Y125275792D01*
X39489093Y125130649D02*
X39489093Y125614459D01*
X39489093Y125614459D02*
X38473093Y125614459D01*
X38473093Y125614459D02*
X38473093Y125130649D01*
X39489093Y124114649D02*
X39005284Y124453316D01*
X39489093Y124695221D02*
X38473093Y124695221D01*
X38473093Y124695221D02*
X38473093Y124308173D01*
X38473093Y124308173D02*
X38521474Y124211411D01*
X38521474Y124211411D02*
X38569855Y124163030D01*
X38569855Y124163030D02*
X38666617Y124114649D01*
X38666617Y124114649D02*
X38811760Y124114649D01*
X38811760Y124114649D02*
X38908522Y124163030D01*
X38908522Y124163030D02*
X38956903Y124211411D01*
X38956903Y124211411D02*
X39005284Y124308173D01*
X39005284Y124308173D02*
X39005284Y124695221D01*
D11*
X34268580Y135548666D02*
X34316200Y135596285D01*
X34316200Y135596285D02*
X34363819Y135739142D01*
X34363819Y135739142D02*
X34363819Y135834380D01*
X34363819Y135834380D02*
X34316200Y135977237D01*
X34316200Y135977237D02*
X34220961Y136072475D01*
X34220961Y136072475D02*
X34125723Y136120094D01*
X34125723Y136120094D02*
X33935247Y136167713D01*
X33935247Y136167713D02*
X33792390Y136167713D01*
X33792390Y136167713D02*
X33601914Y136120094D01*
X33601914Y136120094D02*
X33506676Y136072475D01*
X33506676Y136072475D02*
X33411438Y135977237D01*
X33411438Y135977237D02*
X33363819Y135834380D01*
X33363819Y135834380D02*
X33363819Y135739142D01*
X33363819Y135739142D02*
X33411438Y135596285D01*
X33411438Y135596285D02*
X33459057Y135548666D01*
X34363819Y134596285D02*
X34363819Y135167713D01*
X34363819Y134881999D02*
X33363819Y134881999D01*
X33363819Y134881999D02*
X33506676Y134977237D01*
X33506676Y134977237D02*
X33601914Y135072475D01*
X33601914Y135072475D02*
X33649533Y135167713D01*
X36919819Y125729904D02*
X37729342Y125729904D01*
X37729342Y125729904D02*
X37824580Y125682285D01*
X37824580Y125682285D02*
X37872200Y125634666D01*
X37872200Y125634666D02*
X37919819Y125539428D01*
X37919819Y125539428D02*
X37919819Y125348952D01*
X37919819Y125348952D02*
X37872200Y125253714D01*
X37872200Y125253714D02*
X37824580Y125206095D01*
X37824580Y125206095D02*
X37729342Y125158476D01*
X37729342Y125158476D02*
X36919819Y125158476D01*
X37015057Y124729904D02*
X36967438Y124682285D01*
X36967438Y124682285D02*
X36919819Y124587047D01*
X36919819Y124587047D02*
X36919819Y124348952D01*
X36919819Y124348952D02*
X36967438Y124253714D01*
X36967438Y124253714D02*
X37015057Y124206095D01*
X37015057Y124206095D02*
X37110295Y124158476D01*
X37110295Y124158476D02*
X37205533Y124158476D01*
X37205533Y124158476D02*
X37348390Y124206095D01*
X37348390Y124206095D02*
X37919819Y124777523D01*
X37919819Y124777523D02*
X37919819Y124158476D01*
X35472666Y131625180D02*
X35805999Y132101371D01*
X36044094Y131625180D02*
X36044094Y132625180D01*
X36044094Y132625180D02*
X35663142Y132625180D01*
X35663142Y132625180D02*
X35567904Y132577561D01*
X35567904Y132577561D02*
X35520285Y132529942D01*
X35520285Y132529942D02*
X35472666Y132434704D01*
X35472666Y132434704D02*
X35472666Y132291847D01*
X35472666Y132291847D02*
X35520285Y132196609D01*
X35520285Y132196609D02*
X35567904Y132148990D01*
X35567904Y132148990D02*
X35663142Y132101371D01*
X35663142Y132101371D02*
X36044094Y132101371D01*
X35091713Y132529942D02*
X35044094Y132577561D01*
X35044094Y132577561D02*
X34948856Y132625180D01*
X34948856Y132625180D02*
X34710761Y132625180D01*
X34710761Y132625180D02*
X34615523Y132577561D01*
X34615523Y132577561D02*
X34567904Y132529942D01*
X34567904Y132529942D02*
X34520285Y132434704D01*
X34520285Y132434704D02*
X34520285Y132339466D01*
X34520285Y132339466D02*
X34567904Y132196609D01*
X34567904Y132196609D02*
X35139332Y131625180D01*
X35139332Y131625180D02*
X34520285Y131625180D01*
X33728819Y128944666D02*
X33252628Y129277999D01*
X33728819Y129516094D02*
X32728819Y129516094D01*
X32728819Y129516094D02*
X32728819Y129135142D01*
X32728819Y129135142D02*
X32776438Y129039904D01*
X32776438Y129039904D02*
X32824057Y128992285D01*
X32824057Y128992285D02*
X32919295Y128944666D01*
X32919295Y128944666D02*
X33062152Y128944666D01*
X33062152Y128944666D02*
X33157390Y128992285D01*
X33157390Y128992285D02*
X33205009Y129039904D01*
X33205009Y129039904D02*
X33252628Y129135142D01*
X33252628Y129135142D02*
X33252628Y129516094D01*
X33728819Y127992285D02*
X33728819Y128563713D01*
X33728819Y128277999D02*
X32728819Y128277999D01*
X32728819Y128277999D02*
X32871676Y128373237D01*
X32871676Y128373237D02*
X32966914Y128468475D01*
X32966914Y128468475D02*
X33014533Y128563713D01*
X37591904Y140880180D02*
X37591904Y140070657D01*
X37591904Y140070657D02*
X37544285Y139975419D01*
X37544285Y139975419D02*
X37496666Y139927800D01*
X37496666Y139927800D02*
X37401428Y139880180D01*
X37401428Y139880180D02*
X37210952Y139880180D01*
X37210952Y139880180D02*
X37115714Y139927800D01*
X37115714Y139927800D02*
X37068095Y139975419D01*
X37068095Y139975419D02*
X37020476Y140070657D01*
X37020476Y140070657D02*
X37020476Y140880180D01*
X36639523Y140880180D02*
X36020476Y140880180D01*
X36020476Y140880180D02*
X36353809Y140499228D01*
X36353809Y140499228D02*
X36210952Y140499228D01*
X36210952Y140499228D02*
X36115714Y140451609D01*
X36115714Y140451609D02*
X36068095Y140403990D01*
X36068095Y140403990D02*
X36020476Y140308752D01*
X36020476Y140308752D02*
X36020476Y140070657D01*
X36020476Y140070657D02*
X36068095Y139975419D01*
X36068095Y139975419D02*
X36115714Y139927800D01*
X36115714Y139927800D02*
X36210952Y139880180D01*
X36210952Y139880180D02*
X36496666Y139880180D01*
X36496666Y139880180D02*
X36591904Y139927800D01*
X36591904Y139927800D02*
X36639523Y139975419D01*
X37697580Y127003666D02*
X37745200Y127051285D01*
X37745200Y127051285D02*
X37792819Y127194142D01*
X37792819Y127194142D02*
X37792819Y127289380D01*
X37792819Y127289380D02*
X37745200Y127432237D01*
X37745200Y127432237D02*
X37649961Y127527475D01*
X37649961Y127527475D02*
X37554723Y127575094D01*
X37554723Y127575094D02*
X37364247Y127622713D01*
X37364247Y127622713D02*
X37221390Y127622713D01*
X37221390Y127622713D02*
X37030914Y127575094D01*
X37030914Y127575094D02*
X36935676Y127527475D01*
X36935676Y127527475D02*
X36840438Y127432237D01*
X36840438Y127432237D02*
X36792819Y127289380D01*
X36792819Y127289380D02*
X36792819Y127194142D01*
X36792819Y127194142D02*
X36840438Y127051285D01*
X36840438Y127051285D02*
X36888057Y127003666D01*
X36888057Y126622713D02*
X36840438Y126575094D01*
X36840438Y126575094D02*
X36792819Y126479856D01*
X36792819Y126479856D02*
X36792819Y126241761D01*
X36792819Y126241761D02*
X36840438Y126146523D01*
X36840438Y126146523D02*
X36888057Y126098904D01*
X36888057Y126098904D02*
X36983295Y126051285D01*
X36983295Y126051285D02*
X37078533Y126051285D01*
X37078533Y126051285D02*
X37221390Y126098904D01*
X37221390Y126098904D02*
X37792819Y126670332D01*
X37792819Y126670332D02*
X37792819Y126051285D01*
D12*
%TO.C,C1*%
X34034000Y137654420D02*
X34034000Y137935580D01*
X35054000Y137654420D02*
X35054000Y137935580D01*
%TO.C,U2*%
X36006000Y123427000D02*
X34106000Y123427000D01*
X34606000Y125747000D02*
X36006000Y125747000D01*
%TO.C,R2*%
X35543258Y129427500D02*
X35068742Y129427500D01*
X35543258Y128382500D02*
X35068742Y128382500D01*
%TO.C,R1*%
X35068742Y130160500D02*
X35543258Y130160500D01*
X35068742Y131205500D02*
X35543258Y131205500D01*
%TO.C,U3*%
X37990000Y138495000D02*
X37990000Y137095000D01*
X35670000Y137095000D02*
X35670000Y138995000D01*
%TO.C,C2*%
X35446580Y126363000D02*
X35165420Y126363000D01*
X35446580Y127383000D02*
X35165420Y127383000D01*
%TD*%
M02*
