M48
; DRILL file {KiCad (6.0.1)} date Sun Feb  5 18:59:54 2023
; FORMAT={-:-/ absolute / inch / decimal}
; #@! TF.CreationDate,2023-02-05T18:59:54-08:00
; #@! TF.GenerationSoftware,Kicad,Pcbnew,(6.0.1)
; #@! TF.FileFunction,Plated,1,2,PTH
FMAT,2
INCH
; #@! TA.AperFunction,Plated,PTH,ComponentDrill
T1C0.0197
; #@! TA.AperFunction,Plated,PTH,ComponentDrill
T2C0.0315
; #@! TA.AperFunction,Plated,PTH,ComponentDrill
T3C0.0354
; #@! TA.AperFunction,Plated,PTH,ComponentDrill
T4C0.0394
; #@! TA.AperFunction,Plated,PTH,ComponentDrill
T5C0.0400
; #@! TA.AperFunction,Plated,PTH,ComponentDrill
T6C0.0472
; #@! TA.AperFunction,Plated,PTH,ViaDrill
T7C0.0492
; #@! TA.AperFunction,Plated,PTH,ComponentDrill
T8C0.0512
; #@! TA.AperFunction,Plated,PTH,ComponentDrill
T9C0.0550
; #@! TA.AperFunction,Plated,PTH,ComponentDrill
T10C0.0591
; #@! TA.AperFunction,Plated,PTH,ComponentDrill
T11C0.1260
%
G90
G05
T1
X2.0315Y-2.126
X2.0315Y-5.7087
X2.0592Y-2.0592
X2.0592Y-2.1928
X2.0592Y-5.6418
X2.0592Y-5.7755
X2.126Y-2.0315
X2.126Y-2.2205
X2.126Y-5.6142
X2.126Y-5.8031
X2.1928Y-2.0592
X2.1928Y-2.1928
X2.1928Y-5.6418
X2.1928Y-5.7755
X2.2205Y-2.126
X2.2205Y-5.7087
X5.6535Y-2.126
X5.6535Y-5.748
X5.6812Y-2.0592
X5.6812Y-2.1928
X5.6812Y-5.6812
X5.6812Y-5.8148
X5.748Y-2.0315
X5.748Y-2.2205
X5.748Y-5.6535
X5.748Y-5.8425
X5.8148Y-2.0592
X5.8148Y-2.1928
X5.8148Y-5.6812
X5.8148Y-5.8148
X5.8425Y-2.126
X5.8425Y-5.748
T2
X5.0787Y-5.3543
X5.6787Y-5.3543
T3
X5.2543Y-5.6299
X5.3543Y-5.6299
T4
X4.4488Y-2.5984
X4.4488Y-2.6984
X4.4488Y-2.7984
X4.4488Y-2.8984
X4.4488Y-2.9984
X4.4488Y-3.4646
X4.4488Y-3.5646
X4.4488Y-3.6646
X4.4488Y-3.7646
X4.4488Y-3.8646
X4.5488Y-2.5984
X4.5488Y-2.6984
X4.5488Y-2.7984
X4.5488Y-2.8984
X4.5488Y-2.9984
X4.5488Y-3.4646
X4.5488Y-3.5646
X4.5488Y-3.6646
X4.5488Y-3.7646
X4.5488Y-3.8646
X5.0394Y-2.5984
X5.0394Y-2.6984
X5.0394Y-2.7984
X5.0394Y-2.8984
X5.0394Y-2.9984
X5.0394Y-3.4646
X5.0394Y-3.5646
X5.0394Y-3.6646
X5.0394Y-3.7646
X5.0394Y-3.8646
X5.1394Y-2.5984
X5.1394Y-2.6984
X5.1394Y-2.7984
X5.1394Y-2.8984
X5.1394Y-2.9984
X5.1394Y-3.4646
X5.1394Y-3.5646
X5.1394Y-3.6646
X5.1394Y-3.7646
X5.1394Y-3.8646
X5.1575Y-4.5276
X5.1575Y-4.6276
X5.1575Y-4.7276
X5.1575Y-4.8276
X5.1575Y-4.9276
X5.2575Y-4.5276
X5.2575Y-4.6276
X5.2575Y-4.7276
X5.2575Y-4.8276
X5.2575Y-4.9276
X5.6299Y-2.5984
X5.6299Y-2.6984
X5.6299Y-2.7984
X5.6299Y-2.8984
X5.6299Y-2.9984
X5.6299Y-3.4646
X5.6299Y-3.5646
X5.6299Y-3.6646
X5.6299Y-3.7646
X5.6299Y-3.8646
X5.6299Y-4.5276
X5.6299Y-4.6276
X5.6299Y-4.7276
X5.6299Y-4.8276
X5.6299Y-4.9276
X5.7299Y-2.5984
X5.7299Y-2.6984
X5.7299Y-2.7984
X5.7299Y-2.8984
X5.7299Y-2.9984
X5.7299Y-3.4646
X5.7299Y-3.5646
X5.7299Y-3.6646
X5.7299Y-3.7646
X5.7299Y-3.8646
X5.7299Y-4.5276
X5.7299Y-4.6276
X5.7299Y-4.7276
X5.7299Y-4.8276
X5.7299Y-4.9276
T5
X2.9134Y-2.1457
X2.9134Y-4.0748
X3.1102Y-2.9331
X3.1102Y-3.2874
X3.5039Y-2.9331
X3.5039Y-3.2874
X3.7008Y-2.1457
X3.7008Y-4.0748
T6
X4.685Y-4.3307
X4.685Y-4.5276
X4.685Y-4.8819
X4.685Y-5.0787
X4.685Y-5.4331
X4.685Y-5.6299
T7
X3.8235Y-3.2535
X3.9685Y-3.3935
X3.9685Y-3.5435
T8
X2.1457Y-2.6453
X2.1457Y-2.9453
X2.1457Y-3.787
X2.1457Y-4.087
X2.1457Y-4.9287
X2.1457Y-5.2287
X2.3425Y-2.6453
X2.3425Y-2.9453
X2.3425Y-3.787
X2.3425Y-4.087
X2.3425Y-4.9287
X2.3425Y-5.2287
T9
X4.0945Y-4.3819
X4.0945Y-4.8819
X4.0945Y-5.0906
X4.0945Y-5.5906
X4.2913Y-4.3819
X4.2913Y-4.8819
X4.2913Y-5.0906
X4.2913Y-5.5906
T10
X2.7677Y-4.6787
X2.7677Y-4.8787
X2.7677Y-5.2787
X2.7677Y-5.4787
X3.7677Y-4.6787
X3.7677Y-4.8787
X3.7677Y-5.2787
X3.7677Y-5.4787
T11
X2.126Y-2.126
X2.126Y-5.7087
X5.748Y-2.126
X5.748Y-5.748
T0
M30
