%TF.GenerationSoftware,KiCad,Pcbnew,(6.0.1)*%
%TF.CreationDate,2023-02-05T18:59:54-08:00*%
%TF.ProjectId,Energy Monitor - Transformer PCB R2,456e6572-6779-4204-9d6f-6e69746f7220,rev?*%
%TF.SameCoordinates,Original*%
%TF.FileFunction,Copper,L1,Top*%
%TF.FilePolarity,Positive*%
%FSLAX46Y46*%
G04 Gerber Fmt 4.6, Leading zero omitted, Abs format (unit mm)*
G04 Created by KiCad (PCBNEW (6.0.1)) date 2023-02-05 18:59:54*
%MOMM*%
%LPD*%
G01*
G04 APERTURE LIST*
G04 Aperture macros list*
%AMRoundRect*
0 Rectangle with rounded corners*
0 $1 Rounding radius*
0 $2 $3 $4 $5 $6 $7 $8 $9 X,Y pos of 4 corners*
0 Add a 4 corners polygon primitive as box body*
4,1,4,$2,$3,$4,$5,$6,$7,$8,$9,$2,$3,0*
0 Add four circle primitives for the rounded corners*
1,1,$1+$1,$2,$3*
1,1,$1+$1,$4,$5*
1,1,$1+$1,$6,$7*
1,1,$1+$1,$8,$9*
0 Add four rect primitives between the rounded corners*
20,1,$1+$1,$2,$3,$4,$5,0*
20,1,$1+$1,$4,$5,$6,$7,0*
20,1,$1+$1,$6,$7,$8,$9,0*
20,1,$1+$1,$8,$9,$2,$3,0*%
G04 Aperture macros list end*
%TA.AperFunction,ComponentPad*%
%ADD10RoundRect,1.250000X-0.500000X0.000000X0.500000X0.000000X0.500000X0.000000X-0.500000X0.000000X0*%
%TD*%
%TA.AperFunction,ComponentPad*%
%ADD11R,3.500000X2.500000*%
%TD*%
%TA.AperFunction,ComponentPad*%
%ADD12C,2.000000*%
%TD*%
%TA.AperFunction,ComponentPad*%
%ADD13O,2.200000X2.200000*%
%TD*%
%TA.AperFunction,ComponentPad*%
%ADD14R,2.200000X2.200000*%
%TD*%
%TA.AperFunction,ComponentPad*%
%ADD15C,2.400000*%
%TD*%
%TA.AperFunction,ComponentPad*%
%ADD16R,2.400000X2.400000*%
%TD*%
%TA.AperFunction,ComponentPad*%
%ADD17C,1.700000*%
%TD*%
%TA.AperFunction,ComponentPad*%
%ADD18RoundRect,0.250000X-0.600000X-0.600000X0.600000X-0.600000X0.600000X0.600000X-0.600000X0.600000X0*%
%TD*%
%TA.AperFunction,ComponentPad*%
%ADD19O,1.600000X1.600000*%
%TD*%
%TA.AperFunction,ComponentPad*%
%ADD20C,1.600000*%
%TD*%
%TA.AperFunction,ComponentPad*%
%ADD21C,1.800000*%
%TD*%
%TA.AperFunction,ComponentPad*%
%ADD22R,1.800000X1.800000*%
%TD*%
%TA.AperFunction,ComponentPad*%
%ADD23C,0.800000*%
%TD*%
%TA.AperFunction,ComponentPad*%
%ADD24C,6.400000*%
%TD*%
%TA.AperFunction,ComponentPad*%
%ADD25C,3.000000*%
%TD*%
%TA.AperFunction,ViaPad*%
%ADD26C,2.500000*%
%TD*%
%TA.AperFunction,Conductor*%
%ADD27C,1.270000*%
%TD*%
G04 APERTURE END LIST*
D10*
%TO.P,T3,8*%
%TO.N,Net-(D1-Pad2)*%
X95700000Y-139160000D03*
%TO.P,T3,7*%
%TO.N,Net-(D2-Pad2)*%
X95700000Y-134080000D03*
%TO.P,T3,6*%
%TO.N,Net-(D1-Pad2)*%
X95700000Y-123920000D03*
%TO.P,T3,5*%
%TO.N,Net-(D2-Pad2)*%
X95700000Y-118840000D03*
%TO.P,T3,4*%
%TO.N,Net-(J3-Pad2)*%
X70300000Y-139160000D03*
%TO.P,T3,3*%
%TO.N,Net-(J3-Pad1)*%
X70300000Y-134080000D03*
%TO.P,T3,2*%
%TO.N,Net-(J3-Pad2)*%
X70300000Y-123920000D03*
D11*
%TO.P,T3,1*%
%TO.N,Net-(J3-Pad1)*%
X70300000Y-118840000D03*
%TD*%
D12*
%TO.P,T2,9*%
%TO.N,Net-(J4-Pad10)*%
X79000000Y-83500000D03*
%TO.P,T2,7*%
%TO.N,Net-(J4-Pad7)*%
X89000000Y-83500000D03*
%TO.P,T2,5*%
%TO.N,Net-(J2-Pad1)*%
X94000000Y-103500000D03*
%TO.P,T2,1*%
%TO.N,Net-(J2-Pad2)*%
X74000000Y-103500000D03*
%TD*%
D13*
%TO.P,D2,2*%
%TO.N,Net-(D2-Pad2)*%
X109000000Y-124000000D03*
D14*
%TO.P,D2,1*%
%TO.N,+9V*%
X109000000Y-111300000D03*
%TD*%
D12*
%TO.P,T1,9*%
%TO.N,Net-(J4-Pad3)*%
X89000000Y-74500000D03*
%TO.P,T1,7*%
%TO.N,Net-(J4-Pad1)*%
X79000000Y-74500000D03*
%TO.P,T1,5*%
%TO.N,Net-(J1-Pad1)*%
X74000000Y-54500000D03*
%TO.P,T1,1*%
%TO.N,Net-(J1-Pad2)*%
X94000000Y-54500000D03*
%TD*%
D15*
%TO.P,C3,2*%
%TO.N,GND*%
X119000000Y-129000000D03*
D16*
%TO.P,C3,1*%
%TO.N,+9V*%
X119000000Y-124000000D03*
%TD*%
D17*
%TO.P,J11,10*%
%TO.N,GND*%
X133540000Y-125160000D03*
%TO.P,J11,8*%
X133540000Y-122620000D03*
%TO.P,J11,6*%
X133540000Y-120080000D03*
%TO.P,J11,4*%
X133540000Y-117540000D03*
%TO.P,J11,2*%
%TO.N,Net-(J11-Pad2)*%
X133540000Y-115000000D03*
%TO.P,J11,9*%
%TO.N,Net-(J11-Pad9)*%
X131000000Y-125160000D03*
%TO.P,J11,7*%
%TO.N,+9V*%
X131000000Y-122620000D03*
%TO.P,J11,5*%
X131000000Y-120080000D03*
%TO.P,J11,3*%
X131000000Y-117540000D03*
D18*
%TO.P,J11,1*%
X131000000Y-115000000D03*
%TD*%
D19*
%TO.P,R1,2*%
%TO.N,Net-(D5-Pad2)*%
X144240000Y-136000000D03*
D20*
%TO.P,R1,1*%
%TO.N,+9V*%
X129000000Y-136000000D03*
%TD*%
D21*
%TO.P,D5,2*%
%TO.N,Net-(D5-Pad2)*%
X136000000Y-143000000D03*
D22*
%TO.P,D5,1*%
%TO.N,GND*%
X133460000Y-143000000D03*
%TD*%
D17*
%TO.P,J9,10*%
%TO.N,Net-(J4-Pad10)*%
X115540000Y-98160000D03*
%TO.P,J9,8*%
%TO.N,Net-(J4-Pad7)*%
X115540000Y-95620000D03*
%TO.P,J9,6*%
%TO.N,Net-(J9-Pad6)*%
X115540000Y-93080000D03*
%TO.P,J9,4*%
%TO.N,Net-(J4-Pad3)*%
X115540000Y-90540000D03*
%TO.P,J9,2*%
%TO.N,Net-(J4-Pad1)*%
X115540000Y-88000000D03*
%TO.P,J9,9*%
%TO.N,Net-(J4-Pad10)*%
X113000000Y-98160000D03*
%TO.P,J9,7*%
%TO.N,Net-(J4-Pad7)*%
X113000000Y-95620000D03*
%TO.P,J9,5*%
%TO.N,Net-(J9-Pad5)*%
X113000000Y-93080000D03*
%TO.P,J9,3*%
%TO.N,Net-(J4-Pad3)*%
X113000000Y-90540000D03*
D18*
%TO.P,J9,1*%
%TO.N,Net-(J4-Pad1)*%
X113000000Y-88000000D03*
%TD*%
D23*
%TO.P,H4,1*%
%TO.N,N/C*%
X147697056Y-52302944D03*
X146000000Y-51600000D03*
X144302944Y-52302944D03*
X143600000Y-54000000D03*
X144302944Y-55697056D03*
X146000000Y-56400000D03*
X147697056Y-55697056D03*
X148400000Y-54000000D03*
D24*
X146000000Y-54000000D03*
%TD*%
D23*
%TO.P,H3,1*%
%TO.N,N/C*%
X55697056Y-143302944D03*
X54000000Y-142600000D03*
X52302944Y-143302944D03*
X51600000Y-145000000D03*
X52302944Y-146697056D03*
X54000000Y-147400000D03*
X55697056Y-146697056D03*
X56400000Y-145000000D03*
D24*
X54000000Y-145000000D03*
%TD*%
D23*
%TO.P,H2,1*%
%TO.N,N/C*%
X147697056Y-144302944D03*
X146000000Y-143600000D03*
X144302944Y-144302944D03*
X143600000Y-146000000D03*
X144302944Y-147697056D03*
X146000000Y-148400000D03*
X147697056Y-147697056D03*
X148400000Y-146000000D03*
D24*
X146000000Y-146000000D03*
%TD*%
D23*
%TO.P,H1,1*%
%TO.N,N/C*%
X55697056Y-52302944D03*
X54000000Y-51600000D03*
X52302944Y-52302944D03*
X51600000Y-54000000D03*
X52302944Y-55697056D03*
X54000000Y-56400000D03*
X55697056Y-55697056D03*
X56400000Y-54000000D03*
D24*
X54000000Y-54000000D03*
%TD*%
D17*
%TO.P,J8,10*%
%TO.N,Net-(J4-Pad10)*%
X145540000Y-76160000D03*
%TO.P,J8,8*%
%TO.N,Net-(J4-Pad7)*%
X145540000Y-73620000D03*
%TO.P,J8,6*%
%TO.N,Net-(J8-Pad6)*%
X145540000Y-71080000D03*
%TO.P,J8,4*%
%TO.N,Net-(J4-Pad3)*%
X145540000Y-68540000D03*
%TO.P,J8,2*%
%TO.N,Net-(J4-Pad1)*%
X145540000Y-66000000D03*
%TO.P,J8,9*%
%TO.N,Net-(J4-Pad10)*%
X143000000Y-76160000D03*
%TO.P,J8,7*%
%TO.N,Net-(J4-Pad7)*%
X143000000Y-73620000D03*
%TO.P,J8,5*%
%TO.N,Net-(J8-Pad5)*%
X143000000Y-71080000D03*
%TO.P,J8,3*%
%TO.N,Net-(J4-Pad3)*%
X143000000Y-68540000D03*
D18*
%TO.P,J8,1*%
%TO.N,Net-(J4-Pad1)*%
X143000000Y-66000000D03*
%TD*%
D17*
%TO.P,J7,10*%
%TO.N,Net-(J4-Pad10)*%
X130540000Y-76160000D03*
%TO.P,J7,8*%
%TO.N,Net-(J4-Pad7)*%
X130540000Y-73620000D03*
%TO.P,J7,6*%
%TO.N,Net-(J7-Pad6)*%
X130540000Y-71080000D03*
%TO.P,J7,4*%
%TO.N,Net-(J4-Pad3)*%
X130540000Y-68540000D03*
%TO.P,J7,2*%
%TO.N,Net-(J4-Pad1)*%
X130540000Y-66000000D03*
%TO.P,J7,9*%
%TO.N,Net-(J4-Pad10)*%
X128000000Y-76160000D03*
%TO.P,J7,7*%
%TO.N,Net-(J4-Pad7)*%
X128000000Y-73620000D03*
%TO.P,J7,5*%
%TO.N,Net-(J7-Pad5)*%
X128000000Y-71080000D03*
%TO.P,J7,3*%
%TO.N,Net-(J4-Pad3)*%
X128000000Y-68540000D03*
D18*
%TO.P,J7,1*%
%TO.N,Net-(J4-Pad1)*%
X128000000Y-66000000D03*
%TD*%
D17*
%TO.P,J6,10*%
%TO.N,Net-(J4-Pad10)*%
X145540000Y-98160000D03*
%TO.P,J6,8*%
%TO.N,Net-(J4-Pad7)*%
X145540000Y-95620000D03*
%TO.P,J6,6*%
%TO.N,Net-(J6-Pad6)*%
X145540000Y-93080000D03*
%TO.P,J6,4*%
%TO.N,Net-(J4-Pad3)*%
X145540000Y-90540000D03*
%TO.P,J6,2*%
%TO.N,Net-(J4-Pad1)*%
X145540000Y-88000000D03*
%TO.P,J6,9*%
%TO.N,Net-(J4-Pad10)*%
X143000000Y-98160000D03*
%TO.P,J6,7*%
%TO.N,Net-(J4-Pad7)*%
X143000000Y-95620000D03*
%TO.P,J6,5*%
%TO.N,Net-(J6-Pad5)*%
X143000000Y-93080000D03*
%TO.P,J6,3*%
%TO.N,Net-(J4-Pad3)*%
X143000000Y-90540000D03*
D18*
%TO.P,J6,1*%
%TO.N,Net-(J4-Pad1)*%
X143000000Y-88000000D03*
%TD*%
D17*
%TO.P,J10,10*%
%TO.N,GND*%
X145540000Y-125160000D03*
%TO.P,J10,8*%
X145540000Y-122620000D03*
%TO.P,J10,6*%
X145540000Y-120080000D03*
%TO.P,J10,4*%
X145540000Y-117540000D03*
%TO.P,J10,2*%
%TO.N,Net-(J10-Pad2)*%
X145540000Y-115000000D03*
%TO.P,J10,9*%
%TO.N,Net-(J10-Pad9)*%
X143000000Y-125160000D03*
%TO.P,J10,7*%
%TO.N,+9V*%
X143000000Y-122620000D03*
%TO.P,J10,5*%
X143000000Y-120080000D03*
%TO.P,J10,3*%
X143000000Y-117540000D03*
D18*
%TO.P,J10,1*%
X143000000Y-115000000D03*
%TD*%
D17*
%TO.P,J5,10*%
%TO.N,Net-(J4-Pad10)*%
X130540000Y-98160000D03*
%TO.P,J5,8*%
%TO.N,Net-(J4-Pad7)*%
X130540000Y-95620000D03*
%TO.P,J5,6*%
%TO.N,Net-(J5-Pad6)*%
X130540000Y-93080000D03*
%TO.P,J5,4*%
%TO.N,Net-(J4-Pad3)*%
X130540000Y-90540000D03*
%TO.P,J5,2*%
%TO.N,Net-(J4-Pad1)*%
X130540000Y-88000000D03*
%TO.P,J5,9*%
%TO.N,Net-(J4-Pad10)*%
X128000000Y-98160000D03*
%TO.P,J5,7*%
%TO.N,Net-(J4-Pad7)*%
X128000000Y-95620000D03*
%TO.P,J5,5*%
%TO.N,Net-(J5-Pad5)*%
X128000000Y-93080000D03*
%TO.P,J5,3*%
%TO.N,Net-(J4-Pad3)*%
X128000000Y-90540000D03*
D18*
%TO.P,J5,1*%
%TO.N,Net-(J4-Pad1)*%
X128000000Y-88000000D03*
%TD*%
D17*
%TO.P,J4,10*%
%TO.N,Net-(J4-Pad10)*%
X115540000Y-76160000D03*
%TO.P,J4,8*%
%TO.N,Net-(J4-Pad7)*%
X115540000Y-73620000D03*
%TO.P,J4,6*%
%TO.N,Net-(J4-Pad6)*%
X115540000Y-71080000D03*
%TO.P,J4,4*%
%TO.N,Net-(J4-Pad3)*%
X115540000Y-68540000D03*
%TO.P,J4,2*%
%TO.N,Net-(J4-Pad1)*%
X115540000Y-66000000D03*
%TO.P,J4,9*%
%TO.N,Net-(J4-Pad10)*%
X113000000Y-76160000D03*
%TO.P,J4,7*%
%TO.N,Net-(J4-Pad7)*%
X113000000Y-73620000D03*
%TO.P,J4,5*%
%TO.N,Net-(J4-Pad5)*%
X113000000Y-71080000D03*
%TO.P,J4,3*%
%TO.N,Net-(J4-Pad3)*%
X113000000Y-68540000D03*
D18*
%TO.P,J4,1*%
%TO.N,Net-(J4-Pad1)*%
X113000000Y-66000000D03*
%TD*%
D13*
%TO.P,D4,2*%
%TO.N,GND*%
X104000000Y-142000000D03*
D14*
%TO.P,D4,1*%
%TO.N,Net-(D1-Pad2)*%
X104000000Y-129300000D03*
%TD*%
D13*
%TO.P,D3,2*%
%TO.N,GND*%
X109000000Y-142000000D03*
D14*
%TO.P,D3,1*%
%TO.N,Net-(D2-Pad2)*%
X109000000Y-129300000D03*
%TD*%
D13*
%TO.P,D1,2*%
%TO.N,Net-(D1-Pad2)*%
X104000000Y-124000000D03*
D14*
%TO.P,D1,1*%
%TO.N,+9V*%
X104000000Y-111300000D03*
%TD*%
D15*
%TO.P,C2,2*%
%TO.N,GND*%
X119000000Y-143000000D03*
D16*
%TO.P,C2,1*%
%TO.N,+9V*%
X119000000Y-138000000D03*
%TD*%
D15*
%TO.P,C1,2*%
%TO.N,GND*%
X119000000Y-115000000D03*
D16*
%TO.P,C1,1*%
%TO.N,+9V*%
X119000000Y-110000000D03*
%TD*%
D25*
%TO.P,J3,2*%
%TO.N,Net-(J3-Pad2)*%
X59500000Y-132810000D03*
X54500000Y-132810000D03*
%TO.P,J3,1*%
%TO.N,Net-(J3-Pad1)*%
X59500000Y-125190000D03*
X54500000Y-125190000D03*
%TD*%
%TO.P,J2,2*%
%TO.N,Net-(J2-Pad2)*%
X59500000Y-103810000D03*
X54500000Y-103810000D03*
%TO.P,J2,1*%
%TO.N,Net-(J2-Pad1)*%
X59500000Y-96190000D03*
X54500000Y-96190000D03*
%TD*%
%TO.P,J1,2*%
%TO.N,Net-(J1-Pad2)*%
X59500000Y-74810000D03*
X54500000Y-74810000D03*
%TO.P,J1,1*%
%TO.N,Net-(J1-Pad1)*%
X59500000Y-67190000D03*
X54500000Y-67190000D03*
%TD*%
D26*
%TO.N,Net-(J4-Pad3)*%
X97117000Y-82639000D03*
%TO.N,Net-(J4-Pad7)*%
X100800000Y-86195000D03*
%TO.N,Net-(J4-Pad10)*%
X100800000Y-90005000D03*
%TD*%
D27*
%TO.N,Net-(J3-Pad2)*%
X54500000Y-132810000D02*
X59500000Y-132810000D01*
X65600000Y-138910000D02*
X59500000Y-132810000D01*
X69800000Y-138910000D02*
X65600000Y-138910000D01*
X60660000Y-132810000D02*
X59500000Y-132810000D01*
X69800000Y-123670000D02*
X60660000Y-132810000D01*
%TO.N,Net-(J3-Pad1)*%
X54500000Y-125190000D02*
X59500000Y-125190000D01*
X66100000Y-118590000D02*
X59500000Y-125190000D01*
X74590000Y-118590000D02*
X66100000Y-118590000D01*
X69800000Y-133830000D02*
X74170000Y-133830000D01*
X76500000Y-131500000D02*
X76500000Y-120500000D01*
X74170000Y-133830000D02*
X76500000Y-131500000D01*
X76500000Y-120500000D02*
X74590000Y-118590000D01*
%TO.N,Net-(J4-Pad3)*%
X95867001Y-81389001D02*
X97117000Y-82639000D01*
X94000000Y-79522000D02*
X95867001Y-81389001D01*
X97117000Y-82617000D02*
X89000000Y-74500000D01*
X97117000Y-82639000D02*
X97117000Y-82617000D01*
%TO.N,Net-(J4-Pad7)*%
X109380000Y-73620000D02*
X113000000Y-73620000D01*
X100800000Y-86195000D02*
X102705000Y-84290000D01*
X102705000Y-80295000D02*
X104835000Y-78165000D01*
X102705000Y-84290000D02*
X102705000Y-80295000D01*
X104835000Y-78165000D02*
X109380000Y-73620000D01*
%TO.N,Net-(J4-Pad10)*%
X105840000Y-83320000D02*
X113000000Y-76160000D01*
X105840000Y-84965000D02*
X105840000Y-83320000D01*
X100800000Y-90005000D02*
X105840000Y-84965000D01*
%TO.N,Net-(D1-Pad2)*%
X104000000Y-129300000D02*
X104000000Y-124000000D01*
X103920000Y-123920000D02*
X104000000Y-124000000D01*
X95700000Y-123920000D02*
X103920000Y-123920000D01*
X95700000Y-139160000D02*
X100340000Y-139160000D01*
X104000000Y-135500000D02*
X104000000Y-129300000D01*
X100340000Y-139160000D02*
X104000000Y-135500000D01*
%TD*%
M02*
