%TF.GenerationSoftware,KiCad,Pcbnew,(6.0.1)*%
%TF.CreationDate,2023-01-07T21:21:10-08:00*%
%TF.ProjectId,ESP32 Dev Carrier - R1,45535033-3220-4446-9576-204361727269,rev?*%
%TF.SameCoordinates,Original*%
%TF.FileFunction,Soldermask,Top*%
%TF.FilePolarity,Negative*%
%FSLAX46Y46*%
G04 Gerber Fmt 4.6, Leading zero omitted, Abs format (unit mm)*
G04 Created by KiCad (PCBNEW (6.0.1)) date 2023-01-07 21:21:10*
%MOMM*%
%LPD*%
G01*
G04 APERTURE LIST*
G04 Aperture macros list*
%AMRoundRect*
0 Rectangle with rounded corners*
0 $1 Rounding radius*
0 $2 $3 $4 $5 $6 $7 $8 $9 X,Y pos of 4 corners*
0 Add a 4 corners polygon primitive as box body*
4,1,4,$2,$3,$4,$5,$6,$7,$8,$9,$2,$3,0*
0 Add four circle primitives for the rounded corners*
1,1,$1+$1,$2,$3*
1,1,$1+$1,$4,$5*
1,1,$1+$1,$6,$7*
1,1,$1+$1,$8,$9*
0 Add four rect primitives between the rounded corners*
20,1,$1+$1,$2,$3,$4,$5,0*
20,1,$1+$1,$4,$5,$6,$7,0*
20,1,$1+$1,$6,$7,$8,$9,0*
20,1,$1+$1,$8,$9,$2,$3,0*%
G04 Aperture macros list end*
%ADD10RoundRect,0.101600X0.400000X0.400000X-0.400000X0.400000X-0.400000X-0.400000X0.400000X-0.400000X0*%
%ADD11RoundRect,0.250000X0.275000X-0.200000X0.275000X0.200000X-0.275000X0.200000X-0.275000X-0.200000X0*%
%ADD12RoundRect,0.250000X-0.200000X-0.275000X0.200000X-0.275000X0.200000X0.275000X-0.200000X0.275000X0*%
%ADD13RoundRect,0.050000X0.750000X0.750000X-0.750000X0.750000X-0.750000X-0.750000X0.750000X-0.750000X0*%
%ADD14RoundRect,0.250000X-0.275000X0.200000X-0.275000X-0.200000X0.275000X-0.200000X0.275000X0.200000X0*%
%ADD15RoundRect,0.275000X-0.250000X0.225000X-0.250000X-0.225000X0.250000X-0.225000X0.250000X0.225000X0*%
%ADD16RoundRect,0.275000X0.225000X0.250000X-0.225000X0.250000X-0.225000X-0.250000X0.225000X-0.250000X0*%
%ADD17RoundRect,0.300000X0.325000X0.650000X-0.325000X0.650000X-0.325000X-0.650000X0.325000X-0.650000X0*%
%ADD18C,0.900000*%
%ADD19C,5.100000*%
%ADD20RoundRect,0.050000X0.800000X-0.800000X0.800000X0.800000X-0.800000X0.800000X-0.800000X-0.800000X0*%
%ADD21C,1.700000*%
%ADD22RoundRect,0.200000X0.825000X0.150000X-0.825000X0.150000X-0.825000X-0.150000X0.825000X-0.150000X0*%
%ADD23RoundRect,0.300000X-1.025000X0.787500X-1.025000X-0.787500X1.025000X-0.787500X1.025000X0.787500X0*%
%ADD24RoundRect,0.300000X0.787500X1.025000X-0.787500X1.025000X-0.787500X-1.025000X0.787500X-1.025000X0*%
%ADD25RoundRect,0.275000X0.250000X-0.225000X0.250000X0.225000X-0.250000X0.225000X-0.250000X-0.225000X0*%
%ADD26RoundRect,0.050000X-1.000000X-0.750000X1.000000X-0.750000X1.000000X0.750000X-1.000000X0.750000X0*%
%ADD27RoundRect,0.050000X-1.000000X-1.900000X1.000000X-1.900000X1.000000X1.900000X-1.000000X1.900000X0*%
%ADD28RoundRect,0.275000X-0.225000X-0.250000X0.225000X-0.250000X0.225000X0.250000X-0.225000X0.250000X0*%
%ADD29RoundRect,0.050000X-1.650000X-1.250000X1.650000X-1.250000X1.650000X1.250000X-1.650000X1.250000X0*%
%ADD30RoundRect,0.050000X-1.000000X-0.450000X1.000000X-0.450000X1.000000X0.450000X-1.000000X0.450000X0*%
%ADD31RoundRect,0.050000X-2.500000X-2.500000X2.500000X-2.500000X2.500000X2.500000X-2.500000X2.500000X0*%
%ADD32RoundRect,0.050000X1.750000X2.000000X-1.750000X2.000000X-1.750000X-2.000000X1.750000X-2.000000X0*%
%ADD33C,1.300000*%
%ADD34RoundRect,0.300000X0.600000X0.750000X-0.600000X0.750000X-0.600000X-0.750000X0.600000X-0.750000X0*%
%ADD35O,1.800000X2.100000*%
%ADD36RoundRect,0.300000X-0.725000X0.600000X-0.725000X-0.600000X0.725000X-0.600000X0.725000X0.600000X0*%
%ADD37O,2.050000X1.800000*%
%ADD38RoundRect,0.200000X-0.587500X-0.150000X0.587500X-0.150000X0.587500X0.150000X-0.587500X0.150000X0*%
%ADD39RoundRect,0.050000X-0.850000X-0.850000X0.850000X-0.850000X0.850000X0.850000X-0.850000X0.850000X0*%
%ADD40O,1.800000X1.800000*%
%ADD41RoundRect,0.250000X0.200000X0.275000X-0.200000X0.275000X-0.200000X-0.275000X0.200000X-0.275000X0*%
%ADD42C,0.750000*%
%ADD43O,1.050000X0.750000*%
%ADD44RoundRect,0.050000X-0.150000X-0.350000X0.150000X-0.350000X0.150000X0.350000X-0.150000X0.350000X0*%
%ADD45O,0.900000X1.500000*%
%ADD46RoundRect,0.101600X-0.400000X-0.400000X0.400000X-0.400000X0.400000X0.400000X-0.400000X0.400000X0*%
%ADD47RoundRect,0.112500X-0.337500X-0.062500X0.337500X-0.062500X0.337500X0.062500X-0.337500X0.062500X0*%
%ADD48RoundRect,0.112500X-0.062500X-0.337500X0.062500X-0.337500X0.062500X0.337500X-0.062500X0.337500X0*%
%ADD49RoundRect,0.050000X-1.675000X-1.675000X1.675000X-1.675000X1.675000X1.675000X-1.675000X1.675000X0*%
%ADD50C,1.900000*%
%ADD51C,1.100000*%
G04 APERTURE END LIST*
D10*
%TO.C,D12*%
X61639988Y-70793100D03*
X61639988Y-69293100D03*
%TD*%
D11*
%TO.C,R10*%
X61639988Y-67173100D03*
X61639988Y-65523100D03*
%TD*%
D12*
%TO.C,R14*%
X69069988Y-8563100D03*
X70719988Y-8563100D03*
%TD*%
D13*
%TO.C,SW1*%
X17774616Y-2848100D03*
X9974616Y-2848100D03*
%TD*%
D14*
%TO.C,R6*%
X43859988Y-21327100D03*
X43859988Y-22977100D03*
%TD*%
D15*
%TO.C,C3*%
X22455976Y-70782200D03*
X22455976Y-72332200D03*
%TD*%
D16*
%TO.C,C11*%
X24620653Y-62766535D03*
X23070653Y-62766535D03*
%TD*%
D17*
%TO.C,C2*%
X42378653Y-62411100D03*
X39428653Y-62411100D03*
%TD*%
D10*
%TO.C,D8*%
X63544988Y-70793100D03*
X63544988Y-69293100D03*
%TD*%
D11*
%TO.C,R4*%
X19716616Y-6286000D03*
X19716616Y-4636000D03*
%TD*%
D18*
%TO.C,H4*%
X70674175Y-73325825D03*
X70125000Y-72000000D03*
X70674175Y-70674175D03*
D19*
X72000000Y-72000000D03*
D18*
X73875000Y-72000000D03*
X73325825Y-73325825D03*
X73325825Y-70674175D03*
X72000000Y-70125000D03*
X72000000Y-73875000D03*
%TD*%
%TO.C,H3*%
X72000000Y-1125000D03*
X70674175Y-4325825D03*
D19*
X72000000Y-3000000D03*
D18*
X73325825Y-4325825D03*
X72000000Y-4875000D03*
X70674175Y-1674175D03*
X70125000Y-3000000D03*
X73325825Y-1674175D03*
X73875000Y-3000000D03*
%TD*%
D12*
%TO.C,R15*%
X69069988Y-11143100D03*
X70719988Y-11143100D03*
%TD*%
D11*
%TO.C,R5*%
X42208988Y-22977100D03*
X42208988Y-21327100D03*
%TD*%
D10*
%TO.C,D7*%
X59734988Y-70793100D03*
X59734988Y-69293100D03*
%TD*%
D20*
%TO.C,C1*%
X47962653Y-65459100D03*
D21*
X47962653Y-62959100D03*
%TD*%
D22*
%TO.C,U2*%
X41582653Y-68761100D03*
X41582653Y-67491100D03*
X41582653Y-66221100D03*
X41582653Y-64951100D03*
X36632653Y-64951100D03*
X36632653Y-66221100D03*
X36632653Y-67491100D03*
X36632653Y-68761100D03*
%TD*%
D18*
%TO.C,H2*%
X3000000Y-70125000D03*
D19*
X3000000Y-72000000D03*
D18*
X3000000Y-73875000D03*
X4875000Y-72000000D03*
X4325825Y-70674175D03*
X1125000Y-72000000D03*
X1674175Y-73325825D03*
X4325825Y-73325825D03*
X1674175Y-70674175D03*
%TD*%
D23*
%TO.C,C4*%
X25726988Y-65513600D03*
X25726988Y-71738600D03*
%TD*%
D11*
%TO.C,R26*%
X59734988Y-67173100D03*
X59734988Y-65523100D03*
%TD*%
D24*
%TO.C,C7*%
X42970153Y-72106100D03*
X36745153Y-72106100D03*
%TD*%
%TO.C,C10*%
X23516153Y-51463535D03*
X17291153Y-51463535D03*
%TD*%
D25*
%TO.C,C9*%
X19716616Y-3188000D03*
X19716616Y-1638000D03*
%TD*%
D16*
%TO.C,C8*%
X19729616Y-9525000D03*
X18179616Y-9525000D03*
%TD*%
D26*
%TO.C,U3*%
X17761653Y-56021535D03*
X17761653Y-58321535D03*
D27*
X24061653Y-58321535D03*
D26*
X17761653Y-60621535D03*
%TD*%
D11*
%TO.C,R27*%
X63544988Y-67173100D03*
X63544988Y-65523100D03*
%TD*%
D28*
%TO.C,C6*%
X17469653Y-62766535D03*
X19019653Y-62766535D03*
%TD*%
D15*
%TO.C,C5*%
X43607653Y-64831100D03*
X43607653Y-66381100D03*
%TD*%
D11*
%TO.C,R7*%
X19208616Y-38036000D03*
X19208616Y-36386000D03*
%TD*%
D12*
%TO.C,R3*%
X16478616Y-5769100D03*
X18128616Y-5769100D03*
%TD*%
D29*
%TO.C,D1*%
X31794988Y-65488100D03*
X31794988Y-72288100D03*
%TD*%
D30*
%TO.C,U1*%
X22108616Y-1740000D03*
X22108616Y-3010000D03*
X22108616Y-4280000D03*
X22108616Y-5550000D03*
X22108616Y-6820000D03*
X22108616Y-8090000D03*
X22108616Y-9360000D03*
X22108616Y-10630000D03*
X22108616Y-11900000D03*
X22108616Y-13170000D03*
X22108616Y-14440000D03*
X22108616Y-15710000D03*
X22108616Y-16980000D03*
X22108616Y-18250000D03*
X22108616Y-19520000D03*
X22108616Y-20790000D03*
X22108616Y-22060000D03*
X22108616Y-23330000D03*
X22108616Y-24600000D03*
X39108616Y-24600000D03*
X39108616Y-23330000D03*
X39108616Y-22060000D03*
X39108616Y-20790000D03*
X39108616Y-19520000D03*
X39108616Y-18250000D03*
X39108616Y-16980000D03*
X39108616Y-15710000D03*
X39108616Y-14440000D03*
X39108616Y-13170000D03*
X39108616Y-11900000D03*
X39108616Y-10630000D03*
X39108616Y-9360000D03*
X39108616Y-8090000D03*
X39108616Y-6820000D03*
X39108616Y-5550000D03*
X39108616Y-4280000D03*
X39108616Y-3010000D03*
X39108616Y-1740000D03*
D31*
X29608616Y-9240000D03*
%TD*%
D32*
%TO.C,L1*%
X36357653Y-58606100D03*
X28357653Y-58606100D03*
%TD*%
D18*
%TO.C,H1*%
X4325825Y-4325825D03*
X3000000Y-1125000D03*
X4325825Y-1674175D03*
X1674175Y-1674175D03*
D19*
X3000000Y-3000000D03*
D18*
X4875000Y-3000000D03*
X1674175Y-4325825D03*
X1125000Y-3000000D03*
X3000000Y-4875000D03*
%TD*%
D33*
%TO.C,J1*%
X51808653Y-69589100D03*
D34*
X50208653Y-71589100D03*
D35*
X47708653Y-71589100D03*
%TD*%
D36*
%TO.C,J6*%
X50734988Y-3643100D03*
D37*
X50734988Y-6143100D03*
X50734988Y-8643100D03*
X50734988Y-11143100D03*
X50734988Y-13643100D03*
%TD*%
D36*
%TO.C,J9*%
X64179988Y-34243100D03*
D37*
X64179988Y-36743100D03*
X64179988Y-39243100D03*
X64179988Y-41743100D03*
X64179988Y-44243100D03*
X64179988Y-46743100D03*
X64179988Y-49243100D03*
X64179988Y-51743100D03*
X64179988Y-54243100D03*
%TD*%
D12*
%TO.C,R25*%
X10351000Y-62992000D03*
X12001000Y-62992000D03*
%TD*%
D36*
%TO.C,J4*%
X64704988Y-3643100D03*
D37*
X64704988Y-6143100D03*
X64704988Y-8643100D03*
X64704988Y-11143100D03*
X64704988Y-13643100D03*
%TD*%
D38*
%TO.C,D15*%
X38809988Y-38093100D03*
X38809988Y-39993100D03*
X40684988Y-39043100D03*
%TD*%
D15*
%TO.C,C13*%
X17176616Y-33388000D03*
X17176616Y-34938000D03*
%TD*%
D38*
%TO.C,D6*%
X38809988Y-48253100D03*
X38809988Y-50153100D03*
X40684988Y-49203100D03*
%TD*%
D36*
%TO.C,J8*%
X57194988Y-34243100D03*
D37*
X57194988Y-36743100D03*
X57194988Y-39243100D03*
X57194988Y-41743100D03*
X57194988Y-44243100D03*
X57194988Y-46743100D03*
X57194988Y-49243100D03*
X57194988Y-51743100D03*
X57194988Y-54243100D03*
%TD*%
D39*
%TO.C,J3*%
X3014988Y-8233100D03*
D40*
X5554988Y-8233100D03*
X3014988Y-10773100D03*
X5554988Y-10773100D03*
X3014988Y-13313100D03*
X5554988Y-13313100D03*
X3014988Y-15853100D03*
X5554988Y-15853100D03*
X3014988Y-18393100D03*
X5554988Y-18393100D03*
X3014988Y-20933100D03*
X5554988Y-20933100D03*
X3014988Y-23473100D03*
X5554988Y-23473100D03*
X3014988Y-26013100D03*
X5554988Y-26013100D03*
X3014988Y-28553100D03*
X5554988Y-28553100D03*
X3014988Y-31093100D03*
X5554988Y-31093100D03*
X3014988Y-33633100D03*
X5554988Y-33633100D03*
X3014988Y-36173100D03*
X5554988Y-36173100D03*
X3014988Y-38713100D03*
X5554988Y-38713100D03*
X3014988Y-41253100D03*
X5554988Y-41253100D03*
X3014988Y-43793100D03*
X5554988Y-43793100D03*
X3014988Y-46333100D03*
X5554988Y-46333100D03*
X3014988Y-48873100D03*
X5554988Y-48873100D03*
X3014988Y-51413100D03*
X5554988Y-51413100D03*
X3014988Y-53953100D03*
X5554988Y-53953100D03*
X3014988Y-56493100D03*
X5554988Y-56493100D03*
%TD*%
D36*
%TO.C,J5*%
X57609988Y-3643100D03*
D37*
X57609988Y-6143100D03*
X57609988Y-8643100D03*
X57609988Y-11143100D03*
X57609988Y-13643100D03*
%TD*%
D38*
%TO.C,Q2*%
X15998488Y-21837100D03*
X15998488Y-23737100D03*
X17873488Y-22787100D03*
%TD*%
D36*
%TO.C,J14*%
X64069988Y-20053100D03*
D37*
X64069988Y-22553100D03*
X64069988Y-25053100D03*
X64069988Y-27553100D03*
%TD*%
D14*
%TO.C,R20*%
X60369988Y-59173100D03*
X60369988Y-60823100D03*
%TD*%
%TO.C,R12*%
X20732616Y-36386000D03*
X20732616Y-38036000D03*
%TD*%
D41*
%TO.C,R11*%
X16223616Y-20193000D03*
X14573616Y-20193000D03*
%TD*%
D42*
%TO.C,J2*%
X9354000Y-65744000D03*
D43*
X16554000Y-65744000D03*
D44*
X10204000Y-65084000D03*
X10704000Y-65084000D03*
X11204000Y-65084000D03*
X11704000Y-65084000D03*
X12204000Y-65084000D03*
X12704000Y-65084000D03*
X13204000Y-65084000D03*
X13704000Y-65084000D03*
X14204000Y-65084000D03*
X14704000Y-65084000D03*
X15204000Y-65084000D03*
X15704000Y-65084000D03*
X15454000Y-66784000D03*
X14954000Y-66784000D03*
X14454000Y-66784000D03*
X13954000Y-66784000D03*
X13454000Y-66784000D03*
X12954000Y-66784000D03*
X12454000Y-66784000D03*
X11954000Y-66784000D03*
X11454000Y-66784000D03*
X10954000Y-66784000D03*
X10454000Y-66784000D03*
X9954000Y-66784000D03*
D45*
X8464000Y-72944000D03*
X17444000Y-72944000D03*
X17084000Y-66994000D03*
X8824000Y-66994000D03*
%TD*%
D36*
%TO.C,J13*%
X71054988Y-20053100D03*
D37*
X71054988Y-22553100D03*
X71054988Y-25053100D03*
X71054988Y-27553100D03*
%TD*%
D38*
%TO.C,D10*%
X38809988Y-43173100D03*
X38809988Y-45073100D03*
X40684988Y-44123100D03*
%TD*%
D36*
%TO.C,J10*%
X71164988Y-34243100D03*
D37*
X71164988Y-36743100D03*
X71164988Y-39243100D03*
X71164988Y-41743100D03*
X71164988Y-44243100D03*
X71164988Y-46743100D03*
X71164988Y-49243100D03*
X71164988Y-51743100D03*
X71164988Y-54243100D03*
%TD*%
D14*
%TO.C,R13*%
X57829988Y-65523100D03*
X57829988Y-67173100D03*
%TD*%
%TO.C,R21*%
X62274988Y-59173100D03*
X62274988Y-60823100D03*
%TD*%
%TO.C,R19*%
X66719988Y-59173100D03*
X66719988Y-60823100D03*
%TD*%
D38*
%TO.C,D18*%
X43210000Y-3330000D03*
X43210000Y-5230000D03*
X45085000Y-4280000D03*
%TD*%
D12*
%TO.C,R22*%
X69069988Y-14913100D03*
X70719988Y-14913100D03*
%TD*%
D36*
%TO.C,J11*%
X50099988Y-20053100D03*
D37*
X50099988Y-22553100D03*
X50099988Y-25053100D03*
X50099988Y-27553100D03*
%TD*%
D12*
%TO.C,R1*%
X25241616Y-26797000D03*
X26891616Y-26797000D03*
%TD*%
D14*
%TO.C,R16*%
X55924988Y-65523100D03*
X55924988Y-67173100D03*
%TD*%
D11*
%TO.C,R17*%
X22256616Y-38036000D03*
X22256616Y-36386000D03*
%TD*%
D38*
%TO.C,D16*%
X43254988Y-10872100D03*
X43254988Y-12772100D03*
X45129988Y-11822100D03*
%TD*%
D46*
%TO.C,D3*%
X57829988Y-69408100D03*
X57829988Y-70908100D03*
%TD*%
D14*
%TO.C,R8*%
X17684616Y-36386000D03*
X17684616Y-38036000D03*
%TD*%
D38*
%TO.C,D11*%
X38809988Y-33013100D03*
X38809988Y-34913100D03*
X40684988Y-33963100D03*
%TD*%
%TO.C,D9*%
X42922488Y-45713100D03*
X42922488Y-47613100D03*
X44797488Y-46663100D03*
%TD*%
%TO.C,Q1*%
X14715116Y-16703000D03*
X14715116Y-18603000D03*
X16590116Y-17653000D03*
%TD*%
D47*
%TO.C,U4*%
X18790616Y-30123000D03*
X18790616Y-30623000D03*
X18790616Y-31123000D03*
X18790616Y-31623000D03*
X18790616Y-32123000D03*
X18790616Y-32623000D03*
X18790616Y-33123000D03*
D48*
X19740616Y-34073000D03*
X20240616Y-34073000D03*
X20740616Y-34073000D03*
X21240616Y-34073000D03*
X21740616Y-34073000D03*
X22240616Y-34073000D03*
X22740616Y-34073000D03*
D47*
X23690616Y-33123000D03*
X23690616Y-32623000D03*
X23690616Y-32123000D03*
X23690616Y-31623000D03*
X23690616Y-31123000D03*
X23690616Y-30623000D03*
X23690616Y-30123000D03*
D48*
X22740616Y-29173000D03*
X22240616Y-29173000D03*
X21740616Y-29173000D03*
X21240616Y-29173000D03*
X20740616Y-29173000D03*
X20240616Y-29173000D03*
X19740616Y-29173000D03*
D49*
X21240616Y-31623000D03*
%TD*%
D12*
%TO.C,R2*%
X25241616Y-28321000D03*
X26891616Y-28321000D03*
%TD*%
D38*
%TO.C,D17*%
X43254988Y-14682100D03*
X43254988Y-16582100D03*
X45129988Y-15632100D03*
%TD*%
D46*
%TO.C,D4*%
X55924988Y-69408100D03*
X55924988Y-70908100D03*
%TD*%
D38*
%TO.C,D13*%
X42922488Y-35553100D03*
X42922488Y-37453100D03*
X44797488Y-36503100D03*
%TD*%
D11*
%TO.C,R24*%
X19685000Y-70548000D03*
X19685000Y-68898000D03*
%TD*%
D36*
%TO.C,J7*%
X50209988Y-34243100D03*
D37*
X50209988Y-36743100D03*
X50209988Y-39243100D03*
X50209988Y-41743100D03*
X50209988Y-44243100D03*
X50209988Y-46743100D03*
X50209988Y-49243100D03*
X50209988Y-51743100D03*
X50209988Y-54243100D03*
%TD*%
D38*
%TO.C,D5*%
X42922488Y-50793100D03*
X42922488Y-52693100D03*
X44797488Y-51743100D03*
%TD*%
%TO.C,D2*%
X43210000Y-7140000D03*
X43210000Y-9040000D03*
X45085000Y-8090000D03*
%TD*%
D12*
%TO.C,R9*%
X13951988Y-25273000D03*
X15601988Y-25273000D03*
%TD*%
D41*
%TO.C,R23*%
X45319988Y-29518100D03*
X43669988Y-29518100D03*
%TD*%
D15*
%TO.C,C12*%
X15652616Y-33388000D03*
X15652616Y-34938000D03*
%TD*%
D14*
%TO.C,R18*%
X68624988Y-59173100D03*
X68624988Y-60823100D03*
%TD*%
D38*
%TO.C,D14*%
X42922488Y-40633100D03*
X42922488Y-42533100D03*
X44797488Y-41583100D03*
%TD*%
D36*
%TO.C,J12*%
X57084988Y-20033100D03*
D37*
X57084988Y-22533100D03*
X57084988Y-25033100D03*
X57084988Y-27533100D03*
%TD*%
D50*
X35088616Y-1745000D03*
X30608616Y-8000000D03*
X25726988Y-69051100D03*
X28608616Y-8000000D03*
X30608616Y-10000000D03*
X28608616Y-10000000D03*
D18*
X44416488Y-35403100D03*
X16922616Y-9550000D03*
X40303988Y-43023100D03*
D51*
X20416653Y-62741535D03*
D18*
X9398000Y-63881000D03*
X42208988Y-24438100D03*
X16160616Y-36195000D03*
X44416488Y-50643100D03*
D50*
X19475988Y-19485100D03*
D18*
X41891500Y-7140000D03*
X44748988Y-10722100D03*
X41891500Y-3330000D03*
D51*
X21673653Y-62741535D03*
D18*
X40303988Y-32863100D03*
X15398616Y-36195000D03*
X40303988Y-37943100D03*
D50*
X14878153Y-51449535D03*
D18*
X9954000Y-68499000D03*
X44748988Y-14532100D03*
X22256616Y-39293000D03*
X15454000Y-68499000D03*
X40303988Y-48103100D03*
X17176616Y-30607000D03*
X65005988Y-70793100D03*
X19208616Y-39293000D03*
X11857616Y-2848100D03*
X15704000Y-63369000D03*
X8636000Y-62992000D03*
X19685000Y-72263000D03*
D50*
X24495940Y-1664990D03*
D18*
X44416488Y-45563100D03*
X44416488Y-40483100D03*
D50*
X39503653Y-59636100D03*
X20403653Y-56035535D03*
X23226988Y-65126100D03*
D18*
X27476988Y-68126100D03*
X43577653Y-68761100D03*
D50*
X20403653Y-60635535D03*
D18*
X70085988Y-60823100D03*
D50*
X26607616Y-3015000D03*
D18*
X41891500Y-9040000D03*
X54463988Y-70908100D03*
X41891500Y-5230000D03*
X40303988Y-45223100D03*
X43859988Y-24438100D03*
X44416488Y-47763100D03*
X44416488Y-37603100D03*
X40303988Y-35063100D03*
X44748988Y-12922100D03*
X44748988Y-16732100D03*
X40303988Y-50303100D03*
D50*
X21255153Y-51449535D03*
D18*
X44416488Y-42683100D03*
X42208988Y-29518100D03*
X63735988Y-60823100D03*
X40303988Y-40143100D03*
X18790616Y-34073000D03*
X70719988Y-7102100D03*
X44416488Y-52843100D03*
X20732616Y-39293000D03*
X29127988Y-28629100D03*
X19602988Y-23295100D03*
X24047988Y-22406100D03*
X37120616Y-18215100D03*
X37088616Y-8090000D03*
X66719988Y-57712100D03*
X37088616Y-20790000D03*
X24301988Y-23803100D03*
X37088616Y-5550000D03*
X25444988Y-23803100D03*
X37088616Y-6820000D03*
X18832616Y-28067000D03*
X22256616Y-28067000D03*
X24128616Y-5550000D03*
X24128616Y-6820000D03*
X24128616Y-14445000D03*
X24128616Y-13175000D03*
X24128616Y-11905000D03*
X23780616Y-18255000D03*
X24128616Y-10635000D03*
X37088616Y-3010000D03*
X68624988Y-57712100D03*
X37088616Y-13170000D03*
X24128616Y-9365000D03*
X60369988Y-57712100D03*
X62274988Y-57712100D03*
X24128616Y-8095000D03*
X37088616Y-10635000D03*
X37088616Y-11900000D03*
X37088616Y-4280000D03*
X24128616Y-16985000D03*
X37088616Y-19520000D03*
X37088616Y-16980000D03*
X13208000Y-58928000D03*
X11176000Y-60960000D03*
X13335000Y-68580000D03*
X12700000Y-61468000D03*
X13589000Y-63754000D03*
X12192000Y-67945000D03*
X24128616Y-15715000D03*
X18967988Y-21136100D03*
M02*
