%TF.GenerationSoftware,KiCad,Pcbnew,(6.0.1)*%
%TF.CreationDate,2023-01-01T21:05:58-08:00*%
%TF.ProjectId,ESP32 Protoboard - Small R1,45535033-3220-4507-926f-746f626f6172,rev?*%
%TF.SameCoordinates,Original*%
%TF.FileFunction,Legend,Bot*%
%TF.FilePolarity,Positive*%
%FSLAX46Y46*%
G04 Gerber Fmt 4.6, Leading zero omitted, Abs format (unit mm)*
G04 Created by KiCad (PCBNEW (6.0.1)) date 2023-01-01 21:05:58*
%MOMM*%
%LPD*%
G01*
G04 APERTURE LIST*
G04 Aperture macros list*
%AMRoundRect*
0 Rectangle with rounded corners*
0 $1 Rounding radius*
0 $2 $3 $4 $5 $6 $7 $8 $9 X,Y pos of 4 corners*
0 Add a 4 corners polygon primitive as box body*
4,1,4,$2,$3,$4,$5,$6,$7,$8,$9,$2,$3,0*
0 Add four circle primitives for the rounded corners*
1,1,$1+$1,$2,$3*
1,1,$1+$1,$4,$5*
1,1,$1+$1,$6,$7*
1,1,$1+$1,$8,$9*
0 Add four rect primitives between the rounded corners*
20,1,$1+$1,$2,$3,$4,$5,0*
20,1,$1+$1,$4,$5,$6,$7,0*
20,1,$1+$1,$6,$7,$8,$9,0*
20,1,$1+$1,$8,$9,$2,$3,0*%
G04 Aperture macros list end*
%ADD10C,0.150000*%
%ADD11C,0.250000*%
%ADD12C,0.900000*%
%ADD13C,5.100000*%
%ADD14RoundRect,0.050000X0.800000X0.800000X-0.800000X0.800000X-0.800000X-0.800000X0.800000X-0.800000X0*%
%ADD15C,1.700000*%
%ADD16C,1.100000*%
%ADD17C,1.300000*%
%ADD18RoundRect,0.300000X0.750000X-0.600000X0.750000X0.600000X-0.750000X0.600000X-0.750000X-0.600000X0*%
%ADD19O,2.100000X1.800000*%
%ADD20RoundRect,0.300000X0.725000X-0.600000X0.725000X0.600000X-0.725000X0.600000X-0.725000X-0.600000X0*%
%ADD21O,2.050000X1.800000*%
%ADD22C,1.600000*%
%ADD23C,2.100000*%
%ADD24RoundRect,0.050000X0.850000X-0.850000X0.850000X0.850000X-0.850000X0.850000X-0.850000X-0.850000X0*%
%ADD25O,1.800000X1.800000*%
%ADD26C,1.900000*%
G04 APERTURE END LIST*
D10*
X19361357Y-16936107D02*
X19397071Y-16971821D01*
X19504214Y-17007535D01*
X19575642Y-17007535D01*
X19682785Y-16971821D01*
X19754214Y-16900392D01*
X19789928Y-16828964D01*
X19825642Y-16686107D01*
X19825642Y-16578964D01*
X19789928Y-16436107D01*
X19754214Y-16364678D01*
X19682785Y-16293250D01*
X19575642Y-16257535D01*
X19504214Y-16257535D01*
X19397071Y-16293250D01*
X19361357Y-16328964D01*
X19039928Y-16936107D02*
X19004214Y-16971821D01*
X19039928Y-17007535D01*
X19075642Y-16971821D01*
X19039928Y-16936107D01*
X19039928Y-17007535D01*
X18182785Y-16257535D02*
X18004214Y-17007535D01*
X17861357Y-16471821D01*
X17718500Y-17007535D01*
X17539928Y-16257535D01*
X17147071Y-17007535D02*
X17218500Y-16971821D01*
X17254214Y-16936107D01*
X17289928Y-16864678D01*
X17289928Y-16650392D01*
X17254214Y-16578964D01*
X17218500Y-16543250D01*
X17147071Y-16507535D01*
X17039928Y-16507535D01*
X16968500Y-16543250D01*
X16932785Y-16578964D01*
X16897071Y-16650392D01*
X16897071Y-16864678D01*
X16932785Y-16936107D01*
X16968500Y-16971821D01*
X17039928Y-17007535D01*
X17147071Y-17007535D01*
X16468500Y-17007535D02*
X16539928Y-16971821D01*
X16575642Y-16900392D01*
X16575642Y-16257535D01*
X16289928Y-16507535D02*
X16004214Y-16507535D01*
X16182785Y-17007535D02*
X16182785Y-16364678D01*
X16147071Y-16293250D01*
X16075642Y-16257535D01*
X16004214Y-16257535D01*
X19361357Y-18215035D02*
X19611357Y-17857892D01*
X19789928Y-18215035D02*
X19789928Y-17465035D01*
X19504214Y-17465035D01*
X19432785Y-17500750D01*
X19397071Y-17536464D01*
X19361357Y-17607892D01*
X19361357Y-17715035D01*
X19397071Y-17786464D01*
X19432785Y-17822178D01*
X19504214Y-17857892D01*
X19789928Y-17857892D01*
X18647071Y-18215035D02*
X19075642Y-18215035D01*
X18861357Y-18215035D02*
X18861357Y-17465035D01*
X18932785Y-17572178D01*
X19004214Y-17643607D01*
X19075642Y-17679321D01*
D11*
X20803714Y-12401357D02*
X20303714Y-12401357D01*
X20089428Y-13187071D02*
X20803714Y-13187071D01*
X20803714Y-11687071D01*
X20089428Y-11687071D01*
X19518000Y-13115642D02*
X19303714Y-13187071D01*
X18946571Y-13187071D01*
X18803714Y-13115642D01*
X18732285Y-13044214D01*
X18660857Y-12901357D01*
X18660857Y-12758500D01*
X18732285Y-12615642D01*
X18803714Y-12544214D01*
X18946571Y-12472785D01*
X19232285Y-12401357D01*
X19375142Y-12329928D01*
X19446571Y-12258500D01*
X19518000Y-12115642D01*
X19518000Y-11972785D01*
X19446571Y-11829928D01*
X19375142Y-11758500D01*
X19232285Y-11687071D01*
X18875142Y-11687071D01*
X18660857Y-11758500D01*
X18018000Y-13187071D02*
X18018000Y-11687071D01*
X17446571Y-11687071D01*
X17303714Y-11758500D01*
X17232285Y-11829928D01*
X17160857Y-11972785D01*
X17160857Y-12187071D01*
X17232285Y-12329928D01*
X17303714Y-12401357D01*
X17446571Y-12472785D01*
X18018000Y-12472785D01*
X16660857Y-11687071D02*
X15732285Y-11687071D01*
X16232285Y-12258500D01*
X16018000Y-12258500D01*
X15875142Y-12329928D01*
X15803714Y-12401357D01*
X15732285Y-12544214D01*
X15732285Y-12901357D01*
X15803714Y-13044214D01*
X15875142Y-13115642D01*
X16018000Y-13187071D01*
X16446571Y-13187071D01*
X16589428Y-13115642D01*
X16660857Y-13044214D01*
X15160857Y-11829928D02*
X15089428Y-11758500D01*
X14946571Y-11687071D01*
X14589428Y-11687071D01*
X14446571Y-11758500D01*
X14375142Y-11829928D01*
X14303714Y-11972785D01*
X14303714Y-12115642D01*
X14375142Y-12329928D01*
X15232285Y-13187071D01*
X14303714Y-13187071D01*
X21875142Y-15602071D02*
X21875142Y-14102071D01*
X21518000Y-14102071D01*
X21303714Y-14173500D01*
X21160857Y-14316357D01*
X21089428Y-14459214D01*
X21018000Y-14744928D01*
X21018000Y-14959214D01*
X21089428Y-15244928D01*
X21160857Y-15387785D01*
X21303714Y-15530642D01*
X21518000Y-15602071D01*
X21875142Y-15602071D01*
X19803714Y-15530642D02*
X19946571Y-15602071D01*
X20232285Y-15602071D01*
X20375142Y-15530642D01*
X20446571Y-15387785D01*
X20446571Y-14816357D01*
X20375142Y-14673500D01*
X20232285Y-14602071D01*
X19946571Y-14602071D01*
X19803714Y-14673500D01*
X19732285Y-14816357D01*
X19732285Y-14959214D01*
X20446571Y-15102071D01*
X19232285Y-14602071D02*
X18875142Y-15602071D01*
X18518000Y-14602071D01*
X17446571Y-14816357D02*
X17232285Y-14887785D01*
X17160857Y-14959214D01*
X17089428Y-15102071D01*
X17089428Y-15316357D01*
X17160857Y-15459214D01*
X17232285Y-15530642D01*
X17375142Y-15602071D01*
X17946571Y-15602071D01*
X17946571Y-14102071D01*
X17446571Y-14102071D01*
X17303714Y-14173500D01*
X17232285Y-14244928D01*
X17160857Y-14387785D01*
X17160857Y-14530642D01*
X17232285Y-14673500D01*
X17303714Y-14744928D01*
X17446571Y-14816357D01*
X17946571Y-14816357D01*
X16232285Y-15602071D02*
X16375142Y-15530642D01*
X16446571Y-15459214D01*
X16518000Y-15316357D01*
X16518000Y-14887785D01*
X16446571Y-14744928D01*
X16375142Y-14673500D01*
X16232285Y-14602071D01*
X16018000Y-14602071D01*
X15875142Y-14673500D01*
X15803714Y-14744928D01*
X15732285Y-14887785D01*
X15732285Y-15316357D01*
X15803714Y-15459214D01*
X15875142Y-15530642D01*
X16018000Y-15602071D01*
X16232285Y-15602071D01*
X14446571Y-15602071D02*
X14446571Y-14816357D01*
X14518000Y-14673500D01*
X14660857Y-14602071D01*
X14946571Y-14602071D01*
X15089428Y-14673500D01*
X14446571Y-15530642D02*
X14589428Y-15602071D01*
X14946571Y-15602071D01*
X15089428Y-15530642D01*
X15160857Y-15387785D01*
X15160857Y-15244928D01*
X15089428Y-15102071D01*
X14946571Y-15030642D01*
X14589428Y-15030642D01*
X14446571Y-14959214D01*
X13732285Y-15602071D02*
X13732285Y-14602071D01*
X13732285Y-14887785D02*
X13660857Y-14744928D01*
X13589428Y-14673500D01*
X13446571Y-14602071D01*
X13303714Y-14602071D01*
X12160857Y-15602071D02*
X12160857Y-14102071D01*
X12160857Y-15530642D02*
X12303714Y-15602071D01*
X12589428Y-15602071D01*
X12732285Y-15530642D01*
X12803714Y-15459214D01*
X12875142Y-15316357D01*
X12875142Y-14887785D01*
X12803714Y-14744928D01*
X12732285Y-14673500D01*
X12589428Y-14602071D01*
X12303714Y-14602071D01*
X12160857Y-14673500D01*
X6428571Y-10428571D02*
X6928571Y-9714285D01*
X7285714Y-10428571D02*
X7285714Y-8928571D01*
X6714285Y-8928571D01*
X6571428Y-9000000D01*
X6500000Y-9071428D01*
X6428571Y-9214285D01*
X6428571Y-9428571D01*
X6500000Y-9571428D01*
X6571428Y-9642857D01*
X6714285Y-9714285D01*
X7285714Y-9714285D01*
X5785714Y-9642857D02*
X5285714Y-9642857D01*
X5071428Y-10428571D02*
X5785714Y-10428571D01*
X5785714Y-8928571D01*
X5071428Y-8928571D01*
X4500000Y-10357142D02*
X4285714Y-10428571D01*
X3928571Y-10428571D01*
X3785714Y-10357142D01*
X3714285Y-10285714D01*
X3642857Y-10142857D01*
X3642857Y-10000000D01*
X3714285Y-9857142D01*
X3785714Y-9785714D01*
X3928571Y-9714285D01*
X4214285Y-9642857D01*
X4357142Y-9571428D01*
X4428571Y-9500000D01*
X4500000Y-9357142D01*
X4500000Y-9214285D01*
X4428571Y-9071428D01*
X4357142Y-9000000D01*
X4214285Y-8928571D01*
X3857142Y-8928571D01*
X3642857Y-9000000D01*
X3000000Y-9642857D02*
X2500000Y-9642857D01*
X2285714Y-10428571D02*
X3000000Y-10428571D01*
X3000000Y-8928571D01*
X2285714Y-8928571D01*
X1857142Y-8928571D02*
X1000000Y-8928571D01*
X1428571Y-10428571D02*
X1428571Y-8928571D01*
X6428571Y-19678571D02*
X6428571Y-18178571D01*
X5857142Y-18178571D01*
X5714285Y-18250000D01*
X5642857Y-18321428D01*
X5571428Y-18464285D01*
X5571428Y-18678571D01*
X5642857Y-18821428D01*
X5714285Y-18892857D01*
X5857142Y-18964285D01*
X6428571Y-18964285D01*
X4071428Y-19678571D02*
X4571428Y-18964285D01*
X4928571Y-19678571D02*
X4928571Y-18178571D01*
X4357142Y-18178571D01*
X4214285Y-18250000D01*
X4142857Y-18321428D01*
X4071428Y-18464285D01*
X4071428Y-18678571D01*
X4142857Y-18821428D01*
X4214285Y-18892857D01*
X4357142Y-18964285D01*
X4928571Y-18964285D01*
X3142857Y-18178571D02*
X2857142Y-18178571D01*
X2714285Y-18250000D01*
X2571428Y-18392857D01*
X2500000Y-18678571D01*
X2500000Y-19178571D01*
X2571428Y-19464285D01*
X2714285Y-19607142D01*
X2857142Y-19678571D01*
X3142857Y-19678571D01*
X3285714Y-19607142D01*
X3428571Y-19464285D01*
X3500000Y-19178571D01*
X3500000Y-18678571D01*
X3428571Y-18392857D01*
X3285714Y-18250000D01*
X3142857Y-18178571D01*
X1071428Y-18250000D02*
X1214285Y-18178571D01*
X1428571Y-18178571D01*
X1642857Y-18250000D01*
X1785714Y-18392857D01*
X1857142Y-18535714D01*
X1928571Y-18821428D01*
X1928571Y-19035714D01*
X1857142Y-19321428D01*
X1785714Y-19464285D01*
X1642857Y-19607142D01*
X1428571Y-19678571D01*
X1285714Y-19678571D01*
X1071428Y-19607142D01*
X1000000Y-19535714D01*
X1000000Y-19035714D01*
X1285714Y-19035714D01*
X3682857Y-67576000D02*
X3825714Y-67504571D01*
X4040000Y-67504571D01*
X4254285Y-67576000D01*
X4397142Y-67718857D01*
X4468571Y-67861714D01*
X4540000Y-68147428D01*
X4540000Y-68361714D01*
X4468571Y-68647428D01*
X4397142Y-68790285D01*
X4254285Y-68933142D01*
X4040000Y-69004571D01*
X3897142Y-69004571D01*
X3682857Y-68933142D01*
X3611428Y-68861714D01*
X3611428Y-68361714D01*
X3897142Y-68361714D01*
X2968571Y-69004571D02*
X2968571Y-67504571D01*
X2111428Y-69004571D01*
X2111428Y-67504571D01*
X1397142Y-69004571D02*
X1397142Y-67504571D01*
X1040000Y-67504571D01*
X825714Y-67576000D01*
X682857Y-67718857D01*
X611428Y-67861714D01*
X540000Y-68147428D01*
X540000Y-68361714D01*
X611428Y-68647428D01*
X682857Y-68790285D01*
X825714Y-68933142D01*
X1040000Y-69004571D01*
X1397142Y-69004571D01*
X4690857Y-60900571D02*
X4190857Y-62400571D01*
X3690857Y-60900571D01*
X3190857Y-62400571D02*
X3190857Y-60900571D01*
X2476571Y-62400571D02*
X2476571Y-60900571D01*
X1619428Y-62400571D01*
X1619428Y-60900571D01*
D10*
%TO.C,VIN1*%
X8683428Y-65492380D02*
X8350095Y-66492380D01*
X8016761Y-65492380D01*
X7683428Y-66492380D02*
X7683428Y-65492380D01*
X7207238Y-66492380D02*
X7207238Y-65492380D01*
X6635809Y-66492380D01*
X6635809Y-65492380D01*
X5635809Y-66492380D02*
X6207238Y-66492380D01*
X5921523Y-66492380D02*
X5921523Y-65492380D01*
X6016761Y-65635238D01*
X6112000Y-65730476D01*
X6207238Y-65778095D01*
%TO.C,VIN4*%
X13763428Y-52538380D02*
X13430095Y-53538380D01*
X13096761Y-52538380D01*
X12763428Y-53538380D02*
X12763428Y-52538380D01*
X12287238Y-53538380D02*
X12287238Y-52538380D01*
X11715809Y-53538380D01*
X11715809Y-52538380D01*
X10811047Y-52871714D02*
X10811047Y-53538380D01*
X11049142Y-52490761D02*
X11287238Y-53205047D01*
X10668190Y-53205047D01*
%TO.C,VIN2*%
X8683428Y-60412380D02*
X8350095Y-61412380D01*
X8016761Y-60412380D01*
X7683428Y-61412380D02*
X7683428Y-60412380D01*
X7207238Y-61412380D02*
X7207238Y-60412380D01*
X6635809Y-61412380D01*
X6635809Y-60412380D01*
X6207238Y-60507619D02*
X6159619Y-60460000D01*
X6064380Y-60412380D01*
X5826285Y-60412380D01*
X5731047Y-60460000D01*
X5683428Y-60507619D01*
X5635809Y-60602857D01*
X5635809Y-60698095D01*
X5683428Y-60840952D01*
X6254857Y-61412380D01*
X5635809Y-61412380D01*
%TO.C,5V03*%
X44830857Y-12660380D02*
X45307047Y-12660380D01*
X45354666Y-13136571D01*
X45307047Y-13088952D01*
X45211809Y-13041333D01*
X44973714Y-13041333D01*
X44878476Y-13088952D01*
X44830857Y-13136571D01*
X44783238Y-13231809D01*
X44783238Y-13469904D01*
X44830857Y-13565142D01*
X44878476Y-13612761D01*
X44973714Y-13660380D01*
X45211809Y-13660380D01*
X45307047Y-13612761D01*
X45354666Y-13565142D01*
X44497523Y-12660380D02*
X44164190Y-13660380D01*
X43830857Y-12660380D01*
X43307047Y-12660380D02*
X43211809Y-12660380D01*
X43116571Y-12708000D01*
X43068952Y-12755619D01*
X43021333Y-12850857D01*
X42973714Y-13041333D01*
X42973714Y-13279428D01*
X43021333Y-13469904D01*
X43068952Y-13565142D01*
X43116571Y-13612761D01*
X43211809Y-13660380D01*
X43307047Y-13660380D01*
X43402285Y-13612761D01*
X43449904Y-13565142D01*
X43497523Y-13469904D01*
X43545142Y-13279428D01*
X43545142Y-13041333D01*
X43497523Y-12850857D01*
X43449904Y-12755619D01*
X43402285Y-12708000D01*
X43307047Y-12660380D01*
X42640380Y-12660380D02*
X42021333Y-12660380D01*
X42354666Y-13041333D01*
X42211809Y-13041333D01*
X42116571Y-13088952D01*
X42068952Y-13136571D01*
X42021333Y-13231809D01*
X42021333Y-13469904D01*
X42068952Y-13565142D01*
X42116571Y-13612761D01*
X42211809Y-13660380D01*
X42497523Y-13660380D01*
X42592761Y-13612761D01*
X42640380Y-13565142D01*
%TO.C,5V04*%
X33146857Y-14692380D02*
X33623047Y-14692380D01*
X33670666Y-15168571D01*
X33623047Y-15120952D01*
X33527809Y-15073333D01*
X33289714Y-15073333D01*
X33194476Y-15120952D01*
X33146857Y-15168571D01*
X33099238Y-15263809D01*
X33099238Y-15501904D01*
X33146857Y-15597142D01*
X33194476Y-15644761D01*
X33289714Y-15692380D01*
X33527809Y-15692380D01*
X33623047Y-15644761D01*
X33670666Y-15597142D01*
X32813523Y-14692380D02*
X32480190Y-15692380D01*
X32146857Y-14692380D01*
X31623047Y-14692380D02*
X31527809Y-14692380D01*
X31432571Y-14740000D01*
X31384952Y-14787619D01*
X31337333Y-14882857D01*
X31289714Y-15073333D01*
X31289714Y-15311428D01*
X31337333Y-15501904D01*
X31384952Y-15597142D01*
X31432571Y-15644761D01*
X31527809Y-15692380D01*
X31623047Y-15692380D01*
X31718285Y-15644761D01*
X31765904Y-15597142D01*
X31813523Y-15501904D01*
X31861142Y-15311428D01*
X31861142Y-15073333D01*
X31813523Y-14882857D01*
X31765904Y-14787619D01*
X31718285Y-14740000D01*
X31623047Y-14692380D01*
X30432571Y-15025714D02*
X30432571Y-15692380D01*
X30670666Y-14644761D02*
X30908761Y-15359047D01*
X30289714Y-15359047D01*
%TO.C,3V34*%
X50736285Y-13422380D02*
X50117238Y-13422380D01*
X50450571Y-13803333D01*
X50307714Y-13803333D01*
X50212476Y-13850952D01*
X50164857Y-13898571D01*
X50117238Y-13993809D01*
X50117238Y-14231904D01*
X50164857Y-14327142D01*
X50212476Y-14374761D01*
X50307714Y-14422380D01*
X50593428Y-14422380D01*
X50688666Y-14374761D01*
X50736285Y-14327142D01*
X49831523Y-13422380D02*
X49498190Y-14422380D01*
X49164857Y-13422380D01*
X48926761Y-13422380D02*
X48307714Y-13422380D01*
X48641047Y-13803333D01*
X48498190Y-13803333D01*
X48402952Y-13850952D01*
X48355333Y-13898571D01*
X48307714Y-13993809D01*
X48307714Y-14231904D01*
X48355333Y-14327142D01*
X48402952Y-14374761D01*
X48498190Y-14422380D01*
X48783904Y-14422380D01*
X48879142Y-14374761D01*
X48926761Y-14327142D01*
X47450571Y-13755714D02*
X47450571Y-14422380D01*
X47688666Y-13374761D02*
X47926761Y-14089047D01*
X47307714Y-14089047D01*
%TO.C,5V02*%
X20700857Y-40092380D02*
X21177047Y-40092380D01*
X21224666Y-40568571D01*
X21177047Y-40520952D01*
X21081809Y-40473333D01*
X20843714Y-40473333D01*
X20748476Y-40520952D01*
X20700857Y-40568571D01*
X20653238Y-40663809D01*
X20653238Y-40901904D01*
X20700857Y-40997142D01*
X20748476Y-41044761D01*
X20843714Y-41092380D01*
X21081809Y-41092380D01*
X21177047Y-41044761D01*
X21224666Y-40997142D01*
X20367523Y-40092380D02*
X20034190Y-41092380D01*
X19700857Y-40092380D01*
X19177047Y-40092380D02*
X19081809Y-40092380D01*
X18986571Y-40140000D01*
X18938952Y-40187619D01*
X18891333Y-40282857D01*
X18843714Y-40473333D01*
X18843714Y-40711428D01*
X18891333Y-40901904D01*
X18938952Y-40997142D01*
X18986571Y-41044761D01*
X19081809Y-41092380D01*
X19177047Y-41092380D01*
X19272285Y-41044761D01*
X19319904Y-40997142D01*
X19367523Y-40901904D01*
X19415142Y-40711428D01*
X19415142Y-40473333D01*
X19367523Y-40282857D01*
X19319904Y-40187619D01*
X19272285Y-40140000D01*
X19177047Y-40092380D01*
X18462761Y-40187619D02*
X18415142Y-40140000D01*
X18319904Y-40092380D01*
X18081809Y-40092380D01*
X17986571Y-40140000D01*
X17938952Y-40187619D01*
X17891333Y-40282857D01*
X17891333Y-40378095D01*
X17938952Y-40520952D01*
X18510380Y-41092380D01*
X17891333Y-41092380D01*
%TO.C,G3*%
X15708285Y-50300000D02*
X15803523Y-50252380D01*
X15946380Y-50252380D01*
X16089238Y-50300000D01*
X16184476Y-50395238D01*
X16232095Y-50490476D01*
X16279714Y-50680952D01*
X16279714Y-50823809D01*
X16232095Y-51014285D01*
X16184476Y-51109523D01*
X16089238Y-51204761D01*
X15946380Y-51252380D01*
X15851142Y-51252380D01*
X15708285Y-51204761D01*
X15660666Y-51157142D01*
X15660666Y-50823809D01*
X15851142Y-50823809D01*
X15327333Y-50252380D02*
X14708285Y-50252380D01*
X15041619Y-50633333D01*
X14898761Y-50633333D01*
X14803523Y-50680952D01*
X14755904Y-50728571D01*
X14708285Y-50823809D01*
X14708285Y-51061904D01*
X14755904Y-51157142D01*
X14803523Y-51204761D01*
X14898761Y-51252380D01*
X15184476Y-51252380D01*
X15279714Y-51204761D01*
X15327333Y-51157142D01*
%TO.C,G5*%
X20534285Y-35060000D02*
X20629523Y-35012380D01*
X20772380Y-35012380D01*
X20915238Y-35060000D01*
X21010476Y-35155238D01*
X21058095Y-35250476D01*
X21105714Y-35440952D01*
X21105714Y-35583809D01*
X21058095Y-35774285D01*
X21010476Y-35869523D01*
X20915238Y-35964761D01*
X20772380Y-36012380D01*
X20677142Y-36012380D01*
X20534285Y-35964761D01*
X20486666Y-35917142D01*
X20486666Y-35583809D01*
X20677142Y-35583809D01*
X19581904Y-35012380D02*
X20058095Y-35012380D01*
X20105714Y-35488571D01*
X20058095Y-35440952D01*
X19962857Y-35393333D01*
X19724761Y-35393333D01*
X19629523Y-35440952D01*
X19581904Y-35488571D01*
X19534285Y-35583809D01*
X19534285Y-35821904D01*
X19581904Y-35917142D01*
X19629523Y-35964761D01*
X19724761Y-36012380D01*
X19962857Y-36012380D01*
X20058095Y-35964761D01*
X20105714Y-35917142D01*
%TO.C,G4*%
X20534285Y-42680000D02*
X20629523Y-42632380D01*
X20772380Y-42632380D01*
X20915238Y-42680000D01*
X21010476Y-42775238D01*
X21058095Y-42870476D01*
X21105714Y-43060952D01*
X21105714Y-43203809D01*
X21058095Y-43394285D01*
X21010476Y-43489523D01*
X20915238Y-43584761D01*
X20772380Y-43632380D01*
X20677142Y-43632380D01*
X20534285Y-43584761D01*
X20486666Y-43537142D01*
X20486666Y-43203809D01*
X20677142Y-43203809D01*
X19629523Y-42965714D02*
X19629523Y-43632380D01*
X19867619Y-42584761D02*
X20105714Y-43299047D01*
X19486666Y-43299047D01*
%TO.C,VIN3*%
X11223428Y-55332380D02*
X10890095Y-56332380D01*
X10556761Y-55332380D01*
X10223428Y-56332380D02*
X10223428Y-55332380D01*
X9747238Y-56332380D02*
X9747238Y-55332380D01*
X9175809Y-56332380D01*
X9175809Y-55332380D01*
X8794857Y-55332380D02*
X8175809Y-55332380D01*
X8509142Y-55713333D01*
X8366285Y-55713333D01*
X8271047Y-55760952D01*
X8223428Y-55808571D01*
X8175809Y-55903809D01*
X8175809Y-56141904D01*
X8223428Y-56237142D01*
X8271047Y-56284761D01*
X8366285Y-56332380D01*
X8652000Y-56332380D01*
X8747238Y-56284761D01*
X8794857Y-56237142D01*
%TO.C,G1*%
X7326285Y-63000000D02*
X7421523Y-62952380D01*
X7564380Y-62952380D01*
X7707238Y-63000000D01*
X7802476Y-63095238D01*
X7850095Y-63190476D01*
X7897714Y-63380952D01*
X7897714Y-63523809D01*
X7850095Y-63714285D01*
X7802476Y-63809523D01*
X7707238Y-63904761D01*
X7564380Y-63952380D01*
X7469142Y-63952380D01*
X7326285Y-63904761D01*
X7278666Y-63857142D01*
X7278666Y-63523809D01*
X7469142Y-63523809D01*
X6326285Y-63952380D02*
X6897714Y-63952380D01*
X6612000Y-63952380D02*
X6612000Y-62952380D01*
X6707238Y-63095238D01*
X6802476Y-63190476D01*
X6897714Y-63238095D01*
%TO.C,3V32*%
X21272285Y-37552380D02*
X20653238Y-37552380D01*
X20986571Y-37933333D01*
X20843714Y-37933333D01*
X20748476Y-37980952D01*
X20700857Y-38028571D01*
X20653238Y-38123809D01*
X20653238Y-38361904D01*
X20700857Y-38457142D01*
X20748476Y-38504761D01*
X20843714Y-38552380D01*
X21129428Y-38552380D01*
X21224666Y-38504761D01*
X21272285Y-38457142D01*
X20367523Y-37552380D02*
X20034190Y-38552380D01*
X19700857Y-37552380D01*
X19462761Y-37552380D02*
X18843714Y-37552380D01*
X19177047Y-37933333D01*
X19034190Y-37933333D01*
X18938952Y-37980952D01*
X18891333Y-38028571D01*
X18843714Y-38123809D01*
X18843714Y-38361904D01*
X18891333Y-38457142D01*
X18938952Y-38504761D01*
X19034190Y-38552380D01*
X19319904Y-38552380D01*
X19415142Y-38504761D01*
X19462761Y-38457142D01*
X18462761Y-37647619D02*
X18415142Y-37600000D01*
X18319904Y-37552380D01*
X18081809Y-37552380D01*
X17986571Y-37600000D01*
X17938952Y-37647619D01*
X17891333Y-37742857D01*
X17891333Y-37838095D01*
X17938952Y-37980952D01*
X18510380Y-38552380D01*
X17891333Y-38552380D01*
%TO.C,G6*%
X40600285Y-12708000D02*
X40695523Y-12660380D01*
X40838380Y-12660380D01*
X40981238Y-12708000D01*
X41076476Y-12803238D01*
X41124095Y-12898476D01*
X41171714Y-13088952D01*
X41171714Y-13231809D01*
X41124095Y-13422285D01*
X41076476Y-13517523D01*
X40981238Y-13612761D01*
X40838380Y-13660380D01*
X40743142Y-13660380D01*
X40600285Y-13612761D01*
X40552666Y-13565142D01*
X40552666Y-13231809D01*
X40743142Y-13231809D01*
X39695523Y-12660380D02*
X39886000Y-12660380D01*
X39981238Y-12708000D01*
X40028857Y-12755619D01*
X40124095Y-12898476D01*
X40171714Y-13088952D01*
X40171714Y-13469904D01*
X40124095Y-13565142D01*
X40076476Y-13612761D01*
X39981238Y-13660380D01*
X39790761Y-13660380D01*
X39695523Y-13612761D01*
X39647904Y-13565142D01*
X39600285Y-13469904D01*
X39600285Y-13231809D01*
X39647904Y-13136571D01*
X39695523Y-13088952D01*
X39790761Y-13041333D01*
X39981238Y-13041333D01*
X40076476Y-13088952D01*
X40124095Y-13136571D01*
X40171714Y-13231809D01*
%TO.C,G2*%
X7834285Y-57920000D02*
X7929523Y-57872380D01*
X8072380Y-57872380D01*
X8215238Y-57920000D01*
X8310476Y-58015238D01*
X8358095Y-58110476D01*
X8405714Y-58300952D01*
X8405714Y-58443809D01*
X8358095Y-58634285D01*
X8310476Y-58729523D01*
X8215238Y-58824761D01*
X8072380Y-58872380D01*
X7977142Y-58872380D01*
X7834285Y-58824761D01*
X7786666Y-58777142D01*
X7786666Y-58443809D01*
X7977142Y-58443809D01*
X7405714Y-57967619D02*
X7358095Y-57920000D01*
X7262857Y-57872380D01*
X7024761Y-57872380D01*
X6929523Y-57920000D01*
X6881904Y-57967619D01*
X6834285Y-58062857D01*
X6834285Y-58158095D01*
X6881904Y-58300952D01*
X7453333Y-58872380D01*
X6834285Y-58872380D01*
%TO.C,3V31*%
X21272285Y-45172380D02*
X20653238Y-45172380D01*
X20986571Y-45553333D01*
X20843714Y-45553333D01*
X20748476Y-45600952D01*
X20700857Y-45648571D01*
X20653238Y-45743809D01*
X20653238Y-45981904D01*
X20700857Y-46077142D01*
X20748476Y-46124761D01*
X20843714Y-46172380D01*
X21129428Y-46172380D01*
X21224666Y-46124761D01*
X21272285Y-46077142D01*
X20367523Y-45172380D02*
X20034190Y-46172380D01*
X19700857Y-45172380D01*
X19462761Y-45172380D02*
X18843714Y-45172380D01*
X19177047Y-45553333D01*
X19034190Y-45553333D01*
X18938952Y-45600952D01*
X18891333Y-45648571D01*
X18843714Y-45743809D01*
X18843714Y-45981904D01*
X18891333Y-46077142D01*
X18938952Y-46124761D01*
X19034190Y-46172380D01*
X19319904Y-46172380D01*
X19415142Y-46124761D01*
X19462761Y-46077142D01*
X17891333Y-46172380D02*
X18462761Y-46172380D01*
X18177047Y-46172380D02*
X18177047Y-45172380D01*
X18272285Y-45315238D01*
X18367523Y-45410476D01*
X18462761Y-45458095D01*
%TO.C,3V33*%
X38798285Y-12660380D02*
X38179238Y-12660380D01*
X38512571Y-13041333D01*
X38369714Y-13041333D01*
X38274476Y-13088952D01*
X38226857Y-13136571D01*
X38179238Y-13231809D01*
X38179238Y-13469904D01*
X38226857Y-13565142D01*
X38274476Y-13612761D01*
X38369714Y-13660380D01*
X38655428Y-13660380D01*
X38750666Y-13612761D01*
X38798285Y-13565142D01*
X37893523Y-12660380D02*
X37560190Y-13660380D01*
X37226857Y-12660380D01*
X36988761Y-12660380D02*
X36369714Y-12660380D01*
X36703047Y-13041333D01*
X36560190Y-13041333D01*
X36464952Y-13088952D01*
X36417333Y-13136571D01*
X36369714Y-13231809D01*
X36369714Y-13469904D01*
X36417333Y-13565142D01*
X36464952Y-13612761D01*
X36560190Y-13660380D01*
X36845904Y-13660380D01*
X36941142Y-13612761D01*
X36988761Y-13565142D01*
X36036380Y-12660380D02*
X35417333Y-12660380D01*
X35750666Y-13041333D01*
X35607809Y-13041333D01*
X35512571Y-13088952D01*
X35464952Y-13136571D01*
X35417333Y-13231809D01*
X35417333Y-13469904D01*
X35464952Y-13565142D01*
X35512571Y-13612761D01*
X35607809Y-13660380D01*
X35893523Y-13660380D01*
X35988761Y-13612761D01*
X36036380Y-13565142D01*
%TO.C,5V01*%
X20700857Y-47712380D02*
X21177047Y-47712380D01*
X21224666Y-48188571D01*
X21177047Y-48140952D01*
X21081809Y-48093333D01*
X20843714Y-48093333D01*
X20748476Y-48140952D01*
X20700857Y-48188571D01*
X20653238Y-48283809D01*
X20653238Y-48521904D01*
X20700857Y-48617142D01*
X20748476Y-48664761D01*
X20843714Y-48712380D01*
X21081809Y-48712380D01*
X21177047Y-48664761D01*
X21224666Y-48617142D01*
X20367523Y-47712380D02*
X20034190Y-48712380D01*
X19700857Y-47712380D01*
X19177047Y-47712380D02*
X19081809Y-47712380D01*
X18986571Y-47760000D01*
X18938952Y-47807619D01*
X18891333Y-47902857D01*
X18843714Y-48093333D01*
X18843714Y-48331428D01*
X18891333Y-48521904D01*
X18938952Y-48617142D01*
X18986571Y-48664761D01*
X19081809Y-48712380D01*
X19177047Y-48712380D01*
X19272285Y-48664761D01*
X19319904Y-48617142D01*
X19367523Y-48521904D01*
X19415142Y-48331428D01*
X19415142Y-48093333D01*
X19367523Y-47902857D01*
X19319904Y-47807619D01*
X19272285Y-47760000D01*
X19177047Y-47712380D01*
X17891333Y-48712380D02*
X18462761Y-48712380D01*
X18177047Y-48712380D02*
X18177047Y-47712380D01*
X18272285Y-47855238D01*
X18367523Y-47950476D01*
X18462761Y-47998095D01*
%TD*%
%LPC*%
D12*
%TO.C,H4*%
X55674175Y-73325825D03*
X55125000Y-72000000D03*
X55674175Y-70674175D03*
D13*
X57000000Y-72000000D03*
D12*
X58875000Y-72000000D03*
X58325825Y-73325825D03*
X58325825Y-70674175D03*
X57000000Y-70125000D03*
X57000000Y-73875000D03*
%TD*%
%TO.C,H3*%
X57000000Y-1125000D03*
X55674175Y-4325825D03*
D13*
X57000000Y-3000000D03*
D12*
X58325825Y-4325825D03*
X57000000Y-4875000D03*
X55674175Y-1674175D03*
X55125000Y-3000000D03*
X58325825Y-1674175D03*
X58875000Y-3000000D03*
%TD*%
D14*
%TO.C,C1*%
X5080000Y-57150000D03*
D15*
X2580000Y-57150000D03*
%TD*%
D12*
%TO.C,H2*%
X3000000Y-70125000D03*
D13*
X3000000Y-72000000D03*
D12*
X3000000Y-73875000D03*
X4875000Y-72000000D03*
X4325825Y-70674175D03*
X1125000Y-72000000D03*
X1674175Y-73325825D03*
X4325825Y-73325825D03*
X1674175Y-70674175D03*
%TD*%
%TO.C,H1*%
X4325825Y-4325825D03*
X3000000Y-1125000D03*
X4325825Y-1674175D03*
X1674175Y-1674175D03*
D13*
X3000000Y-3000000D03*
D12*
X4875000Y-3000000D03*
X1674175Y-4325825D03*
X1125000Y-3000000D03*
X3000000Y-4875000D03*
%TD*%
D16*
%TO.C,TP1*%
X48895000Y-5715000D03*
%TD*%
%TO.C,TP2*%
X46355000Y-5715000D03*
%TD*%
%TO.C,TP3*%
X41275000Y-5715000D03*
%TD*%
%TO.C,TP4*%
X38735000Y-5715000D03*
%TD*%
D17*
%TO.C,J1*%
X5268000Y-67854000D03*
D18*
X3268000Y-66254000D03*
D19*
X3268000Y-63754000D03*
%TD*%
D17*
%TO.C,J8*%
X57990000Y-21205000D03*
D20*
X55990000Y-19605000D03*
D21*
X55990000Y-17105000D03*
X55990000Y-14605000D03*
X55990000Y-12105000D03*
X55990000Y-9605000D03*
%TD*%
D22*
%TO.C,REF\u002A\u002A*%
X55880000Y-35560000D03*
%TD*%
%TO.C,REF\u002A\u002A*%
X38067310Y-40640000D03*
%TD*%
%TO.C,REF\u002A\u002A*%
X48260000Y-73660000D03*
%TD*%
%TO.C,REF\u002A\u002A*%
X30480000Y-66040000D03*
%TD*%
%TO.C,REF\u002A\u002A*%
X30480000Y-48260000D03*
%TD*%
%TO.C,REF\u002A\u002A*%
X15240000Y-73660000D03*
%TD*%
%TO.C,REF\u002A\u002A*%
X38100000Y-45720000D03*
%TD*%
%TO.C,REF\u002A\u002A*%
X27940000Y-73660000D03*
%TD*%
%TO.C,REF\u002A\u002A*%
X33020000Y-50800000D03*
%TD*%
%TO.C,REF\u002A\u002A*%
X45720000Y-50800000D03*
%TD*%
%TO.C,REF\u002A\u002A*%
X40640000Y-48260000D03*
%TD*%
%TO.C,REF\u002A\u002A*%
X27940000Y-71120000D03*
%TD*%
%TO.C,REF\u002A\u002A*%
X50800000Y-35560000D03*
%TD*%
%TO.C,REF\u002A\u002A*%
X22860000Y-50800000D03*
%TD*%
%TO.C,REF\u002A\u002A*%
X38100000Y-68612690D03*
%TD*%
%TO.C,REF\u002A\u002A*%
X33020000Y-38100000D03*
%TD*%
%TO.C,REF\u002A\u002A*%
X15240000Y-55880000D03*
%TD*%
%TO.C,REF\u002A\u002A*%
X25400000Y-68612690D03*
%TD*%
%TO.C,REF\u002A\u002A*%
X55880000Y-68580000D03*
%TD*%
%TO.C,REF\u002A\u002A*%
X15240000Y-68612690D03*
%TD*%
D23*
%TO.C,IO21*%
X42545000Y-10795000D03*
%TD*%
D22*
%TO.C,REF\u002A\u002A*%
X20320000Y-73660000D03*
%TD*%
%TO.C,REF\u002A\u002A*%
X55880000Y-58420000D03*
%TD*%
D23*
%TO.C,IO17*%
X31750000Y-22860000D03*
%TD*%
D22*
%TO.C,REF\u002A\u002A*%
X20320000Y-71120000D03*
%TD*%
%TO.C,REF\u002A\u002A*%
X55847310Y-40640000D03*
%TD*%
%TO.C,REF\u002A\u002A*%
X30447310Y-43159141D03*
%TD*%
%TO.C,REF\u002A\u002A*%
X53307310Y-40640000D03*
%TD*%
%TO.C,REF\u002A\u002A*%
X35560000Y-33020000D03*
%TD*%
%TO.C,REF\u002A\u002A*%
X43180000Y-22860000D03*
%TD*%
%TO.C,REF\u002A\u002A*%
X43180000Y-35560000D03*
%TD*%
%TO.C,REF\u002A\u002A*%
X22860000Y-60960000D03*
%TD*%
%TO.C,REF\u002A\u002A*%
X58420000Y-38100000D03*
%TD*%
%TO.C,REF\u002A\u002A*%
X58420000Y-63500000D03*
%TD*%
%TO.C,REF\u002A\u002A*%
X32987310Y-40640000D03*
%TD*%
%TO.C,REF\u002A\u002A*%
X55880000Y-33020000D03*
%TD*%
D23*
%TO.C,IO14*%
X15875000Y-30480000D03*
%TD*%
D22*
%TO.C,REF\u002A\u002A*%
X40640000Y-22860000D03*
%TD*%
%TO.C,REF\u002A\u002A*%
X30480000Y-60960000D03*
%TD*%
%TO.C,REF\u002A\u002A*%
X27940000Y-45720000D03*
%TD*%
%TO.C,REF\u002A\u002A*%
X45720000Y-33020000D03*
%TD*%
%TO.C,REF\u002A\u002A*%
X27940000Y-38100000D03*
%TD*%
%TO.C,REF\u002A\u002A*%
X50800000Y-45720000D03*
%TD*%
%TO.C,REF\u002A\u002A*%
X22860000Y-68612690D03*
%TD*%
%TO.C,REF\u002A\u002A*%
X40640000Y-68612690D03*
%TD*%
%TO.C,REF\u002A\u002A*%
X48260000Y-20320000D03*
%TD*%
%TO.C,REF\u002A\u002A*%
X33020000Y-55880000D03*
%TD*%
%TO.C,REF\u002A\u002A*%
X20320000Y-53340000D03*
%TD*%
%TO.C,REF\u002A\u002A*%
X35560000Y-25400000D03*
%TD*%
%TO.C,REF\u002A\u002A*%
X35560000Y-48260000D03*
%TD*%
%TO.C,REF\u002A\u002A*%
X40640000Y-25400000D03*
%TD*%
%TO.C,REF\u002A\u002A*%
X53340000Y-71120000D03*
%TD*%
%TO.C,REF\u002A\u002A*%
X17780000Y-63500000D03*
%TD*%
%TO.C,REF\u002A\u002A*%
X7620000Y-71120000D03*
%TD*%
%TO.C,REF\u002A\u002A*%
X48260000Y-53340000D03*
%TD*%
%TO.C,REF\u002A\u002A*%
X35560000Y-63500000D03*
%TD*%
%TO.C,REF\u002A\u002A*%
X38100000Y-38100000D03*
%TD*%
%TO.C,REF\u002A\u002A*%
X35560000Y-73660000D03*
%TD*%
%TO.C,REF\u002A\u002A*%
X33020000Y-60960000D03*
%TD*%
%TO.C,REF\u002A\u002A*%
X35560000Y-17780000D03*
%TD*%
%TO.C,REF\u002A\u002A*%
X12700000Y-58420000D03*
%TD*%
%TO.C,REF\u002A\u002A*%
X20320000Y-58420000D03*
%TD*%
%TO.C,REF\u002A\u002A*%
X53340000Y-50800000D03*
%TD*%
%TO.C,REF\u002A\u002A*%
X27940000Y-68612690D03*
%TD*%
%TO.C,REF\u002A\u002A*%
X50800000Y-58420000D03*
%TD*%
%TO.C,REF\u002A\u002A*%
X58387310Y-53340000D03*
%TD*%
%TO.C,REF\u002A\u002A*%
X40640000Y-66040000D03*
%TD*%
%TO.C,REF\u002A\u002A*%
X38100000Y-66040000D03*
%TD*%
%TO.C,REF\u002A\u002A*%
X25400000Y-35560000D03*
%TD*%
%TO.C,REF\u002A\u002A*%
X35560000Y-45720000D03*
%TD*%
%TO.C,REF\u002A\u002A*%
X58420000Y-33020000D03*
%TD*%
%TO.C,REF\u002A\u002A*%
X25400000Y-63500000D03*
%TD*%
%TO.C,REF\u002A\u002A*%
X43180000Y-73660000D03*
%TD*%
D23*
%TO.C,VIN1*%
X10160000Y-66040000D03*
%TD*%
D22*
%TO.C,REF\u002A\u002A*%
X30480000Y-55880000D03*
%TD*%
%TO.C,REF\u002A\u002A*%
X40640000Y-30480000D03*
%TD*%
%TO.C,REF\u002A\u002A*%
X40640000Y-20320000D03*
%TD*%
%TO.C,REF\u002A\u002A*%
X40640000Y-58420000D03*
%TD*%
%TO.C,REF\u002A\u002A*%
X43180000Y-30480000D03*
%TD*%
%TO.C,REF\u002A\u002A*%
X58387310Y-60960000D03*
%TD*%
%TO.C,REF\u002A\u002A*%
X43180000Y-53340000D03*
%TD*%
%TO.C,REF\u002A\u002A*%
X17780000Y-58420000D03*
%TD*%
%TO.C,REF\u002A\u002A*%
X45720000Y-22860000D03*
%TD*%
%TO.C,REF\u002A\u002A*%
X17780000Y-53340000D03*
%TD*%
%TO.C,REF\u002A\u002A*%
X22860000Y-58420000D03*
%TD*%
%TO.C,REF\u002A\u002A*%
X15240000Y-58420000D03*
%TD*%
%TO.C,REF\u002A\u002A*%
X48260000Y-48260000D03*
%TD*%
%TO.C,REF\u002A\u002A*%
X40607310Y-43159141D03*
%TD*%
%TO.C,REF\u002A\u002A*%
X38100000Y-22860000D03*
%TD*%
%TO.C,REF\u002A\u002A*%
X40640000Y-71120000D03*
%TD*%
%TO.C,REF\u002A\u002A*%
X58387310Y-43159141D03*
%TD*%
%TO.C,REF\u002A\u002A*%
X58387310Y-50800000D03*
%TD*%
%TO.C,REF\u002A\u002A*%
X43180000Y-48260000D03*
%TD*%
%TO.C,REF\u002A\u002A*%
X33020000Y-58420000D03*
%TD*%
%TO.C,REF\u002A\u002A*%
X43180000Y-60960000D03*
%TD*%
%TO.C,REF\u002A\u002A*%
X33020000Y-53340000D03*
%TD*%
%TO.C,REF\u002A\u002A*%
X30480000Y-38100000D03*
%TD*%
%TO.C,REF\u002A\u002A*%
X35527310Y-40640000D03*
%TD*%
%TO.C,REF\u002A\u002A*%
X40640000Y-27940000D03*
%TD*%
D23*
%TO.C,VIN4*%
X15240000Y-52998250D03*
%TD*%
D22*
%TO.C,REF\u002A\u002A*%
X38100000Y-17780000D03*
%TD*%
%TO.C,REF\u002A\u002A*%
X22860000Y-55880000D03*
%TD*%
D23*
%TO.C,VIN2*%
X10160000Y-60960000D03*
%TD*%
D22*
%TO.C,REF\u002A\u002A*%
X50800000Y-71120000D03*
%TD*%
%TO.C,REF\u002A\u002A*%
X45720000Y-48260000D03*
%TD*%
%TO.C,REF\u002A\u002A*%
X27907310Y-40640000D03*
%TD*%
%TO.C,REF\u002A\u002A*%
X48260000Y-22860000D03*
%TD*%
%TO.C,REF\u002A\u002A*%
X53340000Y-55880000D03*
%TD*%
%TO.C,REF\u002A\u002A*%
X38100000Y-63500000D03*
%TD*%
%TO.C,REF\u002A\u002A*%
X48260000Y-68612690D03*
%TD*%
%TO.C,REF\u002A\u002A*%
X40640000Y-73660000D03*
%TD*%
%TO.C,REF\u002A\u002A*%
X15240000Y-60960000D03*
%TD*%
D23*
%TO.C,IO18*%
X31750000Y-17780000D03*
%TD*%
D22*
%TO.C,REF\u002A\u002A*%
X27940000Y-58420000D03*
%TD*%
%TO.C,REF\u002A\u002A*%
X22860000Y-53340000D03*
%TD*%
%TO.C,REF\u002A\u002A*%
X53340000Y-68580000D03*
%TD*%
%TO.C,REF\u002A\u002A*%
X25400000Y-66040000D03*
%TD*%
D23*
%TO.C,IO16*%
X31750000Y-25400000D03*
%TD*%
D22*
%TO.C,REF\u002A\u002A*%
X35560000Y-35560000D03*
%TD*%
D23*
%TO.C,IO22*%
X45085000Y-10795000D03*
%TD*%
D22*
%TO.C,REF\u002A\u002A*%
X40640000Y-53340000D03*
%TD*%
%TO.C,REF\u002A\u002A*%
X33020000Y-63500000D03*
%TD*%
%TO.C,REF\u002A\u002A*%
X53340000Y-73660000D03*
%TD*%
D23*
%TO.C,5V03*%
X43180000Y-15240000D03*
%TD*%
D22*
%TO.C,REF\u002A\u002A*%
X53340000Y-27940000D03*
%TD*%
%TO.C,REF\u002A\u002A*%
X50800000Y-66040000D03*
%TD*%
%TO.C,REF\u002A\u002A*%
X58387310Y-45720000D03*
%TD*%
%TO.C,REF\u002A\u002A*%
X43180000Y-68612690D03*
%TD*%
D23*
%TO.C,IO5*%
X31750000Y-20320000D03*
%TD*%
D22*
%TO.C,REF\u002A\u002A*%
X45720000Y-53340000D03*
%TD*%
%TO.C,REF\u002A\u002A*%
X10160000Y-68612690D03*
%TD*%
%TO.C,REF\u002A\u002A*%
X53340000Y-48260000D03*
%TD*%
D23*
%TO.C,IO27*%
X15875000Y-33020000D03*
%TD*%
D22*
%TO.C,REF\u002A\u002A*%
X55880000Y-55880000D03*
%TD*%
%TO.C,REF\u002A\u002A*%
X40640000Y-35560000D03*
%TD*%
%TO.C,REF\u002A\u002A*%
X27940000Y-63500000D03*
%TD*%
%TO.C,REF\u002A\u002A*%
X38100000Y-25400000D03*
%TD*%
%TO.C,REF\u002A\u002A*%
X50800000Y-22860000D03*
%TD*%
%TO.C,REF\u002A\u002A*%
X30447310Y-40640000D03*
%TD*%
%TO.C,REF\u002A\u002A*%
X55880000Y-43159141D03*
%TD*%
D23*
%TO.C,5V04*%
X35560000Y-15240000D03*
%TD*%
D22*
%TO.C,REF\u002A\u002A*%
X55880000Y-60960000D03*
%TD*%
D23*
%TO.C,IO33*%
X21590000Y-22860000D03*
%TD*%
%TO.C,3V34*%
X45720000Y-15240000D03*
%TD*%
D22*
%TO.C,REF\u002A\u002A*%
X48260000Y-38100000D03*
%TD*%
%TO.C,REF\u002A\u002A*%
X38100000Y-48260000D03*
%TD*%
%TO.C,REF\u002A\u002A*%
X38100000Y-55880000D03*
%TD*%
%TO.C,REF\u002A\u002A*%
X58420000Y-25400000D03*
%TD*%
%TO.C,REF\u002A\u002A*%
X43180000Y-27940000D03*
%TD*%
%TO.C,REF\u002A\u002A*%
X30480000Y-50800000D03*
%TD*%
%TO.C,REF\u002A\u002A*%
X35560000Y-58420000D03*
%TD*%
%TO.C,REF\u002A\u002A*%
X50767310Y-43159141D03*
%TD*%
%TO.C,REF\u002A\u002A*%
X40640000Y-55880000D03*
%TD*%
%TO.C,REF\u002A\u002A*%
X22860000Y-73660000D03*
%TD*%
%TO.C,REF\u002A\u002A*%
X25400000Y-60960000D03*
%TD*%
%TO.C,REF\u002A\u002A*%
X12700000Y-66040000D03*
%TD*%
%TO.C,REF\u002A\u002A*%
X35527310Y-43159141D03*
%TD*%
%TO.C,REF\u002A\u002A*%
X40640000Y-33020000D03*
%TD*%
D23*
%TO.C,IO32*%
X15875000Y-27940000D03*
%TD*%
D22*
%TO.C,REF\u002A\u002A*%
X50800000Y-17780000D03*
%TD*%
%TO.C,REF\u002A\u002A*%
X33020000Y-45720000D03*
%TD*%
%TO.C,REF\u002A\u002A*%
X25400000Y-45720000D03*
%TD*%
%TO.C,REF\u002A\u002A*%
X40640000Y-38100000D03*
%TD*%
%TO.C,REF\u002A\u002A*%
X53340000Y-30480000D03*
%TD*%
%TO.C,REF\u002A\u002A*%
X30480000Y-45720000D03*
%TD*%
%TO.C,REF\u002A\u002A*%
X50800000Y-27940000D03*
%TD*%
%TO.C,REF\u002A\u002A*%
X45720000Y-30480000D03*
%TD*%
%TO.C,REF\u002A\u002A*%
X48260000Y-30480000D03*
%TD*%
%TO.C,REF\u002A\u002A*%
X35560000Y-60960000D03*
%TD*%
%TO.C,REF\u002A\u002A*%
X40607310Y-40640000D03*
%TD*%
%TO.C,REF\u002A\u002A*%
X35560000Y-68612690D03*
%TD*%
%TO.C,REF\u002A\u002A*%
X35560000Y-22860000D03*
%TD*%
%TO.C,REF\u002A\u002A*%
X35560000Y-66040000D03*
%TD*%
%TO.C,REF\u002A\u002A*%
X43180000Y-38100000D03*
%TD*%
D24*
%TO.C,J2*%
X38760000Y-3175000D03*
D25*
X41300000Y-3175000D03*
X43840000Y-3175000D03*
X46380000Y-3175000D03*
X48920000Y-3175000D03*
X51460000Y-3175000D03*
%TD*%
D22*
%TO.C,REF\u002A\u002A*%
X53340000Y-33020000D03*
%TD*%
%TO.C,REF\u002A\u002A*%
X55880000Y-38100000D03*
%TD*%
%TO.C,REF\u002A\u002A*%
X45720000Y-17780000D03*
%TD*%
D23*
%TO.C,IO12*%
X15875000Y-25400000D03*
%TD*%
D22*
%TO.C,REF\u002A\u002A*%
X45720000Y-71120000D03*
%TD*%
%TO.C,REF\u002A\u002A*%
X45720000Y-20320000D03*
%TD*%
%TO.C,REF\u002A\u002A*%
X50800000Y-38100000D03*
%TD*%
%TO.C,REF\u002A\u002A*%
X53340000Y-45720000D03*
%TD*%
%TO.C,REF\u002A\u002A*%
X35560000Y-20320000D03*
%TD*%
%TO.C,REF\u002A\u002A*%
X17780000Y-55880000D03*
%TD*%
%TO.C,REF\u002A\u002A*%
X33020000Y-68612690D03*
%TD*%
%TO.C,REF\u002A\u002A*%
X12700000Y-71120000D03*
%TD*%
%TO.C,REF\u002A\u002A*%
X43180000Y-17780000D03*
%TD*%
%TO.C,REF\u002A\u002A*%
X38100000Y-33020000D03*
%TD*%
%TO.C,REF\u002A\u002A*%
X38100000Y-73660000D03*
%TD*%
D23*
%TO.C,5V02*%
X22860000Y-40640000D03*
%TD*%
D22*
%TO.C,REF\u002A\u002A*%
X48260000Y-25400000D03*
%TD*%
%TO.C,REF\u002A\u002A*%
X50800000Y-55880000D03*
%TD*%
%TO.C,REF\u002A\u002A*%
X25400000Y-55880000D03*
%TD*%
%TO.C,REF\u002A\u002A*%
X17780000Y-71120000D03*
%TD*%
%TO.C,REF\u002A\u002A*%
X50800000Y-73660000D03*
%TD*%
%TO.C,REF\u002A\u002A*%
X38100000Y-71120000D03*
%TD*%
%TO.C,REF\u002A\u002A*%
X50800000Y-33020000D03*
%TD*%
%TO.C,REF\u002A\u002A*%
X45720000Y-25400000D03*
%TD*%
%TO.C,REF\u002A\u002A*%
X32987310Y-43159141D03*
%TD*%
%TO.C,REF\u002A\u002A*%
X22860000Y-66040000D03*
%TD*%
%TO.C,REF\u002A\u002A*%
X50800000Y-48260000D03*
%TD*%
%TO.C,REF\u002A\u002A*%
X17780000Y-73660000D03*
%TD*%
%TO.C,REF\u002A\u002A*%
X25400000Y-53340000D03*
%TD*%
%TO.C,REF\u002A\u002A*%
X45720000Y-68612690D03*
%TD*%
D23*
%TO.C,IO34*%
X21590000Y-33020000D03*
%TD*%
D22*
%TO.C,REF\u002A\u002A*%
X45720000Y-73660000D03*
%TD*%
%TO.C,REF\u002A\u002A*%
X53340000Y-35560000D03*
%TD*%
%TO.C,REF\u002A\u002A*%
X30480000Y-73660000D03*
%TD*%
%TO.C,REF\u002A\u002A*%
X53307310Y-43159141D03*
%TD*%
%TO.C,REF\u002A\u002A*%
X27940000Y-60960000D03*
%TD*%
%TO.C,REF\u002A\u002A*%
X33020000Y-33020000D03*
%TD*%
D23*
%TO.C,IO3*%
X40005000Y-10795000D03*
%TD*%
D22*
%TO.C,REF\u002A\u002A*%
X15240000Y-63500000D03*
%TD*%
%TO.C,REF\u002A\u002A*%
X35560000Y-53340000D03*
%TD*%
%TO.C,REF\u002A\u002A*%
X25400000Y-58420000D03*
%TD*%
%TO.C,REF\u002A\u002A*%
X43180000Y-45720000D03*
%TD*%
%TO.C,REF\u002A\u002A*%
X43180000Y-63500000D03*
%TD*%
%TO.C,REF\u002A\u002A*%
X10160000Y-71120000D03*
%TD*%
%TO.C,REF\u002A\u002A*%
X30480000Y-30480000D03*
%TD*%
%TO.C,REF\u002A\u002A*%
X50800000Y-30480000D03*
%TD*%
%TO.C,REF\u002A\u002A*%
X58420000Y-27940000D03*
%TD*%
%TO.C,REF\u002A\u002A*%
X43180000Y-71120000D03*
%TD*%
%TO.C,REF\u002A\u002A*%
X33020000Y-66040000D03*
%TD*%
%TO.C,REF\u002A\u002A*%
X40640000Y-60960000D03*
%TD*%
D23*
%TO.C,G3*%
X17780000Y-50800000D03*
%TD*%
D22*
%TO.C,REF\u002A\u002A*%
X25400000Y-33020000D03*
%TD*%
%TO.C,REF\u002A\u002A*%
X53340000Y-53340000D03*
%TD*%
%TO.C,REF\u002A\u002A*%
X22860000Y-71120000D03*
%TD*%
%TO.C,REF\u002A\u002A*%
X38100000Y-53340000D03*
%TD*%
%TO.C,REF\u002A\u002A*%
X27940000Y-66040000D03*
%TD*%
%TO.C,REF\u002A\u002A*%
X55880000Y-63500000D03*
%TD*%
%TO.C,REF\u002A\u002A*%
X12700000Y-73660000D03*
%TD*%
%TO.C,REF\u002A\u002A*%
X35560000Y-27940000D03*
%TD*%
%TO.C,REF\u002A\u002A*%
X30480000Y-58420000D03*
%TD*%
%TO.C,REF\u002A\u002A*%
X17780000Y-68612690D03*
%TD*%
%TO.C,REF\u002A\u002A*%
X50800000Y-20320000D03*
%TD*%
%TO.C,REF\u002A\u002A*%
X27940000Y-33020000D03*
%TD*%
D23*
%TO.C,IO4*%
X31750000Y-27940000D03*
%TD*%
D22*
%TO.C,REF\u002A\u002A*%
X33020000Y-30480000D03*
%TD*%
%TO.C,REF\u002A\u002A*%
X27940000Y-50800000D03*
%TD*%
%TO.C,REF\u002A\u002A*%
X40640000Y-63500000D03*
%TD*%
%TO.C,REF\u002A\u002A*%
X53340000Y-38100000D03*
%TD*%
%TO.C,REF\u002A\u002A*%
X50800000Y-63500000D03*
%TD*%
D23*
%TO.C,G5*%
X22860000Y-35560000D03*
%TD*%
D22*
%TO.C,REF\u002A\u002A*%
X48260000Y-50800000D03*
%TD*%
D23*
%TO.C,G4*%
X22860000Y-43180000D03*
%TD*%
D22*
%TO.C,REF\u002A\u002A*%
X45720000Y-55880000D03*
%TD*%
%TO.C,REF\u002A\u002A*%
X45720000Y-35560000D03*
%TD*%
D23*
%TO.C,VIN3*%
X12700000Y-55880000D03*
%TD*%
D22*
%TO.C,REF\u002A\u002A*%
X20320000Y-68612690D03*
%TD*%
%TO.C,REF\u002A\u002A*%
X58420000Y-35560000D03*
%TD*%
%TO.C,REF\u002A\u002A*%
X35560000Y-55880000D03*
%TD*%
%TO.C,REF\u002A\u002A*%
X25400000Y-73660000D03*
%TD*%
%TO.C,REF\u002A\u002A*%
X48260000Y-66040000D03*
%TD*%
%TO.C,REF\u002A\u002A*%
X30480000Y-68612690D03*
%TD*%
%TO.C,REF\u002A\u002A*%
X33020000Y-48260000D03*
%TD*%
%TO.C,REF\u002A\u002A*%
X50800000Y-50800000D03*
%TD*%
%TO.C,REF\u002A\u002A*%
X53340000Y-25400000D03*
%TD*%
%TO.C,REF\u002A\u002A*%
X48260000Y-33020000D03*
%TD*%
%TO.C,REF\u002A\u002A*%
X25367310Y-43159141D03*
%TD*%
D23*
%TO.C,IO2*%
X26035000Y-27940000D03*
%TD*%
D22*
%TO.C,REF\u002A\u002A*%
X20320000Y-50800000D03*
%TD*%
%TO.C,REF\u002A\u002A*%
X43147310Y-43159141D03*
%TD*%
%TO.C,REF\u002A\u002A*%
X45720000Y-45720000D03*
%TD*%
%TO.C,REF\u002A\u002A*%
X43180000Y-66040000D03*
%TD*%
%TO.C,REF\u002A\u002A*%
X25400000Y-50800000D03*
%TD*%
%TO.C,REF\u002A\u002A*%
X43180000Y-20320000D03*
%TD*%
%TO.C,REF\u002A\u002A*%
X40640000Y-45720000D03*
%TD*%
D23*
%TO.C,G1*%
X10160000Y-63500000D03*
%TD*%
D22*
%TO.C,REF\u002A\u002A*%
X30480000Y-35560000D03*
%TD*%
%TO.C,REF\u002A\u002A*%
X45720000Y-66040000D03*
%TD*%
D23*
%TO.C,IO35*%
X21590000Y-30480000D03*
%TD*%
D22*
%TO.C,REF\u002A\u002A*%
X58420000Y-30480000D03*
%TD*%
D23*
%TO.C,IO23*%
X32385000Y-10795000D03*
%TD*%
D22*
%TO.C,REF\u002A\u002A*%
X27940000Y-35560000D03*
%TD*%
D23*
%TO.C,IO0*%
X34925000Y-10795000D03*
%TD*%
D22*
%TO.C,REF\u002A\u002A*%
X35560000Y-38100000D03*
%TD*%
%TO.C,REF\u002A\u002A*%
X12700000Y-60960000D03*
%TD*%
%TO.C,REF\u002A\u002A*%
X50800000Y-60960000D03*
%TD*%
%TO.C,REF\u002A\u002A*%
X17780000Y-60960000D03*
%TD*%
%TO.C,REF\u002A\u002A*%
X55880000Y-50800000D03*
%TD*%
%TO.C,REF\u002A\u002A*%
X38100000Y-27940000D03*
%TD*%
%TO.C,REF\u002A\u002A*%
X50767310Y-40640000D03*
%TD*%
%TO.C,REF\u002A\u002A*%
X45720000Y-58420000D03*
%TD*%
%TO.C,REF\u002A\u002A*%
X55880000Y-27940000D03*
%TD*%
%TO.C,REF\u002A\u002A*%
X45720000Y-63500000D03*
%TD*%
%TO.C,REF\u002A\u002A*%
X45687310Y-40640000D03*
%TD*%
%TO.C,REF\u002A\u002A*%
X48260000Y-58420000D03*
%TD*%
%TO.C,REF\u002A\u002A*%
X58420000Y-68580000D03*
%TD*%
%TO.C,REF\u002A\u002A*%
X25367310Y-40640000D03*
%TD*%
%TO.C,REF\u002A\u002A*%
X35560000Y-71120000D03*
%TD*%
%TO.C,REF\u002A\u002A*%
X27940000Y-55880000D03*
%TD*%
%TO.C,REF\u002A\u002A*%
X35560000Y-50800000D03*
%TD*%
%TO.C,REF\u002A\u002A*%
X48260000Y-17780000D03*
%TD*%
%TO.C,REF\u002A\u002A*%
X38100000Y-60960000D03*
%TD*%
D23*
%TO.C,3V32*%
X22860000Y-38100000D03*
%TD*%
D22*
%TO.C,REF\u002A\u002A*%
X43147310Y-40640000D03*
%TD*%
%TO.C,REF\u002A\u002A*%
X27940000Y-48260000D03*
%TD*%
%TO.C,REF\u002A\u002A*%
X40640000Y-50800000D03*
%TD*%
%TO.C,REF\u002A\u002A*%
X35560000Y-30480000D03*
%TD*%
%TO.C,REF\u002A\u002A*%
X48260000Y-45720000D03*
%TD*%
%TO.C,REF\u002A\u002A*%
X58387310Y-48260000D03*
%TD*%
%TO.C,REF\u002A\u002A*%
X48227310Y-43159141D03*
%TD*%
%TO.C,REF\u002A\u002A*%
X55880000Y-45720000D03*
%TD*%
%TO.C,REF\u002A\u002A*%
X50800000Y-68612690D03*
%TD*%
%TO.C,REF\u002A\u002A*%
X20320000Y-66040000D03*
%TD*%
%TO.C,REF\u002A\u002A*%
X38100000Y-58420000D03*
%TD*%
D23*
%TO.C,G6*%
X40640000Y-15240000D03*
%TD*%
D22*
%TO.C,REF\u002A\u002A*%
X12700000Y-63500000D03*
%TD*%
%TO.C,REF\u002A\u002A*%
X17780000Y-66040000D03*
%TD*%
%TO.C,REF\u002A\u002A*%
X30480000Y-33020000D03*
%TD*%
%TO.C,REF\u002A\u002A*%
X45720000Y-27940000D03*
%TD*%
%TO.C,REF\u002A\u002A*%
X53340000Y-60960000D03*
%TD*%
%TO.C,REF\u002A\u002A*%
X30480000Y-63500000D03*
%TD*%
%TO.C,REF\u002A\u002A*%
X25400000Y-38100000D03*
%TD*%
%TO.C,REF\u002A\u002A*%
X30480000Y-53340000D03*
%TD*%
%TO.C,REF\u002A\u002A*%
X43180000Y-55880000D03*
%TD*%
D23*
%TO.C,G2*%
X10160000Y-58420000D03*
%TD*%
D22*
%TO.C,REF\u002A\u002A*%
X20320000Y-60960000D03*
%TD*%
%TO.C,REF\u002A\u002A*%
X58387310Y-55880000D03*
%TD*%
%TO.C,REF\u002A\u002A*%
X55880000Y-30480000D03*
%TD*%
%TO.C,REF\u002A\u002A*%
X55880000Y-53340000D03*
%TD*%
%TO.C,REF\u002A\u002A*%
X48260000Y-27940000D03*
%TD*%
%TO.C,REF\u002A\u002A*%
X33020000Y-73660000D03*
%TD*%
%TO.C,REF\u002A\u002A*%
X22860000Y-63500000D03*
%TD*%
%TO.C,REF\u002A\u002A*%
X30480000Y-71120000D03*
%TD*%
%TO.C,REF\u002A\u002A*%
X25400000Y-48260000D03*
%TD*%
%TO.C,REF\u002A\u002A*%
X7620000Y-73660000D03*
%TD*%
%TO.C,REF\u002A\u002A*%
X58420000Y-40640000D03*
%TD*%
%TO.C,REF\u002A\u002A*%
X45720000Y-60960000D03*
%TD*%
%TO.C,REF\u002A\u002A*%
X20320000Y-63500000D03*
%TD*%
%TO.C,REF\u002A\u002A*%
X43180000Y-25400000D03*
%TD*%
%TO.C,REF\u002A\u002A*%
X48260000Y-35560000D03*
%TD*%
D23*
%TO.C,IO25*%
X21590000Y-25400000D03*
%TD*%
D22*
%TO.C,REF\u002A\u002A*%
X50800000Y-53340000D03*
%TD*%
%TO.C,REF\u002A\u002A*%
X25400000Y-30480000D03*
%TD*%
%TO.C,REF\u002A\u002A*%
X55880000Y-66040000D03*
%TD*%
%TO.C,REF\u002A\u002A*%
X33020000Y-35560000D03*
%TD*%
%TO.C,REF\u002A\u002A*%
X38100000Y-30480000D03*
%TD*%
%TO.C,REF\u002A\u002A*%
X58387310Y-58420000D03*
%TD*%
%TO.C,REF\u002A\u002A*%
X38100000Y-50800000D03*
%TD*%
%TO.C,REF\u002A\u002A*%
X53340000Y-63500000D03*
%TD*%
%TO.C,REF\u002A\u002A*%
X33020000Y-71120000D03*
%TD*%
%TO.C,REF\u002A\u002A*%
X48260000Y-63500000D03*
%TD*%
%TO.C,REF\u002A\u002A*%
X55880000Y-48260000D03*
%TD*%
%TO.C,REF\u002A\u002A*%
X43180000Y-58420000D03*
%TD*%
D23*
%TO.C,3V31*%
X22860000Y-45720000D03*
%TD*%
D22*
%TO.C,REF\u002A\u002A*%
X38100000Y-20320000D03*
%TD*%
%TO.C,REF\u002A\u002A*%
X43180000Y-50800000D03*
%TD*%
%TO.C,REF\u002A\u002A*%
X27940000Y-53340000D03*
%TD*%
D23*
%TO.C,IO13*%
X15875000Y-22860000D03*
%TD*%
D22*
%TO.C,REF\u002A\u002A*%
X48227310Y-40640000D03*
%TD*%
%TO.C,REF\u002A\u002A*%
X50800000Y-25400000D03*
%TD*%
%TO.C,REF\u002A\u002A*%
X48260000Y-71120000D03*
%TD*%
%TO.C,REF\u002A\u002A*%
X27940000Y-30480000D03*
%TD*%
%TO.C,REF\u002A\u002A*%
X38067310Y-43159141D03*
%TD*%
%TO.C,REF\u002A\u002A*%
X15240000Y-66040000D03*
%TD*%
%TO.C,REF\u002A\u002A*%
X53340000Y-66040000D03*
%TD*%
D23*
%TO.C,IO26*%
X21590000Y-27940000D03*
%TD*%
%TO.C,3V33*%
X38100000Y-15240000D03*
%TD*%
%TO.C,IO19*%
X29845000Y-10795000D03*
%TD*%
D22*
%TO.C,REF\u002A\u002A*%
X53340000Y-58420000D03*
%TD*%
%TO.C,REF\u002A\u002A*%
X15240000Y-71120000D03*
%TD*%
%TO.C,REF\u002A\u002A*%
X12700000Y-68612690D03*
%TD*%
%TO.C,REF\u002A\u002A*%
X43180000Y-33020000D03*
%TD*%
%TO.C,REF\u002A\u002A*%
X45720000Y-38100000D03*
%TD*%
D23*
%TO.C,IO1*%
X37465000Y-10795000D03*
%TD*%
D22*
%TO.C,REF\u002A\u002A*%
X27907310Y-43159141D03*
%TD*%
%TO.C,REF\u002A\u002A*%
X10160000Y-73660000D03*
%TD*%
%TO.C,REF\u002A\u002A*%
X20320000Y-55880000D03*
%TD*%
%TO.C,REF\u002A\u002A*%
X38100000Y-35560000D03*
%TD*%
%TO.C,REF\u002A\u002A*%
X40640000Y-17780000D03*
%TD*%
%TO.C,REF\u002A\u002A*%
X48260000Y-55880000D03*
%TD*%
%TO.C,REF\u002A\u002A*%
X55880000Y-25400000D03*
%TD*%
D23*
%TO.C,5V01*%
X22860000Y-48260000D03*
%TD*%
%TO.C,IO15*%
X26035000Y-25400000D03*
%TD*%
D22*
%TO.C,REF\u002A\u002A*%
X45687310Y-43159141D03*
%TD*%
%TO.C,REF\u002A\u002A*%
X58420000Y-66040000D03*
%TD*%
%TO.C,REF\u002A\u002A*%
X25400000Y-71120000D03*
%TD*%
%TO.C,REF\u002A\u002A*%
X48260000Y-60960000D03*
%TD*%
D26*
X11049000Y-22352000D03*
X23875000Y-1745000D03*
X17750000Y-8000000D03*
X5826000Y-37992000D03*
X15750000Y-8000000D03*
X17750000Y-10000000D03*
X15750000Y-10000000D03*
D12*
X27432000Y-21500000D03*
X5207000Y-12331500D03*
D16*
X13081000Y-35941000D03*
D12*
X2159000Y-12685000D03*
X8242000Y-24118000D03*
X2159000Y-22464000D03*
X1016000Y-42550500D03*
D26*
X4953000Y-32336500D03*
X11637324Y-1664990D03*
X15221000Y-48638000D03*
D16*
X11176000Y-24257000D03*
D26*
X7112000Y-30099000D03*
D12*
X6960000Y-18034000D03*
D26*
X9751000Y-35492000D03*
D12*
X6751000Y-39742000D03*
X6096000Y-52712000D03*
D26*
X51308000Y-8128000D03*
X23368000Y-12954000D03*
D12*
X28133000Y-7300000D03*
X19812000Y-5842000D03*
D26*
X13749000Y-3015000D03*
D12*
X50546000Y-12700000D03*
X48895000Y-10160000D03*
X30099000Y-6350000D03*
D26*
X2526000Y-29247500D03*
D12*
X30099000Y-2540000D03*
X49022000Y-15240000D03*
X5296500Y-18046500D03*
X28194000Y-2667000D03*
X24130000Y-5588000D03*
X28067000Y-4445000D03*
X23465000Y-17235000D03*
X28067000Y-6223000D03*
X6756500Y-12332000D03*
X22606000Y-4699000D03*
X10922000Y-18255000D03*
X11270000Y-16985000D03*
X22195000Y-17235000D03*
X24130000Y-4285000D03*
X21082000Y-8890000D03*
X11270000Y-13175000D03*
X11270000Y-14445000D03*
X11270000Y-15715000D03*
X11270000Y-10635000D03*
X9017000Y-19685000D03*
X11270000Y-11905000D03*
X11270000Y-8095000D03*
X11270000Y-9365000D03*
M02*
