%TF.GenerationSoftware,KiCad,Pcbnew,(6.0.1)*%
%TF.CreationDate,2023-01-03T02:24:04-08:00*%
%TF.ProjectId,ESP32 Dev Carrier - R1,45535033-3220-4446-9576-204361727269,rev?*%
%TF.SameCoordinates,Original*%
%TF.FileFunction,Paste,Top*%
%TF.FilePolarity,Positive*%
%FSLAX46Y46*%
G04 Gerber Fmt 4.6, Leading zero omitted, Abs format (unit mm)*
G04 Created by KiCad (PCBNEW (6.0.1)) date 2023-01-03 02:24:04*
%MOMM*%
%LPD*%
G01*
G04 APERTURE LIST*
G04 Aperture macros list*
%AMRoundRect*
0 Rectangle with rounded corners*
0 $1 Rounding radius*
0 $2 $3 $4 $5 $6 $7 $8 $9 X,Y pos of 4 corners*
0 Add a 4 corners polygon primitive as box body*
4,1,4,$2,$3,$4,$5,$6,$7,$8,$9,$2,$3,0*
0 Add four circle primitives for the rounded corners*
1,1,$1+$1,$2,$3*
1,1,$1+$1,$4,$5*
1,1,$1+$1,$6,$7*
1,1,$1+$1,$8,$9*
0 Add four rect primitives between the rounded corners*
20,1,$1+$1,$2,$3,$4,$5,0*
20,1,$1+$1,$4,$5,$6,$7,0*
20,1,$1+$1,$6,$7,$8,$9,0*
20,1,$1+$1,$8,$9,$2,$3,0*%
G04 Aperture macros list end*
%ADD10C,0.010000*%
%ADD11R,3.300000X2.500000*%
%ADD12RoundRect,0.200000X0.200000X0.275000X-0.200000X0.275000X-0.200000X-0.275000X0.200000X-0.275000X0*%
%ADD13RoundRect,0.200000X-0.200000X-0.275000X0.200000X-0.275000X0.200000X0.275000X-0.200000X0.275000X0*%
%ADD14RoundRect,0.200000X-0.275000X0.200000X-0.275000X-0.200000X0.275000X-0.200000X0.275000X0.200000X0*%
%ADD15RoundRect,0.200000X0.275000X-0.200000X0.275000X0.200000X-0.275000X0.200000X-0.275000X-0.200000X0*%
%ADD16RoundRect,0.150000X0.825000X0.150000X-0.825000X0.150000X-0.825000X-0.150000X0.825000X-0.150000X0*%
%ADD17RoundRect,0.250000X0.787500X1.025000X-0.787500X1.025000X-0.787500X-1.025000X0.787500X-1.025000X0*%
%ADD18RoundRect,0.225000X0.225000X0.250000X-0.225000X0.250000X-0.225000X-0.250000X0.225000X-0.250000X0*%
%ADD19R,2.000000X1.500000*%
%ADD20R,2.000000X3.800000*%
%ADD21RoundRect,0.225000X-0.225000X-0.250000X0.225000X-0.250000X0.225000X0.250000X-0.225000X0.250000X0*%
%ADD22RoundRect,0.225000X-0.250000X0.225000X-0.250000X-0.225000X0.250000X-0.225000X0.250000X0.225000X0*%
%ADD23R,0.800000X0.800000*%
%ADD24RoundRect,0.225000X0.250000X-0.225000X0.250000X0.225000X-0.250000X0.225000X-0.250000X-0.225000X0*%
%ADD25RoundRect,0.250000X-1.025000X0.787500X-1.025000X-0.787500X1.025000X-0.787500X1.025000X0.787500X0*%
%ADD26RoundRect,0.250000X0.325000X0.650000X-0.325000X0.650000X-0.325000X-0.650000X0.325000X-0.650000X0*%
%ADD27RoundRect,0.150000X-0.587500X-0.150000X0.587500X-0.150000X0.587500X0.150000X-0.587500X0.150000X0*%
%ADD28R,3.500000X4.000000*%
%ADD29R,0.500000X2.250000*%
%ADD30R,2.049999X4.000000*%
%ADD31R,2.049999X3.500000*%
%ADD32R,1.500000X1.500000*%
%ADD33RoundRect,0.225000X-0.225000X-0.225000X0.225000X-0.225000X0.225000X0.225000X-0.225000X0.225000X0*%
%ADD34RoundRect,0.062500X-0.337500X-0.062500X0.337500X-0.062500X0.337500X0.062500X-0.337500X0.062500X0*%
%ADD35RoundRect,0.062500X-0.062500X-0.337500X0.062500X-0.337500X0.062500X0.337500X-0.062500X0.337500X0*%
%ADD36R,2.000000X0.900000*%
G04 APERTURE END LIST*
D10*
%TO.C,U1*%
X28028616Y-7660000D02*
X31188616Y-7660000D01*
X31188616Y-7660000D02*
X31188616Y-10820000D01*
X31188616Y-10820000D02*
X28028616Y-10820000D01*
X28028616Y-10820000D02*
X28028616Y-7660000D01*
G36*
X31188616Y-10820000D02*
G01*
X28028616Y-10820000D01*
X28028616Y-7660000D01*
X31188616Y-7660000D01*
X31188616Y-10820000D01*
G37*
X31188616Y-10820000D02*
X28028616Y-10820000D01*
X28028616Y-7660000D01*
X31188616Y-7660000D01*
X31188616Y-10820000D01*
%TD*%
D11*
%TO.C,D1*%
X31794988Y-65488100D03*
X31794988Y-72288100D03*
%TD*%
D12*
%TO.C,R23*%
X43669988Y-29518100D03*
X45319988Y-29518100D03*
%TD*%
D13*
%TO.C,R22*%
X69069988Y-14913100D03*
X70719988Y-14913100D03*
%TD*%
D14*
%TO.C,R21*%
X62274988Y-59173100D03*
X62274988Y-60823100D03*
%TD*%
D15*
%TO.C,R5*%
X42208988Y-22977100D03*
X42208988Y-21327100D03*
%TD*%
D16*
%TO.C,U2*%
X41582653Y-68761100D03*
X41582653Y-67491100D03*
X41582653Y-66221100D03*
X41582653Y-64951100D03*
X36632653Y-64951100D03*
X36632653Y-66221100D03*
X36632653Y-67491100D03*
X36632653Y-68761100D03*
%TD*%
D17*
%TO.C,C10*%
X23516153Y-51463535D03*
X17291153Y-51463535D03*
%TD*%
D18*
%TO.C,C8*%
X19729616Y-9525000D03*
X18179616Y-9525000D03*
%TD*%
D19*
%TO.C,U3*%
X17761653Y-56021535D03*
X17761653Y-58321535D03*
D20*
X24061653Y-58321535D03*
D19*
X17761653Y-60621535D03*
%TD*%
D15*
%TO.C,R27*%
X63544988Y-67173100D03*
X63544988Y-65523100D03*
%TD*%
%TO.C,R26*%
X59734988Y-67173100D03*
X59734988Y-65523100D03*
%TD*%
D21*
%TO.C,C6*%
X17469653Y-62766535D03*
X19019653Y-62766535D03*
%TD*%
D22*
%TO.C,C5*%
X43607653Y-64831100D03*
X43607653Y-66381100D03*
%TD*%
D23*
%TO.C,D7*%
X59734988Y-70793100D03*
X59734988Y-69293100D03*
%TD*%
D17*
%TO.C,C7*%
X36745153Y-72106100D03*
X42970153Y-72106100D03*
%TD*%
D24*
%TO.C,C9*%
X19716616Y-3188000D03*
X19716616Y-1638000D03*
%TD*%
D25*
%TO.C,C4*%
X25726988Y-65513600D03*
X25726988Y-71738600D03*
%TD*%
D14*
%TO.C,R6*%
X43859988Y-22977100D03*
X43859988Y-21327100D03*
%TD*%
D22*
%TO.C,C3*%
X22455976Y-70782200D03*
X22455976Y-72332200D03*
%TD*%
D18*
%TO.C,C11*%
X24620653Y-62766535D03*
X23070653Y-62766535D03*
%TD*%
D26*
%TO.C,C2*%
X42378653Y-62411100D03*
X39428653Y-62411100D03*
%TD*%
D23*
%TO.C,D8*%
X63544988Y-70793100D03*
X63544988Y-69293100D03*
%TD*%
D15*
%TO.C,R4*%
X19716616Y-6286000D03*
X19716616Y-4636000D03*
%TD*%
D13*
%TO.C,R15*%
X69069988Y-11143100D03*
X70719988Y-11143100D03*
%TD*%
D27*
%TO.C,D15*%
X38809988Y-38093100D03*
X38809988Y-39993100D03*
X40684988Y-39043100D03*
%TD*%
D22*
%TO.C,C13*%
X17176616Y-33388000D03*
X17176616Y-34938000D03*
%TD*%
D15*
%TO.C,R7*%
X19208616Y-36386000D03*
X19208616Y-38036000D03*
%TD*%
D28*
%TO.C,L1*%
X36357653Y-58606100D03*
X28357653Y-58606100D03*
%TD*%
D27*
%TO.C,D6*%
X38809988Y-48253100D03*
X38809988Y-50153100D03*
X40684988Y-49203100D03*
%TD*%
D13*
%TO.C,R3*%
X16478616Y-5769100D03*
X18128616Y-5769100D03*
%TD*%
D14*
%TO.C,R12*%
X20732616Y-36386000D03*
X20732616Y-38036000D03*
%TD*%
D27*
%TO.C,Q2*%
X15998488Y-21837100D03*
X15998488Y-23737100D03*
X17873488Y-22787100D03*
%TD*%
D12*
%TO.C,R11*%
X16223616Y-20193000D03*
X14573616Y-20193000D03*
%TD*%
D29*
%TO.C,J2*%
X13379988Y-66221100D03*
X14179988Y-66221100D03*
X14979988Y-66221100D03*
X15779988Y-66221100D03*
X16579988Y-66221100D03*
D30*
X10054988Y-70446100D03*
D31*
X10054988Y-66196100D03*
D30*
X19904988Y-70446100D03*
D31*
X19904988Y-66196100D03*
%TD*%
D23*
%TO.C,D12*%
X61639988Y-70793100D03*
X61639988Y-69293100D03*
%TD*%
D15*
%TO.C,R10*%
X61639988Y-67173100D03*
X61639988Y-65523100D03*
%TD*%
D13*
%TO.C,R14*%
X69069988Y-8563100D03*
X70719988Y-8563100D03*
%TD*%
D32*
%TO.C,SW1*%
X17774616Y-2848100D03*
X9974616Y-2848100D03*
%TD*%
D27*
%TO.C,D13*%
X42922488Y-35553100D03*
X42922488Y-37453100D03*
X44797488Y-36503100D03*
%TD*%
%TO.C,D17*%
X43254988Y-14682100D03*
X43254988Y-16582100D03*
X45129988Y-15632100D03*
%TD*%
%TO.C,D5*%
X42922488Y-50793100D03*
X42922488Y-52693100D03*
X44797488Y-51743100D03*
%TD*%
%TO.C,D2*%
X43574488Y-5788100D03*
X43574488Y-7688100D03*
X45449488Y-6738100D03*
%TD*%
D13*
%TO.C,R9*%
X15601988Y-25273000D03*
X13951988Y-25273000D03*
%TD*%
D14*
%TO.C,R16*%
X55924988Y-65523100D03*
X55924988Y-67173100D03*
%TD*%
D13*
%TO.C,R1*%
X25241616Y-26797000D03*
X26891616Y-26797000D03*
%TD*%
D27*
%TO.C,Q1*%
X14715116Y-16703000D03*
X14715116Y-18603000D03*
X16590116Y-17653000D03*
%TD*%
D33*
%TO.C,U4*%
X20120616Y-32743000D03*
X20120616Y-30503000D03*
X22360616Y-32743000D03*
X22360616Y-30503000D03*
X22360616Y-31623000D03*
X20120616Y-31623000D03*
X21240616Y-31623000D03*
X21240616Y-32743000D03*
X21240616Y-30503000D03*
D34*
X18790616Y-30123000D03*
X18790616Y-30623000D03*
X18790616Y-31123000D03*
X18790616Y-31623000D03*
X18790616Y-32123000D03*
X18790616Y-32623000D03*
X18790616Y-33123000D03*
D35*
X19740616Y-34073000D03*
X20240616Y-34073000D03*
X20740616Y-34073000D03*
X21240616Y-34073000D03*
X21740616Y-34073000D03*
X22240616Y-34073000D03*
X22740616Y-34073000D03*
D34*
X23690616Y-33123000D03*
X23690616Y-32623000D03*
X23690616Y-32123000D03*
X23690616Y-31623000D03*
X23690616Y-31123000D03*
X23690616Y-30623000D03*
X23690616Y-30123000D03*
D35*
X22740616Y-29173000D03*
X22240616Y-29173000D03*
X21740616Y-29173000D03*
X21240616Y-29173000D03*
X20740616Y-29173000D03*
X20240616Y-29173000D03*
X19740616Y-29173000D03*
%TD*%
D27*
%TO.C,D16*%
X43254988Y-10872100D03*
X43254988Y-12772100D03*
X45129988Y-11822100D03*
%TD*%
D14*
%TO.C,R8*%
X17684616Y-36386000D03*
X17684616Y-38036000D03*
%TD*%
D23*
%TO.C,D3*%
X57829988Y-69408100D03*
X57829988Y-70908100D03*
%TD*%
D27*
%TO.C,D10*%
X38809988Y-43173100D03*
X38809988Y-45073100D03*
X40684988Y-44123100D03*
%TD*%
D14*
%TO.C,R13*%
X57829988Y-67173100D03*
X57829988Y-65523100D03*
%TD*%
D15*
%TO.C,R17*%
X22256616Y-36386000D03*
X22256616Y-38036000D03*
%TD*%
D27*
%TO.C,D11*%
X38809988Y-33013100D03*
X38809988Y-34913100D03*
X40684988Y-33963100D03*
%TD*%
D23*
%TO.C,D4*%
X55924988Y-69408100D03*
X55924988Y-70908100D03*
%TD*%
D13*
%TO.C,R2*%
X25241616Y-28321000D03*
X26891616Y-28321000D03*
%TD*%
D27*
%TO.C,D9*%
X42922488Y-45713100D03*
X42922488Y-47613100D03*
X44797488Y-46663100D03*
%TD*%
%TO.C,D14*%
X42922488Y-40633100D03*
X42922488Y-42533100D03*
X44797488Y-41583100D03*
%TD*%
D22*
%TO.C,C12*%
X15652616Y-33388000D03*
X15652616Y-34938000D03*
%TD*%
D14*
%TO.C,R19*%
X66719988Y-60823100D03*
X66719988Y-59173100D03*
%TD*%
%TO.C,R18*%
X68624988Y-59173100D03*
X68624988Y-60823100D03*
%TD*%
%TO.C,R20*%
X60369988Y-59173100D03*
X60369988Y-60823100D03*
%TD*%
D36*
%TO.C,U1*%
X22108616Y-1740000D03*
X22108616Y-3010000D03*
X22108616Y-4280000D03*
X22108616Y-5550000D03*
X22108616Y-6820000D03*
X22108616Y-8090000D03*
X22108616Y-9360000D03*
X22108616Y-10630000D03*
X22108616Y-11900000D03*
X22108616Y-13170000D03*
X22108616Y-14440000D03*
X22108616Y-15710000D03*
X22108616Y-16980000D03*
X22108616Y-18250000D03*
X22108616Y-19520000D03*
X22108616Y-20790000D03*
X22108616Y-22060000D03*
X22108616Y-23330000D03*
X22108616Y-24600000D03*
X39108616Y-24600000D03*
X39108616Y-23330000D03*
X39108616Y-22060000D03*
X39108616Y-20790000D03*
X39108616Y-19520000D03*
X39108616Y-18250000D03*
X39108616Y-16980000D03*
X39108616Y-15710000D03*
X39108616Y-14440000D03*
X39108616Y-13170000D03*
X39108616Y-11900000D03*
X39108616Y-10630000D03*
X39108616Y-9360000D03*
X39108616Y-8090000D03*
X39108616Y-6820000D03*
X39108616Y-5550000D03*
X39108616Y-4280000D03*
X39108616Y-3010000D03*
X39108616Y-1740000D03*
%TD*%
M02*
