M48
; DRILL file {KiCad (6.0.1)} date Sun Jan  1 21:05:58 2023
; FORMAT={-:-/ absolute / inch / decimal}
; #@! TF.CreationDate,2023-01-01T21:05:58-08:00
; #@! TF.GenerationSoftware,Kicad,Pcbnew,(6.0.1)
; #@! TF.FileFunction,Plated,1,4,PTH
FMAT,2
INCH
; #@! TA.AperFunction,Plated,PTH,ViaDrill
T1C0.0157
; #@! TA.AperFunction,Plated,PTH,ViaDrill
T2C0.0197
; #@! TA.AperFunction,Plated,PTH,ComponentDrill
T3C0.0197
; #@! TA.AperFunction,Plated,PTH,ComponentDrill
T4C0.0276
; #@! TA.AperFunction,Plated,PTH,ComponentDrill
T5C0.0315
; #@! TA.AperFunction,Plated,PTH,ComponentDrill
T6C0.0374
; #@! TA.AperFunction,Plated,PTH,ViaDrill
T7C0.0394
; #@! TA.AperFunction,Plated,PTH,ComponentDrill
T8C0.0394
; #@! TA.AperFunction,Plated,PTH,ComponentDrill
T9C0.0984
%
G90
G05
T1
X0.04Y-1.6752
X0.085Y-0.4994
X0.085Y-0.8844
X0.205Y-0.4855
X0.2085Y-0.7105
X0.24Y-2.0753
X0.2658Y-1.5646
X0.266Y-0.4855
X0.274Y-0.71
X0.3245Y-0.9495
X0.355Y-0.775
X0.43Y-0.7187
X0.4437Y-0.3187
X0.4437Y-0.3687
X0.4437Y-0.4187
X0.4437Y-0.4687
X0.4437Y-0.5187
X0.4437Y-0.5687
X0.4437Y-0.6187
X0.4437Y-0.6687
X0.78Y-0.23
X0.83Y-0.35
X0.8738Y-0.6785
X0.89Y-0.185
X0.9238Y-0.6785
X0.95Y-0.1687
X0.95Y-0.22
X1.08Y-0.8465
X1.105Y-0.175
X1.105Y-0.245
X1.1076Y-0.2874
X1.11Y-0.105
X1.185Y-0.1
X1.185Y-0.25
X1.925Y-0.4
X1.93Y-0.6
X1.99Y-0.5
T2
X0.44Y-0.955
X0.515Y-1.415
T3
X0.0443Y-0.1181
X0.0443Y-2.8346
X0.0659Y-0.0659
X0.0659Y-0.1703
X0.0659Y-2.7824
X0.0659Y-2.8868
X0.1181Y-0.0443
X0.1181Y-0.1919
X0.1181Y-2.7608
X0.1181Y-2.9085
X0.1703Y-0.0659
X0.1703Y-0.1703
X0.1703Y-2.7824
X0.1703Y-2.8868
X0.1919Y-0.1181
X0.1919Y-2.8346
X1.525Y-0.225
X1.625Y-0.225
X1.825Y-0.225
X1.925Y-0.225
X2.1703Y-0.1181
X2.1703Y-2.8346
X2.1919Y-0.0659
X2.1919Y-0.1703
X2.1919Y-2.7824
X2.1919Y-2.8868
X2.2441Y-0.0443
X2.2441Y-0.1919
X2.2441Y-2.7608
X2.2441Y-2.9085
X2.2963Y-0.0659
X2.2963Y-0.1703
X2.2963Y-2.7824
X2.2963Y-2.8868
X2.3179Y-0.1181
X2.3179Y-2.8346
T4
X0.3Y-2.8
X0.3Y-2.9
X0.4Y-2.7013
X0.4Y-2.8
X0.4Y-2.9
X0.5Y-2.3
X0.5Y-2.4
X0.5Y-2.5
X0.5Y-2.6
X0.5Y-2.7013
X0.5Y-2.8
X0.5Y-2.9
X0.6Y-2.2
X0.6Y-2.3
X0.6Y-2.4
X0.6Y-2.5
X0.6Y-2.6
X0.6Y-2.7013
X0.6Y-2.8
X0.6Y-2.9
X0.7Y-2.1
X0.7Y-2.2
X0.7Y-2.3
X0.7Y-2.4
X0.7Y-2.5
X0.7Y-2.6
X0.7Y-2.7013
X0.7Y-2.8
X0.7Y-2.9
X0.8Y-2.0
X0.8Y-2.1
X0.8Y-2.2
X0.8Y-2.3
X0.8Y-2.4
X0.8Y-2.5
X0.8Y-2.6
X0.8Y-2.7013
X0.8Y-2.8
X0.8Y-2.9
X0.9Y-2.0
X0.9Y-2.1
X0.9Y-2.2
X0.9Y-2.3
X0.9Y-2.4
X0.9Y-2.5
X0.9Y-2.6
X0.9Y-2.7013
X0.9Y-2.8
X0.9Y-2.9
X0.9987Y-1.6
X0.9987Y-1.6992
X1.0Y-1.2
X1.0Y-1.3
X1.0Y-1.4
X1.0Y-1.5
X1.0Y-1.8
X1.0Y-1.9
X1.0Y-2.0
X1.0Y-2.1
X1.0Y-2.2
X1.0Y-2.3
X1.0Y-2.4
X1.0Y-2.5
X1.0Y-2.6
X1.0Y-2.7013
X1.0Y-2.8
X1.0Y-2.9
X1.0987Y-1.6
X1.0987Y-1.6992
X1.1Y-1.2
X1.1Y-1.3
X1.1Y-1.4
X1.1Y-1.5
X1.1Y-1.8
X1.1Y-1.9
X1.1Y-2.0
X1.1Y-2.1
X1.1Y-2.2
X1.1Y-2.3
X1.1Y-2.4
X1.1Y-2.5
X1.1Y-2.6
X1.1Y-2.7013
X1.1Y-2.8
X1.1Y-2.9
X1.1987Y-1.6
X1.1987Y-1.6992
X1.2Y-1.2
X1.2Y-1.3
X1.2Y-1.4
X1.2Y-1.5
X1.2Y-1.8
X1.2Y-1.9
X1.2Y-2.0
X1.2Y-2.1
X1.2Y-2.2
X1.2Y-2.3
X1.2Y-2.4
X1.2Y-2.5
X1.2Y-2.6
X1.2Y-2.7013
X1.2Y-2.8
X1.2Y-2.9
X1.2987Y-1.6
X1.2987Y-1.6992
X1.3Y-1.2
X1.3Y-1.3
X1.3Y-1.4
X1.3Y-1.5
X1.3Y-1.8
X1.3Y-1.9
X1.3Y-2.0
X1.3Y-2.1
X1.3Y-2.2
X1.3Y-2.3
X1.3Y-2.4
X1.3Y-2.5
X1.3Y-2.6
X1.3Y-2.7013
X1.3Y-2.8
X1.3Y-2.9
X1.3987Y-1.6
X1.3987Y-1.6992
X1.4Y-0.7
X1.4Y-0.8
X1.4Y-0.9
X1.4Y-1.0
X1.4Y-1.1
X1.4Y-1.2
X1.4Y-1.3
X1.4Y-1.4
X1.4Y-1.5
X1.4Y-1.8
X1.4Y-1.9
X1.4Y-2.0
X1.4Y-2.1
X1.4Y-2.2
X1.4Y-2.3
X1.4Y-2.4
X1.4Y-2.5
X1.4Y-2.6
X1.4Y-2.7013
X1.4Y-2.8
X1.4Y-2.9
X1.4987Y-1.6
X1.4987Y-1.6992
X1.5Y-0.7
X1.5Y-0.8
X1.5Y-0.9
X1.5Y-1.0
X1.5Y-1.1
X1.5Y-1.2
X1.5Y-1.3
X1.5Y-1.4
X1.5Y-1.5
X1.5Y-1.8
X1.5Y-1.9
X1.5Y-2.0
X1.5Y-2.1
X1.5Y-2.2
X1.5Y-2.3
X1.5Y-2.4
X1.5Y-2.5
X1.5Y-2.6
X1.5Y-2.7013
X1.5Y-2.8
X1.5Y-2.9
X1.5987Y-1.6
X1.5987Y-1.6992
X1.6Y-0.7
X1.6Y-0.8
X1.6Y-0.9
X1.6Y-1.0
X1.6Y-1.1
X1.6Y-1.2
X1.6Y-1.3
X1.6Y-1.4
X1.6Y-1.5
X1.6Y-1.8
X1.6Y-1.9
X1.6Y-2.0
X1.6Y-2.1
X1.6Y-2.2
X1.6Y-2.3
X1.6Y-2.4
X1.6Y-2.5
X1.6Y-2.6
X1.6Y-2.7013
X1.6Y-2.8
X1.6Y-2.9
X1.6987Y-1.6
X1.6987Y-1.6992
X1.7Y-0.7
X1.7Y-0.8
X1.7Y-0.9
X1.7Y-1.0
X1.7Y-1.1
X1.7Y-1.2
X1.7Y-1.3
X1.7Y-1.4
X1.7Y-1.5
X1.7Y-1.8
X1.7Y-1.9
X1.7Y-2.0
X1.7Y-2.1
X1.7Y-2.2
X1.7Y-2.3
X1.7Y-2.4
X1.7Y-2.5
X1.7Y-2.6
X1.7Y-2.7013
X1.7Y-2.8
X1.7Y-2.9
X1.7987Y-1.6
X1.7987Y-1.6992
X1.8Y-0.7
X1.8Y-0.8
X1.8Y-0.9
X1.8Y-1.0
X1.8Y-1.1
X1.8Y-1.2
X1.8Y-1.3
X1.8Y-1.4
X1.8Y-1.5
X1.8Y-1.8
X1.8Y-1.9
X1.8Y-2.0
X1.8Y-2.1
X1.8Y-2.2
X1.8Y-2.3
X1.8Y-2.4
X1.8Y-2.5
X1.8Y-2.6
X1.8Y-2.7013
X1.8Y-2.8
X1.8Y-2.9
X1.8987Y-1.6
X1.8987Y-1.6992
X1.9Y-0.7
X1.9Y-0.8
X1.9Y-0.9
X1.9Y-1.0
X1.9Y-1.1
X1.9Y-1.2
X1.9Y-1.3
X1.9Y-1.4
X1.9Y-1.5
X1.9Y-1.8
X1.9Y-1.9
X1.9Y-2.0
X1.9Y-2.1
X1.9Y-2.2
X1.9Y-2.3
X1.9Y-2.4
X1.9Y-2.5
X1.9Y-2.6
X1.9Y-2.7013
X1.9Y-2.8
X1.9Y-2.9
X1.9987Y-1.6
X1.9987Y-1.6992
X2.0Y-0.7
X2.0Y-0.8
X2.0Y-0.9
X2.0Y-1.0
X2.0Y-1.1
X2.0Y-1.2
X2.0Y-1.3
X2.0Y-1.4
X2.0Y-1.5
X2.0Y-1.8
X2.0Y-1.9
X2.0Y-2.0
X2.0Y-2.1
X2.0Y-2.2
X2.0Y-2.3
X2.0Y-2.4
X2.0Y-2.5
X2.0Y-2.6
X2.0Y-2.7013
X2.0Y-2.8
X2.0Y-2.9
X2.0987Y-1.6
X2.0987Y-1.6992
X2.1Y-1.0
X2.1Y-1.1
X2.1Y-1.2
X2.1Y-1.3
X2.1Y-1.4
X2.1Y-1.5
X2.1Y-1.8
X2.1Y-1.9
X2.1Y-2.0
X2.1Y-2.1
X2.1Y-2.2
X2.1Y-2.3
X2.1Y-2.4
X2.1Y-2.5
X2.1Y-2.6
X2.1Y-2.7
X2.1Y-2.8
X2.1Y-2.9
X2.1987Y-1.6
X2.2Y-1.0
X2.2Y-1.1
X2.2Y-1.2
X2.2Y-1.3
X2.2Y-1.4
X2.2Y-1.5
X2.2Y-1.6992
X2.2Y-1.8
X2.2Y-1.9
X2.2Y-2.0
X2.2Y-2.1
X2.2Y-2.2
X2.2Y-2.3
X2.2Y-2.4
X2.2Y-2.5
X2.2Y-2.6
X2.2Y-2.7
X2.2987Y-1.6992
X2.2987Y-1.8
X2.2987Y-1.9
X2.2987Y-2.0
X2.2987Y-2.1
X2.2987Y-2.2
X2.2987Y-2.3
X2.2987Y-2.4
X2.3Y-1.0
X2.3Y-1.1
X2.3Y-1.2
X2.3Y-1.3
X2.3Y-1.4
X2.3Y-1.5
X2.3Y-1.6
X2.3Y-2.5
X2.3Y-2.6
X2.3Y-2.7
T5
X0.1016Y-2.25
X0.2Y-2.25
T6
X2.2043Y-0.3781
X2.2043Y-0.4766
X2.2043Y-0.575
X2.2043Y-0.6734
X2.2043Y-0.7719
T7
X0.0994Y-1.1515
X0.195Y-1.2731
X0.2294Y-1.4957
X0.28Y-1.185
X0.3839Y-1.3973
X0.435Y-0.88
X0.4582Y-0.0656
X0.5413Y-0.1187
X0.5993Y-1.9149
X0.6201Y-0.315
X0.6201Y-0.3937
X0.6988Y-0.315
X0.6988Y-0.3937
X0.92Y-0.51
X0.94Y-0.0687
X2.02Y-0.32
T8
X0.1287Y-2.51
X0.1287Y-2.6084
X0.4Y-2.3
X0.4Y-2.4
X0.4Y-2.5
X0.4Y-2.6
X0.5Y-2.2
X0.6Y-2.0865
X0.625Y-0.9
X0.625Y-1.0
X0.625Y-1.1
X0.625Y-1.2
X0.625Y-1.3
X0.7Y-2.0
X0.85Y-0.9
X0.85Y-1.0
X0.85Y-1.1
X0.85Y-1.2
X0.85Y-1.3
X0.9Y-1.4
X0.9Y-1.5
X0.9Y-1.6
X0.9Y-1.7
X0.9Y-1.8
X0.9Y-1.9
X1.025Y-1.0
X1.025Y-1.1
X1.175Y-0.425
X1.25Y-0.7
X1.25Y-0.8
X1.25Y-0.9
X1.25Y-1.0
X1.25Y-1.1
X1.275Y-0.425
X1.375Y-0.425
X1.4Y-0.6
X1.475Y-0.425
X1.5Y-0.6
X1.526Y-0.125
X1.575Y-0.425
X1.6Y-0.6
X1.626Y-0.125
X1.675Y-0.425
X1.7Y-0.6
X1.726Y-0.125
X1.775Y-0.425
X1.8Y-0.6
X1.826Y-0.125
X1.926Y-0.125
X2.026Y-0.125
T9
X0.1181Y-0.1181
X0.1181Y-2.8346
X2.2441Y-0.1181
X2.2441Y-2.8346
T0
M30
