%TF.GenerationSoftware,KiCad,Pcbnew,(6.0.1)*%
%TF.CreationDate,2023-01-07T21:21:10-08:00*%
%TF.ProjectId,ESP32 Dev Carrier - R1,45535033-3220-4446-9576-204361727269,rev?*%
%TF.SameCoordinates,Original*%
%TF.FileFunction,Soldermask,Bot*%
%TF.FilePolarity,Negative*%
%FSLAX46Y46*%
G04 Gerber Fmt 4.6, Leading zero omitted, Abs format (unit mm)*
G04 Created by KiCad (PCBNEW (6.0.1)) date 2023-01-07 21:21:10*
%MOMM*%
%LPD*%
G01*
G04 APERTURE LIST*
G04 Aperture macros list*
%AMRoundRect*
0 Rectangle with rounded corners*
0 $1 Rounding radius*
0 $2 $3 $4 $5 $6 $7 $8 $9 X,Y pos of 4 corners*
0 Add a 4 corners polygon primitive as box body*
4,1,4,$2,$3,$4,$5,$6,$7,$8,$9,$2,$3,0*
0 Add four circle primitives for the rounded corners*
1,1,$1+$1,$2,$3*
1,1,$1+$1,$4,$5*
1,1,$1+$1,$6,$7*
1,1,$1+$1,$8,$9*
0 Add four rect primitives between the rounded corners*
20,1,$1+$1,$2,$3,$4,$5,0*
20,1,$1+$1,$4,$5,$6,$7,0*
20,1,$1+$1,$6,$7,$8,$9,0*
20,1,$1+$1,$8,$9,$2,$3,0*%
G04 Aperture macros list end*
%ADD10C,0.900000*%
%ADD11C,5.100000*%
%ADD12RoundRect,0.050000X0.800000X-0.800000X0.800000X0.800000X-0.800000X0.800000X-0.800000X-0.800000X0*%
%ADD13C,1.700000*%
%ADD14C,1.300000*%
%ADD15RoundRect,0.300000X0.600000X0.750000X-0.600000X0.750000X-0.600000X-0.750000X0.600000X-0.750000X0*%
%ADD16O,1.800000X2.100000*%
%ADD17RoundRect,0.300000X-0.725000X0.600000X-0.725000X-0.600000X0.725000X-0.600000X0.725000X0.600000X0*%
%ADD18O,2.050000X1.800000*%
%ADD19RoundRect,0.050000X-0.850000X-0.850000X0.850000X-0.850000X0.850000X0.850000X-0.850000X0.850000X0*%
%ADD20O,1.800000X1.800000*%
%ADD21C,0.750000*%
%ADD22O,1.050000X0.750000*%
%ADD23O,0.900000X1.500000*%
%ADD24C,1.900000*%
%ADD25C,1.100000*%
G04 APERTURE END LIST*
D10*
%TO.C,H4*%
X70674175Y-73325825D03*
X70125000Y-72000000D03*
X70674175Y-70674175D03*
D11*
X72000000Y-72000000D03*
D10*
X73875000Y-72000000D03*
X73325825Y-73325825D03*
X73325825Y-70674175D03*
X72000000Y-70125000D03*
X72000000Y-73875000D03*
%TD*%
%TO.C,H3*%
X72000000Y-1125000D03*
X70674175Y-4325825D03*
D11*
X72000000Y-3000000D03*
D10*
X73325825Y-4325825D03*
X72000000Y-4875000D03*
X70674175Y-1674175D03*
X70125000Y-3000000D03*
X73325825Y-1674175D03*
X73875000Y-3000000D03*
%TD*%
D12*
%TO.C,C1*%
X47962653Y-65459100D03*
D13*
X47962653Y-62959100D03*
%TD*%
D10*
%TO.C,H2*%
X3000000Y-70125000D03*
D11*
X3000000Y-72000000D03*
D10*
X3000000Y-73875000D03*
X4875000Y-72000000D03*
X4325825Y-70674175D03*
X1125000Y-72000000D03*
X1674175Y-73325825D03*
X4325825Y-73325825D03*
X1674175Y-70674175D03*
%TD*%
%TO.C,H1*%
X4325825Y-4325825D03*
X3000000Y-1125000D03*
X4325825Y-1674175D03*
X1674175Y-1674175D03*
D11*
X3000000Y-3000000D03*
D10*
X4875000Y-3000000D03*
X1674175Y-4325825D03*
X1125000Y-3000000D03*
X3000000Y-4875000D03*
%TD*%
D14*
%TO.C,J1*%
X51808653Y-69589100D03*
D15*
X50208653Y-71589100D03*
D16*
X47708653Y-71589100D03*
%TD*%
D17*
%TO.C,J6*%
X50734988Y-3643100D03*
D18*
X50734988Y-6143100D03*
X50734988Y-8643100D03*
X50734988Y-11143100D03*
X50734988Y-13643100D03*
%TD*%
D17*
%TO.C,J9*%
X64179988Y-34243100D03*
D18*
X64179988Y-36743100D03*
X64179988Y-39243100D03*
X64179988Y-41743100D03*
X64179988Y-44243100D03*
X64179988Y-46743100D03*
X64179988Y-49243100D03*
X64179988Y-51743100D03*
X64179988Y-54243100D03*
%TD*%
D17*
%TO.C,J4*%
X64704988Y-3643100D03*
D18*
X64704988Y-6143100D03*
X64704988Y-8643100D03*
X64704988Y-11143100D03*
X64704988Y-13643100D03*
%TD*%
D17*
%TO.C,J8*%
X57194988Y-34243100D03*
D18*
X57194988Y-36743100D03*
X57194988Y-39243100D03*
X57194988Y-41743100D03*
X57194988Y-44243100D03*
X57194988Y-46743100D03*
X57194988Y-49243100D03*
X57194988Y-51743100D03*
X57194988Y-54243100D03*
%TD*%
D19*
%TO.C,J3*%
X3014988Y-8233100D03*
D20*
X5554988Y-8233100D03*
X3014988Y-10773100D03*
X5554988Y-10773100D03*
X3014988Y-13313100D03*
X5554988Y-13313100D03*
X3014988Y-15853100D03*
X5554988Y-15853100D03*
X3014988Y-18393100D03*
X5554988Y-18393100D03*
X3014988Y-20933100D03*
X5554988Y-20933100D03*
X3014988Y-23473100D03*
X5554988Y-23473100D03*
X3014988Y-26013100D03*
X5554988Y-26013100D03*
X3014988Y-28553100D03*
X5554988Y-28553100D03*
X3014988Y-31093100D03*
X5554988Y-31093100D03*
X3014988Y-33633100D03*
X5554988Y-33633100D03*
X3014988Y-36173100D03*
X5554988Y-36173100D03*
X3014988Y-38713100D03*
X5554988Y-38713100D03*
X3014988Y-41253100D03*
X5554988Y-41253100D03*
X3014988Y-43793100D03*
X5554988Y-43793100D03*
X3014988Y-46333100D03*
X5554988Y-46333100D03*
X3014988Y-48873100D03*
X5554988Y-48873100D03*
X3014988Y-51413100D03*
X5554988Y-51413100D03*
X3014988Y-53953100D03*
X5554988Y-53953100D03*
X3014988Y-56493100D03*
X5554988Y-56493100D03*
%TD*%
D17*
%TO.C,J5*%
X57609988Y-3643100D03*
D18*
X57609988Y-6143100D03*
X57609988Y-8643100D03*
X57609988Y-11143100D03*
X57609988Y-13643100D03*
%TD*%
D17*
%TO.C,J14*%
X64069988Y-20053100D03*
D18*
X64069988Y-22553100D03*
X64069988Y-25053100D03*
X64069988Y-27553100D03*
%TD*%
D21*
%TO.C,J2*%
X9354000Y-65744000D03*
D22*
X16554000Y-65744000D03*
D23*
X8464000Y-72944000D03*
X17444000Y-72944000D03*
X17084000Y-66994000D03*
X8824000Y-66994000D03*
%TD*%
D17*
%TO.C,J13*%
X71054988Y-20053100D03*
D18*
X71054988Y-22553100D03*
X71054988Y-25053100D03*
X71054988Y-27553100D03*
%TD*%
D17*
%TO.C,J10*%
X71164988Y-34243100D03*
D18*
X71164988Y-36743100D03*
X71164988Y-39243100D03*
X71164988Y-41743100D03*
X71164988Y-44243100D03*
X71164988Y-46743100D03*
X71164988Y-49243100D03*
X71164988Y-51743100D03*
X71164988Y-54243100D03*
%TD*%
D17*
%TO.C,J11*%
X50099988Y-20053100D03*
D18*
X50099988Y-22553100D03*
X50099988Y-25053100D03*
X50099988Y-27553100D03*
%TD*%
D17*
%TO.C,J7*%
X50209988Y-34243100D03*
D18*
X50209988Y-36743100D03*
X50209988Y-39243100D03*
X50209988Y-41743100D03*
X50209988Y-44243100D03*
X50209988Y-46743100D03*
X50209988Y-49243100D03*
X50209988Y-51743100D03*
X50209988Y-54243100D03*
%TD*%
D17*
%TO.C,J12*%
X57084988Y-20033100D03*
D18*
X57084988Y-22533100D03*
X57084988Y-25033100D03*
X57084988Y-27533100D03*
%TD*%
D24*
X35088616Y-1745000D03*
X30608616Y-8000000D03*
X25726988Y-69051100D03*
X28608616Y-8000000D03*
X30608616Y-10000000D03*
X28608616Y-10000000D03*
D10*
X44416488Y-35403100D03*
X16922616Y-9550000D03*
X40303988Y-43023100D03*
D25*
X20416653Y-62741535D03*
D10*
X9398000Y-63881000D03*
X42208988Y-24438100D03*
X16160616Y-36195000D03*
X44416488Y-50643100D03*
D24*
X19475988Y-19485100D03*
D10*
X41891500Y-7140000D03*
X44748988Y-10722100D03*
X41891500Y-3330000D03*
D25*
X21673653Y-62741535D03*
D10*
X40303988Y-32863100D03*
X15398616Y-36195000D03*
X40303988Y-37943100D03*
D24*
X14878153Y-51449535D03*
D10*
X9954000Y-68499000D03*
X44748988Y-14532100D03*
X22256616Y-39293000D03*
X15454000Y-68499000D03*
X40303988Y-48103100D03*
X17176616Y-30607000D03*
X65005988Y-70793100D03*
X19208616Y-39293000D03*
X11857616Y-2848100D03*
X15704000Y-63369000D03*
X8636000Y-62992000D03*
X19685000Y-72263000D03*
D24*
X24495940Y-1664990D03*
D10*
X44416488Y-45563100D03*
X44416488Y-40483100D03*
D24*
X39503653Y-59636100D03*
X20403653Y-56035535D03*
X23226988Y-65126100D03*
D10*
X27476988Y-68126100D03*
X43577653Y-68761100D03*
D24*
X20403653Y-60635535D03*
D10*
X70085988Y-60823100D03*
D24*
X26607616Y-3015000D03*
D10*
X41891500Y-9040000D03*
X54463988Y-70908100D03*
X41891500Y-5230000D03*
X40303988Y-45223100D03*
X43859988Y-24438100D03*
X44416488Y-47763100D03*
X44416488Y-37603100D03*
X40303988Y-35063100D03*
X44748988Y-12922100D03*
X44748988Y-16732100D03*
X40303988Y-50303100D03*
D24*
X21255153Y-51449535D03*
D10*
X44416488Y-42683100D03*
X42208988Y-29518100D03*
X63735988Y-60823100D03*
X40303988Y-40143100D03*
X18790616Y-34073000D03*
X70719988Y-7102100D03*
X44416488Y-52843100D03*
X20732616Y-39293000D03*
X29127988Y-28629100D03*
X19602988Y-23295100D03*
X24047988Y-22406100D03*
X37120616Y-18215100D03*
X37088616Y-8090000D03*
X66719988Y-57712100D03*
X37088616Y-20790000D03*
X24301988Y-23803100D03*
X37088616Y-5550000D03*
X25444988Y-23803100D03*
X37088616Y-6820000D03*
X18832616Y-28067000D03*
X22256616Y-28067000D03*
X24128616Y-5550000D03*
X24128616Y-6820000D03*
X24128616Y-14445000D03*
X24128616Y-13175000D03*
X24128616Y-11905000D03*
X23780616Y-18255000D03*
X24128616Y-10635000D03*
X37088616Y-3010000D03*
X68624988Y-57712100D03*
X37088616Y-13170000D03*
X24128616Y-9365000D03*
X60369988Y-57712100D03*
X62274988Y-57712100D03*
X24128616Y-8095000D03*
X37088616Y-10635000D03*
X37088616Y-11900000D03*
X37088616Y-4280000D03*
X24128616Y-16985000D03*
X37088616Y-19520000D03*
X37088616Y-16980000D03*
X13208000Y-58928000D03*
X11176000Y-60960000D03*
X13335000Y-68580000D03*
X12700000Y-61468000D03*
X13589000Y-63754000D03*
X12192000Y-67945000D03*
X24128616Y-15715000D03*
X18967988Y-21136100D03*
M02*
