%TF.GenerationSoftware,KiCad,Pcbnew,(6.0.1)*%
%TF.CreationDate,2023-01-01T21:05:58-08:00*%
%TF.ProjectId,ESP32 Protoboard - Small R1,45535033-3220-4507-926f-746f626f6172,rev?*%
%TF.SameCoordinates,Original*%
%TF.FileFunction,Paste,Top*%
%TF.FilePolarity,Positive*%
%FSLAX46Y46*%
G04 Gerber Fmt 4.6, Leading zero omitted, Abs format (unit mm)*
G04 Created by KiCad (PCBNEW (6.0.1)) date 2023-01-01 21:05:58*
%MOMM*%
%LPD*%
G01*
G04 APERTURE LIST*
G04 Aperture macros list*
%AMRoundRect*
0 Rectangle with rounded corners*
0 $1 Rounding radius*
0 $2 $3 $4 $5 $6 $7 $8 $9 X,Y pos of 4 corners*
0 Add a 4 corners polygon primitive as box body*
4,1,4,$2,$3,$4,$5,$6,$7,$8,$9,$2,$3,0*
0 Add four circle primitives for the rounded corners*
1,1,$1+$1,$2,$3*
1,1,$1+$1,$4,$5*
1,1,$1+$1,$6,$7*
1,1,$1+$1,$8,$9*
0 Add four rect primitives between the rounded corners*
20,1,$1+$1,$2,$3,$4,$5,0*
20,1,$1+$1,$4,$5,$6,$7,0*
20,1,$1+$1,$6,$7,$8,$9,0*
20,1,$1+$1,$8,$9,$2,$3,0*%
G04 Aperture macros list end*
%ADD10R,0.800000X0.800000*%
%ADD11RoundRect,0.200000X0.275000X-0.200000X0.275000X0.200000X-0.275000X0.200000X-0.275000X-0.200000X0*%
%ADD12RoundRect,0.200000X0.200000X0.275000X-0.200000X0.275000X-0.200000X-0.275000X0.200000X-0.275000X0*%
%ADD13R,1.500000X1.500000*%
%ADD14RoundRect,0.200000X-0.275000X0.200000X-0.275000X-0.200000X0.275000X-0.200000X0.275000X0.200000X0*%
%ADD15RoundRect,0.225000X0.225000X0.250000X-0.225000X0.250000X-0.225000X-0.250000X0.225000X-0.250000X0*%
%ADD16RoundRect,0.225000X0.250000X-0.225000X0.250000X0.225000X-0.250000X0.225000X-0.250000X-0.225000X0*%
%ADD17RoundRect,0.250000X0.650000X-0.325000X0.650000X0.325000X-0.650000X0.325000X-0.650000X-0.325000X0*%
%ADD18RoundRect,0.150000X0.150000X-0.825000X0.150000X0.825000X-0.150000X0.825000X-0.150000X-0.825000X0*%
%ADD19RoundRect,0.250000X0.787500X1.025000X-0.787500X1.025000X-0.787500X-1.025000X0.787500X-1.025000X0*%
%ADD20RoundRect,0.250000X1.025000X-0.787500X1.025000X0.787500X-1.025000X0.787500X-1.025000X-0.787500X0*%
%ADD21RoundRect,0.250000X-1.025000X0.787500X-1.025000X-0.787500X1.025000X-0.787500X1.025000X0.787500X0*%
%ADD22RoundRect,0.225000X-0.250000X0.225000X-0.250000X-0.225000X0.250000X-0.225000X0.250000X0.225000X0*%
%ADD23R,1.500000X2.000000*%
%ADD24R,3.800000X2.000000*%
%ADD25RoundRect,0.200000X-0.200000X-0.275000X0.200000X-0.275000X0.200000X0.275000X-0.200000X0.275000X0*%
%ADD26R,2.500000X1.800000*%
%ADD27R,2.000000X0.900000*%
%ADD28R,0.900000X2.000000*%
%ADD29R,5.000000X5.000000*%
%ADD30R,4.000000X3.500000*%
%ADD31RoundRect,0.150000X-0.587500X-0.150000X0.587500X-0.150000X0.587500X0.150000X-0.587500X0.150000X0*%
G04 APERTURE END LIST*
D10*
%TO.C,D12*%
X5207000Y-24118000D03*
X5207000Y-22618000D03*
%TD*%
D11*
%TO.C,R10*%
X5207000Y-21145000D03*
X5207000Y-19495000D03*
%TD*%
D12*
%TO.C,R14*%
X51826000Y-10160000D03*
X50176000Y-10160000D03*
%TD*%
D13*
%TO.C,SW1*%
X2159000Y-6768000D03*
X2159000Y-14568000D03*
%TD*%
D14*
%TO.C,R6*%
X5334000Y-15177000D03*
X5334000Y-16827000D03*
%TD*%
D15*
%TO.C,C3*%
X7379000Y-34798000D03*
X5829000Y-34798000D03*
%TD*%
D16*
%TO.C,C11*%
X12700000Y-26429000D03*
X12700000Y-24879000D03*
%TD*%
D17*
%TO.C,C2*%
X12446000Y-51513000D03*
X12446000Y-48563000D03*
%TD*%
D10*
%TO.C,D8*%
X6985000Y-24118000D03*
X6985000Y-22618000D03*
%TD*%
D11*
%TO.C,R4*%
X6731000Y-6286000D03*
X6731000Y-4636000D03*
%TD*%
D12*
%TO.C,R15*%
X51953000Y-15277500D03*
X50303000Y-15277500D03*
%TD*%
%TO.C,R5*%
X26257000Y-21500000D03*
X24607000Y-21500000D03*
%TD*%
D10*
%TO.C,D7*%
X1016000Y-41338000D03*
X1016000Y-39838000D03*
%TD*%
D18*
%TO.C,U2*%
X6096000Y-50717000D03*
X7366000Y-50717000D03*
X8636000Y-50717000D03*
X9906000Y-50717000D03*
X9906000Y-45767000D03*
X8636000Y-45767000D03*
X7366000Y-45767000D03*
X6096000Y-45767000D03*
%TD*%
D13*
%TO.C,SW2*%
X2159000Y-16674000D03*
X2159000Y-24474000D03*
%TD*%
D19*
%TO.C,C4*%
X9363500Y-37992000D03*
X3138500Y-37992000D03*
%TD*%
D11*
%TO.C,R26*%
X1016000Y-38163000D03*
X1016000Y-36513000D03*
%TD*%
D20*
%TO.C,C7*%
X2751000Y-52104500D03*
X2751000Y-45879500D03*
%TD*%
D21*
%TO.C,C10*%
X2540000Y-26986500D03*
X2540000Y-33211500D03*
%TD*%
D16*
%TO.C,C9*%
X7000000Y-2934000D03*
X7000000Y-1384000D03*
%TD*%
D22*
%TO.C,C8*%
X5207000Y-9512000D03*
X5207000Y-11062000D03*
%TD*%
D23*
%TO.C,U3*%
X7098000Y-32741000D03*
X9398000Y-32741000D03*
D24*
X9398000Y-26441000D03*
D23*
X11698000Y-32741000D03*
%TD*%
D11*
%TO.C,R27*%
X8636000Y-22923000D03*
X8636000Y-21273000D03*
%TD*%
D22*
%TO.C,C6*%
X13843000Y-33007000D03*
X13843000Y-34557000D03*
%TD*%
D15*
%TO.C,C5*%
X10026000Y-52742000D03*
X8476000Y-52742000D03*
%TD*%
D25*
%TO.C,R7*%
X5144000Y-13589000D03*
X6794000Y-13589000D03*
%TD*%
%TO.C,R3*%
X5144000Y-7874000D03*
X6794000Y-7874000D03*
%TD*%
D26*
%TO.C,D1*%
X8251000Y-42492000D03*
X4251000Y-42492000D03*
%TD*%
D27*
%TO.C,U1*%
X9250000Y-1745000D03*
X9250000Y-3015000D03*
X9250000Y-4285000D03*
X9250000Y-5555000D03*
X9250000Y-6825000D03*
X9250000Y-8095000D03*
X9250000Y-9365000D03*
X9250000Y-10635000D03*
X9250000Y-11905000D03*
X9250000Y-13175000D03*
X9250000Y-14445000D03*
X9250000Y-15715000D03*
X9250000Y-16985000D03*
X9250000Y-18255000D03*
D28*
X12035000Y-19255000D03*
X13305000Y-19255000D03*
X14575000Y-19255000D03*
X15845000Y-19255000D03*
X17115000Y-19255000D03*
X18385000Y-19255000D03*
X19655000Y-19255000D03*
X20925000Y-19255000D03*
X22195000Y-19255000D03*
X23465000Y-19255000D03*
D27*
X26250000Y-18255000D03*
X26250000Y-16985000D03*
X26250000Y-15715000D03*
X26250000Y-14445000D03*
X26250000Y-13175000D03*
X26250000Y-11905000D03*
X26250000Y-10635000D03*
X26250000Y-9365000D03*
X26250000Y-8095000D03*
X26250000Y-6825000D03*
X26250000Y-5555000D03*
X26250000Y-4285000D03*
X26250000Y-3015000D03*
X26250000Y-1745000D03*
D29*
X16750000Y-9245000D03*
%TD*%
D30*
%TO.C,L1*%
X16251000Y-45492000D03*
X16251000Y-37492000D03*
%TD*%
D25*
%TO.C,R2*%
X33465000Y-3556000D03*
X35115000Y-3556000D03*
%TD*%
D22*
%TO.C,C13*%
X6985000Y-15227000D03*
X6985000Y-16777000D03*
%TD*%
D25*
%TO.C,R1*%
X33465000Y-1524000D03*
X35115000Y-1524000D03*
%TD*%
%TO.C,R8*%
X33465000Y-7239000D03*
X35115000Y-7239000D03*
%TD*%
D31*
%TO.C,D3*%
X29542500Y-1590000D03*
X29542500Y-3490000D03*
X31417500Y-2540000D03*
%TD*%
D25*
%TO.C,R9*%
X33465000Y-5461000D03*
X35115000Y-5461000D03*
%TD*%
D31*
%TO.C,D2*%
X49989500Y-11750000D03*
X49989500Y-13650000D03*
X51864500Y-12700000D03*
%TD*%
D22*
%TO.C,C12*%
X6858000Y-9512000D03*
X6858000Y-11062000D03*
%TD*%
D31*
%TO.C,D4*%
X29542500Y-5400000D03*
X29542500Y-7300000D03*
X31417500Y-6350000D03*
%TD*%
M02*
