M48
; DRILL file {KiCad (6.0.1)} date Sat Jan  7 21:21:10 2023
; FORMAT={-:-/ absolute / inch / decimal}
; #@! TF.CreationDate,2023-01-07T21:21:10-08:00
; #@! TF.GenerationSoftware,Kicad,Pcbnew,(6.0.1)
; #@! TF.FileFunction,Plated,1,4,PTH
FMAT,2
INCH
; #@! TA.AperFunction,Plated,PTH,ViaDrill
T1C0.0157
; #@! TA.AperFunction,Plated,PTH,ViaDrill
T2C0.0197
; #@! TA.AperFunction,Plated,PTH,ComponentDrill
T3C0.0197
; #@! TA.AperFunction,Plated,PTH,ComponentDrill
T4C0.0315
; #@! TA.AperFunction,Plated,PTH,ComponentDrill
T5C0.0374
; #@! TA.AperFunction,Plated,PTH,ViaDrill
T6C0.0394
; #@! TA.AperFunction,Plated,PTH,ComponentDrill
T7C0.0394
; #@! TA.AperFunction,Plated,PTH,ComponentDrill
T8C0.0984
%
G90
G05
T1
X0.34Y-2.48
X0.37Y-2.515
X0.3919Y-2.6968
X0.44Y-2.4
X0.4668Y-0.1121
X0.48Y-2.675
X0.5Y-2.42
X0.52Y-2.32
X0.525Y-2.7
X0.535Y-2.51
X0.6062Y-1.425
X0.6084Y-2.6968
X0.6183Y-2.4948
X0.6362Y-1.425
X0.6662Y-0.376
X0.6762Y-1.205
X0.7398Y-1.3415
X0.7414Y-1.105
X0.7468Y-0.8321
X0.7562Y-1.547
X0.7718Y-0.9171
X0.775Y-2.845
X0.8162Y-1.547
X0.8762Y-1.105
X0.8762Y-1.547
X0.9362Y-0.7187
X0.9468Y-0.8821
X0.9499Y-0.2185
X0.9499Y-0.2685
X0.9499Y-0.3187
X0.9499Y-0.3687
X0.9499Y-0.4187
X0.9499Y-0.4687
X0.9499Y-0.5187
X0.9499Y-0.5687
X0.9499Y-0.6187
X0.9499Y-0.6687
X0.9568Y-0.9371
X1.0018Y-0.9371
X1.0818Y-2.6821
X1.1468Y-1.1271
X1.4602Y-0.1185
X1.4602Y-0.1685
X1.4602Y-0.2185
X1.4602Y-0.2685
X1.4602Y-0.3185
X1.4602Y-0.4187
X1.4602Y-0.4685
X1.4602Y-0.5185
X1.4602Y-0.6685
X1.4602Y-0.7685
X1.4602Y-0.8185
X1.4614Y-0.7171
X1.5868Y-1.2938
X1.5868Y-1.3804
X1.5868Y-1.4938
X1.5868Y-1.5804
X1.5868Y-1.6938
X1.5868Y-1.7804
X1.5868Y-1.8938
X1.5868Y-1.9804
X1.6493Y-0.1311
X1.6493Y-0.2059
X1.6493Y-0.2811
X1.6493Y-0.3559
X1.6618Y-0.9621
X1.6618Y-1.1621
X1.7157Y-2.7071
X1.7268Y-0.9621
X1.7487Y-1.3938
X1.7487Y-1.4804
X1.7487Y-1.5938
X1.7487Y-1.6804
X1.7487Y-1.7938
X1.7487Y-1.8804
X1.7487Y-1.9938
X1.7487Y-2.0804
X1.7618Y-0.4221
X1.7618Y-0.5087
X1.7618Y-0.5721
X1.7618Y-0.6587
X2.1443Y-2.7917
X2.3768Y-2.2721
X2.4518Y-2.2721
X2.5093Y-2.3946
X2.5593Y-2.7871
X2.6268Y-2.2721
X2.7018Y-2.2721
X2.7593Y-2.3946
X2.7843Y-0.2796
T2
X0.8038Y-2.4701
X0.8533Y-2.4701
T3
X0.0443Y-0.1181
X0.0443Y-2.8346
X0.0659Y-0.0659
X0.0659Y-0.1703
X0.0659Y-2.7824
X0.0659Y-2.8868
X0.1181Y-0.0443
X0.1181Y-0.1919
X0.1181Y-2.7608
X0.1181Y-2.9085
X0.1703Y-0.0659
X0.1703Y-0.1703
X0.1703Y-2.7824
X0.1703Y-2.8868
X0.1919Y-0.1181
X0.1919Y-2.8346
X2.7608Y-0.1181
X2.7608Y-2.8346
X2.7824Y-0.0659
X2.7824Y-0.1703
X2.7824Y-2.7824
X2.7824Y-2.8868
X2.8346Y-0.0443
X2.8346Y-0.1919
X2.8346Y-2.7608
X2.8346Y-2.9085
X2.8868Y-0.0659
X2.8868Y-0.1703
X2.8868Y-2.7824
X2.8868Y-2.8868
X2.9085Y-0.1181
X2.9085Y-2.8346
T4
X1.8883Y-2.4787
X1.8883Y-2.5771
T5
X1.9724Y-0.7895
X1.9724Y-0.8879
X1.9724Y-0.9863
X1.9724Y-1.0848
X1.9768Y-1.3482
X1.9768Y-1.4466
X1.9768Y-1.545
X1.9768Y-1.6434
X1.9768Y-1.7419
X1.9768Y-1.8403
X1.9768Y-1.9387
X1.9768Y-2.0371
X1.9768Y-2.1356
X1.9974Y-0.1434
X1.9974Y-0.2419
X1.9974Y-0.3403
X1.9974Y-0.4387
X1.9974Y-0.5371
X2.2474Y-0.7887
X2.2474Y-0.8871
X2.2474Y-0.9856
X2.2474Y-1.084
X2.2518Y-1.3482
X2.2518Y-1.4466
X2.2518Y-1.545
X2.2518Y-1.6434
X2.2518Y-1.7419
X2.2518Y-1.8403
X2.2518Y-1.9387
X2.2518Y-2.0371
X2.2518Y-2.1356
X2.2681Y-0.1434
X2.2681Y-0.2419
X2.2681Y-0.3403
X2.2681Y-0.4387
X2.2681Y-0.5371
X2.5224Y-0.7895
X2.5224Y-0.8879
X2.5224Y-0.9863
X2.5224Y-1.0848
X2.5268Y-1.3482
X2.5268Y-1.4466
X2.5268Y-1.545
X2.5268Y-1.6434
X2.5268Y-1.7419
X2.5268Y-1.8403
X2.5268Y-1.9387
X2.5268Y-2.0371
X2.5268Y-2.1356
X2.5474Y-0.1434
X2.5474Y-0.2419
X2.5474Y-0.3403
X2.5474Y-0.4387
X2.5474Y-0.5371
X2.7974Y-0.7895
X2.7974Y-0.8879
X2.7974Y-0.9863
X2.7974Y-1.0848
X2.8018Y-1.3482
X2.8018Y-1.4466
X2.8018Y-1.545
X2.8018Y-1.6434
X2.8018Y-1.7419
X2.8018Y-1.8403
X2.8018Y-1.9387
X2.8018Y-2.0371
X2.8018Y-2.1356
T6
X0.5858Y-2.0256
X0.7668Y-0.7671
X0.8033Y-2.2061
X0.8033Y-2.3872
X0.8368Y-2.0256
X0.9144Y-2.564
X0.9644Y-0.0656
X1.0129Y-2.7185
X1.0475Y-0.1187
X1.1263Y-0.315
X1.1263Y-0.3937
X1.2051Y-0.315
X1.2051Y-0.3937
X1.3814Y-0.0687
X1.5553Y-2.3479
T7
X0.1187Y-0.3241
X0.1187Y-0.4241
X0.1187Y-0.5241
X0.1187Y-0.6241
X0.1187Y-0.7241
X0.1187Y-0.8241
X0.1187Y-0.9241
X0.1187Y-1.0241
X0.1187Y-1.1241
X0.1187Y-1.2241
X0.1187Y-1.3241
X0.1187Y-1.4241
X0.1187Y-1.5241
X0.1187Y-1.6241
X0.1187Y-1.7241
X0.1187Y-1.8241
X0.1187Y-1.9241
X0.1187Y-2.0241
X0.1187Y-2.1241
X0.1187Y-2.2241
X0.2187Y-0.3241
X0.2187Y-0.4241
X0.2187Y-0.5241
X0.2187Y-0.6241
X0.2187Y-0.7241
X0.2187Y-0.8241
X0.2187Y-0.9241
X0.2187Y-1.0241
X0.2187Y-1.1241
X0.2187Y-1.2241
X0.2187Y-1.3241
X0.2187Y-1.4241
X0.2187Y-1.5241
X0.2187Y-1.6241
X0.2187Y-1.7241
X0.2187Y-1.8241
X0.2187Y-1.9241
X0.2187Y-2.0241
X0.2187Y-2.1241
X0.2187Y-2.2241
X1.8783Y-2.8185
X1.9767Y-2.8185
T8
X0.1181Y-0.1181
X0.1181Y-2.8346
X2.8346Y-0.1181
X2.8346Y-2.8346
T3
G00X0.3332Y-2.86
M15
G01X0.3332Y-2.8836
M16
G05
G00X0.3474Y-2.6257
M15
G01X0.3474Y-2.6494
M16
G05
G00X0.6726Y-2.6257
M15
G01X0.6726Y-2.6494
M16
G05
G00X0.6868Y-2.86
M15
G01X0.6868Y-2.8836
M16
G05
T0
M30
