%TF.GenerationSoftware,KiCad,Pcbnew,(6.0.1)*%
%TF.CreationDate,2023-01-07T21:21:10-08:00*%
%TF.ProjectId,ESP32 Dev Carrier - R1,45535033-3220-4446-9576-204361727269,rev?*%
%TF.SameCoordinates,Original*%
%TF.FileFunction,Copper,L4,Bot*%
%TF.FilePolarity,Positive*%
%FSLAX46Y46*%
G04 Gerber Fmt 4.6, Leading zero omitted, Abs format (unit mm)*
G04 Created by KiCad (PCBNEW (6.0.1)) date 2023-01-07 21:21:10*
%MOMM*%
%LPD*%
G01*
G04 APERTURE LIST*
G04 Aperture macros list*
%AMRoundRect*
0 Rectangle with rounded corners*
0 $1 Rounding radius*
0 $2 $3 $4 $5 $6 $7 $8 $9 X,Y pos of 4 corners*
0 Add a 4 corners polygon primitive as box body*
4,1,4,$2,$3,$4,$5,$6,$7,$8,$9,$2,$3,0*
0 Add four circle primitives for the rounded corners*
1,1,$1+$1,$2,$3*
1,1,$1+$1,$4,$5*
1,1,$1+$1,$6,$7*
1,1,$1+$1,$8,$9*
0 Add four rect primitives between the rounded corners*
20,1,$1+$1,$2,$3,$4,$5,0*
20,1,$1+$1,$4,$5,$6,$7,0*
20,1,$1+$1,$6,$7,$8,$9,0*
20,1,$1+$1,$8,$9,$2,$3,0*%
G04 Aperture macros list end*
%TA.AperFunction,ComponentPad*%
%ADD10C,0.800000*%
%TD*%
%TA.AperFunction,ComponentPad*%
%ADD11C,5.000000*%
%TD*%
%TA.AperFunction,ComponentPad*%
%ADD12R,1.600000X1.600000*%
%TD*%
%TA.AperFunction,ComponentPad*%
%ADD13C,1.600000*%
%TD*%
%TA.AperFunction,ComponentPad*%
%ADD14RoundRect,0.250000X0.600000X0.750000X-0.600000X0.750000X-0.600000X-0.750000X0.600000X-0.750000X0*%
%TD*%
%TA.AperFunction,ComponentPad*%
%ADD15O,1.700000X2.000000*%
%TD*%
%TA.AperFunction,ComponentPad*%
%ADD16RoundRect,0.250000X-0.725000X0.600000X-0.725000X-0.600000X0.725000X-0.600000X0.725000X0.600000X0*%
%TD*%
%TA.AperFunction,ComponentPad*%
%ADD17O,1.950000X1.700000*%
%TD*%
%TA.AperFunction,ComponentPad*%
%ADD18R,1.700000X1.700000*%
%TD*%
%TA.AperFunction,ComponentPad*%
%ADD19O,1.700000X1.700000*%
%TD*%
%TA.AperFunction,ComponentPad*%
%ADD20O,0.800000X1.400000*%
%TD*%
%TA.AperFunction,ViaPad*%
%ADD21C,1.800000*%
%TD*%
%TA.AperFunction,ViaPad*%
%ADD22C,0.800000*%
%TD*%
%TA.AperFunction,ViaPad*%
%ADD23C,1.000000*%
%TD*%
%TA.AperFunction,Conductor*%
%ADD24C,1.000000*%
%TD*%
%TA.AperFunction,Conductor*%
%ADD25C,0.250000*%
%TD*%
%TA.AperFunction,Conductor*%
%ADD26C,0.200000*%
%TD*%
G04 APERTURE END LIST*
D10*
%TO.P,H4,1*%
%TO.N,N/C*%
X70674175Y-73325825D03*
X70125000Y-72000000D03*
X70674175Y-70674175D03*
D11*
X72000000Y-72000000D03*
D10*
X73875000Y-72000000D03*
X73325825Y-73325825D03*
X73325825Y-70674175D03*
X72000000Y-70125000D03*
X72000000Y-73875000D03*
%TD*%
%TO.P,H3,1*%
%TO.N,N/C*%
X72000000Y-1125000D03*
X70674175Y-4325825D03*
D11*
X72000000Y-3000000D03*
D10*
X73325825Y-4325825D03*
X72000000Y-4875000D03*
X70674175Y-1674175D03*
X70125000Y-3000000D03*
X73325825Y-1674175D03*
X73875000Y-3000000D03*
%TD*%
D12*
%TO.P,C1,1*%
%TO.N,VCC*%
X47962653Y-65459100D03*
D13*
%TO.P,C1,2*%
%TO.N,GND*%
X47962653Y-62959100D03*
%TD*%
D10*
%TO.P,H2,1*%
%TO.N,N/C*%
X3000000Y-70125000D03*
D11*
X3000000Y-72000000D03*
D10*
X3000000Y-73875000D03*
X4875000Y-72000000D03*
X4325825Y-70674175D03*
X1125000Y-72000000D03*
X1674175Y-73325825D03*
X4325825Y-73325825D03*
X1674175Y-70674175D03*
%TD*%
%TO.P,H1,1*%
%TO.N,N/C*%
X4325825Y-4325825D03*
X3000000Y-1125000D03*
X4325825Y-1674175D03*
X1674175Y-1674175D03*
D11*
X3000000Y-3000000D03*
D10*
X4875000Y-3000000D03*
X1674175Y-4325825D03*
X1125000Y-3000000D03*
X3000000Y-4875000D03*
%TD*%
D14*
%TO.P,J1,1,Pin_1*%
%TO.N,GND*%
X50208653Y-71589100D03*
D15*
%TO.P,J1,2,Pin_2*%
%TO.N,VCC*%
X47708653Y-71589100D03*
%TD*%
D16*
%TO.P,J6,1,Pin_1*%
%TO.N,+5V*%
X50734988Y-3643100D03*
D17*
%TO.P,J6,2,Pin_2*%
%TO.N,+3V3*%
X50734988Y-6143100D03*
%TO.P,J6,3,Pin_3*%
%TO.N,Net-(J3-Pad20)*%
X50734988Y-8643100D03*
%TO.P,J6,4,Pin_4*%
%TO.N,Net-(J3-Pad23)*%
X50734988Y-11143100D03*
%TO.P,J6,5,Pin_5*%
%TO.N,GND*%
X50734988Y-13643100D03*
%TD*%
D16*
%TO.P,J9,1,Pin_1*%
%TO.N,+5V*%
X64179988Y-34243100D03*
D17*
%TO.P,J9,2,Pin_2*%
%TO.N,+3V3*%
X64179988Y-36743100D03*
%TO.P,J9,3,Pin_3*%
%TO.N,Net-(D11-Pad3)*%
X64179988Y-39243100D03*
%TO.P,J9,4,Pin_4*%
%TO.N,Net-(D13-Pad3)*%
X64179988Y-41743100D03*
%TO.P,J9,5,Pin_5*%
%TO.N,Net-(D10-Pad3)*%
X64179988Y-44243100D03*
%TO.P,J9,6,Pin_6*%
%TO.N,Net-(D9-Pad3)*%
X64179988Y-46743100D03*
%TO.P,J9,7,Pin_7*%
%TO.N,Net-(D6-Pad3)*%
X64179988Y-49243100D03*
%TO.P,J9,8,Pin_8*%
%TO.N,Net-(D5-Pad3)*%
X64179988Y-51743100D03*
%TO.P,J9,9,Pin_9*%
%TO.N,GND*%
X64179988Y-54243100D03*
%TD*%
D16*
%TO.P,J4,1,Pin_1*%
%TO.N,+5V*%
X64704988Y-3643100D03*
D17*
%TO.P,J4,2,Pin_2*%
%TO.N,+3V3*%
X64704988Y-6143100D03*
%TO.P,J4,3,Pin_3*%
%TO.N,Net-(J3-Pad20)*%
X64704988Y-8643100D03*
%TO.P,J4,4,Pin_4*%
%TO.N,Net-(J3-Pad23)*%
X64704988Y-11143100D03*
%TO.P,J4,5,Pin_5*%
%TO.N,GND*%
X64704988Y-13643100D03*
%TD*%
D16*
%TO.P,J8,1,Pin_1*%
%TO.N,+5V*%
X57194988Y-34243100D03*
D17*
%TO.P,J8,2,Pin_2*%
%TO.N,+3V3*%
X57194988Y-36743100D03*
%TO.P,J8,3,Pin_3*%
%TO.N,Net-(D15-Pad3)*%
X57194988Y-39243100D03*
%TO.P,J8,4,Pin_4*%
%TO.N,Net-(D14-Pad3)*%
X57194988Y-41743100D03*
%TO.P,J8,5,Pin_5*%
%TO.N,Net-(D10-Pad3)*%
X57194988Y-44243100D03*
%TO.P,J8,6,Pin_6*%
%TO.N,Net-(D9-Pad3)*%
X57194988Y-46743100D03*
%TO.P,J8,7,Pin_7*%
%TO.N,Net-(D6-Pad3)*%
X57194988Y-49243100D03*
%TO.P,J8,8,Pin_8*%
%TO.N,Net-(D5-Pad3)*%
X57194988Y-51743100D03*
%TO.P,J8,9,Pin_9*%
%TO.N,GND*%
X57194988Y-54243100D03*
%TD*%
D18*
%TO.P,J3,1,Pin_1*%
%TO.N,GND*%
X3014988Y-8233100D03*
D19*
%TO.P,J3,2,Pin_2*%
X5554988Y-8233100D03*
%TO.P,J3,3,Pin_3*%
%TO.N,+3V3*%
X3014988Y-10773100D03*
%TO.P,J3,4,Pin_4*%
X5554988Y-10773100D03*
%TO.P,J3,5,Pin_5*%
%TO.N,GND*%
X3014988Y-13313100D03*
%TO.P,J3,6,Pin_6*%
X5554988Y-13313100D03*
%TO.P,J3,7,Pin_7*%
%TO.N,Net-(J3-Pad7)*%
X3014988Y-15853100D03*
%TO.P,J3,8,Pin_8*%
%TO.N,Net-(J3-Pad8)*%
X5554988Y-15853100D03*
%TO.P,J3,9,Pin_9*%
%TO.N,Net-(D15-Pad3)*%
X3014988Y-18393100D03*
%TO.P,J3,10,Pin_10*%
%TO.N,Net-(D14-Pad3)*%
X5554988Y-18393100D03*
%TO.P,J3,11,Pin_11*%
%TO.N,Net-(D10-Pad3)*%
X3014988Y-20933100D03*
%TO.P,J3,12,Pin_12*%
%TO.N,Net-(D9-Pad3)*%
X5554988Y-20933100D03*
%TO.P,J3,13,Pin_13*%
%TO.N,Net-(D6-Pad3)*%
X3014988Y-23473100D03*
%TO.P,J3,14,Pin_14*%
%TO.N,Net-(D5-Pad3)*%
X5554988Y-23473100D03*
%TO.P,J3,15,Pin_15*%
%TO.N,/GPIP27*%
X3014988Y-26013100D03*
%TO.P,J3,16,Pin_16*%
%TO.N,Net-(J3-Pad16)*%
X5554988Y-26013100D03*
%TO.P,J3,17,Pin_17*%
%TO.N,Net-(J3-Pad17)*%
X3014988Y-28553100D03*
%TO.P,J3,18,Pin_18*%
%TO.N,/GPIO13*%
X5554988Y-28553100D03*
%TO.P,J3,19,Pin_19*%
%TO.N,Net-(J3-Pad19)*%
X3014988Y-31093100D03*
%TO.P,J3,20,Pin_20*%
%TO.N,Net-(J3-Pad20)*%
X5554988Y-31093100D03*
%TO.P,J3,21,Pin_21*%
%TO.N,/MISO*%
X3014988Y-33633100D03*
%TO.P,J3,22,Pin_22*%
%TO.N,/MOSI*%
X5554988Y-33633100D03*
%TO.P,J3,23,Pin_23*%
%TO.N,Net-(J3-Pad23)*%
X3014988Y-36173100D03*
%TO.P,J3,24,Pin_24*%
%TO.N,Net-(D16-Pad3)*%
X5554988Y-36173100D03*
%TO.P,J3,25,Pin_25*%
%TO.N,Net-(D17-Pad3)*%
X3014988Y-38713100D03*
%TO.P,J3,26,Pin_26*%
%TO.N,Net-(D11-Pad3)*%
X5554988Y-38713100D03*
%TO.P,J3,27,Pin_27*%
%TO.N,/IO4*%
X3014988Y-41253100D03*
%TO.P,J3,28,Pin_28*%
%TO.N,/PROG*%
X5554988Y-41253100D03*
%TO.P,J3,29,Pin_29*%
%TO.N,/IO2*%
X3014988Y-43793100D03*
%TO.P,J3,30,Pin_30*%
%TO.N,Net-(D13-Pad3)*%
X5554988Y-43793100D03*
%TO.P,J3,31,Pin_31*%
%TO.N,GND*%
X3014988Y-46333100D03*
%TO.P,J3,32,Pin_32*%
X5554988Y-46333100D03*
%TO.P,J3,33,Pin_33*%
%TO.N,+3V3*%
X3014988Y-48873100D03*
%TO.P,J3,34,Pin_34*%
X5554988Y-48873100D03*
%TO.P,J3,35,Pin_35*%
%TO.N,+5V*%
X3014988Y-51413100D03*
%TO.P,J3,36,Pin_36*%
X5554988Y-51413100D03*
%TO.P,J3,37,Pin_37*%
%TO.N,VCC*%
X3014988Y-53953100D03*
%TO.P,J3,38,Pin_38*%
X5554988Y-53953100D03*
%TO.P,J3,39,Pin_39*%
%TO.N,GND*%
X3014988Y-56493100D03*
%TO.P,J3,40,Pin_40*%
X5554988Y-56493100D03*
%TD*%
D16*
%TO.P,J5,1,Pin_1*%
%TO.N,+5V*%
X57609988Y-3643100D03*
D17*
%TO.P,J5,2,Pin_2*%
%TO.N,+3V3*%
X57609988Y-6143100D03*
%TO.P,J5,3,Pin_3*%
%TO.N,Net-(J3-Pad20)*%
X57609988Y-8643100D03*
%TO.P,J5,4,Pin_4*%
%TO.N,Net-(J3-Pad23)*%
X57609988Y-11143100D03*
%TO.P,J5,5,Pin_5*%
%TO.N,GND*%
X57609988Y-13643100D03*
%TD*%
D16*
%TO.P,J14,1,Pin_1*%
%TO.N,+5V*%
X64069988Y-20053100D03*
D17*
%TO.P,J14,2,Pin_2*%
%TO.N,+3V3*%
X64069988Y-22553100D03*
%TO.P,J14,3,Pin_3*%
%TO.N,Net-(D17-Pad3)*%
X64069988Y-25053100D03*
%TO.P,J14,4,Pin_4*%
%TO.N,GND*%
X64069988Y-27553100D03*
%TD*%
D20*
%TO.P,J2,S1,SHIELD*%
%TO.N,unconnected-(J2-PadS1)*%
X8464000Y-72944000D03*
X17444000Y-72944000D03*
X17084000Y-66994000D03*
X8824000Y-66994000D03*
%TD*%
D16*
%TO.P,J13,1,Pin_1*%
%TO.N,+5V*%
X71054988Y-20053100D03*
D17*
%TO.P,J13,2,Pin_2*%
%TO.N,+3V3*%
X71054988Y-22553100D03*
%TO.P,J13,3,Pin_3*%
%TO.N,Net-(D17-Pad3)*%
X71054988Y-25053100D03*
%TO.P,J13,4,Pin_4*%
%TO.N,GND*%
X71054988Y-27553100D03*
%TD*%
D16*
%TO.P,J10,1,Pin_1*%
%TO.N,+5V*%
X71164988Y-34243100D03*
D17*
%TO.P,J10,2,Pin_2*%
%TO.N,+3V3*%
X71164988Y-36743100D03*
%TO.P,J10,3,Pin_3*%
%TO.N,Net-(D11-Pad3)*%
X71164988Y-39243100D03*
%TO.P,J10,4,Pin_4*%
%TO.N,Net-(D13-Pad3)*%
X71164988Y-41743100D03*
%TO.P,J10,5,Pin_5*%
%TO.N,Net-(D10-Pad3)*%
X71164988Y-44243100D03*
%TO.P,J10,6,Pin_6*%
%TO.N,Net-(D9-Pad3)*%
X71164988Y-46743100D03*
%TO.P,J10,7,Pin_7*%
%TO.N,Net-(D6-Pad3)*%
X71164988Y-49243100D03*
%TO.P,J10,8,Pin_8*%
%TO.N,Net-(D5-Pad3)*%
X71164988Y-51743100D03*
%TO.P,J10,9,Pin_9*%
%TO.N,GND*%
X71164988Y-54243100D03*
%TD*%
D16*
%TO.P,J11,1,Pin_1*%
%TO.N,+5V*%
X50099988Y-20053100D03*
D17*
%TO.P,J11,2,Pin_2*%
%TO.N,+3V3*%
X50099988Y-22553100D03*
%TO.P,J11,3,Pin_3*%
%TO.N,Net-(D16-Pad3)*%
X50099988Y-25053100D03*
%TO.P,J11,4,Pin_4*%
%TO.N,GND*%
X50099988Y-27553100D03*
%TD*%
D16*
%TO.P,J7,1,Pin_1*%
%TO.N,+5V*%
X50209988Y-34243100D03*
D17*
%TO.P,J7,2,Pin_2*%
%TO.N,+3V3*%
X50209988Y-36743100D03*
%TO.P,J7,3,Pin_3*%
%TO.N,Net-(D15-Pad3)*%
X50209988Y-39243100D03*
%TO.P,J7,4,Pin_4*%
%TO.N,Net-(D14-Pad3)*%
X50209988Y-41743100D03*
%TO.P,J7,5,Pin_5*%
%TO.N,Net-(D10-Pad3)*%
X50209988Y-44243100D03*
%TO.P,J7,6,Pin_6*%
%TO.N,Net-(D9-Pad3)*%
X50209988Y-46743100D03*
%TO.P,J7,7,Pin_7*%
%TO.N,Net-(D6-Pad3)*%
X50209988Y-49243100D03*
%TO.P,J7,8,Pin_8*%
%TO.N,Net-(D5-Pad3)*%
X50209988Y-51743100D03*
%TO.P,J7,9,Pin_9*%
%TO.N,GND*%
X50209988Y-54243100D03*
%TD*%
D16*
%TO.P,J12,1,Pin_1*%
%TO.N,+5V*%
X57084988Y-20033100D03*
D17*
%TO.P,J12,2,Pin_2*%
%TO.N,+3V3*%
X57084988Y-22533100D03*
%TO.P,J12,3,Pin_3*%
%TO.N,Net-(D16-Pad3)*%
X57084988Y-25033100D03*
%TO.P,J12,4,Pin_4*%
%TO.N,GND*%
X57084988Y-27533100D03*
%TD*%
D21*
%TO.N,GND*%
X35088616Y-1745000D03*
X30608616Y-8000000D03*
X25726988Y-69051100D03*
X28608616Y-8000000D03*
X30608616Y-10000000D03*
X28608616Y-10000000D03*
D22*
X44416488Y-35403100D03*
X16922616Y-9550000D03*
X40303988Y-43023100D03*
D23*
X20416653Y-62741535D03*
D22*
X9398000Y-63881000D03*
X42208988Y-24438100D03*
X16160616Y-36195000D03*
X44416488Y-50643100D03*
D21*
X19475988Y-19485100D03*
D22*
X41891500Y-7140000D03*
X44748988Y-10722100D03*
X41891500Y-3330000D03*
D23*
X21673653Y-62741535D03*
D22*
X40303988Y-32863100D03*
X15398616Y-36195000D03*
X40303988Y-37943100D03*
D21*
X14878153Y-51449535D03*
D22*
X9954000Y-68499000D03*
X44748988Y-14532100D03*
X22256616Y-39293000D03*
X15454000Y-68499000D03*
X40303988Y-48103100D03*
X17176616Y-30607000D03*
X65005988Y-70793100D03*
X19208616Y-39293000D03*
X11857616Y-2848100D03*
X15704000Y-63369000D03*
X8636000Y-62992000D03*
X19685000Y-72263000D03*
D21*
X24495940Y-1664990D03*
D22*
X44416488Y-45563100D03*
X44416488Y-40483100D03*
D21*
X39503653Y-59636100D03*
X20403653Y-56035535D03*
%TO.N,+5V*%
X23226988Y-65126100D03*
D22*
X27476988Y-68126100D03*
X43577653Y-68761100D03*
D21*
X20403653Y-60635535D03*
D22*
%TO.N,+3V3*%
X70085988Y-60823100D03*
D21*
X26607616Y-3015000D03*
D22*
X41891500Y-9040000D03*
X54463988Y-70908100D03*
X41891500Y-5230000D03*
X40303988Y-45223100D03*
X43859988Y-24438100D03*
X44416488Y-47763100D03*
X44416488Y-37603100D03*
X40303988Y-35063100D03*
X44748988Y-12922100D03*
X44748988Y-16732100D03*
X40303988Y-50303100D03*
D21*
X21255153Y-51449535D03*
D22*
X44416488Y-42683100D03*
X42208988Y-29518100D03*
X63735988Y-60823100D03*
X40303988Y-40143100D03*
X18790616Y-34073000D03*
X70719988Y-7102100D03*
X44416488Y-52843100D03*
X20732616Y-39293000D03*
%TO.N,/PROG*%
X29127988Y-28629100D03*
X19602988Y-23295100D03*
X24047988Y-22406100D03*
X37120616Y-18215100D03*
%TO.N,Net-(J3-Pad23)*%
X37088616Y-8090000D03*
%TO.N,Net-(D13-Pad3)*%
X66719988Y-57712100D03*
X37088616Y-20790000D03*
%TO.N,/MISO*%
X24301988Y-23803100D03*
X37088616Y-5550000D03*
%TO.N,/MOSI*%
X25444988Y-23803100D03*
X37088616Y-6820000D03*
%TO.N,/USB Interface/RTS*%
X18832616Y-28067000D03*
X22256616Y-28067000D03*
%TO.N,Net-(J3-Pad7)*%
X24128616Y-5550000D03*
%TO.N,Net-(J3-Pad8)*%
X24128616Y-6820000D03*
%TO.N,Net-(D5-Pad3)*%
X24128616Y-14445000D03*
%TO.N,Net-(D6-Pad3)*%
X24128616Y-13175000D03*
%TO.N,Net-(D9-Pad3)*%
X24128616Y-11905000D03*
%TO.N,Net-(J3-Pad17)*%
X23780616Y-18255000D03*
%TO.N,Net-(D10-Pad3)*%
X24128616Y-10635000D03*
%TO.N,Net-(J3-Pad19)*%
X37088616Y-3010000D03*
%TO.N,Net-(D11-Pad3)*%
X68624988Y-57712100D03*
X37088616Y-13170000D03*
%TO.N,Net-(D14-Pad3)*%
X24128616Y-9365000D03*
X60369988Y-57712100D03*
%TO.N,Net-(D15-Pad3)*%
X62274988Y-57712100D03*
X24128616Y-8095000D03*
%TO.N,Net-(D16-Pad3)*%
X37088616Y-10635000D03*
%TO.N,Net-(D17-Pad3)*%
X37088616Y-11900000D03*
%TO.N,Net-(J3-Pad20)*%
X37088616Y-4280000D03*
%TO.N,Net-(J3-Pad16)*%
X24128616Y-16985000D03*
%TO.N,/IO2*%
X37088616Y-19520000D03*
%TO.N,/IO4*%
X37088616Y-16980000D03*
%TO.N,Net-(R8-Pad2)*%
X13208000Y-58928000D03*
X11176000Y-60960000D03*
%TO.N,Net-(U4-Pad4)*%
X13335000Y-68580000D03*
X12700000Y-61468000D03*
%TO.N,Net-(U4-Pad5)*%
X13589000Y-63754000D03*
X12192000Y-67945000D03*
%TO.N,/GPIP27*%
X24128616Y-15715000D03*
%TO.N,/GPIO13*%
X18967988Y-21136100D03*
%TD*%
D24*
%TO.N,VCC*%
X47659142Y-71638611D02*
X47708653Y-71589100D01*
X18657800Y-61456800D02*
X18657800Y-64781200D01*
X11154100Y-53953100D02*
X18657800Y-61456800D01*
X3014988Y-53953100D02*
X11154100Y-53953100D01*
X25515211Y-71638611D02*
X47659142Y-71638611D01*
X18657800Y-64781200D02*
X25515211Y-71638611D01*
%TO.N,+5V*%
X35985988Y-56950100D02*
X35096988Y-56950100D01*
D25*
X43577653Y-68761100D02*
X31921988Y-68761100D01*
D24*
X53664988Y-34243100D02*
X53765988Y-34344100D01*
X53765988Y-3643100D02*
X61418988Y-3643100D01*
X23226988Y-65126100D02*
X23226988Y-61975436D01*
X61418988Y-3643100D02*
X50734988Y-3643100D01*
X54848988Y-20053100D02*
X50099988Y-20053100D01*
X53765988Y-20120100D02*
X53832988Y-20053100D01*
X53765988Y-54791100D02*
X53765988Y-34852100D01*
X71054988Y-20053100D02*
X54848988Y-20053100D01*
D25*
X31921988Y-68761100D02*
X28111988Y-68761100D01*
D24*
X53765988Y-34344100D02*
X53765988Y-34852100D01*
X53765988Y-34852100D02*
X53765988Y-21009100D01*
D25*
X28111988Y-68761100D02*
X27476988Y-68126100D01*
D24*
X21887087Y-60635535D02*
X22140820Y-60889268D01*
X61418988Y-3643100D02*
X64704988Y-3643100D01*
X26920988Y-65126100D02*
X23226988Y-65126100D01*
X20403653Y-60635535D02*
X21887087Y-60635535D01*
X35985988Y-56950100D02*
X51606988Y-56950100D01*
X53765988Y-21009100D02*
X53765988Y-3643100D01*
X23226988Y-61975436D02*
X22140820Y-60889268D01*
X71164988Y-34243100D02*
X52596988Y-34243100D01*
X8022900Y-51413100D02*
X3014988Y-51413100D01*
X35096988Y-56950100D02*
X26920988Y-65126100D01*
X53765988Y-21009100D02*
X53765988Y-20120100D01*
X52596988Y-34243100D02*
X53664988Y-34243100D01*
X8022900Y-51413100D02*
X5554988Y-51413100D01*
X51606988Y-56950100D02*
X53765988Y-54791100D01*
X11181218Y-51413100D02*
X8022900Y-51413100D01*
X53832988Y-20053100D02*
X54848988Y-20053100D01*
X52596988Y-34243100D02*
X50209988Y-34243100D01*
X20403653Y-60635535D02*
X11181218Y-51413100D01*
D26*
%TO.N,/PROG*%
X19602988Y-23295100D02*
X23158988Y-23295100D01*
X25825988Y-31931100D02*
X22523988Y-31931100D01*
X33318988Y-26216100D02*
X35731988Y-23803100D01*
X35731988Y-23803100D02*
X35731988Y-19603728D01*
X33318988Y-26216100D02*
X30905988Y-28629100D01*
X35731988Y-19603728D02*
X37120616Y-18215100D01*
X6216988Y-41253100D02*
X15538988Y-31931100D01*
X5554988Y-41253100D02*
X6216988Y-41253100D01*
X30905988Y-28629100D02*
X29127988Y-28629100D01*
X15538988Y-31931100D02*
X22523988Y-31931100D01*
X29127988Y-28629100D02*
X25825988Y-31931100D01*
X23158988Y-23295100D02*
X24047988Y-22406100D01*
%TO.N,Net-(J3-Pad23)*%
X3014988Y-36173100D02*
X4284988Y-34903100D01*
X33191988Y-11986628D02*
X37088616Y-8090000D01*
X33191988Y-21898100D02*
X33191988Y-11986628D01*
X4284988Y-34903100D02*
X6470988Y-34903100D01*
X29889988Y-25200100D02*
X33191988Y-21898100D01*
X6470988Y-34903100D02*
X16173988Y-25200100D01*
X16173988Y-25200100D02*
X29889988Y-25200100D01*
%TO.N,Net-(D13-Pad3)*%
X37088616Y-24224472D02*
X37088616Y-20790000D01*
X5554988Y-43793100D02*
X6089988Y-43793100D01*
X28474468Y-32838620D02*
X37088616Y-24224472D01*
X66719988Y-42980100D02*
X65482988Y-41743100D01*
X6089988Y-43793100D02*
X17044468Y-32838620D01*
X65482988Y-41743100D02*
X64179988Y-41743100D01*
X17044468Y-32838620D02*
X28474468Y-32838620D01*
X66719988Y-57712100D02*
X66719988Y-42980100D01*
%TO.N,/MISO*%
X14649988Y-24184100D02*
X23920988Y-24184100D01*
X26460988Y-6658100D02*
X26460988Y-21644100D01*
X3014988Y-33633100D02*
X4284988Y-32363100D01*
X37088616Y-5550000D02*
X27569088Y-5550000D01*
X4284988Y-32363100D02*
X6470988Y-32363100D01*
X23920988Y-24184100D02*
X24301988Y-23803100D01*
X27569088Y-5550000D02*
X26460988Y-6658100D01*
X26460988Y-21644100D02*
X24301988Y-23803100D01*
X6470988Y-32363100D02*
X14649988Y-24184100D01*
%TO.N,/MOSI*%
X25444988Y-23803100D02*
X26968988Y-22279100D01*
X15284988Y-24692100D02*
X24555988Y-24692100D01*
X26968988Y-22279100D02*
X26968988Y-7293100D01*
X36672716Y-6404100D02*
X37088616Y-6820000D01*
X24555988Y-24692100D02*
X25444988Y-23803100D01*
X6343988Y-33633100D02*
X15284988Y-24692100D01*
X27857988Y-6404100D02*
X36672716Y-6404100D01*
X26968988Y-7293100D02*
X27857988Y-6404100D01*
X5554988Y-33633100D02*
X6343988Y-33633100D01*
%TO.N,/USB Interface/RTS*%
X18832616Y-28067000D02*
X22256616Y-28067000D01*
%TO.N,Net-(J3-Pad7)*%
X16012088Y-5550000D02*
X24128616Y-5550000D01*
X3014988Y-15853100D02*
X4284988Y-14583100D01*
X6978988Y-14583100D02*
X16012088Y-5550000D01*
X4284988Y-14583100D02*
X6978988Y-14583100D01*
%TO.N,Net-(J3-Pad8)*%
X5554988Y-15853100D02*
X6597988Y-15853100D01*
X6597988Y-15853100D02*
X15631088Y-6820000D01*
X15631088Y-6820000D02*
X24128616Y-6820000D01*
%TO.N,Net-(D5-Pad3)*%
X14864088Y-14445000D02*
X14141988Y-15167100D01*
X14141988Y-15167100D02*
X5835988Y-23473100D01*
X5835988Y-23473100D02*
X5554988Y-23473100D01*
X24128616Y-14445000D02*
X14864088Y-14445000D01*
%TO.N,Net-(D6-Pad3)*%
X15245088Y-13175000D02*
X24128616Y-13175000D01*
X3014988Y-23473100D02*
X4284988Y-22203100D01*
X4284988Y-22203100D02*
X6216988Y-22203100D01*
X6216988Y-22203100D02*
X15245088Y-13175000D01*
%TO.N,Net-(D9-Pad3)*%
X14991088Y-11905000D02*
X5962988Y-20933100D01*
X14991088Y-11905000D02*
X24128616Y-11905000D01*
X5962988Y-20933100D02*
X5554988Y-20933100D01*
%TO.N,Net-(J3-Pad17)*%
X16173988Y-18088100D02*
X6978988Y-27283100D01*
X6978988Y-27283100D02*
X4284988Y-27283100D01*
X4284988Y-27283100D02*
X3014988Y-28553100D01*
X23613716Y-18088100D02*
X16173988Y-18088100D01*
X23780616Y-18255000D02*
X23613716Y-18088100D01*
%TO.N,Net-(D10-Pad3)*%
X3014988Y-20933100D02*
X4284988Y-19663100D01*
X4284988Y-19663100D02*
X6343988Y-19663100D01*
X23119088Y-10635000D02*
X24128616Y-10635000D01*
X22523988Y-11230100D02*
X23119088Y-10635000D01*
X6343988Y-19663100D02*
X14776988Y-11230100D01*
X14776988Y-11230100D02*
X22523988Y-11230100D01*
%TO.N,Net-(J3-Pad19)*%
X37088616Y-3010000D02*
X28458088Y-3010000D01*
X21888988Y-21898100D02*
X14903988Y-21898100D01*
X14903988Y-21898100D02*
X6978988Y-29823100D01*
X25553468Y-5914620D02*
X25553468Y-18233620D01*
X4284988Y-29823100D02*
X3014988Y-31093100D01*
X28458088Y-3010000D02*
X25553468Y-5914620D01*
X25553468Y-18233620D02*
X21888988Y-21898100D01*
X6978988Y-29823100D02*
X4284988Y-29823100D01*
%TO.N,Net-(D11-Pad3)*%
X34715988Y-23041100D02*
X31032988Y-26724100D01*
X18205988Y-26724100D02*
X6216988Y-38713100D01*
X68624988Y-40313100D02*
X67554988Y-39243100D01*
X6216988Y-38713100D02*
X5554988Y-38713100D01*
X34715988Y-15542628D02*
X34715988Y-23041100D01*
X67554988Y-39243100D02*
X64179988Y-39243100D01*
X37088616Y-13170000D02*
X34715988Y-15542628D01*
X31032988Y-26724100D02*
X18205988Y-26724100D01*
X68624988Y-57712100D02*
X68624988Y-40313100D01*
%TO.N,Net-(D14-Pad3)*%
X60369988Y-57712100D02*
X60369988Y-43615100D01*
X60369988Y-43615100D02*
X58497988Y-41743100D01*
X13379988Y-11230100D02*
X6216988Y-18393100D01*
X21380988Y-10595100D02*
X22611088Y-9365000D01*
X58497988Y-41743100D02*
X57194988Y-41743100D01*
X14014988Y-10595100D02*
X21380988Y-10595100D01*
X22611088Y-9365000D02*
X24128616Y-9365000D01*
X6216988Y-18393100D02*
X5554988Y-18393100D01*
X13379988Y-11230100D02*
X14014988Y-10595100D01*
%TO.N,Net-(D15-Pad3)*%
X62274988Y-57712100D02*
X62274988Y-41964100D01*
X59553988Y-39243100D02*
X57194988Y-39243100D01*
X6597988Y-17123100D02*
X15626088Y-8095000D01*
X62274988Y-41964100D02*
X59553988Y-39243100D01*
X15626088Y-8095000D02*
X24128616Y-8095000D01*
X4284988Y-17123100D02*
X6597988Y-17123100D01*
X3014988Y-18393100D02*
X4284988Y-17123100D01*
%TO.N,Net-(D16-Pad3)*%
X6216988Y-36173100D02*
X5554988Y-36173100D01*
X16681988Y-25708100D02*
X6216988Y-36173100D01*
X33699988Y-22279100D02*
X30270988Y-25708100D01*
X33699988Y-14023628D02*
X33699988Y-22279100D01*
X30270988Y-25708100D02*
X16681988Y-25708100D01*
X37088616Y-10635000D02*
X33699988Y-14023628D01*
%TO.N,Net-(D17-Pad3)*%
X9125488Y-34661600D02*
X17570988Y-26216100D01*
X4284988Y-37443100D02*
X3014988Y-38713100D01*
X34207988Y-22660100D02*
X34207988Y-14780628D01*
X30651988Y-26216100D02*
X34207988Y-22660100D01*
X5302988Y-37443100D02*
X6343988Y-37443100D01*
X34207988Y-14780628D02*
X37088616Y-11900000D01*
X17570988Y-26216100D02*
X30651988Y-26216100D01*
X6343988Y-37443100D02*
X9125488Y-34661600D01*
X5302988Y-37443100D02*
X4284988Y-37443100D01*
%TO.N,Net-(J3-Pad20)*%
X5554988Y-31093100D02*
X6597988Y-31093100D01*
X15284988Y-22406100D02*
X22396988Y-22406100D01*
X22396988Y-22406100D02*
X25952988Y-18850100D01*
X28077088Y-4280000D02*
X37088616Y-4280000D01*
X25952988Y-18850100D02*
X25952988Y-6404100D01*
X6597988Y-31093100D02*
X15284988Y-22406100D01*
X25952988Y-6404100D02*
X28077088Y-4280000D01*
%TO.N,Net-(J3-Pad16)*%
X21341088Y-16985000D02*
X20872988Y-17453100D01*
X15094488Y-18024600D02*
X7105988Y-26013100D01*
X20872988Y-17453100D02*
X15665988Y-17453100D01*
X24128616Y-16985000D02*
X22992088Y-16985000D01*
X22992088Y-16985000D02*
X21341088Y-16985000D01*
X7105988Y-26013100D02*
X5554988Y-26013100D01*
X15665988Y-17453100D02*
X15094488Y-18024600D01*
%TO.N,/IO2*%
X36239988Y-20368628D02*
X36239988Y-24184100D01*
X6343988Y-42523100D02*
X4284988Y-42523100D01*
X16427988Y-32439100D02*
X6343988Y-42523100D01*
X37088616Y-19520000D02*
X36239988Y-20368628D01*
X4284988Y-42523100D02*
X3014988Y-43793100D01*
X27984988Y-32439100D02*
X16427988Y-32439100D01*
X36239988Y-24184100D02*
X27984988Y-32439100D01*
%TO.N,/IO4*%
X22904988Y-31423100D02*
X14903988Y-31423100D01*
X4284988Y-39983100D02*
X3014988Y-41253100D01*
X26714988Y-27613100D02*
X22904988Y-31423100D01*
X35223988Y-23422100D02*
X31032988Y-27613100D01*
X6343988Y-39983100D02*
X4284988Y-39983100D01*
X37088616Y-16980000D02*
X35223988Y-18844628D01*
X35223988Y-18844628D02*
X35223988Y-23422100D01*
X14903988Y-31423100D02*
X6343988Y-39983100D01*
X31032988Y-27613100D02*
X26714988Y-27613100D01*
D25*
%TO.N,Net-(R8-Pad2)*%
X11176000Y-60960000D02*
X13208000Y-58928000D01*
D26*
%TO.N,Net-(U4-Pad4)*%
X14351000Y-67564000D02*
X14351000Y-63119000D01*
X14351000Y-63119000D02*
X12700000Y-61468000D01*
X13335000Y-68580000D02*
X14351000Y-67564000D01*
%TO.N,Net-(U4-Pad5)*%
X12192000Y-65151000D02*
X12192000Y-65659000D01*
X13589000Y-63754000D02*
X12192000Y-65151000D01*
X12192000Y-67945000D02*
X12192000Y-65659000D01*
D25*
%TO.N,unconnected-(J2-PadS1)*%
X17084000Y-66994000D02*
X17084000Y-68595200D01*
X17444000Y-68955200D02*
X17444000Y-72944000D01*
X17084000Y-68595200D02*
X17444000Y-68955200D01*
X8824000Y-66994000D02*
X8824000Y-68392000D01*
X17444000Y-72944000D02*
X8464000Y-72944000D01*
X8824000Y-68392000D02*
X8464000Y-68752000D01*
X8464000Y-68752000D02*
X8464000Y-72944000D01*
D26*
%TO.N,/GPIP27*%
X22944888Y-15715000D02*
X24128616Y-15715000D01*
X16300988Y-15421100D02*
X15094488Y-16627600D01*
X3014988Y-26013100D02*
X4284988Y-24743100D01*
X4284988Y-24743100D02*
X6978988Y-24743100D01*
X21126988Y-15421100D02*
X16300988Y-15421100D01*
X6978988Y-24743100D02*
X15094488Y-16627600D01*
X22944888Y-15715000D02*
X21420888Y-15715000D01*
X21420888Y-15715000D02*
X21126988Y-15421100D01*
%TO.N,/GPIO13*%
X18967988Y-21136100D02*
X14395988Y-21136100D01*
X6978988Y-28553100D02*
X5554988Y-28553100D01*
X14395988Y-21136100D02*
X6978988Y-28553100D01*
%TD*%
M02*
