%TF.GenerationSoftware,KiCad,Pcbnew,(6.0.1)*%
%TF.CreationDate,2023-01-01T21:05:58-08:00*%
%TF.ProjectId,ESP32 Protoboard - Small R1,45535033-3220-4507-926f-746f626f6172,rev?*%
%TF.SameCoordinates,Original*%
%TF.FileFunction,Other,Comment*%
%FSLAX46Y46*%
G04 Gerber Fmt 4.6, Leading zero omitted, Abs format (unit mm)*
G04 Created by KiCad (PCBNEW (6.0.1)) date 2023-01-01 21:05:58*
%MOMM*%
%LPD*%
G01*
G04 APERTURE LIST*
%ADD10C,0.150000*%
%ADD11C,0.100000*%
G04 APERTURE END LIST*
D10*
%TO.C,U1*%
X14988095Y2833333D02*
X15464285Y2833333D01*
X14892857Y2547619D02*
X15226190Y3547619D01*
X15559523Y2547619D01*
X15892857Y3214285D02*
X15892857Y2547619D01*
X15892857Y3119047D02*
X15940476Y3166666D01*
X16035714Y3214285D01*
X16178571Y3214285D01*
X16273809Y3166666D01*
X16321428Y3071428D01*
X16321428Y2547619D01*
X16654761Y3214285D02*
X17035714Y3214285D01*
X16797619Y3547619D02*
X16797619Y2690476D01*
X16845238Y2595238D01*
X16940476Y2547619D01*
X17035714Y2547619D01*
X17750000Y2595238D02*
X17654761Y2547619D01*
X17464285Y2547619D01*
X17369047Y2595238D01*
X17321428Y2690476D01*
X17321428Y3071428D01*
X17369047Y3166666D01*
X17464285Y3214285D01*
X17654761Y3214285D01*
X17750000Y3166666D01*
X17797619Y3071428D01*
X17797619Y2976190D01*
X17321428Y2880952D01*
X18226190Y3214285D02*
X18226190Y2547619D01*
X18226190Y3119047D02*
X18273809Y3166666D01*
X18369047Y3214285D01*
X18511904Y3214285D01*
X18607142Y3166666D01*
X18654761Y3071428D01*
X18654761Y2547619D01*
X19130952Y3214285D02*
X19130952Y2547619D01*
X19130952Y3119047D02*
X19178571Y3166666D01*
X19273809Y3214285D01*
X19416666Y3214285D01*
X19511904Y3166666D01*
X19559523Y3071428D01*
X19559523Y2547619D01*
X20464285Y2547619D02*
X20464285Y3071428D01*
X20416666Y3166666D01*
X20321428Y3214285D01*
X20130952Y3214285D01*
X20035714Y3166666D01*
X20464285Y2595238D02*
X20369047Y2547619D01*
X20130952Y2547619D01*
X20035714Y2595238D01*
X19988095Y2690476D01*
X19988095Y2785714D01*
X20035714Y2880952D01*
X20130952Y2928571D01*
X20369047Y2928571D01*
X20464285Y2976190D01*
X11678571Y8547619D02*
X11678571Y9547619D01*
X12250000Y8547619D02*
X11821428Y9119047D01*
X12250000Y9547619D02*
X11678571Y8976190D01*
X12678571Y9071428D02*
X13011904Y9071428D01*
X13154761Y8547619D02*
X12678571Y8547619D01*
X12678571Y9547619D01*
X13154761Y9547619D01*
X13583333Y9071428D02*
X13916666Y9071428D01*
X14059523Y8547619D02*
X13583333Y8547619D01*
X13583333Y9547619D01*
X14059523Y9547619D01*
X14488095Y8547619D02*
X14488095Y9547619D01*
X14869047Y9547619D01*
X14964285Y9500000D01*
X15011904Y9452380D01*
X15059523Y9357142D01*
X15059523Y9214285D01*
X15011904Y9119047D01*
X14964285Y9071428D01*
X14869047Y9023809D01*
X14488095Y9023809D01*
X15488095Y8928571D02*
X16250000Y8928571D01*
X16916666Y9547619D02*
X17107142Y9547619D01*
X17202380Y9500000D01*
X17297619Y9404761D01*
X17345238Y9214285D01*
X17345238Y8880952D01*
X17297619Y8690476D01*
X17202380Y8595238D01*
X17107142Y8547619D01*
X16916666Y8547619D01*
X16821428Y8595238D01*
X16726190Y8690476D01*
X16678571Y8880952D01*
X16678571Y9214285D01*
X16726190Y9404761D01*
X16821428Y9500000D01*
X16916666Y9547619D01*
X17773809Y9547619D02*
X17773809Y8738095D01*
X17821428Y8642857D01*
X17869047Y8595238D01*
X17964285Y8547619D01*
X18154761Y8547619D01*
X18250000Y8595238D01*
X18297619Y8642857D01*
X18345238Y8738095D01*
X18345238Y9547619D01*
X18678571Y9547619D02*
X19250000Y9547619D01*
X18964285Y8547619D02*
X18964285Y9547619D01*
X20250000Y9547619D02*
X20916666Y9547619D01*
X20250000Y8547619D01*
X20916666Y8547619D01*
X21488095Y9547619D02*
X21678571Y9547619D01*
X21773809Y9500000D01*
X21869047Y9404761D01*
X21916666Y9214285D01*
X21916666Y8880952D01*
X21869047Y8690476D01*
X21773809Y8595238D01*
X21678571Y8547619D01*
X21488095Y8547619D01*
X21392857Y8595238D01*
X21297619Y8690476D01*
X21250000Y8880952D01*
X21250000Y9214285D01*
X21297619Y9404761D01*
X21392857Y9500000D01*
X21488095Y9547619D01*
X22345238Y8547619D02*
X22345238Y9547619D01*
X22916666Y8547619D01*
X22916666Y9547619D01*
X23392857Y9071428D02*
X23726190Y9071428D01*
X23869047Y8547619D02*
X23392857Y8547619D01*
X23392857Y9547619D01*
X23869047Y9547619D01*
D11*
X25276190Y8336904D02*
X25276190Y8098809D01*
X25514285Y8075000D01*
X25490476Y8098809D01*
X25466666Y8146428D01*
X25466666Y8265476D01*
X25490476Y8313095D01*
X25514285Y8336904D01*
X25561904Y8360714D01*
X25680952Y8360714D01*
X25728571Y8336904D01*
X25752380Y8313095D01*
X25776190Y8265476D01*
X25776190Y8146428D01*
X25752380Y8098809D01*
X25728571Y8075000D01*
X25776190Y8955952D02*
X25442857Y8955952D01*
X25490476Y8955952D02*
X25466666Y8979761D01*
X25442857Y9027380D01*
X25442857Y9098809D01*
X25466666Y9146428D01*
X25514285Y9170238D01*
X25776190Y9170238D01*
X25514285Y9170238D02*
X25466666Y9194047D01*
X25442857Y9241666D01*
X25442857Y9313095D01*
X25466666Y9360714D01*
X25514285Y9384523D01*
X25776190Y9384523D01*
X25776190Y9622619D02*
X25442857Y9622619D01*
X25490476Y9622619D02*
X25466666Y9646428D01*
X25442857Y9694047D01*
X25442857Y9765476D01*
X25466666Y9813095D01*
X25514285Y9836904D01*
X25776190Y9836904D01*
X25514285Y9836904D02*
X25466666Y9860714D01*
X25442857Y9908333D01*
X25442857Y9979761D01*
X25466666Y10027380D01*
X25514285Y10051190D01*
X25776190Y10051190D01*
X5811904Y4648809D02*
X5573809Y4648809D01*
X5550000Y4410714D01*
X5573809Y4434523D01*
X5621428Y4458333D01*
X5740476Y4458333D01*
X5788095Y4434523D01*
X5811904Y4410714D01*
X5835714Y4363095D01*
X5835714Y4244047D01*
X5811904Y4196428D01*
X5788095Y4172619D01*
X5740476Y4148809D01*
X5621428Y4148809D01*
X5573809Y4172619D01*
X5550000Y4196428D01*
X6430952Y4148809D02*
X6430952Y4482142D01*
X6430952Y4434523D02*
X6454761Y4458333D01*
X6502380Y4482142D01*
X6573809Y4482142D01*
X6621428Y4458333D01*
X6645238Y4410714D01*
X6645238Y4148809D01*
X6645238Y4410714D02*
X6669047Y4458333D01*
X6716666Y4482142D01*
X6788095Y4482142D01*
X6835714Y4458333D01*
X6859523Y4410714D01*
X6859523Y4148809D01*
X7097619Y4148809D02*
X7097619Y4482142D01*
X7097619Y4434523D02*
X7121428Y4458333D01*
X7169047Y4482142D01*
X7240476Y4482142D01*
X7288095Y4458333D01*
X7311904Y4410714D01*
X7311904Y4148809D01*
X7311904Y4410714D02*
X7335714Y4458333D01*
X7383333Y4482142D01*
X7454761Y4482142D01*
X7502380Y4458333D01*
X7526190Y4410714D01*
X7526190Y4148809D01*
X28811904Y4648809D02*
X28573809Y4648809D01*
X28550000Y4410714D01*
X28573809Y4434523D01*
X28621428Y4458333D01*
X28740476Y4458333D01*
X28788095Y4434523D01*
X28811904Y4410714D01*
X28835714Y4363095D01*
X28835714Y4244047D01*
X28811904Y4196428D01*
X28788095Y4172619D01*
X28740476Y4148809D01*
X28621428Y4148809D01*
X28573809Y4172619D01*
X28550000Y4196428D01*
X29430952Y4148809D02*
X29430952Y4482142D01*
X29430952Y4434523D02*
X29454761Y4458333D01*
X29502380Y4482142D01*
X29573809Y4482142D01*
X29621428Y4458333D01*
X29645238Y4410714D01*
X29645238Y4148809D01*
X29645238Y4410714D02*
X29669047Y4458333D01*
X29716666Y4482142D01*
X29788095Y4482142D01*
X29835714Y4458333D01*
X29859523Y4410714D01*
X29859523Y4148809D01*
X30097619Y4148809D02*
X30097619Y4482142D01*
X30097619Y4434523D02*
X30121428Y4458333D01*
X30169047Y4482142D01*
X30240476Y4482142D01*
X30288095Y4458333D01*
X30311904Y4410714D01*
X30311904Y4148809D01*
X30311904Y4410714D02*
X30335714Y4458333D01*
X30383333Y4482142D01*
X30454761Y4482142D01*
X30502380Y4458333D01*
X30526190Y4410714D01*
X30526190Y4148809D01*
D10*
%TO.C,H4*%
X59500000Y-72000000D02*
G75*
G03*
X59500000Y-72000000I-2500000J0D01*
G01*
%TO.C,H3*%
X59500000Y-3000000D02*
G75*
G03*
X59500000Y-3000000I-2500000J0D01*
G01*
%TO.C,H2*%
X5500000Y-72000000D02*
G75*
G03*
X5500000Y-72000000I-2500000J0D01*
G01*
D11*
%TO.C,U1*%
X8550000Y3875000D02*
X8350000Y4075000D01*
X26950000Y3875000D02*
X27150000Y4075000D01*
X3950000Y3875000D02*
X4150000Y3675000D01*
X26150000Y6000000D02*
X25950000Y6200000D01*
X8550000Y3875000D02*
X8350000Y3675000D01*
X31550000Y3875000D02*
X31350000Y4075000D01*
X26150000Y10600000D02*
X25950000Y10400000D01*
X3950000Y3875000D02*
X4150000Y4075000D01*
X31550000Y3875000D02*
X31350000Y3675000D01*
X26150000Y6000000D02*
X26150000Y10600000D01*
X26950000Y3875000D02*
X27150000Y3675000D01*
X26950000Y3875000D02*
X31550000Y3875000D01*
X26150000Y6000000D02*
X26350000Y6200000D01*
X3950000Y3875000D02*
X8550000Y3875000D01*
X26150000Y10600000D02*
X26350000Y10400000D01*
D10*
%TO.C,H1*%
X5500000Y-3000000D02*
G75*
G03*
X5500000Y-3000000I-2500000J0D01*
G01*
%TD*%
M02*
