%TF.GenerationSoftware,KiCad,Pcbnew,(6.0.1)*%
%TF.CreationDate,2023-01-01T21:05:58-08:00*%
%TF.ProjectId,ESP32 Protoboard - Small R1,45535033-3220-4507-926f-746f626f6172,rev?*%
%TF.SameCoordinates,Original*%
%TF.FileFunction,Soldermask,Bot*%
%TF.FilePolarity,Negative*%
%FSLAX46Y46*%
G04 Gerber Fmt 4.6, Leading zero omitted, Abs format (unit mm)*
G04 Created by KiCad (PCBNEW (6.0.1)) date 2023-01-01 21:05:58*
%MOMM*%
%LPD*%
G01*
G04 APERTURE LIST*
G04 Aperture macros list*
%AMRoundRect*
0 Rectangle with rounded corners*
0 $1 Rounding radius*
0 $2 $3 $4 $5 $6 $7 $8 $9 X,Y pos of 4 corners*
0 Add a 4 corners polygon primitive as box body*
4,1,4,$2,$3,$4,$5,$6,$7,$8,$9,$2,$3,0*
0 Add four circle primitives for the rounded corners*
1,1,$1+$1,$2,$3*
1,1,$1+$1,$4,$5*
1,1,$1+$1,$6,$7*
1,1,$1+$1,$8,$9*
0 Add four rect primitives between the rounded corners*
20,1,$1+$1,$2,$3,$4,$5,0*
20,1,$1+$1,$4,$5,$6,$7,0*
20,1,$1+$1,$6,$7,$8,$9,0*
20,1,$1+$1,$8,$9,$2,$3,0*%
G04 Aperture macros list end*
%ADD10C,0.900000*%
%ADD11C,5.100000*%
%ADD12RoundRect,0.050000X0.800000X0.800000X-0.800000X0.800000X-0.800000X-0.800000X0.800000X-0.800000X0*%
%ADD13C,1.700000*%
%ADD14C,1.100000*%
%ADD15C,1.300000*%
%ADD16RoundRect,0.300000X0.750000X-0.600000X0.750000X0.600000X-0.750000X0.600000X-0.750000X-0.600000X0*%
%ADD17O,2.100000X1.800000*%
%ADD18RoundRect,0.300000X0.725000X-0.600000X0.725000X0.600000X-0.725000X0.600000X-0.725000X-0.600000X0*%
%ADD19O,2.050000X1.800000*%
%ADD20C,1.600000*%
%ADD21C,2.100000*%
%ADD22RoundRect,0.050000X0.850000X-0.850000X0.850000X0.850000X-0.850000X0.850000X-0.850000X-0.850000X0*%
%ADD23O,1.800000X1.800000*%
%ADD24C,1.900000*%
G04 APERTURE END LIST*
D10*
%TO.C,H4*%
X55674175Y-73325825D03*
X55125000Y-72000000D03*
X55674175Y-70674175D03*
D11*
X57000000Y-72000000D03*
D10*
X58875000Y-72000000D03*
X58325825Y-73325825D03*
X58325825Y-70674175D03*
X57000000Y-70125000D03*
X57000000Y-73875000D03*
%TD*%
%TO.C,H3*%
X57000000Y-1125000D03*
X55674175Y-4325825D03*
D11*
X57000000Y-3000000D03*
D10*
X58325825Y-4325825D03*
X57000000Y-4875000D03*
X55674175Y-1674175D03*
X55125000Y-3000000D03*
X58325825Y-1674175D03*
X58875000Y-3000000D03*
%TD*%
D12*
%TO.C,C1*%
X5080000Y-57150000D03*
D13*
X2580000Y-57150000D03*
%TD*%
D10*
%TO.C,H2*%
X3000000Y-70125000D03*
D11*
X3000000Y-72000000D03*
D10*
X3000000Y-73875000D03*
X4875000Y-72000000D03*
X4325825Y-70674175D03*
X1125000Y-72000000D03*
X1674175Y-73325825D03*
X4325825Y-73325825D03*
X1674175Y-70674175D03*
%TD*%
%TO.C,H1*%
X4325825Y-4325825D03*
X3000000Y-1125000D03*
X4325825Y-1674175D03*
X1674175Y-1674175D03*
D11*
X3000000Y-3000000D03*
D10*
X4875000Y-3000000D03*
X1674175Y-4325825D03*
X1125000Y-3000000D03*
X3000000Y-4875000D03*
%TD*%
D14*
%TO.C,TP1*%
X48895000Y-5715000D03*
%TD*%
%TO.C,TP2*%
X46355000Y-5715000D03*
%TD*%
%TO.C,TP3*%
X41275000Y-5715000D03*
%TD*%
%TO.C,TP4*%
X38735000Y-5715000D03*
%TD*%
D15*
%TO.C,J1*%
X5268000Y-67854000D03*
D16*
X3268000Y-66254000D03*
D17*
X3268000Y-63754000D03*
%TD*%
D15*
%TO.C,J8*%
X57990000Y-21205000D03*
D18*
X55990000Y-19605000D03*
D19*
X55990000Y-17105000D03*
X55990000Y-14605000D03*
X55990000Y-12105000D03*
X55990000Y-9605000D03*
%TD*%
D20*
%TO.C,REF\u002A\u002A*%
X55880000Y-35560000D03*
%TD*%
%TO.C,REF\u002A\u002A*%
X38067310Y-40640000D03*
%TD*%
%TO.C,REF\u002A\u002A*%
X48260000Y-73660000D03*
%TD*%
%TO.C,REF\u002A\u002A*%
X30480000Y-66040000D03*
%TD*%
%TO.C,REF\u002A\u002A*%
X30480000Y-48260000D03*
%TD*%
%TO.C,REF\u002A\u002A*%
X15240000Y-73660000D03*
%TD*%
%TO.C,REF\u002A\u002A*%
X38100000Y-45720000D03*
%TD*%
%TO.C,REF\u002A\u002A*%
X27940000Y-73660000D03*
%TD*%
%TO.C,REF\u002A\u002A*%
X33020000Y-50800000D03*
%TD*%
%TO.C,REF\u002A\u002A*%
X45720000Y-50800000D03*
%TD*%
%TO.C,REF\u002A\u002A*%
X40640000Y-48260000D03*
%TD*%
%TO.C,REF\u002A\u002A*%
X27940000Y-71120000D03*
%TD*%
%TO.C,REF\u002A\u002A*%
X50800000Y-35560000D03*
%TD*%
%TO.C,REF\u002A\u002A*%
X22860000Y-50800000D03*
%TD*%
%TO.C,REF\u002A\u002A*%
X38100000Y-68612690D03*
%TD*%
%TO.C,REF\u002A\u002A*%
X33020000Y-38100000D03*
%TD*%
%TO.C,REF\u002A\u002A*%
X15240000Y-55880000D03*
%TD*%
%TO.C,REF\u002A\u002A*%
X25400000Y-68612690D03*
%TD*%
%TO.C,REF\u002A\u002A*%
X55880000Y-68580000D03*
%TD*%
%TO.C,REF\u002A\u002A*%
X15240000Y-68612690D03*
%TD*%
D21*
%TO.C,IO21*%
X42545000Y-10795000D03*
%TD*%
D20*
%TO.C,REF\u002A\u002A*%
X20320000Y-73660000D03*
%TD*%
%TO.C,REF\u002A\u002A*%
X55880000Y-58420000D03*
%TD*%
D21*
%TO.C,IO17*%
X31750000Y-22860000D03*
%TD*%
D20*
%TO.C,REF\u002A\u002A*%
X20320000Y-71120000D03*
%TD*%
%TO.C,REF\u002A\u002A*%
X55847310Y-40640000D03*
%TD*%
%TO.C,REF\u002A\u002A*%
X30447310Y-43159141D03*
%TD*%
%TO.C,REF\u002A\u002A*%
X53307310Y-40640000D03*
%TD*%
%TO.C,REF\u002A\u002A*%
X35560000Y-33020000D03*
%TD*%
%TO.C,REF\u002A\u002A*%
X43180000Y-22860000D03*
%TD*%
%TO.C,REF\u002A\u002A*%
X43180000Y-35560000D03*
%TD*%
%TO.C,REF\u002A\u002A*%
X22860000Y-60960000D03*
%TD*%
%TO.C,REF\u002A\u002A*%
X58420000Y-38100000D03*
%TD*%
%TO.C,REF\u002A\u002A*%
X58420000Y-63500000D03*
%TD*%
%TO.C,REF\u002A\u002A*%
X32987310Y-40640000D03*
%TD*%
%TO.C,REF\u002A\u002A*%
X55880000Y-33020000D03*
%TD*%
D21*
%TO.C,IO14*%
X15875000Y-30480000D03*
%TD*%
D20*
%TO.C,REF\u002A\u002A*%
X40640000Y-22860000D03*
%TD*%
%TO.C,REF\u002A\u002A*%
X30480000Y-60960000D03*
%TD*%
%TO.C,REF\u002A\u002A*%
X27940000Y-45720000D03*
%TD*%
%TO.C,REF\u002A\u002A*%
X45720000Y-33020000D03*
%TD*%
%TO.C,REF\u002A\u002A*%
X27940000Y-38100000D03*
%TD*%
%TO.C,REF\u002A\u002A*%
X50800000Y-45720000D03*
%TD*%
%TO.C,REF\u002A\u002A*%
X22860000Y-68612690D03*
%TD*%
%TO.C,REF\u002A\u002A*%
X40640000Y-68612690D03*
%TD*%
%TO.C,REF\u002A\u002A*%
X48260000Y-20320000D03*
%TD*%
%TO.C,REF\u002A\u002A*%
X33020000Y-55880000D03*
%TD*%
%TO.C,REF\u002A\u002A*%
X20320000Y-53340000D03*
%TD*%
%TO.C,REF\u002A\u002A*%
X35560000Y-25400000D03*
%TD*%
%TO.C,REF\u002A\u002A*%
X35560000Y-48260000D03*
%TD*%
%TO.C,REF\u002A\u002A*%
X40640000Y-25400000D03*
%TD*%
%TO.C,REF\u002A\u002A*%
X53340000Y-71120000D03*
%TD*%
%TO.C,REF\u002A\u002A*%
X17780000Y-63500000D03*
%TD*%
%TO.C,REF\u002A\u002A*%
X7620000Y-71120000D03*
%TD*%
%TO.C,REF\u002A\u002A*%
X48260000Y-53340000D03*
%TD*%
%TO.C,REF\u002A\u002A*%
X35560000Y-63500000D03*
%TD*%
%TO.C,REF\u002A\u002A*%
X38100000Y-38100000D03*
%TD*%
%TO.C,REF\u002A\u002A*%
X35560000Y-73660000D03*
%TD*%
%TO.C,REF\u002A\u002A*%
X33020000Y-60960000D03*
%TD*%
%TO.C,REF\u002A\u002A*%
X35560000Y-17780000D03*
%TD*%
%TO.C,REF\u002A\u002A*%
X12700000Y-58420000D03*
%TD*%
%TO.C,REF\u002A\u002A*%
X20320000Y-58420000D03*
%TD*%
%TO.C,REF\u002A\u002A*%
X53340000Y-50800000D03*
%TD*%
%TO.C,REF\u002A\u002A*%
X27940000Y-68612690D03*
%TD*%
%TO.C,REF\u002A\u002A*%
X50800000Y-58420000D03*
%TD*%
%TO.C,REF\u002A\u002A*%
X58387310Y-53340000D03*
%TD*%
%TO.C,REF\u002A\u002A*%
X40640000Y-66040000D03*
%TD*%
%TO.C,REF\u002A\u002A*%
X38100000Y-66040000D03*
%TD*%
%TO.C,REF\u002A\u002A*%
X25400000Y-35560000D03*
%TD*%
%TO.C,REF\u002A\u002A*%
X35560000Y-45720000D03*
%TD*%
%TO.C,REF\u002A\u002A*%
X58420000Y-33020000D03*
%TD*%
%TO.C,REF\u002A\u002A*%
X25400000Y-63500000D03*
%TD*%
%TO.C,REF\u002A\u002A*%
X43180000Y-73660000D03*
%TD*%
D21*
%TO.C,VIN1*%
X10160000Y-66040000D03*
%TD*%
D20*
%TO.C,REF\u002A\u002A*%
X30480000Y-55880000D03*
%TD*%
%TO.C,REF\u002A\u002A*%
X40640000Y-30480000D03*
%TD*%
%TO.C,REF\u002A\u002A*%
X40640000Y-20320000D03*
%TD*%
%TO.C,REF\u002A\u002A*%
X40640000Y-58420000D03*
%TD*%
%TO.C,REF\u002A\u002A*%
X43180000Y-30480000D03*
%TD*%
%TO.C,REF\u002A\u002A*%
X58387310Y-60960000D03*
%TD*%
%TO.C,REF\u002A\u002A*%
X43180000Y-53340000D03*
%TD*%
%TO.C,REF\u002A\u002A*%
X17780000Y-58420000D03*
%TD*%
%TO.C,REF\u002A\u002A*%
X45720000Y-22860000D03*
%TD*%
%TO.C,REF\u002A\u002A*%
X17780000Y-53340000D03*
%TD*%
%TO.C,REF\u002A\u002A*%
X22860000Y-58420000D03*
%TD*%
%TO.C,REF\u002A\u002A*%
X15240000Y-58420000D03*
%TD*%
%TO.C,REF\u002A\u002A*%
X48260000Y-48260000D03*
%TD*%
%TO.C,REF\u002A\u002A*%
X40607310Y-43159141D03*
%TD*%
%TO.C,REF\u002A\u002A*%
X38100000Y-22860000D03*
%TD*%
%TO.C,REF\u002A\u002A*%
X40640000Y-71120000D03*
%TD*%
%TO.C,REF\u002A\u002A*%
X58387310Y-43159141D03*
%TD*%
%TO.C,REF\u002A\u002A*%
X58387310Y-50800000D03*
%TD*%
%TO.C,REF\u002A\u002A*%
X43180000Y-48260000D03*
%TD*%
%TO.C,REF\u002A\u002A*%
X33020000Y-58420000D03*
%TD*%
%TO.C,REF\u002A\u002A*%
X43180000Y-60960000D03*
%TD*%
%TO.C,REF\u002A\u002A*%
X33020000Y-53340000D03*
%TD*%
%TO.C,REF\u002A\u002A*%
X30480000Y-38100000D03*
%TD*%
%TO.C,REF\u002A\u002A*%
X35527310Y-40640000D03*
%TD*%
%TO.C,REF\u002A\u002A*%
X40640000Y-27940000D03*
%TD*%
D21*
%TO.C,VIN4*%
X15240000Y-52998250D03*
%TD*%
D20*
%TO.C,REF\u002A\u002A*%
X38100000Y-17780000D03*
%TD*%
%TO.C,REF\u002A\u002A*%
X22860000Y-55880000D03*
%TD*%
D21*
%TO.C,VIN2*%
X10160000Y-60960000D03*
%TD*%
D20*
%TO.C,REF\u002A\u002A*%
X50800000Y-71120000D03*
%TD*%
%TO.C,REF\u002A\u002A*%
X45720000Y-48260000D03*
%TD*%
%TO.C,REF\u002A\u002A*%
X27907310Y-40640000D03*
%TD*%
%TO.C,REF\u002A\u002A*%
X48260000Y-22860000D03*
%TD*%
%TO.C,REF\u002A\u002A*%
X53340000Y-55880000D03*
%TD*%
%TO.C,REF\u002A\u002A*%
X38100000Y-63500000D03*
%TD*%
%TO.C,REF\u002A\u002A*%
X48260000Y-68612690D03*
%TD*%
%TO.C,REF\u002A\u002A*%
X40640000Y-73660000D03*
%TD*%
%TO.C,REF\u002A\u002A*%
X15240000Y-60960000D03*
%TD*%
D21*
%TO.C,IO18*%
X31750000Y-17780000D03*
%TD*%
D20*
%TO.C,REF\u002A\u002A*%
X27940000Y-58420000D03*
%TD*%
%TO.C,REF\u002A\u002A*%
X22860000Y-53340000D03*
%TD*%
%TO.C,REF\u002A\u002A*%
X53340000Y-68580000D03*
%TD*%
%TO.C,REF\u002A\u002A*%
X25400000Y-66040000D03*
%TD*%
D21*
%TO.C,IO16*%
X31750000Y-25400000D03*
%TD*%
D20*
%TO.C,REF\u002A\u002A*%
X35560000Y-35560000D03*
%TD*%
D21*
%TO.C,IO22*%
X45085000Y-10795000D03*
%TD*%
D20*
%TO.C,REF\u002A\u002A*%
X40640000Y-53340000D03*
%TD*%
%TO.C,REF\u002A\u002A*%
X33020000Y-63500000D03*
%TD*%
%TO.C,REF\u002A\u002A*%
X53340000Y-73660000D03*
%TD*%
D21*
%TO.C,5V03*%
X43180000Y-15240000D03*
%TD*%
D20*
%TO.C,REF\u002A\u002A*%
X53340000Y-27940000D03*
%TD*%
%TO.C,REF\u002A\u002A*%
X50800000Y-66040000D03*
%TD*%
%TO.C,REF\u002A\u002A*%
X58387310Y-45720000D03*
%TD*%
%TO.C,REF\u002A\u002A*%
X43180000Y-68612690D03*
%TD*%
D21*
%TO.C,IO5*%
X31750000Y-20320000D03*
%TD*%
D20*
%TO.C,REF\u002A\u002A*%
X45720000Y-53340000D03*
%TD*%
%TO.C,REF\u002A\u002A*%
X10160000Y-68612690D03*
%TD*%
%TO.C,REF\u002A\u002A*%
X53340000Y-48260000D03*
%TD*%
D21*
%TO.C,IO27*%
X15875000Y-33020000D03*
%TD*%
D20*
%TO.C,REF\u002A\u002A*%
X55880000Y-55880000D03*
%TD*%
%TO.C,REF\u002A\u002A*%
X40640000Y-35560000D03*
%TD*%
%TO.C,REF\u002A\u002A*%
X27940000Y-63500000D03*
%TD*%
%TO.C,REF\u002A\u002A*%
X38100000Y-25400000D03*
%TD*%
%TO.C,REF\u002A\u002A*%
X50800000Y-22860000D03*
%TD*%
%TO.C,REF\u002A\u002A*%
X30447310Y-40640000D03*
%TD*%
%TO.C,REF\u002A\u002A*%
X55880000Y-43159141D03*
%TD*%
D21*
%TO.C,5V04*%
X35560000Y-15240000D03*
%TD*%
D20*
%TO.C,REF\u002A\u002A*%
X55880000Y-60960000D03*
%TD*%
D21*
%TO.C,IO33*%
X21590000Y-22860000D03*
%TD*%
%TO.C,3V34*%
X45720000Y-15240000D03*
%TD*%
D20*
%TO.C,REF\u002A\u002A*%
X48260000Y-38100000D03*
%TD*%
%TO.C,REF\u002A\u002A*%
X38100000Y-48260000D03*
%TD*%
%TO.C,REF\u002A\u002A*%
X38100000Y-55880000D03*
%TD*%
%TO.C,REF\u002A\u002A*%
X58420000Y-25400000D03*
%TD*%
%TO.C,REF\u002A\u002A*%
X43180000Y-27940000D03*
%TD*%
%TO.C,REF\u002A\u002A*%
X30480000Y-50800000D03*
%TD*%
%TO.C,REF\u002A\u002A*%
X35560000Y-58420000D03*
%TD*%
%TO.C,REF\u002A\u002A*%
X50767310Y-43159141D03*
%TD*%
%TO.C,REF\u002A\u002A*%
X40640000Y-55880000D03*
%TD*%
%TO.C,REF\u002A\u002A*%
X22860000Y-73660000D03*
%TD*%
%TO.C,REF\u002A\u002A*%
X25400000Y-60960000D03*
%TD*%
%TO.C,REF\u002A\u002A*%
X12700000Y-66040000D03*
%TD*%
%TO.C,REF\u002A\u002A*%
X35527310Y-43159141D03*
%TD*%
%TO.C,REF\u002A\u002A*%
X40640000Y-33020000D03*
%TD*%
D21*
%TO.C,IO32*%
X15875000Y-27940000D03*
%TD*%
D20*
%TO.C,REF\u002A\u002A*%
X50800000Y-17780000D03*
%TD*%
%TO.C,REF\u002A\u002A*%
X33020000Y-45720000D03*
%TD*%
%TO.C,REF\u002A\u002A*%
X25400000Y-45720000D03*
%TD*%
%TO.C,REF\u002A\u002A*%
X40640000Y-38100000D03*
%TD*%
%TO.C,REF\u002A\u002A*%
X53340000Y-30480000D03*
%TD*%
%TO.C,REF\u002A\u002A*%
X30480000Y-45720000D03*
%TD*%
%TO.C,REF\u002A\u002A*%
X50800000Y-27940000D03*
%TD*%
%TO.C,REF\u002A\u002A*%
X45720000Y-30480000D03*
%TD*%
%TO.C,REF\u002A\u002A*%
X48260000Y-30480000D03*
%TD*%
%TO.C,REF\u002A\u002A*%
X35560000Y-60960000D03*
%TD*%
%TO.C,REF\u002A\u002A*%
X40607310Y-40640000D03*
%TD*%
%TO.C,REF\u002A\u002A*%
X35560000Y-68612690D03*
%TD*%
%TO.C,REF\u002A\u002A*%
X35560000Y-22860000D03*
%TD*%
%TO.C,REF\u002A\u002A*%
X35560000Y-66040000D03*
%TD*%
%TO.C,REF\u002A\u002A*%
X43180000Y-38100000D03*
%TD*%
D22*
%TO.C,J2*%
X38760000Y-3175000D03*
D23*
X41300000Y-3175000D03*
X43840000Y-3175000D03*
X46380000Y-3175000D03*
X48920000Y-3175000D03*
X51460000Y-3175000D03*
%TD*%
D20*
%TO.C,REF\u002A\u002A*%
X53340000Y-33020000D03*
%TD*%
%TO.C,REF\u002A\u002A*%
X55880000Y-38100000D03*
%TD*%
%TO.C,REF\u002A\u002A*%
X45720000Y-17780000D03*
%TD*%
D21*
%TO.C,IO12*%
X15875000Y-25400000D03*
%TD*%
D20*
%TO.C,REF\u002A\u002A*%
X45720000Y-71120000D03*
%TD*%
%TO.C,REF\u002A\u002A*%
X45720000Y-20320000D03*
%TD*%
%TO.C,REF\u002A\u002A*%
X50800000Y-38100000D03*
%TD*%
%TO.C,REF\u002A\u002A*%
X53340000Y-45720000D03*
%TD*%
%TO.C,REF\u002A\u002A*%
X35560000Y-20320000D03*
%TD*%
%TO.C,REF\u002A\u002A*%
X17780000Y-55880000D03*
%TD*%
%TO.C,REF\u002A\u002A*%
X33020000Y-68612690D03*
%TD*%
%TO.C,REF\u002A\u002A*%
X12700000Y-71120000D03*
%TD*%
%TO.C,REF\u002A\u002A*%
X43180000Y-17780000D03*
%TD*%
%TO.C,REF\u002A\u002A*%
X38100000Y-33020000D03*
%TD*%
%TO.C,REF\u002A\u002A*%
X38100000Y-73660000D03*
%TD*%
D21*
%TO.C,5V02*%
X22860000Y-40640000D03*
%TD*%
D20*
%TO.C,REF\u002A\u002A*%
X48260000Y-25400000D03*
%TD*%
%TO.C,REF\u002A\u002A*%
X50800000Y-55880000D03*
%TD*%
%TO.C,REF\u002A\u002A*%
X25400000Y-55880000D03*
%TD*%
%TO.C,REF\u002A\u002A*%
X17780000Y-71120000D03*
%TD*%
%TO.C,REF\u002A\u002A*%
X50800000Y-73660000D03*
%TD*%
%TO.C,REF\u002A\u002A*%
X38100000Y-71120000D03*
%TD*%
%TO.C,REF\u002A\u002A*%
X50800000Y-33020000D03*
%TD*%
%TO.C,REF\u002A\u002A*%
X45720000Y-25400000D03*
%TD*%
%TO.C,REF\u002A\u002A*%
X32987310Y-43159141D03*
%TD*%
%TO.C,REF\u002A\u002A*%
X22860000Y-66040000D03*
%TD*%
%TO.C,REF\u002A\u002A*%
X50800000Y-48260000D03*
%TD*%
%TO.C,REF\u002A\u002A*%
X17780000Y-73660000D03*
%TD*%
%TO.C,REF\u002A\u002A*%
X25400000Y-53340000D03*
%TD*%
%TO.C,REF\u002A\u002A*%
X45720000Y-68612690D03*
%TD*%
D21*
%TO.C,IO34*%
X21590000Y-33020000D03*
%TD*%
D20*
%TO.C,REF\u002A\u002A*%
X45720000Y-73660000D03*
%TD*%
%TO.C,REF\u002A\u002A*%
X53340000Y-35560000D03*
%TD*%
%TO.C,REF\u002A\u002A*%
X30480000Y-73660000D03*
%TD*%
%TO.C,REF\u002A\u002A*%
X53307310Y-43159141D03*
%TD*%
%TO.C,REF\u002A\u002A*%
X27940000Y-60960000D03*
%TD*%
%TO.C,REF\u002A\u002A*%
X33020000Y-33020000D03*
%TD*%
D21*
%TO.C,IO3*%
X40005000Y-10795000D03*
%TD*%
D20*
%TO.C,REF\u002A\u002A*%
X15240000Y-63500000D03*
%TD*%
%TO.C,REF\u002A\u002A*%
X35560000Y-53340000D03*
%TD*%
%TO.C,REF\u002A\u002A*%
X25400000Y-58420000D03*
%TD*%
%TO.C,REF\u002A\u002A*%
X43180000Y-45720000D03*
%TD*%
%TO.C,REF\u002A\u002A*%
X43180000Y-63500000D03*
%TD*%
%TO.C,REF\u002A\u002A*%
X10160000Y-71120000D03*
%TD*%
%TO.C,REF\u002A\u002A*%
X30480000Y-30480000D03*
%TD*%
%TO.C,REF\u002A\u002A*%
X50800000Y-30480000D03*
%TD*%
%TO.C,REF\u002A\u002A*%
X58420000Y-27940000D03*
%TD*%
%TO.C,REF\u002A\u002A*%
X43180000Y-71120000D03*
%TD*%
%TO.C,REF\u002A\u002A*%
X33020000Y-66040000D03*
%TD*%
%TO.C,REF\u002A\u002A*%
X40640000Y-60960000D03*
%TD*%
D21*
%TO.C,G3*%
X17780000Y-50800000D03*
%TD*%
D20*
%TO.C,REF\u002A\u002A*%
X25400000Y-33020000D03*
%TD*%
%TO.C,REF\u002A\u002A*%
X53340000Y-53340000D03*
%TD*%
%TO.C,REF\u002A\u002A*%
X22860000Y-71120000D03*
%TD*%
%TO.C,REF\u002A\u002A*%
X38100000Y-53340000D03*
%TD*%
%TO.C,REF\u002A\u002A*%
X27940000Y-66040000D03*
%TD*%
%TO.C,REF\u002A\u002A*%
X55880000Y-63500000D03*
%TD*%
%TO.C,REF\u002A\u002A*%
X12700000Y-73660000D03*
%TD*%
%TO.C,REF\u002A\u002A*%
X35560000Y-27940000D03*
%TD*%
%TO.C,REF\u002A\u002A*%
X30480000Y-58420000D03*
%TD*%
%TO.C,REF\u002A\u002A*%
X17780000Y-68612690D03*
%TD*%
%TO.C,REF\u002A\u002A*%
X50800000Y-20320000D03*
%TD*%
%TO.C,REF\u002A\u002A*%
X27940000Y-33020000D03*
%TD*%
D21*
%TO.C,IO4*%
X31750000Y-27940000D03*
%TD*%
D20*
%TO.C,REF\u002A\u002A*%
X33020000Y-30480000D03*
%TD*%
%TO.C,REF\u002A\u002A*%
X27940000Y-50800000D03*
%TD*%
%TO.C,REF\u002A\u002A*%
X40640000Y-63500000D03*
%TD*%
%TO.C,REF\u002A\u002A*%
X53340000Y-38100000D03*
%TD*%
%TO.C,REF\u002A\u002A*%
X50800000Y-63500000D03*
%TD*%
D21*
%TO.C,G5*%
X22860000Y-35560000D03*
%TD*%
D20*
%TO.C,REF\u002A\u002A*%
X48260000Y-50800000D03*
%TD*%
D21*
%TO.C,G4*%
X22860000Y-43180000D03*
%TD*%
D20*
%TO.C,REF\u002A\u002A*%
X45720000Y-55880000D03*
%TD*%
%TO.C,REF\u002A\u002A*%
X45720000Y-35560000D03*
%TD*%
D21*
%TO.C,VIN3*%
X12700000Y-55880000D03*
%TD*%
D20*
%TO.C,REF\u002A\u002A*%
X20320000Y-68612690D03*
%TD*%
%TO.C,REF\u002A\u002A*%
X58420000Y-35560000D03*
%TD*%
%TO.C,REF\u002A\u002A*%
X35560000Y-55880000D03*
%TD*%
%TO.C,REF\u002A\u002A*%
X25400000Y-73660000D03*
%TD*%
%TO.C,REF\u002A\u002A*%
X48260000Y-66040000D03*
%TD*%
%TO.C,REF\u002A\u002A*%
X30480000Y-68612690D03*
%TD*%
%TO.C,REF\u002A\u002A*%
X33020000Y-48260000D03*
%TD*%
%TO.C,REF\u002A\u002A*%
X50800000Y-50800000D03*
%TD*%
%TO.C,REF\u002A\u002A*%
X53340000Y-25400000D03*
%TD*%
%TO.C,REF\u002A\u002A*%
X48260000Y-33020000D03*
%TD*%
%TO.C,REF\u002A\u002A*%
X25367310Y-43159141D03*
%TD*%
D21*
%TO.C,IO2*%
X26035000Y-27940000D03*
%TD*%
D20*
%TO.C,REF\u002A\u002A*%
X20320000Y-50800000D03*
%TD*%
%TO.C,REF\u002A\u002A*%
X43147310Y-43159141D03*
%TD*%
%TO.C,REF\u002A\u002A*%
X45720000Y-45720000D03*
%TD*%
%TO.C,REF\u002A\u002A*%
X43180000Y-66040000D03*
%TD*%
%TO.C,REF\u002A\u002A*%
X25400000Y-50800000D03*
%TD*%
%TO.C,REF\u002A\u002A*%
X43180000Y-20320000D03*
%TD*%
%TO.C,REF\u002A\u002A*%
X40640000Y-45720000D03*
%TD*%
D21*
%TO.C,G1*%
X10160000Y-63500000D03*
%TD*%
D20*
%TO.C,REF\u002A\u002A*%
X30480000Y-35560000D03*
%TD*%
%TO.C,REF\u002A\u002A*%
X45720000Y-66040000D03*
%TD*%
D21*
%TO.C,IO35*%
X21590000Y-30480000D03*
%TD*%
D20*
%TO.C,REF\u002A\u002A*%
X58420000Y-30480000D03*
%TD*%
D21*
%TO.C,IO23*%
X32385000Y-10795000D03*
%TD*%
D20*
%TO.C,REF\u002A\u002A*%
X27940000Y-35560000D03*
%TD*%
D21*
%TO.C,IO0*%
X34925000Y-10795000D03*
%TD*%
D20*
%TO.C,REF\u002A\u002A*%
X35560000Y-38100000D03*
%TD*%
%TO.C,REF\u002A\u002A*%
X12700000Y-60960000D03*
%TD*%
%TO.C,REF\u002A\u002A*%
X50800000Y-60960000D03*
%TD*%
%TO.C,REF\u002A\u002A*%
X17780000Y-60960000D03*
%TD*%
%TO.C,REF\u002A\u002A*%
X55880000Y-50800000D03*
%TD*%
%TO.C,REF\u002A\u002A*%
X38100000Y-27940000D03*
%TD*%
%TO.C,REF\u002A\u002A*%
X50767310Y-40640000D03*
%TD*%
%TO.C,REF\u002A\u002A*%
X45720000Y-58420000D03*
%TD*%
%TO.C,REF\u002A\u002A*%
X55880000Y-27940000D03*
%TD*%
%TO.C,REF\u002A\u002A*%
X45720000Y-63500000D03*
%TD*%
%TO.C,REF\u002A\u002A*%
X45687310Y-40640000D03*
%TD*%
%TO.C,REF\u002A\u002A*%
X48260000Y-58420000D03*
%TD*%
%TO.C,REF\u002A\u002A*%
X58420000Y-68580000D03*
%TD*%
%TO.C,REF\u002A\u002A*%
X25367310Y-40640000D03*
%TD*%
%TO.C,REF\u002A\u002A*%
X35560000Y-71120000D03*
%TD*%
%TO.C,REF\u002A\u002A*%
X27940000Y-55880000D03*
%TD*%
%TO.C,REF\u002A\u002A*%
X35560000Y-50800000D03*
%TD*%
%TO.C,REF\u002A\u002A*%
X48260000Y-17780000D03*
%TD*%
%TO.C,REF\u002A\u002A*%
X38100000Y-60960000D03*
%TD*%
D21*
%TO.C,3V32*%
X22860000Y-38100000D03*
%TD*%
D20*
%TO.C,REF\u002A\u002A*%
X43147310Y-40640000D03*
%TD*%
%TO.C,REF\u002A\u002A*%
X27940000Y-48260000D03*
%TD*%
%TO.C,REF\u002A\u002A*%
X40640000Y-50800000D03*
%TD*%
%TO.C,REF\u002A\u002A*%
X35560000Y-30480000D03*
%TD*%
%TO.C,REF\u002A\u002A*%
X48260000Y-45720000D03*
%TD*%
%TO.C,REF\u002A\u002A*%
X58387310Y-48260000D03*
%TD*%
%TO.C,REF\u002A\u002A*%
X48227310Y-43159141D03*
%TD*%
%TO.C,REF\u002A\u002A*%
X55880000Y-45720000D03*
%TD*%
%TO.C,REF\u002A\u002A*%
X50800000Y-68612690D03*
%TD*%
%TO.C,REF\u002A\u002A*%
X20320000Y-66040000D03*
%TD*%
%TO.C,REF\u002A\u002A*%
X38100000Y-58420000D03*
%TD*%
D21*
%TO.C,G6*%
X40640000Y-15240000D03*
%TD*%
D20*
%TO.C,REF\u002A\u002A*%
X12700000Y-63500000D03*
%TD*%
%TO.C,REF\u002A\u002A*%
X17780000Y-66040000D03*
%TD*%
%TO.C,REF\u002A\u002A*%
X30480000Y-33020000D03*
%TD*%
%TO.C,REF\u002A\u002A*%
X45720000Y-27940000D03*
%TD*%
%TO.C,REF\u002A\u002A*%
X53340000Y-60960000D03*
%TD*%
%TO.C,REF\u002A\u002A*%
X30480000Y-63500000D03*
%TD*%
%TO.C,REF\u002A\u002A*%
X25400000Y-38100000D03*
%TD*%
%TO.C,REF\u002A\u002A*%
X30480000Y-53340000D03*
%TD*%
%TO.C,REF\u002A\u002A*%
X43180000Y-55880000D03*
%TD*%
D21*
%TO.C,G2*%
X10160000Y-58420000D03*
%TD*%
D20*
%TO.C,REF\u002A\u002A*%
X20320000Y-60960000D03*
%TD*%
%TO.C,REF\u002A\u002A*%
X58387310Y-55880000D03*
%TD*%
%TO.C,REF\u002A\u002A*%
X55880000Y-30480000D03*
%TD*%
%TO.C,REF\u002A\u002A*%
X55880000Y-53340000D03*
%TD*%
%TO.C,REF\u002A\u002A*%
X48260000Y-27940000D03*
%TD*%
%TO.C,REF\u002A\u002A*%
X33020000Y-73660000D03*
%TD*%
%TO.C,REF\u002A\u002A*%
X22860000Y-63500000D03*
%TD*%
%TO.C,REF\u002A\u002A*%
X30480000Y-71120000D03*
%TD*%
%TO.C,REF\u002A\u002A*%
X25400000Y-48260000D03*
%TD*%
%TO.C,REF\u002A\u002A*%
X7620000Y-73660000D03*
%TD*%
%TO.C,REF\u002A\u002A*%
X58420000Y-40640000D03*
%TD*%
%TO.C,REF\u002A\u002A*%
X45720000Y-60960000D03*
%TD*%
%TO.C,REF\u002A\u002A*%
X20320000Y-63500000D03*
%TD*%
%TO.C,REF\u002A\u002A*%
X43180000Y-25400000D03*
%TD*%
%TO.C,REF\u002A\u002A*%
X48260000Y-35560000D03*
%TD*%
D21*
%TO.C,IO25*%
X21590000Y-25400000D03*
%TD*%
D20*
%TO.C,REF\u002A\u002A*%
X50800000Y-53340000D03*
%TD*%
%TO.C,REF\u002A\u002A*%
X25400000Y-30480000D03*
%TD*%
%TO.C,REF\u002A\u002A*%
X55880000Y-66040000D03*
%TD*%
%TO.C,REF\u002A\u002A*%
X33020000Y-35560000D03*
%TD*%
%TO.C,REF\u002A\u002A*%
X38100000Y-30480000D03*
%TD*%
%TO.C,REF\u002A\u002A*%
X58387310Y-58420000D03*
%TD*%
%TO.C,REF\u002A\u002A*%
X38100000Y-50800000D03*
%TD*%
%TO.C,REF\u002A\u002A*%
X53340000Y-63500000D03*
%TD*%
%TO.C,REF\u002A\u002A*%
X33020000Y-71120000D03*
%TD*%
%TO.C,REF\u002A\u002A*%
X48260000Y-63500000D03*
%TD*%
%TO.C,REF\u002A\u002A*%
X55880000Y-48260000D03*
%TD*%
%TO.C,REF\u002A\u002A*%
X43180000Y-58420000D03*
%TD*%
D21*
%TO.C,3V31*%
X22860000Y-45720000D03*
%TD*%
D20*
%TO.C,REF\u002A\u002A*%
X38100000Y-20320000D03*
%TD*%
%TO.C,REF\u002A\u002A*%
X43180000Y-50800000D03*
%TD*%
%TO.C,REF\u002A\u002A*%
X27940000Y-53340000D03*
%TD*%
D21*
%TO.C,IO13*%
X15875000Y-22860000D03*
%TD*%
D20*
%TO.C,REF\u002A\u002A*%
X48227310Y-40640000D03*
%TD*%
%TO.C,REF\u002A\u002A*%
X50800000Y-25400000D03*
%TD*%
%TO.C,REF\u002A\u002A*%
X48260000Y-71120000D03*
%TD*%
%TO.C,REF\u002A\u002A*%
X27940000Y-30480000D03*
%TD*%
%TO.C,REF\u002A\u002A*%
X38067310Y-43159141D03*
%TD*%
%TO.C,REF\u002A\u002A*%
X15240000Y-66040000D03*
%TD*%
%TO.C,REF\u002A\u002A*%
X53340000Y-66040000D03*
%TD*%
D21*
%TO.C,IO26*%
X21590000Y-27940000D03*
%TD*%
%TO.C,3V33*%
X38100000Y-15240000D03*
%TD*%
%TO.C,IO19*%
X29845000Y-10795000D03*
%TD*%
D20*
%TO.C,REF\u002A\u002A*%
X53340000Y-58420000D03*
%TD*%
%TO.C,REF\u002A\u002A*%
X15240000Y-71120000D03*
%TD*%
%TO.C,REF\u002A\u002A*%
X12700000Y-68612690D03*
%TD*%
%TO.C,REF\u002A\u002A*%
X43180000Y-33020000D03*
%TD*%
%TO.C,REF\u002A\u002A*%
X45720000Y-38100000D03*
%TD*%
D21*
%TO.C,IO1*%
X37465000Y-10795000D03*
%TD*%
D20*
%TO.C,REF\u002A\u002A*%
X27907310Y-43159141D03*
%TD*%
%TO.C,REF\u002A\u002A*%
X10160000Y-73660000D03*
%TD*%
%TO.C,REF\u002A\u002A*%
X20320000Y-55880000D03*
%TD*%
%TO.C,REF\u002A\u002A*%
X38100000Y-35560000D03*
%TD*%
%TO.C,REF\u002A\u002A*%
X40640000Y-17780000D03*
%TD*%
%TO.C,REF\u002A\u002A*%
X48260000Y-55880000D03*
%TD*%
%TO.C,REF\u002A\u002A*%
X55880000Y-25400000D03*
%TD*%
D21*
%TO.C,5V01*%
X22860000Y-48260000D03*
%TD*%
%TO.C,IO15*%
X26035000Y-25400000D03*
%TD*%
D20*
%TO.C,REF\u002A\u002A*%
X45687310Y-43159141D03*
%TD*%
%TO.C,REF\u002A\u002A*%
X58420000Y-66040000D03*
%TD*%
%TO.C,REF\u002A\u002A*%
X25400000Y-71120000D03*
%TD*%
%TO.C,REF\u002A\u002A*%
X48260000Y-60960000D03*
%TD*%
D24*
X11049000Y-22352000D03*
X23875000Y-1745000D03*
X17750000Y-8000000D03*
X5826000Y-37992000D03*
X15750000Y-8000000D03*
X17750000Y-10000000D03*
X15750000Y-10000000D03*
D10*
X27432000Y-21500000D03*
X5207000Y-12331500D03*
D14*
X13081000Y-35941000D03*
D10*
X2159000Y-12685000D03*
X8242000Y-24118000D03*
X2159000Y-22464000D03*
X1016000Y-42550500D03*
D24*
X4953000Y-32336500D03*
X11637324Y-1664990D03*
X15221000Y-48638000D03*
D14*
X11176000Y-24257000D03*
D24*
X7112000Y-30099000D03*
D10*
X6960000Y-18034000D03*
D24*
X9751000Y-35492000D03*
D10*
X6751000Y-39742000D03*
X6096000Y-52712000D03*
D24*
X51308000Y-8128000D03*
X23368000Y-12954000D03*
D10*
X28133000Y-7300000D03*
X19812000Y-5842000D03*
D24*
X13749000Y-3015000D03*
D10*
X50546000Y-12700000D03*
X48895000Y-10160000D03*
X30099000Y-6350000D03*
D24*
X2526000Y-29247500D03*
D10*
X30099000Y-2540000D03*
X49022000Y-15240000D03*
X5296500Y-18046500D03*
X28194000Y-2667000D03*
X24130000Y-5588000D03*
X28067000Y-4445000D03*
X23465000Y-17235000D03*
X28067000Y-6223000D03*
X6756500Y-12332000D03*
X22606000Y-4699000D03*
X10922000Y-18255000D03*
X11270000Y-16985000D03*
X22195000Y-17235000D03*
X24130000Y-4285000D03*
X21082000Y-8890000D03*
X11270000Y-13175000D03*
X11270000Y-14445000D03*
X11270000Y-15715000D03*
X11270000Y-10635000D03*
X9017000Y-19685000D03*
X11270000Y-11905000D03*
X11270000Y-8095000D03*
X11270000Y-9365000D03*
M02*
