%TF.GenerationSoftware,KiCad,Pcbnew,(6.0.1)*%
%TF.CreationDate,2023-01-01T21:05:58-08:00*%
%TF.ProjectId,ESP32 Protoboard - Small R1,45535033-3220-4507-926f-746f626f6172,rev?*%
%TF.SameCoordinates,Original*%
%TF.FileFunction,Soldermask,Top*%
%TF.FilePolarity,Negative*%
%FSLAX46Y46*%
G04 Gerber Fmt 4.6, Leading zero omitted, Abs format (unit mm)*
G04 Created by KiCad (PCBNEW (6.0.1)) date 2023-01-01 21:05:58*
%MOMM*%
%LPD*%
G01*
G04 APERTURE LIST*
G04 Aperture macros list*
%AMRoundRect*
0 Rectangle with rounded corners*
0 $1 Rounding radius*
0 $2 $3 $4 $5 $6 $7 $8 $9 X,Y pos of 4 corners*
0 Add a 4 corners polygon primitive as box body*
4,1,4,$2,$3,$4,$5,$6,$7,$8,$9,$2,$3,0*
0 Add four circle primitives for the rounded corners*
1,1,$1+$1,$2,$3*
1,1,$1+$1,$4,$5*
1,1,$1+$1,$6,$7*
1,1,$1+$1,$8,$9*
0 Add four rect primitives between the rounded corners*
20,1,$1+$1,$2,$3,$4,$5,0*
20,1,$1+$1,$4,$5,$6,$7,0*
20,1,$1+$1,$6,$7,$8,$9,0*
20,1,$1+$1,$8,$9,$2,$3,0*%
G04 Aperture macros list end*
%ADD10RoundRect,0.101600X0.400000X0.400000X-0.400000X0.400000X-0.400000X-0.400000X0.400000X-0.400000X0*%
%ADD11RoundRect,0.250000X0.275000X-0.200000X0.275000X0.200000X-0.275000X0.200000X-0.275000X-0.200000X0*%
%ADD12RoundRect,0.250000X0.200000X0.275000X-0.200000X0.275000X-0.200000X-0.275000X0.200000X-0.275000X0*%
%ADD13RoundRect,0.050000X-0.750000X0.750000X-0.750000X-0.750000X0.750000X-0.750000X0.750000X0.750000X0*%
%ADD14RoundRect,0.250000X-0.275000X0.200000X-0.275000X-0.200000X0.275000X-0.200000X0.275000X0.200000X0*%
%ADD15RoundRect,0.275000X0.225000X0.250000X-0.225000X0.250000X-0.225000X-0.250000X0.225000X-0.250000X0*%
%ADD16RoundRect,0.275000X0.250000X-0.225000X0.250000X0.225000X-0.250000X0.225000X-0.250000X-0.225000X0*%
%ADD17RoundRect,0.300000X0.650000X-0.325000X0.650000X0.325000X-0.650000X0.325000X-0.650000X-0.325000X0*%
%ADD18C,0.900000*%
%ADD19C,5.100000*%
%ADD20RoundRect,0.050000X0.800000X0.800000X-0.800000X0.800000X-0.800000X-0.800000X0.800000X-0.800000X0*%
%ADD21C,1.700000*%
%ADD22RoundRect,0.200000X0.150000X-0.825000X0.150000X0.825000X-0.150000X0.825000X-0.150000X-0.825000X0*%
%ADD23RoundRect,0.300000X0.787500X1.025000X-0.787500X1.025000X-0.787500X-1.025000X0.787500X-1.025000X0*%
%ADD24RoundRect,0.300000X1.025000X-0.787500X1.025000X0.787500X-1.025000X0.787500X-1.025000X-0.787500X0*%
%ADD25RoundRect,0.300000X-1.025000X0.787500X-1.025000X-0.787500X1.025000X-0.787500X1.025000X0.787500X0*%
%ADD26RoundRect,0.275000X-0.250000X0.225000X-0.250000X-0.225000X0.250000X-0.225000X0.250000X0.225000X0*%
%ADD27RoundRect,0.050000X0.750000X-1.000000X0.750000X1.000000X-0.750000X1.000000X-0.750000X-1.000000X0*%
%ADD28RoundRect,0.050000X1.900000X-1.000000X1.900000X1.000000X-1.900000X1.000000X-1.900000X-1.000000X0*%
%ADD29RoundRect,0.250000X-0.200000X-0.275000X0.200000X-0.275000X0.200000X0.275000X-0.200000X0.275000X0*%
%ADD30RoundRect,0.050000X1.250000X0.900000X-1.250000X0.900000X-1.250000X-0.900000X1.250000X-0.900000X0*%
%ADD31RoundRect,0.050000X-1.000000X-0.450000X1.000000X-0.450000X1.000000X0.450000X-1.000000X0.450000X0*%
%ADD32RoundRect,0.050000X0.450000X-1.000000X0.450000X1.000000X-0.450000X1.000000X-0.450000X-1.000000X0*%
%ADD33RoundRect,0.050000X-2.500000X-2.500000X2.500000X-2.500000X2.500000X2.500000X-2.500000X2.500000X0*%
%ADD34RoundRect,0.050000X2.000000X-1.750000X2.000000X1.750000X-2.000000X1.750000X-2.000000X-1.750000X0*%
%ADD35C,1.100000*%
%ADD36C,1.300000*%
%ADD37RoundRect,0.300000X0.750000X-0.600000X0.750000X0.600000X-0.750000X0.600000X-0.750000X-0.600000X0*%
%ADD38O,2.100000X1.800000*%
%ADD39RoundRect,0.300000X0.725000X-0.600000X0.725000X0.600000X-0.725000X0.600000X-0.725000X-0.600000X0*%
%ADD40O,2.050000X1.800000*%
%ADD41C,1.600000*%
%ADD42C,2.100000*%
%ADD43RoundRect,0.050000X0.850000X-0.850000X0.850000X0.850000X-0.850000X0.850000X-0.850000X-0.850000X0*%
%ADD44O,1.800000X1.800000*%
%ADD45RoundRect,0.200000X-0.587500X-0.150000X0.587500X-0.150000X0.587500X0.150000X-0.587500X0.150000X0*%
%ADD46C,1.900000*%
G04 APERTURE END LIST*
D10*
%TO.C,D12*%
X5207000Y-24118000D03*
X5207000Y-22618000D03*
%TD*%
D11*
%TO.C,R10*%
X5207000Y-21145000D03*
X5207000Y-19495000D03*
%TD*%
D12*
%TO.C,R14*%
X51826000Y-10160000D03*
X50176000Y-10160000D03*
%TD*%
D13*
%TO.C,SW1*%
X2159000Y-6768000D03*
X2159000Y-14568000D03*
%TD*%
D14*
%TO.C,R6*%
X5334000Y-15177000D03*
X5334000Y-16827000D03*
%TD*%
D15*
%TO.C,C3*%
X7379000Y-34798000D03*
X5829000Y-34798000D03*
%TD*%
D16*
%TO.C,C11*%
X12700000Y-26429000D03*
X12700000Y-24879000D03*
%TD*%
D17*
%TO.C,C2*%
X12446000Y-51513000D03*
X12446000Y-48563000D03*
%TD*%
D10*
%TO.C,D8*%
X6985000Y-24118000D03*
X6985000Y-22618000D03*
%TD*%
D11*
%TO.C,R4*%
X6731000Y-6286000D03*
X6731000Y-4636000D03*
%TD*%
D18*
%TO.C,H4*%
X55674175Y-73325825D03*
X55125000Y-72000000D03*
X55674175Y-70674175D03*
D19*
X57000000Y-72000000D03*
D18*
X58875000Y-72000000D03*
X58325825Y-73325825D03*
X58325825Y-70674175D03*
X57000000Y-70125000D03*
X57000000Y-73875000D03*
%TD*%
%TO.C,H3*%
X57000000Y-1125000D03*
X55674175Y-4325825D03*
D19*
X57000000Y-3000000D03*
D18*
X58325825Y-4325825D03*
X57000000Y-4875000D03*
X55674175Y-1674175D03*
X55125000Y-3000000D03*
X58325825Y-1674175D03*
X58875000Y-3000000D03*
%TD*%
D12*
%TO.C,R15*%
X51953000Y-15277500D03*
X50303000Y-15277500D03*
%TD*%
%TO.C,R5*%
X26257000Y-21500000D03*
X24607000Y-21500000D03*
%TD*%
D10*
%TO.C,D7*%
X1016000Y-41338000D03*
X1016000Y-39838000D03*
%TD*%
D20*
%TO.C,C1*%
X5080000Y-57150000D03*
D21*
X2580000Y-57150000D03*
%TD*%
D22*
%TO.C,U2*%
X6096000Y-50717000D03*
X7366000Y-50717000D03*
X8636000Y-50717000D03*
X9906000Y-50717000D03*
X9906000Y-45767000D03*
X8636000Y-45767000D03*
X7366000Y-45767000D03*
X6096000Y-45767000D03*
%TD*%
D18*
%TO.C,H2*%
X3000000Y-70125000D03*
D19*
X3000000Y-72000000D03*
D18*
X3000000Y-73875000D03*
X4875000Y-72000000D03*
X4325825Y-70674175D03*
X1125000Y-72000000D03*
X1674175Y-73325825D03*
X4325825Y-73325825D03*
X1674175Y-70674175D03*
%TD*%
D13*
%TO.C,SW2*%
X2159000Y-16674000D03*
X2159000Y-24474000D03*
%TD*%
D23*
%TO.C,C4*%
X9363500Y-37992000D03*
X3138500Y-37992000D03*
%TD*%
D11*
%TO.C,R26*%
X1016000Y-38163000D03*
X1016000Y-36513000D03*
%TD*%
D24*
%TO.C,C7*%
X2751000Y-52104500D03*
X2751000Y-45879500D03*
%TD*%
D25*
%TO.C,C10*%
X2540000Y-26986500D03*
X2540000Y-33211500D03*
%TD*%
D16*
%TO.C,C9*%
X7000000Y-2934000D03*
X7000000Y-1384000D03*
%TD*%
D26*
%TO.C,C8*%
X5207000Y-9512000D03*
X5207000Y-11062000D03*
%TD*%
D27*
%TO.C,U3*%
X7098000Y-32741000D03*
X9398000Y-32741000D03*
D28*
X9398000Y-26441000D03*
D27*
X11698000Y-32741000D03*
%TD*%
D11*
%TO.C,R27*%
X8636000Y-22923000D03*
X8636000Y-21273000D03*
%TD*%
D26*
%TO.C,C6*%
X13843000Y-33007000D03*
X13843000Y-34557000D03*
%TD*%
D15*
%TO.C,C5*%
X10026000Y-52742000D03*
X8476000Y-52742000D03*
%TD*%
D29*
%TO.C,R7*%
X5144000Y-13589000D03*
X6794000Y-13589000D03*
%TD*%
%TO.C,R3*%
X5144000Y-7874000D03*
X6794000Y-7874000D03*
%TD*%
D30*
%TO.C,D1*%
X8251000Y-42492000D03*
X4251000Y-42492000D03*
%TD*%
D31*
%TO.C,U1*%
X9250000Y-1745000D03*
X9250000Y-3015000D03*
X9250000Y-4285000D03*
X9250000Y-5555000D03*
X9250000Y-6825000D03*
X9250000Y-8095000D03*
X9250000Y-9365000D03*
X9250000Y-10635000D03*
X9250000Y-11905000D03*
X9250000Y-13175000D03*
X9250000Y-14445000D03*
X9250000Y-15715000D03*
X9250000Y-16985000D03*
X9250000Y-18255000D03*
D32*
X12035000Y-19255000D03*
X13305000Y-19255000D03*
X14575000Y-19255000D03*
X15845000Y-19255000D03*
X17115000Y-19255000D03*
X18385000Y-19255000D03*
X19655000Y-19255000D03*
X20925000Y-19255000D03*
X22195000Y-19255000D03*
X23465000Y-19255000D03*
D31*
X26250000Y-18255000D03*
X26250000Y-16985000D03*
X26250000Y-15715000D03*
X26250000Y-14445000D03*
X26250000Y-13175000D03*
X26250000Y-11905000D03*
X26250000Y-10635000D03*
X26250000Y-9365000D03*
X26250000Y-8095000D03*
X26250000Y-6825000D03*
X26250000Y-5555000D03*
X26250000Y-4285000D03*
X26250000Y-3015000D03*
X26250000Y-1745000D03*
D33*
X16750000Y-9245000D03*
%TD*%
D34*
%TO.C,L1*%
X16251000Y-45492000D03*
X16251000Y-37492000D03*
%TD*%
D18*
%TO.C,H1*%
X4325825Y-4325825D03*
X3000000Y-1125000D03*
X4325825Y-1674175D03*
X1674175Y-1674175D03*
D19*
X3000000Y-3000000D03*
D18*
X4875000Y-3000000D03*
X1674175Y-4325825D03*
X1125000Y-3000000D03*
X3000000Y-4875000D03*
%TD*%
D29*
%TO.C,R2*%
X33465000Y-3556000D03*
X35115000Y-3556000D03*
%TD*%
D35*
%TO.C,TP1*%
X48895000Y-5715000D03*
%TD*%
%TO.C,TP2*%
X46355000Y-5715000D03*
%TD*%
%TO.C,TP3*%
X41275000Y-5715000D03*
%TD*%
%TO.C,TP4*%
X38735000Y-5715000D03*
%TD*%
D36*
%TO.C,J1*%
X5268000Y-67854000D03*
D37*
X3268000Y-66254000D03*
D38*
X3268000Y-63754000D03*
%TD*%
D36*
%TO.C,J8*%
X57990000Y-21205000D03*
D39*
X55990000Y-19605000D03*
D40*
X55990000Y-17105000D03*
X55990000Y-14605000D03*
X55990000Y-12105000D03*
X55990000Y-9605000D03*
%TD*%
D41*
%TO.C,REF\u002A\u002A*%
X55880000Y-35560000D03*
%TD*%
%TO.C,REF\u002A\u002A*%
X38067310Y-40640000D03*
%TD*%
%TO.C,REF\u002A\u002A*%
X48260000Y-73660000D03*
%TD*%
%TO.C,REF\u002A\u002A*%
X30480000Y-66040000D03*
%TD*%
%TO.C,REF\u002A\u002A*%
X30480000Y-48260000D03*
%TD*%
%TO.C,REF\u002A\u002A*%
X15240000Y-73660000D03*
%TD*%
%TO.C,REF\u002A\u002A*%
X38100000Y-45720000D03*
%TD*%
%TO.C,REF\u002A\u002A*%
X27940000Y-73660000D03*
%TD*%
%TO.C,REF\u002A\u002A*%
X33020000Y-50800000D03*
%TD*%
%TO.C,REF\u002A\u002A*%
X45720000Y-50800000D03*
%TD*%
%TO.C,REF\u002A\u002A*%
X40640000Y-48260000D03*
%TD*%
%TO.C,REF\u002A\u002A*%
X27940000Y-71120000D03*
%TD*%
%TO.C,REF\u002A\u002A*%
X50800000Y-35560000D03*
%TD*%
%TO.C,REF\u002A\u002A*%
X22860000Y-50800000D03*
%TD*%
%TO.C,REF\u002A\u002A*%
X38100000Y-68612690D03*
%TD*%
%TO.C,REF\u002A\u002A*%
X33020000Y-38100000D03*
%TD*%
%TO.C,REF\u002A\u002A*%
X15240000Y-55880000D03*
%TD*%
%TO.C,REF\u002A\u002A*%
X25400000Y-68612690D03*
%TD*%
%TO.C,REF\u002A\u002A*%
X55880000Y-68580000D03*
%TD*%
%TO.C,REF\u002A\u002A*%
X15240000Y-68612690D03*
%TD*%
D42*
%TO.C,IO21*%
X42545000Y-10795000D03*
%TD*%
D41*
%TO.C,REF\u002A\u002A*%
X20320000Y-73660000D03*
%TD*%
%TO.C,REF\u002A\u002A*%
X55880000Y-58420000D03*
%TD*%
D42*
%TO.C,IO17*%
X31750000Y-22860000D03*
%TD*%
D41*
%TO.C,REF\u002A\u002A*%
X20320000Y-71120000D03*
%TD*%
%TO.C,REF\u002A\u002A*%
X55847310Y-40640000D03*
%TD*%
%TO.C,REF\u002A\u002A*%
X30447310Y-43159141D03*
%TD*%
%TO.C,REF\u002A\u002A*%
X53307310Y-40640000D03*
%TD*%
%TO.C,REF\u002A\u002A*%
X35560000Y-33020000D03*
%TD*%
%TO.C,REF\u002A\u002A*%
X43180000Y-22860000D03*
%TD*%
%TO.C,REF\u002A\u002A*%
X43180000Y-35560000D03*
%TD*%
%TO.C,REF\u002A\u002A*%
X22860000Y-60960000D03*
%TD*%
%TO.C,REF\u002A\u002A*%
X58420000Y-38100000D03*
%TD*%
%TO.C,REF\u002A\u002A*%
X58420000Y-63500000D03*
%TD*%
%TO.C,REF\u002A\u002A*%
X32987310Y-40640000D03*
%TD*%
%TO.C,REF\u002A\u002A*%
X55880000Y-33020000D03*
%TD*%
D42*
%TO.C,IO14*%
X15875000Y-30480000D03*
%TD*%
D41*
%TO.C,REF\u002A\u002A*%
X40640000Y-22860000D03*
%TD*%
%TO.C,REF\u002A\u002A*%
X30480000Y-60960000D03*
%TD*%
%TO.C,REF\u002A\u002A*%
X27940000Y-45720000D03*
%TD*%
%TO.C,REF\u002A\u002A*%
X45720000Y-33020000D03*
%TD*%
%TO.C,REF\u002A\u002A*%
X27940000Y-38100000D03*
%TD*%
%TO.C,REF\u002A\u002A*%
X50800000Y-45720000D03*
%TD*%
%TO.C,REF\u002A\u002A*%
X22860000Y-68612690D03*
%TD*%
%TO.C,REF\u002A\u002A*%
X40640000Y-68612690D03*
%TD*%
%TO.C,REF\u002A\u002A*%
X48260000Y-20320000D03*
%TD*%
%TO.C,REF\u002A\u002A*%
X33020000Y-55880000D03*
%TD*%
%TO.C,REF\u002A\u002A*%
X20320000Y-53340000D03*
%TD*%
%TO.C,REF\u002A\u002A*%
X35560000Y-25400000D03*
%TD*%
%TO.C,REF\u002A\u002A*%
X35560000Y-48260000D03*
%TD*%
%TO.C,REF\u002A\u002A*%
X40640000Y-25400000D03*
%TD*%
%TO.C,REF\u002A\u002A*%
X53340000Y-71120000D03*
%TD*%
%TO.C,REF\u002A\u002A*%
X17780000Y-63500000D03*
%TD*%
%TO.C,REF\u002A\u002A*%
X7620000Y-71120000D03*
%TD*%
%TO.C,REF\u002A\u002A*%
X48260000Y-53340000D03*
%TD*%
%TO.C,REF\u002A\u002A*%
X35560000Y-63500000D03*
%TD*%
%TO.C,REF\u002A\u002A*%
X38100000Y-38100000D03*
%TD*%
%TO.C,REF\u002A\u002A*%
X35560000Y-73660000D03*
%TD*%
D26*
%TO.C,C13*%
X6985000Y-15227000D03*
X6985000Y-16777000D03*
%TD*%
D41*
%TO.C,REF\u002A\u002A*%
X33020000Y-60960000D03*
%TD*%
%TO.C,REF\u002A\u002A*%
X35560000Y-17780000D03*
%TD*%
%TO.C,REF\u002A\u002A*%
X12700000Y-58420000D03*
%TD*%
%TO.C,REF\u002A\u002A*%
X20320000Y-58420000D03*
%TD*%
%TO.C,REF\u002A\u002A*%
X53340000Y-50800000D03*
%TD*%
%TO.C,REF\u002A\u002A*%
X27940000Y-68612690D03*
%TD*%
%TO.C,REF\u002A\u002A*%
X50800000Y-58420000D03*
%TD*%
%TO.C,REF\u002A\u002A*%
X58387310Y-53340000D03*
%TD*%
%TO.C,REF\u002A\u002A*%
X40640000Y-66040000D03*
%TD*%
%TO.C,REF\u002A\u002A*%
X38100000Y-66040000D03*
%TD*%
%TO.C,REF\u002A\u002A*%
X25400000Y-35560000D03*
%TD*%
%TO.C,REF\u002A\u002A*%
X35560000Y-45720000D03*
%TD*%
%TO.C,REF\u002A\u002A*%
X58420000Y-33020000D03*
%TD*%
%TO.C,REF\u002A\u002A*%
X25400000Y-63500000D03*
%TD*%
%TO.C,REF\u002A\u002A*%
X43180000Y-73660000D03*
%TD*%
D42*
%TO.C,VIN1*%
X10160000Y-66040000D03*
%TD*%
D41*
%TO.C,REF\u002A\u002A*%
X30480000Y-55880000D03*
%TD*%
%TO.C,REF\u002A\u002A*%
X40640000Y-30480000D03*
%TD*%
%TO.C,REF\u002A\u002A*%
X40640000Y-20320000D03*
%TD*%
%TO.C,REF\u002A\u002A*%
X40640000Y-58420000D03*
%TD*%
%TO.C,REF\u002A\u002A*%
X43180000Y-30480000D03*
%TD*%
%TO.C,REF\u002A\u002A*%
X58387310Y-60960000D03*
%TD*%
%TO.C,REF\u002A\u002A*%
X43180000Y-53340000D03*
%TD*%
%TO.C,REF\u002A\u002A*%
X17780000Y-58420000D03*
%TD*%
%TO.C,REF\u002A\u002A*%
X45720000Y-22860000D03*
%TD*%
%TO.C,REF\u002A\u002A*%
X17780000Y-53340000D03*
%TD*%
%TO.C,REF\u002A\u002A*%
X22860000Y-58420000D03*
%TD*%
%TO.C,REF\u002A\u002A*%
X15240000Y-58420000D03*
%TD*%
%TO.C,REF\u002A\u002A*%
X48260000Y-48260000D03*
%TD*%
%TO.C,REF\u002A\u002A*%
X40607310Y-43159141D03*
%TD*%
%TO.C,REF\u002A\u002A*%
X38100000Y-22860000D03*
%TD*%
%TO.C,REF\u002A\u002A*%
X40640000Y-71120000D03*
%TD*%
%TO.C,REF\u002A\u002A*%
X58387310Y-43159141D03*
%TD*%
%TO.C,REF\u002A\u002A*%
X58387310Y-50800000D03*
%TD*%
%TO.C,REF\u002A\u002A*%
X43180000Y-48260000D03*
%TD*%
%TO.C,REF\u002A\u002A*%
X33020000Y-58420000D03*
%TD*%
%TO.C,REF\u002A\u002A*%
X43180000Y-60960000D03*
%TD*%
%TO.C,REF\u002A\u002A*%
X33020000Y-53340000D03*
%TD*%
%TO.C,REF\u002A\u002A*%
X30480000Y-38100000D03*
%TD*%
%TO.C,REF\u002A\u002A*%
X35527310Y-40640000D03*
%TD*%
%TO.C,REF\u002A\u002A*%
X40640000Y-27940000D03*
%TD*%
D42*
%TO.C,VIN4*%
X15240000Y-52998250D03*
%TD*%
D41*
%TO.C,REF\u002A\u002A*%
X38100000Y-17780000D03*
%TD*%
%TO.C,REF\u002A\u002A*%
X22860000Y-55880000D03*
%TD*%
D42*
%TO.C,VIN2*%
X10160000Y-60960000D03*
%TD*%
D41*
%TO.C,REF\u002A\u002A*%
X50800000Y-71120000D03*
%TD*%
%TO.C,REF\u002A\u002A*%
X45720000Y-48260000D03*
%TD*%
%TO.C,REF\u002A\u002A*%
X27907310Y-40640000D03*
%TD*%
%TO.C,REF\u002A\u002A*%
X48260000Y-22860000D03*
%TD*%
%TO.C,REF\u002A\u002A*%
X53340000Y-55880000D03*
%TD*%
%TO.C,REF\u002A\u002A*%
X38100000Y-63500000D03*
%TD*%
%TO.C,REF\u002A\u002A*%
X48260000Y-68612690D03*
%TD*%
%TO.C,REF\u002A\u002A*%
X40640000Y-73660000D03*
%TD*%
%TO.C,REF\u002A\u002A*%
X15240000Y-60960000D03*
%TD*%
D42*
%TO.C,IO18*%
X31750000Y-17780000D03*
%TD*%
D41*
%TO.C,REF\u002A\u002A*%
X27940000Y-58420000D03*
%TD*%
%TO.C,REF\u002A\u002A*%
X22860000Y-53340000D03*
%TD*%
%TO.C,REF\u002A\u002A*%
X53340000Y-68580000D03*
%TD*%
%TO.C,REF\u002A\u002A*%
X25400000Y-66040000D03*
%TD*%
D42*
%TO.C,IO16*%
X31750000Y-25400000D03*
%TD*%
D41*
%TO.C,REF\u002A\u002A*%
X35560000Y-35560000D03*
%TD*%
D42*
%TO.C,IO22*%
X45085000Y-10795000D03*
%TD*%
D41*
%TO.C,REF\u002A\u002A*%
X40640000Y-53340000D03*
%TD*%
%TO.C,REF\u002A\u002A*%
X33020000Y-63500000D03*
%TD*%
%TO.C,REF\u002A\u002A*%
X53340000Y-73660000D03*
%TD*%
D42*
%TO.C,5V03*%
X43180000Y-15240000D03*
%TD*%
D41*
%TO.C,REF\u002A\u002A*%
X53340000Y-27940000D03*
%TD*%
%TO.C,REF\u002A\u002A*%
X50800000Y-66040000D03*
%TD*%
%TO.C,REF\u002A\u002A*%
X58387310Y-45720000D03*
%TD*%
%TO.C,REF\u002A\u002A*%
X43180000Y-68612690D03*
%TD*%
D42*
%TO.C,IO5*%
X31750000Y-20320000D03*
%TD*%
D41*
%TO.C,REF\u002A\u002A*%
X45720000Y-53340000D03*
%TD*%
%TO.C,REF\u002A\u002A*%
X10160000Y-68612690D03*
%TD*%
%TO.C,REF\u002A\u002A*%
X53340000Y-48260000D03*
%TD*%
D42*
%TO.C,IO27*%
X15875000Y-33020000D03*
%TD*%
D41*
%TO.C,REF\u002A\u002A*%
X55880000Y-55880000D03*
%TD*%
%TO.C,REF\u002A\u002A*%
X40640000Y-35560000D03*
%TD*%
%TO.C,REF\u002A\u002A*%
X27940000Y-63500000D03*
%TD*%
%TO.C,REF\u002A\u002A*%
X38100000Y-25400000D03*
%TD*%
%TO.C,REF\u002A\u002A*%
X50800000Y-22860000D03*
%TD*%
%TO.C,REF\u002A\u002A*%
X30447310Y-40640000D03*
%TD*%
%TO.C,REF\u002A\u002A*%
X55880000Y-43159141D03*
%TD*%
D42*
%TO.C,5V04*%
X35560000Y-15240000D03*
%TD*%
D41*
%TO.C,REF\u002A\u002A*%
X55880000Y-60960000D03*
%TD*%
D42*
%TO.C,IO33*%
X21590000Y-22860000D03*
%TD*%
%TO.C,3V34*%
X45720000Y-15240000D03*
%TD*%
D41*
%TO.C,REF\u002A\u002A*%
X48260000Y-38100000D03*
%TD*%
%TO.C,REF\u002A\u002A*%
X38100000Y-48260000D03*
%TD*%
%TO.C,REF\u002A\u002A*%
X38100000Y-55880000D03*
%TD*%
%TO.C,REF\u002A\u002A*%
X58420000Y-25400000D03*
%TD*%
%TO.C,REF\u002A\u002A*%
X43180000Y-27940000D03*
%TD*%
%TO.C,REF\u002A\u002A*%
X30480000Y-50800000D03*
%TD*%
%TO.C,REF\u002A\u002A*%
X35560000Y-58420000D03*
%TD*%
%TO.C,REF\u002A\u002A*%
X50767310Y-43159141D03*
%TD*%
%TO.C,REF\u002A\u002A*%
X40640000Y-55880000D03*
%TD*%
%TO.C,REF\u002A\u002A*%
X22860000Y-73660000D03*
%TD*%
%TO.C,REF\u002A\u002A*%
X25400000Y-60960000D03*
%TD*%
%TO.C,REF\u002A\u002A*%
X12700000Y-66040000D03*
%TD*%
%TO.C,REF\u002A\u002A*%
X35527310Y-43159141D03*
%TD*%
%TO.C,REF\u002A\u002A*%
X40640000Y-33020000D03*
%TD*%
D42*
%TO.C,IO32*%
X15875000Y-27940000D03*
%TD*%
D41*
%TO.C,REF\u002A\u002A*%
X50800000Y-17780000D03*
%TD*%
%TO.C,REF\u002A\u002A*%
X33020000Y-45720000D03*
%TD*%
%TO.C,REF\u002A\u002A*%
X25400000Y-45720000D03*
%TD*%
%TO.C,REF\u002A\u002A*%
X40640000Y-38100000D03*
%TD*%
%TO.C,REF\u002A\u002A*%
X53340000Y-30480000D03*
%TD*%
%TO.C,REF\u002A\u002A*%
X30480000Y-45720000D03*
%TD*%
%TO.C,REF\u002A\u002A*%
X50800000Y-27940000D03*
%TD*%
%TO.C,REF\u002A\u002A*%
X45720000Y-30480000D03*
%TD*%
%TO.C,REF\u002A\u002A*%
X48260000Y-30480000D03*
%TD*%
%TO.C,REF\u002A\u002A*%
X35560000Y-60960000D03*
%TD*%
%TO.C,REF\u002A\u002A*%
X40607310Y-40640000D03*
%TD*%
%TO.C,REF\u002A\u002A*%
X35560000Y-68612690D03*
%TD*%
%TO.C,REF\u002A\u002A*%
X35560000Y-22860000D03*
%TD*%
%TO.C,REF\u002A\u002A*%
X35560000Y-66040000D03*
%TD*%
%TO.C,REF\u002A\u002A*%
X43180000Y-38100000D03*
%TD*%
D43*
%TO.C,J2*%
X38760000Y-3175000D03*
D44*
X41300000Y-3175000D03*
X43840000Y-3175000D03*
X46380000Y-3175000D03*
X48920000Y-3175000D03*
X51460000Y-3175000D03*
%TD*%
D41*
%TO.C,REF\u002A\u002A*%
X53340000Y-33020000D03*
%TD*%
%TO.C,REF\u002A\u002A*%
X55880000Y-38100000D03*
%TD*%
%TO.C,REF\u002A\u002A*%
X45720000Y-17780000D03*
%TD*%
D42*
%TO.C,IO12*%
X15875000Y-25400000D03*
%TD*%
D41*
%TO.C,REF\u002A\u002A*%
X45720000Y-71120000D03*
%TD*%
%TO.C,REF\u002A\u002A*%
X45720000Y-20320000D03*
%TD*%
%TO.C,REF\u002A\u002A*%
X50800000Y-38100000D03*
%TD*%
%TO.C,REF\u002A\u002A*%
X53340000Y-45720000D03*
%TD*%
%TO.C,REF\u002A\u002A*%
X35560000Y-20320000D03*
%TD*%
%TO.C,REF\u002A\u002A*%
X17780000Y-55880000D03*
%TD*%
%TO.C,REF\u002A\u002A*%
X33020000Y-68612690D03*
%TD*%
%TO.C,REF\u002A\u002A*%
X12700000Y-71120000D03*
%TD*%
%TO.C,REF\u002A\u002A*%
X43180000Y-17780000D03*
%TD*%
%TO.C,REF\u002A\u002A*%
X38100000Y-33020000D03*
%TD*%
%TO.C,REF\u002A\u002A*%
X38100000Y-73660000D03*
%TD*%
D42*
%TO.C,5V02*%
X22860000Y-40640000D03*
%TD*%
D41*
%TO.C,REF\u002A\u002A*%
X48260000Y-25400000D03*
%TD*%
%TO.C,REF\u002A\u002A*%
X50800000Y-55880000D03*
%TD*%
%TO.C,REF\u002A\u002A*%
X25400000Y-55880000D03*
%TD*%
%TO.C,REF\u002A\u002A*%
X17780000Y-71120000D03*
%TD*%
%TO.C,REF\u002A\u002A*%
X50800000Y-73660000D03*
%TD*%
%TO.C,REF\u002A\u002A*%
X38100000Y-71120000D03*
%TD*%
%TO.C,REF\u002A\u002A*%
X50800000Y-33020000D03*
%TD*%
%TO.C,REF\u002A\u002A*%
X45720000Y-25400000D03*
%TD*%
%TO.C,REF\u002A\u002A*%
X32987310Y-43159141D03*
%TD*%
%TO.C,REF\u002A\u002A*%
X22860000Y-66040000D03*
%TD*%
%TO.C,REF\u002A\u002A*%
X50800000Y-48260000D03*
%TD*%
%TO.C,REF\u002A\u002A*%
X17780000Y-73660000D03*
%TD*%
%TO.C,REF\u002A\u002A*%
X25400000Y-53340000D03*
%TD*%
%TO.C,REF\u002A\u002A*%
X45720000Y-68612690D03*
%TD*%
D42*
%TO.C,IO34*%
X21590000Y-33020000D03*
%TD*%
D41*
%TO.C,REF\u002A\u002A*%
X45720000Y-73660000D03*
%TD*%
%TO.C,REF\u002A\u002A*%
X53340000Y-35560000D03*
%TD*%
%TO.C,REF\u002A\u002A*%
X30480000Y-73660000D03*
%TD*%
%TO.C,REF\u002A\u002A*%
X53307310Y-43159141D03*
%TD*%
%TO.C,REF\u002A\u002A*%
X27940000Y-60960000D03*
%TD*%
%TO.C,REF\u002A\u002A*%
X33020000Y-33020000D03*
%TD*%
D42*
%TO.C,IO3*%
X40005000Y-10795000D03*
%TD*%
D41*
%TO.C,REF\u002A\u002A*%
X15240000Y-63500000D03*
%TD*%
%TO.C,REF\u002A\u002A*%
X35560000Y-53340000D03*
%TD*%
%TO.C,REF\u002A\u002A*%
X25400000Y-58420000D03*
%TD*%
%TO.C,REF\u002A\u002A*%
X43180000Y-45720000D03*
%TD*%
%TO.C,REF\u002A\u002A*%
X43180000Y-63500000D03*
%TD*%
%TO.C,REF\u002A\u002A*%
X10160000Y-71120000D03*
%TD*%
%TO.C,REF\u002A\u002A*%
X30480000Y-30480000D03*
%TD*%
%TO.C,REF\u002A\u002A*%
X50800000Y-30480000D03*
%TD*%
%TO.C,REF\u002A\u002A*%
X58420000Y-27940000D03*
%TD*%
%TO.C,REF\u002A\u002A*%
X43180000Y-71120000D03*
%TD*%
%TO.C,REF\u002A\u002A*%
X33020000Y-66040000D03*
%TD*%
%TO.C,REF\u002A\u002A*%
X40640000Y-60960000D03*
%TD*%
D42*
%TO.C,G3*%
X17780000Y-50800000D03*
%TD*%
D41*
%TO.C,REF\u002A\u002A*%
X25400000Y-33020000D03*
%TD*%
%TO.C,REF\u002A\u002A*%
X53340000Y-53340000D03*
%TD*%
%TO.C,REF\u002A\u002A*%
X22860000Y-71120000D03*
%TD*%
%TO.C,REF\u002A\u002A*%
X38100000Y-53340000D03*
%TD*%
%TO.C,REF\u002A\u002A*%
X27940000Y-66040000D03*
%TD*%
%TO.C,REF\u002A\u002A*%
X55880000Y-63500000D03*
%TD*%
%TO.C,REF\u002A\u002A*%
X12700000Y-73660000D03*
%TD*%
%TO.C,REF\u002A\u002A*%
X35560000Y-27940000D03*
%TD*%
%TO.C,REF\u002A\u002A*%
X30480000Y-58420000D03*
%TD*%
D29*
%TO.C,R1*%
X33465000Y-1524000D03*
X35115000Y-1524000D03*
%TD*%
D41*
%TO.C,REF\u002A\u002A*%
X17780000Y-68612690D03*
%TD*%
%TO.C,REF\u002A\u002A*%
X50800000Y-20320000D03*
%TD*%
%TO.C,REF\u002A\u002A*%
X27940000Y-33020000D03*
%TD*%
D42*
%TO.C,IO4*%
X31750000Y-27940000D03*
%TD*%
D41*
%TO.C,REF\u002A\u002A*%
X33020000Y-30480000D03*
%TD*%
%TO.C,REF\u002A\u002A*%
X27940000Y-50800000D03*
%TD*%
%TO.C,REF\u002A\u002A*%
X40640000Y-63500000D03*
%TD*%
%TO.C,REF\u002A\u002A*%
X53340000Y-38100000D03*
%TD*%
%TO.C,REF\u002A\u002A*%
X50800000Y-63500000D03*
%TD*%
D42*
%TO.C,G5*%
X22860000Y-35560000D03*
%TD*%
D41*
%TO.C,REF\u002A\u002A*%
X48260000Y-50800000D03*
%TD*%
D42*
%TO.C,G4*%
X22860000Y-43180000D03*
%TD*%
D41*
%TO.C,REF\u002A\u002A*%
X45720000Y-55880000D03*
%TD*%
%TO.C,REF\u002A\u002A*%
X45720000Y-35560000D03*
%TD*%
D42*
%TO.C,VIN3*%
X12700000Y-55880000D03*
%TD*%
D41*
%TO.C,REF\u002A\u002A*%
X20320000Y-68612690D03*
%TD*%
%TO.C,REF\u002A\u002A*%
X58420000Y-35560000D03*
%TD*%
%TO.C,REF\u002A\u002A*%
X35560000Y-55880000D03*
%TD*%
%TO.C,REF\u002A\u002A*%
X25400000Y-73660000D03*
%TD*%
%TO.C,REF\u002A\u002A*%
X48260000Y-66040000D03*
%TD*%
%TO.C,REF\u002A\u002A*%
X30480000Y-68612690D03*
%TD*%
%TO.C,REF\u002A\u002A*%
X33020000Y-48260000D03*
%TD*%
%TO.C,REF\u002A\u002A*%
X50800000Y-50800000D03*
%TD*%
%TO.C,REF\u002A\u002A*%
X53340000Y-25400000D03*
%TD*%
%TO.C,REF\u002A\u002A*%
X48260000Y-33020000D03*
%TD*%
%TO.C,REF\u002A\u002A*%
X25367310Y-43159141D03*
%TD*%
D42*
%TO.C,IO2*%
X26035000Y-27940000D03*
%TD*%
D41*
%TO.C,REF\u002A\u002A*%
X20320000Y-50800000D03*
%TD*%
%TO.C,REF\u002A\u002A*%
X43147310Y-43159141D03*
%TD*%
%TO.C,REF\u002A\u002A*%
X45720000Y-45720000D03*
%TD*%
%TO.C,REF\u002A\u002A*%
X43180000Y-66040000D03*
%TD*%
%TO.C,REF\u002A\u002A*%
X25400000Y-50800000D03*
%TD*%
%TO.C,REF\u002A\u002A*%
X43180000Y-20320000D03*
%TD*%
%TO.C,REF\u002A\u002A*%
X40640000Y-45720000D03*
%TD*%
D42*
%TO.C,G1*%
X10160000Y-63500000D03*
%TD*%
D41*
%TO.C,REF\u002A\u002A*%
X30480000Y-35560000D03*
%TD*%
%TO.C,REF\u002A\u002A*%
X45720000Y-66040000D03*
%TD*%
D42*
%TO.C,IO35*%
X21590000Y-30480000D03*
%TD*%
D41*
%TO.C,REF\u002A\u002A*%
X58420000Y-30480000D03*
%TD*%
D42*
%TO.C,IO23*%
X32385000Y-10795000D03*
%TD*%
D41*
%TO.C,REF\u002A\u002A*%
X27940000Y-35560000D03*
%TD*%
D42*
%TO.C,IO0*%
X34925000Y-10795000D03*
%TD*%
D41*
%TO.C,REF\u002A\u002A*%
X35560000Y-38100000D03*
%TD*%
%TO.C,REF\u002A\u002A*%
X12700000Y-60960000D03*
%TD*%
%TO.C,REF\u002A\u002A*%
X50800000Y-60960000D03*
%TD*%
%TO.C,REF\u002A\u002A*%
X17780000Y-60960000D03*
%TD*%
%TO.C,REF\u002A\u002A*%
X55880000Y-50800000D03*
%TD*%
%TO.C,REF\u002A\u002A*%
X38100000Y-27940000D03*
%TD*%
%TO.C,REF\u002A\u002A*%
X50767310Y-40640000D03*
%TD*%
%TO.C,REF\u002A\u002A*%
X45720000Y-58420000D03*
%TD*%
%TO.C,REF\u002A\u002A*%
X55880000Y-27940000D03*
%TD*%
%TO.C,REF\u002A\u002A*%
X45720000Y-63500000D03*
%TD*%
%TO.C,REF\u002A\u002A*%
X45687310Y-40640000D03*
%TD*%
%TO.C,REF\u002A\u002A*%
X48260000Y-58420000D03*
%TD*%
%TO.C,REF\u002A\u002A*%
X58420000Y-68580000D03*
%TD*%
%TO.C,REF\u002A\u002A*%
X25367310Y-40640000D03*
%TD*%
%TO.C,REF\u002A\u002A*%
X35560000Y-71120000D03*
%TD*%
%TO.C,REF\u002A\u002A*%
X27940000Y-55880000D03*
%TD*%
%TO.C,REF\u002A\u002A*%
X35560000Y-50800000D03*
%TD*%
%TO.C,REF\u002A\u002A*%
X48260000Y-17780000D03*
%TD*%
%TO.C,REF\u002A\u002A*%
X38100000Y-60960000D03*
%TD*%
D42*
%TO.C,3V32*%
X22860000Y-38100000D03*
%TD*%
D41*
%TO.C,REF\u002A\u002A*%
X43147310Y-40640000D03*
%TD*%
%TO.C,REF\u002A\u002A*%
X27940000Y-48260000D03*
%TD*%
%TO.C,REF\u002A\u002A*%
X40640000Y-50800000D03*
%TD*%
%TO.C,REF\u002A\u002A*%
X35560000Y-30480000D03*
%TD*%
%TO.C,REF\u002A\u002A*%
X48260000Y-45720000D03*
%TD*%
%TO.C,REF\u002A\u002A*%
X58387310Y-48260000D03*
%TD*%
%TO.C,REF\u002A\u002A*%
X48227310Y-43159141D03*
%TD*%
%TO.C,REF\u002A\u002A*%
X55880000Y-45720000D03*
%TD*%
D29*
%TO.C,R8*%
X33465000Y-7239000D03*
X35115000Y-7239000D03*
%TD*%
D41*
%TO.C,REF\u002A\u002A*%
X50800000Y-68612690D03*
%TD*%
%TO.C,REF\u002A\u002A*%
X20320000Y-66040000D03*
%TD*%
%TO.C,REF\u002A\u002A*%
X38100000Y-58420000D03*
%TD*%
D42*
%TO.C,G6*%
X40640000Y-15240000D03*
%TD*%
D41*
%TO.C,REF\u002A\u002A*%
X12700000Y-63500000D03*
%TD*%
%TO.C,REF\u002A\u002A*%
X17780000Y-66040000D03*
%TD*%
%TO.C,REF\u002A\u002A*%
X30480000Y-33020000D03*
%TD*%
%TO.C,REF\u002A\u002A*%
X45720000Y-27940000D03*
%TD*%
D45*
%TO.C,D3*%
X29542500Y-1590000D03*
X29542500Y-3490000D03*
X31417500Y-2540000D03*
%TD*%
D41*
%TO.C,REF\u002A\u002A*%
X53340000Y-60960000D03*
%TD*%
%TO.C,REF\u002A\u002A*%
X30480000Y-63500000D03*
%TD*%
%TO.C,REF\u002A\u002A*%
X25400000Y-38100000D03*
%TD*%
%TO.C,REF\u002A\u002A*%
X30480000Y-53340000D03*
%TD*%
%TO.C,REF\u002A\u002A*%
X43180000Y-55880000D03*
%TD*%
D42*
%TO.C,G2*%
X10160000Y-58420000D03*
%TD*%
D41*
%TO.C,REF\u002A\u002A*%
X20320000Y-60960000D03*
%TD*%
%TO.C,REF\u002A\u002A*%
X58387310Y-55880000D03*
%TD*%
%TO.C,REF\u002A\u002A*%
X55880000Y-30480000D03*
%TD*%
%TO.C,REF\u002A\u002A*%
X55880000Y-53340000D03*
%TD*%
%TO.C,REF\u002A\u002A*%
X48260000Y-27940000D03*
%TD*%
%TO.C,REF\u002A\u002A*%
X33020000Y-73660000D03*
%TD*%
%TO.C,REF\u002A\u002A*%
X22860000Y-63500000D03*
%TD*%
%TO.C,REF\u002A\u002A*%
X30480000Y-71120000D03*
%TD*%
%TO.C,REF\u002A\u002A*%
X25400000Y-48260000D03*
%TD*%
D29*
%TO.C,R9*%
X33465000Y-5461000D03*
X35115000Y-5461000D03*
%TD*%
D41*
%TO.C,REF\u002A\u002A*%
X7620000Y-73660000D03*
%TD*%
%TO.C,REF\u002A\u002A*%
X58420000Y-40640000D03*
%TD*%
%TO.C,REF\u002A\u002A*%
X45720000Y-60960000D03*
%TD*%
%TO.C,REF\u002A\u002A*%
X20320000Y-63500000D03*
%TD*%
%TO.C,REF\u002A\u002A*%
X43180000Y-25400000D03*
%TD*%
%TO.C,REF\u002A\u002A*%
X48260000Y-35560000D03*
%TD*%
D42*
%TO.C,IO25*%
X21590000Y-25400000D03*
%TD*%
D41*
%TO.C,REF\u002A\u002A*%
X50800000Y-53340000D03*
%TD*%
%TO.C,REF\u002A\u002A*%
X25400000Y-30480000D03*
%TD*%
%TO.C,REF\u002A\u002A*%
X55880000Y-66040000D03*
%TD*%
%TO.C,REF\u002A\u002A*%
X33020000Y-35560000D03*
%TD*%
%TO.C,REF\u002A\u002A*%
X38100000Y-30480000D03*
%TD*%
%TO.C,REF\u002A\u002A*%
X58387310Y-58420000D03*
%TD*%
%TO.C,REF\u002A\u002A*%
X38100000Y-50800000D03*
%TD*%
%TO.C,REF\u002A\u002A*%
X53340000Y-63500000D03*
%TD*%
D45*
%TO.C,D2*%
X49989500Y-11750000D03*
X49989500Y-13650000D03*
X51864500Y-12700000D03*
%TD*%
D41*
%TO.C,REF\u002A\u002A*%
X33020000Y-71120000D03*
%TD*%
%TO.C,REF\u002A\u002A*%
X48260000Y-63500000D03*
%TD*%
%TO.C,REF\u002A\u002A*%
X55880000Y-48260000D03*
%TD*%
%TO.C,REF\u002A\u002A*%
X43180000Y-58420000D03*
%TD*%
D42*
%TO.C,3V31*%
X22860000Y-45720000D03*
%TD*%
D41*
%TO.C,REF\u002A\u002A*%
X38100000Y-20320000D03*
%TD*%
%TO.C,REF\u002A\u002A*%
X43180000Y-50800000D03*
%TD*%
%TO.C,REF\u002A\u002A*%
X27940000Y-53340000D03*
%TD*%
D42*
%TO.C,IO13*%
X15875000Y-22860000D03*
%TD*%
D41*
%TO.C,REF\u002A\u002A*%
X48227310Y-40640000D03*
%TD*%
%TO.C,REF\u002A\u002A*%
X50800000Y-25400000D03*
%TD*%
%TO.C,REF\u002A\u002A*%
X48260000Y-71120000D03*
%TD*%
%TO.C,REF\u002A\u002A*%
X27940000Y-30480000D03*
%TD*%
%TO.C,REF\u002A\u002A*%
X38067310Y-43159141D03*
%TD*%
%TO.C,REF\u002A\u002A*%
X15240000Y-66040000D03*
%TD*%
%TO.C,REF\u002A\u002A*%
X53340000Y-66040000D03*
%TD*%
D42*
%TO.C,IO26*%
X21590000Y-27940000D03*
%TD*%
%TO.C,3V33*%
X38100000Y-15240000D03*
%TD*%
%TO.C,IO19*%
X29845000Y-10795000D03*
%TD*%
D41*
%TO.C,REF\u002A\u002A*%
X53340000Y-58420000D03*
%TD*%
D26*
%TO.C,C12*%
X6858000Y-9512000D03*
X6858000Y-11062000D03*
%TD*%
D45*
%TO.C,D4*%
X29542500Y-5400000D03*
X29542500Y-7300000D03*
X31417500Y-6350000D03*
%TD*%
D41*
%TO.C,REF\u002A\u002A*%
X15240000Y-71120000D03*
%TD*%
%TO.C,REF\u002A\u002A*%
X12700000Y-68612690D03*
%TD*%
%TO.C,REF\u002A\u002A*%
X43180000Y-33020000D03*
%TD*%
%TO.C,REF\u002A\u002A*%
X45720000Y-38100000D03*
%TD*%
D42*
%TO.C,IO1*%
X37465000Y-10795000D03*
%TD*%
D41*
%TO.C,REF\u002A\u002A*%
X27907310Y-43159141D03*
%TD*%
%TO.C,REF\u002A\u002A*%
X10160000Y-73660000D03*
%TD*%
%TO.C,REF\u002A\u002A*%
X20320000Y-55880000D03*
%TD*%
%TO.C,REF\u002A\u002A*%
X38100000Y-35560000D03*
%TD*%
%TO.C,REF\u002A\u002A*%
X40640000Y-17780000D03*
%TD*%
%TO.C,REF\u002A\u002A*%
X48260000Y-55880000D03*
%TD*%
%TO.C,REF\u002A\u002A*%
X55880000Y-25400000D03*
%TD*%
D42*
%TO.C,5V01*%
X22860000Y-48260000D03*
%TD*%
%TO.C,IO15*%
X26035000Y-25400000D03*
%TD*%
D41*
%TO.C,REF\u002A\u002A*%
X45687310Y-43159141D03*
%TD*%
%TO.C,REF\u002A\u002A*%
X58420000Y-66040000D03*
%TD*%
%TO.C,REF\u002A\u002A*%
X25400000Y-71120000D03*
%TD*%
%TO.C,REF\u002A\u002A*%
X48260000Y-60960000D03*
%TD*%
D46*
X11049000Y-22352000D03*
X23875000Y-1745000D03*
X17750000Y-8000000D03*
X5826000Y-37992000D03*
X15750000Y-8000000D03*
X17750000Y-10000000D03*
X15750000Y-10000000D03*
D18*
X27432000Y-21500000D03*
X5207000Y-12331500D03*
D35*
X13081000Y-35941000D03*
D18*
X2159000Y-12685000D03*
X8242000Y-24118000D03*
X2159000Y-22464000D03*
X1016000Y-42550500D03*
D46*
X4953000Y-32336500D03*
X11637324Y-1664990D03*
X15221000Y-48638000D03*
D35*
X11176000Y-24257000D03*
D46*
X7112000Y-30099000D03*
D18*
X6960000Y-18034000D03*
D46*
X9751000Y-35492000D03*
D18*
X6751000Y-39742000D03*
X6096000Y-52712000D03*
D46*
X51308000Y-8128000D03*
X23368000Y-12954000D03*
D18*
X28133000Y-7300000D03*
X19812000Y-5842000D03*
D46*
X13749000Y-3015000D03*
D18*
X50546000Y-12700000D03*
X48895000Y-10160000D03*
X30099000Y-6350000D03*
D46*
X2526000Y-29247500D03*
D18*
X30099000Y-2540000D03*
X49022000Y-15240000D03*
X5296500Y-18046500D03*
X28194000Y-2667000D03*
X24130000Y-5588000D03*
X28067000Y-4445000D03*
X23465000Y-17235000D03*
X28067000Y-6223000D03*
X6756500Y-12332000D03*
X22606000Y-4699000D03*
X10922000Y-18255000D03*
X11270000Y-16985000D03*
X22195000Y-17235000D03*
X24130000Y-4285000D03*
X21082000Y-8890000D03*
X11270000Y-13175000D03*
X11270000Y-14445000D03*
X11270000Y-15715000D03*
X11270000Y-10635000D03*
X9017000Y-19685000D03*
X11270000Y-11905000D03*
X11270000Y-8095000D03*
X11270000Y-9365000D03*
M02*
