%TF.GenerationSoftware,KiCad,Pcbnew,(6.0.1)*%
%TF.CreationDate,2023-01-08T15:50:33-08:00*%
%TF.ProjectId,Air Quality Sensor - R1,41697220-5175-4616-9c69-74792053656e,rev?*%
%TF.SameCoordinates,Original*%
%TF.FileFunction,Copper,L1,Top*%
%TF.FilePolarity,Positive*%
%FSLAX46Y46*%
G04 Gerber Fmt 4.6, Leading zero omitted, Abs format (unit mm)*
G04 Created by KiCad (PCBNEW (6.0.1)) date 2023-01-08 15:50:33*
%MOMM*%
%LPD*%
G01*
G04 APERTURE LIST*
G04 Aperture macros list*
%AMRoundRect*
0 Rectangle with rounded corners*
0 $1 Rounding radius*
0 $2 $3 $4 $5 $6 $7 $8 $9 X,Y pos of 4 corners*
0 Add a 4 corners polygon primitive as box body*
4,1,4,$2,$3,$4,$5,$6,$7,$8,$9,$2,$3,0*
0 Add four circle primitives for the rounded corners*
1,1,$1+$1,$2,$3*
1,1,$1+$1,$4,$5*
1,1,$1+$1,$6,$7*
1,1,$1+$1,$8,$9*
0 Add four rect primitives between the rounded corners*
20,1,$1+$1,$2,$3,$4,$5,0*
20,1,$1+$1,$4,$5,$6,$7,0*
20,1,$1+$1,$6,$7,$8,$9,0*
20,1,$1+$1,$8,$9,$2,$3,0*%
%AMOutline4P*
0 Free polygon, 4 corners , with rotation*
0 The origin of the aperture is its center*
0 number of corners: always 4*
0 $1 to $8 corner X, Y*
0 $9 Rotation angle, in degrees counterclockwise*
0 create outline with 4 corners*
4,1,4,$1,$2,$3,$4,$5,$6,$7,$8,$1,$2,$9*%
%AMFreePoly0*
4,1,18,-0.324998,0.855000,0.625000,0.855000,0.628536,0.853536,0.630000,0.850000,0.630000,-0.850000,0.628536,-0.853536,0.625000,-0.855000,-0.625000,-0.855000,-0.628536,-0.853536,-0.630000,-0.850000,-0.630000,0.549998,-0.630001,0.550000,-0.628536,0.553536,-0.328536,0.853535,-0.328536,0.853536,-0.326768,0.854268,-0.325000,0.855001,-0.324998,0.855000,-0.324998,0.855000,$1*%
G04 Aperture macros list end*
%TA.AperFunction,ComponentPad*%
%ADD10RoundRect,0.250000X-0.600000X-0.725000X0.600000X-0.725000X0.600000X0.725000X-0.600000X0.725000X0*%
%TD*%
%TA.AperFunction,ComponentPad*%
%ADD11O,1.700000X1.950000*%
%TD*%
%TA.AperFunction,ComponentPad*%
%ADD12C,2.000000*%
%TD*%
%TA.AperFunction,SMDPad,CuDef*%
%ADD13RoundRect,0.200000X0.200000X0.275000X-0.200000X0.275000X-0.200000X-0.275000X0.200000X-0.275000X0*%
%TD*%
%TA.AperFunction,ComponentPad*%
%ADD14RoundRect,0.200000X-0.450000X0.200000X-0.450000X-0.200000X0.450000X-0.200000X0.450000X0.200000X0*%
%TD*%
%TA.AperFunction,ComponentPad*%
%ADD15O,1.300000X0.800000*%
%TD*%
%TA.AperFunction,SMDPad,CuDef*%
%ADD16RoundRect,0.200000X0.275000X-0.200000X0.275000X0.200000X-0.275000X0.200000X-0.275000X-0.200000X0*%
%TD*%
%TA.AperFunction,SMDPad,CuDef*%
%ADD17RoundRect,0.225000X-0.225000X-0.250000X0.225000X-0.250000X0.225000X0.250000X-0.225000X0.250000X0*%
%TD*%
%TA.AperFunction,ComponentPad*%
%ADD18C,0.800000*%
%TD*%
%TA.AperFunction,ComponentPad*%
%ADD19C,6.400000*%
%TD*%
%TA.AperFunction,SMDPad,CuDef*%
%ADD20RoundRect,0.225000X-0.250000X0.225000X-0.250000X-0.225000X0.250000X-0.225000X0.250000X0.225000X0*%
%TD*%
%TA.AperFunction,SMDPad,CuDef*%
%ADD21RoundRect,0.225000X0.225000X0.250000X-0.225000X0.250000X-0.225000X-0.250000X0.225000X-0.250000X0*%
%TD*%
%TA.AperFunction,SMDPad,CuDef*%
%ADD22RoundRect,0.200000X-0.275000X0.200000X-0.275000X-0.200000X0.275000X-0.200000X0.275000X0.200000X0*%
%TD*%
%TA.AperFunction,SMDPad,CuDef*%
%ADD23R,0.400000X0.550000*%
%TD*%
%TA.AperFunction,SMDPad,CuDef*%
%ADD24FreePoly0,90.000000*%
%TD*%
%TA.AperFunction,SMDPad,CuDef*%
%ADD25RoundRect,0.125000X-0.137500X0.125000X-0.137500X-0.125000X0.137500X-0.125000X0.137500X0.125000X0*%
%TD*%
%TA.AperFunction,ComponentPad*%
%ADD26C,2.200000*%
%TD*%
%TA.AperFunction,ComponentPad*%
%ADD27R,1.778000X1.778000*%
%TD*%
%TA.AperFunction,ComponentPad*%
%ADD28C,1.778000*%
%TD*%
%TA.AperFunction,SMDPad,CuDef*%
%ADD29R,4.000000X3.000000*%
%TD*%
%TA.AperFunction,SMDPad,CuDef*%
%ADD30RoundRect,0.750000X-1.250000X-0.750000X1.250000X-0.750000X1.250000X0.750000X-1.250000X0.750000X0*%
%TD*%
%TA.AperFunction,SMDPad,CuDef*%
%ADD31R,0.600000X0.400000*%
%TD*%
%TA.AperFunction,SMDPad,CuDef*%
%ADD32R,1.300000X2.200000*%
%TD*%
%TA.AperFunction,SMDPad,CuDef*%
%ADD33Outline4P,-0.650000X-0.150000X0.650000X-0.150000X0.350000X0.150000X-0.350000X0.150000X180.000000*%
%TD*%
%TA.AperFunction,SMDPad,CuDef*%
%ADD34R,1.000000X0.300000*%
%TD*%
%TA.AperFunction,SMDPad,CuDef*%
%ADD35R,1.500000X0.800000*%
%TD*%
%TA.AperFunction,SMDPad,CuDef*%
%ADD36R,0.800000X1.500000*%
%TD*%
%TA.AperFunction,SMDPad,CuDef*%
%ADD37R,2.400000X2.400000*%
%TD*%
%TA.AperFunction,ComponentPad*%
%ADD38R,1.905000X1.905000*%
%TD*%
%TA.AperFunction,ComponentPad*%
%ADD39C,1.905000*%
%TD*%
%TA.AperFunction,ComponentPad*%
%ADD40R,1.700000X1.700000*%
%TD*%
%TA.AperFunction,ComponentPad*%
%ADD41O,1.700000X1.700000*%
%TD*%
%TA.AperFunction,SMDPad,CuDef*%
%ADD42RoundRect,0.225000X0.250000X-0.225000X0.250000X0.225000X-0.250000X0.225000X-0.250000X-0.225000X0*%
%TD*%
%TA.AperFunction,SMDPad,CuDef*%
%ADD43R,0.800000X0.800000*%
%TD*%
%TA.AperFunction,ViaPad*%
%ADD44C,0.889000*%
%TD*%
%TA.AperFunction,Conductor*%
%ADD45C,0.152400*%
%TD*%
%TA.AperFunction,Conductor*%
%ADD46C,0.254000*%
%TD*%
G04 APERTURE END LIST*
D10*
%TO.P,J4,1,Pin_1*%
%TO.N,+5V*%
X10250000Y4025000D03*
D11*
%TO.P,J4,2,Pin_2*%
%TO.N,Net-(J3-Pad18)*%
X12750000Y4025000D03*
%TO.P,J4,3,Pin_3*%
%TO.N,Net-(J4-Pad3)*%
X15250000Y4025000D03*
%TO.P,J4,4,Pin_4*%
%TO.N,GND*%
X17750000Y4025000D03*
%TD*%
D10*
%TO.P,J2,1,Pin_1*%
%TO.N,+5V*%
X24000000Y4025000D03*
D11*
%TO.P,J2,2,Pin_2*%
%TO.N,+3V3*%
X26500000Y4025000D03*
%TO.P,J2,3,Pin_3*%
%TO.N,/SENS/SDA_2*%
X29000000Y4025000D03*
%TO.P,J2,4,Pin_4*%
%TO.N,/SENS/SCL_2*%
X31500000Y4025000D03*
%TO.P,J2,5,Pin_5*%
%TO.N,/SENS/SDA_1*%
X34000000Y4025000D03*
%TO.P,J2,6,Pin_6*%
%TO.N,/SENS/SCL_1*%
X36500000Y4025000D03*
%TO.P,J2,7,Pin_7*%
%TO.N,Net-(J2-Pad7)*%
X39000000Y4025000D03*
%TO.P,J2,8,Pin_8*%
%TO.N,Net-(J1-Pad2)*%
X41500000Y4025000D03*
%TO.P,J2,9,Pin_9*%
%TO.N,GND*%
X44000000Y4025000D03*
%TD*%
D10*
%TO.P,J1,1,Pin_1*%
%TO.N,+3V3*%
X50500000Y4025000D03*
D11*
%TO.P,J1,2,Pin_2*%
%TO.N,Net-(J1-Pad2)*%
X53000000Y4025000D03*
%TO.P,J1,3,Pin_3*%
%TO.N,GND*%
X55500000Y4025000D03*
%TD*%
D12*
%TO.P,TP10,1,1*%
%TO.N,GND*%
X3014988Y13172900D03*
%TD*%
%TO.P,TP5,1,1*%
%TO.N,Net-(TP5-Pad1)*%
X31843988Y10378900D03*
%TD*%
%TO.P,TP4,1,1*%
%TO.N,Net-(TP4-Pad1)*%
X32224988Y30190900D03*
%TD*%
%TO.P,TP3,1,1*%
%TO.N,Net-(TP3-Pad1)*%
X32224988Y32730900D03*
%TD*%
%TO.P,TP2,1,1*%
%TO.N,Net-(TP2-Pad1)*%
X8983988Y71719900D03*
%TD*%
D13*
%TO.P,R11,1*%
%TO.N,Net-(J5-Pad6)*%
X65307988Y10886900D03*
%TO.P,R11,2*%
%TO.N,Net-(J3-Pad27)*%
X63657988Y10886900D03*
%TD*%
%TO.P,R10,1*%
%TO.N,Net-(J5-Pad5)*%
X65307988Y12410900D03*
%TO.P,R10,2*%
%TO.N,Net-(R10-Pad2)*%
X63657988Y12410900D03*
%TD*%
D14*
%TO.P,J5,1,Pin_1*%
%TO.N,unconnected-(J5-Pad1)*%
X69874988Y17430900D03*
D15*
%TO.P,J5,2,Pin_2*%
%TO.N,unconnected-(J5-Pad2)*%
X69874988Y16180900D03*
%TO.P,J5,3,Pin_3*%
%TO.N,GND*%
X69874988Y14930900D03*
%TO.P,J5,4,Pin_4*%
%TO.N,+5V*%
X69874988Y13680900D03*
%TO.P,J5,5,Pin_5*%
%TO.N,Net-(J5-Pad5)*%
X69874988Y12430900D03*
%TO.P,J5,6,Pin_6*%
%TO.N,Net-(J5-Pad6)*%
X69874988Y11180900D03*
%TO.P,J5,7,Pin_7*%
%TO.N,unconnected-(J5-Pad7)*%
X69874988Y9930900D03*
%TD*%
D16*
%TO.P,R6,1*%
%TO.N,/SENS/SDA_2*%
X8729988Y54257900D03*
%TO.P,R6,2*%
%TO.N,+3V3*%
X8729988Y55907900D03*
%TD*%
D17*
%TO.P,C3,1*%
%TO.N,+3V3*%
X68025000Y40879635D03*
%TO.P,C3,2*%
%TO.N,GND*%
X69575000Y40879635D03*
%TD*%
D18*
%TO.P,H2,1*%
%TO.N,N/C*%
X4697056Y1302944D03*
X1302944Y4697056D03*
X3000000Y600000D03*
D19*
X3000000Y3000000D03*
D18*
X4697056Y4697056D03*
X1302944Y1302944D03*
X600000Y3000000D03*
X3000000Y5400000D03*
X5400000Y3000000D03*
%TD*%
D20*
%TO.P,C2,1*%
%TO.N,+3V3*%
X58224500Y66823000D03*
%TO.P,C2,2*%
%TO.N,GND*%
X58224500Y65273000D03*
%TD*%
D21*
%TO.P,C11,1*%
%TO.N,+3V3*%
X59253500Y71890000D03*
%TO.P,C11,2*%
%TO.N,GND*%
X57703500Y71890000D03*
%TD*%
D22*
%TO.P,R8,1*%
%TO.N,/SENS/SCL_1*%
X9999988Y43906900D03*
%TO.P,R8,2*%
%TO.N,+3V3*%
X9999988Y42256900D03*
%TD*%
D17*
%TO.P,C1,1*%
%TO.N,+3V3*%
X57021000Y59448000D03*
%TO.P,C1,2*%
%TO.N,GND*%
X58571000Y59448000D03*
%TD*%
D23*
%TO.P,U2,1,VDD*%
%TO.N,+3V3*%
X58440500Y68200000D03*
%TO.P,U2,2,VSS*%
%TO.N,GND*%
X59240500Y68200000D03*
%TO.P,U2,3,SDA*%
%TO.N,/SENS/SDA_2*%
X60040500Y68200000D03*
%TO.P,U2,4,N/A*%
%TO.N,unconnected-(U2-Pad4)*%
X60040500Y70500000D03*
%TO.P,U2,5,VDDH*%
%TO.N,+3V3*%
X59240500Y70500000D03*
%TO.P,U2,6,SCL*%
%TO.N,/SENS/SCL_2*%
X58440500Y70500000D03*
D24*
%TO.P,U2,7,EP1*%
%TO.N,GND*%
X59240500Y69350000D03*
%TD*%
D25*
%TO.P,U5,1,GND*%
%TO.N,GND*%
X45655500Y70010000D03*
%TO.P,U5,2,CSB*%
%TO.N,Net-(R4-Pad2)*%
X45655500Y69210000D03*
%TO.P,U5,3,SDI*%
%TO.N,/SENS/SDA_1*%
X45655500Y68410000D03*
%TO.P,U5,4,SCK*%
%TO.N,/SENS/SCL_1*%
X45655500Y67610000D03*
%TO.P,U5,5,SDO*%
%TO.N,Net-(R3-Pad2)*%
X43280500Y67610000D03*
%TO.P,U5,6,VDDIO*%
%TO.N,+3V3*%
X43280500Y68410000D03*
%TO.P,U5,7,GND*%
%TO.N,GND*%
X43280500Y69210000D03*
%TO.P,U5,8,VDD*%
%TO.N,+3V3*%
X43280500Y70010000D03*
%TD*%
D26*
%TO.P,U7,0*%
%TO.N,N/C*%
X39862500Y42912500D03*
X56087500Y10912500D03*
D27*
%TO.P,U7,1,VDD*%
%TO.N,+3V3*%
X35987500Y43012500D03*
D28*
%TO.P,U7,2,GND*%
%TO.N,GND*%
X35987500Y40472500D03*
%TO.P,U7,3,TX/SCL*%
%TO.N,/SENS/SCL_1*%
X35987500Y37932500D03*
%TO.P,U7,4,RX/SDA*%
%TO.N,/SENS/SDA_1*%
X35987500Y35392500D03*
%TO.P,U7,5,RDY*%
%TO.N,Net-(TP3-Pad1)*%
X35987500Y32852500D03*
%TO.P,U7,6,PWM*%
%TO.N,Net-(TP4-Pad1)*%
X35987500Y30312500D03*
%TO.P,U7,7,SEL*%
%TO.N,Net-(R5-Pad1)*%
X35987500Y27772500D03*
%TD*%
D13*
%TO.P,R13,1*%
%TO.N,Net-(J3-Pad18)*%
X10189988Y8981900D03*
%TO.P,R13,2*%
%TO.N,+3V3*%
X8539988Y8981900D03*
%TD*%
D17*
%TO.P,C10,1*%
%TO.N,+3V3*%
X23352500Y38826900D03*
%TO.P,C10,2*%
%TO.N,GND*%
X24902500Y38826900D03*
%TD*%
D29*
%TO.P,U6,1,PWM*%
%TO.N,Net-(TP2-Pad1)*%
X18015000Y67580000D03*
D30*
%TO.P,U6,2,SCL*%
%TO.N,/SENS/SCL_2*%
X18015000Y62500000D03*
%TO.P,U6,3,GND*%
%TO.N,GND*%
X18015000Y57420000D03*
%TO.P,U6,4,SDA*%
%TO.N,/SENS/SDA_2*%
X31985000Y57420000D03*
%TO.P,U6,5,N/C*%
%TO.N,unconnected-(U6-Pad5)*%
X31985000Y62500000D03*
%TO.P,U6,6,3.3V*%
%TO.N,+3V3*%
X31985000Y67580000D03*
%TD*%
D16*
%TO.P,R14,1*%
%TO.N,Net-(J4-Pad3)*%
X9999988Y10696900D03*
%TO.P,R14,2*%
%TO.N,Net-(J2-Pad7)*%
X9999988Y12346900D03*
%TD*%
%TO.P,R4,1*%
%TO.N,+3V3*%
X46500000Y64175000D03*
%TO.P,R4,2*%
%TO.N,Net-(R4-Pad2)*%
X46500000Y65825000D03*
%TD*%
%TO.P,R3,1*%
%TO.N,+3V3*%
X43452000Y64175000D03*
%TO.P,R3,2*%
%TO.N,Net-(R3-Pad2)*%
X43452000Y65825000D03*
%TD*%
D31*
%TO.P,U1,1,ADDR*%
%TO.N,GND*%
X59100000Y55200000D03*
%TO.P,U1,2,~{RESET}*%
%TO.N,Net-(R1-Pad2)*%
X59100000Y55800000D03*
%TO.P,U1,3,~{INT}*%
%TO.N,Net-(TP1-Pad1)*%
X59100000Y56400000D03*
%TO.P,U1,4,PWM*%
%TO.N,Net-(U1-Pad4)*%
X59100000Y57000000D03*
%TO.P,U1,5,Sense*%
X59100000Y57600000D03*
%TO.P,U1,6,VDD*%
%TO.N,+3V3*%
X57000000Y57600000D03*
%TO.P,U1,7,~{WAKE}*%
%TO.N,Net-(R2-Pad1)*%
X57000000Y57000000D03*
%TO.P,U1,8,AUX*%
%TO.N,unconnected-(U1-Pad8)*%
X57000000Y56400000D03*
%TO.P,U1,9,SDA*%
%TO.N,/SENS/SDA_2*%
X57000000Y55800000D03*
%TO.P,U1,10,SCL*%
%TO.N,/SENS/SCL_2*%
X57000000Y55200000D03*
D32*
%TO.P,U1,11,GND*%
%TO.N,GND*%
X58050000Y56550000D03*
D33*
X58050000Y55300000D03*
D34*
X57900000Y55300000D03*
%TD*%
D13*
%TO.P,R1,1*%
%TO.N,+3V3*%
X62177000Y55638000D03*
%TO.P,R1,2*%
%TO.N,Net-(R1-Pad2)*%
X60527000Y55638000D03*
%TD*%
D22*
%TO.P,R7,1*%
%TO.N,/SENS/SCL_2*%
X8729988Y52605900D03*
%TO.P,R7,2*%
%TO.N,+3V3*%
X8729988Y50955900D03*
%TD*%
D35*
%TO.P,U3,1*%
%TO.N,N/C*%
X71100000Y31379635D03*
%TO.P,U3,2*%
X71100000Y32629635D03*
%TO.P,U3,3*%
X71100000Y33879635D03*
%TO.P,U3,4*%
X71100000Y35129635D03*
%TO.P,U3,5*%
X71100000Y36379635D03*
D36*
%TO.P,U3,6,GND*%
%TO.N,GND*%
X69300000Y38179635D03*
%TO.P,U3,7,VDD*%
%TO.N,+3V3*%
X68050000Y38179635D03*
%TO.P,U3,8*%
%TO.N,N/C*%
X66800000Y38179635D03*
%TO.P,U3,9,SCL*%
%TO.N,/SENS/SCL_1*%
X65550000Y38179635D03*
%TO.P,U3,10,SDA*%
%TO.N,/SENS/SDA_1*%
X64300000Y38179635D03*
D35*
%TO.P,U3,11*%
%TO.N,N/C*%
X62500000Y36379635D03*
%TO.P,U3,12*%
X62500000Y35129635D03*
%TO.P,U3,13*%
X62500000Y33879635D03*
%TO.P,U3,14*%
X62500000Y32629635D03*
%TO.P,U3,15*%
X62500000Y31379635D03*
D36*
%TO.P,U3,16*%
X64300000Y29579635D03*
%TO.P,U3,17*%
X65550000Y29579635D03*
%TO.P,U3,18*%
X66800000Y29579635D03*
%TO.P,U3,19,VDDH*%
%TO.N,+3V3*%
X68050000Y29579635D03*
%TO.P,U3,20,GND*%
%TO.N,GND*%
X69300000Y29579635D03*
D37*
%TO.P,U3,21,EP*%
X68000000Y35079635D03*
X65600000Y32679635D03*
X68000000Y32679635D03*
X65600000Y35079635D03*
%TD*%
D20*
%TO.P,C7,1*%
%TO.N,+3V3*%
X32859988Y42776900D03*
%TO.P,C7,2*%
%TO.N,GND*%
X32859988Y41226900D03*
%TD*%
D38*
%TO.P,U4,1,GND*%
%TO.N,GND*%
X25080000Y41240000D03*
D39*
%TO.P,U4,2,VBB*%
%TO.N,+3V3*%
X22540000Y41240000D03*
%TO.P,U4,3,VDDIO*%
X20000000Y41240000D03*
%TO.P,U4,4,RxD/SDA*%
%TO.N,/SENS/SDA_1*%
X17460000Y41240000D03*
%TO.P,U4,5,TxD/SCL*%
%TO.N,/SENS/SCL_1*%
X14920000Y41240000D03*
%TO.P,U4,6,COMSEL*%
%TO.N,GND*%
X17460000Y10760000D03*
%TO.P,U4,7,nRDY*%
%TO.N,Net-(TP5-Pad1)*%
X20000000Y10760000D03*
%TO.P,U4,8,DVCC*%
%TO.N,unconnected-(U4-Pad8)*%
X22540000Y10760000D03*
%TO.P,U4,9,EN*%
%TO.N,+3V3*%
X25080000Y10760000D03*
%TD*%
D18*
%TO.P,H3,1*%
%TO.N,N/C*%
X73697056Y70302944D03*
X72000000Y69600000D03*
X69600000Y72000000D03*
X74400000Y72000000D03*
D19*
X72000000Y72000000D03*
D18*
X70302944Y70302944D03*
X72000000Y74400000D03*
X73697056Y73697056D03*
X70302944Y73697056D03*
%TD*%
D40*
%TO.P,J3,1,GND*%
%TO.N,GND*%
X3014988Y66766900D03*
D41*
%TO.P,J3,2,GND*%
X5554988Y66766900D03*
%TO.P,J3,3,3V3*%
%TO.N,+3V3*%
X3014988Y64226900D03*
%TO.P,J3,4,3V3*%
X5554988Y64226900D03*
%TO.P,J3,5,GND*%
%TO.N,GND*%
X3014988Y61686900D03*
%TO.P,J3,6,GND*%
X5554988Y61686900D03*
%TO.P,J3,7,IO36*%
%TO.N,unconnected-(J3-Pad7)*%
X3014988Y59146900D03*
%TO.P,J3,8,IO39*%
%TO.N,unconnected-(J3-Pad8)*%
X5554988Y59146900D03*
%TO.P,J3,9,IO34*%
%TO.N,unconnected-(J3-Pad9)*%
X3014988Y56606900D03*
%TO.P,J3,10,IO35*%
%TO.N,unconnected-(J3-Pad10)*%
X5554988Y56606900D03*
%TO.P,J3,11,IO32*%
%TO.N,/SENS/SCL_2*%
X3014988Y54066900D03*
%TO.P,J3,12,IO33*%
%TO.N,/SENS/SDA_2*%
X5554988Y54066900D03*
%TO.P,J3,13,IO25*%
%TO.N,unconnected-(J3-Pad13)*%
X3014988Y51526900D03*
%TO.P,J3,14,IO26*%
%TO.N,unconnected-(J3-Pad14)*%
X5554988Y51526900D03*
%TO.P,J3,15,IO27*%
%TO.N,unconnected-(J3-Pad15)*%
X3014988Y48986900D03*
%TO.P,J3,16,IO14*%
%TO.N,Net-(J3-Pad16)*%
X5554988Y48986900D03*
%TO.P,J3,17,IO12*%
%TO.N,unconnected-(J3-Pad17)*%
X3014988Y46446900D03*
%TO.P,J3,18,IO13*%
%TO.N,Net-(J3-Pad18)*%
X5554988Y46446900D03*
%TO.P,J3,19,IO23*%
%TO.N,unconnected-(J3-Pad19)*%
X3014988Y43906900D03*
%TO.P,J3,20,IO22*%
%TO.N,/SENS/SCL_1*%
X5554988Y43906900D03*
%TO.P,J3,21,MISO*%
%TO.N,unconnected-(J3-Pad21)*%
X3014988Y41366900D03*
%TO.P,J3,22,MOSI*%
%TO.N,unconnected-(J3-Pad22)*%
X5554988Y41366900D03*
%TO.P,J3,23,IO21*%
%TO.N,/SENS/SDA_1*%
X3014988Y38826900D03*
%TO.P,J3,24,IO19*%
%TO.N,Net-(J1-Pad2)*%
X5554988Y38826900D03*
%TO.P,J3,25,IO18*%
%TO.N,Net-(R10-Pad2)*%
X3014988Y36286900D03*
%TO.P,J3,26,IO5*%
%TO.N,unconnected-(J3-Pad26)*%
X5554988Y36286900D03*
%TO.P,J3,27,IO4*%
%TO.N,Net-(J3-Pad27)*%
X3014988Y33746900D03*
%TO.P,J3,28,PROG*%
%TO.N,unconnected-(J3-Pad28)*%
X5554988Y33746900D03*
%TO.P,J3,29,IO2*%
%TO.N,unconnected-(J3-Pad29)*%
X3014988Y31206900D03*
%TO.P,J3,30,IO15*%
%TO.N,Net-(J2-Pad7)*%
X5554988Y31206900D03*
%TO.P,J3,31,GND*%
%TO.N,GND*%
X3014988Y28666900D03*
%TO.P,J3,32,GND*%
X5554988Y28666900D03*
%TO.P,J3,33,3V3*%
%TO.N,+3V3*%
X3014988Y26126900D03*
%TO.P,J3,34,3V3*%
X5554988Y26126900D03*
%TO.P,J3,35,5V0*%
%TO.N,+5V*%
X3014988Y23586900D03*
%TO.P,J3,36,5V0*%
X5554988Y23586900D03*
%TO.P,J3,37,VIN*%
%TO.N,unconnected-(J3-Pad37)*%
X3014988Y21046900D03*
%TO.P,J3,38,VIN*%
%TO.N,unconnected-(J3-Pad38)*%
X5554988Y21046900D03*
%TO.P,J3,39,GND*%
%TO.N,GND*%
X3014988Y18506900D03*
%TO.P,J3,40,GND*%
X5554988Y18506900D03*
%TD*%
D20*
%TO.P,C5,1*%
%TO.N,+3V3*%
X41928000Y68201000D03*
%TO.P,C5,2*%
%TO.N,GND*%
X41928000Y66651000D03*
%TD*%
D16*
%TO.P,R9,1*%
%TO.N,/SENS/SDA_1*%
X9999988Y37556900D03*
%TO.P,R9,2*%
%TO.N,+3V3*%
X9999988Y39206900D03*
%TD*%
D18*
%TO.P,H4,1*%
%TO.N,N/C*%
X70302944Y4697056D03*
X69600000Y3000000D03*
X73697056Y1302944D03*
X73697056Y4697056D03*
X72000000Y600000D03*
X72000000Y5400000D03*
X74400000Y3000000D03*
X70302944Y1302944D03*
D19*
X72000000Y3000000D03*
%TD*%
D21*
%TO.P,C9,1*%
%TO.N,+3V3*%
X22204988Y13426900D03*
%TO.P,C9,2*%
%TO.N,GND*%
X20654988Y13426900D03*
%TD*%
D42*
%TO.P,C6,1*%
%TO.N,+3V3*%
X41928000Y69686000D03*
%TO.P,C6,2*%
%TO.N,GND*%
X41928000Y71236000D03*
%TD*%
D16*
%TO.P,R12,1*%
%TO.N,Net-(D1-Pad2)*%
X62069988Y4981900D03*
%TO.P,R12,2*%
%TO.N,Net-(J3-Pad16)*%
X62069988Y6631900D03*
%TD*%
D18*
%TO.P,H1,1*%
%TO.N,N/C*%
X5400000Y72000000D03*
X1302944Y73697056D03*
X4697056Y70302944D03*
X3000000Y69600000D03*
X3000000Y74400000D03*
X600000Y72000000D03*
X4697056Y73697056D03*
X1302944Y70302944D03*
D19*
X3000000Y72000000D03*
%TD*%
D21*
%TO.P,C8,1*%
%TO.N,+3V3*%
X19664988Y48986900D03*
%TO.P,C8,2*%
%TO.N,GND*%
X18114988Y48986900D03*
%TD*%
D12*
%TO.P,TP1,1,1*%
%TO.N,Net-(TP1-Pad1)*%
X63130000Y60210000D03*
%TD*%
D43*
%TO.P,D1,1,K*%
%TO.N,GND*%
X62069988Y1881900D03*
%TO.P,D1,2,A*%
%TO.N,Net-(D1-Pad2)*%
X62069988Y3381900D03*
%TD*%
D16*
%TO.P,R2,1*%
%TO.N,Net-(R2-Pad1)*%
X55240500Y57350000D03*
%TO.P,R2,2*%
%TO.N,GND*%
X55240500Y59000000D03*
%TD*%
D17*
%TO.P,C4,1*%
%TO.N,+3V3*%
X68025000Y27163635D03*
%TO.P,C4,2*%
%TO.N,GND*%
X69575000Y27163635D03*
%TD*%
D22*
%TO.P,R5,1*%
%TO.N,Net-(R5-Pad1)*%
X36034988Y25046900D03*
%TO.P,R5,2*%
%TO.N,GND*%
X36034988Y23396900D03*
%TD*%
D44*
%TO.N,Net-(TP2-Pad1)*%
X22191988Y66512900D03*
%TO.N,Net-(J1-Pad2)*%
X14190988Y36286900D03*
X25620988Y14442900D03*
%TO.N,Net-(J3-Pad16)*%
X62069988Y8219900D03*
%TO.N,+3V3*%
X46500000Y62626000D03*
X11649988Y42256900D03*
X40379000Y69686000D03*
X57021000Y60997000D03*
X43452000Y62626000D03*
X8729988Y57557900D03*
X21314988Y49011900D03*
X5974988Y8981900D03*
X62177000Y57187000D03*
X40379000Y68201000D03*
X60802500Y71890000D03*
X66120000Y40854635D03*
X8729988Y49305900D03*
X56891500Y68200000D03*
X66120000Y27163635D03*
%TO.N,GND*%
X59100000Y53651000D03*
X60002500Y66810000D03*
X55240500Y60549000D03*
X16464988Y48986900D03*
X58050000Y53751000D03*
X36034988Y20831900D03*
X58224500Y63724000D03*
X40379000Y66651000D03*
X44468000Y71248000D03*
X40379000Y71236000D03*
X71480000Y40854635D03*
X56154500Y71915000D03*
X58571000Y60972000D03*
X71480000Y27138635D03*
X47217000Y70010000D03*
%TO.N,/SENS/SCL_1*%
X36288988Y47970900D03*
%TO.N,/SENS/SDA_1*%
X34764988Y47970900D03*
%TO.N,/SENS/SCL_2*%
X14952988Y45430900D03*
X53306988Y55590900D03*
X14952988Y47716900D03*
X55510000Y54622000D03*
%TO.N,/SENS/SDA_2*%
X30446988Y44083888D03*
X29000000Y42636900D03*
X31985000Y46714912D03*
%TO.N,Net-(J3-Pad18)*%
X12750000Y8981900D03*
%TO.N,Net-(J3-Pad16)*%
X44289988Y42636900D03*
%TD*%
D45*
%TO.N,/SENS/SDA_1*%
X48094588Y35392500D02*
X35987500Y35392500D01*
X53781723Y41079635D02*
X48094588Y35392500D01*
X64300000Y39779635D02*
X63000000Y41079635D01*
X64300000Y38179635D02*
X64300000Y39779635D01*
X63000000Y41079635D02*
X53781723Y41079635D01*
%TO.N,/SENS/SCL_1*%
X65518000Y39589635D02*
X65518000Y38321635D01*
X52495723Y42079635D02*
X63028000Y42079635D01*
X48348588Y37932500D02*
X52495723Y42079635D01*
X35987500Y37932500D02*
X48348588Y37932500D01*
X63028000Y42079635D02*
X65518000Y39589635D01*
%TO.N,Net-(TP5-Pad1)*%
X29811988Y8346900D02*
X31843988Y10378900D01*
X22413100Y8346900D02*
X29811988Y8346900D01*
X20000000Y10760000D02*
X22413100Y8346900D01*
%TO.N,Net-(J2-Pad7)*%
X12984988Y12346900D02*
X9999988Y12346900D01*
X18127988Y7203900D02*
X12984988Y12346900D01*
X39000000Y4025000D02*
X35821100Y7203900D01*
X35821100Y7203900D02*
X18127988Y7203900D01*
%TO.N,Net-(J1-Pad2)*%
X30065988Y12537900D02*
X38964012Y12537900D01*
X29303988Y13299900D02*
X30065988Y12537900D01*
X26763988Y13299900D02*
X29303988Y13299900D01*
X38964012Y12537900D02*
X41500000Y10001912D01*
X25620988Y14442900D02*
X26763988Y13299900D01*
%TO.N,Net-(TP2-Pad1)*%
X21124888Y67580000D02*
X22191988Y66512900D01*
X18015000Y67580000D02*
X21124888Y67580000D01*
%TO.N,Net-(J3-Pad27)*%
X60164988Y10886900D02*
X63657988Y10886900D01*
X57370988Y13680900D02*
X60164988Y10886900D01*
X12158988Y32476900D02*
X30954988Y13680900D01*
X3014988Y33746900D02*
X4284988Y32476900D01*
X4284988Y32476900D02*
X12158988Y32476900D01*
X30954988Y13680900D02*
X57370988Y13680900D01*
%TO.N,Net-(R10-Pad2)*%
X11142988Y35016900D02*
X4284988Y35016900D01*
X4284988Y35016900D02*
X3014988Y36286900D01*
X31716988Y14442900D02*
X11142988Y35016900D01*
X57878988Y14442900D02*
X31716988Y14442900D01*
X59910988Y12410900D02*
X57878988Y14442900D01*
X63657988Y12410900D02*
X59910988Y12410900D01*
%TO.N,Net-(J1-Pad2)*%
X9618988Y36286900D02*
X7078988Y38826900D01*
X14190988Y36286900D02*
X9618988Y36286900D01*
X7078988Y38826900D02*
X5554988Y38826900D01*
%TO.N,/SENS/SDA_1*%
X9999988Y37556900D02*
X27652988Y37556900D01*
X9618988Y37556900D02*
X9999988Y37556900D01*
X7078988Y40096900D02*
X9618988Y37556900D01*
X4284988Y40096900D02*
X7078988Y40096900D01*
X3014988Y38826900D02*
X4284988Y40096900D01*
%TO.N,Net-(J3-Pad16)*%
X62069988Y8219900D02*
X62069988Y6631900D01*
%TO.N,Net-(J5-Pad6)*%
X65601988Y11180900D02*
X65307988Y10886900D01*
X69874988Y11180900D02*
X65601988Y11180900D01*
%TO.N,Net-(J5-Pad5)*%
X65327988Y12430900D02*
X65307988Y12410900D01*
X69874988Y12430900D02*
X65327988Y12430900D01*
D46*
%TO.N,+3V3*%
X58440500Y67039000D02*
X58224500Y66823000D01*
X43280500Y68410000D02*
X42137000Y68410000D01*
X46500000Y64175000D02*
X46500000Y62626000D01*
X8729988Y55907900D02*
X8729988Y57557900D01*
X23969988Y13426900D02*
X25080000Y12316888D01*
X62177000Y55638000D02*
X62177000Y57187000D01*
X59253500Y71890000D02*
X60802500Y71890000D01*
X41928000Y69686000D02*
X40379000Y69686000D01*
X42137000Y68410000D02*
X41928000Y68201000D01*
X58440500Y68200000D02*
X58440500Y67039000D01*
X58440500Y68200000D02*
X56891500Y68200000D01*
X42747000Y70010000D02*
X42423000Y69686000D01*
X42423000Y69686000D02*
X41928000Y69686000D01*
X43280500Y70010000D02*
X42747000Y70010000D01*
X68018000Y40872635D02*
X68018000Y38321635D01*
X9999988Y42256900D02*
X11649988Y42256900D01*
X68025000Y40879635D02*
X68018000Y40872635D01*
X25239988Y58511900D02*
X25239988Y63591900D01*
X59240500Y70500000D02*
X59240500Y71877000D01*
X68025000Y27163635D02*
X66120000Y27163635D01*
X22204988Y13426900D02*
X23969988Y13426900D01*
X8729988Y50955900D02*
X8729988Y49305900D01*
X22540000Y39639400D02*
X23352500Y38826900D01*
X19664988Y52936900D02*
X25239988Y58511900D01*
X43452000Y64175000D02*
X43452000Y62626000D01*
X35987500Y43012500D02*
X33095588Y43012500D01*
X57021000Y59448000D02*
X57021000Y60997000D01*
X59240500Y71877000D02*
X59253500Y71890000D01*
X68025000Y40854635D02*
X66120000Y40854635D01*
X25080000Y12316888D02*
X25080000Y10760000D01*
X8539988Y8981900D02*
X5974988Y8981900D01*
X19664988Y48986900D02*
X19664988Y52936900D01*
X9999988Y39206900D02*
X9999988Y42256900D01*
X41928000Y68201000D02*
X40379000Y68201000D01*
X57000000Y59427000D02*
X57021000Y59448000D01*
X25239988Y63591900D02*
X29228088Y67580000D01*
X68025000Y27163635D02*
X68025000Y29714635D01*
X22540000Y41240000D02*
X22540000Y39639400D01*
X29228088Y67580000D02*
X31985000Y67580000D01*
X19664988Y49011900D02*
X21314988Y49011900D01*
X57000000Y57600000D02*
X57000000Y59427000D01*
X33095588Y43012500D02*
X32859988Y42776900D01*
%TO.N,GND*%
X59240500Y68200000D02*
X59240500Y67572000D01*
X58050000Y55300000D02*
X58050000Y53751000D01*
X59240500Y68200000D02*
X59240500Y69350000D01*
X57643100Y1881900D02*
X55500000Y4025000D01*
X41928000Y66651000D02*
X40379000Y66651000D01*
X57703500Y71915000D02*
X56154500Y71915000D01*
X24902500Y41062500D02*
X25080000Y41240000D01*
X69268000Y39776635D02*
X69575000Y40083635D01*
X18114988Y48986900D02*
X18114988Y57320012D01*
X69268000Y38321635D02*
X69268000Y39776635D01*
X69575000Y27138635D02*
X71480000Y27138635D01*
X44468000Y69699000D02*
X44468000Y71248000D01*
X44468000Y69699000D02*
X44468000Y70969000D01*
X69268000Y36521635D02*
X67968000Y35221635D01*
X43979000Y69210000D02*
X44468000Y69699000D01*
X32859988Y41226900D02*
X33614388Y40472500D01*
X62069988Y1881900D02*
X57643100Y1881900D01*
X18114988Y48986900D02*
X16464988Y48986900D01*
X69575000Y27163635D02*
X69575000Y28039635D01*
X36034988Y23396900D02*
X36034988Y20831900D01*
X69575000Y40083635D02*
X69575000Y40879635D01*
X69268000Y28346635D02*
X69268000Y29721635D01*
X24902500Y38826900D02*
X24902500Y41062500D01*
X59240500Y67572000D02*
X60002500Y66810000D01*
X59100000Y55200000D02*
X59100000Y53651000D01*
X43280500Y69210000D02*
X43979000Y69210000D01*
X69268000Y31521635D02*
X67968000Y32821635D01*
X18114988Y57320012D02*
X18015000Y57420000D01*
X58571000Y59423000D02*
X58571000Y60972000D01*
X45668000Y70010000D02*
X47217000Y70010000D01*
X41928000Y71236000D02*
X40379000Y71236000D01*
X69268000Y38321635D02*
X69268000Y36521635D01*
X33614388Y40472500D02*
X35987500Y40472500D01*
X18254988Y13426900D02*
X17460000Y12631912D01*
X17460000Y12631912D02*
X17460000Y10760000D01*
X69575000Y28039635D02*
X69268000Y28346635D01*
X58224500Y65273000D02*
X58224500Y63724000D01*
X69268000Y29721635D02*
X69268000Y31521635D01*
X20654988Y13426900D02*
X18254988Y13426900D01*
X69575000Y40854635D02*
X71480000Y40854635D01*
X55240500Y59000000D02*
X55240500Y60549000D01*
D45*
%TO.N,Net-(R3-Pad2)*%
X43280500Y65996500D02*
X43280500Y67610000D01*
X43452000Y65825000D02*
X43280500Y65996500D01*
%TO.N,Net-(R4-Pad2)*%
X46500000Y65825000D02*
X46500000Y68937000D01*
X46227000Y69210000D02*
X45655500Y69210000D01*
X46246000Y69191000D02*
X46227000Y69210000D01*
X46500000Y68937000D02*
X46246000Y69191000D01*
%TO.N,Net-(R5-Pad1)*%
X36034988Y25046900D02*
X36034988Y27725012D01*
X36034988Y27725012D02*
X35987500Y27772500D01*
%TO.N,Net-(R1-Pad2)*%
X59100000Y55800000D02*
X60365000Y55800000D01*
X60365000Y55800000D02*
X60527000Y55638000D01*
%TO.N,Net-(R2-Pad1)*%
X57000000Y57000000D02*
X55481000Y57000000D01*
X55481000Y57000000D02*
X55319000Y57162000D01*
%TO.N,Net-(TP1-Pad1)*%
X59100000Y56400000D02*
X60082000Y56400000D01*
X61606000Y60210000D02*
X63130000Y60210000D01*
X60082000Y56400000D02*
X60844000Y57162000D01*
X60844000Y59448000D02*
X61606000Y60210000D01*
X60844000Y57162000D02*
X60844000Y59448000D01*
%TO.N,/SENS/SCL_1*%
X14920000Y43893800D02*
X14906900Y43906900D01*
X40098988Y47970900D02*
X45230000Y53101912D01*
X45655500Y67610000D02*
X45655500Y66822500D01*
X45230000Y66397000D02*
X45230000Y55133912D01*
X35987500Y37932500D02*
X32103388Y37932500D01*
X26128988Y43906900D02*
X14906900Y43906900D01*
X45230000Y53101912D02*
X45230000Y55133912D01*
X5554988Y43906900D02*
X14906900Y43906900D01*
X36288988Y47970900D02*
X40098988Y47970900D01*
X14920000Y41240000D02*
X14920000Y43893800D01*
X32103388Y37932500D02*
X26128988Y43906900D01*
X45655500Y66822500D02*
X45230000Y66397000D01*
%TO.N,/SENS/SDA_1*%
X44722000Y68175000D02*
X44670988Y68123988D01*
X44670988Y64480900D02*
X44670988Y54828900D01*
X34764988Y47970900D02*
X35780988Y48986900D01*
X45655500Y68410000D02*
X44957000Y68410000D01*
X27652988Y37556900D02*
X29817388Y35392500D01*
X44670988Y68123988D02*
X44670988Y64480900D01*
X17460000Y41240000D02*
X17460000Y37556900D01*
X44670988Y53812900D02*
X44670988Y54828900D01*
X35780988Y48986900D02*
X39844988Y48986900D01*
X39844988Y48986900D02*
X44670988Y53812900D01*
X29817388Y35392500D02*
X35987500Y35392500D01*
X44957000Y68410000D02*
X44722000Y68175000D01*
%TO.N,Net-(U1-Pad4)*%
X59100000Y57000000D02*
X59920000Y57000000D01*
X60082000Y57162000D02*
X60082000Y57416000D01*
X59898000Y57600000D02*
X60082000Y57416000D01*
X59920000Y57000000D02*
X60082000Y57162000D01*
X59100000Y57600000D02*
X59898000Y57600000D01*
%TO.N,/SENS/SCL_2*%
X3014988Y54066900D02*
X4284988Y52796900D01*
X14952988Y45430900D02*
X33240988Y45430900D01*
X9555988Y52605900D02*
X10126988Y52034900D01*
X52036988Y46192900D02*
X54068988Y46192900D01*
X10126988Y48986900D02*
X10888988Y48224900D01*
X14952988Y59437988D02*
X14952988Y47716900D01*
X53306988Y67782900D02*
X53306988Y55590900D01*
X55510000Y47633912D02*
X54576988Y46700900D01*
X52036988Y46192900D02*
X52290988Y46192900D01*
X10888988Y48224900D02*
X12920988Y46192900D01*
X56024088Y70500000D02*
X53306988Y67782900D01*
X12920988Y46192900D02*
X13682988Y45430900D01*
X4284988Y52796900D02*
X8284988Y52796900D01*
X34002988Y46192900D02*
X52036988Y46192900D01*
X13682988Y45430900D02*
X14952988Y45430900D01*
X8729988Y52605900D02*
X9555988Y52605900D01*
X54068988Y46192900D02*
X54576988Y46700900D01*
X55510000Y54622000D02*
X55510000Y47633912D01*
X58440500Y70500000D02*
X56024088Y70500000D01*
X18015000Y62500000D02*
X14952988Y59437988D01*
X10126988Y52034900D02*
X10126988Y48986900D01*
X57000000Y55200000D02*
X56088000Y55200000D01*
X8284988Y52796900D02*
X8729988Y52351900D01*
X54576988Y46700900D02*
X55338988Y47462900D01*
X56088000Y55200000D02*
X55510000Y54622000D01*
X33240988Y45430900D02*
X34002988Y46192900D01*
%TO.N,/SENS/SDA_2*%
X10634988Y49240900D02*
X13174988Y46700900D01*
X60926988Y67313512D02*
X60926988Y63718900D01*
X31970988Y46700900D02*
X51020988Y46700900D01*
X9681988Y54257900D02*
X10634988Y53304900D01*
X55084988Y62448900D02*
X54068988Y61432900D01*
X60040500Y68200000D02*
X60926988Y67313512D01*
X10634988Y53304900D02*
X10634988Y49240900D01*
X31985000Y57420000D02*
X31985000Y46714912D01*
X13174988Y46700900D02*
X14190988Y46700900D01*
X29000000Y42636900D02*
X30446988Y44083888D01*
X31985000Y46714912D02*
X31970988Y46700900D01*
X54322988Y55800000D02*
X54322988Y47716900D01*
X59656988Y62448900D02*
X55084988Y62448900D01*
X53306988Y46700900D02*
X51020988Y46700900D01*
X51020988Y46700900D02*
X51528988Y46700900D01*
X54068988Y56054000D02*
X54322988Y55800000D01*
X54068988Y61432900D02*
X54068988Y56054000D01*
X54322988Y47716900D02*
X53306988Y46700900D01*
X14190988Y46700900D02*
X31970988Y46700900D01*
X57000000Y55800000D02*
X54322988Y55800000D01*
X8729988Y54257900D02*
X9681988Y54257900D01*
X60926988Y63718900D02*
X59656988Y62448900D01*
X5554988Y54066900D02*
X8729988Y54066900D01*
%TO.N,Net-(D1-Pad2)*%
X62069988Y3381900D02*
X62069988Y4981900D01*
%TO.N,Net-(J2-Pad7)*%
X9999988Y12346900D02*
X9999988Y26761900D01*
X9999988Y26761900D02*
X5554988Y31206900D01*
%TO.N,Net-(J1-Pad2)*%
X50889976Y10001912D02*
X41500000Y10001912D01*
X53000000Y4025000D02*
X53000000Y7891888D01*
X41500000Y10001912D02*
X41500000Y4025000D01*
X53000000Y7891888D02*
X50889976Y10001912D01*
%TO.N,Net-(J3-Pad18)*%
X10189988Y8981900D02*
X12750000Y8981900D01*
X12750000Y8981900D02*
X12750000Y4025000D01*
%TO.N,Net-(J4-Pad3)*%
X15250000Y8811888D02*
X15250000Y4025000D01*
X13364988Y10696900D02*
X15250000Y8811888D01*
X9999988Y10696900D02*
X13364988Y10696900D01*
%TO.N,Net-(J3-Pad16)*%
X42003988Y44922900D02*
X44099488Y42827400D01*
X7459988Y48986900D02*
X12031988Y44414900D01*
X44099488Y42827400D02*
X44289988Y42636900D01*
X16730988Y44414900D02*
X17238988Y44922900D01*
X12031988Y44414900D02*
X16730988Y44414900D01*
X17238988Y44922900D02*
X42003988Y44922900D01*
X5554988Y48986900D02*
X7459988Y48986900D01*
%TD*%
M02*
