%TF.GenerationSoftware,KiCad,Pcbnew,(6.0.1)*%
%TF.CreationDate,2023-01-07T23:02:53-08:00*%
%TF.ProjectId,Air Quality Sensor - R1,41697220-5175-4616-9c69-74792053656e,rev?*%
%TF.SameCoordinates,Original*%
%TF.FileFunction,Legend,Bot*%
%TF.FilePolarity,Positive*%
%FSLAX46Y46*%
G04 Gerber Fmt 4.6, Leading zero omitted, Abs format (unit mm)*
G04 Created by KiCad (PCBNEW (6.0.1)) date 2023-01-07 23:02:53*
%MOMM*%
%LPD*%
G01*
G04 APERTURE LIST*
G04 Aperture macros list*
%AMRoundRect*
0 Rectangle with rounded corners*
0 $1 Rounding radius*
0 $2 $3 $4 $5 $6 $7 $8 $9 X,Y pos of 4 corners*
0 Add a 4 corners polygon primitive as box body*
4,1,4,$2,$3,$4,$5,$6,$7,$8,$9,$2,$3,0*
0 Add four circle primitives for the rounded corners*
1,1,$1+$1,$2,$3*
1,1,$1+$1,$4,$5*
1,1,$1+$1,$6,$7*
1,1,$1+$1,$8,$9*
0 Add four rect primitives between the rounded corners*
20,1,$1+$1,$2,$3,$4,$5,0*
20,1,$1+$1,$4,$5,$6,$7,0*
20,1,$1+$1,$6,$7,$8,$9,0*
20,1,$1+$1,$8,$9,$2,$3,0*%
G04 Aperture macros list end*
%ADD10C,0.800000*%
%ADD11C,6.400000*%
%ADD12C,5.000000*%
%ADD13R,1.700000X1.700000*%
%ADD14O,1.700000X1.700000*%
%ADD15O,1.700000X1.950000*%
%ADD16RoundRect,0.250000X-0.600000X-0.725000X0.600000X-0.725000X0.600000X0.725000X-0.600000X0.725000X0*%
%ADD17C,1.200000*%
%ADD18C,2.200000*%
%ADD19R,1.778000X1.778000*%
%ADD20C,1.778000*%
%ADD21C,1.905000*%
%ADD22R,1.905000X1.905000*%
%ADD23C,2.000000*%
%ADD24C,0.889000*%
G04 APERTURE END LIST*
%LPC*%
D10*
%TO.C,H4*%
X72000000Y5400000D03*
X73697056Y1302944D03*
X73697056Y4697056D03*
X74400000Y3000000D03*
D11*
X72000000Y3000000D03*
D10*
X72000000Y600000D03*
X70302944Y4697056D03*
X70302944Y1302944D03*
X69600000Y3000000D03*
%TD*%
%TO.C,H3*%
X72000000Y74400000D03*
X73697056Y70302944D03*
X73697056Y73697056D03*
X74400000Y72000000D03*
D11*
X72000000Y72000000D03*
D10*
X72000000Y69600000D03*
X70302944Y73697056D03*
X70302944Y70302944D03*
X69600000Y72000000D03*
%TD*%
%TO.C,H2*%
X3000000Y5400000D03*
X4697056Y1302944D03*
X4697056Y4697056D03*
X5400000Y3000000D03*
D11*
X3000000Y3000000D03*
D10*
X3000000Y600000D03*
X1302944Y4697056D03*
X1302944Y1302944D03*
X600000Y3000000D03*
%TD*%
%TO.C,H1*%
X3000000Y74400000D03*
X4697056Y70302944D03*
X4697056Y73697056D03*
X5400000Y72000000D03*
D11*
X3000000Y72000000D03*
D10*
X3000000Y69600000D03*
X1302944Y73697056D03*
X1302944Y70302944D03*
X600000Y72000000D03*
%TD*%
D12*
%TO.C,*%
X72000000Y72000000D03*
%TD*%
D13*
%TO.C,J3*%
X3014988Y66766900D03*
D14*
X5554988Y66766900D03*
X3014988Y64226900D03*
X5554988Y64226900D03*
X3014988Y61686900D03*
X5554988Y61686900D03*
X3014988Y59146900D03*
X5554988Y59146900D03*
X3014988Y56606900D03*
X5554988Y56606900D03*
X3014988Y54066900D03*
X5554988Y54066900D03*
X3014988Y51526900D03*
X5554988Y51526900D03*
X3014988Y48986900D03*
X5554988Y48986900D03*
X3014988Y46446900D03*
X5554988Y46446900D03*
X3014988Y43906900D03*
X5554988Y43906900D03*
X3014988Y41366900D03*
X5554988Y41366900D03*
X3014988Y38826900D03*
X5554988Y38826900D03*
X3014988Y36286900D03*
X5554988Y36286900D03*
X3014988Y33746900D03*
X5554988Y33746900D03*
X3014988Y31206900D03*
X5554988Y31206900D03*
X3014988Y28666900D03*
X5554988Y28666900D03*
X3014988Y26126900D03*
X5554988Y26126900D03*
X3014988Y23586900D03*
X5554988Y23586900D03*
X3014988Y21046900D03*
X5554988Y21046900D03*
X3014988Y18506900D03*
X5554988Y18506900D03*
%TD*%
D12*
%TO.C,*%
X72000000Y72000000D03*
%TD*%
%TO.C,*%
X3000000Y72000000D03*
%TD*%
D15*
%TO.C,J4*%
X17750000Y4025000D03*
X15250000Y4025000D03*
X12750000Y4025000D03*
D16*
X10250000Y4025000D03*
D17*
X8650000Y2025000D03*
%TD*%
D15*
%TO.C,J2*%
X44000000Y4025000D03*
X41500000Y4025000D03*
X39000000Y4025000D03*
X36500000Y4025000D03*
X34000000Y4025000D03*
X31500000Y4025000D03*
X29000000Y4025000D03*
X26500000Y4025000D03*
D16*
X24000000Y4025000D03*
D17*
X22400000Y2025000D03*
%TD*%
D18*
%TO.C,U7*%
X39862500Y42912500D03*
X56087500Y10912500D03*
D19*
X35987500Y43012500D03*
D20*
X35987500Y40472500D03*
X35987500Y37932500D03*
X35987500Y35392500D03*
X35987500Y32852500D03*
X35987500Y30312500D03*
X35987500Y27772500D03*
%TD*%
D15*
%TO.C,J1*%
X55500000Y4025000D03*
X53000000Y4025000D03*
D16*
X50500000Y4025000D03*
D17*
X48900000Y2025000D03*
%TD*%
D21*
%TO.C,U4*%
X25080000Y10760000D03*
X22540000Y10760000D03*
X20000000Y10760000D03*
X17460000Y10760000D03*
X14920000Y41240000D03*
X17460000Y41240000D03*
X20000000Y41240000D03*
X22540000Y41240000D03*
D22*
X25080000Y41240000D03*
%TD*%
D23*
%TO.C,TP1*%
X63130000Y60210000D03*
%TD*%
D24*
X44416988Y28412900D03*
X49750988Y21554900D03*
X56154500Y71915000D03*
X30446988Y44083888D03*
X31985000Y46714912D03*
X29000000Y42636900D03*
X53306988Y55590900D03*
X55510000Y54622000D03*
X36288988Y47970900D03*
X34764988Y47970900D03*
X14952988Y45430900D03*
X14952988Y47716900D03*
X16464988Y48986900D03*
X21314988Y49011900D03*
X8729988Y57557900D03*
X8729988Y49305900D03*
X12750000Y8981900D03*
X36034988Y20831900D03*
X5974988Y8981900D03*
X11649988Y42256900D03*
X46500000Y62626000D03*
X40379000Y69686000D03*
X57021000Y60997000D03*
X43452000Y62626000D03*
X62177000Y57187000D03*
X40379000Y68201000D03*
X60802500Y71890000D03*
X66120000Y22775000D03*
X56891500Y68200000D03*
X66120000Y9084000D03*
X59100000Y53651000D03*
X60002500Y66810000D03*
X55240500Y60549000D03*
X58050000Y53751000D03*
X58224500Y63724000D03*
X40379000Y66651000D03*
X44468000Y71248000D03*
X40379000Y71236000D03*
X71480000Y22775000D03*
X58571000Y60972000D03*
X71480000Y9059000D03*
X47217000Y70010000D03*
M02*
