%TF.GenerationSoftware,KiCad,Pcbnew,(6.0.1)*%
%TF.CreationDate,2023-01-07T23:02:53-08:00*%
%TF.ProjectId,Air Quality Sensor - R1,41697220-5175-4616-9c69-74792053656e,rev?*%
%TF.SameCoordinates,Original*%
%TF.FileFunction,Profile,NP*%
%FSLAX46Y46*%
G04 Gerber Fmt 4.6, Leading zero omitted, Abs format (unit mm)*
G04 Created by KiCad (PCBNEW (6.0.1)) date 2023-01-07 23:02:53*
%MOMM*%
%LPD*%
G01*
G04 APERTURE LIST*
%TA.AperFunction,Profile*%
%ADD10C,0.100000*%
%TD*%
%TA.AperFunction,Profile*%
%ADD11C,0.050000*%
%TD*%
G04 APERTURE END LIST*
D10*
X50410000Y29540000D02*
G75*
G03*
X50410000Y27000000I0J-1270000D01*
G01*
X50410000Y27000000D02*
X72000000Y27000000D01*
X72000000Y29540000D02*
X50410000Y29540000D01*
X72000000Y27000000D02*
G75*
G03*
X72000000Y29540000I0J1270000D01*
G01*
X52000000Y72590000D02*
G75*
G03*
X49460000Y72590000I-1270000J0D01*
G01*
X49460000Y72590000D02*
X49460000Y51000000D01*
X52000000Y51000000D02*
X52000000Y72590000D01*
X49460000Y51000000D02*
G75*
G03*
X52000000Y51000000I1270000J0D01*
G01*
X14000000Y72590000D02*
G75*
G03*
X11460000Y72590000I-1270000J0D01*
G01*
X11460000Y72590000D02*
X11460000Y51000000D01*
X14000000Y51000000D02*
X14000000Y72590000D01*
X11460000Y51000000D02*
G75*
G03*
X14000000Y51000000I1270000J0D01*
G01*
X38500000Y72590000D02*
G75*
G03*
X35960000Y72590000I-1270000J0D01*
G01*
X35960000Y72590000D02*
X35960000Y51000000D01*
X38500000Y51000000D02*
X38500000Y72590000D01*
X35960000Y51000000D02*
G75*
G03*
X38500000Y51000000I1270000J0D01*
G01*
D11*
X73000000Y0D02*
G75*
G03*
X75000000Y2000000I1J1999999D01*
G01*
X75000000Y73000000D02*
G75*
G03*
X73000000Y75000000I-1999999J1D01*
G01*
X73000000Y0D02*
X2000000Y0D01*
X0Y2000000D02*
G75*
G03*
X2000000Y0I1999999J-1D01*
G01*
X75000000Y73000000D02*
X75000000Y2000000D01*
X0Y2000000D02*
X0Y73000000D01*
X2000000Y75000000D02*
X73000000Y75000000D01*
X2000001Y74999999D02*
G75*
G03*
X1Y72999999I-1J-1999999D01*
G01*
M02*
