%TF.GenerationSoftware,KiCad,Pcbnew,(6.0.1)*%
%TF.CreationDate,2023-01-07T23:02:53-08:00*%
%TF.ProjectId,Air Quality Sensor - R1,41697220-5175-4616-9c69-74792053656e,rev?*%
%TF.SameCoordinates,Original*%
%TF.FileFunction,Soldermask,Top*%
%TF.FilePolarity,Negative*%
%FSLAX46Y46*%
G04 Gerber Fmt 4.6, Leading zero omitted, Abs format (unit mm)*
G04 Created by KiCad (PCBNEW (6.0.1)) date 2023-01-07 23:02:53*
%MOMM*%
%LPD*%
G01*
G04 APERTURE LIST*
G04 Aperture macros list*
%AMRoundRect*
0 Rectangle with rounded corners*
0 $1 Rounding radius*
0 $2 $3 $4 $5 $6 $7 $8 $9 X,Y pos of 4 corners*
0 Add a 4 corners polygon primitive as box body*
4,1,4,$2,$3,$4,$5,$6,$7,$8,$9,$2,$3,0*
0 Add four circle primitives for the rounded corners*
1,1,$1+$1,$2,$3*
1,1,$1+$1,$4,$5*
1,1,$1+$1,$6,$7*
1,1,$1+$1,$8,$9*
0 Add four rect primitives between the rounded corners*
20,1,$1+$1,$2,$3,$4,$5,0*
20,1,$1+$1,$4,$5,$6,$7,0*
20,1,$1+$1,$6,$7,$8,$9,0*
20,1,$1+$1,$8,$9,$2,$3,0*%
%AMOutline4P*
0 Free polygon, 4 corners , with rotation*
0 The origin of the aperture is its center*
0 number of corners: always 4*
0 $1 to $8 corner X, Y*
0 $9 Rotation angle, in degrees counterclockwise*
0 create outline with 4 corners*
4,1,4,$1,$2,$3,$4,$5,$6,$7,$8,$1,$2,$9*%
%AMFreePoly0*
4,1,31,0.644127,0.901197,0.647663,0.899733,0.674733,0.872663,0.676197,0.869127,0.680000,0.850000,0.680000,-0.850000,0.676197,-0.869127,0.674733,-0.872663,0.647663,-0.899733,0.644127,-0.901197,0.625000,-0.905000,-0.625000,-0.905000,-0.644127,-0.901197,-0.647663,-0.899733,-0.674733,-0.872663,-0.676197,-0.869127,-0.680000,-0.850000,-0.680000,0.549998,-0.675515,0.549998,-0.676193,0.569138,
-0.674728,0.572674,-0.663891,0.588891,-0.363891,0.888890,-0.363891,0.888891,-0.347663,0.899733,-0.345895,0.900465,-0.344149,0.901189,-0.324998,0.900512,-0.324998,0.905000,0.625000,0.905000,0.644127,0.901197,0.644127,0.901197,$1*%
G04 Aperture macros list end*
%ADD10RoundRect,0.200000X0.275000X-0.200000X0.275000X0.200000X-0.275000X0.200000X-0.275000X-0.200000X0*%
%ADD11RoundRect,0.200000X0.200000X0.275000X-0.200000X0.275000X-0.200000X-0.275000X0.200000X-0.275000X0*%
%ADD12RoundRect,0.200000X-0.275000X0.200000X-0.275000X-0.200000X0.275000X-0.200000X0.275000X0.200000X0*%
%ADD13RoundRect,0.225000X-0.225000X-0.250000X0.225000X-0.250000X0.225000X0.250000X-0.225000X0.250000X0*%
%ADD14RoundRect,0.225000X0.225000X0.250000X-0.225000X0.250000X-0.225000X-0.250000X0.225000X-0.250000X0*%
%ADD15RoundRect,0.225000X-0.250000X0.225000X-0.250000X-0.225000X0.250000X-0.225000X0.250000X0.225000X0*%
%ADD16C,0.800000*%
%ADD17C,6.400000*%
%ADD18C,5.000000*%
%ADD19R,1.700000X1.700000*%
%ADD20O,1.700000X1.700000*%
%ADD21O,1.700000X1.950000*%
%ADD22RoundRect,0.250000X-0.600000X-0.725000X0.600000X-0.725000X0.600000X0.725000X-0.600000X0.725000X0*%
%ADD23C,1.200000*%
%ADD24FreePoly0,90.000000*%
%ADD25RoundRect,0.050000X0.200000X-0.275000X0.200000X0.275000X-0.200000X0.275000X-0.200000X-0.275000X0*%
%ADD26RoundRect,0.125000X-0.137500X0.125000X-0.137500X-0.125000X0.137500X-0.125000X0.137500X0.125000X0*%
%ADD27C,2.200000*%
%ADD28R,1.778000X1.778000*%
%ADD29C,1.778000*%
%ADD30R,4.000000X3.000000*%
%ADD31RoundRect,0.750000X-1.250000X-0.750000X1.250000X-0.750000X1.250000X0.750000X-1.250000X0.750000X0*%
%ADD32R,1.000000X0.300000*%
%ADD33Outline4P,-0.650000X-0.150000X0.650000X-0.150000X0.350000X0.150000X-0.350000X0.150000X180.000000*%
%ADD34R,1.300000X2.200000*%
%ADD35R,0.600000X0.400000*%
%ADD36RoundRect,0.100000X-0.750000X0.400000X-0.750000X-0.400000X0.750000X-0.400000X0.750000X0.400000X0*%
%ADD37RoundRect,0.100000X0.400000X0.750000X-0.400000X0.750000X-0.400000X-0.750000X0.400000X-0.750000X0*%
%ADD38RoundRect,0.100000X1.200000X1.200000X-1.200000X1.200000X-1.200000X-1.200000X1.200000X-1.200000X0*%
%ADD39C,1.905000*%
%ADD40R,1.905000X1.905000*%
%ADD41RoundRect,0.225000X0.250000X-0.225000X0.250000X0.225000X-0.250000X0.225000X-0.250000X-0.225000X0*%
%ADD42C,2.000000*%
%ADD43RoundRect,0.101600X0.400000X0.400000X-0.400000X0.400000X-0.400000X-0.400000X0.400000X-0.400000X0*%
%ADD44C,0.889000*%
G04 APERTURE END LIST*
D10*
%TO.C,R14*%
X9999988Y10696900D03*
X9999988Y12346900D03*
%TD*%
D11*
%TO.C,R13*%
X8539988Y8981900D03*
X10189988Y8981900D03*
%TD*%
D10*
%TO.C,R12*%
X62069988Y4981900D03*
X62069988Y6631900D03*
%TD*%
%TO.C,R9*%
X9999988Y37556900D03*
X9999988Y39206900D03*
%TD*%
D12*
%TO.C,R8*%
X9999988Y43906900D03*
X9999988Y42256900D03*
%TD*%
%TO.C,R7*%
X8729988Y52605900D03*
X8729988Y50955900D03*
%TD*%
D10*
%TO.C,R6*%
X8729988Y54257900D03*
X8729988Y55907900D03*
%TD*%
D12*
%TO.C,R5*%
X36034988Y25046900D03*
X36034988Y23396900D03*
%TD*%
D13*
%TO.C,C10*%
X23352500Y38826900D03*
X24902500Y38826900D03*
%TD*%
D14*
%TO.C,C9*%
X22204988Y13426900D03*
X20654988Y13426900D03*
%TD*%
%TO.C,C8*%
X19664988Y48986900D03*
X18114988Y48986900D03*
%TD*%
D15*
%TO.C,C7*%
X32859988Y42776900D03*
X32859988Y41226900D03*
%TD*%
D16*
%TO.C,H4*%
X72000000Y5400000D03*
X73697056Y1302944D03*
X73697056Y4697056D03*
X74400000Y3000000D03*
D17*
X72000000Y3000000D03*
D16*
X72000000Y600000D03*
X70302944Y4697056D03*
X70302944Y1302944D03*
X69600000Y3000000D03*
%TD*%
%TO.C,H3*%
X72000000Y74400000D03*
X73697056Y70302944D03*
X73697056Y73697056D03*
X74400000Y72000000D03*
D17*
X72000000Y72000000D03*
D16*
X72000000Y69600000D03*
X70302944Y73697056D03*
X70302944Y70302944D03*
X69600000Y72000000D03*
%TD*%
%TO.C,H2*%
X3000000Y5400000D03*
X4697056Y1302944D03*
X4697056Y4697056D03*
X5400000Y3000000D03*
D17*
X3000000Y3000000D03*
D16*
X3000000Y600000D03*
X1302944Y4697056D03*
X1302944Y1302944D03*
X600000Y3000000D03*
%TD*%
%TO.C,H1*%
X3000000Y74400000D03*
X4697056Y70302944D03*
X4697056Y73697056D03*
X5400000Y72000000D03*
D17*
X3000000Y72000000D03*
D16*
X3000000Y69600000D03*
X1302944Y73697056D03*
X1302944Y70302944D03*
X600000Y72000000D03*
%TD*%
D18*
%TO.C,*%
X72000000Y72000000D03*
%TD*%
D19*
%TO.C,J3*%
X3014988Y66766900D03*
D20*
X5554988Y66766900D03*
X3014988Y64226900D03*
X5554988Y64226900D03*
X3014988Y61686900D03*
X5554988Y61686900D03*
X3014988Y59146900D03*
X5554988Y59146900D03*
X3014988Y56606900D03*
X5554988Y56606900D03*
X3014988Y54066900D03*
X5554988Y54066900D03*
X3014988Y51526900D03*
X5554988Y51526900D03*
X3014988Y48986900D03*
X5554988Y48986900D03*
X3014988Y46446900D03*
X5554988Y46446900D03*
X3014988Y43906900D03*
X5554988Y43906900D03*
X3014988Y41366900D03*
X5554988Y41366900D03*
X3014988Y38826900D03*
X5554988Y38826900D03*
X3014988Y36286900D03*
X5554988Y36286900D03*
X3014988Y33746900D03*
X5554988Y33746900D03*
X3014988Y31206900D03*
X5554988Y31206900D03*
X3014988Y28666900D03*
X5554988Y28666900D03*
X3014988Y26126900D03*
X5554988Y26126900D03*
X3014988Y23586900D03*
X5554988Y23586900D03*
X3014988Y21046900D03*
X5554988Y21046900D03*
X3014988Y18506900D03*
X5554988Y18506900D03*
%TD*%
D18*
%TO.C,*%
X72000000Y72000000D03*
%TD*%
%TO.C,*%
X3000000Y72000000D03*
%TD*%
D13*
%TO.C,C3*%
X69575000Y22800000D03*
X68025000Y22800000D03*
%TD*%
D21*
%TO.C,J4*%
X17750000Y4025000D03*
X15250000Y4025000D03*
X12750000Y4025000D03*
D22*
X10250000Y4025000D03*
D23*
X8650000Y2025000D03*
%TD*%
D15*
%TO.C,C2*%
X58224500Y65273000D03*
X58224500Y66823000D03*
%TD*%
D14*
%TO.C,C11*%
X57703500Y71890000D03*
X59253500Y71890000D03*
%TD*%
D13*
%TO.C,C1*%
X58571000Y59448000D03*
X57021000Y59448000D03*
%TD*%
D24*
%TO.C,U2*%
X59240500Y69350000D03*
D25*
X58440500Y70500000D03*
X59240500Y70500000D03*
X60040500Y70500000D03*
X60040500Y68200000D03*
X59240500Y68200000D03*
X58440500Y68200000D03*
%TD*%
D21*
%TO.C,J2*%
X44000000Y4025000D03*
X41500000Y4025000D03*
X39000000Y4025000D03*
X36500000Y4025000D03*
X34000000Y4025000D03*
X31500000Y4025000D03*
X29000000Y4025000D03*
X26500000Y4025000D03*
D22*
X24000000Y4025000D03*
D23*
X22400000Y2025000D03*
%TD*%
D26*
%TO.C,U5*%
X43280500Y70010000D03*
X43280500Y69210000D03*
X43280500Y68410000D03*
X43280500Y67610000D03*
X45655500Y67610000D03*
X45655500Y68410000D03*
X45655500Y69210000D03*
X45655500Y70010000D03*
%TD*%
D27*
%TO.C,U7*%
X39862500Y42912500D03*
X56087500Y10912500D03*
D28*
X35987500Y43012500D03*
D29*
X35987500Y40472500D03*
X35987500Y37932500D03*
X35987500Y35392500D03*
X35987500Y32852500D03*
X35987500Y30312500D03*
X35987500Y27772500D03*
%TD*%
D30*
%TO.C,U6*%
X18015000Y67580000D03*
D31*
X18015000Y62500000D03*
X18015000Y57420000D03*
X31985000Y57420000D03*
X31985000Y62500000D03*
X31985000Y67580000D03*
%TD*%
D10*
%TO.C,R4*%
X46500000Y65825000D03*
X46500000Y64175000D03*
%TD*%
%TO.C,R3*%
X43452000Y65825000D03*
X43452000Y64175000D03*
%TD*%
D32*
%TO.C,U1*%
X57900000Y55300000D03*
D33*
X58050000Y55300000D03*
D34*
X58050000Y56550000D03*
D35*
X57000000Y55200000D03*
X57000000Y55800000D03*
X57000000Y56400000D03*
X57000000Y57000000D03*
X57000000Y57600000D03*
X59100000Y57600000D03*
X59100000Y57000000D03*
X59100000Y56400000D03*
X59100000Y55800000D03*
X59100000Y55200000D03*
%TD*%
D11*
%TO.C,R1*%
X60527000Y55638000D03*
X62177000Y55638000D03*
%TD*%
D36*
%TO.C,U3*%
X71100000Y13300000D03*
X71100000Y14550000D03*
X71100000Y15800000D03*
X71100000Y17050000D03*
X71100000Y18300000D03*
D37*
X69300000Y20100000D03*
X68050000Y20100000D03*
X66800000Y20100000D03*
X65550000Y20100000D03*
X64300000Y20100000D03*
D36*
X62500000Y18300000D03*
X62500000Y17050000D03*
X62500000Y15800000D03*
X62500000Y14550000D03*
X62500000Y13300000D03*
D37*
X64300000Y11500000D03*
X65550000Y11500000D03*
X66800000Y11500000D03*
X68050000Y11500000D03*
X69300000Y11500000D03*
D38*
X68000000Y17000000D03*
X65600000Y14600000D03*
X68000000Y14600000D03*
X65600000Y17000000D03*
%TD*%
D21*
%TO.C,J1*%
X55500000Y4025000D03*
X53000000Y4025000D03*
D22*
X50500000Y4025000D03*
D23*
X48900000Y2025000D03*
%TD*%
D39*
%TO.C,U4*%
X25080000Y10760000D03*
X22540000Y10760000D03*
X20000000Y10760000D03*
X17460000Y10760000D03*
X14920000Y41240000D03*
X17460000Y41240000D03*
X20000000Y41240000D03*
X22540000Y41240000D03*
D40*
X25080000Y41240000D03*
%TD*%
D15*
%TO.C,C5*%
X41928000Y66651000D03*
X41928000Y68201000D03*
%TD*%
D41*
%TO.C,C6*%
X41928000Y71236000D03*
X41928000Y69686000D03*
%TD*%
D42*
%TO.C,TP1*%
X63130000Y60210000D03*
%TD*%
D43*
%TO.C,D1*%
X62069988Y3381900D03*
X62069988Y1881900D03*
%TD*%
D10*
%TO.C,R2*%
X55240500Y59000000D03*
X55240500Y57350000D03*
%TD*%
D13*
%TO.C,C4*%
X69575000Y9084000D03*
X68025000Y9084000D03*
%TD*%
D44*
X44416988Y28412900D03*
X49750988Y21554900D03*
X56154500Y71915000D03*
X30446988Y44083888D03*
X31985000Y46714912D03*
X29000000Y42636900D03*
X53306988Y55590900D03*
X55510000Y54622000D03*
X36288988Y47970900D03*
X34764988Y47970900D03*
X14952988Y45430900D03*
X14952988Y47716900D03*
X16464988Y48986900D03*
X21314988Y49011900D03*
X8729988Y57557900D03*
X8729988Y49305900D03*
X12750000Y8981900D03*
X36034988Y20831900D03*
X5974988Y8981900D03*
X11649988Y42256900D03*
X46500000Y62626000D03*
X40379000Y69686000D03*
X57021000Y60997000D03*
X43452000Y62626000D03*
X62177000Y57187000D03*
X40379000Y68201000D03*
X60802500Y71890000D03*
X66120000Y22775000D03*
X56891500Y68200000D03*
X66120000Y9084000D03*
X59100000Y53651000D03*
X60002500Y66810000D03*
X55240500Y60549000D03*
X58050000Y53751000D03*
X58224500Y63724000D03*
X40379000Y66651000D03*
X44468000Y71248000D03*
X40379000Y71236000D03*
X71480000Y22775000D03*
X58571000Y60972000D03*
X71480000Y9059000D03*
X47217000Y70010000D03*
M02*
