%TF.GenerationSoftware,KiCad,Pcbnew,(6.0.1)*%
%TF.CreationDate,2023-01-08T15:50:33-08:00*%
%TF.ProjectId,Air Quality Sensor - R1,41697220-5175-4616-9c69-74792053656e,rev?*%
%TF.SameCoordinates,Original*%
%TF.FileFunction,Copper,L4,Bot*%
%TF.FilePolarity,Positive*%
%FSLAX46Y46*%
G04 Gerber Fmt 4.6, Leading zero omitted, Abs format (unit mm)*
G04 Created by KiCad (PCBNEW (6.0.1)) date 2023-01-08 15:50:33*
%MOMM*%
%LPD*%
G01*
G04 APERTURE LIST*
G04 Aperture macros list*
%AMRoundRect*
0 Rectangle with rounded corners*
0 $1 Rounding radius*
0 $2 $3 $4 $5 $6 $7 $8 $9 X,Y pos of 4 corners*
0 Add a 4 corners polygon primitive as box body*
4,1,4,$2,$3,$4,$5,$6,$7,$8,$9,$2,$3,0*
0 Add four circle primitives for the rounded corners*
1,1,$1+$1,$2,$3*
1,1,$1+$1,$4,$5*
1,1,$1+$1,$6,$7*
1,1,$1+$1,$8,$9*
0 Add four rect primitives between the rounded corners*
20,1,$1+$1,$2,$3,$4,$5,0*
20,1,$1+$1,$4,$5,$6,$7,0*
20,1,$1+$1,$6,$7,$8,$9,0*
20,1,$1+$1,$8,$9,$2,$3,0*%
G04 Aperture macros list end*
%TA.AperFunction,ComponentPad*%
%ADD10RoundRect,0.250000X-0.600000X-0.725000X0.600000X-0.725000X0.600000X0.725000X-0.600000X0.725000X0*%
%TD*%
%TA.AperFunction,ComponentPad*%
%ADD11O,1.700000X1.950000*%
%TD*%
%TA.AperFunction,ComponentPad*%
%ADD12C,2.000000*%
%TD*%
%TA.AperFunction,ComponentPad*%
%ADD13RoundRect,0.200000X-0.450000X0.200000X-0.450000X-0.200000X0.450000X-0.200000X0.450000X0.200000X0*%
%TD*%
%TA.AperFunction,ComponentPad*%
%ADD14O,1.300000X0.800000*%
%TD*%
%TA.AperFunction,ComponentPad*%
%ADD15C,0.800000*%
%TD*%
%TA.AperFunction,ComponentPad*%
%ADD16C,6.400000*%
%TD*%
%TA.AperFunction,ComponentPad*%
%ADD17C,2.200000*%
%TD*%
%TA.AperFunction,ComponentPad*%
%ADD18R,1.778000X1.778000*%
%TD*%
%TA.AperFunction,ComponentPad*%
%ADD19C,1.778000*%
%TD*%
%TA.AperFunction,ComponentPad*%
%ADD20R,1.905000X1.905000*%
%TD*%
%TA.AperFunction,ComponentPad*%
%ADD21C,1.905000*%
%TD*%
%TA.AperFunction,ComponentPad*%
%ADD22R,1.700000X1.700000*%
%TD*%
%TA.AperFunction,ComponentPad*%
%ADD23O,1.700000X1.700000*%
%TD*%
%TA.AperFunction,ViaPad*%
%ADD24C,0.889000*%
%TD*%
%TA.AperFunction,Conductor*%
%ADD25C,0.152400*%
%TD*%
%TA.AperFunction,Conductor*%
%ADD26C,0.400000*%
%TD*%
%TA.AperFunction,Conductor*%
%ADD27C,0.500000*%
%TD*%
G04 APERTURE END LIST*
D10*
%TO.P,J4,1,Pin_1*%
%TO.N,+5V*%
X10250000Y4025000D03*
D11*
%TO.P,J4,2,Pin_2*%
%TO.N,Net-(J3-Pad18)*%
X12750000Y4025000D03*
%TO.P,J4,3,Pin_3*%
%TO.N,Net-(J4-Pad3)*%
X15250000Y4025000D03*
%TO.P,J4,4,Pin_4*%
%TO.N,GND*%
X17750000Y4025000D03*
%TD*%
D10*
%TO.P,J2,1,Pin_1*%
%TO.N,+5V*%
X24000000Y4025000D03*
D11*
%TO.P,J2,2,Pin_2*%
%TO.N,+3V3*%
X26500000Y4025000D03*
%TO.P,J2,3,Pin_3*%
%TO.N,/SENS/SDA_2*%
X29000000Y4025000D03*
%TO.P,J2,4,Pin_4*%
%TO.N,/SENS/SCL_2*%
X31500000Y4025000D03*
%TO.P,J2,5,Pin_5*%
%TO.N,/SENS/SDA_1*%
X34000000Y4025000D03*
%TO.P,J2,6,Pin_6*%
%TO.N,/SENS/SCL_1*%
X36500000Y4025000D03*
%TO.P,J2,7,Pin_7*%
%TO.N,Net-(J2-Pad7)*%
X39000000Y4025000D03*
%TO.P,J2,8,Pin_8*%
%TO.N,Net-(J1-Pad2)*%
X41500000Y4025000D03*
%TO.P,J2,9,Pin_9*%
%TO.N,GND*%
X44000000Y4025000D03*
%TD*%
D10*
%TO.P,J1,1,Pin_1*%
%TO.N,+3V3*%
X50500000Y4025000D03*
D11*
%TO.P,J1,2,Pin_2*%
%TO.N,Net-(J1-Pad2)*%
X53000000Y4025000D03*
%TO.P,J1,3,Pin_3*%
%TO.N,GND*%
X55500000Y4025000D03*
%TD*%
D12*
%TO.P,TP10,1,1*%
%TO.N,GND*%
X3014988Y13172900D03*
%TD*%
%TO.P,TP5,1,1*%
%TO.N,Net-(TP5-Pad1)*%
X31843988Y10378900D03*
%TD*%
%TO.P,TP4,1,1*%
%TO.N,Net-(TP4-Pad1)*%
X32224988Y30190900D03*
%TD*%
%TO.P,TP3,1,1*%
%TO.N,Net-(TP3-Pad1)*%
X32224988Y32730900D03*
%TD*%
%TO.P,TP2,1,1*%
%TO.N,Net-(TP2-Pad1)*%
X8983988Y71719900D03*
%TD*%
D13*
%TO.P,J5,1,Pin_1*%
%TO.N,unconnected-(J5-Pad1)*%
X69874988Y17430900D03*
D14*
%TO.P,J5,2,Pin_2*%
%TO.N,unconnected-(J5-Pad2)*%
X69874988Y16180900D03*
%TO.P,J5,3,Pin_3*%
%TO.N,GND*%
X69874988Y14930900D03*
%TO.P,J5,4,Pin_4*%
%TO.N,+5V*%
X69874988Y13680900D03*
%TO.P,J5,5,Pin_5*%
%TO.N,Net-(J5-Pad5)*%
X69874988Y12430900D03*
%TO.P,J5,6,Pin_6*%
%TO.N,Net-(J5-Pad6)*%
X69874988Y11180900D03*
%TO.P,J5,7,Pin_7*%
%TO.N,unconnected-(J5-Pad7)*%
X69874988Y9930900D03*
%TD*%
D15*
%TO.P,H2,1*%
%TO.N,N/C*%
X4697056Y1302944D03*
X1302944Y4697056D03*
X3000000Y600000D03*
D16*
X3000000Y3000000D03*
D15*
X4697056Y4697056D03*
X1302944Y1302944D03*
X600000Y3000000D03*
X3000000Y5400000D03*
X5400000Y3000000D03*
%TD*%
D17*
%TO.P,U7,0*%
%TO.N,N/C*%
X39862500Y42912500D03*
X56087500Y10912500D03*
D18*
%TO.P,U7,1,VDD*%
%TO.N,+3V3*%
X35987500Y43012500D03*
D19*
%TO.P,U7,2,GND*%
%TO.N,GND*%
X35987500Y40472500D03*
%TO.P,U7,3,TX/SCL*%
%TO.N,/SENS/SCL_1*%
X35987500Y37932500D03*
%TO.P,U7,4,RX/SDA*%
%TO.N,/SENS/SDA_1*%
X35987500Y35392500D03*
%TO.P,U7,5,RDY*%
%TO.N,Net-(TP3-Pad1)*%
X35987500Y32852500D03*
%TO.P,U7,6,PWM*%
%TO.N,Net-(TP4-Pad1)*%
X35987500Y30312500D03*
%TO.P,U7,7,SEL*%
%TO.N,Net-(R5-Pad1)*%
X35987500Y27772500D03*
%TD*%
D20*
%TO.P,U4,1,GND*%
%TO.N,GND*%
X25080000Y41240000D03*
D21*
%TO.P,U4,2,VBB*%
%TO.N,+3V3*%
X22540000Y41240000D03*
%TO.P,U4,3,VDDIO*%
X20000000Y41240000D03*
%TO.P,U4,4,RxD/SDA*%
%TO.N,/SENS/SDA_1*%
X17460000Y41240000D03*
%TO.P,U4,5,TxD/SCL*%
%TO.N,/SENS/SCL_1*%
X14920000Y41240000D03*
%TO.P,U4,6,COMSEL*%
%TO.N,GND*%
X17460000Y10760000D03*
%TO.P,U4,7,nRDY*%
%TO.N,Net-(TP5-Pad1)*%
X20000000Y10760000D03*
%TO.P,U4,8,DVCC*%
%TO.N,unconnected-(U4-Pad8)*%
X22540000Y10760000D03*
%TO.P,U4,9,EN*%
%TO.N,+3V3*%
X25080000Y10760000D03*
%TD*%
D15*
%TO.P,H3,1*%
%TO.N,N/C*%
X73697056Y70302944D03*
X72000000Y69600000D03*
X69600000Y72000000D03*
X74400000Y72000000D03*
D16*
X72000000Y72000000D03*
D15*
X70302944Y70302944D03*
X72000000Y74400000D03*
X73697056Y73697056D03*
X70302944Y73697056D03*
%TD*%
D22*
%TO.P,J3,1,GND*%
%TO.N,GND*%
X3014988Y66766900D03*
D23*
%TO.P,J3,2,GND*%
X5554988Y66766900D03*
%TO.P,J3,3,3V3*%
%TO.N,+3V3*%
X3014988Y64226900D03*
%TO.P,J3,4,3V3*%
X5554988Y64226900D03*
%TO.P,J3,5,GND*%
%TO.N,GND*%
X3014988Y61686900D03*
%TO.P,J3,6,GND*%
X5554988Y61686900D03*
%TO.P,J3,7,IO36*%
%TO.N,unconnected-(J3-Pad7)*%
X3014988Y59146900D03*
%TO.P,J3,8,IO39*%
%TO.N,unconnected-(J3-Pad8)*%
X5554988Y59146900D03*
%TO.P,J3,9,IO34*%
%TO.N,unconnected-(J3-Pad9)*%
X3014988Y56606900D03*
%TO.P,J3,10,IO35*%
%TO.N,unconnected-(J3-Pad10)*%
X5554988Y56606900D03*
%TO.P,J3,11,IO32*%
%TO.N,/SENS/SCL_2*%
X3014988Y54066900D03*
%TO.P,J3,12,IO33*%
%TO.N,/SENS/SDA_2*%
X5554988Y54066900D03*
%TO.P,J3,13,IO25*%
%TO.N,unconnected-(J3-Pad13)*%
X3014988Y51526900D03*
%TO.P,J3,14,IO26*%
%TO.N,unconnected-(J3-Pad14)*%
X5554988Y51526900D03*
%TO.P,J3,15,IO27*%
%TO.N,unconnected-(J3-Pad15)*%
X3014988Y48986900D03*
%TO.P,J3,16,IO14*%
%TO.N,Net-(J3-Pad16)*%
X5554988Y48986900D03*
%TO.P,J3,17,IO12*%
%TO.N,unconnected-(J3-Pad17)*%
X3014988Y46446900D03*
%TO.P,J3,18,IO13*%
%TO.N,Net-(J3-Pad18)*%
X5554988Y46446900D03*
%TO.P,J3,19,IO23*%
%TO.N,unconnected-(J3-Pad19)*%
X3014988Y43906900D03*
%TO.P,J3,20,IO22*%
%TO.N,/SENS/SCL_1*%
X5554988Y43906900D03*
%TO.P,J3,21,MISO*%
%TO.N,unconnected-(J3-Pad21)*%
X3014988Y41366900D03*
%TO.P,J3,22,MOSI*%
%TO.N,unconnected-(J3-Pad22)*%
X5554988Y41366900D03*
%TO.P,J3,23,IO21*%
%TO.N,/SENS/SDA_1*%
X3014988Y38826900D03*
%TO.P,J3,24,IO19*%
%TO.N,Net-(J1-Pad2)*%
X5554988Y38826900D03*
%TO.P,J3,25,IO18*%
%TO.N,Net-(R10-Pad2)*%
X3014988Y36286900D03*
%TO.P,J3,26,IO5*%
%TO.N,unconnected-(J3-Pad26)*%
X5554988Y36286900D03*
%TO.P,J3,27,IO4*%
%TO.N,Net-(J3-Pad27)*%
X3014988Y33746900D03*
%TO.P,J3,28,PROG*%
%TO.N,unconnected-(J3-Pad28)*%
X5554988Y33746900D03*
%TO.P,J3,29,IO2*%
%TO.N,unconnected-(J3-Pad29)*%
X3014988Y31206900D03*
%TO.P,J3,30,IO15*%
%TO.N,Net-(J2-Pad7)*%
X5554988Y31206900D03*
%TO.P,J3,31,GND*%
%TO.N,GND*%
X3014988Y28666900D03*
%TO.P,J3,32,GND*%
X5554988Y28666900D03*
%TO.P,J3,33,3V3*%
%TO.N,+3V3*%
X3014988Y26126900D03*
%TO.P,J3,34,3V3*%
X5554988Y26126900D03*
%TO.P,J3,35,5V0*%
%TO.N,+5V*%
X3014988Y23586900D03*
%TO.P,J3,36,5V0*%
X5554988Y23586900D03*
%TO.P,J3,37,VIN*%
%TO.N,unconnected-(J3-Pad37)*%
X3014988Y21046900D03*
%TO.P,J3,38,VIN*%
%TO.N,unconnected-(J3-Pad38)*%
X5554988Y21046900D03*
%TO.P,J3,39,GND*%
%TO.N,GND*%
X3014988Y18506900D03*
%TO.P,J3,40,GND*%
X5554988Y18506900D03*
%TD*%
D15*
%TO.P,H4,1*%
%TO.N,N/C*%
X70302944Y4697056D03*
X69600000Y3000000D03*
X73697056Y1302944D03*
X73697056Y4697056D03*
X72000000Y600000D03*
X72000000Y5400000D03*
X74400000Y3000000D03*
X70302944Y1302944D03*
D16*
X72000000Y3000000D03*
%TD*%
D15*
%TO.P,H1,1*%
%TO.N,N/C*%
X5400000Y72000000D03*
X1302944Y73697056D03*
X4697056Y70302944D03*
X3000000Y69600000D03*
X3000000Y74400000D03*
X600000Y72000000D03*
X4697056Y73697056D03*
X1302944Y70302944D03*
D16*
X3000000Y72000000D03*
%TD*%
D12*
%TO.P,TP1,1,1*%
%TO.N,Net-(TP1-Pad1)*%
X63130000Y60210000D03*
%TD*%
D24*
%TO.N,Net-(TP2-Pad1)*%
X22191988Y66512900D03*
%TO.N,Net-(J1-Pad2)*%
X14190988Y36286900D03*
X25620988Y14442900D03*
%TO.N,Net-(J3-Pad16)*%
X62069988Y8219900D03*
%TO.N,+3V3*%
X46500000Y62626000D03*
X11649988Y42256900D03*
X40379000Y69686000D03*
X57021000Y60997000D03*
X43452000Y62626000D03*
X8729988Y57557900D03*
X21314988Y49011900D03*
X5974988Y8981900D03*
X62177000Y57187000D03*
X40379000Y68201000D03*
X60802500Y71890000D03*
X66120000Y40854635D03*
X8729988Y49305900D03*
X56891500Y68200000D03*
X66120000Y27163635D03*
%TO.N,GND*%
X59100000Y53651000D03*
X60002500Y66810000D03*
X55240500Y60549000D03*
X16464988Y48986900D03*
X58050000Y53751000D03*
X36034988Y20831900D03*
X58224500Y63724000D03*
X40379000Y66651000D03*
X44468000Y71248000D03*
X40379000Y71236000D03*
X71480000Y40854635D03*
X56154500Y71915000D03*
X58571000Y60972000D03*
X71480000Y27138635D03*
X47217000Y70010000D03*
%TO.N,/SENS/SCL_1*%
X36288988Y47970900D03*
%TO.N,/SENS/SDA_1*%
X34764988Y47970900D03*
%TO.N,/SENS/SCL_2*%
X14952988Y45430900D03*
X53306988Y55590900D03*
X14952988Y47716900D03*
X55510000Y54622000D03*
%TO.N,/SENS/SDA_2*%
X30446988Y44083888D03*
X29000000Y42636900D03*
X31985000Y46714912D03*
%TO.N,Net-(J3-Pad18)*%
X12750000Y8981900D03*
%TO.N,Net-(J3-Pad16)*%
X44289988Y42636900D03*
%TD*%
D25*
%TO.N,Net-(J3-Pad16)*%
X44289988Y42636900D02*
X44289988Y27015900D01*
X44289988Y27015900D02*
X62069988Y9235900D01*
X62069988Y9235900D02*
X62069988Y8219900D01*
%TO.N,/SENS/SCL_2*%
X29176988Y43906900D02*
X16476988Y43906900D01*
X30573988Y42509900D02*
X29176988Y43906900D01*
X30573988Y38191900D02*
X30573988Y42509900D01*
X16476988Y43906900D02*
X14952988Y45430900D01*
X29938988Y8473900D02*
X29938988Y37556900D01*
X31500000Y6912888D02*
X29938988Y8473900D01*
X31500000Y4025000D02*
X31500000Y6912888D01*
X29938988Y37556900D02*
X30573988Y38191900D01*
%TO.N,Net-(TP2-Pad1)*%
X22191988Y56606900D02*
X22191988Y66512900D01*
X10126988Y50256900D02*
X11777988Y48605900D01*
X10126988Y70576900D02*
X10126988Y50256900D01*
X11777988Y48605900D02*
X14190988Y48605900D01*
X8983988Y71719900D02*
X10126988Y70576900D01*
X14190988Y48605900D02*
X22191988Y56606900D01*
%TO.N,Net-(TP4-Pad1)*%
X32346588Y30312500D02*
X35987500Y30312500D01*
X32224988Y30190900D02*
X32346588Y30312500D01*
%TO.N,Net-(TP3-Pad1)*%
X32346588Y32852500D02*
X32224988Y32730900D01*
X35987500Y32852500D02*
X32346588Y32852500D01*
%TO.N,Net-(J1-Pad2)*%
X25620988Y27904900D02*
X25620988Y14442900D01*
X17238988Y36286900D02*
X25620988Y27904900D01*
X14190988Y36286900D02*
X17238988Y36286900D01*
%TO.N,/SENS/SCL_1*%
X37183388Y37932500D02*
X35987500Y37932500D01*
X40860988Y21554900D02*
X40860988Y34254900D01*
X36500000Y17193912D02*
X40860988Y21554900D01*
X40860988Y34254900D02*
X37183388Y37932500D01*
X36500000Y4025000D02*
X36500000Y17193912D01*
%TO.N,/SENS/SDA_1*%
X39844988Y31535012D02*
X35987500Y35392500D01*
X34000000Y16471912D02*
X39844988Y22316900D01*
X39844988Y22316900D02*
X39844988Y31535012D01*
X34000000Y4025000D02*
X34000000Y16471912D01*
D26*
%TO.N,+5V*%
X64228988Y7330900D02*
X64228988Y10124900D01*
X58386988Y1488900D02*
X64228988Y7330900D01*
X67784988Y13680900D02*
X69874988Y13680900D01*
X8094988Y2250900D02*
X8856988Y1488900D01*
X8094988Y21046900D02*
X8094988Y2250900D01*
X8856988Y1488900D02*
X58386988Y1488900D01*
X64228988Y10124900D02*
X67784988Y13680900D01*
X5554988Y23586900D02*
X8094988Y21046900D01*
D27*
X24000000Y5776888D02*
X22699988Y7076900D01*
X22699988Y7076900D02*
X10250000Y7076900D01*
X24000000Y4025000D02*
X24000000Y5776888D01*
D25*
%TO.N,/SENS/SCL_1*%
X33748988Y45430900D02*
X36288988Y47970900D01*
X35987500Y37932500D02*
X34897388Y37932500D01*
X34897388Y37932500D02*
X33748988Y39080900D01*
X33748988Y39080900D02*
X33748988Y45430900D01*
%TO.N,/SENS/SDA_1*%
X32986988Y36794900D02*
X34389388Y35392500D01*
X34389388Y35392500D02*
X35987500Y35392500D01*
X34764988Y47970900D02*
X32986988Y46192900D01*
X32986988Y46192900D02*
X32986988Y36794900D01*
D27*
%TO.N,+5V*%
X10250000Y4025000D02*
X10250000Y7461888D01*
X10250000Y20161888D02*
X6824988Y23586900D01*
X10250000Y7461888D02*
X10250000Y20161888D01*
X6824988Y23586900D02*
X3014988Y23586900D01*
D25*
%TO.N,/SENS/SCL_2*%
X54275888Y54622000D02*
X53306988Y55590900D01*
X55510000Y54622000D02*
X54275888Y54622000D01*
X14952988Y47716900D02*
X14952988Y45430900D01*
%TO.N,/SENS/SDA_2*%
X30446988Y44083888D02*
X31985000Y45621900D01*
X31985000Y45621900D02*
X31985000Y46714912D01*
X29000000Y4025000D02*
X29000000Y42636900D01*
%TO.N,Net-(J3-Pad18)*%
X12750000Y39251888D02*
X5554988Y46446900D01*
X12750000Y8981900D02*
X12750000Y39251888D01*
%TD*%
M02*
