M48
; DRILL file {KiCad (6.0.1)} date Sun Jan  8 15:50:33 2023
; FORMAT={-:-/ absolute / inch / decimal}
; #@! TF.CreationDate,2023-01-08T15:50:33-08:00
; #@! TF.GenerationSoftware,Kicad,Pcbnew,(6.0.1)
; #@! TF.FileFunction,Plated,1,4,PTH
FMAT,2
INCH
; #@! TA.AperFunction,Plated,PTH,ViaDrill
T1C0.0160
; #@! TA.AperFunction,Plated,PTH,ComponentDrill
T2C0.0197
; #@! TA.AperFunction,Plated,PTH,ComponentDrill
T3C0.0350
; #@! TA.AperFunction,Plated,PTH,ComponentDrill
T4C0.0374
; #@! TA.AperFunction,Plated,PTH,ComponentDrill
T5C0.0394
; #@! TA.AperFunction,Plated,PTH,ComponentDrill
T6C0.0709
; #@! TA.AperFunction,Plated,PTH,ComponentDrill
T7C0.1260
%
G90
G05
T1
X0.2352Y0.3536
X0.3437Y2.2661
X0.3437Y1.9412
X0.4587Y1.6637
X0.502Y0.3536
X0.5587Y1.4286
X0.5887Y1.8786
X0.5887Y1.7886
X0.6482Y1.9286
X0.8392Y1.9296
X0.8737Y2.6186
X1.0087Y0.5686
X1.1417Y1.6786
X1.1987Y1.7356
X1.2593Y1.8392
X1.3687Y1.8886
X1.4187Y0.8202
X1.4287Y1.8886
X1.5897Y2.8046
X1.5897Y2.7435
X1.5897Y2.6851
X1.5897Y2.6241
X1.7107Y2.4656
X1.7437Y1.6786
X1.7507Y2.805
X1.8307Y2.4656
X1.8589Y2.7563
X2.0987Y2.1886
X2.1748Y2.3838
X2.1854Y2.1505
X2.2108Y2.8313
X2.2398Y2.685
X2.2449Y2.4015
X2.2854Y2.1162
X2.2923Y2.5088
X2.3059Y2.4005
X2.3268Y2.1122
X2.3623Y2.6303
X2.3938Y2.8303
X2.4437Y0.3236
X2.4479Y2.2515
X2.6031Y1.6085
X2.6031Y1.0694
X2.8142Y1.6085
X2.8142Y1.0685
T2
X0.0236Y2.8346
X0.0236Y0.1181
X0.0513Y2.9015
X0.0513Y2.7678
X0.0513Y0.1849
X0.0513Y0.0513
X0.1181Y2.9291
X0.1181Y2.7402
X0.1181Y0.2126
X0.1181Y0.0236
X0.1849Y2.9015
X0.1849Y2.7678
X0.1849Y0.1849
X0.1849Y0.0513
X0.2126Y2.8346
X0.2126Y0.1181
X2.7402Y2.8346
X2.7402Y0.1181
X2.751Y0.6863
X2.751Y0.637
X2.751Y0.5878
X2.751Y0.5386
X2.751Y0.4894
X2.751Y0.4402
X2.751Y0.391
X2.7678Y2.9015
X2.7678Y2.7678
X2.7678Y0.1849
X2.7678Y0.0513
X2.8346Y2.9291
X2.8346Y2.7402
X2.8346Y0.2126
X2.8346Y0.0236
X2.9015Y2.9015
X2.9015Y2.7678
X2.9015Y0.1849
X2.9015Y0.0513
X2.9291Y2.8346
X2.9291Y0.1181
T3
X0.5874Y1.6236
X0.6874Y1.6236
X0.6874Y0.4236
X0.7874Y1.6236
X0.7874Y0.4236
X0.8874Y1.6236
X0.8874Y0.4236
X0.9874Y1.6236
X0.9874Y0.4236
X1.4168Y1.6934
X1.4168Y1.5934
X1.4168Y1.4934
X1.4168Y1.3934
X1.4168Y1.2934
X1.4168Y1.1934
X1.4168Y1.0934
T4
X0.4035Y0.1585
X0.502Y0.1585
X0.6004Y0.1585
X0.6988Y0.1585
X0.9449Y0.1585
X1.0433Y0.1585
X1.1417Y0.1585
X1.2402Y0.1585
X1.3386Y0.1585
X1.437Y0.1585
X1.5354Y0.1585
X1.6339Y0.1585
X1.7323Y0.1585
X1.9882Y0.1585
X2.0866Y0.1585
X2.185Y0.1585
T5
X0.1187Y2.6286
X0.1187Y2.5286
X0.1187Y2.4286
X0.1187Y2.3286
X0.1187Y2.2286
X0.1187Y2.1286
X0.1187Y2.0286
X0.1187Y1.9286
X0.1187Y1.8286
X0.1187Y1.7286
X0.1187Y1.6286
X0.1187Y1.5286
X0.1187Y1.4286
X0.1187Y1.3286
X0.1187Y1.2286
X0.1187Y1.1286
X0.1187Y1.0286
X0.1187Y0.9286
X0.1187Y0.8286
X0.1187Y0.7286
X0.1187Y0.5186
X0.2187Y2.6286
X0.2187Y2.5286
X0.2187Y2.4286
X0.2187Y2.3286
X0.2187Y2.2286
X0.2187Y2.1286
X0.2187Y2.0286
X0.2187Y1.9286
X0.2187Y1.8286
X0.2187Y1.7286
X0.2187Y1.6286
X0.2187Y1.5286
X0.2187Y1.4286
X0.2187Y1.3286
X0.2187Y1.2286
X0.2187Y1.1286
X0.2187Y1.0286
X0.2187Y0.9286
X0.2187Y0.8286
X0.2187Y0.7286
X0.3537Y2.8236
X1.2537Y0.4086
X1.2687Y1.2886
X1.2687Y1.1886
X2.4854Y2.3705
T6
X1.5694Y1.6895
X2.2082Y0.4296
T7
X0.1181Y2.8346
X0.1181Y0.1181
X2.8346Y2.8346
X2.8346Y0.1181
T0
M30
