%TF.GenerationSoftware,KiCad,Pcbnew,(6.0.1)*%
%TF.CreationDate,2023-02-05T16:51:08-08:00*%
%TF.ProjectId,Air Quality Sensor - R1,41697220-5175-4616-9c69-74792053656e,rev?*%
%TF.SameCoordinates,Original*%
%TF.FileFunction,Legend,Bot*%
%TF.FilePolarity,Positive*%
%FSLAX46Y46*%
G04 Gerber Fmt 4.6, Leading zero omitted, Abs format (unit mm)*
G04 Created by KiCad (PCBNEW (6.0.1)) date 2023-02-05 16:51:08*
%MOMM*%
%LPD*%
G01*
G04 APERTURE LIST*
G04 Aperture macros list*
%AMRoundRect*
0 Rectangle with rounded corners*
0 $1 Rounding radius*
0 $2 $3 $4 $5 $6 $7 $8 $9 X,Y pos of 4 corners*
0 Add a 4 corners polygon primitive as box body*
4,1,4,$2,$3,$4,$5,$6,$7,$8,$9,$2,$3,0*
0 Add four circle primitives for the rounded corners*
1,1,$1+$1,$2,$3*
1,1,$1+$1,$4,$5*
1,1,$1+$1,$6,$7*
1,1,$1+$1,$8,$9*
0 Add four rect primitives between the rounded corners*
20,1,$1+$1,$2,$3,$4,$5,0*
20,1,$1+$1,$4,$5,$6,$7,0*
20,1,$1+$1,$6,$7,$8,$9,0*
20,1,$1+$1,$8,$9,$2,$3,0*%
G04 Aperture macros list end*
%ADD10R,1.905000X1.905000*%
%ADD11C,1.905000*%
%ADD12RoundRect,0.200000X0.450000X-0.200000X0.450000X0.200000X-0.450000X0.200000X-0.450000X-0.200000X0*%
%ADD13O,1.300000X0.800000*%
%ADD14C,2.000000*%
%ADD15C,0.800000*%
%ADD16C,6.400000*%
%ADD17RoundRect,0.250000X-0.600000X-0.725000X0.600000X-0.725000X0.600000X0.725000X-0.600000X0.725000X0*%
%ADD18O,1.700000X1.950000*%
%ADD19C,2.200000*%
%ADD20R,1.778000X1.778000*%
%ADD21C,1.778000*%
%ADD22RoundRect,0.200000X-0.450000X0.200000X-0.450000X-0.200000X0.450000X-0.200000X0.450000X0.200000X0*%
%ADD23R,1.700000X1.700000*%
%ADD24O,1.700000X1.700000*%
%ADD25C,0.889000*%
G04 APERTURE END LIST*
%LPC*%
D10*
%TO.C,U4*%
X25080000Y41240000D03*
D11*
X22540000Y41240000D03*
X20000000Y41240000D03*
X17460000Y41240000D03*
X14920000Y41240000D03*
X17460000Y10760000D03*
X20000000Y10760000D03*
X22540000Y10760000D03*
X25080000Y10760000D03*
%TD*%
D12*
%TO.C,J6*%
X63154988Y7885900D03*
D13*
X63154988Y9135900D03*
X63154988Y10385900D03*
X63154988Y11635900D03*
X63154988Y12885900D03*
X63154988Y14135900D03*
X63154988Y15385900D03*
X63154988Y16635900D03*
X63154988Y17885900D03*
%TD*%
D14*
%TO.C,TP4*%
X32224988Y30190900D03*
%TD*%
%TO.C,TP3*%
X32224988Y32730900D03*
%TD*%
D15*
%TO.C,H2*%
X4697056Y1302944D03*
X1302944Y4697056D03*
X3000000Y600000D03*
D16*
X3000000Y3000000D03*
D15*
X4697056Y4697056D03*
X1302944Y1302944D03*
X600000Y3000000D03*
X3000000Y5400000D03*
X5400000Y3000000D03*
%TD*%
D17*
%TO.C,J4*%
X10250000Y4025000D03*
D18*
X12750000Y4025000D03*
X15250000Y4025000D03*
X17750000Y4025000D03*
%TD*%
D14*
%TO.C,TP10*%
X8729988Y65496900D03*
%TD*%
D17*
%TO.C,J2*%
X24000000Y4025000D03*
D18*
X26500000Y4025000D03*
X29000000Y4025000D03*
X31500000Y4025000D03*
X34000000Y4025000D03*
X36500000Y4025000D03*
X39000000Y4025000D03*
X41500000Y4025000D03*
X44000000Y4025000D03*
%TD*%
D19*
%TO.C,U7*%
X39862500Y42912500D03*
X56087500Y10912500D03*
D20*
X35987500Y43012500D03*
D21*
X35987500Y40472500D03*
X35987500Y37932500D03*
X35987500Y35392500D03*
X35987500Y32852500D03*
X35987500Y30312500D03*
X35987500Y27772500D03*
%TD*%
D14*
%TO.C,TP5*%
X31843988Y10378900D03*
%TD*%
D22*
%TO.C,J5*%
X69874988Y17430900D03*
D13*
X69874988Y16180900D03*
X69874988Y14930900D03*
X69874988Y13680900D03*
X69874988Y12430900D03*
X69874988Y11180900D03*
X69874988Y9930900D03*
%TD*%
D14*
%TO.C,TP2*%
X8729988Y69941900D03*
%TD*%
D17*
%TO.C,J1*%
X50500000Y4025000D03*
D18*
X53000000Y4025000D03*
X55500000Y4025000D03*
%TD*%
D15*
%TO.C,H3*%
X73697056Y70302944D03*
X72000000Y69600000D03*
X69600000Y72000000D03*
X74400000Y72000000D03*
D16*
X72000000Y72000000D03*
D15*
X70302944Y70302944D03*
X72000000Y74400000D03*
X73697056Y73697056D03*
X70302944Y73697056D03*
%TD*%
D23*
%TO.C,J3*%
X3014988Y66766900D03*
D24*
X5554988Y66766900D03*
X3014988Y64226900D03*
X5554988Y64226900D03*
X3014988Y61686900D03*
X5554988Y61686900D03*
X3014988Y59146900D03*
X5554988Y59146900D03*
X3014988Y56606900D03*
X5554988Y56606900D03*
X3014988Y54066900D03*
X5554988Y54066900D03*
X3014988Y51526900D03*
X5554988Y51526900D03*
X3014988Y48986900D03*
X5554988Y48986900D03*
X3014988Y46446900D03*
X5554988Y46446900D03*
X3014988Y43906900D03*
X5554988Y43906900D03*
X3014988Y41366900D03*
X5554988Y41366900D03*
X3014988Y38826900D03*
X5554988Y38826900D03*
X3014988Y36286900D03*
X5554988Y36286900D03*
X3014988Y33746900D03*
X5554988Y33746900D03*
X3014988Y31206900D03*
X5554988Y31206900D03*
X3014988Y28666900D03*
X5554988Y28666900D03*
X3014988Y26126900D03*
X5554988Y26126900D03*
X3014988Y23586900D03*
X5554988Y23586900D03*
X3014988Y21046900D03*
X5554988Y21046900D03*
X3014988Y18506900D03*
X5554988Y18506900D03*
%TD*%
D15*
%TO.C,H4*%
X70302944Y4697056D03*
X69600000Y3000000D03*
X73697056Y1302944D03*
X73697056Y4697056D03*
X72000000Y600000D03*
X72000000Y5400000D03*
X74400000Y3000000D03*
X70302944Y1302944D03*
D16*
X72000000Y3000000D03*
%TD*%
%TO.C,H1*%
X3000000Y72000000D03*
D15*
X1302944Y70302944D03*
X4697056Y73697056D03*
X600000Y72000000D03*
X3000000Y74400000D03*
X3000000Y69600000D03*
X4697056Y70302944D03*
X1302944Y73697056D03*
X5400000Y72000000D03*
%TD*%
D14*
%TO.C,TP1*%
X63130000Y60210000D03*
%TD*%
D25*
X19080988Y37239900D03*
X8221988Y31079900D03*
X3014988Y8548900D03*
X46500000Y62626000D03*
X40379000Y69686000D03*
X57021000Y60997000D03*
X43452000Y62626000D03*
X21314988Y49011900D03*
X5974988Y8981900D03*
X62177000Y57187000D03*
X40379000Y68201000D03*
X60802500Y71890000D03*
X66120000Y40854635D03*
X56891500Y68200000D03*
X66120000Y27163635D03*
X59100000Y53651000D03*
X60002500Y66810000D03*
X55240500Y60549000D03*
X16464988Y48986900D03*
X58050000Y53751000D03*
X36034988Y20831900D03*
X58224500Y63724000D03*
X40379000Y66651000D03*
X44468000Y71248000D03*
X40379000Y71236000D03*
X71480000Y40854635D03*
X56154500Y71915000D03*
X58571000Y60972000D03*
X71480000Y27138635D03*
X47217000Y70010000D03*
X22191988Y66512900D03*
X36288988Y47970900D03*
X34764988Y47970900D03*
X14952988Y45430900D03*
X53306988Y55590900D03*
X14952988Y47716900D03*
X55510000Y54622000D03*
X30446988Y44083888D03*
X29000000Y42636900D03*
X31985000Y46714912D03*
X12750000Y8981900D03*
M02*
