%TF.GenerationSoftware,KiCad,Pcbnew,(6.0.1)*%
%TF.CreationDate,2023-01-07T23:02:53-08:00*%
%TF.ProjectId,Air Quality Sensor - R1,41697220-5175-4616-9c69-74792053656e,rev?*%
%TF.SameCoordinates,Original*%
%TF.FileFunction,Legend,Top*%
%TF.FilePolarity,Positive*%
%FSLAX46Y46*%
G04 Gerber Fmt 4.6, Leading zero omitted, Abs format (unit mm)*
G04 Created by KiCad (PCBNEW (6.0.1)) date 2023-01-07 23:02:53*
%MOMM*%
%LPD*%
G01*
G04 APERTURE LIST*
G04 Aperture macros list*
%AMRoundRect*
0 Rectangle with rounded corners*
0 $1 Rounding radius*
0 $2 $3 $4 $5 $6 $7 $8 $9 X,Y pos of 4 corners*
0 Add a 4 corners polygon primitive as box body*
4,1,4,$2,$3,$4,$5,$6,$7,$8,$9,$2,$3,0*
0 Add four circle primitives for the rounded corners*
1,1,$1+$1,$2,$3*
1,1,$1+$1,$4,$5*
1,1,$1+$1,$6,$7*
1,1,$1+$1,$8,$9*
0 Add four rect primitives between the rounded corners*
20,1,$1+$1,$2,$3,$4,$5,0*
20,1,$1+$1,$4,$5,$6,$7,0*
20,1,$1+$1,$6,$7,$8,$9,0*
20,1,$1+$1,$8,$9,$2,$3,0*%
%AMOutline4P*
0 Free polygon, 4 corners , with rotation*
0 The origin of the aperture is its center*
0 number of corners: always 4*
0 $1 to $8 corner X, Y*
0 $9 Rotation angle, in degrees counterclockwise*
0 create outline with 4 corners*
4,1,4,$1,$2,$3,$4,$5,$6,$7,$8,$1,$2,$9*%
%AMFreePoly0*
4,1,31,0.644127,0.901197,0.647663,0.899733,0.674733,0.872663,0.676197,0.869127,0.680000,0.850000,0.680000,-0.850000,0.676197,-0.869127,0.674733,-0.872663,0.647663,-0.899733,0.644127,-0.901197,0.625000,-0.905000,-0.625000,-0.905000,-0.644127,-0.901197,-0.647663,-0.899733,-0.674733,-0.872663,-0.676197,-0.869127,-0.680000,-0.850000,-0.680000,0.549998,-0.675515,0.549998,-0.676193,0.569138,
-0.674728,0.572674,-0.663891,0.588891,-0.363891,0.888890,-0.363891,0.888891,-0.347663,0.899733,-0.345895,0.900465,-0.344149,0.901189,-0.324998,0.900512,-0.324998,0.905000,0.625000,0.905000,0.644127,0.901197,0.644127,0.901197,$1*%
G04 Aperture macros list end*
%ADD10C,0.150000*%
%ADD11C,0.120000*%
%ADD12C,0.100000*%
%ADD13RoundRect,0.200000X0.275000X-0.200000X0.275000X0.200000X-0.275000X0.200000X-0.275000X-0.200000X0*%
%ADD14RoundRect,0.200000X0.200000X0.275000X-0.200000X0.275000X-0.200000X-0.275000X0.200000X-0.275000X0*%
%ADD15RoundRect,0.200000X-0.275000X0.200000X-0.275000X-0.200000X0.275000X-0.200000X0.275000X0.200000X0*%
%ADD16RoundRect,0.225000X-0.225000X-0.250000X0.225000X-0.250000X0.225000X0.250000X-0.225000X0.250000X0*%
%ADD17RoundRect,0.225000X0.225000X0.250000X-0.225000X0.250000X-0.225000X-0.250000X0.225000X-0.250000X0*%
%ADD18RoundRect,0.225000X-0.250000X0.225000X-0.250000X-0.225000X0.250000X-0.225000X0.250000X0.225000X0*%
%ADD19C,0.800000*%
%ADD20C,6.400000*%
%ADD21C,5.000000*%
%ADD22R,1.700000X1.700000*%
%ADD23O,1.700000X1.700000*%
%ADD24O,1.700000X1.950000*%
%ADD25RoundRect,0.250000X-0.600000X-0.725000X0.600000X-0.725000X0.600000X0.725000X-0.600000X0.725000X0*%
%ADD26C,1.200000*%
%ADD27FreePoly0,90.000000*%
%ADD28RoundRect,0.050000X0.200000X-0.275000X0.200000X0.275000X-0.200000X0.275000X-0.200000X-0.275000X0*%
%ADD29RoundRect,0.125000X-0.137500X0.125000X-0.137500X-0.125000X0.137500X-0.125000X0.137500X0.125000X0*%
%ADD30C,2.200000*%
%ADD31R,1.778000X1.778000*%
%ADD32C,1.778000*%
%ADD33R,4.000000X3.000000*%
%ADD34RoundRect,0.750000X-1.250000X-0.750000X1.250000X-0.750000X1.250000X0.750000X-1.250000X0.750000X0*%
%ADD35R,1.000000X0.300000*%
%ADD36Outline4P,-0.650000X-0.150000X0.650000X-0.150000X0.350000X0.150000X-0.350000X0.150000X180.000000*%
%ADD37R,1.300000X2.200000*%
%ADD38R,0.600000X0.400000*%
%ADD39RoundRect,0.100000X-0.750000X0.400000X-0.750000X-0.400000X0.750000X-0.400000X0.750000X0.400000X0*%
%ADD40RoundRect,0.100000X0.400000X0.750000X-0.400000X0.750000X-0.400000X-0.750000X0.400000X-0.750000X0*%
%ADD41RoundRect,0.100000X1.200000X1.200000X-1.200000X1.200000X-1.200000X-1.200000X1.200000X-1.200000X0*%
%ADD42C,1.905000*%
%ADD43R,1.905000X1.905000*%
%ADD44RoundRect,0.225000X0.250000X-0.225000X0.250000X0.225000X-0.250000X0.225000X-0.250000X-0.225000X0*%
%ADD45C,2.000000*%
%ADD46RoundRect,0.101600X0.400000X0.400000X-0.400000X0.400000X-0.400000X-0.400000X0.400000X-0.400000X0*%
%ADD47C,0.889000*%
G04 APERTURE END LIST*
D10*
%TO.C,R14*%
X6817130Y11069519D02*
X6483797Y11545709D01*
X6245702Y11069519D02*
X6245702Y12069519D01*
X6626654Y12069519D01*
X6721892Y12021900D01*
X6769511Y11974280D01*
X6817130Y11879042D01*
X6817130Y11736185D01*
X6769511Y11640947D01*
X6721892Y11593328D01*
X6626654Y11545709D01*
X6245702Y11545709D01*
X7769511Y11069519D02*
X7198083Y11069519D01*
X7483797Y11069519D02*
X7483797Y12069519D01*
X7388559Y11926661D01*
X7293321Y11831423D01*
X7198083Y11783804D01*
X8626654Y11736185D02*
X8626654Y11069519D01*
X8388559Y12117138D02*
X8150464Y11402852D01*
X8769511Y11402852D01*
%TO.C,R13*%
X5547130Y7259519D02*
X5213797Y7735709D01*
X4975702Y7259519D02*
X4975702Y8259519D01*
X5356654Y8259519D01*
X5451892Y8211900D01*
X5499511Y8164280D01*
X5547130Y8069042D01*
X5547130Y7926185D01*
X5499511Y7830947D01*
X5451892Y7783328D01*
X5356654Y7735709D01*
X4975702Y7735709D01*
X6499511Y7259519D02*
X5928083Y7259519D01*
X6213797Y7259519D02*
X6213797Y8259519D01*
X6118559Y8116661D01*
X6023321Y8021423D01*
X5928083Y7973804D01*
X6832845Y8259519D02*
X7451892Y8259519D01*
X7118559Y7878566D01*
X7261416Y7878566D01*
X7356654Y7830947D01*
X7404273Y7783328D01*
X7451892Y7688090D01*
X7451892Y7449995D01*
X7404273Y7354757D01*
X7356654Y7307138D01*
X7261416Y7259519D01*
X6975702Y7259519D01*
X6880464Y7307138D01*
X6832845Y7354757D01*
%TO.C,R12*%
X61092368Y5164042D02*
X60616178Y4830709D01*
X61092368Y4592614D02*
X60092368Y4592614D01*
X60092368Y4973566D01*
X60139988Y5068804D01*
X60187607Y5116423D01*
X60282845Y5164042D01*
X60425702Y5164042D01*
X60520940Y5116423D01*
X60568559Y5068804D01*
X60616178Y4973566D01*
X60616178Y4592614D01*
X61092368Y6116423D02*
X61092368Y5544995D01*
X61092368Y5830709D02*
X60092368Y5830709D01*
X60235226Y5735471D01*
X60330464Y5640233D01*
X60378083Y5544995D01*
X60187607Y6497376D02*
X60139988Y6544995D01*
X60092368Y6640233D01*
X60092368Y6878328D01*
X60139988Y6973566D01*
X60187607Y7021185D01*
X60282845Y7068804D01*
X60378083Y7068804D01*
X60520940Y7021185D01*
X61092368Y6449757D01*
X61092368Y7068804D01*
%TO.C,R9*%
X10452368Y35485233D02*
X9976178Y35151900D01*
X10452368Y34913804D02*
X9452368Y34913804D01*
X9452368Y35294757D01*
X9499988Y35389995D01*
X9547607Y35437614D01*
X9642845Y35485233D01*
X9785702Y35485233D01*
X9880940Y35437614D01*
X9928559Y35389995D01*
X9976178Y35294757D01*
X9976178Y34913804D01*
X10452368Y35961423D02*
X10452368Y36151900D01*
X10404749Y36247138D01*
X10357130Y36294757D01*
X10214273Y36389995D01*
X10023797Y36437614D01*
X9642845Y36437614D01*
X9547607Y36389995D01*
X9499988Y36342376D01*
X9452368Y36247138D01*
X9452368Y36056661D01*
X9499988Y35961423D01*
X9547607Y35913804D01*
X9642845Y35866185D01*
X9880940Y35866185D01*
X9976178Y35913804D01*
X10023797Y35961423D01*
X10071416Y36056661D01*
X10071416Y36247138D01*
X10023797Y36342376D01*
X9976178Y36389995D01*
X9880940Y36437614D01*
%TO.C,R8*%
X10452368Y45645233D02*
X9976178Y45311900D01*
X10452368Y45073804D02*
X9452368Y45073804D01*
X9452368Y45454757D01*
X9499988Y45549995D01*
X9547607Y45597614D01*
X9642845Y45645233D01*
X9785702Y45645233D01*
X9880940Y45597614D01*
X9928559Y45549995D01*
X9976178Y45454757D01*
X9976178Y45073804D01*
X9880940Y46216661D02*
X9833321Y46121423D01*
X9785702Y46073804D01*
X9690464Y46026185D01*
X9642845Y46026185D01*
X9547607Y46073804D01*
X9499988Y46121423D01*
X9452368Y46216661D01*
X9452368Y46407138D01*
X9499988Y46502376D01*
X9547607Y46549995D01*
X9642845Y46597614D01*
X9690464Y46597614D01*
X9785702Y46549995D01*
X9833321Y46502376D01*
X9880940Y46407138D01*
X9880940Y46216661D01*
X9928559Y46121423D01*
X9976178Y46073804D01*
X10071416Y46026185D01*
X10261892Y46026185D01*
X10357130Y46073804D01*
X10404749Y46121423D01*
X10452368Y46216661D01*
X10452368Y46407138D01*
X10404749Y46502376D01*
X10357130Y46549995D01*
X10261892Y46597614D01*
X10071416Y46597614D01*
X9976178Y46549995D01*
X9928559Y46502376D01*
X9880940Y46407138D01*
%TO.C,R7*%
X10612368Y51614233D02*
X10136178Y51280900D01*
X10612368Y51042804D02*
X9612368Y51042804D01*
X9612368Y51423757D01*
X9659988Y51518995D01*
X9707607Y51566614D01*
X9802845Y51614233D01*
X9945702Y51614233D01*
X10040940Y51566614D01*
X10088559Y51518995D01*
X10136178Y51423757D01*
X10136178Y51042804D01*
X9612368Y51947566D02*
X9612368Y52614233D01*
X10612368Y52185661D01*
%TO.C,R6*%
X7752368Y54916233D02*
X7276178Y54582900D01*
X7752368Y54344804D02*
X6752368Y54344804D01*
X6752368Y54725757D01*
X6799988Y54820995D01*
X6847607Y54868614D01*
X6942845Y54916233D01*
X7085702Y54916233D01*
X7180940Y54868614D01*
X7228559Y54820995D01*
X7276178Y54725757D01*
X7276178Y54344804D01*
X6752368Y55773376D02*
X6752368Y55582900D01*
X6799988Y55487661D01*
X6847607Y55440042D01*
X6990464Y55344804D01*
X7180940Y55297185D01*
X7561892Y55297185D01*
X7657130Y55344804D01*
X7704749Y55392423D01*
X7752368Y55487661D01*
X7752368Y55678138D01*
X7704749Y55773376D01*
X7657130Y55820995D01*
X7561892Y55868614D01*
X7323797Y55868614D01*
X7228559Y55820995D01*
X7180940Y55773376D01*
X7133321Y55678138D01*
X7133321Y55487661D01*
X7180940Y55392423D01*
X7228559Y55344804D01*
X7323797Y55297185D01*
%TO.C,R5*%
X37917368Y24055233D02*
X37441178Y23721900D01*
X37917368Y23483804D02*
X36917368Y23483804D01*
X36917368Y23864757D01*
X36964988Y23959995D01*
X37012607Y24007614D01*
X37107845Y24055233D01*
X37250702Y24055233D01*
X37345940Y24007614D01*
X37393559Y23959995D01*
X37441178Y23864757D01*
X37441178Y23483804D01*
X36917368Y24959995D02*
X36917368Y24483804D01*
X37393559Y24436185D01*
X37345940Y24483804D01*
X37298321Y24579042D01*
X37298321Y24817138D01*
X37345940Y24912376D01*
X37393559Y24959995D01*
X37488797Y25007614D01*
X37726892Y25007614D01*
X37822130Y24959995D01*
X37869749Y24912376D01*
X37917368Y24817138D01*
X37917368Y24579042D01*
X37869749Y24483804D01*
X37822130Y24436185D01*
%TO.C,C10*%
X23484642Y36564757D02*
X23437023Y36517138D01*
X23294166Y36469519D01*
X23198928Y36469519D01*
X23056071Y36517138D01*
X22960833Y36612376D01*
X22913214Y36707614D01*
X22865595Y36898090D01*
X22865595Y37040947D01*
X22913214Y37231423D01*
X22960833Y37326661D01*
X23056071Y37421900D01*
X23198928Y37469519D01*
X23294166Y37469519D01*
X23437023Y37421900D01*
X23484642Y37374280D01*
X24437023Y36469519D02*
X23865595Y36469519D01*
X24151309Y36469519D02*
X24151309Y37469519D01*
X24056071Y37326661D01*
X23960833Y37231423D01*
X23865595Y37183804D01*
X25056071Y37469519D02*
X25151309Y37469519D01*
X25246547Y37421900D01*
X25294166Y37374280D01*
X25341785Y37279042D01*
X25389404Y37088566D01*
X25389404Y36850471D01*
X25341785Y36659995D01*
X25294166Y36564757D01*
X25246547Y36517138D01*
X25151309Y36469519D01*
X25056071Y36469519D01*
X24960833Y36517138D01*
X24913214Y36564757D01*
X24865595Y36659995D01*
X24817976Y36850471D01*
X24817976Y37088566D01*
X24865595Y37279042D01*
X24913214Y37374280D01*
X24960833Y37421900D01*
X25056071Y37469519D01*
%TO.C,C9*%
X21263321Y14974757D02*
X21215702Y14927138D01*
X21072845Y14879519D01*
X20977607Y14879519D01*
X20834749Y14927138D01*
X20739511Y15022376D01*
X20691892Y15117614D01*
X20644273Y15308090D01*
X20644273Y15450947D01*
X20691892Y15641423D01*
X20739511Y15736661D01*
X20834749Y15831900D01*
X20977607Y15879519D01*
X21072845Y15879519D01*
X21215702Y15831900D01*
X21263321Y15784280D01*
X21739511Y14879519D02*
X21929988Y14879519D01*
X22025226Y14927138D01*
X22072845Y14974757D01*
X22168083Y15117614D01*
X22215702Y15308090D01*
X22215702Y15689042D01*
X22168083Y15784280D01*
X22120464Y15831900D01*
X22025226Y15879519D01*
X21834749Y15879519D01*
X21739511Y15831900D01*
X21691892Y15784280D01*
X21644273Y15689042D01*
X21644273Y15450947D01*
X21691892Y15355709D01*
X21739511Y15308090D01*
X21834749Y15260471D01*
X22025226Y15260471D01*
X22120464Y15308090D01*
X22168083Y15355709D01*
X22215702Y15450947D01*
%TO.C,C8*%
X18723321Y47199757D02*
X18675702Y47152138D01*
X18532845Y47104519D01*
X18437607Y47104519D01*
X18294749Y47152138D01*
X18199511Y47247376D01*
X18151892Y47342614D01*
X18104273Y47533090D01*
X18104273Y47675947D01*
X18151892Y47866423D01*
X18199511Y47961661D01*
X18294749Y48056900D01*
X18437607Y48104519D01*
X18532845Y48104519D01*
X18675702Y48056900D01*
X18723321Y48009280D01*
X19294749Y47675947D02*
X19199511Y47723566D01*
X19151892Y47771185D01*
X19104273Y47866423D01*
X19104273Y47914042D01*
X19151892Y48009280D01*
X19199511Y48056900D01*
X19294749Y48104519D01*
X19485226Y48104519D01*
X19580464Y48056900D01*
X19628083Y48009280D01*
X19675702Y47914042D01*
X19675702Y47866423D01*
X19628083Y47771185D01*
X19580464Y47723566D01*
X19485226Y47675947D01*
X19294749Y47675947D01*
X19199511Y47628328D01*
X19151892Y47580709D01*
X19104273Y47485471D01*
X19104273Y47294995D01*
X19151892Y47199757D01*
X19199511Y47152138D01*
X19294749Y47104519D01*
X19485226Y47104519D01*
X19580464Y47152138D01*
X19628083Y47199757D01*
X19675702Y47294995D01*
X19675702Y47485471D01*
X19628083Y47580709D01*
X19580464Y47628328D01*
X19485226Y47675947D01*
%TO.C,C7*%
X34647130Y41835233D02*
X34694749Y41787614D01*
X34742368Y41644757D01*
X34742368Y41549519D01*
X34694749Y41406661D01*
X34599511Y41311423D01*
X34504273Y41263804D01*
X34313797Y41216185D01*
X34170940Y41216185D01*
X33980464Y41263804D01*
X33885226Y41311423D01*
X33789988Y41406661D01*
X33742368Y41549519D01*
X33742368Y41644757D01*
X33789988Y41787614D01*
X33837607Y41835233D01*
X33742368Y42168566D02*
X33742368Y42835233D01*
X34742368Y42406661D01*
%TO.C,H4*%
X71238095Y6747619D02*
X71238095Y7747619D01*
X71238095Y7271428D02*
X71809523Y7271428D01*
X71809523Y6747619D02*
X71809523Y7747619D01*
X72714285Y7414285D02*
X72714285Y6747619D01*
X72476190Y7795238D02*
X72238095Y7080952D01*
X72857142Y7080952D01*
%TO.C,H3*%
X71238095Y75747619D02*
X71238095Y76747619D01*
X71238095Y76271428D02*
X71809523Y76271428D01*
X71809523Y75747619D02*
X71809523Y76747619D01*
X72190476Y76747619D02*
X72809523Y76747619D01*
X72476190Y76366666D01*
X72619047Y76366666D01*
X72714285Y76319047D01*
X72761904Y76271428D01*
X72809523Y76176190D01*
X72809523Y75938095D01*
X72761904Y75842857D01*
X72714285Y75795238D01*
X72619047Y75747619D01*
X72333333Y75747619D01*
X72238095Y75795238D01*
X72190476Y75842857D01*
%TO.C,H2*%
X2238095Y6747619D02*
X2238095Y7747619D01*
X2238095Y7271428D02*
X2809523Y7271428D01*
X2809523Y6747619D02*
X2809523Y7747619D01*
X3238095Y7652380D02*
X3285714Y7700000D01*
X3380952Y7747619D01*
X3619047Y7747619D01*
X3714285Y7700000D01*
X3761904Y7652380D01*
X3809523Y7557142D01*
X3809523Y7461904D01*
X3761904Y7319047D01*
X3190476Y6747619D01*
X3809523Y6747619D01*
%TO.C,H1*%
X2238095Y75747619D02*
X2238095Y76747619D01*
X2238095Y76271428D02*
X2809523Y76271428D01*
X2809523Y75747619D02*
X2809523Y76747619D01*
X3809523Y75747619D02*
X3238095Y75747619D01*
X3523809Y75747619D02*
X3523809Y76747619D01*
X3428571Y76604761D01*
X3333333Y76509523D01*
X3238095Y76461904D01*
%TO.C,*%
%TO.C,J3*%
X5934654Y69778519D02*
X5934654Y69064233D01*
X5887035Y68921376D01*
X5791797Y68826138D01*
X5648940Y68778519D01*
X5553702Y68778519D01*
X6315607Y69778519D02*
X6934654Y69778519D01*
X6601321Y69397566D01*
X6744178Y69397566D01*
X6839416Y69349947D01*
X6887035Y69302328D01*
X6934654Y69207090D01*
X6934654Y68968995D01*
X6887035Y68873757D01*
X6839416Y68826138D01*
X6744178Y68778519D01*
X6458464Y68778519D01*
X6363226Y68826138D01*
X6315607Y68873757D01*
%TO.C,*%
%TO.C,C3*%
X73151142Y22703333D02*
X73198761Y22655714D01*
X73246380Y22512857D01*
X73246380Y22417619D01*
X73198761Y22274761D01*
X73103523Y22179523D01*
X73008285Y22131904D01*
X72817809Y22084285D01*
X72674952Y22084285D01*
X72484476Y22131904D01*
X72389238Y22179523D01*
X72294000Y22274761D01*
X72246380Y22417619D01*
X72246380Y22512857D01*
X72294000Y22655714D01*
X72341619Y22703333D01*
X72246380Y23036666D02*
X72246380Y23655714D01*
X72627333Y23322380D01*
X72627333Y23465238D01*
X72674952Y23560476D01*
X72722571Y23608095D01*
X72817809Y23655714D01*
X73055904Y23655714D01*
X73151142Y23608095D01*
X73198761Y23560476D01*
X73246380Y23465238D01*
X73246380Y23179523D01*
X73198761Y23084285D01*
X73151142Y23036666D01*
%TO.C,J4*%
X13666666Y8122619D02*
X13666666Y7408333D01*
X13619047Y7265476D01*
X13523809Y7170238D01*
X13380952Y7122619D01*
X13285714Y7122619D01*
X14571428Y7789285D02*
X14571428Y7122619D01*
X14333333Y8170238D02*
X14095238Y7455952D01*
X14714285Y7455952D01*
%TO.C,C2*%
X60105642Y64865333D02*
X60153261Y64817714D01*
X60200880Y64674857D01*
X60200880Y64579619D01*
X60153261Y64436761D01*
X60058023Y64341523D01*
X59962785Y64293904D01*
X59772309Y64246285D01*
X59629452Y64246285D01*
X59438976Y64293904D01*
X59343738Y64341523D01*
X59248500Y64436761D01*
X59200880Y64579619D01*
X59200880Y64674857D01*
X59248500Y64817714D01*
X59296119Y64865333D01*
X59296119Y65246285D02*
X59248500Y65293904D01*
X59200880Y65389142D01*
X59200880Y65627238D01*
X59248500Y65722476D01*
X59296119Y65770095D01*
X59391357Y65817714D01*
X59486595Y65817714D01*
X59629452Y65770095D01*
X60200880Y65198666D01*
X60200880Y65817714D01*
%TO.C,C11*%
X57976222Y73056857D02*
X57928603Y73009238D01*
X57785746Y72961619D01*
X57690508Y72961619D01*
X57547651Y73009238D01*
X57452413Y73104476D01*
X57404794Y73199714D01*
X57357175Y73390190D01*
X57357175Y73533047D01*
X57404794Y73723523D01*
X57452413Y73818761D01*
X57547651Y73914000D01*
X57690508Y73961619D01*
X57785746Y73961619D01*
X57928603Y73914000D01*
X57976222Y73866380D01*
X58928603Y72961619D02*
X58357175Y72961619D01*
X58642889Y72961619D02*
X58642889Y73961619D01*
X58547651Y73818761D01*
X58452413Y73723523D01*
X58357175Y73675904D01*
X59880984Y72961619D02*
X59309556Y72961619D01*
X59595270Y72961619D02*
X59595270Y73961619D01*
X59500032Y73818761D01*
X59404794Y73723523D01*
X59309556Y73675904D01*
%TO.C,C1*%
X55343333Y59090857D02*
X55295714Y59043238D01*
X55152857Y58995619D01*
X55057619Y58995619D01*
X54914761Y59043238D01*
X54819523Y59138476D01*
X54771904Y59233714D01*
X54724285Y59424190D01*
X54724285Y59567047D01*
X54771904Y59757523D01*
X54819523Y59852761D01*
X54914761Y59948000D01*
X55057619Y59995619D01*
X55152857Y59995619D01*
X55295714Y59948000D01*
X55343333Y59900380D01*
X56295714Y58995619D02*
X55724285Y58995619D01*
X56010000Y58995619D02*
X56010000Y59995619D01*
X55914761Y59852761D01*
X55819523Y59757523D01*
X55724285Y59709904D01*
%TO.C,U2*%
X56406880Y69350095D02*
X57216404Y69350095D01*
X57311642Y69397714D01*
X57359261Y69445333D01*
X57406880Y69540571D01*
X57406880Y69731047D01*
X57359261Y69826285D01*
X57311642Y69873904D01*
X57216404Y69921523D01*
X56406880Y69921523D01*
X56502119Y70350095D02*
X56454500Y70397714D01*
X56406880Y70492952D01*
X56406880Y70731047D01*
X56454500Y70826285D01*
X56502119Y70873904D01*
X56597357Y70921523D01*
X56692595Y70921523D01*
X56835452Y70873904D01*
X57406880Y70302476D01*
X57406880Y70921523D01*
%TO.C,J2*%
X33666666Y8122619D02*
X33666666Y7408333D01*
X33619047Y7265476D01*
X33523809Y7170238D01*
X33380952Y7122619D01*
X33285714Y7122619D01*
X34095238Y8027380D02*
X34142857Y8075000D01*
X34238095Y8122619D01*
X34476190Y8122619D01*
X34571428Y8075000D01*
X34619047Y8027380D01*
X34666666Y7932142D01*
X34666666Y7836904D01*
X34619047Y7694047D01*
X34047619Y7122619D01*
X34666666Y7122619D01*
%TO.C,U5*%
X45698380Y71223095D02*
X46507904Y71223095D01*
X46603142Y71270714D01*
X46650761Y71318333D01*
X46698380Y71413571D01*
X46698380Y71604047D01*
X46650761Y71699285D01*
X46603142Y71746904D01*
X46507904Y71794523D01*
X45698380Y71794523D01*
X45698380Y72746904D02*
X45698380Y72270714D01*
X46174571Y72223095D01*
X46126952Y72270714D01*
X46079333Y72365952D01*
X46079333Y72604047D01*
X46126952Y72699285D01*
X46174571Y72746904D01*
X46269809Y72794523D01*
X46507904Y72794523D01*
X46603142Y72746904D01*
X46650761Y72699285D01*
X46698380Y72604047D01*
X46698380Y72365952D01*
X46650761Y72270714D01*
X46603142Y72223095D01*
%TO.C,U7*%
X60477904Y10714880D02*
X60477904Y11524404D01*
X60430285Y11619642D01*
X60382666Y11667261D01*
X60287428Y11714880D01*
X60096952Y11714880D01*
X60001714Y11667261D01*
X59954095Y11619642D01*
X59906476Y11524404D01*
X59906476Y10714880D01*
X59525523Y10714880D02*
X58858857Y10714880D01*
X59287428Y11714880D01*
%TO.C,U6*%
X16070380Y52594095D02*
X16879904Y52594095D01*
X16975142Y52641714D01*
X17022761Y52689333D01*
X17070380Y52784571D01*
X17070380Y52975047D01*
X17022761Y53070285D01*
X16975142Y53117904D01*
X16879904Y53165523D01*
X16070380Y53165523D01*
X16070380Y54070285D02*
X16070380Y53879809D01*
X16118000Y53784571D01*
X16165619Y53736952D01*
X16308476Y53641714D01*
X16498952Y53594095D01*
X16879904Y53594095D01*
X16975142Y53641714D01*
X17022761Y53689333D01*
X17070380Y53784571D01*
X17070380Y53975047D01*
X17022761Y54070285D01*
X16975142Y54117904D01*
X16879904Y54165523D01*
X16641809Y54165523D01*
X16546571Y54117904D01*
X16498952Y54070285D01*
X16451333Y53975047D01*
X16451333Y53784571D01*
X16498952Y53689333D01*
X16546571Y53641714D01*
X16641809Y53594095D01*
%TO.C,R4*%
X45428380Y64960333D02*
X44952190Y64627000D01*
X45428380Y64388904D02*
X44428380Y64388904D01*
X44428380Y64769857D01*
X44476000Y64865095D01*
X44523619Y64912714D01*
X44618857Y64960333D01*
X44761714Y64960333D01*
X44856952Y64912714D01*
X44904571Y64865095D01*
X44952190Y64769857D01*
X44952190Y64388904D01*
X44761714Y65817476D02*
X45428380Y65817476D01*
X44380761Y65579380D02*
X45095047Y65341285D01*
X45095047Y65960333D01*
%TO.C,R3*%
X42380380Y64198333D02*
X41904190Y63865000D01*
X42380380Y63626904D02*
X41380380Y63626904D01*
X41380380Y64007857D01*
X41428000Y64103095D01*
X41475619Y64150714D01*
X41570857Y64198333D01*
X41713714Y64198333D01*
X41808952Y64150714D01*
X41856571Y64103095D01*
X41904190Y64007857D01*
X41904190Y63626904D01*
X41380380Y64531666D02*
X41380380Y65150714D01*
X41761333Y64817380D01*
X41761333Y64960238D01*
X41808952Y65055476D01*
X41856571Y65103095D01*
X41951809Y65150714D01*
X42189904Y65150714D01*
X42285142Y65103095D01*
X42332761Y65055476D01*
X42380380Y64960238D01*
X42380380Y64674523D01*
X42332761Y64579285D01*
X42285142Y64531666D01*
%TO.C,U1*%
X55764095Y54153619D02*
X55764095Y53344095D01*
X55811714Y53248857D01*
X55859333Y53201238D01*
X55954571Y53153619D01*
X56145047Y53153619D01*
X56240285Y53201238D01*
X56287904Y53248857D01*
X56335523Y53344095D01*
X56335523Y54153619D01*
X57335523Y53153619D02*
X56764095Y53153619D01*
X57049809Y53153619D02*
X57049809Y54153619D01*
X56954571Y54010761D01*
X56859333Y53915523D01*
X56764095Y53867904D01*
%TO.C,R1*%
X61185333Y53755619D02*
X60852000Y54231809D01*
X60613904Y53755619D02*
X60613904Y54755619D01*
X60994857Y54755619D01*
X61090095Y54708000D01*
X61137714Y54660380D01*
X61185333Y54565142D01*
X61185333Y54422285D01*
X61137714Y54327047D01*
X61090095Y54279428D01*
X60994857Y54231809D01*
X60613904Y54231809D01*
X62137714Y53755619D02*
X61566285Y53755619D01*
X61852000Y53755619D02*
X61852000Y54755619D01*
X61756761Y54612761D01*
X61661523Y54517523D01*
X61566285Y54469904D01*
%TO.C,U3*%
X61396095Y10321619D02*
X61396095Y9512095D01*
X61443714Y9416857D01*
X61491333Y9369238D01*
X61586571Y9321619D01*
X61777047Y9321619D01*
X61872285Y9369238D01*
X61919904Y9416857D01*
X61967523Y9512095D01*
X61967523Y10321619D01*
X62348476Y10321619D02*
X62967523Y10321619D01*
X62634190Y9940666D01*
X62777047Y9940666D01*
X62872285Y9893047D01*
X62919904Y9845428D01*
X62967523Y9750190D01*
X62967523Y9512095D01*
X62919904Y9416857D01*
X62872285Y9369238D01*
X62777047Y9321619D01*
X62491333Y9321619D01*
X62396095Y9369238D01*
X62348476Y9416857D01*
%TO.C,J1*%
X52666666Y8122619D02*
X52666666Y7408333D01*
X52619047Y7265476D01*
X52523809Y7170238D01*
X52380952Y7122619D01*
X52285714Y7122619D01*
X53666666Y7122619D02*
X53095238Y7122619D01*
X53380952Y7122619D02*
X53380952Y8122619D01*
X53285714Y7979761D01*
X53190476Y7884523D01*
X53095238Y7836904D01*
%TO.C,U4*%
X29016904Y10852380D02*
X29016904Y11661904D01*
X28969285Y11757142D01*
X28921666Y11804761D01*
X28826428Y11852380D01*
X28635952Y11852380D01*
X28540714Y11804761D01*
X28493095Y11757142D01*
X28445476Y11661904D01*
X28445476Y10852380D01*
X27540714Y11185714D02*
X27540714Y11852380D01*
X27778809Y10804761D02*
X28016904Y11519047D01*
X27397857Y11519047D01*
%TO.C,C5*%
X41015142Y64960333D02*
X41062761Y64912714D01*
X41110380Y64769857D01*
X41110380Y64674619D01*
X41062761Y64531761D01*
X40967523Y64436523D01*
X40872285Y64388904D01*
X40681809Y64341285D01*
X40538952Y64341285D01*
X40348476Y64388904D01*
X40253238Y64436523D01*
X40158000Y64531761D01*
X40110380Y64674619D01*
X40110380Y64769857D01*
X40158000Y64912714D01*
X40205619Y64960333D01*
X40110380Y65865095D02*
X40110380Y65388904D01*
X40586571Y65341285D01*
X40538952Y65388904D01*
X40491333Y65484142D01*
X40491333Y65722238D01*
X40538952Y65817476D01*
X40586571Y65865095D01*
X40681809Y65912714D01*
X40919904Y65912714D01*
X41015142Y65865095D01*
X41062761Y65817476D01*
X41110380Y65722238D01*
X41110380Y65484142D01*
X41062761Y65388904D01*
X41015142Y65341285D01*
%TO.C,C6*%
X42031142Y72834333D02*
X42078761Y72786714D01*
X42126380Y72643857D01*
X42126380Y72548619D01*
X42078761Y72405761D01*
X41983523Y72310523D01*
X41888285Y72262904D01*
X41697809Y72215285D01*
X41554952Y72215285D01*
X41364476Y72262904D01*
X41269238Y72310523D01*
X41174000Y72405761D01*
X41126380Y72548619D01*
X41126380Y72643857D01*
X41174000Y72786714D01*
X41221619Y72834333D01*
X41126380Y73691476D02*
X41126380Y73501000D01*
X41174000Y73405761D01*
X41221619Y73358142D01*
X41364476Y73262904D01*
X41554952Y73215285D01*
X41935904Y73215285D01*
X42031142Y73262904D01*
X42078761Y73310523D01*
X42126380Y73405761D01*
X42126380Y73596238D01*
X42078761Y73691476D01*
X42031142Y73739095D01*
X41935904Y73786714D01*
X41697809Y73786714D01*
X41602571Y73739095D01*
X41554952Y73691476D01*
X41507333Y73596238D01*
X41507333Y73405761D01*
X41554952Y73310523D01*
X41602571Y73262904D01*
X41697809Y73215285D01*
%TO.C,TP1*%
X64832380Y58948095D02*
X64832380Y59519523D01*
X65832380Y59233809D02*
X64832380Y59233809D01*
X65832380Y59852857D02*
X64832380Y59852857D01*
X64832380Y60233809D01*
X64880000Y60329047D01*
X64927619Y60376666D01*
X65022857Y60424285D01*
X65165714Y60424285D01*
X65260952Y60376666D01*
X65308571Y60329047D01*
X65356190Y60233809D01*
X65356190Y59852857D01*
X65832380Y61376666D02*
X65832380Y60805238D01*
X65832380Y61090952D02*
X64832380Y61090952D01*
X64975238Y60995714D01*
X65070476Y60900476D01*
X65118095Y60805238D01*
%TO.C,D1*%
X60752368Y1697495D02*
X59752368Y1697495D01*
X59752368Y1935590D01*
X59799988Y2078447D01*
X59895226Y2173685D01*
X59990464Y2221304D01*
X60180940Y2268923D01*
X60323797Y2268923D01*
X60514273Y2221304D01*
X60609511Y2173685D01*
X60704749Y2078447D01*
X60752368Y1935590D01*
X60752368Y1697495D01*
X60752368Y3221304D02*
X60752368Y2649876D01*
X60752368Y2935590D02*
X59752368Y2935590D01*
X59895226Y2840352D01*
X59990464Y2745114D01*
X60038083Y2649876D01*
%TO.C,R2*%
X54262880Y58008333D02*
X53786690Y57675000D01*
X54262880Y57436904D02*
X53262880Y57436904D01*
X53262880Y57817857D01*
X53310500Y57913095D01*
X53358119Y57960714D01*
X53453357Y58008333D01*
X53596214Y58008333D01*
X53691452Y57960714D01*
X53739071Y57913095D01*
X53786690Y57817857D01*
X53786690Y57436904D01*
X53358119Y58389285D02*
X53310500Y58436904D01*
X53262880Y58532142D01*
X53262880Y58770238D01*
X53310500Y58865476D01*
X53358119Y58913095D01*
X53453357Y58960714D01*
X53548595Y58960714D01*
X53691452Y58913095D01*
X54262880Y58341666D01*
X54262880Y58960714D01*
%TO.C,C4*%
X70595333Y7780857D02*
X70547714Y7733238D01*
X70404857Y7685619D01*
X70309619Y7685619D01*
X70166761Y7733238D01*
X70071523Y7828476D01*
X70023904Y7923714D01*
X69976285Y8114190D01*
X69976285Y8257047D01*
X70023904Y8447523D01*
X70071523Y8542761D01*
X70166761Y8638000D01*
X70309619Y8685619D01*
X70404857Y8685619D01*
X70547714Y8638000D01*
X70595333Y8590380D01*
X71452476Y8352285D02*
X71452476Y7685619D01*
X71214380Y8733238D02*
X70976285Y8018952D01*
X71595333Y8018952D01*
D11*
%TO.C,R14*%
X10522488Y11284642D02*
X10522488Y11759158D01*
X9477488Y11284642D02*
X9477488Y11759158D01*
%TO.C,R13*%
X9602246Y8459400D02*
X9127730Y8459400D01*
X9602246Y9504400D02*
X9127730Y9504400D01*
%TO.C,R12*%
X62592488Y5569642D02*
X62592488Y6044158D01*
X61547488Y5569642D02*
X61547488Y6044158D01*
%TO.C,R9*%
X10522488Y38144642D02*
X10522488Y38619158D01*
X9477488Y38144642D02*
X9477488Y38619158D01*
%TO.C,R8*%
X9477488Y43319158D02*
X9477488Y42844642D01*
X10522488Y43319158D02*
X10522488Y42844642D01*
%TO.C,R7*%
X8207488Y52018158D02*
X8207488Y51543642D01*
X9252488Y52018158D02*
X9252488Y51543642D01*
%TO.C,R6*%
X9252488Y54845642D02*
X9252488Y55320158D01*
X8207488Y54845642D02*
X8207488Y55320158D01*
%TO.C,R5*%
X35512488Y24459158D02*
X35512488Y23984642D01*
X36557488Y24459158D02*
X36557488Y23984642D01*
%TO.C,C10*%
X23986920Y38316900D02*
X24268080Y38316900D01*
X23986920Y39336900D02*
X24268080Y39336900D01*
%TO.C,C9*%
X21570568Y13936900D02*
X21289408Y13936900D01*
X21570568Y12916900D02*
X21289408Y12916900D01*
%TO.C,C8*%
X19030568Y49496900D02*
X18749408Y49496900D01*
X19030568Y48476900D02*
X18749408Y48476900D01*
%TO.C,C7*%
X32349988Y42142480D02*
X32349988Y41861320D01*
X33369988Y42142480D02*
X33369988Y41861320D01*
%TO.C,J3*%
X1684988Y17176900D02*
X6884988Y17176900D01*
X1684988Y65496900D02*
X4284988Y65496900D01*
X1684988Y66766900D02*
X1684988Y68096900D01*
X4284988Y68096900D02*
X6884988Y68096900D01*
X6884988Y68096900D02*
X6884988Y17176900D01*
X1684988Y65496900D02*
X1684988Y17176900D01*
X4284988Y65496900D02*
X4284988Y68096900D01*
X1684988Y68096900D02*
X3014988Y68096900D01*
%TO.C,C3*%
X68659420Y22290000D02*
X68940580Y22290000D01*
X68659420Y23310000D02*
X68940580Y23310000D01*
%TO.C,J4*%
X7700000Y6475000D02*
X7700000Y5725000D01*
X7400000Y6775000D02*
X7400000Y5525000D01*
X14000000Y1275000D02*
X9510000Y1275000D01*
X7700000Y5725000D02*
X9500000Y5725000D01*
X20300000Y4225000D02*
X19550000Y4225000D01*
X11000000Y6475000D02*
X11000000Y5725000D01*
X19550000Y4225000D02*
X19550000Y1275000D01*
X8650000Y6775000D02*
X7400000Y6775000D01*
X17000000Y5725000D02*
X17000000Y6475000D01*
X18500000Y5725000D02*
X20300000Y5725000D01*
X20300000Y5725000D02*
X20300000Y6475000D01*
X19550000Y1275000D02*
X14000000Y1275000D01*
X20310000Y6485000D02*
X7690000Y6485000D01*
X7700000Y4225000D02*
X8450000Y4225000D01*
X20310000Y515000D02*
X20310000Y6485000D01*
X8450000Y4225000D02*
X8450000Y2885000D01*
X9500000Y5725000D02*
X9500000Y6475000D01*
X7690000Y515000D02*
X20310000Y515000D01*
X20300000Y6475000D02*
X18500000Y6475000D01*
X9500000Y6475000D02*
X7700000Y6475000D01*
X18500000Y6475000D02*
X18500000Y5725000D01*
X11000000Y5725000D02*
X17000000Y5725000D01*
X17000000Y6475000D02*
X11000000Y6475000D01*
X7690000Y6485000D02*
X7690000Y515000D01*
%TO.C,C2*%
X58734500Y66188580D02*
X58734500Y65907420D01*
X57714500Y66188580D02*
X57714500Y65907420D01*
%TO.C,C11*%
X58619080Y71380000D02*
X58337920Y71380000D01*
X58619080Y72400000D02*
X58337920Y72400000D01*
%TO.C,C1*%
X57655420Y59958000D02*
X57936580Y59958000D01*
X57655420Y58938000D02*
X57936580Y58938000D01*
%TO.C,U2*%
X57920500Y70570000D02*
X57920500Y69130000D01*
X60560500Y70570000D02*
X60560500Y68130000D01*
%TO.C,J2*%
X23250000Y5725000D02*
X23250000Y6475000D01*
X21450000Y5725000D02*
X23250000Y5725000D01*
X23250000Y6475000D02*
X21450000Y6475000D01*
X21440000Y515000D02*
X46560000Y515000D01*
X44750000Y6475000D02*
X44750000Y5725000D01*
X22400000Y6775000D02*
X21150000Y6775000D01*
X43250000Y5725000D02*
X43250000Y6475000D01*
X43250000Y6475000D02*
X24750000Y6475000D01*
X45800000Y1275000D02*
X34000000Y1275000D01*
X21150000Y6775000D02*
X21150000Y5525000D01*
X24750000Y6475000D02*
X24750000Y5725000D01*
X46550000Y4225000D02*
X45800000Y4225000D01*
X46550000Y6475000D02*
X44750000Y6475000D01*
X34000000Y1275000D02*
X23260000Y1275000D01*
X22200000Y4225000D02*
X22200000Y2885000D01*
X46560000Y6485000D02*
X21440000Y6485000D01*
X21450000Y4225000D02*
X22200000Y4225000D01*
X46550000Y5725000D02*
X46550000Y6475000D01*
X44750000Y5725000D02*
X46550000Y5725000D01*
X24750000Y5725000D02*
X43250000Y5725000D01*
X45800000Y4225000D02*
X45800000Y1275000D01*
X21450000Y6475000D02*
X21450000Y5725000D01*
X21440000Y6485000D02*
X21440000Y515000D01*
X46560000Y515000D02*
X46560000Y6485000D01*
%TO.C,U5*%
X44468000Y70420000D02*
X42968000Y70420000D01*
X45968000Y67200000D02*
X42968000Y67200000D01*
D10*
%TO.C,U7*%
X34587500Y9412500D02*
X34587500Y44412500D01*
X34587500Y44412500D02*
X57587500Y44412500D01*
X57587500Y44412500D02*
X57587500Y9412500D01*
X57587500Y9412500D02*
X34587500Y9412500D01*
%TO.C,U6*%
X31985000Y73930000D02*
X31985000Y69485000D01*
X31985000Y55515000D02*
X31985000Y51070000D01*
X18015000Y73930000D02*
X31985000Y73930000D01*
X18015000Y69485000D02*
X18015000Y73930000D01*
X31985000Y51070000D02*
X18015000Y51070000D01*
X18015000Y51070000D02*
X18015000Y55515000D01*
X21190000Y53610000D02*
G75*
G03*
X21190000Y53610000I-635000J0D01*
G01*
X26419903Y70755000D02*
G75*
G03*
X26419903Y70755000I-1419903J0D01*
G01*
D11*
%TO.C,R4*%
X45977500Y64762742D02*
X45977500Y65237258D01*
X47022500Y64762742D02*
X47022500Y65237258D01*
%TO.C,R3*%
X43974500Y64762742D02*
X43974500Y65237258D01*
X42929500Y64762742D02*
X42929500Y65237258D01*
D12*
%TO.C,U1*%
X56650000Y54350000D02*
X56650000Y54830000D01*
X59450000Y58450000D02*
X58810000Y58450000D01*
X57290000Y54350000D02*
X56650000Y54350000D01*
X56650000Y57970000D02*
X56650000Y58450000D01*
X57290000Y58450000D02*
X56650000Y58450000D01*
X59450000Y54350000D02*
X58810000Y54350000D01*
X59450000Y57970000D02*
X59450000Y58450000D01*
D11*
%TO.C,R1*%
X61589258Y55115500D02*
X61114742Y55115500D01*
X61589258Y56160500D02*
X61114742Y56160500D01*
%TO.C,U3*%
X63050000Y10600000D02*
X61600000Y10600000D01*
X61600000Y21000000D02*
X61600000Y19550000D01*
X70550000Y10600000D02*
X72600000Y10600000D01*
X63050000Y21000000D02*
X61600000Y21000000D01*
X70550000Y21000000D02*
X72000000Y21000000D01*
X72000000Y21000000D02*
X72000000Y19550000D01*
X61600000Y10600000D02*
X61600000Y12050000D01*
%TO.C,J1*%
X54750000Y5725000D02*
X54750000Y6475000D01*
X47950000Y5725000D02*
X49750000Y5725000D01*
X56250000Y5725000D02*
X58050000Y5725000D01*
X49750000Y6475000D02*
X47950000Y6475000D01*
X58050000Y4225000D02*
X57300000Y4225000D01*
X47940000Y515000D02*
X58060000Y515000D01*
X47650000Y6775000D02*
X47650000Y5525000D01*
X47940000Y6485000D02*
X47940000Y515000D01*
X56250000Y6475000D02*
X56250000Y5725000D01*
X48900000Y6775000D02*
X47650000Y6775000D01*
X49750000Y5725000D02*
X49750000Y6475000D01*
X47950000Y4225000D02*
X48700000Y4225000D01*
X58050000Y5725000D02*
X58050000Y6475000D01*
X51250000Y6475000D02*
X51250000Y5725000D01*
X54750000Y6475000D02*
X51250000Y6475000D01*
X58060000Y6485000D02*
X47940000Y6485000D01*
X47950000Y6475000D02*
X47950000Y5725000D01*
X48700000Y4225000D02*
X48700000Y2885000D01*
X57300000Y4225000D02*
X57300000Y1275000D01*
X57300000Y1275000D02*
X53000000Y1275000D01*
X58060000Y515000D02*
X58060000Y6485000D01*
X51250000Y5725000D02*
X54750000Y5725000D01*
X53000000Y1275000D02*
X49760000Y1275000D01*
X58050000Y6475000D02*
X56250000Y6475000D01*
D10*
%TO.C,U4*%
X11570000Y13300000D02*
X16260000Y13300000D01*
X28430000Y38700000D02*
X26280000Y38700000D01*
X26280000Y13300000D02*
X28430000Y13300000D01*
X16260000Y9500000D02*
X26280000Y9500000D01*
X11570000Y38700000D02*
X11570000Y13300000D01*
X13720000Y42500000D02*
X13720000Y38700000D01*
X26280000Y38700000D02*
X26280000Y42500000D01*
X26280000Y9500000D02*
X26280000Y13300000D01*
X28430000Y13300000D02*
X28430000Y38700000D01*
X26280000Y42500000D02*
X13720000Y42500000D01*
X13720000Y38700000D02*
X11570000Y38700000D01*
X16260000Y13300000D02*
X16260000Y9500000D01*
D11*
%TO.C,C5*%
X42438000Y67566580D02*
X42438000Y67285420D01*
X41418000Y67566580D02*
X41418000Y67285420D01*
%TO.C,C6*%
X42438000Y70320420D02*
X42438000Y70601580D01*
X41418000Y70320420D02*
X41418000Y70601580D01*
%TO.C,TP1*%
X64381000Y60210000D02*
G75*
G03*
X64381000Y60210000I-1251000J0D01*
G01*
%TO.C,D1*%
G36*
X62194988Y2381900D02*
G01*
X61944988Y2381900D01*
X61944988Y2631900D01*
X62194988Y2631900D01*
X62194988Y2381900D01*
G37*
D10*
X61434988Y1234900D02*
X61434988Y1996900D01*
X62704988Y1234900D02*
X61434988Y1234900D01*
X62704988Y1996900D02*
X62704988Y1234900D01*
D11*
%TO.C,R2*%
X54718000Y57937742D02*
X54718000Y58412258D01*
X55763000Y57937742D02*
X55763000Y58412258D01*
%TO.C,C4*%
X68659420Y9594000D02*
X68940580Y9594000D01*
X68659420Y8574000D02*
X68940580Y8574000D01*
%TD*%
%LPC*%
D13*
%TO.C,R14*%
X9999988Y10696900D03*
X9999988Y12346900D03*
%TD*%
D14*
%TO.C,R13*%
X8539988Y8981900D03*
X10189988Y8981900D03*
%TD*%
D13*
%TO.C,R12*%
X62069988Y4981900D03*
X62069988Y6631900D03*
%TD*%
%TO.C,R9*%
X9999988Y37556900D03*
X9999988Y39206900D03*
%TD*%
D15*
%TO.C,R8*%
X9999988Y43906900D03*
X9999988Y42256900D03*
%TD*%
%TO.C,R7*%
X8729988Y52605900D03*
X8729988Y50955900D03*
%TD*%
D13*
%TO.C,R6*%
X8729988Y54257900D03*
X8729988Y55907900D03*
%TD*%
D15*
%TO.C,R5*%
X36034988Y25046900D03*
X36034988Y23396900D03*
%TD*%
D16*
%TO.C,C10*%
X23352500Y38826900D03*
X24902500Y38826900D03*
%TD*%
D17*
%TO.C,C9*%
X22204988Y13426900D03*
X20654988Y13426900D03*
%TD*%
%TO.C,C8*%
X19664988Y48986900D03*
X18114988Y48986900D03*
%TD*%
D18*
%TO.C,C7*%
X32859988Y42776900D03*
X32859988Y41226900D03*
%TD*%
D19*
%TO.C,H4*%
X72000000Y5400000D03*
X73697056Y1302944D03*
X73697056Y4697056D03*
X74400000Y3000000D03*
D20*
X72000000Y3000000D03*
D19*
X72000000Y600000D03*
X70302944Y4697056D03*
X70302944Y1302944D03*
X69600000Y3000000D03*
%TD*%
%TO.C,H3*%
X72000000Y74400000D03*
X73697056Y70302944D03*
X73697056Y73697056D03*
X74400000Y72000000D03*
D20*
X72000000Y72000000D03*
D19*
X72000000Y69600000D03*
X70302944Y73697056D03*
X70302944Y70302944D03*
X69600000Y72000000D03*
%TD*%
%TO.C,H2*%
X3000000Y5400000D03*
X4697056Y1302944D03*
X4697056Y4697056D03*
X5400000Y3000000D03*
D20*
X3000000Y3000000D03*
D19*
X3000000Y600000D03*
X1302944Y4697056D03*
X1302944Y1302944D03*
X600000Y3000000D03*
%TD*%
%TO.C,H1*%
X3000000Y74400000D03*
X4697056Y70302944D03*
X4697056Y73697056D03*
X5400000Y72000000D03*
D20*
X3000000Y72000000D03*
D19*
X3000000Y69600000D03*
X1302944Y73697056D03*
X1302944Y70302944D03*
X600000Y72000000D03*
%TD*%
D21*
%TO.C,*%
X72000000Y72000000D03*
%TD*%
D22*
%TO.C,J3*%
X3014988Y66766900D03*
D23*
X5554988Y66766900D03*
X3014988Y64226900D03*
X5554988Y64226900D03*
X3014988Y61686900D03*
X5554988Y61686900D03*
X3014988Y59146900D03*
X5554988Y59146900D03*
X3014988Y56606900D03*
X5554988Y56606900D03*
X3014988Y54066900D03*
X5554988Y54066900D03*
X3014988Y51526900D03*
X5554988Y51526900D03*
X3014988Y48986900D03*
X5554988Y48986900D03*
X3014988Y46446900D03*
X5554988Y46446900D03*
X3014988Y43906900D03*
X5554988Y43906900D03*
X3014988Y41366900D03*
X5554988Y41366900D03*
X3014988Y38826900D03*
X5554988Y38826900D03*
X3014988Y36286900D03*
X5554988Y36286900D03*
X3014988Y33746900D03*
X5554988Y33746900D03*
X3014988Y31206900D03*
X5554988Y31206900D03*
X3014988Y28666900D03*
X5554988Y28666900D03*
X3014988Y26126900D03*
X5554988Y26126900D03*
X3014988Y23586900D03*
X5554988Y23586900D03*
X3014988Y21046900D03*
X5554988Y21046900D03*
X3014988Y18506900D03*
X5554988Y18506900D03*
%TD*%
D21*
%TO.C,*%
X72000000Y72000000D03*
%TD*%
%TO.C,*%
X3000000Y72000000D03*
%TD*%
D16*
%TO.C,C3*%
X69575000Y22800000D03*
X68025000Y22800000D03*
%TD*%
D24*
%TO.C,J4*%
X17750000Y4025000D03*
X15250000Y4025000D03*
X12750000Y4025000D03*
D25*
X10250000Y4025000D03*
D26*
X8650000Y2025000D03*
%TD*%
D18*
%TO.C,C2*%
X58224500Y65273000D03*
X58224500Y66823000D03*
%TD*%
D17*
%TO.C,C11*%
X57703500Y71890000D03*
X59253500Y71890000D03*
%TD*%
D16*
%TO.C,C1*%
X58571000Y59448000D03*
X57021000Y59448000D03*
%TD*%
D27*
%TO.C,U2*%
X59240500Y69350000D03*
D28*
X58440500Y70500000D03*
X59240500Y70500000D03*
X60040500Y70500000D03*
X60040500Y68200000D03*
X59240500Y68200000D03*
X58440500Y68200000D03*
%TD*%
D24*
%TO.C,J2*%
X44000000Y4025000D03*
X41500000Y4025000D03*
X39000000Y4025000D03*
X36500000Y4025000D03*
X34000000Y4025000D03*
X31500000Y4025000D03*
X29000000Y4025000D03*
X26500000Y4025000D03*
D25*
X24000000Y4025000D03*
D26*
X22400000Y2025000D03*
%TD*%
D29*
%TO.C,U5*%
X43280500Y70010000D03*
X43280500Y69210000D03*
X43280500Y68410000D03*
X43280500Y67610000D03*
X45655500Y67610000D03*
X45655500Y68410000D03*
X45655500Y69210000D03*
X45655500Y70010000D03*
%TD*%
D30*
%TO.C,U7*%
X39862500Y42912500D03*
X56087500Y10912500D03*
D31*
X35987500Y43012500D03*
D32*
X35987500Y40472500D03*
X35987500Y37932500D03*
X35987500Y35392500D03*
X35987500Y32852500D03*
X35987500Y30312500D03*
X35987500Y27772500D03*
%TD*%
D33*
%TO.C,U6*%
X18015000Y67580000D03*
D34*
X18015000Y62500000D03*
X18015000Y57420000D03*
X31985000Y57420000D03*
X31985000Y62500000D03*
X31985000Y67580000D03*
%TD*%
D13*
%TO.C,R4*%
X46500000Y65825000D03*
X46500000Y64175000D03*
%TD*%
%TO.C,R3*%
X43452000Y65825000D03*
X43452000Y64175000D03*
%TD*%
D35*
%TO.C,U1*%
X57900000Y55300000D03*
D36*
X58050000Y55300000D03*
D37*
X58050000Y56550000D03*
D38*
X57000000Y55200000D03*
X57000000Y55800000D03*
X57000000Y56400000D03*
X57000000Y57000000D03*
X57000000Y57600000D03*
X59100000Y57600000D03*
X59100000Y57000000D03*
X59100000Y56400000D03*
X59100000Y55800000D03*
X59100000Y55200000D03*
%TD*%
D14*
%TO.C,R1*%
X60527000Y55638000D03*
X62177000Y55638000D03*
%TD*%
D39*
%TO.C,U3*%
X71100000Y13300000D03*
X71100000Y14550000D03*
X71100000Y15800000D03*
X71100000Y17050000D03*
X71100000Y18300000D03*
D40*
X69300000Y20100000D03*
X68050000Y20100000D03*
X66800000Y20100000D03*
X65550000Y20100000D03*
X64300000Y20100000D03*
D39*
X62500000Y18300000D03*
X62500000Y17050000D03*
X62500000Y15800000D03*
X62500000Y14550000D03*
X62500000Y13300000D03*
D40*
X64300000Y11500000D03*
X65550000Y11500000D03*
X66800000Y11500000D03*
X68050000Y11500000D03*
X69300000Y11500000D03*
D41*
X68000000Y17000000D03*
X65600000Y14600000D03*
X68000000Y14600000D03*
X65600000Y17000000D03*
%TD*%
D24*
%TO.C,J1*%
X55500000Y4025000D03*
X53000000Y4025000D03*
D25*
X50500000Y4025000D03*
D26*
X48900000Y2025000D03*
%TD*%
D42*
%TO.C,U4*%
X25080000Y10760000D03*
X22540000Y10760000D03*
X20000000Y10760000D03*
X17460000Y10760000D03*
X14920000Y41240000D03*
X17460000Y41240000D03*
X20000000Y41240000D03*
X22540000Y41240000D03*
D43*
X25080000Y41240000D03*
%TD*%
D18*
%TO.C,C5*%
X41928000Y66651000D03*
X41928000Y68201000D03*
%TD*%
D44*
%TO.C,C6*%
X41928000Y71236000D03*
X41928000Y69686000D03*
%TD*%
D45*
%TO.C,TP1*%
X63130000Y60210000D03*
%TD*%
D46*
%TO.C,D1*%
X62069988Y3381900D03*
X62069988Y1881900D03*
%TD*%
D13*
%TO.C,R2*%
X55240500Y59000000D03*
X55240500Y57350000D03*
%TD*%
D16*
%TO.C,C4*%
X69575000Y9084000D03*
X68025000Y9084000D03*
%TD*%
D47*
X44416988Y28412900D03*
X49750988Y21554900D03*
X56154500Y71915000D03*
X30446988Y44083888D03*
X31985000Y46714912D03*
X29000000Y42636900D03*
X53306988Y55590900D03*
X55510000Y54622000D03*
X36288988Y47970900D03*
X34764988Y47970900D03*
X14952988Y45430900D03*
X14952988Y47716900D03*
X16464988Y48986900D03*
X21314988Y49011900D03*
X8729988Y57557900D03*
X8729988Y49305900D03*
X12750000Y8981900D03*
X36034988Y20831900D03*
X5974988Y8981900D03*
X11649988Y42256900D03*
X46500000Y62626000D03*
X40379000Y69686000D03*
X57021000Y60997000D03*
X43452000Y62626000D03*
X62177000Y57187000D03*
X40379000Y68201000D03*
X60802500Y71890000D03*
X66120000Y22775000D03*
X56891500Y68200000D03*
X66120000Y9084000D03*
X59100000Y53651000D03*
X60002500Y66810000D03*
X55240500Y60549000D03*
X58050000Y53751000D03*
X58224500Y63724000D03*
X40379000Y66651000D03*
X44468000Y71248000D03*
X40379000Y71236000D03*
X71480000Y22775000D03*
X58571000Y60972000D03*
X71480000Y9059000D03*
X47217000Y70010000D03*
M02*
