%TF.GenerationSoftware,KiCad,Pcbnew,(6.0.1)*%
%TF.CreationDate,2023-02-05T21:11:55-08:00*%
%TF.ProjectId,ESP32 Carrier Protoboard - R1,45535033-3220-4436-9172-726965722050,rev?*%
%TF.SameCoordinates,Original*%
%TF.FileFunction,Copper,L1,Top*%
%TF.FilePolarity,Positive*%
%FSLAX46Y46*%
G04 Gerber Fmt 4.6, Leading zero omitted, Abs format (unit mm)*
G04 Created by KiCad (PCBNEW (6.0.1)) date 2023-02-05 21:11:55*
%MOMM*%
%LPD*%
G01*
G04 APERTURE LIST*
%TA.AperFunction,ComponentPad*%
%ADD10C,1.500000*%
%TD*%
%TA.AperFunction,ComponentPad*%
%ADD11C,1.651000*%
%TD*%
%TA.AperFunction,ComponentPad*%
%ADD12C,0.800000*%
%TD*%
%TA.AperFunction,ComponentPad*%
%ADD13C,5.000000*%
%TD*%
%TA.AperFunction,ComponentPad*%
%ADD14R,1.700000X1.700000*%
%TD*%
%TA.AperFunction,ComponentPad*%
%ADD15O,1.700000X1.700000*%
%TD*%
%TA.AperFunction,Conductor*%
%ADD16C,1.000000*%
%TD*%
%TA.AperFunction,Conductor*%
%ADD17C,0.250000*%
%TD*%
G04 APERTURE END LIST*
D10*
%TO.P,REF\u002A\u002A,1*%
%TO.N,N/C*%
X63974988Y-3153100D03*
%TD*%
%TO.P,REF\u002A\u002A,1*%
%TO.N,N/C*%
X58894988Y-3153100D03*
%TD*%
%TO.P,REF\u002A\u002A,1*%
%TO.N,N/C*%
X66514988Y-3153100D03*
%TD*%
%TO.P,REF\u002A\u002A,1*%
%TO.N,N/C*%
X61434988Y-3153100D03*
%TD*%
%TO.P,REF\u002A\u002A,1*%
%TO.N,N/C*%
X63974988Y-5693100D03*
%TD*%
%TO.P,REF\u002A\u002A,1*%
%TO.N,N/C*%
X58894988Y-5693100D03*
%TD*%
%TO.P,REF\u002A\u002A,1*%
%TO.N,N/C*%
X66514988Y-5693100D03*
%TD*%
%TO.P,REF\u002A\u002A,1*%
%TO.N,N/C*%
X61434988Y-5693100D03*
%TD*%
%TO.P,REF\u002A\u002A,1*%
%TO.N,N/C*%
X18218699Y-3121725D03*
%TD*%
%TO.P,REF\u002A\u002A,1*%
%TO.N,N/C*%
X23298699Y-3121725D03*
%TD*%
%TO.P,REF\u002A\u002A,1*%
%TO.N,N/C*%
X15678699Y-3121725D03*
%TD*%
%TO.P,REF\u002A\u002A,1*%
%TO.N,N/C*%
X20758699Y-3121725D03*
%TD*%
%TO.P,REF\u002A\u002A,1*%
%TO.N,N/C*%
X25838699Y-3121725D03*
%TD*%
%TO.P,REF\u002A\u002A,1*%
%TO.N,N/C*%
X18254988Y-5693100D03*
%TD*%
%TO.P,REF\u002A\u002A,1*%
%TO.N,N/C*%
X23334988Y-5693100D03*
%TD*%
%TO.P,REF\u002A\u002A,1*%
%TO.N,N/C*%
X15714988Y-5693100D03*
%TD*%
%TO.P,REF\u002A\u002A,1*%
%TO.N,N/C*%
X20794988Y-5693100D03*
%TD*%
%TO.P,REF\u002A\u002A,1*%
%TO.N,N/C*%
X25874988Y-5693100D03*
%TD*%
%TO.P,REF\u002A\u002A,1*%
%TO.N,N/C*%
X20758699Y-8212925D03*
%TD*%
%TO.P,REF\u002A\u002A,1*%
%TO.N,N/C*%
X23298699Y-8212925D03*
%TD*%
%TO.P,REF\u002A\u002A,1*%
%TO.N,N/C*%
X25838699Y-8212925D03*
%TD*%
%TO.P,REF\u002A\u002A,1*%
%TO.N,N/C*%
X20758699Y-10745127D03*
%TD*%
%TO.P,REF\u002A\u002A,1*%
%TO.N,N/C*%
X23298699Y-10745127D03*
%TD*%
%TO.P,REF\u002A\u002A,1*%
%TO.N,N/C*%
X25838699Y-10745127D03*
%TD*%
%TO.P,REF\u002A\u002A,1*%
%TO.N,N/C*%
X20794988Y-13313100D03*
%TD*%
%TO.P,REF\u002A\u002A,1*%
%TO.N,N/C*%
X23334988Y-13313100D03*
%TD*%
%TO.P,REF\u002A\u002A,1*%
%TO.N,N/C*%
X25874988Y-13313100D03*
%TD*%
%TO.P,REF\u002A\u002A,1*%
%TO.N,N/C*%
X20794988Y-48873100D03*
%TD*%
%TO.P,REF\u002A\u002A,1*%
%TO.N,N/C*%
X23334988Y-48873100D03*
%TD*%
%TO.P,REF\u002A\u002A,1*%
%TO.N,N/C*%
X25874988Y-48873100D03*
%TD*%
%TO.P,REF\u002A\u002A,1*%
%TO.N,N/C*%
X20794988Y-51413100D03*
%TD*%
%TO.P,REF\u002A\u002A,1*%
%TO.N,N/C*%
X23334988Y-51413100D03*
%TD*%
%TO.P,REF\u002A\u002A,1*%
%TO.N,N/C*%
X25874988Y-51413100D03*
%TD*%
%TO.P,REF\u002A\u002A,1*%
%TO.N,N/C*%
X20794988Y-53953100D03*
%TD*%
%TO.P,REF\u002A\u002A,1*%
%TO.N,N/C*%
X23334988Y-53953100D03*
%TD*%
%TO.P,REF\u002A\u002A,1*%
%TO.N,N/C*%
X25874988Y-53953100D03*
%TD*%
%TO.P,REF\u002A\u002A,1*%
%TO.N,N/C*%
X20794988Y-56493100D03*
%TD*%
%TO.P,REF\u002A\u002A,1*%
%TO.N,N/C*%
X23334988Y-56493100D03*
%TD*%
%TO.P,REF\u002A\u002A,1*%
%TO.N,N/C*%
X25874988Y-56493100D03*
%TD*%
%TO.P,REF\u002A\u002A,1*%
%TO.N,N/C*%
X10634988Y-61573100D03*
%TD*%
%TO.P,REF\u002A\u002A,1*%
%TO.N,N/C*%
X8094988Y-61573100D03*
%TD*%
%TO.P,REF\u002A\u002A,1*%
%TO.N,N/C*%
X5554988Y-61573100D03*
%TD*%
%TO.P,REF\u002A\u002A,1*%
%TO.N,N/C*%
X3014988Y-61573100D03*
%TD*%
%TO.P,REF\u002A\u002A,1*%
%TO.N,N/C*%
X13174988Y-61573100D03*
%TD*%
%TO.P,REF\u002A\u002A,1*%
%TO.N,N/C*%
X10634988Y-64113100D03*
%TD*%
%TO.P,REF\u002A\u002A,1*%
%TO.N,N/C*%
X8094988Y-64113100D03*
%TD*%
%TO.P,REF\u002A\u002A,1*%
%TO.N,N/C*%
X5554988Y-64113100D03*
%TD*%
%TO.P,REF\u002A\u002A,1*%
%TO.N,N/C*%
X3014988Y-64113100D03*
%TD*%
%TO.P,REF\u002A\u002A,1*%
%TO.N,N/C*%
X13174988Y-64113100D03*
%TD*%
%TO.P,REF\u002A\u002A,1*%
%TO.N,N/C*%
X23303165Y-58950754D03*
%TD*%
%TO.P,REF\u002A\u002A,1*%
%TO.N,N/C*%
X20763165Y-58950754D03*
%TD*%
%TO.P,REF\u002A\u002A,1*%
%TO.N,N/C*%
X18223165Y-58950754D03*
%TD*%
%TO.P,REF\u002A\u002A,1*%
%TO.N,N/C*%
X15683165Y-58950754D03*
%TD*%
%TO.P,REF\u002A\u002A,1*%
%TO.N,N/C*%
X25843165Y-58950754D03*
%TD*%
%TO.P,REF\u002A\u002A,1*%
%TO.N,N/C*%
X23334988Y-61573100D03*
%TD*%
%TO.P,REF\u002A\u002A,1*%
%TO.N,N/C*%
X20794988Y-61573100D03*
%TD*%
%TO.P,REF\u002A\u002A,1*%
%TO.N,N/C*%
X18254988Y-61573100D03*
%TD*%
%TO.P,REF\u002A\u002A,1*%
%TO.N,N/C*%
X15714988Y-61573100D03*
%TD*%
%TO.P,REF\u002A\u002A,1*%
%TO.N,N/C*%
X25874988Y-61573100D03*
%TD*%
%TO.P,REF\u002A\u002A,1*%
%TO.N,N/C*%
X23334988Y-64113100D03*
%TD*%
%TO.P,REF\u002A\u002A,1*%
%TO.N,N/C*%
X20794988Y-64113100D03*
%TD*%
%TO.P,REF\u002A\u002A,1*%
%TO.N,N/C*%
X18254988Y-64113100D03*
%TD*%
%TO.P,REF\u002A\u002A,1*%
%TO.N,N/C*%
X15714988Y-64113100D03*
%TD*%
%TO.P,REF\u002A\u002A,1*%
%TO.N,N/C*%
X25874988Y-64113100D03*
%TD*%
%TO.P,REF\u002A\u002A,1*%
%TO.N,N/C*%
X56354988Y-3153100D03*
%TD*%
%TO.P,REF\u002A\u002A,1*%
%TO.N,N/C*%
X43654988Y-3153100D03*
%TD*%
%TO.P,REF\u002A\u002A,1*%
%TO.N,N/C*%
X46194988Y-5693100D03*
%TD*%
%TO.P,REF\u002A\u002A,1*%
%TO.N,N/C*%
X43654988Y-5693100D03*
%TD*%
%TO.P,REF\u002A\u002A,1*%
%TO.N,N/C*%
X46194988Y-3153100D03*
%TD*%
%TO.P,REF\u002A\u002A,1*%
%TO.N,N/C*%
X48734988Y-5693100D03*
%TD*%
%TO.P,REF\u002A\u002A,1*%
%TO.N,N/C*%
X51274988Y-3153100D03*
%TD*%
%TO.P,REF\u002A\u002A,1*%
%TO.N,N/C*%
X48734988Y-3153100D03*
%TD*%
%TO.P,REF\u002A\u002A,1*%
%TO.N,N/C*%
X53814988Y-5693100D03*
%TD*%
%TO.P,REF\u002A\u002A,1*%
%TO.N,N/C*%
X51274988Y-5693100D03*
%TD*%
%TO.P,REF\u002A\u002A,1*%
%TO.N,N/C*%
X56354988Y-5693100D03*
%TD*%
%TO.P,REF\u002A\u002A,1*%
%TO.N,N/C*%
X53814988Y-3153100D03*
%TD*%
%TO.P,REF\u002A\u002A,1*%
%TO.N,N/C*%
X30954988Y-3153100D03*
%TD*%
%TO.P,REF\u002A\u002A,1*%
%TO.N,N/C*%
X33494988Y-5693100D03*
%TD*%
%TO.P,REF\u002A\u002A,1*%
%TO.N,N/C*%
X41114988Y-3153100D03*
%TD*%
%TO.P,REF\u002A\u002A,1*%
%TO.N,N/C*%
X30954988Y-5693100D03*
%TD*%
%TO.P,REF\u002A\u002A,1*%
%TO.N,N/C*%
X38574988Y-5693100D03*
%TD*%
%TO.P,REF\u002A\u002A,1*%
%TO.N,N/C*%
X33494988Y-3153100D03*
%TD*%
%TO.P,REF\u002A\u002A,1*%
%TO.N,N/C*%
X28414988Y-3153100D03*
%TD*%
%TO.P,REF\u002A\u002A,1*%
%TO.N,N/C*%
X28414988Y-5693100D03*
%TD*%
%TO.P,REF\u002A\u002A,1*%
%TO.N,N/C*%
X36034988Y-3153100D03*
%TD*%
%TO.P,REF\u002A\u002A,1*%
%TO.N,N/C*%
X41114988Y-5693100D03*
%TD*%
%TO.P,REF\u002A\u002A,1*%
%TO.N,N/C*%
X38574988Y-3153100D03*
%TD*%
%TO.P,REF\u002A\u002A,1*%
%TO.N,N/C*%
X36034988Y-5693100D03*
%TD*%
%TO.P,REF\u002A\u002A,1*%
%TO.N,N/C*%
X33494988Y-64113100D03*
%TD*%
%TO.P,REF\u002A\u002A,1*%
%TO.N,N/C*%
X36034988Y-64113100D03*
%TD*%
%TO.P,REF\u002A\u002A,1*%
%TO.N,N/C*%
X38574988Y-64113100D03*
%TD*%
%TO.P,REF\u002A\u002A,1*%
%TO.N,N/C*%
X28414988Y-64113100D03*
%TD*%
%TO.P,REF\u002A\u002A,1*%
%TO.N,N/C*%
X30954988Y-64113100D03*
%TD*%
%TO.P,REF\u002A\u002A,1*%
%TO.N,N/C*%
X41114988Y-64113100D03*
%TD*%
%TO.P,REF\u002A\u002A,1*%
%TO.N,N/C*%
X69054988Y-64113100D03*
%TD*%
%TO.P,REF\u002A\u002A,1*%
%TO.N,N/C*%
X51274988Y-64113100D03*
%TD*%
%TO.P,REF\u002A\u002A,1*%
%TO.N,N/C*%
X48734988Y-64113100D03*
%TD*%
%TO.P,REF\u002A\u002A,1*%
%TO.N,N/C*%
X58894988Y-64113100D03*
%TD*%
%TO.P,REF\u002A\u002A,1*%
%TO.N,N/C*%
X53814988Y-64113100D03*
%TD*%
%TO.P,REF\u002A\u002A,1*%
%TO.N,N/C*%
X71594988Y-64113100D03*
%TD*%
%TO.P,REF\u002A\u002A,1*%
%TO.N,N/C*%
X66514988Y-64113100D03*
%TD*%
%TO.P,REF\u002A\u002A,1*%
%TO.N,N/C*%
X46194988Y-64113100D03*
%TD*%
%TO.P,REF\u002A\u002A,1*%
%TO.N,N/C*%
X61434988Y-64113100D03*
%TD*%
%TO.P,REF\u002A\u002A,1*%
%TO.N,N/C*%
X63974988Y-64113100D03*
%TD*%
%TO.P,REF\u002A\u002A,1*%
%TO.N,N/C*%
X43654988Y-64113100D03*
%TD*%
%TO.P,REF\u002A\u002A,1*%
%TO.N,N/C*%
X56354988Y-64113100D03*
%TD*%
%TO.P,REF\u002A\u002A,1*%
%TO.N,N/C*%
X41114988Y-8233100D03*
%TD*%
%TO.P,REF\u002A\u002A,1*%
%TO.N,N/C*%
X28414988Y-8233100D03*
%TD*%
%TO.P,REF\u002A\u002A,1*%
%TO.N,N/C*%
X30954988Y-10773100D03*
%TD*%
%TO.P,REF\u002A\u002A,1*%
%TO.N,N/C*%
X28414988Y-10773100D03*
%TD*%
%TO.P,REF\u002A\u002A,1*%
%TO.N,N/C*%
X30954988Y-8233100D03*
%TD*%
%TO.P,REF\u002A\u002A,1*%
%TO.N,N/C*%
X33494988Y-10773100D03*
%TD*%
%TO.P,REF\u002A\u002A,1*%
%TO.N,N/C*%
X36034988Y-8233100D03*
%TD*%
%TO.P,REF\u002A\u002A,1*%
%TO.N,N/C*%
X33494988Y-8233100D03*
%TD*%
%TO.P,REF\u002A\u002A,1*%
%TO.N,N/C*%
X38574988Y-10773100D03*
%TD*%
%TO.P,REF\u002A\u002A,1*%
%TO.N,N/C*%
X33494988Y-23473100D03*
%TD*%
%TO.P,REF\u002A\u002A,1*%
%TO.N,N/C*%
X41114988Y-23473100D03*
%TD*%
%TO.P,REF\u002A\u002A,1*%
%TO.N,N/C*%
X30954988Y-18393100D03*
%TD*%
%TO.P,REF\u002A\u002A,1*%
%TO.N,N/C*%
X33494988Y-20933100D03*
%TD*%
%TO.P,REF\u002A\u002A,1*%
%TO.N,N/C*%
X38574988Y-23473100D03*
%TD*%
%TO.P,REF\u002A\u002A,1*%
%TO.N,N/C*%
X41114988Y-13313100D03*
%TD*%
%TO.P,REF\u002A\u002A,1*%
%TO.N,N/C*%
X36034988Y-10773100D03*
%TD*%
%TO.P,REF\u002A\u002A,1*%
%TO.N,N/C*%
X41114988Y-10773100D03*
%TD*%
%TO.P,REF\u002A\u002A,1*%
%TO.N,N/C*%
X38574988Y-8233100D03*
%TD*%
%TO.P,REF\u002A\u002A,1*%
%TO.N,N/C*%
X38574988Y-18393100D03*
%TD*%
%TO.P,REF\u002A\u002A,1*%
%TO.N,N/C*%
X41114988Y-20933100D03*
%TD*%
%TO.P,REF\u002A\u002A,1*%
%TO.N,N/C*%
X36034988Y-23473100D03*
%TD*%
%TO.P,REF\u002A\u002A,1*%
%TO.N,N/C*%
X30954988Y-15853100D03*
%TD*%
%TO.P,REF\u002A\u002A,1*%
%TO.N,N/C*%
X28414988Y-13313100D03*
%TD*%
%TO.P,REF\u002A\u002A,1*%
%TO.N,N/C*%
X30954988Y-20933100D03*
%TD*%
%TO.P,REF\u002A\u002A,1*%
%TO.N,N/C*%
X36034988Y-15853100D03*
%TD*%
%TO.P,REF\u002A\u002A,1*%
%TO.N,N/C*%
X28414988Y-20933100D03*
%TD*%
%TO.P,REF\u002A\u002A,1*%
%TO.N,N/C*%
X33494988Y-18393100D03*
%TD*%
%TO.P,REF\u002A\u002A,1*%
%TO.N,N/C*%
X28414988Y-15853100D03*
%TD*%
%TO.P,REF\u002A\u002A,1*%
%TO.N,N/C*%
X36034988Y-20933100D03*
%TD*%
%TO.P,REF\u002A\u002A,1*%
%TO.N,N/C*%
X30954988Y-13313100D03*
%TD*%
%TO.P,REF\u002A\u002A,1*%
%TO.N,N/C*%
X38574988Y-20933100D03*
%TD*%
%TO.P,REF\u002A\u002A,1*%
%TO.N,N/C*%
X28414988Y-23473100D03*
%TD*%
%TO.P,REF\u002A\u002A,1*%
%TO.N,N/C*%
X41114988Y-15853100D03*
%TD*%
%TO.P,REF\u002A\u002A,1*%
%TO.N,N/C*%
X30954988Y-23473100D03*
%TD*%
%TO.P,REF\u002A\u002A,1*%
%TO.N,N/C*%
X33494988Y-15853100D03*
%TD*%
%TO.P,REF\u002A\u002A,1*%
%TO.N,N/C*%
X41114988Y-18393100D03*
%TD*%
%TO.P,REF\u002A\u002A,1*%
%TO.N,N/C*%
X38574988Y-13313100D03*
%TD*%
%TO.P,REF\u002A\u002A,1*%
%TO.N,N/C*%
X33494988Y-13313100D03*
%TD*%
%TO.P,REF\u002A\u002A,1*%
%TO.N,N/C*%
X36034988Y-13313100D03*
%TD*%
%TO.P,REF\u002A\u002A,1*%
%TO.N,N/C*%
X28414988Y-18393100D03*
%TD*%
%TO.P,REF\u002A\u002A,1*%
%TO.N,N/C*%
X38574988Y-15853100D03*
%TD*%
%TO.P,REF\u002A\u002A,1*%
%TO.N,N/C*%
X36034988Y-18393100D03*
%TD*%
%TO.P,REF\u002A\u002A,1*%
%TO.N,N/C*%
X33494988Y-36173100D03*
%TD*%
%TO.P,REF\u002A\u002A,1*%
%TO.N,N/C*%
X30954988Y-31093100D03*
%TD*%
%TO.P,REF\u002A\u002A,1*%
%TO.N,N/C*%
X33494988Y-46333100D03*
%TD*%
%TO.P,REF\u002A\u002A,1*%
%TO.N,N/C*%
X38574988Y-41253100D03*
%TD*%
%TO.P,REF\u002A\u002A,1*%
%TO.N,N/C*%
X41114988Y-48873100D03*
%TD*%
%TO.P,REF\u002A\u002A,1*%
%TO.N,N/C*%
X38574988Y-36173100D03*
%TD*%
%TO.P,REF\u002A\u002A,1*%
%TO.N,N/C*%
X41114988Y-36173100D03*
%TD*%
%TO.P,REF\u002A\u002A,1*%
%TO.N,N/C*%
X30954988Y-43793100D03*
%TD*%
%TO.P,REF\u002A\u002A,1*%
%TO.N,N/C*%
X41114988Y-53953100D03*
%TD*%
%TO.P,REF\u002A\u002A,1*%
%TO.N,N/C*%
X33494988Y-33633100D03*
%TD*%
%TO.P,REF\u002A\u002A,1*%
%TO.N,N/C*%
X36034988Y-46333100D03*
%TD*%
%TO.P,REF\u002A\u002A,1*%
%TO.N,N/C*%
X28414988Y-43793100D03*
%TD*%
%TO.P,REF\u002A\u002A,1*%
%TO.N,N/C*%
X41114988Y-26013100D03*
%TD*%
%TO.P,REF\u002A\u002A,1*%
%TO.N,N/C*%
X36034988Y-43793100D03*
%TD*%
%TO.P,REF\u002A\u002A,1*%
%TO.N,N/C*%
X36034988Y-51413100D03*
%TD*%
%TO.P,REF\u002A\u002A,1*%
%TO.N,N/C*%
X30954988Y-46333100D03*
%TD*%
%TO.P,REF\u002A\u002A,1*%
%TO.N,N/C*%
X41114988Y-38713100D03*
%TD*%
%TO.P,REF\u002A\u002A,1*%
%TO.N,N/C*%
X36034988Y-48873100D03*
%TD*%
%TO.P,REF\u002A\u002A,1*%
%TO.N,N/C*%
X30954988Y-51413100D03*
%TD*%
%TO.P,REF\u002A\u002A,1*%
%TO.N,N/C*%
X41114988Y-46333100D03*
%TD*%
%TO.P,REF\u002A\u002A,1*%
%TO.N,N/C*%
X33494988Y-43793100D03*
%TD*%
%TO.P,REF\u002A\u002A,1*%
%TO.N,N/C*%
X33494988Y-59033100D03*
%TD*%
%TO.P,REF\u002A\u002A,1*%
%TO.N,N/C*%
X33494988Y-53953100D03*
%TD*%
%TO.P,REF\u002A\u002A,1*%
%TO.N,N/C*%
X28414988Y-51413100D03*
%TD*%
%TO.P,REF\u002A\u002A,1*%
%TO.N,N/C*%
X38574988Y-31093100D03*
%TD*%
%TO.P,REF\u002A\u002A,1*%
%TO.N,N/C*%
X38574988Y-51413100D03*
%TD*%
%TO.P,REF\u002A\u002A,1*%
%TO.N,N/C*%
X36034988Y-61573100D03*
%TD*%
%TO.P,REF\u002A\u002A,1*%
%TO.N,N/C*%
X33494988Y-61573100D03*
%TD*%
%TO.P,REF\u002A\u002A,1*%
%TO.N,N/C*%
X30954988Y-36173100D03*
%TD*%
%TO.P,REF\u002A\u002A,1*%
%TO.N,N/C*%
X41114988Y-33633100D03*
%TD*%
%TO.P,REF\u002A\u002A,1*%
%TO.N,N/C*%
X28414988Y-41253100D03*
%TD*%
%TO.P,REF\u002A\u002A,1*%
%TO.N,N/C*%
X28414988Y-28553100D03*
%TD*%
%TO.P,REF\u002A\u002A,1*%
%TO.N,N/C*%
X28414988Y-36173100D03*
%TD*%
%TO.P,REF\u002A\u002A,1*%
%TO.N,N/C*%
X41114988Y-28553100D03*
%TD*%
%TO.P,REF\u002A\u002A,1*%
%TO.N,N/C*%
X30954988Y-33633100D03*
%TD*%
%TO.P,REF\u002A\u002A,1*%
%TO.N,N/C*%
X30954988Y-59033100D03*
%TD*%
%TO.P,REF\u002A\u002A,1*%
%TO.N,N/C*%
X36034988Y-36173100D03*
%TD*%
%TO.P,REF\u002A\u002A,1*%
%TO.N,N/C*%
X30954988Y-56493100D03*
%TD*%
%TO.P,REF\u002A\u002A,1*%
%TO.N,N/C*%
X30954988Y-53953100D03*
%TD*%
%TO.P,REF\u002A\u002A,1*%
%TO.N,N/C*%
X41114988Y-51413100D03*
%TD*%
%TO.P,REF\u002A\u002A,1*%
%TO.N,N/C*%
X30954988Y-38713100D03*
%TD*%
%TO.P,REF\u002A\u002A,1*%
%TO.N,N/C*%
X38574988Y-46333100D03*
%TD*%
%TO.P,REF\u002A\u002A,1*%
%TO.N,N/C*%
X36034988Y-33633100D03*
%TD*%
%TO.P,REF\u002A\u002A,1*%
%TO.N,N/C*%
X30954988Y-26013100D03*
%TD*%
%TO.P,REF\u002A\u002A,1*%
%TO.N,N/C*%
X36034988Y-59033100D03*
%TD*%
%TO.P,REF\u002A\u002A,1*%
%TO.N,N/C*%
X38574988Y-48873100D03*
%TD*%
%TO.P,REF\u002A\u002A,1*%
%TO.N,N/C*%
X30954988Y-41253100D03*
%TD*%
%TO.P,REF\u002A\u002A,1*%
%TO.N,N/C*%
X36034988Y-28553100D03*
%TD*%
%TO.P,REF\u002A\u002A,1*%
%TO.N,N/C*%
X38574988Y-61573100D03*
%TD*%
%TO.P,REF\u002A\u002A,1*%
%TO.N,N/C*%
X33494988Y-28553100D03*
%TD*%
%TO.P,REF\u002A\u002A,1*%
%TO.N,N/C*%
X28414988Y-59033100D03*
%TD*%
%TO.P,REF\u002A\u002A,1*%
%TO.N,N/C*%
X38574988Y-59033100D03*
%TD*%
%TO.P,REF\u002A\u002A,1*%
%TO.N,N/C*%
X33494988Y-48873100D03*
%TD*%
%TO.P,REF\u002A\u002A,1*%
%TO.N,N/C*%
X30954988Y-28553100D03*
%TD*%
%TO.P,REF\u002A\u002A,1*%
%TO.N,N/C*%
X36034988Y-56493100D03*
%TD*%
%TO.P,REF\u002A\u002A,1*%
%TO.N,N/C*%
X41114988Y-41253100D03*
%TD*%
%TO.P,REF\u002A\u002A,1*%
%TO.N,N/C*%
X36034988Y-41253100D03*
%TD*%
%TO.P,REF\u002A\u002A,1*%
%TO.N,N/C*%
X41114988Y-43793100D03*
%TD*%
%TO.P,REF\u002A\u002A,1*%
%TO.N,N/C*%
X28414988Y-56493100D03*
%TD*%
%TO.P,REF\u002A\u002A,1*%
%TO.N,N/C*%
X33494988Y-31093100D03*
%TD*%
%TO.P,REF\u002A\u002A,1*%
%TO.N,N/C*%
X33494988Y-51413100D03*
%TD*%
%TO.P,REF\u002A\u002A,1*%
%TO.N,N/C*%
X38574988Y-56493100D03*
%TD*%
%TO.P,REF\u002A\u002A,1*%
%TO.N,N/C*%
X33494988Y-41253100D03*
%TD*%
%TO.P,REF\u002A\u002A,1*%
%TO.N,N/C*%
X38574988Y-33633100D03*
%TD*%
%TO.P,REF\u002A\u002A,1*%
%TO.N,N/C*%
X28414988Y-33633100D03*
%TD*%
%TO.P,REF\u002A\u002A,1*%
%TO.N,N/C*%
X33494988Y-38713100D03*
%TD*%
%TO.P,REF\u002A\u002A,1*%
%TO.N,N/C*%
X28414988Y-38713100D03*
%TD*%
%TO.P,REF\u002A\u002A,1*%
%TO.N,N/C*%
X28414988Y-46333100D03*
%TD*%
%TO.P,REF\u002A\u002A,1*%
%TO.N,N/C*%
X28414988Y-26013100D03*
%TD*%
%TO.P,REF\u002A\u002A,1*%
%TO.N,N/C*%
X30954988Y-61573100D03*
%TD*%
%TO.P,REF\u002A\u002A,1*%
%TO.N,N/C*%
X28414988Y-48873100D03*
%TD*%
%TO.P,REF\u002A\u002A,1*%
%TO.N,N/C*%
X33494988Y-56493100D03*
%TD*%
%TO.P,REF\u002A\u002A,1*%
%TO.N,N/C*%
X28414988Y-53953100D03*
%TD*%
%TO.P,REF\u002A\u002A,1*%
%TO.N,N/C*%
X41114988Y-31093100D03*
%TD*%
%TO.P,REF\u002A\u002A,1*%
%TO.N,N/C*%
X38574988Y-28553100D03*
%TD*%
%TO.P,REF\u002A\u002A,1*%
%TO.N,N/C*%
X41114988Y-56493100D03*
%TD*%
%TO.P,REF\u002A\u002A,1*%
%TO.N,N/C*%
X38574988Y-43793100D03*
%TD*%
%TO.P,REF\u002A\u002A,1*%
%TO.N,N/C*%
X36034988Y-26013100D03*
%TD*%
%TO.P,REF\u002A\u002A,1*%
%TO.N,N/C*%
X36034988Y-38713100D03*
%TD*%
%TO.P,REF\u002A\u002A,1*%
%TO.N,N/C*%
X38574988Y-38713100D03*
%TD*%
%TO.P,REF\u002A\u002A,1*%
%TO.N,N/C*%
X28414988Y-31093100D03*
%TD*%
%TO.P,REF\u002A\u002A,1*%
%TO.N,N/C*%
X28414988Y-61573100D03*
%TD*%
%TO.P,REF\u002A\u002A,1*%
%TO.N,N/C*%
X30954988Y-48873100D03*
%TD*%
%TO.P,REF\u002A\u002A,1*%
%TO.N,N/C*%
X41114988Y-61573100D03*
%TD*%
%TO.P,REF\u002A\u002A,1*%
%TO.N,N/C*%
X36034988Y-53953100D03*
%TD*%
%TO.P,REF\u002A\u002A,1*%
%TO.N,N/C*%
X38574988Y-26013100D03*
%TD*%
%TO.P,REF\u002A\u002A,1*%
%TO.N,N/C*%
X41114988Y-59033100D03*
%TD*%
%TO.P,REF\u002A\u002A,1*%
%TO.N,N/C*%
X33494988Y-26013100D03*
%TD*%
%TO.P,REF\u002A\u002A,1*%
%TO.N,N/C*%
X36034988Y-31093100D03*
%TD*%
%TO.P,REF\u002A\u002A,1*%
%TO.N,N/C*%
X38574988Y-53953100D03*
%TD*%
%TO.P,REF\u002A\u002A,1*%
%TO.N,N/C*%
X63974988Y-8233100D03*
%TD*%
%TO.P,REF\u002A\u002A,1*%
%TO.N,N/C*%
X56354988Y-8233100D03*
%TD*%
%TO.P,REF\u002A\u002A,1*%
%TO.N,N/C*%
X69054988Y-8233100D03*
%TD*%
%TO.P,REF\u002A\u002A,1*%
%TO.N,N/C*%
X69054988Y-10773100D03*
%TD*%
%TO.P,REF\u002A\u002A,1*%
%TO.N,N/C*%
X71594988Y-10773100D03*
%TD*%
%TO.P,REF\u002A\u002A,1*%
%TO.N,N/C*%
X61434988Y-10773100D03*
%TD*%
%TO.P,REF\u002A\u002A,1*%
%TO.N,N/C*%
X61434988Y-8233100D03*
%TD*%
%TO.P,REF\u002A\u002A,1*%
%TO.N,N/C*%
X58894988Y-8233100D03*
%TD*%
%TO.P,REF\u002A\u002A,1*%
%TO.N,N/C*%
X46194988Y-10773100D03*
%TD*%
%TO.P,REF\u002A\u002A,1*%
%TO.N,N/C*%
X43654988Y-8233100D03*
%TD*%
%TO.P,REF\u002A\u002A,1*%
%TO.N,N/C*%
X66514988Y-8233100D03*
%TD*%
%TO.P,REF\u002A\u002A,1*%
%TO.N,N/C*%
X58894988Y-10773100D03*
%TD*%
%TO.P,REF\u002A\u002A,1*%
%TO.N,N/C*%
X51274988Y-10773100D03*
%TD*%
%TO.P,REF\u002A\u002A,1*%
%TO.N,N/C*%
X63974988Y-10773100D03*
%TD*%
%TO.P,REF\u002A\u002A,1*%
%TO.N,N/C*%
X43654988Y-10773100D03*
%TD*%
%TO.P,REF\u002A\u002A,1*%
%TO.N,N/C*%
X46194988Y-8233100D03*
%TD*%
%TO.P,REF\u002A\u002A,1*%
%TO.N,N/C*%
X56354988Y-10773100D03*
%TD*%
%TO.P,REF\u002A\u002A,1*%
%TO.N,N/C*%
X48734988Y-10773100D03*
%TD*%
%TO.P,REF\u002A\u002A,1*%
%TO.N,N/C*%
X53814988Y-8233100D03*
%TD*%
%TO.P,REF\u002A\u002A,1*%
%TO.N,N/C*%
X48734988Y-8233100D03*
%TD*%
%TO.P,REF\u002A\u002A,1*%
%TO.N,N/C*%
X51274988Y-8233100D03*
%TD*%
%TO.P,REF\u002A\u002A,1*%
%TO.N,N/C*%
X71594988Y-8233100D03*
%TD*%
%TO.P,REF\u002A\u002A,1*%
%TO.N,N/C*%
X66514988Y-10773100D03*
%TD*%
%TO.P,REF\u002A\u002A,1*%
%TO.N,N/C*%
X53814988Y-10773100D03*
%TD*%
%TO.P,REF\u002A\u002A,1*%
%TO.N,N/C*%
X66514988Y-18393100D03*
%TD*%
%TO.P,REF\u002A\u002A,1*%
%TO.N,N/C*%
X48734988Y-23473100D03*
%TD*%
%TO.P,REF\u002A\u002A,1*%
%TO.N,N/C*%
X46194988Y-18393100D03*
%TD*%
%TO.P,REF\u002A\u002A,1*%
%TO.N,N/C*%
X63974988Y-13313100D03*
%TD*%
%TO.P,REF\u002A\u002A,1*%
%TO.N,N/C*%
X53814988Y-23473100D03*
%TD*%
%TO.P,REF\u002A\u002A,1*%
%TO.N,N/C*%
X56354988Y-23473100D03*
%TD*%
%TO.P,REF\u002A\u002A,1*%
%TO.N,N/C*%
X66514988Y-23473100D03*
%TD*%
%TO.P,REF\u002A\u002A,1*%
%TO.N,N/C*%
X63974988Y-18393100D03*
%TD*%
%TO.P,REF\u002A\u002A,1*%
%TO.N,N/C*%
X69054988Y-15853100D03*
%TD*%
%TO.P,REF\u002A\u002A,1*%
%TO.N,N/C*%
X61434988Y-18393100D03*
%TD*%
%TO.P,REF\u002A\u002A,1*%
%TO.N,N/C*%
X48734988Y-20933100D03*
%TD*%
%TO.P,REF\u002A\u002A,1*%
%TO.N,N/C*%
X71594988Y-18393100D03*
%TD*%
%TO.P,REF\u002A\u002A,1*%
%TO.N,N/C*%
X56354988Y-13313100D03*
%TD*%
%TO.P,REF\u002A\u002A,1*%
%TO.N,N/C*%
X61434988Y-23473100D03*
%TD*%
%TO.P,REF\u002A\u002A,1*%
%TO.N,N/C*%
X69054988Y-13313100D03*
%TD*%
%TO.P,REF\u002A\u002A,1*%
%TO.N,N/C*%
X58894988Y-18393100D03*
%TD*%
%TO.P,REF\u002A\u002A,1*%
%TO.N,N/C*%
X53814988Y-18393100D03*
%TD*%
%TO.P,REF\u002A\u002A,1*%
%TO.N,N/C*%
X63974988Y-20933100D03*
%TD*%
%TO.P,REF\u002A\u002A,1*%
%TO.N,N/C*%
X71594988Y-15853100D03*
%TD*%
%TO.P,REF\u002A\u002A,1*%
%TO.N,N/C*%
X66514988Y-20933100D03*
%TD*%
%TO.P,REF\u002A\u002A,1*%
%TO.N,N/C*%
X61434988Y-15853100D03*
%TD*%
%TO.P,REF\u002A\u002A,1*%
%TO.N,N/C*%
X46194988Y-23473100D03*
%TD*%
%TO.P,REF\u002A\u002A,1*%
%TO.N,N/C*%
X61434988Y-13313100D03*
%TD*%
%TO.P,REF\u002A\u002A,1*%
%TO.N,N/C*%
X56354988Y-20933100D03*
%TD*%
%TO.P,REF\u002A\u002A,1*%
%TO.N,N/C*%
X43654988Y-15853100D03*
%TD*%
%TO.P,REF\u002A\u002A,1*%
%TO.N,N/C*%
X58894988Y-15853100D03*
%TD*%
%TO.P,REF\u002A\u002A,1*%
%TO.N,N/C*%
X43654988Y-23473100D03*
%TD*%
%TO.P,REF\u002A\u002A,1*%
%TO.N,N/C*%
X56354988Y-15853100D03*
%TD*%
%TO.P,REF\u002A\u002A,1*%
%TO.N,N/C*%
X46194988Y-20933100D03*
%TD*%
%TO.P,REF\u002A\u002A,1*%
%TO.N,N/C*%
X58894988Y-20933100D03*
%TD*%
%TO.P,REF\u002A\u002A,1*%
%TO.N,N/C*%
X51274988Y-23473100D03*
%TD*%
%TO.P,REF\u002A\u002A,1*%
%TO.N,N/C*%
X69054988Y-23473100D03*
%TD*%
%TO.P,REF\u002A\u002A,1*%
%TO.N,N/C*%
X51274988Y-20933100D03*
%TD*%
%TO.P,REF\u002A\u002A,1*%
%TO.N,N/C*%
X46194988Y-13313100D03*
%TD*%
%TO.P,REF\u002A\u002A,1*%
%TO.N,N/C*%
X51274988Y-15853100D03*
%TD*%
%TO.P,REF\u002A\u002A,1*%
%TO.N,N/C*%
X71594988Y-23473100D03*
%TD*%
%TO.P,REF\u002A\u002A,1*%
%TO.N,N/C*%
X71594988Y-20933100D03*
%TD*%
%TO.P,REF\u002A\u002A,1*%
%TO.N,N/C*%
X48734988Y-15853100D03*
%TD*%
%TO.P,REF\u002A\u002A,1*%
%TO.N,N/C*%
X58894988Y-13313100D03*
%TD*%
%TO.P,REF\u002A\u002A,1*%
%TO.N,N/C*%
X46194988Y-15853100D03*
%TD*%
%TO.P,REF\u002A\u002A,1*%
%TO.N,N/C*%
X66514988Y-13313100D03*
%TD*%
%TO.P,REF\u002A\u002A,1*%
%TO.N,N/C*%
X48734988Y-18393100D03*
%TD*%
%TO.P,REF\u002A\u002A,1*%
%TO.N,N/C*%
X53814988Y-20933100D03*
%TD*%
%TO.P,REF\u002A\u002A,1*%
%TO.N,N/C*%
X43654988Y-20933100D03*
%TD*%
%TO.P,REF\u002A\u002A,1*%
%TO.N,N/C*%
X43654988Y-13313100D03*
%TD*%
%TO.P,REF\u002A\u002A,1*%
%TO.N,N/C*%
X63974988Y-15853100D03*
%TD*%
%TO.P,REF\u002A\u002A,1*%
%TO.N,N/C*%
X61434988Y-20933100D03*
%TD*%
%TO.P,REF\u002A\u002A,1*%
%TO.N,N/C*%
X56354988Y-18393100D03*
%TD*%
%TO.P,REF\u002A\u002A,1*%
%TO.N,N/C*%
X53814988Y-15853100D03*
%TD*%
%TO.P,REF\u002A\u002A,1*%
%TO.N,N/C*%
X58894988Y-23473100D03*
%TD*%
%TO.P,REF\u002A\u002A,1*%
%TO.N,N/C*%
X69054988Y-20933100D03*
%TD*%
%TO.P,REF\u002A\u002A,1*%
%TO.N,N/C*%
X51274988Y-13313100D03*
%TD*%
%TO.P,REF\u002A\u002A,1*%
%TO.N,N/C*%
X43654988Y-18393100D03*
%TD*%
%TO.P,REF\u002A\u002A,1*%
%TO.N,N/C*%
X71594988Y-13313100D03*
%TD*%
%TO.P,REF\u002A\u002A,1*%
%TO.N,N/C*%
X53814988Y-13313100D03*
%TD*%
%TO.P,REF\u002A\u002A,1*%
%TO.N,N/C*%
X66514988Y-15853100D03*
%TD*%
%TO.P,REF\u002A\u002A,1*%
%TO.N,N/C*%
X63974988Y-23473100D03*
%TD*%
%TO.P,REF\u002A\u002A,1*%
%TO.N,N/C*%
X48734988Y-13313100D03*
%TD*%
%TO.P,REF\u002A\u002A,1*%
%TO.N,N/C*%
X51274988Y-18393100D03*
%TD*%
%TO.P,REF\u002A\u002A,1*%
%TO.N,N/C*%
X69054988Y-18393100D03*
%TD*%
%TO.P,REF\u002A\u002A,1*%
%TO.N,N/C*%
X66514988Y-31093100D03*
%TD*%
%TO.P,REF\u002A\u002A,1*%
%TO.N,N/C*%
X48734988Y-36173100D03*
%TD*%
%TO.P,REF\u002A\u002A,1*%
%TO.N,N/C*%
X46194988Y-31093100D03*
%TD*%
%TO.P,REF\u002A\u002A,1*%
%TO.N,N/C*%
X48734988Y-46333100D03*
%TD*%
%TO.P,REF\u002A\u002A,1*%
%TO.N,N/C*%
X63974988Y-26013100D03*
%TD*%
%TO.P,REF\u002A\u002A,1*%
%TO.N,N/C*%
X53814988Y-36173100D03*
%TD*%
%TO.P,REF\u002A\u002A,1*%
%TO.N,N/C*%
X63974988Y-56493100D03*
%TD*%
%TO.P,REF\u002A\u002A,1*%
%TO.N,N/C*%
X56354988Y-26013100D03*
%TD*%
%TO.P,REF\u002A\u002A,1*%
%TO.N,N/C*%
X63974988Y-31093100D03*
%TD*%
%TO.P,REF\u002A\u002A,1*%
%TO.N,N/C*%
X56354988Y-48873100D03*
%TD*%
%TO.P,REF\u002A\u002A,1*%
%TO.N,N/C*%
X69054988Y-28553100D03*
%TD*%
%TO.P,REF\u002A\u002A,1*%
%TO.N,N/C*%
X63974988Y-38713100D03*
%TD*%
%TO.P,REF\u002A\u002A,1*%
%TO.N,N/C*%
X56354988Y-36173100D03*
%TD*%
%TO.P,REF\u002A\u002A,1*%
%TO.N,N/C*%
X66514988Y-36173100D03*
%TD*%
%TO.P,REF\u002A\u002A,1*%
%TO.N,N/C*%
X71594988Y-53953100D03*
%TD*%
%TO.P,REF\u002A\u002A,1*%
%TO.N,N/C*%
X46194988Y-43793100D03*
%TD*%
%TO.P,REF\u002A\u002A,1*%
%TO.N,N/C*%
X43654988Y-43793100D03*
%TD*%
%TO.P,REF\u002A\u002A,1*%
%TO.N,N/C*%
X56354988Y-53953100D03*
%TD*%
%TO.P,REF\u002A\u002A,1*%
%TO.N,N/C*%
X48734988Y-33633100D03*
%TD*%
%TO.P,REF\u002A\u002A,1*%
%TO.N,N/C*%
X53814988Y-41253100D03*
%TD*%
%TO.P,REF\u002A\u002A,1*%
%TO.N,N/C*%
X71594988Y-31093100D03*
%TD*%
%TO.P,REF\u002A\u002A,1*%
%TO.N,N/C*%
X63974988Y-41253100D03*
%TD*%
%TO.P,REF\u002A\u002A,1*%
%TO.N,N/C*%
X51274988Y-43793100D03*
%TD*%
%TO.P,REF\u002A\u002A,1*%
%TO.N,N/C*%
X66514988Y-59033100D03*
%TD*%
%TO.P,REF\u002A\u002A,1*%
%TO.N,N/C*%
X51274988Y-46333100D03*
%TD*%
%TO.P,REF\u002A\u002A,1*%
%TO.N,N/C*%
X61434988Y-31093100D03*
%TD*%
%TO.P,REF\u002A\u002A,1*%
%TO.N,N/C*%
X63974988Y-33633100D03*
%TD*%
%TO.P,REF\u002A\u002A,1*%
%TO.N,N/C*%
X51274988Y-51413100D03*
%TD*%
%TO.P,REF\u002A\u002A,1*%
%TO.N,N/C*%
X53814988Y-51413100D03*
%TD*%
%TO.P,REF\u002A\u002A,1*%
%TO.N,N/C*%
X63974988Y-51413100D03*
%TD*%
%TO.P,REF\u002A\u002A,1*%
%TO.N,N/C*%
X71594988Y-28553100D03*
%TD*%
%TO.P,REF\u002A\u002A,1*%
%TO.N,N/C*%
X56354988Y-46333100D03*
%TD*%
%TO.P,REF\u002A\u002A,1*%
%TO.N,N/C*%
X61434988Y-36173100D03*
%TD*%
%TO.P,REF\u002A\u002A,1*%
%TO.N,N/C*%
X43654988Y-51413100D03*
%TD*%
%TO.P,REF\u002A\u002A,1*%
%TO.N,N/C*%
X48734988Y-43793100D03*
%TD*%
%TO.P,REF\u002A\u002A,1*%
%TO.N,N/C*%
X71594988Y-48873100D03*
%TD*%
%TO.P,REF\u002A\u002A,1*%
%TO.N,N/C*%
X58894988Y-38713100D03*
%TD*%
%TO.P,REF\u002A\u002A,1*%
%TO.N,N/C*%
X69054988Y-61573100D03*
%TD*%
%TO.P,REF\u002A\u002A,1*%
%TO.N,N/C*%
X51274988Y-48873100D03*
%TD*%
%TO.P,REF\u002A\u002A,1*%
%TO.N,N/C*%
X58894988Y-31093100D03*
%TD*%
%TO.P,REF\u002A\u002A,1*%
%TO.N,N/C*%
X48734988Y-53953100D03*
%TD*%
%TO.P,REF\u002A\u002A,1*%
%TO.N,N/C*%
X58894988Y-48873100D03*
%TD*%
%TO.P,REF\u002A\u002A,1*%
%TO.N,N/C*%
X69054988Y-26013100D03*
%TD*%
%TO.P,REF\u002A\u002A,1*%
%TO.N,N/C*%
X56354988Y-38713100D03*
%TD*%
%TO.P,REF\u002A\u002A,1*%
%TO.N,N/C*%
X46194988Y-46333100D03*
%TD*%
%TO.P,REF\u002A\u002A,1*%
%TO.N,N/C*%
X51274988Y-61573100D03*
%TD*%
%TO.P,REF\u002A\u002A,1*%
%TO.N,N/C*%
X69054988Y-53953100D03*
%TD*%
%TO.P,REF\u002A\u002A,1*%
%TO.N,N/C*%
X48734988Y-59033100D03*
%TD*%
%TO.P,REF\u002A\u002A,1*%
%TO.N,N/C*%
X46194988Y-51413100D03*
%TD*%
%TO.P,REF\u002A\u002A,1*%
%TO.N,N/C*%
X58894988Y-53953100D03*
%TD*%
%TO.P,REF\u002A\u002A,1*%
%TO.N,N/C*%
X71594988Y-41253100D03*
%TD*%
%TO.P,REF\u002A\u002A,1*%
%TO.N,N/C*%
X53814988Y-31093100D03*
%TD*%
%TO.P,REF\u002A\u002A,1*%
%TO.N,N/C*%
X48734988Y-61573100D03*
%TD*%
%TO.P,REF\u002A\u002A,1*%
%TO.N,N/C*%
X61434988Y-28553100D03*
%TD*%
%TO.P,REF\u002A\u002A,1*%
%TO.N,N/C*%
X46194988Y-36173100D03*
%TD*%
%TO.P,REF\u002A\u002A,1*%
%TO.N,N/C*%
X61434988Y-48873100D03*
%TD*%
%TO.P,REF\u002A\u002A,1*%
%TO.N,N/C*%
X66514988Y-33633100D03*
%TD*%
%TO.P,REF\u002A\u002A,1*%
%TO.N,N/C*%
X46194988Y-56493100D03*
%TD*%
%TO.P,REF\u002A\u002A,1*%
%TO.N,N/C*%
X51274988Y-36173100D03*
%TD*%
%TO.P,REF\u002A\u002A,1*%
%TO.N,N/C*%
X61434988Y-26013100D03*
%TD*%
%TO.P,REF\u002A\u002A,1*%
%TO.N,N/C*%
X71594988Y-56493100D03*
%TD*%
%TO.P,REF\u002A\u002A,1*%
%TO.N,N/C*%
X69054988Y-56493100D03*
%TD*%
%TO.P,REF\u002A\u002A,1*%
%TO.N,N/C*%
X66514988Y-38713100D03*
%TD*%
%TO.P,REF\u002A\u002A,1*%
%TO.N,N/C*%
X46194988Y-38713100D03*
%TD*%
%TO.P,REF\u002A\u002A,1*%
%TO.N,N/C*%
X56354988Y-28553100D03*
%TD*%
%TO.P,REF\u002A\u002A,1*%
%TO.N,N/C*%
X66514988Y-41253100D03*
%TD*%
%TO.P,REF\u002A\u002A,1*%
%TO.N,N/C*%
X61434988Y-53953100D03*
%TD*%
%TO.P,REF\u002A\u002A,1*%
%TO.N,N/C*%
X46194988Y-33633100D03*
%TD*%
%TO.P,REF\u002A\u002A,1*%
%TO.N,N/C*%
X56354988Y-33633100D03*
%TD*%
%TO.P,REF\u002A\u002A,1*%
%TO.N,N/C*%
X69054988Y-36173100D03*
%TD*%
%TO.P,REF\u002A\u002A,1*%
%TO.N,N/C*%
X43654988Y-36173100D03*
%TD*%
%TO.P,REF\u002A\u002A,1*%
%TO.N,N/C*%
X53814988Y-46333100D03*
%TD*%
%TO.P,REF\u002A\u002A,1*%
%TO.N,N/C*%
X66514988Y-56493100D03*
%TD*%
%TO.P,REF\u002A\u002A,1*%
%TO.N,N/C*%
X46194988Y-59033100D03*
%TD*%
%TO.P,REF\u002A\u002A,1*%
%TO.N,N/C*%
X61434988Y-51413100D03*
%TD*%
%TO.P,REF\u002A\u002A,1*%
%TO.N,N/C*%
X51274988Y-33633100D03*
%TD*%
%TO.P,REF\u002A\u002A,1*%
%TO.N,N/C*%
X58894988Y-33633100D03*
%TD*%
%TO.P,REF\u002A\u002A,1*%
%TO.N,N/C*%
X61434988Y-38713100D03*
%TD*%
%TO.P,REF\u002A\u002A,1*%
%TO.N,N/C*%
X46194988Y-53953100D03*
%TD*%
%TO.P,REF\u002A\u002A,1*%
%TO.N,N/C*%
X61434988Y-43793100D03*
%TD*%
%TO.P,REF\u002A\u002A,1*%
%TO.N,N/C*%
X58894988Y-61573100D03*
%TD*%
%TO.P,REF\u002A\u002A,1*%
%TO.N,N/C*%
X43654988Y-41253100D03*
%TD*%
%TO.P,REF\u002A\u002A,1*%
%TO.N,N/C*%
X56354988Y-51413100D03*
%TD*%
%TO.P,REF\u002A\u002A,1*%
%TO.N,N/C*%
X69054988Y-41253100D03*
%TD*%
%TO.P,REF\u002A\u002A,1*%
%TO.N,N/C*%
X58894988Y-28553100D03*
%TD*%
%TO.P,REF\u002A\u002A,1*%
%TO.N,N/C*%
X43654988Y-28553100D03*
%TD*%
%TO.P,REF\u002A\u002A,1*%
%TO.N,N/C*%
X71594988Y-61573100D03*
%TD*%
%TO.P,REF\u002A\u002A,1*%
%TO.N,N/C*%
X46194988Y-26013100D03*
%TD*%
%TO.P,REF\u002A\u002A,1*%
%TO.N,N/C*%
X58894988Y-56493100D03*
%TD*%
%TO.P,REF\u002A\u002A,1*%
%TO.N,N/C*%
X51274988Y-59033100D03*
%TD*%
%TO.P,REF\u002A\u002A,1*%
%TO.N,N/C*%
X53814988Y-48873100D03*
%TD*%
%TO.P,REF\u002A\u002A,1*%
%TO.N,N/C*%
X51274988Y-28553100D03*
%TD*%
%TO.P,REF\u002A\u002A,1*%
%TO.N,N/C*%
X71594988Y-43793100D03*
%TD*%
%TO.P,REF\u002A\u002A,1*%
%TO.N,N/C*%
X48734988Y-48873100D03*
%TD*%
%TO.P,REF\u002A\u002A,1*%
%TO.N,N/C*%
X69054988Y-38713100D03*
%TD*%
%TO.P,REF\u002A\u002A,1*%
%TO.N,N/C*%
X53814988Y-59033100D03*
%TD*%
%TO.P,REF\u002A\u002A,1*%
%TO.N,N/C*%
X46194988Y-28553100D03*
%TD*%
%TO.P,REF\u002A\u002A,1*%
%TO.N,N/C*%
X69054988Y-46333100D03*
%TD*%
%TO.P,REF\u002A\u002A,1*%
%TO.N,N/C*%
X46194988Y-41253100D03*
%TD*%
%TO.P,REF\u002A\u002A,1*%
%TO.N,N/C*%
X66514988Y-51413100D03*
%TD*%
%TO.P,REF\u002A\u002A,1*%
%TO.N,N/C*%
X53814988Y-61573100D03*
%TD*%
%TO.P,REF\u002A\u002A,1*%
%TO.N,N/C*%
X63974988Y-43793100D03*
%TD*%
%TO.P,REF\u002A\u002A,1*%
%TO.N,N/C*%
X48734988Y-28553100D03*
%TD*%
%TO.P,REF\u002A\u002A,1*%
%TO.N,N/C*%
X71594988Y-36173100D03*
%TD*%
%TO.P,REF\u002A\u002A,1*%
%TO.N,N/C*%
X58894988Y-26013100D03*
%TD*%
%TO.P,REF\u002A\u002A,1*%
%TO.N,N/C*%
X69054988Y-51413100D03*
%TD*%
%TO.P,REF\u002A\u002A,1*%
%TO.N,N/C*%
X43654988Y-59033100D03*
%TD*%
%TO.P,REF\u002A\u002A,1*%
%TO.N,N/C*%
X58894988Y-59033100D03*
%TD*%
%TO.P,REF\u002A\u002A,1*%
%TO.N,N/C*%
X71594988Y-33633100D03*
%TD*%
%TO.P,REF\u002A\u002A,1*%
%TO.N,N/C*%
X51274988Y-53953100D03*
%TD*%
%TO.P,REF\u002A\u002A,1*%
%TO.N,N/C*%
X69054988Y-31093100D03*
%TD*%
%TO.P,REF\u002A\u002A,1*%
%TO.N,N/C*%
X51274988Y-31093100D03*
%TD*%
%TO.P,REF\u002A\u002A,1*%
%TO.N,N/C*%
X53814988Y-53953100D03*
%TD*%
%TO.P,REF\u002A\u002A,1*%
%TO.N,N/C*%
X48734988Y-26013100D03*
%TD*%
%TO.P,REF\u002A\u002A,1*%
%TO.N,N/C*%
X63974988Y-46333100D03*
%TD*%
%TO.P,REF\u002A\u002A,1*%
%TO.N,N/C*%
X53814988Y-26013100D03*
%TD*%
%TO.P,REF\u002A\u002A,1*%
%TO.N,N/C*%
X61434988Y-41253100D03*
%TD*%
%TO.P,REF\u002A\u002A,1*%
%TO.N,N/C*%
X66514988Y-28553100D03*
%TD*%
%TO.P,REF\u002A\u002A,1*%
%TO.N,N/C*%
X56354988Y-59033100D03*
%TD*%
%TO.P,REF\u002A\u002A,1*%
%TO.N,N/C*%
X71594988Y-26013100D03*
%TD*%
%TO.P,REF\u002A\u002A,1*%
%TO.N,N/C*%
X61434988Y-46333100D03*
%TD*%
%TO.P,REF\u002A\u002A,1*%
%TO.N,N/C*%
X63974988Y-36173100D03*
%TD*%
%TO.P,REF\u002A\u002A,1*%
%TO.N,N/C*%
X51274988Y-56493100D03*
%TD*%
%TO.P,REF\u002A\u002A,1*%
%TO.N,N/C*%
X56354988Y-41253100D03*
%TD*%
%TO.P,REF\u002A\u002A,1*%
%TO.N,N/C*%
X51274988Y-41253100D03*
%TD*%
%TO.P,REF\u002A\u002A,1*%
%TO.N,N/C*%
X56354988Y-43793100D03*
%TD*%
%TO.P,REF\u002A\u002A,1*%
%TO.N,N/C*%
X43654988Y-46333100D03*
%TD*%
%TO.P,REF\u002A\u002A,1*%
%TO.N,N/C*%
X66514988Y-43793100D03*
%TD*%
%TO.P,REF\u002A\u002A,1*%
%TO.N,N/C*%
X66514988Y-48873100D03*
%TD*%
%TO.P,REF\u002A\u002A,1*%
%TO.N,N/C*%
X66514988Y-26013100D03*
%TD*%
%TO.P,REF\u002A\u002A,1*%
%TO.N,N/C*%
X48734988Y-51413100D03*
%TD*%
%TO.P,REF\u002A\u002A,1*%
%TO.N,N/C*%
X53814988Y-33633100D03*
%TD*%
%TO.P,REF\u002A\u002A,1*%
%TO.N,N/C*%
X43654988Y-38713100D03*
%TD*%
%TO.P,REF\u002A\u002A,1*%
%TO.N,N/C*%
X66514988Y-53953100D03*
%TD*%
%TO.P,REF\u002A\u002A,1*%
%TO.N,N/C*%
X58894988Y-43793100D03*
%TD*%
%TO.P,REF\u002A\u002A,1*%
%TO.N,N/C*%
X53814988Y-56493100D03*
%TD*%
%TO.P,REF\u002A\u002A,1*%
%TO.N,N/C*%
X71594988Y-38713100D03*
%TD*%
%TO.P,REF\u002A\u002A,1*%
%TO.N,N/C*%
X48734988Y-41253100D03*
%TD*%
%TO.P,REF\u002A\u002A,1*%
%TO.N,N/C*%
X43654988Y-26013100D03*
%TD*%
%TO.P,REF\u002A\u002A,1*%
%TO.N,N/C*%
X63974988Y-53953100D03*
%TD*%
%TO.P,REF\u002A\u002A,1*%
%TO.N,N/C*%
X43654988Y-56493100D03*
%TD*%
%TO.P,REF\u002A\u002A,1*%
%TO.N,N/C*%
X71594988Y-51413100D03*
%TD*%
%TO.P,REF\u002A\u002A,1*%
%TO.N,N/C*%
X69054988Y-48873100D03*
%TD*%
%TO.P,REF\u002A\u002A,1*%
%TO.N,N/C*%
X48734988Y-38713100D03*
%TD*%
%TO.P,REF\u002A\u002A,1*%
%TO.N,N/C*%
X66514988Y-61573100D03*
%TD*%
%TO.P,REF\u002A\u002A,1*%
%TO.N,N/C*%
X63974988Y-28553100D03*
%TD*%
%TO.P,REF\u002A\u002A,1*%
%TO.N,N/C*%
X58894988Y-51413100D03*
%TD*%
%TO.P,REF\u002A\u002A,1*%
%TO.N,N/C*%
X43654988Y-33633100D03*
%TD*%
%TO.P,REF\u002A\u002A,1*%
%TO.N,N/C*%
X48734988Y-31093100D03*
%TD*%
%TO.P,REF\u002A\u002A,1*%
%TO.N,N/C*%
X46194988Y-61573100D03*
%TD*%
%TO.P,REF\u002A\u002A,1*%
%TO.N,N/C*%
X58894988Y-46333100D03*
%TD*%
%TO.P,REF\u002A\u002A,1*%
%TO.N,N/C*%
X63974988Y-59033100D03*
%TD*%
%TO.P,REF\u002A\u002A,1*%
%TO.N,N/C*%
X43654988Y-48873100D03*
%TD*%
%TO.P,REF\u002A\u002A,1*%
%TO.N,N/C*%
X61434988Y-61573100D03*
%TD*%
%TO.P,REF\u002A\u002A,1*%
%TO.N,N/C*%
X61434988Y-59033100D03*
%TD*%
%TO.P,REF\u002A\u002A,1*%
%TO.N,N/C*%
X48734988Y-56493100D03*
%TD*%
%TO.P,REF\u002A\u002A,1*%
%TO.N,N/C*%
X69054988Y-43793100D03*
%TD*%
%TO.P,REF\u002A\u002A,1*%
%TO.N,N/C*%
X61434988Y-33633100D03*
%TD*%
%TO.P,REF\u002A\u002A,1*%
%TO.N,N/C*%
X71594988Y-46333100D03*
%TD*%
%TO.P,REF\u002A\u002A,1*%
%TO.N,N/C*%
X69054988Y-59033100D03*
%TD*%
%TO.P,REF\u002A\u002A,1*%
%TO.N,N/C*%
X43654988Y-53953100D03*
%TD*%
%TO.P,REF\u002A\u002A,1*%
%TO.N,N/C*%
X58894988Y-36173100D03*
%TD*%
%TO.P,REF\u002A\u002A,1*%
%TO.N,N/C*%
X58894988Y-41253100D03*
%TD*%
%TO.P,REF\u002A\u002A,1*%
%TO.N,N/C*%
X51274988Y-38713100D03*
%TD*%
%TO.P,REF\u002A\u002A,1*%
%TO.N,N/C*%
X63974988Y-61573100D03*
%TD*%
%TO.P,REF\u002A\u002A,1*%
%TO.N,N/C*%
X53814988Y-43793100D03*
%TD*%
%TO.P,REF\u002A\u002A,1*%
%TO.N,N/C*%
X69054988Y-33633100D03*
%TD*%
%TO.P,REF\u002A\u002A,1*%
%TO.N,N/C*%
X53814988Y-38713100D03*
%TD*%
%TO.P,REF\u002A\u002A,1*%
%TO.N,N/C*%
X66514988Y-46333100D03*
%TD*%
%TO.P,REF\u002A\u002A,1*%
%TO.N,N/C*%
X51274988Y-26013100D03*
%TD*%
%TO.P,REF\u002A\u002A,1*%
%TO.N,N/C*%
X61434988Y-56493100D03*
%TD*%
%TO.P,REF\u002A\u002A,1*%
%TO.N,N/C*%
X56354988Y-31093100D03*
%TD*%
%TO.P,REF\u002A\u002A,1*%
%TO.N,N/C*%
X71594988Y-59033100D03*
%TD*%
%TO.P,REF\u002A\u002A,1*%
%TO.N,N/C*%
X43654988Y-31093100D03*
%TD*%
%TO.P,REF\u002A\u002A,1*%
%TO.N,N/C*%
X63974988Y-48873100D03*
%TD*%
%TO.P,REF\u002A\u002A,1*%
%TO.N,N/C*%
X53814988Y-28553100D03*
%TD*%
%TO.P,REF\u002A\u002A,1*%
%TO.N,N/C*%
X56354988Y-56493100D03*
%TD*%
%TO.P,REF\u002A\u002A,1*%
%TO.N,N/C*%
X43654988Y-61573100D03*
%TD*%
%TO.P,REF\u002A\u002A,1*%
%TO.N,N/C*%
X46194988Y-48873100D03*
%TD*%
%TO.P,REF\u002A\u002A,1*%
%TO.N,N/C*%
X56354988Y-61573100D03*
%TD*%
%TO.P,REF\u002A\u002A,1*%
%TO.N,N/C*%
X66514988Y-69193100D03*
%TD*%
%TO.P,REF\u002A\u002A,1*%
%TO.N,N/C*%
X56354988Y-66685790D03*
%TD*%
%TO.P,REF\u002A\u002A,1*%
%TO.N,N/C*%
X58894988Y-66685790D03*
%TD*%
%TO.P,REF\u002A\u002A,1*%
%TO.N,N/C*%
X63974988Y-69193100D03*
%TD*%
%TO.P,REF\u002A\u002A,1*%
%TO.N,N/C*%
X61434988Y-66685790D03*
%TD*%
%TO.P,REF\u002A\u002A,1*%
%TO.N,N/C*%
X58894988Y-71733100D03*
%TD*%
%TO.P,REF\u002A\u002A,1*%
%TO.N,N/C*%
X56354988Y-71733100D03*
%TD*%
%TO.P,REF\u002A\u002A,1*%
%TO.N,N/C*%
X66514988Y-71733100D03*
%TD*%
%TO.P,REF\u002A\u002A,1*%
%TO.N,N/C*%
X58894988Y-69193100D03*
%TD*%
%TO.P,REF\u002A\u002A,1*%
%TO.N,N/C*%
X61434988Y-69193100D03*
%TD*%
%TO.P,REF\u002A\u002A,1*%
%TO.N,N/C*%
X56354988Y-69193100D03*
%TD*%
%TO.P,REF\u002A\u002A,1*%
%TO.N,N/C*%
X66514988Y-66685790D03*
%TD*%
%TO.P,REF\u002A\u002A,1*%
%TO.N,N/C*%
X61434988Y-71733100D03*
%TD*%
%TO.P,REF\u002A\u002A,1*%
%TO.N,N/C*%
X63974988Y-71733100D03*
%TD*%
%TO.P,REF\u002A\u002A,1*%
%TO.N,N/C*%
X63974988Y-66685790D03*
%TD*%
%TO.P,REF\u002A\u002A,1*%
%TO.N,N/C*%
X53814988Y-69193100D03*
%TD*%
%TO.P,REF\u002A\u002A,1*%
%TO.N,N/C*%
X43654988Y-66685790D03*
%TD*%
%TO.P,REF\u002A\u002A,1*%
%TO.N,N/C*%
X46194988Y-66685790D03*
%TD*%
%TO.P,REF\u002A\u002A,1*%
%TO.N,N/C*%
X51274988Y-69193100D03*
%TD*%
%TO.P,REF\u002A\u002A,1*%
%TO.N,N/C*%
X48734988Y-66685790D03*
%TD*%
%TO.P,REF\u002A\u002A,1*%
%TO.N,N/C*%
X46194988Y-71733100D03*
%TD*%
%TO.P,REF\u002A\u002A,1*%
%TO.N,N/C*%
X43654988Y-71733100D03*
%TD*%
%TO.P,REF\u002A\u002A,1*%
%TO.N,N/C*%
X53814988Y-71733100D03*
%TD*%
%TO.P,REF\u002A\u002A,1*%
%TO.N,N/C*%
X46194988Y-69193100D03*
%TD*%
%TO.P,REF\u002A\u002A,1*%
%TO.N,N/C*%
X48734988Y-69193100D03*
%TD*%
%TO.P,REF\u002A\u002A,1*%
%TO.N,N/C*%
X43654988Y-69193100D03*
%TD*%
%TO.P,REF\u002A\u002A,1*%
%TO.N,N/C*%
X53814988Y-66685790D03*
%TD*%
%TO.P,REF\u002A\u002A,1*%
%TO.N,N/C*%
X48734988Y-71733100D03*
%TD*%
%TO.P,REF\u002A\u002A,1*%
%TO.N,N/C*%
X51274988Y-71733100D03*
%TD*%
%TO.P,REF\u002A\u002A,1*%
%TO.N,N/C*%
X51274988Y-66685790D03*
%TD*%
%TO.P,REF\u002A\u002A,1*%
%TO.N,N/C*%
X38574988Y-69193100D03*
%TD*%
%TO.P,REF\u002A\u002A,1*%
%TO.N,N/C*%
X18254988Y-66653100D03*
%TD*%
%TO.P,REF\u002A\u002A,1*%
%TO.N,N/C*%
X30954988Y-66653100D03*
%TD*%
%TO.P,REF\u002A\u002A,1*%
%TO.N,N/C*%
X10634988Y-69193100D03*
%TD*%
%TO.P,REF\u002A\u002A,1*%
%TO.N,N/C*%
X30954988Y-69193100D03*
%TD*%
%TO.P,REF\u002A\u002A,1*%
%TO.N,N/C*%
X10634988Y-66653100D03*
%TD*%
%TO.P,REF\u002A\u002A,1*%
%TO.N,N/C*%
X36034988Y-69193100D03*
%TD*%
%TO.P,REF\u002A\u002A,1*%
%TO.N,N/C*%
X15714988Y-71700410D03*
%TD*%
%TO.P,REF\u002A\u002A,1*%
%TO.N,N/C*%
X41114988Y-66653100D03*
%TD*%
%TO.P,REF\u002A\u002A,1*%
%TO.N,N/C*%
X13174988Y-71700410D03*
%TD*%
%TO.P,REF\u002A\u002A,1*%
%TO.N,N/C*%
X38574988Y-71700410D03*
%TD*%
%TO.P,REF\u002A\u002A,1*%
%TO.N,N/C*%
X25874988Y-66653100D03*
%TD*%
%TO.P,REF\u002A\u002A,1*%
%TO.N,N/C*%
X41114988Y-71700410D03*
%TD*%
%TO.P,REF\u002A\u002A,1*%
%TO.N,N/C*%
X33494988Y-69193100D03*
%TD*%
%TO.P,REF\u002A\u002A,1*%
%TO.N,N/C*%
X36034988Y-71700410D03*
%TD*%
%TO.P,REF\u002A\u002A,1*%
%TO.N,N/C*%
X38574988Y-66653100D03*
%TD*%
%TO.P,REF\u002A\u002A,1*%
%TO.N,N/C*%
X15714988Y-69193100D03*
%TD*%
%TO.P,REF\u002A\u002A,1*%
%TO.N,N/C*%
X41114988Y-69193100D03*
%TD*%
%TO.P,REF\u002A\u002A,1*%
%TO.N,N/C*%
X18254988Y-69193100D03*
%TD*%
%TO.P,REF\u002A\u002A,1*%
%TO.N,N/C*%
X15714988Y-66653100D03*
%TD*%
%TO.P,REF\u002A\u002A,1*%
%TO.N,N/C*%
X13174988Y-69193100D03*
%TD*%
%TO.P,REF\u002A\u002A,1*%
%TO.N,N/C*%
X18254988Y-71700410D03*
%TD*%
%TO.P,REF\u002A\u002A,1*%
%TO.N,N/C*%
X23334988Y-66653100D03*
%TD*%
%TO.P,REF\u002A\u002A,1*%
%TO.N,N/C*%
X28414988Y-71700410D03*
%TD*%
%TO.P,REF\u002A\u002A,1*%
%TO.N,N/C*%
X30954988Y-71700410D03*
%TD*%
%TO.P,REF\u002A\u002A,1*%
%TO.N,N/C*%
X25874988Y-69193100D03*
%TD*%
%TO.P,REF\u002A\u002A,1*%
%TO.N,N/C*%
X36034988Y-66653100D03*
%TD*%
%TO.P,REF\u002A\u002A,1*%
%TO.N,N/C*%
X8094988Y-66653100D03*
%TD*%
%TO.P,REF\u002A\u002A,1*%
%TO.N,N/C*%
X8094988Y-69193100D03*
%TD*%
%TO.P,REF\u002A\u002A,1*%
%TO.N,N/C*%
X20794988Y-71700410D03*
%TD*%
%TO.P,REF\u002A\u002A,1*%
%TO.N,N/C*%
X13174988Y-66653100D03*
%TD*%
%TO.P,REF\u002A\u002A,1*%
%TO.N,N/C*%
X8094988Y-71700410D03*
%TD*%
%TO.P,REF\u002A\u002A,1*%
%TO.N,N/C*%
X25874988Y-71700410D03*
%TD*%
%TO.P,REF\u002A\u002A,1*%
%TO.N,N/C*%
X28414988Y-69193100D03*
%TD*%
%TO.P,REF\u002A\u002A,1*%
%TO.N,N/C*%
X28414988Y-66653100D03*
%TD*%
%TO.P,REF\u002A\u002A,1*%
%TO.N,N/C*%
X33494988Y-71700410D03*
%TD*%
%TO.P,REF\u002A\u002A,1*%
%TO.N,N/C*%
X10634988Y-71700410D03*
%TD*%
%TO.P,REF\u002A\u002A,1*%
%TO.N,N/C*%
X23334988Y-71700410D03*
%TD*%
%TO.P,REF\u002A\u002A,1*%
%TO.N,N/C*%
X20794988Y-66653100D03*
%TD*%
%TO.P,REF\u002A\u002A,1*%
%TO.N,N/C*%
X20794988Y-69193100D03*
%TD*%
%TO.P,REF\u002A\u002A,1*%
%TO.N,N/C*%
X33494988Y-66653100D03*
%TD*%
%TO.P,REF\u002A\u002A,1*%
%TO.N,N/C*%
X23334988Y-69193100D03*
%TD*%
D11*
%TO.P,IO2,1,1*%
%TO.N,Net-(IO2-Pad1)*%
X15714988Y-43793100D03*
X13174988Y-43793100D03*
%TD*%
%TO.P,PROG1,1,1*%
%TO.N,Net-(J3-Pad28)*%
X20794988Y-42523100D03*
X18254988Y-42523100D03*
%TD*%
%TO.P,IO39,1,1*%
%TO.N,Net-(IO39-Pad1)*%
X20794988Y-17123100D03*
X18254988Y-17123100D03*
%TD*%
%TO.P,VIN1,1,1*%
%TO.N,VCC*%
X13174988Y-53953100D03*
X10634988Y-53953100D03*
%TD*%
%TO.P,GND4,1,1*%
%TO.N,GND*%
X11904988Y-56493100D03*
X9364988Y-56493100D03*
%TD*%
%TO.P,GND3,1,1*%
%TO.N,GND*%
X11904988Y-46333100D03*
X9364988Y-46333100D03*
%TD*%
%TO.P,GND2,1,1*%
%TO.N,GND*%
X11904988Y-13313100D03*
X9364988Y-13313100D03*
%TD*%
%TO.P,GND1,1,1*%
%TO.N,GND*%
X11904988Y-8233100D03*
X9364988Y-8233100D03*
%TD*%
%TO.P,5V0,1,1*%
%TO.N,+5V*%
X11904988Y-51413100D03*
X9364988Y-51413100D03*
%TD*%
%TO.P,3V32,1,1*%
%TO.N,+3V3*%
X13444988Y-48873100D03*
X10904988Y-48873100D03*
%TD*%
%TO.P,3V31,1,1*%
%TO.N,+3V3*%
X13174988Y-10773100D03*
X10634988Y-10773100D03*
%TD*%
%TO.P,MOSI1,1,1*%
%TO.N,Net-(J3-Pad22)*%
X20794988Y-34903100D03*
X18254988Y-34903100D03*
%TD*%
%TO.P,MISO1,1,1*%
%TO.N,Net-(J3-Pad21)*%
X15714988Y-33633100D03*
X13174988Y-33633100D03*
%TD*%
%TO.P,IO36,1,1*%
%TO.N,Net-(IO36-Pad1)*%
X15714988Y-15853100D03*
X13174988Y-15853100D03*
%TD*%
%TO.P,IO35,1,1*%
%TO.N,Net-(IO35-Pad1)*%
X20794988Y-19663100D03*
X18254988Y-19663100D03*
%TD*%
%TO.P,IO34,1,1*%
%TO.N,Net-(IO34-Pad1)*%
X15714988Y-18393100D03*
X13174988Y-18393100D03*
%TD*%
%TO.P,IO33,1,1*%
%TO.N,Net-(IO33-Pad1)*%
X20794988Y-22203100D03*
X18254988Y-22203100D03*
%TD*%
%TO.P,IO32,1,1*%
%TO.N,Net-(IO32-Pad1)*%
X15714988Y-20933100D03*
X13174988Y-20933100D03*
%TD*%
%TO.P,IO27,1,1*%
%TO.N,Net-(IO27-Pad1)*%
X15714988Y-26013100D03*
X13174988Y-26013100D03*
%TD*%
%TO.P,IO26,1,1*%
%TO.N,Net-(IO26-Pad1)*%
X20794988Y-24743100D03*
X18254988Y-24743100D03*
%TD*%
%TO.P,IO25,1,1*%
%TO.N,Net-(IO25-Pad1)*%
X15714988Y-23473100D03*
X13174988Y-23473100D03*
%TD*%
%TO.P,IO23,1,1*%
%TO.N,Net-(IO23-Pad1)*%
X15714988Y-31093100D03*
X13174988Y-31093100D03*
%TD*%
%TO.P,IO22,1,1*%
%TO.N,Net-(IO22-Pad1)*%
X20794988Y-32363100D03*
X18254988Y-32363100D03*
%TD*%
%TO.P,IO21,1,1*%
%TO.N,Net-(IO21-Pad1)*%
X15714988Y-36173100D03*
X13174988Y-36173100D03*
%TD*%
%TO.P,IO19,1,1*%
%TO.N,Net-(IO19-Pad1)*%
X20794988Y-37443100D03*
X18254988Y-37443100D03*
%TD*%
%TO.P,IO18,1,1*%
%TO.N,Net-(IO18-Pad1)*%
X15714988Y-38713100D03*
X13174988Y-38713100D03*
%TD*%
%TO.P,IO15,1,1*%
%TO.N,Net-(IO15-Pad1)*%
X20794988Y-45063100D03*
X18254988Y-45063100D03*
%TD*%
%TO.P,IO14,1,1*%
%TO.N,Net-(IO14-Pad1)*%
X18254988Y-27283100D03*
X20794988Y-27283100D03*
%TD*%
%TO.P,IO13,1,1*%
%TO.N,Net-(IO13-Pad1)*%
X20794988Y-29823100D03*
X18254988Y-29823100D03*
%TD*%
%TO.P,IO12,1,1*%
%TO.N,Net-(IO12-Pad1)*%
X15714988Y-28553100D03*
X13174988Y-28553100D03*
%TD*%
%TO.P,IO5,1,1*%
%TO.N,Net-(IO5-Pad1)*%
X20794988Y-39983100D03*
X18254988Y-39983100D03*
%TD*%
%TO.P,IO4,1,1*%
%TO.N,Net-(IO4-Pad1)*%
X15714988Y-41253100D03*
X13174988Y-41253100D03*
%TD*%
D12*
%TO.P,H3,1*%
%TO.N,N/C*%
X73325825Y-4325825D03*
X72000000Y-4875000D03*
X73325825Y-1674175D03*
X70674175Y-4325825D03*
D13*
X72000000Y-3000000D03*
D12*
X70674175Y-1674175D03*
X73875000Y-3000000D03*
X70125000Y-3000000D03*
X72000000Y-1125000D03*
%TD*%
%TO.P,H4,1*%
%TO.N,N/C*%
X73325825Y-73325825D03*
X72000000Y-73875000D03*
X73325825Y-70674175D03*
X70674175Y-73325825D03*
D13*
X72000000Y-72000000D03*
D12*
X70674175Y-70674175D03*
X73875000Y-72000000D03*
X70125000Y-72000000D03*
X72000000Y-70125000D03*
%TD*%
%TO.P,H2,1*%
%TO.N,N/C*%
X4325825Y-73325825D03*
X3000000Y-73875000D03*
X4325825Y-70674175D03*
X1674175Y-73325825D03*
D13*
X3000000Y-72000000D03*
D12*
X1674175Y-70674175D03*
X4875000Y-72000000D03*
X1125000Y-72000000D03*
X3000000Y-70125000D03*
%TD*%
%TO.P,H1,1*%
%TO.N,N/C*%
X4325825Y-4325825D03*
X3000000Y-4875000D03*
X4325825Y-1674175D03*
X1674175Y-4325825D03*
D13*
X3000000Y-3000000D03*
D12*
X1674175Y-1674175D03*
X4875000Y-3000000D03*
X1125000Y-3000000D03*
X3000000Y-1125000D03*
%TD*%
D14*
%TO.P,J3,1,GND*%
%TO.N,GND*%
X3014988Y-8233100D03*
D15*
%TO.P,J3,2,GND*%
X5554988Y-8233100D03*
%TO.P,J3,3,3V3*%
%TO.N,+3V3*%
X3014988Y-10773100D03*
%TO.P,J3,4,3V3*%
X5554988Y-10773100D03*
%TO.P,J3,5,GND*%
%TO.N,GND*%
X3014988Y-13313100D03*
%TO.P,J3,6,GND*%
X5554988Y-13313100D03*
%TO.P,J3,7,IO36*%
%TO.N,Net-(IO36-Pad1)*%
X3014988Y-15853100D03*
%TO.P,J3,8,IO39*%
%TO.N,Net-(IO39-Pad1)*%
X5554988Y-15853100D03*
%TO.P,J3,9,IO34*%
%TO.N,Net-(IO34-Pad1)*%
X3014988Y-18393100D03*
%TO.P,J3,10,IO35*%
%TO.N,Net-(IO35-Pad1)*%
X5554988Y-18393100D03*
%TO.P,J3,11,IO32*%
%TO.N,Net-(IO32-Pad1)*%
X3014988Y-20933100D03*
%TO.P,J3,12,IO33*%
%TO.N,Net-(IO33-Pad1)*%
X5554988Y-20933100D03*
%TO.P,J3,13,IO25*%
%TO.N,Net-(IO25-Pad1)*%
X3014988Y-23473100D03*
%TO.P,J3,14,IO26*%
%TO.N,Net-(IO26-Pad1)*%
X5554988Y-23473100D03*
%TO.P,J3,15,IO27*%
%TO.N,Net-(IO27-Pad1)*%
X3014988Y-26013100D03*
%TO.P,J3,16,IO14*%
%TO.N,Net-(IO14-Pad1)*%
X5554988Y-26013100D03*
%TO.P,J3,17,IO12*%
%TO.N,Net-(IO12-Pad1)*%
X3014988Y-28553100D03*
%TO.P,J3,18,IO13*%
%TO.N,Net-(IO13-Pad1)*%
X5554988Y-28553100D03*
%TO.P,J3,19,IO23*%
%TO.N,Net-(IO23-Pad1)*%
X3014988Y-31093100D03*
%TO.P,J3,20,IO22*%
%TO.N,Net-(IO22-Pad1)*%
X5554988Y-31093100D03*
%TO.P,J3,21,MISO*%
%TO.N,Net-(J3-Pad21)*%
X3014988Y-33633100D03*
%TO.P,J3,22,MOSI*%
%TO.N,Net-(J3-Pad22)*%
X5554988Y-33633100D03*
%TO.P,J3,23,IO21*%
%TO.N,Net-(IO21-Pad1)*%
X3014988Y-36173100D03*
%TO.P,J3,24,IO19*%
%TO.N,Net-(IO19-Pad1)*%
X5554988Y-36173100D03*
%TO.P,J3,25,IO18*%
%TO.N,Net-(IO18-Pad1)*%
X3014988Y-38713100D03*
%TO.P,J3,26,IO5*%
%TO.N,Net-(IO5-Pad1)*%
X5554988Y-38713100D03*
%TO.P,J3,27,IO4*%
%TO.N,Net-(IO4-Pad1)*%
X3014988Y-41253100D03*
%TO.P,J3,28,PROG*%
%TO.N,Net-(J3-Pad28)*%
X5554988Y-41253100D03*
%TO.P,J3,29,IO2*%
%TO.N,Net-(IO2-Pad1)*%
X3014988Y-43793100D03*
%TO.P,J3,30,IO15*%
%TO.N,Net-(IO15-Pad1)*%
X5554988Y-43793100D03*
%TO.P,J3,31,GND*%
%TO.N,GND*%
X3014988Y-46333100D03*
%TO.P,J3,32,GND*%
X5554988Y-46333100D03*
%TO.P,J3,33,3V3*%
%TO.N,+3V3*%
X3014988Y-48873100D03*
%TO.P,J3,34,3V3*%
X5554988Y-48873100D03*
%TO.P,J3,35,5V0*%
%TO.N,+5V*%
X3014988Y-51413100D03*
%TO.P,J3,36,5V0*%
X5554988Y-51413100D03*
%TO.P,J3,37,VIN*%
%TO.N,VCC*%
X3014988Y-53953100D03*
%TO.P,J3,38,VIN*%
X5554988Y-53953100D03*
%TO.P,J3,39,GND*%
%TO.N,GND*%
X3014988Y-56493100D03*
%TO.P,J3,40,GND*%
X5554988Y-56493100D03*
%TD*%
D16*
%TO.N,GND*%
X3014988Y-8233100D02*
X11904988Y-8233100D01*
%TO.N,+3V3*%
X3014988Y-10773100D02*
X13174988Y-10773100D01*
%TO.N,GND*%
X3014988Y-13313100D02*
X11904988Y-13313100D01*
%TO.N,+3V3*%
X3014988Y-48873100D02*
X13444988Y-48873100D01*
%TO.N,+5V*%
X3014988Y-51413100D02*
X11904988Y-51413100D01*
%TO.N,VCC*%
X13174988Y-53953100D02*
X3014988Y-53953100D01*
%TO.N,GND*%
X3014988Y-56493100D02*
X11904988Y-56493100D01*
X11904988Y-46333100D02*
X3014988Y-46333100D01*
D17*
%TO.N,Net-(IO2-Pad1)*%
X15714988Y-43793100D02*
X9364988Y-43793100D01*
%TO.N,Net-(IO15-Pad1)*%
X8094988Y-43793100D02*
X9364988Y-45063100D01*
%TO.N,Net-(IO2-Pad1)*%
X4284988Y-42523100D02*
X3014988Y-43793100D01*
X9364988Y-43793100D02*
X8094988Y-42523100D01*
X8094988Y-42523100D02*
X4284988Y-42523100D01*
%TO.N,Net-(IO15-Pad1)*%
X5554988Y-43793100D02*
X8094988Y-43793100D01*
X9364988Y-45063100D02*
X20794988Y-45063100D01*
%TO.N,Net-(IO4-Pad1)*%
X15714988Y-41253100D02*
X9364988Y-41253100D01*
%TO.N,Net-(J3-Pad28)*%
X8094988Y-41253100D02*
X9364988Y-42523100D01*
%TO.N,Net-(IO4-Pad1)*%
X4284988Y-39983100D02*
X3014988Y-41253100D01*
X9364988Y-41253100D02*
X8094988Y-39983100D01*
X8094988Y-39983100D02*
X4284988Y-39983100D01*
%TO.N,Net-(J3-Pad28)*%
X5554988Y-41253100D02*
X8094988Y-41253100D01*
X9364988Y-42523100D02*
X20794988Y-42523100D01*
%TO.N,Net-(IO18-Pad1)*%
X15714988Y-38713100D02*
X9364988Y-38713100D01*
%TO.N,Net-(IO5-Pad1)*%
X8094988Y-38713100D02*
X9364988Y-39983100D01*
%TO.N,Net-(IO18-Pad1)*%
X4284988Y-37443100D02*
X3014988Y-38713100D01*
X9364988Y-38713100D02*
X8094988Y-37443100D01*
X8094988Y-37443100D02*
X4284988Y-37443100D01*
%TO.N,Net-(IO5-Pad1)*%
X5554988Y-38713100D02*
X8094988Y-38713100D01*
X9364988Y-39983100D02*
X20794988Y-39983100D01*
%TO.N,Net-(IO21-Pad1)*%
X15714988Y-36173100D02*
X9364988Y-36173100D01*
%TO.N,Net-(IO19-Pad1)*%
X8094988Y-36173100D02*
X9364988Y-37443100D01*
%TO.N,Net-(IO21-Pad1)*%
X4284988Y-34903100D02*
X3014988Y-36173100D01*
X9364988Y-36173100D02*
X8094988Y-34903100D01*
X8094988Y-34903100D02*
X4284988Y-34903100D01*
%TO.N,Net-(IO19-Pad1)*%
X5554988Y-36173100D02*
X8094988Y-36173100D01*
X9364988Y-37443100D02*
X20794988Y-37443100D01*
%TO.N,Net-(J3-Pad21)*%
X15714988Y-33633100D02*
X9364988Y-33633100D01*
%TO.N,Net-(J3-Pad22)*%
X8094988Y-33633100D02*
X9364988Y-34903100D01*
%TO.N,Net-(J3-Pad21)*%
X4284988Y-32363100D02*
X3014988Y-33633100D01*
X9364988Y-33633100D02*
X8094988Y-32363100D01*
X8094988Y-32363100D02*
X4284988Y-32363100D01*
%TO.N,Net-(J3-Pad22)*%
X5554988Y-33633100D02*
X8094988Y-33633100D01*
X9364988Y-34903100D02*
X20794988Y-34903100D01*
%TO.N,Net-(IO23-Pad1)*%
X15714988Y-31093100D02*
X9364988Y-31093100D01*
%TO.N,Net-(IO22-Pad1)*%
X8094988Y-31093100D02*
X9364988Y-32363100D01*
%TO.N,Net-(IO23-Pad1)*%
X4284988Y-29823100D02*
X3014988Y-31093100D01*
X9364988Y-31093100D02*
X8094988Y-29823100D01*
X8094988Y-29823100D02*
X4284988Y-29823100D01*
%TO.N,Net-(IO22-Pad1)*%
X5554988Y-31093100D02*
X8094988Y-31093100D01*
X9364988Y-32363100D02*
X20794988Y-32363100D01*
%TO.N,Net-(IO12-Pad1)*%
X15714988Y-28553100D02*
X9364988Y-28553100D01*
%TO.N,Net-(IO13-Pad1)*%
X8094988Y-28553100D02*
X9364988Y-29823100D01*
%TO.N,Net-(IO12-Pad1)*%
X4284988Y-27283100D02*
X3014988Y-28553100D01*
X9364988Y-28553100D02*
X8094988Y-27283100D01*
X8094988Y-27283100D02*
X4284988Y-27283100D01*
%TO.N,Net-(IO13-Pad1)*%
X5554988Y-28553100D02*
X8094988Y-28553100D01*
X9364988Y-29823100D02*
X20794988Y-29823100D01*
%TO.N,Net-(IO27-Pad1)*%
X15714988Y-26013100D02*
X9364988Y-26013100D01*
%TO.N,Net-(IO14-Pad1)*%
X8094988Y-26013100D02*
X9364988Y-27283100D01*
%TO.N,Net-(IO27-Pad1)*%
X4284988Y-24743100D02*
X3014988Y-26013100D01*
X9364988Y-26013100D02*
X8094988Y-24743100D01*
X8094988Y-24743100D02*
X4284988Y-24743100D01*
%TO.N,Net-(IO14-Pad1)*%
X5554988Y-26013100D02*
X8094988Y-26013100D01*
X9364988Y-27283100D02*
X20794988Y-27283100D01*
%TO.N,Net-(IO25-Pad1)*%
X15714988Y-23473100D02*
X9364988Y-23473100D01*
%TO.N,Net-(IO26-Pad1)*%
X8094988Y-23473100D02*
X9364988Y-24743100D01*
%TO.N,Net-(IO25-Pad1)*%
X4284988Y-22203100D02*
X3014988Y-23473100D01*
X9364988Y-23473100D02*
X8094988Y-22203100D01*
X8094988Y-22203100D02*
X4284988Y-22203100D01*
%TO.N,Net-(IO26-Pad1)*%
X5554988Y-23473100D02*
X8094988Y-23473100D01*
X9364988Y-24743100D02*
X20794988Y-24743100D01*
%TO.N,Net-(IO32-Pad1)*%
X15714988Y-20933100D02*
X9364988Y-20933100D01*
%TO.N,Net-(IO33-Pad1)*%
X8094988Y-20933100D02*
X9364988Y-22203100D01*
%TO.N,Net-(IO32-Pad1)*%
X4284988Y-19663100D02*
X3014988Y-20933100D01*
X9364988Y-20933100D02*
X8094988Y-19663100D01*
X8094988Y-19663100D02*
X4284988Y-19663100D01*
%TO.N,Net-(IO33-Pad1)*%
X5554988Y-20933100D02*
X8094988Y-20933100D01*
X9364988Y-22203100D02*
X20794988Y-22203100D01*
%TO.N,Net-(IO34-Pad1)*%
X15714988Y-18393100D02*
X9364988Y-18393100D01*
%TO.N,Net-(IO35-Pad1)*%
X8094988Y-18393100D02*
X9364988Y-19663100D01*
%TO.N,Net-(IO34-Pad1)*%
X4284988Y-17123100D02*
X3014988Y-18393100D01*
X9364988Y-18393100D02*
X8094988Y-17123100D01*
X8094988Y-17123100D02*
X4284988Y-17123100D01*
%TO.N,Net-(IO35-Pad1)*%
X5554988Y-18393100D02*
X8094988Y-18393100D01*
X9364988Y-19663100D02*
X20794988Y-19663100D01*
%TO.N,Net-(IO36-Pad1)*%
X15714988Y-15853100D02*
X9364988Y-15853100D01*
X9364988Y-15853100D02*
X8094988Y-14583100D01*
X8094988Y-14583100D02*
X4284988Y-14583100D01*
X4284988Y-14583100D02*
X3014988Y-15853100D01*
%TO.N,Net-(IO39-Pad1)*%
X9364988Y-17123100D02*
X20794988Y-17123100D01*
X8094988Y-15853100D02*
X9364988Y-17123100D01*
X5554988Y-15853100D02*
X8094988Y-15853100D01*
%TD*%
M02*
