%TF.GenerationSoftware,KiCad,Pcbnew,(6.0.1)*%
%TF.CreationDate,2023-02-05T21:11:55-08:00*%
%TF.ProjectId,ESP32 Carrier Protoboard - R1,45535033-3220-4436-9172-726965722050,rev?*%
%TF.SameCoordinates,Original*%
%TF.FileFunction,Soldermask,Bot*%
%TF.FilePolarity,Negative*%
%FSLAX46Y46*%
G04 Gerber Fmt 4.6, Leading zero omitted, Abs format (unit mm)*
G04 Created by KiCad (PCBNEW (6.0.1)) date 2023-02-05 21:11:55*
%MOMM*%
%LPD*%
G01*
G04 APERTURE LIST*
G04 Aperture macros list*
%AMRoundRect*
0 Rectangle with rounded corners*
0 $1 Rounding radius*
0 $2 $3 $4 $5 $6 $7 $8 $9 X,Y pos of 4 corners*
0 Add a 4 corners polygon primitive as box body*
4,1,4,$2,$3,$4,$5,$6,$7,$8,$9,$2,$3,0*
0 Add four circle primitives for the rounded corners*
1,1,$1+$1,$2,$3*
1,1,$1+$1,$4,$5*
1,1,$1+$1,$6,$7*
1,1,$1+$1,$8,$9*
0 Add four rect primitives between the rounded corners*
20,1,$1+$1,$2,$3,$4,$5,0*
20,1,$1+$1,$4,$5,$6,$7,0*
20,1,$1+$1,$6,$7,$8,$9,0*
20,1,$1+$1,$8,$9,$2,$3,0*%
G04 Aperture macros list end*
%ADD10C,1.600000*%
%ADD11C,1.751000*%
%ADD12C,0.900000*%
%ADD13C,5.100000*%
%ADD14RoundRect,0.050000X-0.850000X-0.850000X0.850000X-0.850000X0.850000X0.850000X-0.850000X0.850000X0*%
%ADD15O,1.800000X1.800000*%
G04 APERTURE END LIST*
D10*
%TO.C,REF\u002A\u002A*%
X63974988Y-3153100D03*
%TD*%
%TO.C,REF\u002A\u002A*%
X58894988Y-3153100D03*
%TD*%
%TO.C,REF\u002A\u002A*%
X66514988Y-3153100D03*
%TD*%
%TO.C,REF\u002A\u002A*%
X61434988Y-3153100D03*
%TD*%
%TO.C,REF\u002A\u002A*%
X63974988Y-5693100D03*
%TD*%
%TO.C,REF\u002A\u002A*%
X58894988Y-5693100D03*
%TD*%
%TO.C,REF\u002A\u002A*%
X66514988Y-5693100D03*
%TD*%
%TO.C,REF\u002A\u002A*%
X61434988Y-5693100D03*
%TD*%
%TO.C,REF\u002A\u002A*%
X18218699Y-3121725D03*
%TD*%
%TO.C,REF\u002A\u002A*%
X23298699Y-3121725D03*
%TD*%
%TO.C,REF\u002A\u002A*%
X15678699Y-3121725D03*
%TD*%
%TO.C,REF\u002A\u002A*%
X20758699Y-3121725D03*
%TD*%
%TO.C,REF\u002A\u002A*%
X25838699Y-3121725D03*
%TD*%
%TO.C,REF\u002A\u002A*%
X18254988Y-5693100D03*
%TD*%
%TO.C,REF\u002A\u002A*%
X23334988Y-5693100D03*
%TD*%
%TO.C,REF\u002A\u002A*%
X15714988Y-5693100D03*
%TD*%
%TO.C,REF\u002A\u002A*%
X20794988Y-5693100D03*
%TD*%
%TO.C,REF\u002A\u002A*%
X25874988Y-5693100D03*
%TD*%
%TO.C,REF\u002A\u002A*%
X20758699Y-8212925D03*
%TD*%
%TO.C,REF\u002A\u002A*%
X23298699Y-8212925D03*
%TD*%
%TO.C,REF\u002A\u002A*%
X25838699Y-8212925D03*
%TD*%
%TO.C,REF\u002A\u002A*%
X20758699Y-10745127D03*
%TD*%
%TO.C,REF\u002A\u002A*%
X23298699Y-10745127D03*
%TD*%
%TO.C,REF\u002A\u002A*%
X25838699Y-10745127D03*
%TD*%
%TO.C,REF\u002A\u002A*%
X20794988Y-13313100D03*
%TD*%
%TO.C,REF\u002A\u002A*%
X23334988Y-13313100D03*
%TD*%
%TO.C,REF\u002A\u002A*%
X25874988Y-13313100D03*
%TD*%
%TO.C,REF\u002A\u002A*%
X20794988Y-48873100D03*
%TD*%
%TO.C,REF\u002A\u002A*%
X23334988Y-48873100D03*
%TD*%
%TO.C,REF\u002A\u002A*%
X25874988Y-48873100D03*
%TD*%
%TO.C,REF\u002A\u002A*%
X20794988Y-51413100D03*
%TD*%
%TO.C,REF\u002A\u002A*%
X23334988Y-51413100D03*
%TD*%
%TO.C,REF\u002A\u002A*%
X25874988Y-51413100D03*
%TD*%
%TO.C,REF\u002A\u002A*%
X20794988Y-53953100D03*
%TD*%
%TO.C,REF\u002A\u002A*%
X23334988Y-53953100D03*
%TD*%
%TO.C,REF\u002A\u002A*%
X25874988Y-53953100D03*
%TD*%
%TO.C,REF\u002A\u002A*%
X20794988Y-56493100D03*
%TD*%
%TO.C,REF\u002A\u002A*%
X23334988Y-56493100D03*
%TD*%
%TO.C,REF\u002A\u002A*%
X25874988Y-56493100D03*
%TD*%
%TO.C,REF\u002A\u002A*%
X10634988Y-61573100D03*
%TD*%
%TO.C,REF\u002A\u002A*%
X8094988Y-61573100D03*
%TD*%
%TO.C,REF\u002A\u002A*%
X5554988Y-61573100D03*
%TD*%
%TO.C,REF\u002A\u002A*%
X3014988Y-61573100D03*
%TD*%
%TO.C,REF\u002A\u002A*%
X13174988Y-61573100D03*
%TD*%
%TO.C,REF\u002A\u002A*%
X10634988Y-64113100D03*
%TD*%
%TO.C,REF\u002A\u002A*%
X8094988Y-64113100D03*
%TD*%
%TO.C,REF\u002A\u002A*%
X5554988Y-64113100D03*
%TD*%
%TO.C,REF\u002A\u002A*%
X3014988Y-64113100D03*
%TD*%
%TO.C,REF\u002A\u002A*%
X13174988Y-64113100D03*
%TD*%
%TO.C,REF\u002A\u002A*%
X23303165Y-58950754D03*
%TD*%
%TO.C,REF\u002A\u002A*%
X20763165Y-58950754D03*
%TD*%
%TO.C,REF\u002A\u002A*%
X18223165Y-58950754D03*
%TD*%
%TO.C,REF\u002A\u002A*%
X15683165Y-58950754D03*
%TD*%
%TO.C,REF\u002A\u002A*%
X25843165Y-58950754D03*
%TD*%
%TO.C,REF\u002A\u002A*%
X23334988Y-61573100D03*
%TD*%
%TO.C,REF\u002A\u002A*%
X20794988Y-61573100D03*
%TD*%
%TO.C,REF\u002A\u002A*%
X18254988Y-61573100D03*
%TD*%
%TO.C,REF\u002A\u002A*%
X15714988Y-61573100D03*
%TD*%
%TO.C,REF\u002A\u002A*%
X25874988Y-61573100D03*
%TD*%
%TO.C,REF\u002A\u002A*%
X23334988Y-64113100D03*
%TD*%
%TO.C,REF\u002A\u002A*%
X20794988Y-64113100D03*
%TD*%
%TO.C,REF\u002A\u002A*%
X18254988Y-64113100D03*
%TD*%
%TO.C,REF\u002A\u002A*%
X15714988Y-64113100D03*
%TD*%
%TO.C,REF\u002A\u002A*%
X25874988Y-64113100D03*
%TD*%
%TO.C,REF\u002A\u002A*%
X56354988Y-3153100D03*
%TD*%
%TO.C,REF\u002A\u002A*%
X43654988Y-3153100D03*
%TD*%
%TO.C,REF\u002A\u002A*%
X46194988Y-5693100D03*
%TD*%
%TO.C,REF\u002A\u002A*%
X43654988Y-5693100D03*
%TD*%
%TO.C,REF\u002A\u002A*%
X46194988Y-3153100D03*
%TD*%
%TO.C,REF\u002A\u002A*%
X48734988Y-5693100D03*
%TD*%
%TO.C,REF\u002A\u002A*%
X51274988Y-3153100D03*
%TD*%
%TO.C,REF\u002A\u002A*%
X48734988Y-3153100D03*
%TD*%
%TO.C,REF\u002A\u002A*%
X53814988Y-5693100D03*
%TD*%
%TO.C,REF\u002A\u002A*%
X51274988Y-5693100D03*
%TD*%
%TO.C,REF\u002A\u002A*%
X56354988Y-5693100D03*
%TD*%
%TO.C,REF\u002A\u002A*%
X53814988Y-3153100D03*
%TD*%
%TO.C,REF\u002A\u002A*%
X30954988Y-3153100D03*
%TD*%
%TO.C,REF\u002A\u002A*%
X33494988Y-5693100D03*
%TD*%
%TO.C,REF\u002A\u002A*%
X41114988Y-3153100D03*
%TD*%
%TO.C,REF\u002A\u002A*%
X30954988Y-5693100D03*
%TD*%
%TO.C,REF\u002A\u002A*%
X38574988Y-5693100D03*
%TD*%
%TO.C,REF\u002A\u002A*%
X33494988Y-3153100D03*
%TD*%
%TO.C,REF\u002A\u002A*%
X28414988Y-3153100D03*
%TD*%
%TO.C,REF\u002A\u002A*%
X28414988Y-5693100D03*
%TD*%
%TO.C,REF\u002A\u002A*%
X36034988Y-3153100D03*
%TD*%
%TO.C,REF\u002A\u002A*%
X41114988Y-5693100D03*
%TD*%
%TO.C,REF\u002A\u002A*%
X38574988Y-3153100D03*
%TD*%
%TO.C,REF\u002A\u002A*%
X36034988Y-5693100D03*
%TD*%
%TO.C,REF\u002A\u002A*%
X33494988Y-64113100D03*
%TD*%
%TO.C,REF\u002A\u002A*%
X36034988Y-64113100D03*
%TD*%
%TO.C,REF\u002A\u002A*%
X38574988Y-64113100D03*
%TD*%
%TO.C,REF\u002A\u002A*%
X28414988Y-64113100D03*
%TD*%
%TO.C,REF\u002A\u002A*%
X30954988Y-64113100D03*
%TD*%
%TO.C,REF\u002A\u002A*%
X41114988Y-64113100D03*
%TD*%
%TO.C,REF\u002A\u002A*%
X69054988Y-64113100D03*
%TD*%
%TO.C,REF\u002A\u002A*%
X51274988Y-64113100D03*
%TD*%
%TO.C,REF\u002A\u002A*%
X48734988Y-64113100D03*
%TD*%
%TO.C,REF\u002A\u002A*%
X58894988Y-64113100D03*
%TD*%
%TO.C,REF\u002A\u002A*%
X53814988Y-64113100D03*
%TD*%
%TO.C,REF\u002A\u002A*%
X71594988Y-64113100D03*
%TD*%
%TO.C,REF\u002A\u002A*%
X66514988Y-64113100D03*
%TD*%
%TO.C,REF\u002A\u002A*%
X46194988Y-64113100D03*
%TD*%
%TO.C,REF\u002A\u002A*%
X61434988Y-64113100D03*
%TD*%
%TO.C,REF\u002A\u002A*%
X63974988Y-64113100D03*
%TD*%
%TO.C,REF\u002A\u002A*%
X43654988Y-64113100D03*
%TD*%
%TO.C,REF\u002A\u002A*%
X56354988Y-64113100D03*
%TD*%
%TO.C,REF\u002A\u002A*%
X41114988Y-8233100D03*
%TD*%
%TO.C,REF\u002A\u002A*%
X28414988Y-8233100D03*
%TD*%
%TO.C,REF\u002A\u002A*%
X30954988Y-10773100D03*
%TD*%
%TO.C,REF\u002A\u002A*%
X28414988Y-10773100D03*
%TD*%
%TO.C,REF\u002A\u002A*%
X30954988Y-8233100D03*
%TD*%
%TO.C,REF\u002A\u002A*%
X33494988Y-10773100D03*
%TD*%
%TO.C,REF\u002A\u002A*%
X36034988Y-8233100D03*
%TD*%
%TO.C,REF\u002A\u002A*%
X33494988Y-8233100D03*
%TD*%
%TO.C,REF\u002A\u002A*%
X38574988Y-10773100D03*
%TD*%
%TO.C,REF\u002A\u002A*%
X33494988Y-23473100D03*
%TD*%
%TO.C,REF\u002A\u002A*%
X41114988Y-23473100D03*
%TD*%
%TO.C,REF\u002A\u002A*%
X30954988Y-18393100D03*
%TD*%
%TO.C,REF\u002A\u002A*%
X33494988Y-20933100D03*
%TD*%
%TO.C,REF\u002A\u002A*%
X38574988Y-23473100D03*
%TD*%
%TO.C,REF\u002A\u002A*%
X41114988Y-13313100D03*
%TD*%
%TO.C,REF\u002A\u002A*%
X36034988Y-10773100D03*
%TD*%
%TO.C,REF\u002A\u002A*%
X41114988Y-10773100D03*
%TD*%
%TO.C,REF\u002A\u002A*%
X38574988Y-8233100D03*
%TD*%
%TO.C,REF\u002A\u002A*%
X38574988Y-18393100D03*
%TD*%
%TO.C,REF\u002A\u002A*%
X41114988Y-20933100D03*
%TD*%
%TO.C,REF\u002A\u002A*%
X36034988Y-23473100D03*
%TD*%
%TO.C,REF\u002A\u002A*%
X30954988Y-15853100D03*
%TD*%
%TO.C,REF\u002A\u002A*%
X28414988Y-13313100D03*
%TD*%
%TO.C,REF\u002A\u002A*%
X30954988Y-20933100D03*
%TD*%
%TO.C,REF\u002A\u002A*%
X36034988Y-15853100D03*
%TD*%
%TO.C,REF\u002A\u002A*%
X28414988Y-20933100D03*
%TD*%
%TO.C,REF\u002A\u002A*%
X33494988Y-18393100D03*
%TD*%
%TO.C,REF\u002A\u002A*%
X28414988Y-15853100D03*
%TD*%
%TO.C,REF\u002A\u002A*%
X36034988Y-20933100D03*
%TD*%
%TO.C,REF\u002A\u002A*%
X30954988Y-13313100D03*
%TD*%
%TO.C,REF\u002A\u002A*%
X38574988Y-20933100D03*
%TD*%
%TO.C,REF\u002A\u002A*%
X28414988Y-23473100D03*
%TD*%
%TO.C,REF\u002A\u002A*%
X41114988Y-15853100D03*
%TD*%
%TO.C,REF\u002A\u002A*%
X30954988Y-23473100D03*
%TD*%
%TO.C,REF\u002A\u002A*%
X33494988Y-15853100D03*
%TD*%
%TO.C,REF\u002A\u002A*%
X41114988Y-18393100D03*
%TD*%
%TO.C,REF\u002A\u002A*%
X38574988Y-13313100D03*
%TD*%
%TO.C,REF\u002A\u002A*%
X33494988Y-13313100D03*
%TD*%
%TO.C,REF\u002A\u002A*%
X36034988Y-13313100D03*
%TD*%
%TO.C,REF\u002A\u002A*%
X28414988Y-18393100D03*
%TD*%
%TO.C,REF\u002A\u002A*%
X38574988Y-15853100D03*
%TD*%
%TO.C,REF\u002A\u002A*%
X36034988Y-18393100D03*
%TD*%
%TO.C,REF\u002A\u002A*%
X33494988Y-36173100D03*
%TD*%
%TO.C,REF\u002A\u002A*%
X30954988Y-31093100D03*
%TD*%
%TO.C,REF\u002A\u002A*%
X33494988Y-46333100D03*
%TD*%
%TO.C,REF\u002A\u002A*%
X38574988Y-41253100D03*
%TD*%
%TO.C,REF\u002A\u002A*%
X41114988Y-48873100D03*
%TD*%
%TO.C,REF\u002A\u002A*%
X38574988Y-36173100D03*
%TD*%
%TO.C,REF\u002A\u002A*%
X41114988Y-36173100D03*
%TD*%
%TO.C,REF\u002A\u002A*%
X30954988Y-43793100D03*
%TD*%
%TO.C,REF\u002A\u002A*%
X41114988Y-53953100D03*
%TD*%
%TO.C,REF\u002A\u002A*%
X33494988Y-33633100D03*
%TD*%
%TO.C,REF\u002A\u002A*%
X36034988Y-46333100D03*
%TD*%
%TO.C,REF\u002A\u002A*%
X28414988Y-43793100D03*
%TD*%
%TO.C,REF\u002A\u002A*%
X41114988Y-26013100D03*
%TD*%
%TO.C,REF\u002A\u002A*%
X36034988Y-43793100D03*
%TD*%
%TO.C,REF\u002A\u002A*%
X36034988Y-51413100D03*
%TD*%
%TO.C,REF\u002A\u002A*%
X30954988Y-46333100D03*
%TD*%
%TO.C,REF\u002A\u002A*%
X41114988Y-38713100D03*
%TD*%
%TO.C,REF\u002A\u002A*%
X36034988Y-48873100D03*
%TD*%
%TO.C,REF\u002A\u002A*%
X30954988Y-51413100D03*
%TD*%
%TO.C,REF\u002A\u002A*%
X41114988Y-46333100D03*
%TD*%
%TO.C,REF\u002A\u002A*%
X33494988Y-43793100D03*
%TD*%
%TO.C,REF\u002A\u002A*%
X33494988Y-59033100D03*
%TD*%
%TO.C,REF\u002A\u002A*%
X33494988Y-53953100D03*
%TD*%
%TO.C,REF\u002A\u002A*%
X28414988Y-51413100D03*
%TD*%
%TO.C,REF\u002A\u002A*%
X38574988Y-31093100D03*
%TD*%
%TO.C,REF\u002A\u002A*%
X38574988Y-51413100D03*
%TD*%
%TO.C,REF\u002A\u002A*%
X36034988Y-61573100D03*
%TD*%
%TO.C,REF\u002A\u002A*%
X33494988Y-61573100D03*
%TD*%
%TO.C,REF\u002A\u002A*%
X30954988Y-36173100D03*
%TD*%
%TO.C,REF\u002A\u002A*%
X41114988Y-33633100D03*
%TD*%
%TO.C,REF\u002A\u002A*%
X28414988Y-41253100D03*
%TD*%
%TO.C,REF\u002A\u002A*%
X28414988Y-28553100D03*
%TD*%
%TO.C,REF\u002A\u002A*%
X28414988Y-36173100D03*
%TD*%
%TO.C,REF\u002A\u002A*%
X41114988Y-28553100D03*
%TD*%
%TO.C,REF\u002A\u002A*%
X30954988Y-33633100D03*
%TD*%
%TO.C,REF\u002A\u002A*%
X30954988Y-59033100D03*
%TD*%
%TO.C,REF\u002A\u002A*%
X36034988Y-36173100D03*
%TD*%
%TO.C,REF\u002A\u002A*%
X30954988Y-56493100D03*
%TD*%
%TO.C,REF\u002A\u002A*%
X30954988Y-53953100D03*
%TD*%
%TO.C,REF\u002A\u002A*%
X41114988Y-51413100D03*
%TD*%
%TO.C,REF\u002A\u002A*%
X30954988Y-38713100D03*
%TD*%
%TO.C,REF\u002A\u002A*%
X38574988Y-46333100D03*
%TD*%
%TO.C,REF\u002A\u002A*%
X36034988Y-33633100D03*
%TD*%
%TO.C,REF\u002A\u002A*%
X30954988Y-26013100D03*
%TD*%
%TO.C,REF\u002A\u002A*%
X36034988Y-59033100D03*
%TD*%
%TO.C,REF\u002A\u002A*%
X38574988Y-48873100D03*
%TD*%
%TO.C,REF\u002A\u002A*%
X30954988Y-41253100D03*
%TD*%
%TO.C,REF\u002A\u002A*%
X36034988Y-28553100D03*
%TD*%
%TO.C,REF\u002A\u002A*%
X38574988Y-61573100D03*
%TD*%
%TO.C,REF\u002A\u002A*%
X33494988Y-28553100D03*
%TD*%
%TO.C,REF\u002A\u002A*%
X28414988Y-59033100D03*
%TD*%
%TO.C,REF\u002A\u002A*%
X38574988Y-59033100D03*
%TD*%
%TO.C,REF\u002A\u002A*%
X33494988Y-48873100D03*
%TD*%
%TO.C,REF\u002A\u002A*%
X30954988Y-28553100D03*
%TD*%
%TO.C,REF\u002A\u002A*%
X36034988Y-56493100D03*
%TD*%
%TO.C,REF\u002A\u002A*%
X41114988Y-41253100D03*
%TD*%
%TO.C,REF\u002A\u002A*%
X36034988Y-41253100D03*
%TD*%
%TO.C,REF\u002A\u002A*%
X41114988Y-43793100D03*
%TD*%
%TO.C,REF\u002A\u002A*%
X28414988Y-56493100D03*
%TD*%
%TO.C,REF\u002A\u002A*%
X33494988Y-31093100D03*
%TD*%
%TO.C,REF\u002A\u002A*%
X33494988Y-51413100D03*
%TD*%
%TO.C,REF\u002A\u002A*%
X38574988Y-56493100D03*
%TD*%
%TO.C,REF\u002A\u002A*%
X33494988Y-41253100D03*
%TD*%
%TO.C,REF\u002A\u002A*%
X38574988Y-33633100D03*
%TD*%
%TO.C,REF\u002A\u002A*%
X28414988Y-33633100D03*
%TD*%
%TO.C,REF\u002A\u002A*%
X33494988Y-38713100D03*
%TD*%
%TO.C,REF\u002A\u002A*%
X28414988Y-38713100D03*
%TD*%
%TO.C,REF\u002A\u002A*%
X28414988Y-46333100D03*
%TD*%
%TO.C,REF\u002A\u002A*%
X28414988Y-26013100D03*
%TD*%
%TO.C,REF\u002A\u002A*%
X30954988Y-61573100D03*
%TD*%
%TO.C,REF\u002A\u002A*%
X28414988Y-48873100D03*
%TD*%
%TO.C,REF\u002A\u002A*%
X33494988Y-56493100D03*
%TD*%
%TO.C,REF\u002A\u002A*%
X28414988Y-53953100D03*
%TD*%
%TO.C,REF\u002A\u002A*%
X41114988Y-31093100D03*
%TD*%
%TO.C,REF\u002A\u002A*%
X38574988Y-28553100D03*
%TD*%
%TO.C,REF\u002A\u002A*%
X41114988Y-56493100D03*
%TD*%
%TO.C,REF\u002A\u002A*%
X38574988Y-43793100D03*
%TD*%
%TO.C,REF\u002A\u002A*%
X36034988Y-26013100D03*
%TD*%
%TO.C,REF\u002A\u002A*%
X36034988Y-38713100D03*
%TD*%
%TO.C,REF\u002A\u002A*%
X38574988Y-38713100D03*
%TD*%
%TO.C,REF\u002A\u002A*%
X28414988Y-31093100D03*
%TD*%
%TO.C,REF\u002A\u002A*%
X28414988Y-61573100D03*
%TD*%
%TO.C,REF\u002A\u002A*%
X30954988Y-48873100D03*
%TD*%
%TO.C,REF\u002A\u002A*%
X41114988Y-61573100D03*
%TD*%
%TO.C,REF\u002A\u002A*%
X36034988Y-53953100D03*
%TD*%
%TO.C,REF\u002A\u002A*%
X38574988Y-26013100D03*
%TD*%
%TO.C,REF\u002A\u002A*%
X41114988Y-59033100D03*
%TD*%
%TO.C,REF\u002A\u002A*%
X33494988Y-26013100D03*
%TD*%
%TO.C,REF\u002A\u002A*%
X36034988Y-31093100D03*
%TD*%
%TO.C,REF\u002A\u002A*%
X38574988Y-53953100D03*
%TD*%
%TO.C,REF\u002A\u002A*%
X63974988Y-8233100D03*
%TD*%
%TO.C,REF\u002A\u002A*%
X56354988Y-8233100D03*
%TD*%
%TO.C,REF\u002A\u002A*%
X69054988Y-8233100D03*
%TD*%
%TO.C,REF\u002A\u002A*%
X69054988Y-10773100D03*
%TD*%
%TO.C,REF\u002A\u002A*%
X71594988Y-10773100D03*
%TD*%
%TO.C,REF\u002A\u002A*%
X61434988Y-10773100D03*
%TD*%
%TO.C,REF\u002A\u002A*%
X61434988Y-8233100D03*
%TD*%
%TO.C,REF\u002A\u002A*%
X58894988Y-8233100D03*
%TD*%
%TO.C,REF\u002A\u002A*%
X46194988Y-10773100D03*
%TD*%
%TO.C,REF\u002A\u002A*%
X43654988Y-8233100D03*
%TD*%
%TO.C,REF\u002A\u002A*%
X66514988Y-8233100D03*
%TD*%
%TO.C,REF\u002A\u002A*%
X58894988Y-10773100D03*
%TD*%
%TO.C,REF\u002A\u002A*%
X51274988Y-10773100D03*
%TD*%
%TO.C,REF\u002A\u002A*%
X63974988Y-10773100D03*
%TD*%
%TO.C,REF\u002A\u002A*%
X43654988Y-10773100D03*
%TD*%
%TO.C,REF\u002A\u002A*%
X46194988Y-8233100D03*
%TD*%
%TO.C,REF\u002A\u002A*%
X56354988Y-10773100D03*
%TD*%
%TO.C,REF\u002A\u002A*%
X48734988Y-10773100D03*
%TD*%
%TO.C,REF\u002A\u002A*%
X53814988Y-8233100D03*
%TD*%
%TO.C,REF\u002A\u002A*%
X48734988Y-8233100D03*
%TD*%
%TO.C,REF\u002A\u002A*%
X51274988Y-8233100D03*
%TD*%
%TO.C,REF\u002A\u002A*%
X71594988Y-8233100D03*
%TD*%
%TO.C,REF\u002A\u002A*%
X66514988Y-10773100D03*
%TD*%
%TO.C,REF\u002A\u002A*%
X53814988Y-10773100D03*
%TD*%
%TO.C,REF\u002A\u002A*%
X66514988Y-18393100D03*
%TD*%
%TO.C,REF\u002A\u002A*%
X48734988Y-23473100D03*
%TD*%
%TO.C,REF\u002A\u002A*%
X46194988Y-18393100D03*
%TD*%
%TO.C,REF\u002A\u002A*%
X63974988Y-13313100D03*
%TD*%
%TO.C,REF\u002A\u002A*%
X53814988Y-23473100D03*
%TD*%
%TO.C,REF\u002A\u002A*%
X56354988Y-23473100D03*
%TD*%
%TO.C,REF\u002A\u002A*%
X66514988Y-23473100D03*
%TD*%
%TO.C,REF\u002A\u002A*%
X63974988Y-18393100D03*
%TD*%
%TO.C,REF\u002A\u002A*%
X69054988Y-15853100D03*
%TD*%
%TO.C,REF\u002A\u002A*%
X61434988Y-18393100D03*
%TD*%
%TO.C,REF\u002A\u002A*%
X48734988Y-20933100D03*
%TD*%
%TO.C,REF\u002A\u002A*%
X71594988Y-18393100D03*
%TD*%
%TO.C,REF\u002A\u002A*%
X56354988Y-13313100D03*
%TD*%
%TO.C,REF\u002A\u002A*%
X61434988Y-23473100D03*
%TD*%
%TO.C,REF\u002A\u002A*%
X69054988Y-13313100D03*
%TD*%
%TO.C,REF\u002A\u002A*%
X58894988Y-18393100D03*
%TD*%
%TO.C,REF\u002A\u002A*%
X53814988Y-18393100D03*
%TD*%
%TO.C,REF\u002A\u002A*%
X63974988Y-20933100D03*
%TD*%
%TO.C,REF\u002A\u002A*%
X71594988Y-15853100D03*
%TD*%
%TO.C,REF\u002A\u002A*%
X66514988Y-20933100D03*
%TD*%
%TO.C,REF\u002A\u002A*%
X61434988Y-15853100D03*
%TD*%
%TO.C,REF\u002A\u002A*%
X46194988Y-23473100D03*
%TD*%
%TO.C,REF\u002A\u002A*%
X61434988Y-13313100D03*
%TD*%
%TO.C,REF\u002A\u002A*%
X56354988Y-20933100D03*
%TD*%
%TO.C,REF\u002A\u002A*%
X43654988Y-15853100D03*
%TD*%
%TO.C,REF\u002A\u002A*%
X58894988Y-15853100D03*
%TD*%
%TO.C,REF\u002A\u002A*%
X43654988Y-23473100D03*
%TD*%
%TO.C,REF\u002A\u002A*%
X56354988Y-15853100D03*
%TD*%
%TO.C,REF\u002A\u002A*%
X46194988Y-20933100D03*
%TD*%
%TO.C,REF\u002A\u002A*%
X58894988Y-20933100D03*
%TD*%
%TO.C,REF\u002A\u002A*%
X51274988Y-23473100D03*
%TD*%
%TO.C,REF\u002A\u002A*%
X69054988Y-23473100D03*
%TD*%
%TO.C,REF\u002A\u002A*%
X51274988Y-20933100D03*
%TD*%
%TO.C,REF\u002A\u002A*%
X46194988Y-13313100D03*
%TD*%
%TO.C,REF\u002A\u002A*%
X51274988Y-15853100D03*
%TD*%
%TO.C,REF\u002A\u002A*%
X71594988Y-23473100D03*
%TD*%
%TO.C,REF\u002A\u002A*%
X71594988Y-20933100D03*
%TD*%
%TO.C,REF\u002A\u002A*%
X48734988Y-15853100D03*
%TD*%
%TO.C,REF\u002A\u002A*%
X58894988Y-13313100D03*
%TD*%
%TO.C,REF\u002A\u002A*%
X46194988Y-15853100D03*
%TD*%
%TO.C,REF\u002A\u002A*%
X66514988Y-13313100D03*
%TD*%
%TO.C,REF\u002A\u002A*%
X48734988Y-18393100D03*
%TD*%
%TO.C,REF\u002A\u002A*%
X53814988Y-20933100D03*
%TD*%
%TO.C,REF\u002A\u002A*%
X43654988Y-20933100D03*
%TD*%
%TO.C,REF\u002A\u002A*%
X43654988Y-13313100D03*
%TD*%
%TO.C,REF\u002A\u002A*%
X63974988Y-15853100D03*
%TD*%
%TO.C,REF\u002A\u002A*%
X61434988Y-20933100D03*
%TD*%
%TO.C,REF\u002A\u002A*%
X56354988Y-18393100D03*
%TD*%
%TO.C,REF\u002A\u002A*%
X53814988Y-15853100D03*
%TD*%
%TO.C,REF\u002A\u002A*%
X58894988Y-23473100D03*
%TD*%
%TO.C,REF\u002A\u002A*%
X69054988Y-20933100D03*
%TD*%
%TO.C,REF\u002A\u002A*%
X51274988Y-13313100D03*
%TD*%
%TO.C,REF\u002A\u002A*%
X43654988Y-18393100D03*
%TD*%
%TO.C,REF\u002A\u002A*%
X71594988Y-13313100D03*
%TD*%
%TO.C,REF\u002A\u002A*%
X53814988Y-13313100D03*
%TD*%
%TO.C,REF\u002A\u002A*%
X66514988Y-15853100D03*
%TD*%
%TO.C,REF\u002A\u002A*%
X63974988Y-23473100D03*
%TD*%
%TO.C,REF\u002A\u002A*%
X48734988Y-13313100D03*
%TD*%
%TO.C,REF\u002A\u002A*%
X51274988Y-18393100D03*
%TD*%
%TO.C,REF\u002A\u002A*%
X69054988Y-18393100D03*
%TD*%
%TO.C,REF\u002A\u002A*%
X66514988Y-31093100D03*
%TD*%
%TO.C,REF\u002A\u002A*%
X48734988Y-36173100D03*
%TD*%
%TO.C,REF\u002A\u002A*%
X46194988Y-31093100D03*
%TD*%
%TO.C,REF\u002A\u002A*%
X48734988Y-46333100D03*
%TD*%
%TO.C,REF\u002A\u002A*%
X63974988Y-26013100D03*
%TD*%
%TO.C,REF\u002A\u002A*%
X53814988Y-36173100D03*
%TD*%
%TO.C,REF\u002A\u002A*%
X63974988Y-56493100D03*
%TD*%
%TO.C,REF\u002A\u002A*%
X56354988Y-26013100D03*
%TD*%
%TO.C,REF\u002A\u002A*%
X63974988Y-31093100D03*
%TD*%
%TO.C,REF\u002A\u002A*%
X56354988Y-48873100D03*
%TD*%
%TO.C,REF\u002A\u002A*%
X69054988Y-28553100D03*
%TD*%
%TO.C,REF\u002A\u002A*%
X63974988Y-38713100D03*
%TD*%
%TO.C,REF\u002A\u002A*%
X56354988Y-36173100D03*
%TD*%
%TO.C,REF\u002A\u002A*%
X66514988Y-36173100D03*
%TD*%
%TO.C,REF\u002A\u002A*%
X71594988Y-53953100D03*
%TD*%
%TO.C,REF\u002A\u002A*%
X46194988Y-43793100D03*
%TD*%
%TO.C,REF\u002A\u002A*%
X43654988Y-43793100D03*
%TD*%
%TO.C,REF\u002A\u002A*%
X56354988Y-53953100D03*
%TD*%
%TO.C,REF\u002A\u002A*%
X48734988Y-33633100D03*
%TD*%
%TO.C,REF\u002A\u002A*%
X53814988Y-41253100D03*
%TD*%
%TO.C,REF\u002A\u002A*%
X71594988Y-31093100D03*
%TD*%
%TO.C,REF\u002A\u002A*%
X63974988Y-41253100D03*
%TD*%
%TO.C,REF\u002A\u002A*%
X51274988Y-43793100D03*
%TD*%
%TO.C,REF\u002A\u002A*%
X66514988Y-59033100D03*
%TD*%
%TO.C,REF\u002A\u002A*%
X51274988Y-46333100D03*
%TD*%
%TO.C,REF\u002A\u002A*%
X61434988Y-31093100D03*
%TD*%
%TO.C,REF\u002A\u002A*%
X63974988Y-33633100D03*
%TD*%
%TO.C,REF\u002A\u002A*%
X51274988Y-51413100D03*
%TD*%
%TO.C,REF\u002A\u002A*%
X53814988Y-51413100D03*
%TD*%
%TO.C,REF\u002A\u002A*%
X63974988Y-51413100D03*
%TD*%
%TO.C,REF\u002A\u002A*%
X71594988Y-28553100D03*
%TD*%
%TO.C,REF\u002A\u002A*%
X56354988Y-46333100D03*
%TD*%
%TO.C,REF\u002A\u002A*%
X61434988Y-36173100D03*
%TD*%
%TO.C,REF\u002A\u002A*%
X43654988Y-51413100D03*
%TD*%
%TO.C,REF\u002A\u002A*%
X48734988Y-43793100D03*
%TD*%
%TO.C,REF\u002A\u002A*%
X71594988Y-48873100D03*
%TD*%
%TO.C,REF\u002A\u002A*%
X58894988Y-38713100D03*
%TD*%
%TO.C,REF\u002A\u002A*%
X69054988Y-61573100D03*
%TD*%
%TO.C,REF\u002A\u002A*%
X51274988Y-48873100D03*
%TD*%
%TO.C,REF\u002A\u002A*%
X58894988Y-31093100D03*
%TD*%
%TO.C,REF\u002A\u002A*%
X48734988Y-53953100D03*
%TD*%
%TO.C,REF\u002A\u002A*%
X58894988Y-48873100D03*
%TD*%
%TO.C,REF\u002A\u002A*%
X69054988Y-26013100D03*
%TD*%
%TO.C,REF\u002A\u002A*%
X56354988Y-38713100D03*
%TD*%
%TO.C,REF\u002A\u002A*%
X46194988Y-46333100D03*
%TD*%
%TO.C,REF\u002A\u002A*%
X51274988Y-61573100D03*
%TD*%
%TO.C,REF\u002A\u002A*%
X69054988Y-53953100D03*
%TD*%
%TO.C,REF\u002A\u002A*%
X48734988Y-59033100D03*
%TD*%
%TO.C,REF\u002A\u002A*%
X46194988Y-51413100D03*
%TD*%
%TO.C,REF\u002A\u002A*%
X58894988Y-53953100D03*
%TD*%
%TO.C,REF\u002A\u002A*%
X71594988Y-41253100D03*
%TD*%
%TO.C,REF\u002A\u002A*%
X53814988Y-31093100D03*
%TD*%
%TO.C,REF\u002A\u002A*%
X48734988Y-61573100D03*
%TD*%
%TO.C,REF\u002A\u002A*%
X61434988Y-28553100D03*
%TD*%
%TO.C,REF\u002A\u002A*%
X46194988Y-36173100D03*
%TD*%
%TO.C,REF\u002A\u002A*%
X61434988Y-48873100D03*
%TD*%
%TO.C,REF\u002A\u002A*%
X66514988Y-33633100D03*
%TD*%
%TO.C,REF\u002A\u002A*%
X46194988Y-56493100D03*
%TD*%
%TO.C,REF\u002A\u002A*%
X51274988Y-36173100D03*
%TD*%
%TO.C,REF\u002A\u002A*%
X61434988Y-26013100D03*
%TD*%
%TO.C,REF\u002A\u002A*%
X71594988Y-56493100D03*
%TD*%
%TO.C,REF\u002A\u002A*%
X69054988Y-56493100D03*
%TD*%
%TO.C,REF\u002A\u002A*%
X66514988Y-38713100D03*
%TD*%
%TO.C,REF\u002A\u002A*%
X46194988Y-38713100D03*
%TD*%
%TO.C,REF\u002A\u002A*%
X56354988Y-28553100D03*
%TD*%
%TO.C,REF\u002A\u002A*%
X66514988Y-41253100D03*
%TD*%
%TO.C,REF\u002A\u002A*%
X61434988Y-53953100D03*
%TD*%
%TO.C,REF\u002A\u002A*%
X46194988Y-33633100D03*
%TD*%
%TO.C,REF\u002A\u002A*%
X56354988Y-33633100D03*
%TD*%
%TO.C,REF\u002A\u002A*%
X69054988Y-36173100D03*
%TD*%
%TO.C,REF\u002A\u002A*%
X43654988Y-36173100D03*
%TD*%
%TO.C,REF\u002A\u002A*%
X53814988Y-46333100D03*
%TD*%
%TO.C,REF\u002A\u002A*%
X66514988Y-56493100D03*
%TD*%
%TO.C,REF\u002A\u002A*%
X46194988Y-59033100D03*
%TD*%
%TO.C,REF\u002A\u002A*%
X61434988Y-51413100D03*
%TD*%
%TO.C,REF\u002A\u002A*%
X51274988Y-33633100D03*
%TD*%
%TO.C,REF\u002A\u002A*%
X58894988Y-33633100D03*
%TD*%
%TO.C,REF\u002A\u002A*%
X61434988Y-38713100D03*
%TD*%
%TO.C,REF\u002A\u002A*%
X46194988Y-53953100D03*
%TD*%
%TO.C,REF\u002A\u002A*%
X61434988Y-43793100D03*
%TD*%
%TO.C,REF\u002A\u002A*%
X58894988Y-61573100D03*
%TD*%
%TO.C,REF\u002A\u002A*%
X43654988Y-41253100D03*
%TD*%
%TO.C,REF\u002A\u002A*%
X56354988Y-51413100D03*
%TD*%
%TO.C,REF\u002A\u002A*%
X69054988Y-41253100D03*
%TD*%
%TO.C,REF\u002A\u002A*%
X58894988Y-28553100D03*
%TD*%
%TO.C,REF\u002A\u002A*%
X43654988Y-28553100D03*
%TD*%
%TO.C,REF\u002A\u002A*%
X71594988Y-61573100D03*
%TD*%
%TO.C,REF\u002A\u002A*%
X46194988Y-26013100D03*
%TD*%
%TO.C,REF\u002A\u002A*%
X58894988Y-56493100D03*
%TD*%
%TO.C,REF\u002A\u002A*%
X51274988Y-59033100D03*
%TD*%
%TO.C,REF\u002A\u002A*%
X53814988Y-48873100D03*
%TD*%
%TO.C,REF\u002A\u002A*%
X51274988Y-28553100D03*
%TD*%
%TO.C,REF\u002A\u002A*%
X71594988Y-43793100D03*
%TD*%
%TO.C,REF\u002A\u002A*%
X48734988Y-48873100D03*
%TD*%
%TO.C,REF\u002A\u002A*%
X69054988Y-38713100D03*
%TD*%
%TO.C,REF\u002A\u002A*%
X53814988Y-59033100D03*
%TD*%
%TO.C,REF\u002A\u002A*%
X46194988Y-28553100D03*
%TD*%
%TO.C,REF\u002A\u002A*%
X69054988Y-46333100D03*
%TD*%
%TO.C,REF\u002A\u002A*%
X46194988Y-41253100D03*
%TD*%
%TO.C,REF\u002A\u002A*%
X66514988Y-51413100D03*
%TD*%
%TO.C,REF\u002A\u002A*%
X53814988Y-61573100D03*
%TD*%
%TO.C,REF\u002A\u002A*%
X63974988Y-43793100D03*
%TD*%
%TO.C,REF\u002A\u002A*%
X48734988Y-28553100D03*
%TD*%
%TO.C,REF\u002A\u002A*%
X71594988Y-36173100D03*
%TD*%
%TO.C,REF\u002A\u002A*%
X58894988Y-26013100D03*
%TD*%
%TO.C,REF\u002A\u002A*%
X69054988Y-51413100D03*
%TD*%
%TO.C,REF\u002A\u002A*%
X43654988Y-59033100D03*
%TD*%
%TO.C,REF\u002A\u002A*%
X58894988Y-59033100D03*
%TD*%
%TO.C,REF\u002A\u002A*%
X71594988Y-33633100D03*
%TD*%
%TO.C,REF\u002A\u002A*%
X51274988Y-53953100D03*
%TD*%
%TO.C,REF\u002A\u002A*%
X69054988Y-31093100D03*
%TD*%
%TO.C,REF\u002A\u002A*%
X51274988Y-31093100D03*
%TD*%
%TO.C,REF\u002A\u002A*%
X53814988Y-53953100D03*
%TD*%
%TO.C,REF\u002A\u002A*%
X48734988Y-26013100D03*
%TD*%
%TO.C,REF\u002A\u002A*%
X63974988Y-46333100D03*
%TD*%
%TO.C,REF\u002A\u002A*%
X53814988Y-26013100D03*
%TD*%
%TO.C,REF\u002A\u002A*%
X61434988Y-41253100D03*
%TD*%
%TO.C,REF\u002A\u002A*%
X66514988Y-28553100D03*
%TD*%
%TO.C,REF\u002A\u002A*%
X56354988Y-59033100D03*
%TD*%
%TO.C,REF\u002A\u002A*%
X71594988Y-26013100D03*
%TD*%
%TO.C,REF\u002A\u002A*%
X61434988Y-46333100D03*
%TD*%
%TO.C,REF\u002A\u002A*%
X63974988Y-36173100D03*
%TD*%
%TO.C,REF\u002A\u002A*%
X51274988Y-56493100D03*
%TD*%
%TO.C,REF\u002A\u002A*%
X56354988Y-41253100D03*
%TD*%
%TO.C,REF\u002A\u002A*%
X51274988Y-41253100D03*
%TD*%
%TO.C,REF\u002A\u002A*%
X56354988Y-43793100D03*
%TD*%
%TO.C,REF\u002A\u002A*%
X43654988Y-46333100D03*
%TD*%
%TO.C,REF\u002A\u002A*%
X66514988Y-43793100D03*
%TD*%
%TO.C,REF\u002A\u002A*%
X66514988Y-48873100D03*
%TD*%
%TO.C,REF\u002A\u002A*%
X66514988Y-26013100D03*
%TD*%
%TO.C,REF\u002A\u002A*%
X48734988Y-51413100D03*
%TD*%
%TO.C,REF\u002A\u002A*%
X53814988Y-33633100D03*
%TD*%
%TO.C,REF\u002A\u002A*%
X43654988Y-38713100D03*
%TD*%
%TO.C,REF\u002A\u002A*%
X66514988Y-53953100D03*
%TD*%
%TO.C,REF\u002A\u002A*%
X58894988Y-43793100D03*
%TD*%
%TO.C,REF\u002A\u002A*%
X53814988Y-56493100D03*
%TD*%
%TO.C,REF\u002A\u002A*%
X71594988Y-38713100D03*
%TD*%
%TO.C,REF\u002A\u002A*%
X48734988Y-41253100D03*
%TD*%
%TO.C,REF\u002A\u002A*%
X43654988Y-26013100D03*
%TD*%
%TO.C,REF\u002A\u002A*%
X63974988Y-53953100D03*
%TD*%
%TO.C,REF\u002A\u002A*%
X43654988Y-56493100D03*
%TD*%
%TO.C,REF\u002A\u002A*%
X71594988Y-51413100D03*
%TD*%
%TO.C,REF\u002A\u002A*%
X69054988Y-48873100D03*
%TD*%
%TO.C,REF\u002A\u002A*%
X48734988Y-38713100D03*
%TD*%
%TO.C,REF\u002A\u002A*%
X66514988Y-61573100D03*
%TD*%
%TO.C,REF\u002A\u002A*%
X63974988Y-28553100D03*
%TD*%
%TO.C,REF\u002A\u002A*%
X58894988Y-51413100D03*
%TD*%
%TO.C,REF\u002A\u002A*%
X43654988Y-33633100D03*
%TD*%
%TO.C,REF\u002A\u002A*%
X48734988Y-31093100D03*
%TD*%
%TO.C,REF\u002A\u002A*%
X46194988Y-61573100D03*
%TD*%
%TO.C,REF\u002A\u002A*%
X58894988Y-46333100D03*
%TD*%
%TO.C,REF\u002A\u002A*%
X63974988Y-59033100D03*
%TD*%
%TO.C,REF\u002A\u002A*%
X43654988Y-48873100D03*
%TD*%
%TO.C,REF\u002A\u002A*%
X61434988Y-61573100D03*
%TD*%
%TO.C,REF\u002A\u002A*%
X61434988Y-59033100D03*
%TD*%
%TO.C,REF\u002A\u002A*%
X48734988Y-56493100D03*
%TD*%
%TO.C,REF\u002A\u002A*%
X69054988Y-43793100D03*
%TD*%
%TO.C,REF\u002A\u002A*%
X61434988Y-33633100D03*
%TD*%
%TO.C,REF\u002A\u002A*%
X71594988Y-46333100D03*
%TD*%
%TO.C,REF\u002A\u002A*%
X69054988Y-59033100D03*
%TD*%
%TO.C,REF\u002A\u002A*%
X43654988Y-53953100D03*
%TD*%
%TO.C,REF\u002A\u002A*%
X58894988Y-36173100D03*
%TD*%
%TO.C,REF\u002A\u002A*%
X58894988Y-41253100D03*
%TD*%
%TO.C,REF\u002A\u002A*%
X51274988Y-38713100D03*
%TD*%
%TO.C,REF\u002A\u002A*%
X63974988Y-61573100D03*
%TD*%
%TO.C,REF\u002A\u002A*%
X53814988Y-43793100D03*
%TD*%
%TO.C,REF\u002A\u002A*%
X69054988Y-33633100D03*
%TD*%
%TO.C,REF\u002A\u002A*%
X53814988Y-38713100D03*
%TD*%
%TO.C,REF\u002A\u002A*%
X66514988Y-46333100D03*
%TD*%
%TO.C,REF\u002A\u002A*%
X51274988Y-26013100D03*
%TD*%
%TO.C,REF\u002A\u002A*%
X61434988Y-56493100D03*
%TD*%
%TO.C,REF\u002A\u002A*%
X56354988Y-31093100D03*
%TD*%
%TO.C,REF\u002A\u002A*%
X71594988Y-59033100D03*
%TD*%
%TO.C,REF\u002A\u002A*%
X43654988Y-31093100D03*
%TD*%
%TO.C,REF\u002A\u002A*%
X63974988Y-48873100D03*
%TD*%
%TO.C,REF\u002A\u002A*%
X53814988Y-28553100D03*
%TD*%
%TO.C,REF\u002A\u002A*%
X56354988Y-56493100D03*
%TD*%
%TO.C,REF\u002A\u002A*%
X43654988Y-61573100D03*
%TD*%
%TO.C,REF\u002A\u002A*%
X46194988Y-48873100D03*
%TD*%
%TO.C,REF\u002A\u002A*%
X56354988Y-61573100D03*
%TD*%
%TO.C,REF\u002A\u002A*%
X66514988Y-69193100D03*
%TD*%
%TO.C,REF\u002A\u002A*%
X56354988Y-66685790D03*
%TD*%
%TO.C,REF\u002A\u002A*%
X58894988Y-66685790D03*
%TD*%
%TO.C,REF\u002A\u002A*%
X63974988Y-69193100D03*
%TD*%
%TO.C,REF\u002A\u002A*%
X61434988Y-66685790D03*
%TD*%
%TO.C,REF\u002A\u002A*%
X58894988Y-71733100D03*
%TD*%
%TO.C,REF\u002A\u002A*%
X56354988Y-71733100D03*
%TD*%
%TO.C,REF\u002A\u002A*%
X66514988Y-71733100D03*
%TD*%
%TO.C,REF\u002A\u002A*%
X58894988Y-69193100D03*
%TD*%
%TO.C,REF\u002A\u002A*%
X61434988Y-69193100D03*
%TD*%
%TO.C,REF\u002A\u002A*%
X56354988Y-69193100D03*
%TD*%
%TO.C,REF\u002A\u002A*%
X66514988Y-66685790D03*
%TD*%
%TO.C,REF\u002A\u002A*%
X61434988Y-71733100D03*
%TD*%
%TO.C,REF\u002A\u002A*%
X63974988Y-71733100D03*
%TD*%
%TO.C,REF\u002A\u002A*%
X63974988Y-66685790D03*
%TD*%
%TO.C,REF\u002A\u002A*%
X53814988Y-69193100D03*
%TD*%
%TO.C,REF\u002A\u002A*%
X43654988Y-66685790D03*
%TD*%
%TO.C,REF\u002A\u002A*%
X46194988Y-66685790D03*
%TD*%
%TO.C,REF\u002A\u002A*%
X51274988Y-69193100D03*
%TD*%
%TO.C,REF\u002A\u002A*%
X48734988Y-66685790D03*
%TD*%
%TO.C,REF\u002A\u002A*%
X46194988Y-71733100D03*
%TD*%
%TO.C,REF\u002A\u002A*%
X43654988Y-71733100D03*
%TD*%
%TO.C,REF\u002A\u002A*%
X53814988Y-71733100D03*
%TD*%
%TO.C,REF\u002A\u002A*%
X46194988Y-69193100D03*
%TD*%
%TO.C,REF\u002A\u002A*%
X48734988Y-69193100D03*
%TD*%
%TO.C,REF\u002A\u002A*%
X43654988Y-69193100D03*
%TD*%
%TO.C,REF\u002A\u002A*%
X53814988Y-66685790D03*
%TD*%
%TO.C,REF\u002A\u002A*%
X48734988Y-71733100D03*
%TD*%
%TO.C,REF\u002A\u002A*%
X51274988Y-71733100D03*
%TD*%
%TO.C,REF\u002A\u002A*%
X51274988Y-66685790D03*
%TD*%
%TO.C,REF\u002A\u002A*%
X38574988Y-69193100D03*
%TD*%
%TO.C,REF\u002A\u002A*%
X18254988Y-66653100D03*
%TD*%
%TO.C,REF\u002A\u002A*%
X30954988Y-66653100D03*
%TD*%
%TO.C,REF\u002A\u002A*%
X10634988Y-69193100D03*
%TD*%
%TO.C,REF\u002A\u002A*%
X30954988Y-69193100D03*
%TD*%
%TO.C,REF\u002A\u002A*%
X10634988Y-66653100D03*
%TD*%
%TO.C,REF\u002A\u002A*%
X36034988Y-69193100D03*
%TD*%
%TO.C,REF\u002A\u002A*%
X15714988Y-71700410D03*
%TD*%
%TO.C,REF\u002A\u002A*%
X41114988Y-66653100D03*
%TD*%
%TO.C,REF\u002A\u002A*%
X13174988Y-71700410D03*
%TD*%
%TO.C,REF\u002A\u002A*%
X38574988Y-71700410D03*
%TD*%
%TO.C,REF\u002A\u002A*%
X25874988Y-66653100D03*
%TD*%
%TO.C,REF\u002A\u002A*%
X41114988Y-71700410D03*
%TD*%
%TO.C,REF\u002A\u002A*%
X33494988Y-69193100D03*
%TD*%
%TO.C,REF\u002A\u002A*%
X36034988Y-71700410D03*
%TD*%
%TO.C,REF\u002A\u002A*%
X38574988Y-66653100D03*
%TD*%
%TO.C,REF\u002A\u002A*%
X15714988Y-69193100D03*
%TD*%
%TO.C,REF\u002A\u002A*%
X41114988Y-69193100D03*
%TD*%
%TO.C,REF\u002A\u002A*%
X18254988Y-69193100D03*
%TD*%
%TO.C,REF\u002A\u002A*%
X15714988Y-66653100D03*
%TD*%
%TO.C,REF\u002A\u002A*%
X13174988Y-69193100D03*
%TD*%
%TO.C,REF\u002A\u002A*%
X18254988Y-71700410D03*
%TD*%
%TO.C,REF\u002A\u002A*%
X23334988Y-66653100D03*
%TD*%
%TO.C,REF\u002A\u002A*%
X28414988Y-71700410D03*
%TD*%
%TO.C,REF\u002A\u002A*%
X30954988Y-71700410D03*
%TD*%
%TO.C,REF\u002A\u002A*%
X25874988Y-69193100D03*
%TD*%
%TO.C,REF\u002A\u002A*%
X36034988Y-66653100D03*
%TD*%
%TO.C,REF\u002A\u002A*%
X8094988Y-66653100D03*
%TD*%
%TO.C,REF\u002A\u002A*%
X8094988Y-69193100D03*
%TD*%
%TO.C,REF\u002A\u002A*%
X20794988Y-71700410D03*
%TD*%
%TO.C,REF\u002A\u002A*%
X13174988Y-66653100D03*
%TD*%
%TO.C,REF\u002A\u002A*%
X8094988Y-71700410D03*
%TD*%
%TO.C,REF\u002A\u002A*%
X25874988Y-71700410D03*
%TD*%
%TO.C,REF\u002A\u002A*%
X28414988Y-69193100D03*
%TD*%
%TO.C,REF\u002A\u002A*%
X28414988Y-66653100D03*
%TD*%
%TO.C,REF\u002A\u002A*%
X33494988Y-71700410D03*
%TD*%
%TO.C,REF\u002A\u002A*%
X10634988Y-71700410D03*
%TD*%
%TO.C,REF\u002A\u002A*%
X23334988Y-71700410D03*
%TD*%
%TO.C,REF\u002A\u002A*%
X20794988Y-66653100D03*
%TD*%
%TO.C,REF\u002A\u002A*%
X20794988Y-69193100D03*
%TD*%
%TO.C,REF\u002A\u002A*%
X33494988Y-66653100D03*
%TD*%
%TO.C,REF\u002A\u002A*%
X23334988Y-69193100D03*
%TD*%
D11*
%TO.C,IO2*%
X15714988Y-43793100D03*
X13174988Y-43793100D03*
%TD*%
%TO.C,PROG1*%
X20794988Y-42523100D03*
X18254988Y-42523100D03*
%TD*%
%TO.C,IO39*%
X20794988Y-17123100D03*
X18254988Y-17123100D03*
%TD*%
%TO.C,VIN1*%
X13174988Y-53953100D03*
X10634988Y-53953100D03*
%TD*%
%TO.C,GND4*%
X11904988Y-56493100D03*
X9364988Y-56493100D03*
%TD*%
%TO.C,GND3*%
X11904988Y-46333100D03*
X9364988Y-46333100D03*
%TD*%
%TO.C,GND2*%
X11904988Y-13313100D03*
X9364988Y-13313100D03*
%TD*%
%TO.C,GND1*%
X11904988Y-8233100D03*
X9364988Y-8233100D03*
%TD*%
%TO.C,5V0*%
X11904988Y-51413100D03*
X9364988Y-51413100D03*
%TD*%
%TO.C,3V32*%
X13444988Y-48873100D03*
X10904988Y-48873100D03*
%TD*%
%TO.C,3V31*%
X13174988Y-10773100D03*
X10634988Y-10773100D03*
%TD*%
%TO.C,MOSI1*%
X20794988Y-34903100D03*
X18254988Y-34903100D03*
%TD*%
%TO.C,MISO1*%
X15714988Y-33633100D03*
X13174988Y-33633100D03*
%TD*%
%TO.C,IO36*%
X15714988Y-15853100D03*
X13174988Y-15853100D03*
%TD*%
%TO.C,IO35*%
X20794988Y-19663100D03*
X18254988Y-19663100D03*
%TD*%
%TO.C,IO34*%
X15714988Y-18393100D03*
X13174988Y-18393100D03*
%TD*%
%TO.C,IO33*%
X20794988Y-22203100D03*
X18254988Y-22203100D03*
%TD*%
%TO.C,IO32*%
X15714988Y-20933100D03*
X13174988Y-20933100D03*
%TD*%
%TO.C,IO27*%
X15714988Y-26013100D03*
X13174988Y-26013100D03*
%TD*%
%TO.C,IO26*%
X20794988Y-24743100D03*
X18254988Y-24743100D03*
%TD*%
%TO.C,IO25*%
X15714988Y-23473100D03*
X13174988Y-23473100D03*
%TD*%
%TO.C,IO23*%
X15714988Y-31093100D03*
X13174988Y-31093100D03*
%TD*%
%TO.C,IO22*%
X20794988Y-32363100D03*
X18254988Y-32363100D03*
%TD*%
%TO.C,IO21*%
X15714988Y-36173100D03*
X13174988Y-36173100D03*
%TD*%
%TO.C,IO19*%
X20794988Y-37443100D03*
X18254988Y-37443100D03*
%TD*%
%TO.C,IO18*%
X15714988Y-38713100D03*
X13174988Y-38713100D03*
%TD*%
%TO.C,IO15*%
X20794988Y-45063100D03*
X18254988Y-45063100D03*
%TD*%
%TO.C,IO14*%
X18254988Y-27283100D03*
X20794988Y-27283100D03*
%TD*%
%TO.C,IO13*%
X20794988Y-29823100D03*
X18254988Y-29823100D03*
%TD*%
%TO.C,IO12*%
X15714988Y-28553100D03*
X13174988Y-28553100D03*
%TD*%
%TO.C,IO5*%
X20794988Y-39983100D03*
X18254988Y-39983100D03*
%TD*%
%TO.C,IO4*%
X15714988Y-41253100D03*
X13174988Y-41253100D03*
%TD*%
D12*
%TO.C,H3*%
X73325825Y-4325825D03*
X72000000Y-4875000D03*
X73325825Y-1674175D03*
X70674175Y-4325825D03*
D13*
X72000000Y-3000000D03*
D12*
X70674175Y-1674175D03*
X73875000Y-3000000D03*
X70125000Y-3000000D03*
X72000000Y-1125000D03*
%TD*%
%TO.C,H4*%
X73325825Y-73325825D03*
X72000000Y-73875000D03*
X73325825Y-70674175D03*
X70674175Y-73325825D03*
D13*
X72000000Y-72000000D03*
D12*
X70674175Y-70674175D03*
X73875000Y-72000000D03*
X70125000Y-72000000D03*
X72000000Y-70125000D03*
%TD*%
%TO.C,H2*%
X4325825Y-73325825D03*
X3000000Y-73875000D03*
X4325825Y-70674175D03*
X1674175Y-73325825D03*
D13*
X3000000Y-72000000D03*
D12*
X1674175Y-70674175D03*
X4875000Y-72000000D03*
X1125000Y-72000000D03*
X3000000Y-70125000D03*
%TD*%
%TO.C,H1*%
X4325825Y-4325825D03*
X3000000Y-4875000D03*
X4325825Y-1674175D03*
X1674175Y-4325825D03*
D13*
X3000000Y-3000000D03*
D12*
X1674175Y-1674175D03*
X4875000Y-3000000D03*
X1125000Y-3000000D03*
X3000000Y-1125000D03*
%TD*%
D14*
%TO.C,J3*%
X3014988Y-8233100D03*
D15*
X5554988Y-8233100D03*
X3014988Y-10773100D03*
X5554988Y-10773100D03*
X3014988Y-13313100D03*
X5554988Y-13313100D03*
X3014988Y-15853100D03*
X5554988Y-15853100D03*
X3014988Y-18393100D03*
X5554988Y-18393100D03*
X3014988Y-20933100D03*
X5554988Y-20933100D03*
X3014988Y-23473100D03*
X5554988Y-23473100D03*
X3014988Y-26013100D03*
X5554988Y-26013100D03*
X3014988Y-28553100D03*
X5554988Y-28553100D03*
X3014988Y-31093100D03*
X5554988Y-31093100D03*
X3014988Y-33633100D03*
X5554988Y-33633100D03*
X3014988Y-36173100D03*
X5554988Y-36173100D03*
X3014988Y-38713100D03*
X5554988Y-38713100D03*
X3014988Y-41253100D03*
X5554988Y-41253100D03*
X3014988Y-43793100D03*
X5554988Y-43793100D03*
X3014988Y-46333100D03*
X5554988Y-46333100D03*
X3014988Y-48873100D03*
X5554988Y-48873100D03*
X3014988Y-51413100D03*
X5554988Y-51413100D03*
X3014988Y-53953100D03*
X5554988Y-53953100D03*
X3014988Y-56493100D03*
X5554988Y-56493100D03*
%TD*%
M02*
