M48
; DRILL file {KiCad (6.0.1)} date Sun Feb  5 21:11:55 2023
; FORMAT={-:-/ absolute / inch / decimal}
; #@! TF.CreationDate,2023-02-05T21:11:55-08:00
; #@! TF.GenerationSoftware,Kicad,Pcbnew,(6.0.1)
; #@! TF.FileFunction,Plated,1,2,PTH
FMAT,2
INCH
; #@! TA.AperFunction,Plated,PTH,ComponentDrill
T1C0.0197
; #@! TA.AperFunction,Plated,PTH,ComponentDrill
T2C0.0276
; #@! TA.AperFunction,Plated,PTH,ComponentDrill
T3C0.0394
; #@! TA.AperFunction,Plated,PTH,ComponentDrill
T4C0.0984
%
G90
G05
T1
X0.0443Y-0.1181
X0.0443Y-2.8346
X0.0659Y-0.0659
X0.0659Y-0.1703
X0.0659Y-2.7824
X0.0659Y-2.8868
X0.1181Y-0.0443
X0.1181Y-0.1919
X0.1181Y-2.7608
X0.1181Y-2.9085
X0.1703Y-0.0659
X0.1703Y-0.1703
X0.1703Y-2.7824
X0.1703Y-2.8868
X0.1919Y-0.1181
X0.1919Y-2.8346
X2.7608Y-0.1181
X2.7608Y-2.8346
X2.7824Y-0.0659
X2.7824Y-0.1703
X2.7824Y-2.7824
X2.7824Y-2.8868
X2.8346Y-0.0443
X2.8346Y-0.1919
X2.8346Y-2.7608
X2.8346Y-2.9085
X2.8868Y-0.0659
X2.8868Y-0.1703
X2.8868Y-2.7824
X2.8868Y-2.8868
X2.9085Y-0.1181
X2.9085Y-2.8346
T2
X0.1187Y-2.4241
X0.1187Y-2.5241
X0.2187Y-2.4241
X0.2187Y-2.5241
X0.3187Y-2.4241
X0.3187Y-2.5241
X0.3187Y-2.6241
X0.3187Y-2.7241
X0.3187Y-2.8229
X0.4187Y-2.4241
X0.4187Y-2.5241
X0.4187Y-2.6241
X0.4187Y-2.7241
X0.4187Y-2.8229
X0.5187Y-2.4241
X0.5187Y-2.5241
X0.5187Y-2.6241
X0.5187Y-2.7241
X0.5187Y-2.8229
X0.6173Y-0.1229
X0.6174Y-2.3209
X0.6187Y-0.2241
X0.6187Y-2.4241
X0.6187Y-2.5241
X0.6187Y-2.6241
X0.6187Y-2.7241
X0.6187Y-2.8229
X0.7173Y-0.1229
X0.7174Y-2.3209
X0.7187Y-0.2241
X0.7187Y-2.4241
X0.7187Y-2.5241
X0.7187Y-2.6241
X0.7187Y-2.7241
X0.7187Y-2.8229
X0.8173Y-0.1229
X0.8173Y-0.3233
X0.8173Y-0.423
X0.8174Y-2.3209
X0.8187Y-0.2241
X0.8187Y-0.5241
X0.8187Y-1.9241
X0.8187Y-2.0241
X0.8187Y-2.1241
X0.8187Y-2.2241
X0.8187Y-2.4241
X0.8187Y-2.5241
X0.8187Y-2.6241
X0.8187Y-2.7241
X0.8187Y-2.8229
X0.9173Y-0.1229
X0.9173Y-0.3233
X0.9173Y-0.423
X0.9174Y-2.3209
X0.9187Y-0.2241
X0.9187Y-0.5241
X0.9187Y-1.9241
X0.9187Y-2.0241
X0.9187Y-2.1241
X0.9187Y-2.2241
X0.9187Y-2.4241
X0.9187Y-2.5241
X0.9187Y-2.6241
X0.9187Y-2.7241
X0.9187Y-2.8229
X1.0173Y-0.1229
X1.0173Y-0.3233
X1.0173Y-0.423
X1.0174Y-2.3209
X1.0187Y-0.2241
X1.0187Y-0.5241
X1.0187Y-1.9241
X1.0187Y-2.0241
X1.0187Y-2.1241
X1.0187Y-2.2241
X1.0187Y-2.4241
X1.0187Y-2.5241
X1.0187Y-2.6241
X1.0187Y-2.7241
X1.0187Y-2.8229
X1.1187Y-0.1241
X1.1187Y-0.2241
X1.1187Y-0.3241
X1.1187Y-0.4241
X1.1187Y-0.5241
X1.1187Y-0.6241
X1.1187Y-0.7241
X1.1187Y-0.8241
X1.1187Y-0.9241
X1.1187Y-1.0241
X1.1187Y-1.1241
X1.1187Y-1.2241
X1.1187Y-1.3241
X1.1187Y-1.4241
X1.1187Y-1.5241
X1.1187Y-1.6241
X1.1187Y-1.7241
X1.1187Y-1.8241
X1.1187Y-1.9241
X1.1187Y-2.0241
X1.1187Y-2.1241
X1.1187Y-2.2241
X1.1187Y-2.3241
X1.1187Y-2.4241
X1.1187Y-2.5241
X1.1187Y-2.6241
X1.1187Y-2.7241
X1.1187Y-2.8229
X1.2187Y-0.1241
X1.2187Y-0.2241
X1.2187Y-0.3241
X1.2187Y-0.4241
X1.2187Y-0.5241
X1.2187Y-0.6241
X1.2187Y-0.7241
X1.2187Y-0.8241
X1.2187Y-0.9241
X1.2187Y-1.0241
X1.2187Y-1.1241
X1.2187Y-1.2241
X1.2187Y-1.3241
X1.2187Y-1.4241
X1.2187Y-1.5241
X1.2187Y-1.6241
X1.2187Y-1.7241
X1.2187Y-1.8241
X1.2187Y-1.9241
X1.2187Y-2.0241
X1.2187Y-2.1241
X1.2187Y-2.2241
X1.2187Y-2.3241
X1.2187Y-2.4241
X1.2187Y-2.5241
X1.2187Y-2.6241
X1.2187Y-2.7241
X1.2187Y-2.8229
X1.3187Y-0.1241
X1.3187Y-0.2241
X1.3187Y-0.3241
X1.3187Y-0.4241
X1.3187Y-0.5241
X1.3187Y-0.6241
X1.3187Y-0.7241
X1.3187Y-0.8241
X1.3187Y-0.9241
X1.3187Y-1.0241
X1.3187Y-1.1241
X1.3187Y-1.2241
X1.3187Y-1.3241
X1.3187Y-1.4241
X1.3187Y-1.5241
X1.3187Y-1.6241
X1.3187Y-1.7241
X1.3187Y-1.8241
X1.3187Y-1.9241
X1.3187Y-2.0241
X1.3187Y-2.1241
X1.3187Y-2.2241
X1.3187Y-2.3241
X1.3187Y-2.4241
X1.3187Y-2.5241
X1.3187Y-2.6241
X1.3187Y-2.7241
X1.3187Y-2.8229
X1.4187Y-0.1241
X1.4187Y-0.2241
X1.4187Y-0.3241
X1.4187Y-0.4241
X1.4187Y-0.5241
X1.4187Y-0.6241
X1.4187Y-0.7241
X1.4187Y-0.8241
X1.4187Y-0.9241
X1.4187Y-1.0241
X1.4187Y-1.1241
X1.4187Y-1.2241
X1.4187Y-1.3241
X1.4187Y-1.4241
X1.4187Y-1.5241
X1.4187Y-1.6241
X1.4187Y-1.7241
X1.4187Y-1.8241
X1.4187Y-1.9241
X1.4187Y-2.0241
X1.4187Y-2.1241
X1.4187Y-2.2241
X1.4187Y-2.3241
X1.4187Y-2.4241
X1.4187Y-2.5241
X1.4187Y-2.6241
X1.4187Y-2.7241
X1.4187Y-2.8229
X1.5187Y-0.1241
X1.5187Y-0.2241
X1.5187Y-0.3241
X1.5187Y-0.4241
X1.5187Y-0.5241
X1.5187Y-0.6241
X1.5187Y-0.7241
X1.5187Y-0.8241
X1.5187Y-0.9241
X1.5187Y-1.0241
X1.5187Y-1.1241
X1.5187Y-1.2241
X1.5187Y-1.3241
X1.5187Y-1.4241
X1.5187Y-1.5241
X1.5187Y-1.6241
X1.5187Y-1.7241
X1.5187Y-1.8241
X1.5187Y-1.9241
X1.5187Y-2.0241
X1.5187Y-2.1241
X1.5187Y-2.2241
X1.5187Y-2.3241
X1.5187Y-2.4241
X1.5187Y-2.5241
X1.5187Y-2.6241
X1.5187Y-2.7241
X1.5187Y-2.8229
X1.6187Y-0.1241
X1.6187Y-0.2241
X1.6187Y-0.3241
X1.6187Y-0.4241
X1.6187Y-0.5241
X1.6187Y-0.6241
X1.6187Y-0.7241
X1.6187Y-0.8241
X1.6187Y-0.9241
X1.6187Y-1.0241
X1.6187Y-1.1241
X1.6187Y-1.2241
X1.6187Y-1.3241
X1.6187Y-1.4241
X1.6187Y-1.5241
X1.6187Y-1.6241
X1.6187Y-1.7241
X1.6187Y-1.8241
X1.6187Y-1.9241
X1.6187Y-2.0241
X1.6187Y-2.1241
X1.6187Y-2.2241
X1.6187Y-2.3241
X1.6187Y-2.4241
X1.6187Y-2.5241
X1.6187Y-2.6241
X1.6187Y-2.7241
X1.6187Y-2.8229
X1.7187Y-0.1241
X1.7187Y-0.2241
X1.7187Y-0.3241
X1.7187Y-0.4241
X1.7187Y-0.5241
X1.7187Y-0.6241
X1.7187Y-0.7241
X1.7187Y-0.8241
X1.7187Y-0.9241
X1.7187Y-1.0241
X1.7187Y-1.1241
X1.7187Y-1.2241
X1.7187Y-1.3241
X1.7187Y-1.4241
X1.7187Y-1.5241
X1.7187Y-1.6241
X1.7187Y-1.7241
X1.7187Y-1.8241
X1.7187Y-1.9241
X1.7187Y-2.0241
X1.7187Y-2.1241
X1.7187Y-2.2241
X1.7187Y-2.3241
X1.7187Y-2.4241
X1.7187Y-2.5241
X1.7187Y-2.6254
X1.7187Y-2.7241
X1.7187Y-2.8241
X1.8187Y-0.1241
X1.8187Y-0.2241
X1.8187Y-0.3241
X1.8187Y-0.4241
X1.8187Y-0.5241
X1.8187Y-0.6241
X1.8187Y-0.7241
X1.8187Y-0.8241
X1.8187Y-0.9241
X1.8187Y-1.0241
X1.8187Y-1.1241
X1.8187Y-1.2241
X1.8187Y-1.3241
X1.8187Y-1.4241
X1.8187Y-1.5241
X1.8187Y-1.6241
X1.8187Y-1.7241
X1.8187Y-1.8241
X1.8187Y-1.9241
X1.8187Y-2.0241
X1.8187Y-2.1241
X1.8187Y-2.2241
X1.8187Y-2.3241
X1.8187Y-2.4241
X1.8187Y-2.5241
X1.8187Y-2.6254
X1.8187Y-2.7241
X1.8187Y-2.8241
X1.9187Y-0.1241
X1.9187Y-0.2241
X1.9187Y-0.3241
X1.9187Y-0.4241
X1.9187Y-0.5241
X1.9187Y-0.6241
X1.9187Y-0.7241
X1.9187Y-0.8241
X1.9187Y-0.9241
X1.9187Y-1.0241
X1.9187Y-1.1241
X1.9187Y-1.2241
X1.9187Y-1.3241
X1.9187Y-1.4241
X1.9187Y-1.5241
X1.9187Y-1.6241
X1.9187Y-1.7241
X1.9187Y-1.8241
X1.9187Y-1.9241
X1.9187Y-2.0241
X1.9187Y-2.1241
X1.9187Y-2.2241
X1.9187Y-2.3241
X1.9187Y-2.4241
X1.9187Y-2.5241
X1.9187Y-2.6254
X1.9187Y-2.7241
X1.9187Y-2.8241
X2.0187Y-0.1241
X2.0187Y-0.2241
X2.0187Y-0.3241
X2.0187Y-0.4241
X2.0187Y-0.5241
X2.0187Y-0.6241
X2.0187Y-0.7241
X2.0187Y-0.8241
X2.0187Y-0.9241
X2.0187Y-1.0241
X2.0187Y-1.1241
X2.0187Y-1.2241
X2.0187Y-1.3241
X2.0187Y-1.4241
X2.0187Y-1.5241
X2.0187Y-1.6241
X2.0187Y-1.7241
X2.0187Y-1.8241
X2.0187Y-1.9241
X2.0187Y-2.0241
X2.0187Y-2.1241
X2.0187Y-2.2241
X2.0187Y-2.3241
X2.0187Y-2.4241
X2.0187Y-2.5241
X2.0187Y-2.6254
X2.0187Y-2.7241
X2.0187Y-2.8241
X2.1187Y-0.1241
X2.1187Y-0.2241
X2.1187Y-0.3241
X2.1187Y-0.4241
X2.1187Y-0.5241
X2.1187Y-0.6241
X2.1187Y-0.7241
X2.1187Y-0.8241
X2.1187Y-0.9241
X2.1187Y-1.0241
X2.1187Y-1.1241
X2.1187Y-1.2241
X2.1187Y-1.3241
X2.1187Y-1.4241
X2.1187Y-1.5241
X2.1187Y-1.6241
X2.1187Y-1.7241
X2.1187Y-1.8241
X2.1187Y-1.9241
X2.1187Y-2.0241
X2.1187Y-2.1241
X2.1187Y-2.2241
X2.1187Y-2.3241
X2.1187Y-2.4241
X2.1187Y-2.5241
X2.1187Y-2.6254
X2.1187Y-2.7241
X2.1187Y-2.8241
X2.2187Y-0.1241
X2.2187Y-0.2241
X2.2187Y-0.3241
X2.2187Y-0.4241
X2.2187Y-0.5241
X2.2187Y-0.6241
X2.2187Y-0.7241
X2.2187Y-0.8241
X2.2187Y-0.9241
X2.2187Y-1.0241
X2.2187Y-1.1241
X2.2187Y-1.2241
X2.2187Y-1.3241
X2.2187Y-1.4241
X2.2187Y-1.5241
X2.2187Y-1.6241
X2.2187Y-1.7241
X2.2187Y-1.8241
X2.2187Y-1.9241
X2.2187Y-2.0241
X2.2187Y-2.1241
X2.2187Y-2.2241
X2.2187Y-2.3241
X2.2187Y-2.4241
X2.2187Y-2.5241
X2.2187Y-2.6254
X2.2187Y-2.7241
X2.2187Y-2.8241
X2.3187Y-0.1241
X2.3187Y-0.2241
X2.3187Y-0.3241
X2.3187Y-0.4241
X2.3187Y-0.5241
X2.3187Y-0.6241
X2.3187Y-0.7241
X2.3187Y-0.8241
X2.3187Y-0.9241
X2.3187Y-1.0241
X2.3187Y-1.1241
X2.3187Y-1.2241
X2.3187Y-1.3241
X2.3187Y-1.4241
X2.3187Y-1.5241
X2.3187Y-1.6241
X2.3187Y-1.7241
X2.3187Y-1.8241
X2.3187Y-1.9241
X2.3187Y-2.0241
X2.3187Y-2.1241
X2.3187Y-2.2241
X2.3187Y-2.3241
X2.3187Y-2.4241
X2.3187Y-2.5241
X2.3187Y-2.6254
X2.3187Y-2.7241
X2.3187Y-2.8241
X2.4187Y-0.1241
X2.4187Y-0.2241
X2.4187Y-0.3241
X2.4187Y-0.4241
X2.4187Y-0.5241
X2.4187Y-0.6241
X2.4187Y-0.7241
X2.4187Y-0.8241
X2.4187Y-0.9241
X2.4187Y-1.0241
X2.4187Y-1.1241
X2.4187Y-1.2241
X2.4187Y-1.3241
X2.4187Y-1.4241
X2.4187Y-1.5241
X2.4187Y-1.6241
X2.4187Y-1.7241
X2.4187Y-1.8241
X2.4187Y-1.9241
X2.4187Y-2.0241
X2.4187Y-2.1241
X2.4187Y-2.2241
X2.4187Y-2.3241
X2.4187Y-2.4241
X2.4187Y-2.5241
X2.4187Y-2.6254
X2.4187Y-2.7241
X2.4187Y-2.8241
X2.5187Y-0.1241
X2.5187Y-0.2241
X2.5187Y-0.3241
X2.5187Y-0.4241
X2.5187Y-0.5241
X2.5187Y-0.6241
X2.5187Y-0.7241
X2.5187Y-0.8241
X2.5187Y-0.9241
X2.5187Y-1.0241
X2.5187Y-1.1241
X2.5187Y-1.2241
X2.5187Y-1.3241
X2.5187Y-1.4241
X2.5187Y-1.5241
X2.5187Y-1.6241
X2.5187Y-1.7241
X2.5187Y-1.8241
X2.5187Y-1.9241
X2.5187Y-2.0241
X2.5187Y-2.1241
X2.5187Y-2.2241
X2.5187Y-2.3241
X2.5187Y-2.4241
X2.5187Y-2.5241
X2.5187Y-2.6254
X2.5187Y-2.7241
X2.5187Y-2.8241
X2.6187Y-0.1241
X2.6187Y-0.2241
X2.6187Y-0.3241
X2.6187Y-0.4241
X2.6187Y-0.5241
X2.6187Y-0.6241
X2.6187Y-0.7241
X2.6187Y-0.8241
X2.6187Y-0.9241
X2.6187Y-1.0241
X2.6187Y-1.1241
X2.6187Y-1.2241
X2.6187Y-1.3241
X2.6187Y-1.4241
X2.6187Y-1.5241
X2.6187Y-1.6241
X2.6187Y-1.7241
X2.6187Y-1.8241
X2.6187Y-1.9241
X2.6187Y-2.0241
X2.6187Y-2.1241
X2.6187Y-2.2241
X2.6187Y-2.3241
X2.6187Y-2.4241
X2.6187Y-2.5241
X2.6187Y-2.6254
X2.6187Y-2.7241
X2.6187Y-2.8241
X2.7187Y-0.3241
X2.7187Y-0.4241
X2.7187Y-0.5241
X2.7187Y-0.6241
X2.7187Y-0.7241
X2.7187Y-0.8241
X2.7187Y-0.9241
X2.7187Y-1.0241
X2.7187Y-1.1241
X2.7187Y-1.2241
X2.7187Y-1.3241
X2.7187Y-1.4241
X2.7187Y-1.5241
X2.7187Y-1.6241
X2.7187Y-1.7241
X2.7187Y-1.8241
X2.7187Y-1.9241
X2.7187Y-2.0241
X2.7187Y-2.1241
X2.7187Y-2.2241
X2.7187Y-2.3241
X2.7187Y-2.4241
X2.7187Y-2.5241
X2.8187Y-0.3241
X2.8187Y-0.4241
X2.8187Y-0.5241
X2.8187Y-0.6241
X2.8187Y-0.7241
X2.8187Y-0.8241
X2.8187Y-0.9241
X2.8187Y-1.0241
X2.8187Y-1.1241
X2.8187Y-1.2241
X2.8187Y-1.3241
X2.8187Y-1.4241
X2.8187Y-1.5241
X2.8187Y-1.6241
X2.8187Y-1.7241
X2.8187Y-1.8241
X2.8187Y-1.9241
X2.8187Y-2.0241
X2.8187Y-2.1241
X2.8187Y-2.2241
X2.8187Y-2.3241
X2.8187Y-2.4241
X2.8187Y-2.5241
T3
X0.1187Y-0.3241
X0.1187Y-0.4241
X0.1187Y-0.5241
X0.1187Y-0.6241
X0.1187Y-0.7241
X0.1187Y-0.8241
X0.1187Y-0.9241
X0.1187Y-1.0241
X0.1187Y-1.1241
X0.1187Y-1.2241
X0.1187Y-1.3241
X0.1187Y-1.4241
X0.1187Y-1.5241
X0.1187Y-1.6241
X0.1187Y-1.7241
X0.1187Y-1.8241
X0.1187Y-1.9241
X0.1187Y-2.0241
X0.1187Y-2.1241
X0.1187Y-2.2241
X0.2187Y-0.3241
X0.2187Y-0.4241
X0.2187Y-0.5241
X0.2187Y-0.6241
X0.2187Y-0.7241
X0.2187Y-0.8241
X0.2187Y-0.9241
X0.2187Y-1.0241
X0.2187Y-1.1241
X0.2187Y-1.2241
X0.2187Y-1.3241
X0.2187Y-1.4241
X0.2187Y-1.5241
X0.2187Y-1.6241
X0.2187Y-1.7241
X0.2187Y-1.8241
X0.2187Y-1.9241
X0.2187Y-2.0241
X0.2187Y-2.1241
X0.2187Y-2.2241
X0.3687Y-0.3241
X0.3687Y-0.5241
X0.3687Y-1.8241
X0.3687Y-2.0241
X0.3687Y-2.2241
X0.4187Y-0.4241
X0.4187Y-2.1241
X0.4293Y-1.9241
X0.4687Y-0.3241
X0.4687Y-0.5241
X0.4687Y-1.8241
X0.4687Y-2.0241
X0.4687Y-2.2241
X0.5187Y-0.4241
X0.5187Y-0.6241
X0.5187Y-0.7241
X0.5187Y-0.8241
X0.5187Y-0.9241
X0.5187Y-1.0241
X0.5187Y-1.1241
X0.5187Y-1.2241
X0.5187Y-1.3241
X0.5187Y-1.4241
X0.5187Y-1.5241
X0.5187Y-1.6241
X0.5187Y-1.7241
X0.5187Y-2.1241
X0.5293Y-1.9241
X0.6187Y-0.6241
X0.6187Y-0.7241
X0.6187Y-0.8241
X0.6187Y-0.9241
X0.6187Y-1.0241
X0.6187Y-1.1241
X0.6187Y-1.2241
X0.6187Y-1.3241
X0.6187Y-1.4241
X0.6187Y-1.5241
X0.6187Y-1.6241
X0.6187Y-1.7241
X0.7187Y-0.6741
X0.7187Y-0.7741
X0.7187Y-0.8741
X0.7187Y-0.9741
X0.7187Y-1.0741
X0.7187Y-1.1741
X0.7187Y-1.2741
X0.7187Y-1.3741
X0.7187Y-1.4741
X0.7187Y-1.5741
X0.7187Y-1.6741
X0.7187Y-1.7741
X0.8187Y-0.6741
X0.8187Y-0.7741
X0.8187Y-0.8741
X0.8187Y-0.9741
X0.8187Y-1.0741
X0.8187Y-1.1741
X0.8187Y-1.2741
X0.8187Y-1.3741
X0.8187Y-1.4741
X0.8187Y-1.5741
X0.8187Y-1.6741
X0.8187Y-1.7741
T4
X0.1181Y-0.1181
X0.1181Y-2.8346
X2.8346Y-0.1181
X2.8346Y-2.8346
T0
M30
