%TF.GenerationSoftware,KiCad,Pcbnew,(6.0.1)*%
%TF.CreationDate,2023-01-01T20:52:33-08:00*%
%TF.ProjectId,RPi-Power R1,5250692d-506f-4776-9572-2052312e6b69,rev?*%
%TF.SameCoordinates,Original*%
%TF.FileFunction,Copper,L1,Top*%
%TF.FilePolarity,Positive*%
%FSLAX46Y46*%
G04 Gerber Fmt 4.6, Leading zero omitted, Abs format (unit mm)*
G04 Created by KiCad (PCBNEW (6.0.1)) date 2023-01-01 20:52:33*
%MOMM*%
%LPD*%
G01*
G04 APERTURE LIST*
G04 Aperture macros list*
%AMRoundRect*
0 Rectangle with rounded corners*
0 $1 Rounding radius*
0 $2 $3 $4 $5 $6 $7 $8 $9 X,Y pos of 4 corners*
0 Add a 4 corners polygon primitive as box body*
4,1,4,$2,$3,$4,$5,$6,$7,$8,$9,$2,$3,0*
0 Add four circle primitives for the rounded corners*
1,1,$1+$1,$2,$3*
1,1,$1+$1,$4,$5*
1,1,$1+$1,$6,$7*
1,1,$1+$1,$8,$9*
0 Add four rect primitives between the rounded corners*
20,1,$1+$1,$2,$3,$4,$5,0*
20,1,$1+$1,$4,$5,$6,$7,0*
20,1,$1+$1,$6,$7,$8,$9,0*
20,1,$1+$1,$8,$9,$2,$3,0*%
G04 Aperture macros list end*
%TA.AperFunction,SMDPad,CuDef*%
%ADD10RoundRect,0.200000X-0.275000X0.200000X-0.275000X-0.200000X0.275000X-0.200000X0.275000X0.200000X0*%
%TD*%
%TA.AperFunction,SMDPad,CuDef*%
%ADD11RoundRect,0.200000X-0.200000X-0.275000X0.200000X-0.275000X0.200000X0.275000X-0.200000X0.275000X0*%
%TD*%
%TA.AperFunction,SMDPad,CuDef*%
%ADD12R,0.800000X0.800000*%
%TD*%
%TA.AperFunction,SMDPad,CuDef*%
%ADD13RoundRect,0.150000X0.625000X-0.150000X0.625000X0.150000X-0.625000X0.150000X-0.625000X-0.150000X0*%
%TD*%
%TA.AperFunction,SMDPad,CuDef*%
%ADD14RoundRect,0.250000X0.650000X-0.350000X0.650000X0.350000X-0.650000X0.350000X-0.650000X-0.350000X0*%
%TD*%
%TA.AperFunction,SMDPad,CuDef*%
%ADD15RoundRect,0.225000X-0.250000X0.225000X-0.250000X-0.225000X0.250000X-0.225000X0.250000X0.225000X0*%
%TD*%
%TA.AperFunction,ComponentPad*%
%ADD16R,1.600000X1.600000*%
%TD*%
%TA.AperFunction,ComponentPad*%
%ADD17C,1.600000*%
%TD*%
%TA.AperFunction,SMDPad,CuDef*%
%ADD18RoundRect,0.150000X-0.150000X-0.625000X0.150000X-0.625000X0.150000X0.625000X-0.150000X0.625000X0*%
%TD*%
%TA.AperFunction,SMDPad,CuDef*%
%ADD19RoundRect,0.250000X-0.350000X-0.650000X0.350000X-0.650000X0.350000X0.650000X-0.350000X0.650000X0*%
%TD*%
%TA.AperFunction,ComponentPad*%
%ADD20RoundRect,0.250000X-0.725000X0.600000X-0.725000X-0.600000X0.725000X-0.600000X0.725000X0.600000X0*%
%TD*%
%TA.AperFunction,ComponentPad*%
%ADD21O,1.950000X1.700000*%
%TD*%
%TA.AperFunction,ComponentPad*%
%ADD22R,1.700000X1.700000*%
%TD*%
%TA.AperFunction,ComponentPad*%
%ADD23O,1.700000X1.700000*%
%TD*%
%TA.AperFunction,ComponentPad*%
%ADD24RoundRect,0.250000X-0.750000X0.600000X-0.750000X-0.600000X0.750000X-0.600000X0.750000X0.600000X0*%
%TD*%
%TA.AperFunction,ComponentPad*%
%ADD25O,2.000000X1.700000*%
%TD*%
%TA.AperFunction,SMDPad,CuDef*%
%ADD26RoundRect,0.150000X-0.825000X-0.150000X0.825000X-0.150000X0.825000X0.150000X-0.825000X0.150000X0*%
%TD*%
%TA.AperFunction,SMDPad,CuDef*%
%ADD27R,3.500000X4.000000*%
%TD*%
%TA.AperFunction,ComponentPad*%
%ADD28C,2.600000*%
%TD*%
%TA.AperFunction,SMDPad,CuDef*%
%ADD29R,4.500000X3.300000*%
%TD*%
%TA.AperFunction,SMDPad,CuDef*%
%ADD30RoundRect,0.250000X-0.787500X-1.025000X0.787500X-1.025000X0.787500X1.025000X-0.787500X1.025000X0*%
%TD*%
%TA.AperFunction,SMDPad,CuDef*%
%ADD31RoundRect,0.225000X-0.225000X-0.250000X0.225000X-0.250000X0.225000X0.250000X-0.225000X0.250000X0*%
%TD*%
%TA.AperFunction,SMDPad,CuDef*%
%ADD32RoundRect,0.250000X1.025000X-0.787500X1.025000X0.787500X-1.025000X0.787500X-1.025000X-0.787500X0*%
%TD*%
%TA.AperFunction,ViaPad*%
%ADD33C,0.800000*%
%TD*%
%TA.AperFunction,Conductor*%
%ADD34C,0.250000*%
%TD*%
%TA.AperFunction,Conductor*%
%ADD35C,0.254000*%
%TD*%
%TA.AperFunction,Conductor*%
%ADD36C,0.635000*%
%TD*%
%TA.AperFunction,Conductor*%
%ADD37C,0.381000*%
%TD*%
%TA.AperFunction,Conductor*%
%ADD38C,0.203200*%
%TD*%
%TA.AperFunction,Conductor*%
%ADD39C,0.762000*%
%TD*%
%TA.AperFunction,Conductor*%
%ADD40C,0.508000*%
%TD*%
%TA.AperFunction,Conductor*%
%ADD41C,1.270000*%
%TD*%
G04 APERTURE END LIST*
D10*
%TO.P,R4,2*%
%TO.N,Net-(D5-Pad2)*%
X43180000Y11240000D03*
%TO.P,R4,1*%
%TO.N,+3V3*%
X43180000Y12890000D03*
%TD*%
D11*
%TO.P,R3,1*%
%TO.N,+5V*%
X41720000Y9271000D03*
%TO.P,R3,2*%
%TO.N,Net-(D4-Pad2)*%
X43370000Y9271000D03*
%TD*%
D12*
%TO.P,D5,1,K*%
%TO.N,GND*%
X45085000Y8140000D03*
%TO.P,D5,2,A*%
%TO.N,Net-(D5-Pad2)*%
X45085000Y9640000D03*
%TD*%
%TO.P,D4,2,A*%
%TO.N,Net-(D4-Pad2)*%
X45085000Y6465000D03*
%TO.P,D4,1,K*%
%TO.N,GND*%
X45085000Y4965000D03*
%TD*%
D13*
%TO.P,J5,1,Pin_1*%
%TO.N,+5V*%
X40949000Y11716000D03*
%TO.P,J5,2,Pin_2*%
%TO.N,+3V3*%
X40949000Y12716000D03*
%TO.P,J5,3,Pin_3*%
%TO.N,Net-(J2-Pad27)*%
X40949000Y13716000D03*
%TO.P,J5,4,Pin_4*%
%TO.N,Net-(J2-Pad28)*%
X40949000Y14716000D03*
%TO.P,J5,5,Pin_5*%
%TO.N,GND*%
X40949000Y15716000D03*
D14*
%TO.P,J5,MP*%
%TO.N,N/C*%
X38424000Y17016000D03*
X38424000Y10416000D03*
%TD*%
D10*
%TO.P,R2,1*%
%TO.N,Net-(J2-Pad21)*%
X31369000Y18351000D03*
%TO.P,R2,2*%
%TO.N,Net-(D3-Pad2)*%
X31369000Y16701000D03*
%TD*%
%TO.P,R1,1*%
%TO.N,Net-(J2-Pad23)*%
X33147000Y18351000D03*
%TO.P,R1,2*%
%TO.N,Net-(D2-Pad2)*%
X33147000Y16701000D03*
%TD*%
D12*
%TO.P,D3,1,K*%
%TO.N,GND*%
X32881000Y15367000D03*
%TO.P,D3,2,A*%
%TO.N,Net-(D3-Pad2)*%
X31381000Y15367000D03*
%TD*%
%TO.P,D2,1,K*%
%TO.N,GND*%
X34671000Y16637000D03*
%TO.P,D2,2,A*%
%TO.N,Net-(D2-Pad2)*%
X34671000Y18137000D03*
%TD*%
D15*
%TO.P,C2,1*%
%TO.N,VCC*%
X9017000Y6109000D03*
%TO.P,C2,2*%
%TO.N,GND*%
X9017000Y4559000D03*
%TD*%
D16*
%TO.P,C8,1*%
%TO.N,+5V*%
X38735000Y5080000D03*
D17*
%TO.P,C8,2*%
%TO.N,GND*%
X41235000Y5080000D03*
%TD*%
D18*
%TO.P,J6,1,Pin_1*%
%TO.N,+5V*%
X45125000Y14042000D03*
%TO.P,J6,2,Pin_2*%
%TO.N,Net-(J2-Pad36)*%
X46125000Y14042000D03*
%TO.P,J6,3,Pin_3*%
%TO.N,Net-(J2-Pad35)*%
X47125000Y14042000D03*
%TO.P,J6,4,Pin_4*%
%TO.N,Net-(J2-Pad38)*%
X48125000Y14042000D03*
%TO.P,J6,5,Pin_5*%
%TO.N,Net-(J2-Pad40)*%
X49125000Y14042000D03*
%TO.P,J6,6,Pin_6*%
%TO.N,GND*%
X50125000Y14042000D03*
D19*
%TO.P,J6,MP*%
%TO.N,N/C*%
X43825000Y16567000D03*
X51425000Y16567000D03*
%TD*%
D20*
%TO.P,J7,1,Pin_1*%
%TO.N,GND*%
X50038000Y8636000D03*
D21*
%TO.P,J7,2,Pin_2*%
%TO.N,Net-(J2-Pad37)*%
X50038000Y6136000D03*
%TO.P,J7,3,Pin_3*%
%TO.N,+5V*%
X50038000Y3636000D03*
%TD*%
D22*
%TO.P,J2,1,3V3*%
%TO.N,+3V3*%
X2540000Y20320000D03*
D23*
%TO.P,J2,2,5V*%
%TO.N,+5V*%
X2540000Y22860000D03*
%TO.P,J2,3,SDA/GPIO2*%
%TO.N,unconnected-(J2-Pad3)*%
X5080000Y20320000D03*
%TO.P,J2,4,5V*%
%TO.N,+5V*%
X5080000Y22860000D03*
%TO.P,J2,5,SCL/GPIO3*%
%TO.N,unconnected-(J2-Pad5)*%
X7620000Y20320000D03*
%TO.P,J2,6,GND*%
%TO.N,GND*%
X7620000Y22860000D03*
%TO.P,J2,7,GCLK0/GPIO4*%
%TO.N,unconnected-(J2-Pad7)*%
X10160000Y20320000D03*
%TO.P,J2,8,GPIO14/TXD*%
%TO.N,unconnected-(J2-Pad8)*%
X10160000Y22860000D03*
%TO.P,J2,9,GND*%
%TO.N,GND*%
X12700000Y20320000D03*
%TO.P,J2,10,GPIO15/RXD*%
%TO.N,unconnected-(J2-Pad10)*%
X12700000Y22860000D03*
%TO.P,J2,11,GPIO17*%
%TO.N,unconnected-(J2-Pad11)*%
X15240000Y20320000D03*
%TO.P,J2,12,GPIO18/PWM0*%
%TO.N,unconnected-(J2-Pad12)*%
X15240000Y22860000D03*
%TO.P,J2,13,GPIO27*%
%TO.N,unconnected-(J2-Pad13)*%
X17780000Y20320000D03*
%TO.P,J2,14,GND*%
%TO.N,GND*%
X17780000Y22860000D03*
%TO.P,J2,15,GPIO22*%
%TO.N,unconnected-(J2-Pad15)*%
X20320000Y20320000D03*
%TO.P,J2,16,GPIO23*%
%TO.N,unconnected-(J2-Pad16)*%
X20320000Y22860000D03*
%TO.P,J2,17,3V3*%
%TO.N,+3V3*%
X22860000Y20320000D03*
%TO.P,J2,18,GPIO24*%
%TO.N,unconnected-(J2-Pad18)*%
X22860000Y22860000D03*
%TO.P,J2,19,MOSI0/GPIO10*%
%TO.N,unconnected-(J2-Pad19)*%
X25400000Y20320000D03*
%TO.P,J2,20,GND*%
%TO.N,GND*%
X25400000Y22860000D03*
%TO.P,J2,21,MISO0/GPIO9*%
%TO.N,Net-(J2-Pad21)*%
X27940000Y20320000D03*
%TO.P,J2,22,GPIO25*%
%TO.N,unconnected-(J2-Pad22)*%
X27940000Y22860000D03*
%TO.P,J2,23,SCLK0/GPIO11*%
%TO.N,Net-(J2-Pad23)*%
X30480000Y20320000D03*
%TO.P,J2,24,~{CE0}/GPIO8*%
%TO.N,unconnected-(J2-Pad24)*%
X30480000Y22860000D03*
%TO.P,J2,25,GND*%
%TO.N,GND*%
X33020000Y20320000D03*
%TO.P,J2,26,~{CE1}/GPIO7*%
%TO.N,unconnected-(J2-Pad26)*%
X33020000Y22860000D03*
%TO.P,J2,27,ID_SD/GPIO0*%
%TO.N,Net-(J2-Pad27)*%
X35560000Y20320000D03*
%TO.P,J2,28,ID_SC/GPIO1*%
%TO.N,Net-(J2-Pad28)*%
X35560000Y22860000D03*
%TO.P,J2,29,GCLK1/GPIO5*%
%TO.N,unconnected-(J2-Pad29)*%
X38100000Y20320000D03*
%TO.P,J2,30,GND*%
%TO.N,GND*%
X38100000Y22860000D03*
%TO.P,J2,31,GCLK2/GPIO6*%
%TO.N,unconnected-(J2-Pad31)*%
X40640000Y20320000D03*
%TO.P,J2,32,PWM0/GPIO12*%
%TO.N,unconnected-(J2-Pad32)*%
X40640000Y22860000D03*
%TO.P,J2,33,PWM1/GPIO13*%
%TO.N,unconnected-(J2-Pad33)*%
X43180000Y20320000D03*
%TO.P,J2,34,GND*%
%TO.N,GND*%
X43180000Y22860000D03*
%TO.P,J2,35,GPIO19/MISO1*%
%TO.N,Net-(J2-Pad35)*%
X45720000Y20320000D03*
%TO.P,J2,36,GPIO16*%
%TO.N,Net-(J2-Pad36)*%
X45720000Y22860000D03*
%TO.P,J2,37,GPIO26*%
%TO.N,Net-(J2-Pad37)*%
X48260000Y20320000D03*
%TO.P,J2,38,GPIO20/MOSI1*%
%TO.N,Net-(J2-Pad38)*%
X48260000Y22860000D03*
%TO.P,J2,39,GND*%
%TO.N,GND*%
X50800000Y20320000D03*
%TO.P,J2,40,GPIO21/SCLK1*%
%TO.N,Net-(J2-Pad40)*%
X50800000Y22860000D03*
%TD*%
D24*
%TO.P,J1,1,Pin_1*%
%TO.N,GND*%
X4445000Y15240000D03*
D25*
%TO.P,J1,2,Pin_2*%
%TO.N,VCC*%
X4445000Y12740000D03*
%TD*%
D26*
%TO.P,U2,1,FB*%
%TO.N,+5V*%
X12765000Y10541000D03*
%TO.P,U2,2,NC*%
%TO.N,unconnected-(U2-Pad2)*%
X12765000Y9271000D03*
%TO.P,U2,3,VC*%
%TO.N,Net-(C5-Pad2)*%
X12765000Y8001000D03*
%TO.P,U2,4,VIn*%
%TO.N,VCC*%
X12765000Y6731000D03*
%TO.P,U2,5,SW*%
%TO.N,Net-(D1-Pad1)*%
X17715000Y6731000D03*
%TO.P,U2,6,SW*%
X17715000Y8001000D03*
%TO.P,U2,7,GND*%
%TO.N,GND*%
X17715000Y9271000D03*
%TO.P,U2,8,GND*%
X17715000Y10541000D03*
%TD*%
D27*
%TO.P,L1,1,1*%
%TO.N,Net-(D1-Pad1)*%
X21273000Y5969000D03*
%TO.P,L1,2,2*%
%TO.N,+5V*%
X29273000Y5969000D03*
%TD*%
D28*
%TO.P,J4,1,Pin_1*%
%TO.N,GND*%
X8763000Y15494000D03*
%TD*%
%TO.P,J3,1,Pin_1*%
%TO.N,VCC*%
X8763000Y11811000D03*
%TD*%
D29*
%TO.P,D1,1,K*%
%TO.N,Net-(D1-Pad1)*%
X26498000Y14986000D03*
%TO.P,D1,2,A*%
%TO.N,GND*%
X17698000Y14986000D03*
%TD*%
D30*
%TO.P,C7,1*%
%TO.N,VCC*%
X11492500Y3302000D03*
%TO.P,C7,2*%
%TO.N,GND*%
X17717500Y3302000D03*
%TD*%
D31*
%TO.P,C6,1*%
%TO.N,+5V*%
X32245000Y2032000D03*
%TO.P,C6,2*%
%TO.N,GND*%
X33795000Y2032000D03*
%TD*%
%TO.P,C5,1*%
%TO.N,VCC*%
X8750000Y8001000D03*
%TO.P,C5,2*%
%TO.N,Net-(C5-Pad2)*%
X10300000Y8001000D03*
%TD*%
D32*
%TO.P,C4,1*%
%TO.N,+5V*%
X33909000Y6031500D03*
%TO.P,C4,2*%
%TO.N,GND*%
X33909000Y12256500D03*
%TD*%
D31*
%TO.P,C3,1*%
%TO.N,+5V*%
X33515000Y3683000D03*
%TO.P,C3,2*%
%TO.N,GND*%
X35065000Y3683000D03*
%TD*%
D16*
%TO.P,C1,1*%
%TO.N,VCC*%
X3683000Y5842000D03*
D17*
%TO.P,C1,2*%
%TO.N,GND*%
X3683000Y3342000D03*
%TD*%
D33*
%TO.N,GND*%
X20828000Y14986000D03*
X20828000Y16256000D03*
X20828000Y13716000D03*
X14732000Y13716000D03*
X14732000Y14986000D03*
X14732000Y16256000D03*
%TO.N,*%
X37719000Y17399000D03*
X37719000Y16510000D03*
X39116000Y17399000D03*
X39116000Y16510000D03*
X39116000Y10766000D03*
X39116000Y9877000D03*
X37719000Y9877000D03*
X37719000Y10766000D03*
X43323000Y17259000D03*
X44212000Y17259000D03*
X44212000Y15862000D03*
X43323000Y15862000D03*
X50923000Y17259000D03*
X51812000Y17259000D03*
X51812000Y15862000D03*
X50923000Y15862000D03*
%TO.N,GND*%
X7493000Y3239988D03*
X7049500Y4559000D03*
X9017000Y2986000D03*
X51347000Y14042000D03*
X15747500Y9271000D03*
X15747500Y10541000D03*
X19682500Y9271000D03*
X19682500Y10541000D03*
X17717500Y5269500D03*
X35876500Y12256500D03*
X33020000Y14159500D03*
X34798000Y14159500D03*
X36081000Y2667000D03*
X33909000Y14224000D03*
X19812000Y3048000D03*
X19812000Y2032000D03*
X16002002Y3302000D03*
X35052000Y1523998D03*
X35052000Y2540001D03*
X40949000Y16819000D03*
X36322000Y3683000D03*
X34544000Y15367000D03*
%TO.N,Net-(J2-Pad37)*%
X47244000Y11938000D03*
X48260000Y17653000D03*
%TD*%
D34*
%TO.N,+5V*%
X43133000Y3636000D02*
X40179000Y3636000D01*
%TO.N,GND*%
X45922500Y4965000D02*
X45085000Y4965000D01*
X45835000Y8140000D02*
X46355000Y7620000D01*
X46355000Y7620000D02*
X46355000Y5397500D01*
X46355000Y5397500D02*
X45922500Y4965000D01*
X45085000Y8140000D02*
X45835000Y8140000D01*
D35*
%TO.N,Net-(J2-Pad37)*%
X46355000Y8890000D02*
X46355000Y11049000D01*
X46355000Y11049000D02*
X47244000Y11938000D01*
X49109000Y6136000D02*
X46355000Y8890000D01*
X50038000Y6136000D02*
X49109000Y6136000D01*
D34*
%TO.N,GND*%
X41350000Y4965000D02*
X41235000Y5080000D01*
X45085000Y4965000D02*
X41350000Y4965000D01*
%TO.N,Net-(D4-Pad2)*%
X43370000Y9271000D02*
X43370000Y8180000D01*
X43370000Y8180000D02*
X45085000Y6465000D01*
%TO.N,+5V*%
X40949000Y10042000D02*
X41720000Y9271000D01*
X40949000Y11716000D02*
X40949000Y10042000D01*
X37909500Y7810500D02*
X40259500Y7810500D01*
X37909500Y7810500D02*
X36004500Y7810500D01*
X38798500Y7810500D02*
X37909500Y7810500D01*
X40259500Y7810500D02*
X41720000Y9271000D01*
D35*
X42196000Y11716000D02*
X40949000Y11716000D01*
X42545000Y12065000D02*
X42196000Y11716000D01*
X44450000Y12065000D02*
X42545000Y12065000D01*
X45125000Y12740000D02*
X44450000Y12065000D01*
D34*
%TO.N,Net-(D5-Pad2)*%
X43358000Y11240000D02*
X44958000Y9640000D01*
X43180000Y11240000D02*
X43358000Y11240000D01*
%TO.N,+3V3*%
X43006000Y12716000D02*
X43180000Y12890000D01*
X40949000Y12716000D02*
X43006000Y12716000D01*
X22860000Y20320000D02*
X22860000Y18542000D01*
X4318000Y18542000D02*
X26162000Y18542000D01*
X2540000Y20320000D02*
X4318000Y18542000D01*
X26162000Y18542000D02*
X28829000Y18542000D01*
X32639000Y10160000D02*
X35306000Y10160000D01*
X35306000Y10160000D02*
X37862000Y12716000D01*
X37862000Y12716000D02*
X40949000Y12716000D01*
X28829000Y18542000D02*
X30353000Y17018000D01*
X30353000Y17018000D02*
X30353000Y12446000D01*
X30353000Y12446000D02*
X32639000Y10160000D01*
D36*
%TO.N,+5V*%
X33147000Y8255000D02*
X33147000Y6793500D01*
X29591000Y11811000D02*
X33147000Y8255000D01*
X33147000Y6793500D02*
X33909000Y6031500D01*
X29591000Y16764000D02*
X29591000Y11811000D01*
X28702000Y17653000D02*
X29591000Y16764000D01*
X22987000Y17653000D02*
X28702000Y17653000D01*
X22987000Y17653000D02*
X4064000Y17653000D01*
X4064000Y17653000D02*
X3302000Y18415000D01*
X1270000Y18415000D02*
X3302000Y18415000D01*
D37*
%TO.N,GND*%
X18542000Y14986000D02*
X20909998Y14986000D01*
X18542000Y13716000D02*
X20828000Y13716000D01*
X18542000Y16256000D02*
X20828000Y16256000D01*
X17018000Y16256000D02*
X14732000Y16256000D01*
X17018000Y14986000D02*
X14650002Y14986000D01*
X17018000Y13716000D02*
X14732000Y13716000D01*
D38*
%TO.N,+5V*%
X34606500Y5334000D02*
X33909000Y6031500D01*
X36322000Y5334000D02*
X34606500Y5334000D01*
X37211000Y1651000D02*
X37211000Y4445000D01*
X37211000Y4445000D02*
X36322000Y5334000D01*
X36322000Y762000D02*
X37211000Y1651000D01*
X16510000Y762000D02*
X36322000Y762000D01*
X14732000Y9549000D02*
X14732000Y2540000D01*
X13740000Y10541000D02*
X14732000Y9549000D01*
X12765000Y10541000D02*
X13740000Y10541000D01*
X14732000Y2540000D02*
X16510000Y762000D01*
D34*
X40179000Y3636000D02*
X38735000Y5080000D01*
X50038000Y3636000D02*
X43133000Y3636000D01*
D39*
X37783500Y6031500D02*
X38735000Y5080000D01*
X36513500Y6031500D02*
X37783500Y6031500D01*
X35622500Y6031500D02*
X36513500Y6031500D01*
D35*
X34225500Y6031500D02*
X36004500Y7810500D01*
D37*
%TO.N,GND*%
X7049500Y4559000D02*
X9017000Y4559000D01*
X8787500Y4559000D02*
X7468488Y3239988D01*
X9017000Y4559000D02*
X9017000Y2986000D01*
D35*
X50125000Y14042000D02*
X51347000Y14042000D01*
D37*
X15747500Y9271000D02*
X17715000Y9271000D01*
X15747500Y10541000D02*
X17715000Y10541000D01*
X19682500Y9271000D02*
X17715000Y9271000D01*
X19682500Y10541000D02*
X17715000Y10541000D01*
X17717500Y5269500D02*
X17717500Y3302000D01*
X35876500Y12256500D02*
X33909000Y12256500D01*
X33020000Y14159500D02*
X33020000Y12192000D01*
X34798000Y14159500D02*
X34798000Y12192000D01*
X35078000Y3670000D02*
X36081000Y2667000D01*
D40*
X33795000Y2032000D02*
X33795000Y2019000D01*
D37*
X33909000Y14224000D02*
X33909000Y12256500D01*
X17717500Y3302000D02*
X18987500Y2032000D01*
X18987500Y2032000D02*
X19812000Y2032000D01*
X17971500Y3048000D02*
X19812000Y3048000D01*
X17717500Y3302000D02*
X17971500Y3048000D01*
X17717500Y3302000D02*
X16002002Y3302000D01*
D34*
X34303002Y1523998D02*
X33795000Y2032000D01*
X35052000Y1523998D02*
X34303002Y1523998D01*
X34303001Y2540001D02*
X33795000Y2032000D01*
X35052000Y2540001D02*
X34303001Y2540001D01*
D35*
X40949000Y15597000D02*
X40949000Y16819000D01*
D37*
X35078000Y3683000D02*
X36322000Y3683000D01*
X34544000Y15367000D02*
X32881000Y15367000D01*
D34*
X34671000Y15494000D02*
X34544000Y15367000D01*
X34671000Y16637000D02*
X34671000Y15494000D01*
D36*
%TO.N,VCC*%
X12765000Y4574500D02*
X11492500Y3302000D01*
X12765000Y6731000D02*
X12765000Y4574500D01*
X8750000Y6161000D02*
X8636000Y6047000D01*
X8750000Y8001000D02*
X8750000Y6161000D01*
X12765000Y6731000D02*
X11303000Y6731000D01*
X10619000Y6047000D02*
X8636000Y6047000D01*
X11303000Y6731000D02*
X10619000Y6047000D01*
X3888000Y6047000D02*
X3683000Y5842000D01*
X8636000Y6047000D02*
X3888000Y6047000D01*
X4445000Y10238000D02*
X4445000Y12740000D01*
X8636000Y6047000D02*
X4445000Y10238000D01*
X4445000Y12740000D02*
X6056000Y12740000D01*
X6731000Y12065000D02*
X9525000Y12065000D01*
X6056000Y12740000D02*
X6731000Y12065000D01*
D39*
%TO.N,+5V*%
X29335500Y6031500D02*
X29273000Y5969000D01*
D40*
X30226000Y3302000D02*
X30226000Y5016000D01*
X30226000Y5016000D02*
X29273000Y5969000D01*
X32245000Y2032000D02*
X31496000Y2032000D01*
X31496000Y2032000D02*
X30226000Y3302000D01*
X34023000Y5917500D02*
X33909000Y6031500D01*
X33515000Y3683000D02*
X33515000Y5917500D01*
D38*
X32258000Y2019000D02*
X32245000Y2032000D01*
X33909000Y6031500D02*
X34225500Y6031500D01*
D35*
X34354500Y6477000D02*
X33909000Y6031500D01*
D36*
X1143000Y22860000D02*
X5080000Y22860000D01*
X635000Y22352000D02*
X1143000Y22860000D01*
X635000Y19050000D02*
X635000Y22352000D01*
X1270000Y18415000D02*
X635000Y19050000D01*
D39*
X31558500Y6031500D02*
X29335500Y6031500D01*
X33909000Y6031500D02*
X31558500Y6031500D01*
X31558500Y6031500D02*
X35622500Y6031500D01*
D35*
X45125000Y12740000D02*
X45125000Y12486000D01*
X45125000Y14042000D02*
X45125000Y12740000D01*
%TO.N,Net-(C5-Pad2)*%
X10300000Y8001000D02*
X12765000Y8001000D01*
D40*
%TO.N,Net-(D1-Pad1)*%
X19241000Y8001000D02*
X21273000Y5969000D01*
X17715000Y8001000D02*
X19241000Y8001000D01*
X20511000Y6731000D02*
X21273000Y5969000D01*
X17715000Y6731000D02*
X20511000Y6731000D01*
D41*
X26498000Y11194000D02*
X21273000Y5969000D01*
X26498000Y14986000D02*
X26498000Y11194000D01*
D35*
%TO.N,Net-(J2-Pad28)*%
X40949000Y14597000D02*
X38108000Y14597000D01*
X38108000Y14597000D02*
X36830000Y15875000D01*
X36830000Y21590000D02*
X35560000Y22860000D01*
X36830000Y15875000D02*
X36830000Y21590000D01*
%TO.N,Net-(J2-Pad27)*%
X35560000Y20320000D02*
X35560000Y15240000D01*
X37203000Y13597000D02*
X40949000Y13597000D01*
X35560000Y15240000D02*
X37203000Y13597000D01*
D34*
%TO.N,Net-(J2-Pad23)*%
X30480000Y20320000D02*
X31496000Y19304000D01*
X31496000Y19304000D02*
X31877000Y19304000D01*
X32830000Y18351000D02*
X33147000Y18351000D01*
X31877000Y19304000D02*
X32830000Y18351000D01*
%TO.N,Net-(J2-Pad21)*%
X31369000Y18351000D02*
X29909000Y18351000D01*
X29909000Y18351000D02*
X27940000Y20320000D01*
D35*
%TO.N,Net-(J2-Pad40)*%
X49530000Y15875000D02*
X49530000Y21590000D01*
X49530000Y21590000D02*
X50800000Y22860000D01*
X49125000Y15470000D02*
X49530000Y15875000D01*
X49125000Y14042000D02*
X49125000Y15470000D01*
%TO.N,Net-(J2-Pad38)*%
X48260000Y22860000D02*
X46990000Y21590000D01*
X48125000Y15375000D02*
X48125000Y14042000D01*
X46990000Y16510000D02*
X48125000Y15375000D01*
X46990000Y21590000D02*
X46990000Y16510000D01*
%TO.N,Net-(J2-Pad37)*%
X48260000Y20320000D02*
X48260000Y17653000D01*
%TO.N,Net-(J2-Pad36)*%
X45720000Y22860000D02*
X44450000Y21590000D01*
X44450000Y21590000D02*
X44450000Y18796000D01*
X46125000Y14042000D02*
X46125000Y15089000D01*
X45148500Y16065500D02*
X45148500Y18097500D01*
X46125000Y15089000D02*
X45148500Y16065500D01*
X44450000Y18796000D02*
X45148500Y18097500D01*
%TO.N,Net-(J2-Pad35)*%
X45720000Y20320000D02*
X45720000Y16637000D01*
X47125000Y15232000D02*
X47125000Y14042000D01*
X45720000Y16637000D02*
X47125000Y15232000D01*
D34*
%TO.N,Net-(D2-Pad2)*%
X34583000Y18137000D02*
X33147000Y16701000D01*
X34671000Y18137000D02*
X34583000Y18137000D01*
%TO.N,Net-(D3-Pad2)*%
X31369000Y15379000D02*
X31381000Y15367000D01*
X31369000Y16701000D02*
X31369000Y15379000D01*
%TD*%
M02*
