M48
; DRILL file {KiCad (6.0.1)} date Sun Jan  1 20:52:33 2023
; FORMAT={-:-/ absolute / inch / decimal}
; #@! TF.CreationDate,2023-01-01T20:52:33-08:00
; #@! TF.GenerationSoftware,Kicad,Pcbnew,(6.0.1)
; #@! TF.FileFunction,Plated,1,2,PTH
FMAT,2
INCH
; #@! TA.AperFunction,Plated,PTH,ViaDrill
T1C0.0157
; #@! TA.AperFunction,Plated,PTH,ComponentDrill
T2C0.0315
; #@! TA.AperFunction,Plated,PTH,ComponentDrill
T3C0.0374
; #@! TA.AperFunction,Plated,PTH,ComponentDrill
T4C0.0394
; #@! TA.AperFunction,Plated,PTH,ComponentDrill
T5C0.0512
%
G90
G05
T1
X0.2775Y0.1795
X0.295Y0.1276
X0.355Y0.1176
X0.58Y0.64
X0.58Y0.59
X0.58Y0.54
X0.62Y0.415
X0.62Y0.365
X0.63Y0.13
X0.6975Y0.2075
X0.7749Y0.415
X0.7749Y0.365
X0.78Y0.12
X0.78Y0.08
X0.82Y0.64
X0.82Y0.59
X0.82Y0.54
X1.3Y0.5575
X1.335Y0.56
X1.36Y0.605
X1.37Y0.5575
X1.38Y0.1
X1.38Y0.06
X1.4125Y0.4825
X1.4205Y0.105
X1.43Y0.145
X1.485Y0.685
X1.485Y0.65
X1.485Y0.4239
X1.485Y0.3889
X1.54Y0.685
X1.54Y0.65
X1.54Y0.4239
X1.54Y0.3889
X1.6122Y0.6622
X1.7056Y0.6795
X1.7056Y0.6245
X1.7406Y0.6795
X1.7406Y0.6245
X1.86Y0.47
X1.9Y0.695
X2.0048Y0.6795
X2.0048Y0.6245
X2.0215Y0.5528
X2.0398Y0.6795
X2.0398Y0.6245
T2
X0.145Y0.23
X0.145Y0.1316
X1.525Y0.2
X1.6234Y0.2
T3
X1.97Y0.34
X1.97Y0.2416
X1.97Y0.1431
T4
X0.1Y0.9
X0.1Y0.8
X0.175Y0.6
X0.175Y0.5016
X0.2Y0.9
X0.2Y0.8
X0.3Y0.9
X0.3Y0.8
X0.4Y0.9
X0.4Y0.8
X0.5Y0.9
X0.5Y0.8
X0.6Y0.9
X0.6Y0.8
X0.7Y0.9
X0.7Y0.8
X0.8Y0.9
X0.8Y0.8
X0.9Y0.9
X0.9Y0.8
X1.0Y0.9
X1.0Y0.8
X1.1Y0.9
X1.1Y0.8
X1.2Y0.9
X1.2Y0.8
X1.3Y0.9
X1.3Y0.8
X1.4Y0.9
X1.4Y0.8
X1.5Y0.9
X1.5Y0.8
X1.6Y0.9
X1.6Y0.8
X1.7Y0.9
X1.7Y0.8
X1.8Y0.9
X1.8Y0.8
X1.9Y0.9
X1.9Y0.8
X2.0Y0.9
X2.0Y0.8
T5
X0.345Y0.61
X0.345Y0.465
T0
M30
