%TF.GenerationSoftware,KiCad,Pcbnew,(6.0.1)*%
%TF.CreationDate,2023-01-01T20:52:33-08:00*%
%TF.ProjectId,RPi-Power R1,5250692d-506f-4776-9572-2052312e6b69,rev?*%
%TF.SameCoordinates,Original*%
%TF.FileFunction,Soldermask,Bot*%
%TF.FilePolarity,Negative*%
%FSLAX46Y46*%
G04 Gerber Fmt 4.6, Leading zero omitted, Abs format (unit mm)*
G04 Created by KiCad (PCBNEW (6.0.1)) date 2023-01-01 20:52:33*
%MOMM*%
%LPD*%
G01*
G04 APERTURE LIST*
G04 Aperture macros list*
%AMRoundRect*
0 Rectangle with rounded corners*
0 $1 Rounding radius*
0 $2 $3 $4 $5 $6 $7 $8 $9 X,Y pos of 4 corners*
0 Add a 4 corners polygon primitive as box body*
4,1,4,$2,$3,$4,$5,$6,$7,$8,$9,$2,$3,0*
0 Add four circle primitives for the rounded corners*
1,1,$1+$1,$2,$3*
1,1,$1+$1,$4,$5*
1,1,$1+$1,$6,$7*
1,1,$1+$1,$8,$9*
0 Add four rect primitives between the rounded corners*
20,1,$1+$1,$2,$3,$4,$5,0*
20,1,$1+$1,$4,$5,$6,$7,0*
20,1,$1+$1,$6,$7,$8,$9,0*
20,1,$1+$1,$8,$9,$2,$3,0*%
G04 Aperture macros list end*
%ADD10RoundRect,0.050000X-0.800000X-0.800000X0.800000X-0.800000X0.800000X0.800000X-0.800000X0.800000X0*%
%ADD11C,1.700000*%
%ADD12RoundRect,0.300000X-0.725000X0.600000X-0.725000X-0.600000X0.725000X-0.600000X0.725000X0.600000X0*%
%ADD13O,2.050000X1.800000*%
%ADD14C,1.300000*%
%ADD15RoundRect,0.050000X0.850000X-0.850000X0.850000X0.850000X-0.850000X0.850000X-0.850000X-0.850000X0*%
%ADD16O,1.800000X1.800000*%
%ADD17RoundRect,0.300000X-0.750000X0.600000X-0.750000X-0.600000X0.750000X-0.600000X0.750000X0.600000X0*%
%ADD18O,2.100000X1.800000*%
%ADD19C,2.700000*%
%ADD20RoundRect,0.050000X-0.800000X0.800000X-0.800000X-0.800000X0.800000X-0.800000X0.800000X0.800000X0*%
%ADD21C,0.900000*%
G04 APERTURE END LIST*
D10*
%TO.C,C8*%
X38735000Y5080000D03*
D11*
X41235000Y5080000D03*
%TD*%
D12*
%TO.C,J7*%
X50038000Y8636000D03*
D13*
X50038000Y6136000D03*
X50038000Y3636000D03*
D14*
X48038000Y10236000D03*
%TD*%
D15*
%TO.C,J2*%
X2540000Y20320000D03*
D16*
X2540000Y22860000D03*
X5080000Y20320000D03*
X5080000Y22860000D03*
X7620000Y20320000D03*
X7620000Y22860000D03*
X10160000Y20320000D03*
X10160000Y22860000D03*
X12700000Y20320000D03*
X12700000Y22860000D03*
X15240000Y20320000D03*
X15240000Y22860000D03*
X17780000Y20320000D03*
X17780000Y22860000D03*
X20320000Y20320000D03*
X20320000Y22860000D03*
X22860000Y20320000D03*
X22860000Y22860000D03*
X25400000Y20320000D03*
X25400000Y22860000D03*
X27940000Y20320000D03*
X27940000Y22860000D03*
X30480000Y20320000D03*
X30480000Y22860000D03*
X33020000Y20320000D03*
X33020000Y22860000D03*
X35560000Y20320000D03*
X35560000Y22860000D03*
X38100000Y20320000D03*
X38100000Y22860000D03*
X40640000Y20320000D03*
X40640000Y22860000D03*
X43180000Y20320000D03*
X43180000Y22860000D03*
X45720000Y20320000D03*
X45720000Y22860000D03*
X48260000Y20320000D03*
X48260000Y22860000D03*
X50800000Y20320000D03*
X50800000Y22860000D03*
%TD*%
D17*
%TO.C,J1*%
X4445000Y15240000D03*
D18*
X4445000Y12740000D03*
D14*
X2445000Y16840000D03*
%TD*%
D19*
%TO.C,J4*%
X8763000Y15494000D03*
%TD*%
%TO.C,J3*%
X8763000Y11811000D03*
%TD*%
D20*
%TO.C,C1*%
X3683000Y5842000D03*
D11*
X3683000Y3342000D03*
%TD*%
D21*
X20828000Y14986000D03*
X20828000Y16256000D03*
X20828000Y13716000D03*
X14732000Y13716000D03*
X14732000Y14986000D03*
X14732000Y16256000D03*
X37719000Y17399000D03*
X37719000Y16510000D03*
X39116000Y17399000D03*
X39116000Y16510000D03*
X39116000Y10766000D03*
X39116000Y9877000D03*
X37719000Y9877000D03*
X37719000Y10766000D03*
X43323000Y17259000D03*
X44212000Y17259000D03*
X44212000Y15862000D03*
X43323000Y15862000D03*
X50923000Y17259000D03*
X51812000Y17259000D03*
X51812000Y15862000D03*
X50923000Y15862000D03*
X7493000Y3239988D03*
X7049500Y4559000D03*
X9017000Y2986000D03*
X51347000Y14042000D03*
X15747500Y9271000D03*
X15747500Y10541000D03*
X19682500Y9271000D03*
X19682500Y10541000D03*
X17717500Y5269500D03*
X35876500Y12256500D03*
X33020000Y14159500D03*
X34798000Y14159500D03*
X36081000Y2667000D03*
X33909000Y14224000D03*
X19812000Y3048000D03*
X19812000Y2032000D03*
X16002002Y3302000D03*
X35052000Y1523998D03*
X35052000Y2540001D03*
X40949000Y16819000D03*
X36322000Y3683000D03*
X34544000Y15367000D03*
X47244000Y11938000D03*
X48260000Y17653000D03*
M02*
