%TF.GenerationSoftware,KiCad,Pcbnew,(6.0.1)*%
%TF.CreationDate,2023-01-01T20:52:33-08:00*%
%TF.ProjectId,RPi-Power R1,5250692d-506f-4776-9572-2052312e6b69,rev?*%
%TF.SameCoordinates,Original*%
%TF.FileFunction,Legend,Bot*%
%TF.FilePolarity,Positive*%
%FSLAX46Y46*%
G04 Gerber Fmt 4.6, Leading zero omitted, Abs format (unit mm)*
G04 Created by KiCad (PCBNEW (6.0.1)) date 2023-01-01 20:52:33*
%MOMM*%
%LPD*%
G01*
G04 APERTURE LIST*
G04 Aperture macros list*
%AMRoundRect*
0 Rectangle with rounded corners*
0 $1 Rounding radius*
0 $2 $3 $4 $5 $6 $7 $8 $9 X,Y pos of 4 corners*
0 Add a 4 corners polygon primitive as box body*
4,1,4,$2,$3,$4,$5,$6,$7,$8,$9,$2,$3,0*
0 Add four circle primitives for the rounded corners*
1,1,$1+$1,$2,$3*
1,1,$1+$1,$4,$5*
1,1,$1+$1,$6,$7*
1,1,$1+$1,$8,$9*
0 Add four rect primitives between the rounded corners*
20,1,$1+$1,$2,$3,$4,$5,0*
20,1,$1+$1,$4,$5,$6,$7,0*
20,1,$1+$1,$6,$7,$8,$9,0*
20,1,$1+$1,$8,$9,$2,$3,0*%
G04 Aperture macros list end*
%ADD10C,0.300000*%
%ADD11RoundRect,0.050000X-0.800000X-0.800000X0.800000X-0.800000X0.800000X0.800000X-0.800000X0.800000X0*%
%ADD12C,1.700000*%
%ADD13RoundRect,0.300000X-0.725000X0.600000X-0.725000X-0.600000X0.725000X-0.600000X0.725000X0.600000X0*%
%ADD14O,2.050000X1.800000*%
%ADD15C,1.300000*%
%ADD16RoundRect,0.050000X0.850000X-0.850000X0.850000X0.850000X-0.850000X0.850000X-0.850000X-0.850000X0*%
%ADD17O,1.800000X1.800000*%
%ADD18RoundRect,0.300000X-0.750000X0.600000X-0.750000X-0.600000X0.750000X-0.600000X0.750000X0.600000X0*%
%ADD19O,2.100000X1.800000*%
%ADD20C,2.700000*%
%ADD21RoundRect,0.050000X-0.800000X0.800000X-0.800000X-0.800000X0.800000X-0.800000X0.800000X0.800000X0*%
%ADD22C,0.900000*%
G04 APERTURE END LIST*
D10*
X31973257Y10817928D02*
X31973257Y12317928D01*
X31401828Y12317928D01*
X31258971Y12246500D01*
X31187542Y12175071D01*
X31116114Y12032214D01*
X31116114Y11817928D01*
X31187542Y11675071D01*
X31258971Y11603642D01*
X31401828Y11532214D01*
X31973257Y11532214D01*
X30473257Y10817928D02*
X30473257Y11817928D01*
X30473257Y12317928D02*
X30544685Y12246500D01*
X30473257Y12175071D01*
X30401828Y12246500D01*
X30473257Y12317928D01*
X30473257Y12175071D01*
X29758971Y10817928D02*
X29758971Y12317928D01*
X29187542Y12317928D01*
X29044685Y12246500D01*
X28973257Y12175071D01*
X28901828Y12032214D01*
X28901828Y11817928D01*
X28973257Y11675071D01*
X29044685Y11603642D01*
X29187542Y11532214D01*
X29758971Y11532214D01*
X28044685Y10817928D02*
X28187542Y10889357D01*
X28258971Y10960785D01*
X28330400Y11103642D01*
X28330400Y11532214D01*
X28258971Y11675071D01*
X28187542Y11746500D01*
X28044685Y11817928D01*
X27830400Y11817928D01*
X27687542Y11746500D01*
X27616114Y11675071D01*
X27544685Y11532214D01*
X27544685Y11103642D01*
X27616114Y10960785D01*
X27687542Y10889357D01*
X27830400Y10817928D01*
X28044685Y10817928D01*
X27044685Y11817928D02*
X26758971Y10817928D01*
X26473257Y11532214D01*
X26187542Y10817928D01*
X25901828Y11817928D01*
X24758971Y10889357D02*
X24901828Y10817928D01*
X25187542Y10817928D01*
X25330400Y10889357D01*
X25401828Y11032214D01*
X25401828Y11603642D01*
X25330400Y11746500D01*
X25187542Y11817928D01*
X24901828Y11817928D01*
X24758971Y11746500D01*
X24687542Y11603642D01*
X24687542Y11460785D01*
X25401828Y11317928D01*
X24044685Y10817928D02*
X24044685Y11817928D01*
X24044685Y11532214D02*
X23973257Y11675071D01*
X23901828Y11746500D01*
X23758971Y11817928D01*
X23616114Y11817928D01*
X29580400Y6130785D02*
X29651828Y6059357D01*
X29866114Y5987928D01*
X30008971Y5987928D01*
X30223257Y6059357D01*
X30366114Y6202214D01*
X30437542Y6345071D01*
X30508971Y6630785D01*
X30508971Y6845071D01*
X30437542Y7130785D01*
X30366114Y7273642D01*
X30223257Y7416500D01*
X30008971Y7487928D01*
X29866114Y7487928D01*
X29651828Y7416500D01*
X29580400Y7345071D01*
X28937542Y6130785D02*
X28866114Y6059357D01*
X28937542Y5987928D01*
X29008971Y6059357D01*
X28937542Y6130785D01*
X28937542Y5987928D01*
X28366114Y7487928D02*
X28008971Y5987928D01*
X27723257Y7059357D01*
X27437542Y5987928D01*
X27080400Y7487928D01*
X26294685Y5987928D02*
X26437542Y6059357D01*
X26508971Y6130785D01*
X26580400Y6273642D01*
X26580400Y6702214D01*
X26508971Y6845071D01*
X26437542Y6916500D01*
X26294685Y6987928D01*
X26080400Y6987928D01*
X25937542Y6916500D01*
X25866114Y6845071D01*
X25794685Y6702214D01*
X25794685Y6273642D01*
X25866114Y6130785D01*
X25937542Y6059357D01*
X26080400Y5987928D01*
X26294685Y5987928D01*
X24937542Y5987928D02*
X25080400Y6059357D01*
X25151828Y6202214D01*
X25151828Y7487928D01*
X24580400Y6987928D02*
X24008971Y6987928D01*
X24366114Y5987928D02*
X24366114Y7273642D01*
X24294685Y7416500D01*
X24151828Y7487928D01*
X24008971Y7487928D01*
X32258971Y4930071D02*
X32187542Y5001500D01*
X32044685Y5072928D01*
X31687542Y5072928D01*
X31544685Y5001500D01*
X31473257Y4930071D01*
X31401828Y4787214D01*
X31401828Y4644357D01*
X31473257Y4430071D01*
X32330400Y3572928D01*
X31401828Y3572928D01*
X30473257Y5072928D02*
X30330400Y5072928D01*
X30187542Y5001500D01*
X30116114Y4930071D01*
X30044685Y4787214D01*
X29973257Y4501500D01*
X29973257Y4144357D01*
X30044685Y3858642D01*
X30116114Y3715785D01*
X30187542Y3644357D01*
X30330400Y3572928D01*
X30473257Y3572928D01*
X30616114Y3644357D01*
X30687542Y3715785D01*
X30758971Y3858642D01*
X30830400Y4144357D01*
X30830400Y4501500D01*
X30758971Y4787214D01*
X30687542Y4930071D01*
X30616114Y5001500D01*
X30473257Y5072928D01*
X29401828Y4930071D02*
X29330400Y5001500D01*
X29187542Y5072928D01*
X28830400Y5072928D01*
X28687542Y5001500D01*
X28616114Y4930071D01*
X28544685Y4787214D01*
X28544685Y4644357D01*
X28616114Y4430071D01*
X29473257Y3572928D01*
X28544685Y3572928D01*
X28044685Y5072928D02*
X27116114Y5072928D01*
X27616114Y4501500D01*
X27401828Y4501500D01*
X27258971Y4430071D01*
X27187542Y4358642D01*
X27116114Y4215785D01*
X27116114Y3858642D01*
X27187542Y3715785D01*
X27258971Y3644357D01*
X27401828Y3572928D01*
X27830400Y3572928D01*
X27973257Y3644357D01*
X28044685Y3715785D01*
X26473257Y4144357D02*
X25330400Y4144357D01*
X24330400Y5072928D02*
X24187542Y5072928D01*
X24044685Y5001500D01*
X23973257Y4930071D01*
X23901828Y4787214D01*
X23830400Y4501500D01*
X23830400Y4144357D01*
X23901828Y3858642D01*
X23973257Y3715785D01*
X24044685Y3644357D01*
X24187542Y3572928D01*
X24330400Y3572928D01*
X24473257Y3644357D01*
X24544685Y3715785D01*
X24616114Y3858642D01*
X24687542Y4144357D01*
X24687542Y4501500D01*
X24616114Y4787214D01*
X24544685Y4930071D01*
X24473257Y5001500D01*
X24330400Y5072928D01*
X22401828Y3572928D02*
X23258971Y3572928D01*
X22830400Y3572928D02*
X22830400Y5072928D01*
X22973257Y4858642D01*
X23116114Y4715785D01*
X23258971Y4644357D01*
X47434357Y8753000D02*
X47577214Y8824428D01*
X47791500Y8824428D01*
X48005785Y8753000D01*
X48148642Y8610142D01*
X48220071Y8467285D01*
X48291500Y8181571D01*
X48291500Y7967285D01*
X48220071Y7681571D01*
X48148642Y7538714D01*
X48005785Y7395857D01*
X47791500Y7324428D01*
X47648642Y7324428D01*
X47434357Y7395857D01*
X47362928Y7467285D01*
X47362928Y7967285D01*
X47648642Y7967285D01*
X46720071Y7324428D02*
X46720071Y8824428D01*
X45862928Y7324428D01*
X45862928Y8824428D01*
X45148642Y7324428D02*
X45148642Y8824428D01*
X44791500Y8824428D01*
X44577214Y8753000D01*
X44434357Y8610142D01*
X44362928Y8467285D01*
X44291500Y8181571D01*
X44291500Y7967285D01*
X44362928Y7681571D01*
X44434357Y7538714D01*
X44577214Y7395857D01*
X44791500Y7324428D01*
X45148642Y7324428D01*
X47827214Y4980857D02*
X47612928Y4909428D01*
X47255785Y4909428D01*
X47112928Y4980857D01*
X47041500Y5052285D01*
X46970071Y5195142D01*
X46970071Y5338000D01*
X47041500Y5480857D01*
X47112928Y5552285D01*
X47255785Y5623714D01*
X47541500Y5695142D01*
X47684357Y5766571D01*
X47755785Y5838000D01*
X47827214Y5980857D01*
X47827214Y6123714D01*
X47755785Y6266571D01*
X47684357Y6338000D01*
X47541500Y6409428D01*
X47184357Y6409428D01*
X46970071Y6338000D01*
X46327214Y4909428D02*
X46327214Y6409428D01*
X44827214Y6338000D02*
X44970071Y6409428D01*
X45184357Y6409428D01*
X45398642Y6338000D01*
X45541500Y6195142D01*
X45612928Y6052285D01*
X45684357Y5766571D01*
X45684357Y5552285D01*
X45612928Y5266571D01*
X45541500Y5123714D01*
X45398642Y4980857D01*
X45184357Y4909428D01*
X45041500Y4909428D01*
X44827214Y4980857D01*
X44755785Y5052285D01*
X44755785Y5552285D01*
X45041500Y5552285D01*
X47291500Y3994428D02*
X48005785Y3994428D01*
X48077214Y3280142D01*
X48005785Y3351571D01*
X47862928Y3423000D01*
X47505785Y3423000D01*
X47362928Y3351571D01*
X47291500Y3280142D01*
X47220071Y3137285D01*
X47220071Y2780142D01*
X47291500Y2637285D01*
X47362928Y2565857D01*
X47505785Y2494428D01*
X47862928Y2494428D01*
X48005785Y2565857D01*
X48077214Y2637285D01*
X46791500Y3994428D02*
X46291500Y2494428D01*
X45791500Y3994428D01*
X45005785Y3994428D02*
X44862928Y3994428D01*
X44720071Y3923000D01*
X44648642Y3851571D01*
X44577214Y3708714D01*
X44505785Y3423000D01*
X44505785Y3065857D01*
X44577214Y2780142D01*
X44648642Y2637285D01*
X44720071Y2565857D01*
X44862928Y2494428D01*
X45005785Y2494428D01*
X45148642Y2565857D01*
X45220071Y2637285D01*
X45291500Y2780142D01*
X45362928Y3065857D01*
X45362928Y3423000D01*
X45291500Y3708714D01*
X45220071Y3851571D01*
X45148642Y3923000D01*
X45005785Y3994428D01*
X14477857Y15864000D02*
X14620714Y15935428D01*
X14835000Y15935428D01*
X15049285Y15864000D01*
X15192142Y15721142D01*
X15263571Y15578285D01*
X15335000Y15292571D01*
X15335000Y15078285D01*
X15263571Y14792571D01*
X15192142Y14649714D01*
X15049285Y14506857D01*
X14835000Y14435428D01*
X14692142Y14435428D01*
X14477857Y14506857D01*
X14406428Y14578285D01*
X14406428Y15078285D01*
X14692142Y15078285D01*
X13763571Y14435428D02*
X13763571Y15935428D01*
X12906428Y14435428D01*
X12906428Y15935428D01*
X12192142Y14435428D02*
X12192142Y15935428D01*
X11835000Y15935428D01*
X11620714Y15864000D01*
X11477857Y15721142D01*
X11406428Y15578285D01*
X11335000Y15292571D01*
X11335000Y15078285D01*
X11406428Y14792571D01*
X11477857Y14649714D01*
X11620714Y14506857D01*
X11835000Y14435428D01*
X12192142Y14435428D01*
X15335000Y13520428D02*
X14835000Y12020428D01*
X14335000Y13520428D01*
X12977857Y12163285D02*
X13049285Y12091857D01*
X13263571Y12020428D01*
X13406428Y12020428D01*
X13620714Y12091857D01*
X13763571Y12234714D01*
X13835000Y12377571D01*
X13906428Y12663285D01*
X13906428Y12877571D01*
X13835000Y13163285D01*
X13763571Y13306142D01*
X13620714Y13449000D01*
X13406428Y13520428D01*
X13263571Y13520428D01*
X13049285Y13449000D01*
X12977857Y13377571D01*
X11477857Y12163285D02*
X11549285Y12091857D01*
X11763571Y12020428D01*
X11906428Y12020428D01*
X12120714Y12091857D01*
X12263571Y12234714D01*
X12335000Y12377571D01*
X12406428Y12663285D01*
X12406428Y12877571D01*
X12335000Y13163285D01*
X12263571Y13306142D01*
X12120714Y13449000D01*
X11906428Y13520428D01*
X11763571Y13520428D01*
X11549285Y13449000D01*
X11477857Y13377571D01*
%LPC*%
D11*
%TO.C,C8*%
X38735000Y5080000D03*
D12*
X41235000Y5080000D03*
%TD*%
D13*
%TO.C,J7*%
X50038000Y8636000D03*
D14*
X50038000Y6136000D03*
X50038000Y3636000D03*
D15*
X48038000Y10236000D03*
%TD*%
D16*
%TO.C,J2*%
X2540000Y20320000D03*
D17*
X2540000Y22860000D03*
X5080000Y20320000D03*
X5080000Y22860000D03*
X7620000Y20320000D03*
X7620000Y22860000D03*
X10160000Y20320000D03*
X10160000Y22860000D03*
X12700000Y20320000D03*
X12700000Y22860000D03*
X15240000Y20320000D03*
X15240000Y22860000D03*
X17780000Y20320000D03*
X17780000Y22860000D03*
X20320000Y20320000D03*
X20320000Y22860000D03*
X22860000Y20320000D03*
X22860000Y22860000D03*
X25400000Y20320000D03*
X25400000Y22860000D03*
X27940000Y20320000D03*
X27940000Y22860000D03*
X30480000Y20320000D03*
X30480000Y22860000D03*
X33020000Y20320000D03*
X33020000Y22860000D03*
X35560000Y20320000D03*
X35560000Y22860000D03*
X38100000Y20320000D03*
X38100000Y22860000D03*
X40640000Y20320000D03*
X40640000Y22860000D03*
X43180000Y20320000D03*
X43180000Y22860000D03*
X45720000Y20320000D03*
X45720000Y22860000D03*
X48260000Y20320000D03*
X48260000Y22860000D03*
X50800000Y20320000D03*
X50800000Y22860000D03*
%TD*%
D18*
%TO.C,J1*%
X4445000Y15240000D03*
D19*
X4445000Y12740000D03*
D15*
X2445000Y16840000D03*
%TD*%
D20*
%TO.C,J4*%
X8763000Y15494000D03*
%TD*%
%TO.C,J3*%
X8763000Y11811000D03*
%TD*%
D21*
%TO.C,C1*%
X3683000Y5842000D03*
D12*
X3683000Y3342000D03*
%TD*%
D22*
X20828000Y14986000D03*
X20828000Y16256000D03*
X20828000Y13716000D03*
X14732000Y13716000D03*
X14732000Y14986000D03*
X14732000Y16256000D03*
X37719000Y17399000D03*
X37719000Y16510000D03*
X39116000Y17399000D03*
X39116000Y16510000D03*
X39116000Y10766000D03*
X39116000Y9877000D03*
X37719000Y9877000D03*
X37719000Y10766000D03*
X43323000Y17259000D03*
X44212000Y17259000D03*
X44212000Y15862000D03*
X43323000Y15862000D03*
X50923000Y17259000D03*
X51812000Y17259000D03*
X51812000Y15862000D03*
X50923000Y15862000D03*
X7493000Y3239988D03*
X7049500Y4559000D03*
X9017000Y2986000D03*
X51347000Y14042000D03*
X15747500Y9271000D03*
X15747500Y10541000D03*
X19682500Y9271000D03*
X19682500Y10541000D03*
X17717500Y5269500D03*
X35876500Y12256500D03*
X33020000Y14159500D03*
X34798000Y14159500D03*
X36081000Y2667000D03*
X33909000Y14224000D03*
X19812000Y3048000D03*
X19812000Y2032000D03*
X16002002Y3302000D03*
X35052000Y1523998D03*
X35052000Y2540001D03*
X40949000Y16819000D03*
X36322000Y3683000D03*
X34544000Y15367000D03*
X47244000Y11938000D03*
X48260000Y17653000D03*
M02*
