%TF.GenerationSoftware,KiCad,Pcbnew,7.0.8*%
%TF.CreationDate,2023-10-09T03:06:34-07:00*%
%TF.ProjectId,PZEM-Stack R1,505a454d-2d53-4746-9163-6b2052312e6b,rev?*%
%TF.SameCoordinates,Original*%
%TF.FileFunction,Legend,Top*%
%TF.FilePolarity,Positive*%
%FSLAX46Y46*%
G04 Gerber Fmt 4.6, Leading zero omitted, Abs format (unit mm)*
G04 Created by KiCad (PCBNEW 7.0.8) date 2023-10-09 03:06:34*
%MOMM*%
%LPD*%
G01*
G04 APERTURE LIST*
%ADD10C,0.150000*%
%ADD11C,0.127000*%
%ADD12C,0.120000*%
G04 APERTURE END LIST*
D10*
X38436533Y54748166D02*
X39003200Y54748166D01*
X39003200Y54748166D02*
X39069866Y54781500D01*
X39069866Y54781500D02*
X39103200Y54814833D01*
X39103200Y54814833D02*
X39136533Y54881500D01*
X39136533Y54881500D02*
X39136533Y55014833D01*
X39136533Y55014833D02*
X39103200Y55081500D01*
X39103200Y55081500D02*
X39069866Y55114833D01*
X39069866Y55114833D02*
X39003200Y55148166D01*
X39003200Y55148166D02*
X38436533Y55148166D01*
X38503200Y55448166D02*
X38469866Y55481499D01*
X38469866Y55481499D02*
X38436533Y55548166D01*
X38436533Y55548166D02*
X38436533Y55714833D01*
X38436533Y55714833D02*
X38469866Y55781499D01*
X38469866Y55781499D02*
X38503200Y55814833D01*
X38503200Y55814833D02*
X38569866Y55848166D01*
X38569866Y55848166D02*
X38636533Y55848166D01*
X38636533Y55848166D02*
X38736533Y55814833D01*
X38736533Y55814833D02*
X39136533Y55414833D01*
X39136533Y55414833D02*
X39136533Y55848166D01*
X38081039Y88292124D02*
X38081039Y89292124D01*
X38081039Y88815934D02*
X38652467Y88815934D01*
X38652467Y88292124D02*
X38652467Y89292124D01*
X39557229Y88958791D02*
X39557229Y88292124D01*
X39319134Y89339744D02*
X39081039Y88625458D01*
X39081039Y88625458D02*
X39700086Y88625458D01*
X31174095Y1259180D02*
X31174095Y2259180D01*
X31174095Y1782990D02*
X31745523Y1782990D01*
X31745523Y1259180D02*
X31745523Y2259180D01*
X32126476Y2259180D02*
X32745523Y2259180D01*
X32745523Y2259180D02*
X32412190Y1878228D01*
X32412190Y1878228D02*
X32555047Y1878228D01*
X32555047Y1878228D02*
X32650285Y1830609D01*
X32650285Y1830609D02*
X32697904Y1782990D01*
X32697904Y1782990D02*
X32745523Y1687752D01*
X32745523Y1687752D02*
X32745523Y1449657D01*
X32745523Y1449657D02*
X32697904Y1354419D01*
X32697904Y1354419D02*
X32650285Y1306800D01*
X32650285Y1306800D02*
X32555047Y1259180D01*
X32555047Y1259180D02*
X32269333Y1259180D01*
X32269333Y1259180D02*
X32174095Y1306800D01*
X32174095Y1306800D02*
X32126476Y1354419D01*
X444095Y89116180D02*
X444095Y90116180D01*
X444095Y89639990D02*
X1015523Y89639990D01*
X1015523Y89116180D02*
X1015523Y90116180D01*
X1444095Y90020942D02*
X1491714Y90068561D01*
X1491714Y90068561D02*
X1586952Y90116180D01*
X1586952Y90116180D02*
X1825047Y90116180D01*
X1825047Y90116180D02*
X1920285Y90068561D01*
X1920285Y90068561D02*
X1967904Y90020942D01*
X1967904Y90020942D02*
X2015523Y89925704D01*
X2015523Y89925704D02*
X2015523Y89830466D01*
X2015523Y89830466D02*
X1967904Y89687609D01*
X1967904Y89687609D02*
X1396476Y89116180D01*
X1396476Y89116180D02*
X2015523Y89116180D01*
X7302095Y878180D02*
X7302095Y1878180D01*
X7302095Y1401990D02*
X7873523Y1401990D01*
X7873523Y878180D02*
X7873523Y1878180D01*
X8873523Y878180D02*
X8302095Y878180D01*
X8587809Y878180D02*
X8587809Y1878180D01*
X8587809Y1878180D02*
X8492571Y1735323D01*
X8492571Y1735323D02*
X8397333Y1640085D01*
X8397333Y1640085D02*
X8302095Y1592466D01*
X13166666Y88995180D02*
X13166666Y88280895D01*
X13166666Y88280895D02*
X13119047Y88138038D01*
X13119047Y88138038D02*
X13023809Y88042800D01*
X13023809Y88042800D02*
X12880952Y87995180D01*
X12880952Y87995180D02*
X12785714Y87995180D01*
X13690476Y87995180D02*
X13880952Y87995180D01*
X13880952Y87995180D02*
X13976190Y88042800D01*
X13976190Y88042800D02*
X14023809Y88090419D01*
X14023809Y88090419D02*
X14119047Y88233276D01*
X14119047Y88233276D02*
X14166666Y88423752D01*
X14166666Y88423752D02*
X14166666Y88804704D01*
X14166666Y88804704D02*
X14119047Y88899942D01*
X14119047Y88899942D02*
X14071428Y88947561D01*
X14071428Y88947561D02*
X13976190Y88995180D01*
X13976190Y88995180D02*
X13785714Y88995180D01*
X13785714Y88995180D02*
X13690476Y88947561D01*
X13690476Y88947561D02*
X13642857Y88899942D01*
X13642857Y88899942D02*
X13595238Y88804704D01*
X13595238Y88804704D02*
X13595238Y88566609D01*
X13595238Y88566609D02*
X13642857Y88471371D01*
X13642857Y88471371D02*
X13690476Y88423752D01*
X13690476Y88423752D02*
X13785714Y88376133D01*
X13785714Y88376133D02*
X13976190Y88376133D01*
X13976190Y88376133D02*
X14071428Y88423752D01*
X14071428Y88423752D02*
X14119047Y88471371D01*
X14119047Y88471371D02*
X14166666Y88566609D01*
X32666666Y96045180D02*
X32666666Y95330895D01*
X32666666Y95330895D02*
X32619047Y95188038D01*
X32619047Y95188038D02*
X32523809Y95092800D01*
X32523809Y95092800D02*
X32380952Y95045180D01*
X32380952Y95045180D02*
X32285714Y95045180D01*
X33095238Y95949942D02*
X33142857Y95997561D01*
X33142857Y95997561D02*
X33238095Y96045180D01*
X33238095Y96045180D02*
X33476190Y96045180D01*
X33476190Y96045180D02*
X33571428Y95997561D01*
X33571428Y95997561D02*
X33619047Y95949942D01*
X33619047Y95949942D02*
X33666666Y95854704D01*
X33666666Y95854704D02*
X33666666Y95759466D01*
X33666666Y95759466D02*
X33619047Y95616609D01*
X33619047Y95616609D02*
X33047619Y95045180D01*
X33047619Y95045180D02*
X33666666Y95045180D01*
X4707333Y72672419D02*
X4659714Y72624800D01*
X4659714Y72624800D02*
X4516857Y72577180D01*
X4516857Y72577180D02*
X4421619Y72577180D01*
X4421619Y72577180D02*
X4278762Y72624800D01*
X4278762Y72624800D02*
X4183524Y72720038D01*
X4183524Y72720038D02*
X4135905Y72815276D01*
X4135905Y72815276D02*
X4088286Y73005752D01*
X4088286Y73005752D02*
X4088286Y73148609D01*
X4088286Y73148609D02*
X4135905Y73339085D01*
X4135905Y73339085D02*
X4183524Y73434323D01*
X4183524Y73434323D02*
X4278762Y73529561D01*
X4278762Y73529561D02*
X4421619Y73577180D01*
X4421619Y73577180D02*
X4516857Y73577180D01*
X4516857Y73577180D02*
X4659714Y73529561D01*
X4659714Y73529561D02*
X4707333Y73481942D01*
X5659714Y72577180D02*
X5088286Y72577180D01*
X5374000Y72577180D02*
X5374000Y73577180D01*
X5374000Y73577180D02*
X5278762Y73434323D01*
X5278762Y73434323D02*
X5183524Y73339085D01*
X5183524Y73339085D02*
X5088286Y73291466D01*
X27833333Y74640419D02*
X27785714Y74592800D01*
X27785714Y74592800D02*
X27642857Y74545180D01*
X27642857Y74545180D02*
X27547619Y74545180D01*
X27547619Y74545180D02*
X27404762Y74592800D01*
X27404762Y74592800D02*
X27309524Y74688038D01*
X27309524Y74688038D02*
X27261905Y74783276D01*
X27261905Y74783276D02*
X27214286Y74973752D01*
X27214286Y74973752D02*
X27214286Y75116609D01*
X27214286Y75116609D02*
X27261905Y75307085D01*
X27261905Y75307085D02*
X27309524Y75402323D01*
X27309524Y75402323D02*
X27404762Y75497561D01*
X27404762Y75497561D02*
X27547619Y75545180D01*
X27547619Y75545180D02*
X27642857Y75545180D01*
X27642857Y75545180D02*
X27785714Y75497561D01*
X27785714Y75497561D02*
X27833333Y75449942D01*
X28690476Y75211847D02*
X28690476Y74545180D01*
X28452381Y75592800D02*
X28214286Y74878514D01*
X28214286Y74878514D02*
X28833333Y74878514D01*
X25333333Y50045180D02*
X25000000Y50521371D01*
X24761905Y50045180D02*
X24761905Y51045180D01*
X24761905Y51045180D02*
X25142857Y51045180D01*
X25142857Y51045180D02*
X25238095Y50997561D01*
X25238095Y50997561D02*
X25285714Y50949942D01*
X25285714Y50949942D02*
X25333333Y50854704D01*
X25333333Y50854704D02*
X25333333Y50711847D01*
X25333333Y50711847D02*
X25285714Y50616609D01*
X25285714Y50616609D02*
X25238095Y50568990D01*
X25238095Y50568990D02*
X25142857Y50521371D01*
X25142857Y50521371D02*
X24761905Y50521371D01*
X25666667Y51045180D02*
X26285714Y51045180D01*
X26285714Y51045180D02*
X25952381Y50664228D01*
X25952381Y50664228D02*
X26095238Y50664228D01*
X26095238Y50664228D02*
X26190476Y50616609D01*
X26190476Y50616609D02*
X26238095Y50568990D01*
X26238095Y50568990D02*
X26285714Y50473752D01*
X26285714Y50473752D02*
X26285714Y50235657D01*
X26285714Y50235657D02*
X26238095Y50140419D01*
X26238095Y50140419D02*
X26190476Y50092800D01*
X26190476Y50092800D02*
X26095238Y50045180D01*
X26095238Y50045180D02*
X25809524Y50045180D01*
X25809524Y50045180D02*
X25714286Y50092800D01*
X25714286Y50092800D02*
X25666667Y50140419D01*
X29833333Y61045180D02*
X29500000Y61521371D01*
X29261905Y61045180D02*
X29261905Y62045180D01*
X29261905Y62045180D02*
X29642857Y62045180D01*
X29642857Y62045180D02*
X29738095Y61997561D01*
X29738095Y61997561D02*
X29785714Y61949942D01*
X29785714Y61949942D02*
X29833333Y61854704D01*
X29833333Y61854704D02*
X29833333Y61711847D01*
X29833333Y61711847D02*
X29785714Y61616609D01*
X29785714Y61616609D02*
X29738095Y61568990D01*
X29738095Y61568990D02*
X29642857Y61521371D01*
X29642857Y61521371D02*
X29261905Y61521371D01*
X30690476Y61711847D02*
X30690476Y61045180D01*
X30452381Y62092800D02*
X30214286Y61378514D01*
X30214286Y61378514D02*
X30833333Y61378514D01*
X14374333Y75147180D02*
X14041000Y75623371D01*
X13802905Y75147180D02*
X13802905Y76147180D01*
X13802905Y76147180D02*
X14183857Y76147180D01*
X14183857Y76147180D02*
X14279095Y76099561D01*
X14279095Y76099561D02*
X14326714Y76051942D01*
X14326714Y76051942D02*
X14374333Y75956704D01*
X14374333Y75956704D02*
X14374333Y75813847D01*
X14374333Y75813847D02*
X14326714Y75718609D01*
X14326714Y75718609D02*
X14279095Y75670990D01*
X14279095Y75670990D02*
X14183857Y75623371D01*
X14183857Y75623371D02*
X13802905Y75623371D01*
X15326714Y75147180D02*
X14755286Y75147180D01*
X15041000Y75147180D02*
X15041000Y76147180D01*
X15041000Y76147180D02*
X14945762Y76004323D01*
X14945762Y76004323D02*
X14850524Y75909085D01*
X14850524Y75909085D02*
X14755286Y75861466D01*
X10327333Y72484180D02*
X9994000Y72960371D01*
X9755905Y72484180D02*
X9755905Y73484180D01*
X9755905Y73484180D02*
X10136857Y73484180D01*
X10136857Y73484180D02*
X10232095Y73436561D01*
X10232095Y73436561D02*
X10279714Y73388942D01*
X10279714Y73388942D02*
X10327333Y73293704D01*
X10327333Y73293704D02*
X10327333Y73150847D01*
X10327333Y73150847D02*
X10279714Y73055609D01*
X10279714Y73055609D02*
X10232095Y73007990D01*
X10232095Y73007990D02*
X10136857Y72960371D01*
X10136857Y72960371D02*
X9755905Y72960371D01*
X10708286Y73388942D02*
X10755905Y73436561D01*
X10755905Y73436561D02*
X10851143Y73484180D01*
X10851143Y73484180D02*
X11089238Y73484180D01*
X11089238Y73484180D02*
X11184476Y73436561D01*
X11184476Y73436561D02*
X11232095Y73388942D01*
X11232095Y73388942D02*
X11279714Y73293704D01*
X11279714Y73293704D02*
X11279714Y73198466D01*
X11279714Y73198466D02*
X11232095Y73055609D01*
X11232095Y73055609D02*
X10660667Y72484180D01*
X10660667Y72484180D02*
X11279714Y72484180D01*
X944095Y68259180D02*
X944095Y67449657D01*
X944095Y67449657D02*
X991714Y67354419D01*
X991714Y67354419D02*
X1039333Y67306800D01*
X1039333Y67306800D02*
X1134571Y67259180D01*
X1134571Y67259180D02*
X1325047Y67259180D01*
X1325047Y67259180D02*
X1420285Y67306800D01*
X1420285Y67306800D02*
X1467904Y67354419D01*
X1467904Y67354419D02*
X1515523Y67449657D01*
X1515523Y67449657D02*
X1515523Y68259180D01*
X2515523Y67259180D02*
X1944095Y67259180D01*
X2229809Y67259180D02*
X2229809Y68259180D01*
X2229809Y68259180D02*
X2134571Y68116323D01*
X2134571Y68116323D02*
X2039333Y68021085D01*
X2039333Y68021085D02*
X1944095Y67973466D01*
X21916666Y81995180D02*
X21916666Y81280895D01*
X21916666Y81280895D02*
X21869047Y81138038D01*
X21869047Y81138038D02*
X21773809Y81042800D01*
X21773809Y81042800D02*
X21630952Y80995180D01*
X21630952Y80995180D02*
X21535714Y80995180D01*
X22916666Y80995180D02*
X22345238Y80995180D01*
X22630952Y80995180D02*
X22630952Y81995180D01*
X22630952Y81995180D02*
X22535714Y81852323D01*
X22535714Y81852323D02*
X22440476Y81757085D01*
X22440476Y81757085D02*
X22345238Y81709466D01*
X32541039Y19345180D02*
X32541039Y20345180D01*
X32541039Y19868990D02*
X33112467Y19868990D01*
X33112467Y19345180D02*
X33112467Y20345180D01*
X33731515Y19916609D02*
X33636277Y19964228D01*
X33636277Y19964228D02*
X33588658Y20011847D01*
X33588658Y20011847D02*
X33541039Y20107085D01*
X33541039Y20107085D02*
X33541039Y20154704D01*
X33541039Y20154704D02*
X33588658Y20249942D01*
X33588658Y20249942D02*
X33636277Y20297561D01*
X33636277Y20297561D02*
X33731515Y20345180D01*
X33731515Y20345180D02*
X33921991Y20345180D01*
X33921991Y20345180D02*
X34017229Y20297561D01*
X34017229Y20297561D02*
X34064848Y20249942D01*
X34064848Y20249942D02*
X34112467Y20154704D01*
X34112467Y20154704D02*
X34112467Y20107085D01*
X34112467Y20107085D02*
X34064848Y20011847D01*
X34064848Y20011847D02*
X34017229Y19964228D01*
X34017229Y19964228D02*
X33921991Y19916609D01*
X33921991Y19916609D02*
X33731515Y19916609D01*
X33731515Y19916609D02*
X33636277Y19868990D01*
X33636277Y19868990D02*
X33588658Y19821371D01*
X33588658Y19821371D02*
X33541039Y19726133D01*
X33541039Y19726133D02*
X33541039Y19535657D01*
X33541039Y19535657D02*
X33588658Y19440419D01*
X33588658Y19440419D02*
X33636277Y19392800D01*
X33636277Y19392800D02*
X33731515Y19345180D01*
X33731515Y19345180D02*
X33921991Y19345180D01*
X33921991Y19345180D02*
X34017229Y19392800D01*
X34017229Y19392800D02*
X34064848Y19440419D01*
X34064848Y19440419D02*
X34112467Y19535657D01*
X34112467Y19535657D02*
X34112467Y19726133D01*
X34112467Y19726133D02*
X34064848Y19821371D01*
X34064848Y19821371D02*
X34017229Y19868990D01*
X34017229Y19868990D02*
X33921991Y19916609D01*
X7391039Y19345180D02*
X7391039Y20345180D01*
X7391039Y19868990D02*
X7962467Y19868990D01*
X7962467Y19345180D02*
X7962467Y20345180D01*
X8343420Y20345180D02*
X9010086Y20345180D01*
X9010086Y20345180D02*
X8581515Y19345180D01*
X37238095Y83545180D02*
X37238095Y84545180D01*
X37238095Y84068990D02*
X37809523Y84068990D01*
X37809523Y83545180D02*
X37809523Y84545180D01*
X38714285Y84545180D02*
X38523809Y84545180D01*
X38523809Y84545180D02*
X38428571Y84497561D01*
X38428571Y84497561D02*
X38380952Y84449942D01*
X38380952Y84449942D02*
X38285714Y84307085D01*
X38285714Y84307085D02*
X38238095Y84116609D01*
X38238095Y84116609D02*
X38238095Y83735657D01*
X38238095Y83735657D02*
X38285714Y83640419D01*
X38285714Y83640419D02*
X38333333Y83592800D01*
X38333333Y83592800D02*
X38428571Y83545180D01*
X38428571Y83545180D02*
X38619047Y83545180D01*
X38619047Y83545180D02*
X38714285Y83592800D01*
X38714285Y83592800D02*
X38761904Y83640419D01*
X38761904Y83640419D02*
X38809523Y83735657D01*
X38809523Y83735657D02*
X38809523Y83973752D01*
X38809523Y83973752D02*
X38761904Y84068990D01*
X38761904Y84068990D02*
X38714285Y84116609D01*
X38714285Y84116609D02*
X38619047Y84164228D01*
X38619047Y84164228D02*
X38428571Y84164228D01*
X38428571Y84164228D02*
X38333333Y84116609D01*
X38333333Y84116609D02*
X38285714Y84068990D01*
X38285714Y84068990D02*
X38238095Y83973752D01*
X19333333Y57545180D02*
X19000000Y58021371D01*
X18761905Y57545180D02*
X18761905Y58545180D01*
X18761905Y58545180D02*
X19142857Y58545180D01*
X19142857Y58545180D02*
X19238095Y58497561D01*
X19238095Y58497561D02*
X19285714Y58449942D01*
X19285714Y58449942D02*
X19333333Y58354704D01*
X19333333Y58354704D02*
X19333333Y58211847D01*
X19333333Y58211847D02*
X19285714Y58116609D01*
X19285714Y58116609D02*
X19238095Y58068990D01*
X19238095Y58068990D02*
X19142857Y58021371D01*
X19142857Y58021371D02*
X18761905Y58021371D01*
X20238095Y58545180D02*
X19761905Y58545180D01*
X19761905Y58545180D02*
X19714286Y58068990D01*
X19714286Y58068990D02*
X19761905Y58116609D01*
X19761905Y58116609D02*
X19857143Y58164228D01*
X19857143Y58164228D02*
X20095238Y58164228D01*
X20095238Y58164228D02*
X20190476Y58116609D01*
X20190476Y58116609D02*
X20238095Y58068990D01*
X20238095Y58068990D02*
X20285714Y57973752D01*
X20285714Y57973752D02*
X20285714Y57735657D01*
X20285714Y57735657D02*
X20238095Y57640419D01*
X20238095Y57640419D02*
X20190476Y57592800D01*
X20190476Y57592800D02*
X20095238Y57545180D01*
X20095238Y57545180D02*
X19857143Y57545180D01*
X19857143Y57545180D02*
X19761905Y57592800D01*
X19761905Y57592800D02*
X19714286Y57640419D01*
X10083333Y39390419D02*
X10035714Y39342800D01*
X10035714Y39342800D02*
X9892857Y39295180D01*
X9892857Y39295180D02*
X9797619Y39295180D01*
X9797619Y39295180D02*
X9654762Y39342800D01*
X9654762Y39342800D02*
X9559524Y39438038D01*
X9559524Y39438038D02*
X9511905Y39533276D01*
X9511905Y39533276D02*
X9464286Y39723752D01*
X9464286Y39723752D02*
X9464286Y39866609D01*
X9464286Y39866609D02*
X9511905Y40057085D01*
X9511905Y40057085D02*
X9559524Y40152323D01*
X9559524Y40152323D02*
X9654762Y40247561D01*
X9654762Y40247561D02*
X9797619Y40295180D01*
X9797619Y40295180D02*
X9892857Y40295180D01*
X9892857Y40295180D02*
X10035714Y40247561D01*
X10035714Y40247561D02*
X10083333Y40199942D01*
X10464286Y40199942D02*
X10511905Y40247561D01*
X10511905Y40247561D02*
X10607143Y40295180D01*
X10607143Y40295180D02*
X10845238Y40295180D01*
X10845238Y40295180D02*
X10940476Y40247561D01*
X10940476Y40247561D02*
X10988095Y40199942D01*
X10988095Y40199942D02*
X11035714Y40104704D01*
X11035714Y40104704D02*
X11035714Y40009466D01*
X11035714Y40009466D02*
X10988095Y39866609D01*
X10988095Y39866609D02*
X10416667Y39295180D01*
X10416667Y39295180D02*
X11035714Y39295180D01*
X31379819Y74916666D02*
X32094104Y74916666D01*
X32094104Y74916666D02*
X32236961Y74869047D01*
X32236961Y74869047D02*
X32332200Y74773809D01*
X32332200Y74773809D02*
X32379819Y74630952D01*
X32379819Y74630952D02*
X32379819Y74535714D01*
X31713152Y75821428D02*
X32379819Y75821428D01*
X31332200Y75583333D02*
X32046485Y75345238D01*
X32046485Y75345238D02*
X32046485Y75964285D01*
X28454819Y5666666D02*
X29169104Y5666666D01*
X29169104Y5666666D02*
X29311961Y5619047D01*
X29311961Y5619047D02*
X29407200Y5523809D01*
X29407200Y5523809D02*
X29454819Y5380952D01*
X29454819Y5380952D02*
X29454819Y5285714D01*
X28454819Y6047619D02*
X28454819Y6666666D01*
X28454819Y6666666D02*
X28835771Y6333333D01*
X28835771Y6333333D02*
X28835771Y6476190D01*
X28835771Y6476190D02*
X28883390Y6571428D01*
X28883390Y6571428D02*
X28931009Y6619047D01*
X28931009Y6619047D02*
X29026247Y6666666D01*
X29026247Y6666666D02*
X29264342Y6666666D01*
X29264342Y6666666D02*
X29359580Y6619047D01*
X29359580Y6619047D02*
X29407200Y6571428D01*
X29407200Y6571428D02*
X29454819Y6476190D01*
X29454819Y6476190D02*
X29454819Y6190476D01*
X29454819Y6190476D02*
X29407200Y6095238D01*
X29407200Y6095238D02*
X29359580Y6047619D01*
X34031904Y17704819D02*
X34031904Y18514342D01*
X34031904Y18514342D02*
X33984285Y18609580D01*
X33984285Y18609580D02*
X33936666Y18657200D01*
X33936666Y18657200D02*
X33841428Y18704819D01*
X33841428Y18704819D02*
X33650952Y18704819D01*
X33650952Y18704819D02*
X33555714Y18657200D01*
X33555714Y18657200D02*
X33508095Y18609580D01*
X33508095Y18609580D02*
X33460476Y18514342D01*
X33460476Y18514342D02*
X33460476Y17704819D01*
X33079523Y17704819D02*
X32460476Y17704819D01*
X32460476Y17704819D02*
X32793809Y18085771D01*
X32793809Y18085771D02*
X32650952Y18085771D01*
X32650952Y18085771D02*
X32555714Y18133390D01*
X32555714Y18133390D02*
X32508095Y18181009D01*
X32508095Y18181009D02*
X32460476Y18276247D01*
X32460476Y18276247D02*
X32460476Y18514342D01*
X32460476Y18514342D02*
X32508095Y18609580D01*
X32508095Y18609580D02*
X32555714Y18657200D01*
X32555714Y18657200D02*
X32650952Y18704819D01*
X32650952Y18704819D02*
X32936666Y18704819D01*
X32936666Y18704819D02*
X33031904Y18657200D01*
X33031904Y18657200D02*
X33079523Y18609580D01*
X7391039Y88065180D02*
X7391039Y89065180D01*
X7391039Y88588990D02*
X7962467Y88588990D01*
X7962467Y88065180D02*
X7962467Y89065180D01*
X8914848Y89065180D02*
X8438658Y89065180D01*
X8438658Y89065180D02*
X8391039Y88588990D01*
X8391039Y88588990D02*
X8438658Y88636609D01*
X8438658Y88636609D02*
X8533896Y88684228D01*
X8533896Y88684228D02*
X8771991Y88684228D01*
X8771991Y88684228D02*
X8867229Y88636609D01*
X8867229Y88636609D02*
X8914848Y88588990D01*
X8914848Y88588990D02*
X8962467Y88493752D01*
X8962467Y88493752D02*
X8962467Y88255657D01*
X8962467Y88255657D02*
X8914848Y88160419D01*
X8914848Y88160419D02*
X8867229Y88112800D01*
X8867229Y88112800D02*
X8771991Y88065180D01*
X8771991Y88065180D02*
X8533896Y88065180D01*
X8533896Y88065180D02*
X8438658Y88112800D01*
X8438658Y88112800D02*
X8391039Y88160419D01*
D11*
%TO.C,U2*%
X37368500Y64616000D02*
X17040000Y64616000D01*
X17040000Y64616000D02*
X17040000Y46816000D01*
X38040000Y63944459D02*
X37368500Y64616000D01*
X32112000Y60220000D02*
X39465000Y60220000D01*
X39464000Y60216000D02*
X39464000Y51221000D01*
X39464000Y51221000D02*
X32112000Y51221000D01*
X32112000Y51221000D02*
X32112000Y60220000D01*
X38040000Y46816000D02*
X38040000Y63944459D01*
X17040000Y46816000D02*
X38040000Y46816000D01*
D12*
%TO.C,J9*%
X18850000Y89250000D02*
X18850000Y90500000D01*
X18560000Y89540000D02*
X18560000Y95510000D01*
X18560000Y95510000D02*
X8440000Y95510000D01*
X18550000Y89550000D02*
X18550000Y90300000D01*
X18550000Y90300000D02*
X16750000Y90300000D01*
X18550000Y91800000D02*
X17800000Y91800000D01*
X17800000Y91800000D02*
X17800000Y94750000D01*
X17800000Y94750000D02*
X13500000Y94750000D01*
X17600000Y89250000D02*
X18850000Y89250000D01*
X16750000Y89550000D02*
X18550000Y89550000D01*
X16750000Y90300000D02*
X16750000Y89550000D01*
X15250000Y89550000D02*
X15250000Y90300000D01*
X15250000Y90300000D02*
X11750000Y90300000D01*
X11750000Y89550000D02*
X15250000Y89550000D01*
X11750000Y90300000D02*
X11750000Y89550000D01*
X10250000Y89550000D02*
X10250000Y90300000D01*
X10250000Y90300000D02*
X8450000Y90300000D01*
X9200000Y91800000D02*
X9200000Y94750000D01*
X9200000Y94750000D02*
X13500000Y94750000D01*
X8450000Y89550000D02*
X10250000Y89550000D01*
X8450000Y90300000D02*
X8450000Y89550000D01*
X8450000Y91800000D02*
X9200000Y91800000D01*
X8440000Y89540000D02*
X18560000Y89540000D01*
X8440000Y95510000D02*
X8440000Y89540000D01*
%TO.C,J2*%
X32350000Y89250000D02*
X32350000Y90500000D01*
X32060000Y89540000D02*
X32060000Y95510000D01*
X32060000Y95510000D02*
X19440000Y95510000D01*
X32050000Y89550000D02*
X32050000Y90300000D01*
X32050000Y90300000D02*
X30250000Y90300000D01*
X32050000Y91800000D02*
X31300000Y91800000D01*
X31300000Y91800000D02*
X31300000Y94750000D01*
X31300000Y94750000D02*
X25750000Y94750000D01*
X31100000Y89250000D02*
X32350000Y89250000D01*
X30250000Y89550000D02*
X32050000Y89550000D01*
X30250000Y90300000D02*
X30250000Y89550000D01*
X28750000Y89550000D02*
X28750000Y90300000D01*
X28750000Y90300000D02*
X22750000Y90300000D01*
X22750000Y89550000D02*
X28750000Y89550000D01*
X22750000Y90300000D02*
X22750000Y89550000D01*
X21250000Y89550000D02*
X21250000Y90300000D01*
X21250000Y90300000D02*
X19450000Y90300000D01*
X20200000Y91800000D02*
X20200000Y94750000D01*
X20200000Y94750000D02*
X25750000Y94750000D01*
X19450000Y89550000D02*
X21250000Y89550000D01*
X19450000Y90300000D02*
X19450000Y89550000D01*
X19450000Y91800000D02*
X20200000Y91800000D01*
X19440000Y89540000D02*
X32060000Y89540000D01*
X19440000Y95510000D02*
X19440000Y89540000D01*
%TO.C,C1*%
X10270000Y71580000D02*
X10270000Y72205000D01*
X10270000Y71580000D02*
X6230000Y71580000D01*
X10270000Y73795000D02*
X10270000Y74420000D01*
X10270000Y74420000D02*
X6230000Y74420000D01*
X6230000Y71580000D02*
X6230000Y72205000D01*
X6230000Y73795000D02*
X6230000Y74420000D01*
%TO.C,C4*%
X23590302Y72065000D02*
X24390302Y72065000D01*
X23990302Y72465000D02*
X23990302Y71665000D01*
X28000000Y73830000D02*
X28000000Y65670000D01*
X28040000Y73830000D02*
X28040000Y65670000D01*
X28080000Y73830000D02*
X28080000Y65670000D01*
X28120000Y73829000D02*
X28120000Y65671000D01*
X28160000Y73827000D02*
X28160000Y65673000D01*
X28200000Y73826000D02*
X28200000Y65674000D01*
X28240000Y73824000D02*
X28240000Y70790000D01*
X28240000Y68710000D02*
X28240000Y65676000D01*
X28280000Y73821000D02*
X28280000Y70790000D01*
X28280000Y68710000D02*
X28280000Y65679000D01*
X28320000Y73818000D02*
X28320000Y70790000D01*
X28320000Y68710000D02*
X28320000Y65682000D01*
X28360000Y73815000D02*
X28360000Y70790000D01*
X28360000Y68710000D02*
X28360000Y65685000D01*
X28400000Y73811000D02*
X28400000Y70790000D01*
X28400000Y68710000D02*
X28400000Y65689000D01*
X28440000Y73807000D02*
X28440000Y70790000D01*
X28440000Y68710000D02*
X28440000Y65693000D01*
X28480000Y73802000D02*
X28480000Y70790000D01*
X28480000Y68710000D02*
X28480000Y65698000D01*
X28520000Y73798000D02*
X28520000Y70790000D01*
X28520000Y68710000D02*
X28520000Y65702000D01*
X28560000Y73792000D02*
X28560000Y70790000D01*
X28560000Y68710000D02*
X28560000Y65708000D01*
X28600000Y73787000D02*
X28600000Y70790000D01*
X28600000Y68710000D02*
X28600000Y65713000D01*
X28640000Y73780000D02*
X28640000Y70790000D01*
X28640000Y68710000D02*
X28640000Y65720000D01*
X28680000Y73774000D02*
X28680000Y70790000D01*
X28680000Y68710000D02*
X28680000Y65726000D01*
X28721000Y73767000D02*
X28721000Y70790000D01*
X28721000Y68710000D02*
X28721000Y65733000D01*
X28761000Y73760000D02*
X28761000Y70790000D01*
X28761000Y68710000D02*
X28761000Y65740000D01*
X28801000Y73752000D02*
X28801000Y70790000D01*
X28801000Y68710000D02*
X28801000Y65748000D01*
X28841000Y73744000D02*
X28841000Y70790000D01*
X28841000Y68710000D02*
X28841000Y65756000D01*
X28881000Y73735000D02*
X28881000Y70790000D01*
X28881000Y68710000D02*
X28881000Y65765000D01*
X28921000Y73726000D02*
X28921000Y70790000D01*
X28921000Y68710000D02*
X28921000Y65774000D01*
X28961000Y73717000D02*
X28961000Y70790000D01*
X28961000Y68710000D02*
X28961000Y65783000D01*
X29001000Y73707000D02*
X29001000Y70790000D01*
X29001000Y68710000D02*
X29001000Y65793000D01*
X29041000Y73697000D02*
X29041000Y70790000D01*
X29041000Y68710000D02*
X29041000Y65803000D01*
X29081000Y73686000D02*
X29081000Y70790000D01*
X29081000Y68710000D02*
X29081000Y65814000D01*
X29121000Y73675000D02*
X29121000Y70790000D01*
X29121000Y68710000D02*
X29121000Y65825000D01*
X29161000Y73664000D02*
X29161000Y70790000D01*
X29161000Y68710000D02*
X29161000Y65836000D01*
X29201000Y73652000D02*
X29201000Y70790000D01*
X29201000Y68710000D02*
X29201000Y65848000D01*
X29241000Y73639000D02*
X29241000Y70790000D01*
X29241000Y68710000D02*
X29241000Y65861000D01*
X29281000Y73627000D02*
X29281000Y70790000D01*
X29281000Y68710000D02*
X29281000Y65873000D01*
X29321000Y73613000D02*
X29321000Y70790000D01*
X29321000Y68710000D02*
X29321000Y65887000D01*
X29361000Y73600000D02*
X29361000Y70790000D01*
X29361000Y68710000D02*
X29361000Y65900000D01*
X29401000Y73585000D02*
X29401000Y70790000D01*
X29401000Y68710000D02*
X29401000Y65915000D01*
X29441000Y73571000D02*
X29441000Y70790000D01*
X29441000Y68710000D02*
X29441000Y65929000D01*
X29481000Y73555000D02*
X29481000Y70790000D01*
X29481000Y68710000D02*
X29481000Y65945000D01*
X29521000Y73540000D02*
X29521000Y70790000D01*
X29521000Y68710000D02*
X29521000Y65960000D01*
X29561000Y73524000D02*
X29561000Y70790000D01*
X29561000Y68710000D02*
X29561000Y65976000D01*
X29601000Y73507000D02*
X29601000Y70790000D01*
X29601000Y68710000D02*
X29601000Y65993000D01*
X29641000Y73490000D02*
X29641000Y70790000D01*
X29641000Y68710000D02*
X29641000Y66010000D01*
X29681000Y73472000D02*
X29681000Y70790000D01*
X29681000Y68710000D02*
X29681000Y66028000D01*
X29721000Y73454000D02*
X29721000Y70790000D01*
X29721000Y68710000D02*
X29721000Y66046000D01*
X29761000Y73436000D02*
X29761000Y70790000D01*
X29761000Y68710000D02*
X29761000Y66064000D01*
X29801000Y73416000D02*
X29801000Y70790000D01*
X29801000Y68710000D02*
X29801000Y66084000D01*
X29841000Y73397000D02*
X29841000Y70790000D01*
X29841000Y68710000D02*
X29841000Y66103000D01*
X29881000Y73377000D02*
X29881000Y70790000D01*
X29881000Y68710000D02*
X29881000Y66123000D01*
X29921000Y73356000D02*
X29921000Y70790000D01*
X29921000Y68710000D02*
X29921000Y66144000D01*
X29961000Y73334000D02*
X29961000Y70790000D01*
X29961000Y68710000D02*
X29961000Y66166000D01*
X30001000Y73312000D02*
X30001000Y70790000D01*
X30001000Y68710000D02*
X30001000Y66188000D01*
X30041000Y73290000D02*
X30041000Y70790000D01*
X30041000Y68710000D02*
X30041000Y66210000D01*
X30081000Y73267000D02*
X30081000Y70790000D01*
X30081000Y68710000D02*
X30081000Y66233000D01*
X30121000Y73243000D02*
X30121000Y70790000D01*
X30121000Y68710000D02*
X30121000Y66257000D01*
X30161000Y73219000D02*
X30161000Y70790000D01*
X30161000Y68710000D02*
X30161000Y66281000D01*
X30201000Y73194000D02*
X30201000Y70790000D01*
X30201000Y68710000D02*
X30201000Y66306000D01*
X30241000Y73168000D02*
X30241000Y70790000D01*
X30241000Y68710000D02*
X30241000Y66332000D01*
X30281000Y73142000D02*
X30281000Y70790000D01*
X30281000Y68710000D02*
X30281000Y66358000D01*
X30321000Y73115000D02*
X30321000Y66385000D01*
X30361000Y73088000D02*
X30361000Y66412000D01*
X30401000Y73059000D02*
X30401000Y66441000D01*
X30441000Y73030000D02*
X30441000Y66470000D01*
X30481000Y73000000D02*
X30481000Y66500000D01*
X30521000Y72970000D02*
X30521000Y66530000D01*
X30561000Y72939000D02*
X30561000Y66561000D01*
X30601000Y72906000D02*
X30601000Y66594000D01*
X30641000Y72874000D02*
X30641000Y66626000D01*
X30681000Y72840000D02*
X30681000Y66660000D01*
X30721000Y72805000D02*
X30721000Y66695000D01*
X30761000Y72769000D02*
X30761000Y66731000D01*
X30801000Y72733000D02*
X30801000Y66767000D01*
X30841000Y72695000D02*
X30841000Y66805000D01*
X30881000Y72657000D02*
X30881000Y66843000D01*
X30921000Y72617000D02*
X30921000Y66883000D01*
X30961000Y72576000D02*
X30961000Y66924000D01*
X31001000Y72534000D02*
X31001000Y66966000D01*
X31041000Y72491000D02*
X31041000Y67009000D01*
X31081000Y72447000D02*
X31081000Y67053000D01*
X31121000Y72401000D02*
X31121000Y67099000D01*
X31161000Y72354000D02*
X31161000Y67146000D01*
X31201000Y72306000D02*
X31201000Y67194000D01*
X31241000Y72255000D02*
X31241000Y67245000D01*
X31281000Y72204000D02*
X31281000Y67296000D01*
X31321000Y72150000D02*
X31321000Y67350000D01*
X31361000Y72095000D02*
X31361000Y67405000D01*
X31401000Y72037000D02*
X31401000Y67463000D01*
X31441000Y71978000D02*
X31441000Y67522000D01*
X31481000Y71916000D02*
X31481000Y67584000D01*
X31521000Y71852000D02*
X31521000Y67648000D01*
X31561000Y71784000D02*
X31561000Y67716000D01*
X31601000Y71714000D02*
X31601000Y67786000D01*
X31641000Y71640000D02*
X31641000Y67860000D01*
X31681000Y71563000D02*
X31681000Y67937000D01*
X31721000Y71481000D02*
X31721000Y68019000D01*
X31761000Y71395000D02*
X31761000Y68105000D01*
X31801000Y71302000D02*
X31801000Y68198000D01*
X31841000Y71203000D02*
X31841000Y68297000D01*
X31881000Y71096000D02*
X31881000Y68404000D01*
X31921000Y70979000D02*
X31921000Y68521000D01*
X31961000Y70848000D02*
X31961000Y68652000D01*
X32001000Y70698000D02*
X32001000Y68802000D01*
X32041000Y70518000D02*
X32041000Y68982000D01*
X32081000Y70283000D02*
X32081000Y69217000D01*
X32120000Y69750000D02*
G75*
G03*
X32120000Y69750000I-4120000J0D01*
G01*
%TO.C,R3*%
X29040000Y53000000D02*
X28270000Y53000000D01*
X28270000Y51630000D02*
X28270000Y54370000D01*
X28270000Y54370000D02*
X21730000Y54370000D01*
X21730000Y51630000D02*
X28270000Y51630000D01*
X21730000Y54370000D02*
X21730000Y51630000D01*
X20960000Y53000000D02*
X21730000Y53000000D01*
%TO.C,R4*%
X29040000Y59750000D02*
X28270000Y59750000D01*
X28270000Y58380000D02*
X28270000Y61120000D01*
X28270000Y61120000D02*
X21730000Y61120000D01*
X21730000Y58380000D02*
X28270000Y58380000D01*
X21730000Y61120000D02*
X21730000Y58380000D01*
X20960000Y59750000D02*
X21730000Y59750000D01*
%TO.C,R1*%
X25960000Y76000000D02*
X25190000Y76000000D01*
X25190000Y74630000D02*
X25190000Y77370000D01*
X25190000Y77370000D02*
X18650000Y77370000D01*
X18650000Y74630000D02*
X25190000Y74630000D01*
X18650000Y77370000D02*
X18650000Y74630000D01*
X17880000Y76000000D02*
X18650000Y76000000D01*
%TO.C,R2*%
X22040000Y73000000D02*
X21270000Y73000000D01*
X21270000Y71630000D02*
X21270000Y74370000D01*
X21270000Y74370000D02*
X14730000Y74370000D01*
X14730000Y71630000D02*
X21270000Y71630000D01*
X14730000Y74370000D02*
X14730000Y71630000D01*
X13960000Y73000000D02*
X14730000Y73000000D01*
%TO.C,U1*%
X5940000Y70330000D02*
X5940000Y52430000D01*
X5940000Y52430000D02*
X10440000Y52430000D01*
X7190000Y70330000D02*
X5940000Y70330000D01*
X10440000Y70330000D02*
X9190000Y70330000D01*
X10440000Y52430000D02*
X10440000Y70330000D01*
X7190000Y70330000D02*
G75*
G03*
X9190000Y70330000I1000000J0D01*
G01*
%TO.C,J1*%
X28850000Y82250000D02*
X28850000Y83500000D01*
X28560000Y82540000D02*
X28560000Y88510000D01*
X28560000Y88510000D02*
X15940000Y88510000D01*
X28550000Y82550000D02*
X28550000Y83300000D01*
X28550000Y83300000D02*
X26750000Y83300000D01*
X28550000Y84800000D02*
X27800000Y84800000D01*
X27800000Y84800000D02*
X27800000Y87750000D01*
X27800000Y87750000D02*
X22250000Y87750000D01*
X27600000Y82250000D02*
X28850000Y82250000D01*
X26750000Y82550000D02*
X28550000Y82550000D01*
X26750000Y83300000D02*
X26750000Y82550000D01*
X25250000Y82550000D02*
X25250000Y83300000D01*
X25250000Y83300000D02*
X19250000Y83300000D01*
X19250000Y82550000D02*
X25250000Y82550000D01*
X19250000Y83300000D02*
X19250000Y82550000D01*
X17750000Y82550000D02*
X17750000Y83300000D01*
X17750000Y83300000D02*
X15950000Y83300000D01*
X16700000Y84800000D02*
X16700000Y87750000D01*
X16700000Y87750000D02*
X22250000Y87750000D01*
X15950000Y82550000D02*
X17750000Y82550000D01*
X15950000Y83300000D02*
X15950000Y82550000D01*
X15950000Y84800000D02*
X16700000Y84800000D01*
X15940000Y82540000D02*
X28560000Y82540000D01*
X15940000Y88510000D02*
X15940000Y82540000D01*
%TO.C,R5*%
X23710000Y56500000D02*
X24480000Y56500000D01*
X24480000Y57870000D02*
X24480000Y55130000D01*
X24480000Y55130000D02*
X31020000Y55130000D01*
X31020000Y57870000D02*
X24480000Y57870000D01*
X31020000Y55130000D02*
X31020000Y57870000D01*
X31790000Y56500000D02*
X31020000Y56500000D01*
%TO.C,C2*%
X15729646Y43125000D02*
X14729646Y43125000D01*
X15229646Y42625000D02*
X15229646Y43625000D01*
X10250000Y40920000D02*
X10250000Y51080000D01*
X10210000Y40920000D02*
X10210000Y51080000D01*
X10170000Y40920000D02*
X10170000Y51080000D01*
X10130000Y40921000D02*
X10130000Y51079000D01*
X10090000Y40922000D02*
X10090000Y51078000D01*
X10050000Y40923000D02*
X10050000Y51077000D01*
X10010000Y40925000D02*
X10010000Y44960000D01*
X10010000Y47040000D02*
X10010000Y51075000D01*
X9970000Y40927000D02*
X9970000Y44960000D01*
X9970000Y47040000D02*
X9970000Y51073000D01*
X9930000Y40930000D02*
X9930000Y44960000D01*
X9930000Y47040000D02*
X9930000Y51070000D01*
X9890000Y40932000D02*
X9890000Y44960000D01*
X9890000Y47040000D02*
X9890000Y51068000D01*
X9850000Y40935000D02*
X9850000Y44960000D01*
X9850000Y47040000D02*
X9850000Y51065000D01*
X9810000Y40938000D02*
X9810000Y44960000D01*
X9810000Y47040000D02*
X9810000Y51062000D01*
X9770000Y40942000D02*
X9770000Y44960000D01*
X9770000Y47040000D02*
X9770000Y51058000D01*
X9730000Y40946000D02*
X9730000Y44960000D01*
X9730000Y47040000D02*
X9730000Y51054000D01*
X9690000Y40950000D02*
X9690000Y44960000D01*
X9690000Y47040000D02*
X9690000Y51050000D01*
X9650000Y40955000D02*
X9650000Y44960000D01*
X9650000Y47040000D02*
X9650000Y51045000D01*
X9610000Y40960000D02*
X9610000Y44960000D01*
X9610000Y47040000D02*
X9610000Y51040000D01*
X9570000Y40965000D02*
X9570000Y44960000D01*
X9570000Y47040000D02*
X9570000Y51035000D01*
X9529000Y40970000D02*
X9529000Y44960000D01*
X9529000Y47040000D02*
X9529000Y51030000D01*
X9489000Y40976000D02*
X9489000Y44960000D01*
X9489000Y47040000D02*
X9489000Y51024000D01*
X9449000Y40982000D02*
X9449000Y44960000D01*
X9449000Y47040000D02*
X9449000Y51018000D01*
X9409000Y40989000D02*
X9409000Y44960000D01*
X9409000Y47040000D02*
X9409000Y51011000D01*
X9369000Y40996000D02*
X9369000Y44960000D01*
X9369000Y47040000D02*
X9369000Y51004000D01*
X9329000Y41003000D02*
X9329000Y44960000D01*
X9329000Y48640000D02*
X9329000Y50997000D01*
X9289000Y41010000D02*
X9289000Y44960000D01*
X9289000Y48640000D02*
X9289000Y50990000D01*
X9249000Y41018000D02*
X9249000Y44960000D01*
X9249000Y48640000D02*
X9249000Y50982000D01*
X9209000Y41026000D02*
X9209000Y44960000D01*
X9209000Y48640000D02*
X9209000Y50974000D01*
X9169000Y41035000D02*
X9169000Y44960000D01*
X9169000Y48640000D02*
X9169000Y50965000D01*
X9129000Y41044000D02*
X9129000Y44960000D01*
X9129000Y48640000D02*
X9129000Y50956000D01*
X9089000Y41053000D02*
X9089000Y44960000D01*
X9089000Y48640000D02*
X9089000Y50947000D01*
X9049000Y41062000D02*
X9049000Y44960000D01*
X9049000Y48640000D02*
X9049000Y50938000D01*
X9009000Y41072000D02*
X9009000Y44960000D01*
X9009000Y48640000D02*
X9009000Y50928000D01*
X8969000Y41082000D02*
X8969000Y44960000D01*
X8969000Y48640000D02*
X8969000Y50918000D01*
X8929000Y41093000D02*
X8929000Y44960000D01*
X8929000Y48640000D02*
X8929000Y50907000D01*
X8889000Y41103000D02*
X8889000Y44960000D01*
X8889000Y48640000D02*
X8889000Y50897000D01*
X8849000Y41115000D02*
X8849000Y44960000D01*
X8849000Y48640000D02*
X8849000Y50885000D01*
X8809000Y41126000D02*
X8809000Y44960000D01*
X8809000Y48640000D02*
X8809000Y50874000D01*
X8769000Y41138000D02*
X8769000Y44960000D01*
X8769000Y48640000D02*
X8769000Y50862000D01*
X8729000Y41150000D02*
X8729000Y44960000D01*
X8729000Y48640000D02*
X8729000Y50850000D01*
X8689000Y41163000D02*
X8689000Y44960000D01*
X8689000Y48640000D02*
X8689000Y50837000D01*
X8649000Y41176000D02*
X8649000Y44960000D01*
X8649000Y48640000D02*
X8649000Y50824000D01*
X8609000Y41189000D02*
X8609000Y44960000D01*
X8609000Y48640000D02*
X8609000Y50811000D01*
X8569000Y41203000D02*
X8569000Y44960000D01*
X8569000Y48640000D02*
X8569000Y50797000D01*
X8529000Y41217000D02*
X8529000Y44960000D01*
X8529000Y48640000D02*
X8529000Y50783000D01*
X8489000Y41232000D02*
X8489000Y44960000D01*
X8489000Y48640000D02*
X8489000Y50768000D01*
X8449000Y41246000D02*
X8449000Y44960000D01*
X8449000Y48640000D02*
X8449000Y50754000D01*
X8409000Y41262000D02*
X8409000Y44960000D01*
X8409000Y48640000D02*
X8409000Y50738000D01*
X8369000Y41277000D02*
X8369000Y44960000D01*
X8369000Y48640000D02*
X8369000Y50723000D01*
X8329000Y41293000D02*
X8329000Y44960000D01*
X8329000Y48640000D02*
X8329000Y50707000D01*
X8289000Y41310000D02*
X8289000Y44960000D01*
X8289000Y48640000D02*
X8289000Y50690000D01*
X8249000Y41326000D02*
X8249000Y44960000D01*
X8249000Y48640000D02*
X8249000Y50674000D01*
X8209000Y41343000D02*
X8209000Y44960000D01*
X8209000Y48640000D02*
X8209000Y50657000D01*
X8169000Y41361000D02*
X8169000Y44960000D01*
X8169000Y48640000D02*
X8169000Y50639000D01*
X8129000Y41379000D02*
X8129000Y44960000D01*
X8129000Y48640000D02*
X8129000Y50621000D01*
X8089000Y41397000D02*
X8089000Y44960000D01*
X8089000Y48640000D02*
X8089000Y50603000D01*
X8049000Y41416000D02*
X8049000Y44960000D01*
X8049000Y48640000D02*
X8049000Y50584000D01*
X8009000Y41436000D02*
X8009000Y44960000D01*
X8009000Y48640000D02*
X8009000Y50564000D01*
X7969000Y41455000D02*
X7969000Y44960000D01*
X7969000Y48640000D02*
X7969000Y50545000D01*
X7929000Y41475000D02*
X7929000Y46560000D01*
X7929000Y48640000D02*
X7929000Y50525000D01*
X7889000Y41496000D02*
X7889000Y46560000D01*
X7889000Y48640000D02*
X7889000Y50504000D01*
X7849000Y41517000D02*
X7849000Y46560000D01*
X7849000Y48640000D02*
X7849000Y50483000D01*
X7809000Y41538000D02*
X7809000Y46560000D01*
X7809000Y48640000D02*
X7809000Y50462000D01*
X7769000Y41560000D02*
X7769000Y46560000D01*
X7769000Y48640000D02*
X7769000Y50440000D01*
X7729000Y41583000D02*
X7729000Y46560000D01*
X7729000Y48640000D02*
X7729000Y50417000D01*
X7689000Y41605000D02*
X7689000Y46560000D01*
X7689000Y48640000D02*
X7689000Y50395000D01*
X7649000Y41629000D02*
X7649000Y46560000D01*
X7649000Y48640000D02*
X7649000Y50371000D01*
X7609000Y41653000D02*
X7609000Y46560000D01*
X7609000Y48640000D02*
X7609000Y50347000D01*
X7569000Y41677000D02*
X7569000Y46560000D01*
X7569000Y48640000D02*
X7569000Y50323000D01*
X7529000Y41702000D02*
X7529000Y46560000D01*
X7529000Y48640000D02*
X7529000Y50298000D01*
X7489000Y41727000D02*
X7489000Y46560000D01*
X7489000Y48640000D02*
X7489000Y50273000D01*
X7449000Y41753000D02*
X7449000Y46560000D01*
X7449000Y48640000D02*
X7449000Y50247000D01*
X7409000Y41779000D02*
X7409000Y46560000D01*
X7409000Y48640000D02*
X7409000Y50221000D01*
X7369000Y41806000D02*
X7369000Y46560000D01*
X7369000Y48640000D02*
X7369000Y50194000D01*
X7329000Y41834000D02*
X7329000Y46560000D01*
X7329000Y48640000D02*
X7329000Y50166000D01*
X7289000Y41862000D02*
X7289000Y46560000D01*
X7289000Y48640000D02*
X7289000Y50138000D01*
X7249000Y41890000D02*
X7249000Y50110000D01*
X7209000Y41920000D02*
X7209000Y50080000D01*
X7169000Y41950000D02*
X7169000Y50050000D01*
X7129000Y41980000D02*
X7129000Y50020000D01*
X7089000Y42011000D02*
X7089000Y49989000D01*
X7049000Y42043000D02*
X7049000Y49957000D01*
X7009000Y42075000D02*
X7009000Y49925000D01*
X6969000Y42108000D02*
X6969000Y49892000D01*
X6929000Y42142000D02*
X6929000Y49858000D01*
X6889000Y42176000D02*
X6889000Y49824000D01*
X6849000Y42211000D02*
X6849000Y49789000D01*
X6809000Y42247000D02*
X6809000Y49753000D01*
X6769000Y42284000D02*
X6769000Y49716000D01*
X6729000Y42321000D02*
X6729000Y49679000D01*
X6689000Y42360000D02*
X6689000Y49640000D01*
X6649000Y42399000D02*
X6649000Y49601000D01*
X6609000Y42439000D02*
X6609000Y49561000D01*
X6569000Y42480000D02*
X6569000Y49520000D01*
X6529000Y42522000D02*
X6529000Y49478000D01*
X6489000Y42564000D02*
X6489000Y49436000D01*
X6449000Y42608000D02*
X6449000Y49392000D01*
X6409000Y42653000D02*
X6409000Y49347000D01*
X6369000Y42699000D02*
X6369000Y49301000D01*
X6329000Y42746000D02*
X6329000Y49254000D01*
X6289000Y42794000D02*
X6289000Y49206000D01*
X6249000Y42844000D02*
X6249000Y49156000D01*
X6209000Y42894000D02*
X6209000Y49106000D01*
X6169000Y42946000D02*
X6169000Y49054000D01*
X6129000Y43000000D02*
X6129000Y49000000D01*
X6089000Y43055000D02*
X6089000Y48945000D01*
X6049000Y43111000D02*
X6049000Y48889000D01*
X6009000Y43170000D02*
X6009000Y48830000D01*
X5969000Y43230000D02*
X5969000Y48770000D01*
X5929000Y43291000D02*
X5929000Y48709000D01*
X5889000Y43355000D02*
X5889000Y48645000D01*
X5849000Y43421000D02*
X5849000Y48579000D01*
X5809000Y43490000D02*
X5809000Y48510000D01*
X5769000Y43561000D02*
X5769000Y48439000D01*
X5729000Y43635000D02*
X5729000Y48365000D01*
X5689000Y43711000D02*
X5689000Y48289000D01*
X5649000Y43791000D02*
X5649000Y48209000D01*
X5609000Y43875000D02*
X5609000Y48125000D01*
X5569000Y43963000D02*
X5569000Y48037000D01*
X5529000Y44056000D02*
X5529000Y47944000D01*
X5489000Y44154000D02*
X5489000Y47846000D01*
X5449000Y44258000D02*
X5449000Y47742000D01*
X5409000Y44370000D02*
X5409000Y47630000D01*
X5369000Y44490000D02*
X5369000Y47510000D01*
X5329000Y44622000D02*
X5329000Y47378000D01*
X5289000Y44770000D02*
X5289000Y47230000D01*
X5249000Y44938000D02*
X5249000Y47062000D01*
X5209000Y45138000D02*
X5209000Y46862000D01*
X5169000Y45401000D02*
X5169000Y46599000D01*
X15370000Y46000000D02*
G75*
G03*
X15370000Y46000000I-5120000J0D01*
G01*
%TO.C,J4*%
X32725000Y69900000D02*
X33975000Y69900000D01*
X33015000Y70190000D02*
X38985000Y70190000D01*
X38985000Y70190000D02*
X38985000Y80310000D01*
X33025000Y70200000D02*
X33775000Y70200000D01*
X33775000Y70200000D02*
X33775000Y72000000D01*
X35275000Y70200000D02*
X35275000Y70950000D01*
X35275000Y70950000D02*
X38225000Y70950000D01*
X38225000Y70950000D02*
X38225000Y75250000D01*
X32725000Y71150000D02*
X32725000Y69900000D01*
X33025000Y72000000D02*
X33025000Y70200000D01*
X33775000Y72000000D02*
X33025000Y72000000D01*
X33025000Y73500000D02*
X33775000Y73500000D01*
X33775000Y73500000D02*
X33775000Y77000000D01*
X33025000Y77000000D02*
X33025000Y73500000D01*
X33775000Y77000000D02*
X33025000Y77000000D01*
X33025000Y78500000D02*
X33775000Y78500000D01*
X33775000Y78500000D02*
X33775000Y80300000D01*
X35275000Y79550000D02*
X38225000Y79550000D01*
X38225000Y79550000D02*
X38225000Y75250000D01*
X33025000Y80300000D02*
X33025000Y78500000D01*
X33775000Y80300000D02*
X33025000Y80300000D01*
X35275000Y80300000D02*
X35275000Y79550000D01*
X33015000Y80310000D02*
X33015000Y70190000D01*
X38985000Y80310000D02*
X33015000Y80310000D01*
D10*
%TO.C,J3*%
X28000000Y12000000D02*
X14000000Y12000000D01*
X14000000Y12000000D02*
X14000000Y0D01*
X28000000Y0D02*
X28000000Y12000000D01*
X14000000Y0D02*
X28000000Y0D01*
%TO.C,U3*%
X34300000Y19250000D02*
X34300000Y39250000D01*
X34300000Y39250000D02*
X300000Y39250000D01*
X300000Y19250000D02*
X34300000Y19250000D01*
X300000Y39250000D02*
X300000Y19250000D01*
%TD*%
M02*
