%TF.GenerationSoftware,KiCad,Pcbnew,7.0.8*%
%TF.CreationDate,2023-10-09T03:06:34-07:00*%
%TF.ProjectId,PZEM-Stack R1,505a454d-2d53-4746-9163-6b2052312e6b,rev?*%
%TF.SameCoordinates,Original*%
%TF.FileFunction,Copper,L2,Bot*%
%TF.FilePolarity,Positive*%
%FSLAX46Y46*%
G04 Gerber Fmt 4.6, Leading zero omitted, Abs format (unit mm)*
G04 Created by KiCad (PCBNEW 7.0.8) date 2023-10-09 03:06:34*
%MOMM*%
%LPD*%
G01*
G04 APERTURE LIST*
G04 Aperture macros list*
%AMRoundRect*
0 Rectangle with rounded corners*
0 $1 Rounding radius*
0 $2 $3 $4 $5 $6 $7 $8 $9 X,Y pos of 4 corners*
0 Add a 4 corners polygon primitive as box body*
4,1,4,$2,$3,$4,$5,$6,$7,$8,$9,$2,$3,0*
0 Add four circle primitives for the rounded corners*
1,1,$1+$1,$2,$3*
1,1,$1+$1,$4,$5*
1,1,$1+$1,$6,$7*
1,1,$1+$1,$8,$9*
0 Add four rect primitives between the rounded corners*
20,1,$1+$1,$2,$3,$4,$5,0*
20,1,$1+$1,$4,$5,$6,$7,0*
20,1,$1+$1,$6,$7,$8,$9,0*
20,1,$1+$1,$8,$9,$2,$3,0*%
G04 Aperture macros list end*
%TA.AperFunction,ComponentPad*%
%ADD10RoundRect,1.000000X0.000000X0.375000X0.000000X-0.375000X0.000000X-0.375000X0.000000X0.375000X0*%
%TD*%
%TA.AperFunction,ComponentPad*%
%ADD11C,0.800000*%
%TD*%
%TA.AperFunction,ComponentPad*%
%ADD12C,6.400000*%
%TD*%
%TA.AperFunction,ComponentPad*%
%ADD13RoundRect,0.250000X0.600000X0.725000X-0.600000X0.725000X-0.600000X-0.725000X0.600000X-0.725000X0*%
%TD*%
%TA.AperFunction,ComponentPad*%
%ADD14O,1.700000X1.950000*%
%TD*%
%TA.AperFunction,ComponentPad*%
%ADD15C,1.600000*%
%TD*%
%TA.AperFunction,ComponentPad*%
%ADD16R,1.600000X1.600000*%
%TD*%
%TA.AperFunction,ComponentPad*%
%ADD17O,1.600000X1.600000*%
%TD*%
%TA.AperFunction,ComponentPad*%
%ADD18R,2.400000X1.600000*%
%TD*%
%TA.AperFunction,ComponentPad*%
%ADD19O,2.400000X1.600000*%
%TD*%
%TA.AperFunction,ComponentPad*%
%ADD20RoundRect,0.250000X0.725000X-0.600000X0.725000X0.600000X-0.725000X0.600000X-0.725000X-0.600000X0*%
%TD*%
%TA.AperFunction,ComponentPad*%
%ADD21O,1.950000X1.700000*%
%TD*%
%TA.AperFunction,ComponentPad*%
%ADD22C,3.000000*%
%TD*%
%TA.AperFunction,ComponentPad*%
%ADD23C,2.000000*%
%TD*%
%TA.AperFunction,SMDPad,CuDef*%
%ADD24RoundRect,0.250000X0.312500X0.625000X-0.312500X0.625000X-0.312500X-0.625000X0.312500X-0.625000X0*%
%TD*%
%TA.AperFunction,ViaPad*%
%ADD25C,2.032000*%
%TD*%
%TA.AperFunction,ViaPad*%
%ADD26C,1.524000*%
%TD*%
%TA.AperFunction,Conductor*%
%ADD27C,0.381000*%
%TD*%
%TA.AperFunction,Conductor*%
%ADD28C,0.635000*%
%TD*%
%TA.AperFunction,Conductor*%
%ADD29C,1.016000*%
%TD*%
%TA.AperFunction,Conductor*%
%ADD30C,0.250000*%
%TD*%
G04 APERTURE END LIST*
D10*
%TO.P,U2,1,PA02_A0_D0*%
%TO.N,Net-(J4-Pin_1)*%
X35160000Y63781000D03*
%TO.P,U2,2,PA4_A1_D1*%
%TO.N,unconnected-(U2-PA4_A1_D1-Pad2)*%
X32620000Y63781000D03*
%TO.P,U2,3,PA10_A2_D2*%
%TO.N,unconnected-(U2-PA10_A2_D2-Pad3)*%
X30080000Y63781000D03*
%TO.P,U2,4,PA11_A3_D3*%
%TO.N,unconnected-(U2-PA11_A3_D3-Pad4)*%
X27540000Y63781000D03*
%TO.P,U2,5,PA8_A4_D4_SDA*%
%TO.N,unconnected-(U2-PA8_A4_D4_SDA-Pad5)*%
X25000000Y63781000D03*
%TO.P,U2,6,PA9_A5_D5_SCL*%
%TO.N,unconnected-(U2-PA9_A5_D5_SCL-Pad6)*%
X22460000Y63781000D03*
%TO.P,U2,7,PB08_A6_D6_TX*%
%TO.N,/MOSI*%
X19920000Y63781000D03*
%TO.P,U2,8,PB09_A7_D7_RX*%
%TO.N,/MISO*%
X19920000Y47616000D03*
%TO.P,U2,9,PA7_A8_D8_SCK*%
%TO.N,unconnected-(U2-PA7_A8_D8_SCK-Pad9)*%
X22460000Y47616000D03*
%TO.P,U2,10,PA5_A9_D9_MISO*%
%TO.N,unconnected-(U2-PA5_A9_D9_MISO-Pad10)*%
X25000000Y47616000D03*
%TO.P,U2,11,PA6_A10_D10_MOSI*%
%TO.N,unconnected-(U2-PA6_A10_D10_MOSI-Pad11)*%
X27540000Y47616000D03*
%TO.P,U2,12,3V3*%
%TO.N,+3V3*%
X30080000Y47616000D03*
%TO.P,U2,13,GND*%
%TO.N,GND*%
X32620000Y47616000D03*
%TO.P,U2,14,5V*%
%TO.N,+5V*%
X35160000Y47616000D03*
%TD*%
D11*
%TO.P,H4,1*%
%TO.N,N/C*%
X33902944Y92302944D03*
X34605888Y94000000D03*
X34605888Y90605888D03*
X36302944Y94702944D03*
D12*
X36302944Y92302944D03*
D11*
X36302944Y89902944D03*
X38000000Y94000000D03*
X38000000Y90605888D03*
X38702944Y92302944D03*
%TD*%
%TO.P,H3,1*%
%TO.N,N/C*%
X33600000Y4000000D03*
X34302944Y5697056D03*
X34302944Y2302944D03*
X36000000Y6400000D03*
D12*
X36000000Y4000000D03*
D11*
X36000000Y1600000D03*
X37697056Y5697056D03*
X37697056Y2302944D03*
X38400000Y4000000D03*
%TD*%
%TO.P,H2,1*%
%TO.N,N/C*%
X1600000Y93000000D03*
X2302944Y94697056D03*
X2302944Y91302944D03*
X4000000Y95400000D03*
D12*
X4000000Y93000000D03*
D11*
X4000000Y90600000D03*
X5697056Y94697056D03*
X5697056Y91302944D03*
X6400000Y93000000D03*
%TD*%
%TO.P,H1,1*%
%TO.N,N/C*%
X1600000Y4000000D03*
X2302944Y5697056D03*
X2302944Y2302944D03*
X4000000Y6400000D03*
D12*
X4000000Y4000000D03*
D11*
X4000000Y1600000D03*
X5697056Y5697056D03*
X5697056Y2302944D03*
X6400000Y4000000D03*
%TD*%
D13*
%TO.P,J9,1,Pin_1*%
%TO.N,/TX-MOSI*%
X16000000Y92000000D03*
D14*
%TO.P,J9,2,Pin_2*%
%TO.N,/RX-MISO*%
X13500000Y92000000D03*
%TO.P,J9,3,Pin_3*%
%TO.N,+5V*%
X11000000Y92000000D03*
%TD*%
D13*
%TO.P,J2,1,Pin_1*%
%TO.N,+5V*%
X29500000Y92000000D03*
D14*
%TO.P,J2,2,Pin_2*%
%TO.N,/RX-MISO*%
X27000000Y92000000D03*
%TO.P,J2,3,Pin_3*%
%TO.N,/TX-MOSI*%
X24500000Y92000000D03*
%TO.P,J2,4,Pin_4*%
%TO.N,GND*%
X22000000Y92000000D03*
%TD*%
D15*
%TO.P,C1,1*%
%TO.N,+5V*%
X9500000Y73000000D03*
%TO.P,C1,2*%
%TO.N,GND*%
X7000000Y73000000D03*
%TD*%
D16*
%TO.P,C4,1*%
%TO.N,+5V*%
X26750000Y69750000D03*
D15*
%TO.P,C4,2*%
%TO.N,GND*%
X29250000Y69750000D03*
%TD*%
%TO.P,R3,1*%
%TO.N,+3V3*%
X30080000Y53000000D03*
D17*
%TO.P,R3,2*%
%TO.N,/MISO*%
X19920000Y53000000D03*
%TD*%
D15*
%TO.P,R4,1*%
%TO.N,+3V3*%
X30080000Y59750000D03*
D17*
%TO.P,R4,2*%
%TO.N,/MOSI*%
X19920000Y59750000D03*
%TD*%
D15*
%TO.P,R1,1*%
%TO.N,+5V*%
X27000000Y76000000D03*
D17*
%TO.P,R1,2*%
%TO.N,/RX-MISO*%
X16840000Y76000000D03*
%TD*%
D15*
%TO.P,R2,1*%
%TO.N,+5V*%
X23080000Y73000000D03*
D17*
%TO.P,R2,2*%
%TO.N,/TX-MOSI*%
X12920000Y73000000D03*
%TD*%
D18*
%TO.P,U1,1*%
%TO.N,GND*%
X4380000Y69000000D03*
D19*
%TO.P,U1,2*%
%TO.N,unconnected-(U1-Pad2)*%
X4380000Y66460000D03*
%TO.P,U1,3*%
%TO.N,GND*%
X4380000Y63920000D03*
%TO.P,U1,4*%
%TO.N,unconnected-(U1-Pad4)*%
X4380000Y61380000D03*
%TO.P,U1,5*%
%TO.N,GND*%
X4380000Y58840000D03*
%TO.P,U1,6*%
%TO.N,unconnected-(U1-Pad6)*%
X4380000Y56300000D03*
%TO.P,U1,7,GND*%
%TO.N,GND*%
X4380000Y53760000D03*
%TO.P,U1,8*%
%TO.N,unconnected-(U1-Pad8)*%
X12000000Y53760000D03*
%TO.P,U1,9*%
%TO.N,GND*%
X12000000Y56300000D03*
%TO.P,U1,10*%
%TO.N,/MISO*%
X12000000Y58840000D03*
%TO.P,U1,11*%
%TO.N,/RX-MISO*%
X12000000Y61380000D03*
%TO.P,U1,12*%
%TO.N,/TX-MOSI*%
X12000000Y63920000D03*
%TO.P,U1,13*%
%TO.N,/MOSI*%
X12000000Y66460000D03*
%TO.P,U1,14,VCC*%
%TO.N,+5V*%
X12000000Y69000000D03*
%TD*%
D13*
%TO.P,J1,1,Pin_1*%
%TO.N,+5V*%
X26000000Y85000000D03*
D14*
%TO.P,J1,2,Pin_2*%
%TO.N,/RX-MISO*%
X23500000Y85000000D03*
%TO.P,J1,3,Pin_3*%
%TO.N,/TX-MOSI*%
X21000000Y85000000D03*
%TO.P,J1,4,Pin_4*%
%TO.N,GND*%
X18500000Y85000000D03*
%TD*%
D11*
%TO.P,H8,1*%
%TO.N,N/C*%
X30902944Y15600000D03*
X31605888Y17297056D03*
X31605888Y13902944D03*
X33302944Y18000000D03*
D12*
X33302944Y15600000D03*
D11*
X33302944Y13200000D03*
X35000000Y17297056D03*
X35000000Y13902944D03*
X35702944Y15600000D03*
%TD*%
%TO.P,H7,1*%
%TO.N,N/C*%
X5752944Y15600000D03*
X6455888Y17297056D03*
X6455888Y13902944D03*
X8152944Y18000000D03*
D12*
X8152944Y15600000D03*
D11*
X8152944Y13200000D03*
X9850000Y17297056D03*
X9850000Y13902944D03*
X10552944Y15600000D03*
%TD*%
%TO.P,H6,1*%
%TO.N,N/C*%
X30902944Y84320000D03*
X31605888Y86017056D03*
X31605888Y82622944D03*
X33302944Y86720000D03*
D12*
X33302944Y84320000D03*
D11*
X33302944Y81920000D03*
X35000000Y86017056D03*
X35000000Y82622944D03*
X35702944Y84320000D03*
%TD*%
D15*
%TO.P,R5,1*%
%TO.N,+3V3*%
X22670000Y56500000D03*
D17*
%TO.P,R5,2*%
%TO.N,Net-(J4-Pin_1)*%
X32830000Y56500000D03*
%TD*%
D16*
%TO.P,C2,1*%
%TO.N,+5V*%
X12170937Y44400000D03*
X11500000Y46000000D03*
D15*
%TO.P,C2,2*%
%TO.N,GND*%
X9000000Y46000000D03*
X8329063Y47600000D03*
%TD*%
D20*
%TO.P,J4,1,Pin_1*%
%TO.N,Net-(J4-Pin_1)*%
X35475000Y72750000D03*
D21*
%TO.P,J4,2,Pin_2*%
%TO.N,+3V3*%
X35475000Y75250000D03*
%TO.P,J4,3,Pin_3*%
%TO.N,GND*%
X35475000Y77750000D03*
%TD*%
D22*
%TO.P,J3,1,Pin_1*%
%TO.N,Net-(J3-Pin_1)*%
X24810000Y8500000D03*
X24810000Y3500000D03*
%TO.P,J3,2,Pin_2*%
%TO.N,Net-(J3-Pin_2)*%
X17190000Y8500000D03*
X17190000Y3500000D03*
%TD*%
D23*
%TO.P,U3,1,AC*%
%TO.N,Net-(J3-Pin_1)*%
X32000000Y26750000D03*
%TO.P,U3,2,AC*%
%TO.N,Net-(J3-Pin_2)*%
X32000000Y31750000D03*
%TO.P,U3,3,-Vo*%
%TO.N,GND*%
X2600000Y36950000D03*
%TO.P,U3,4,+Vo*%
%TO.N,+5V*%
X2600000Y21550000D03*
%TD*%
D11*
%TO.P,H5,1*%
%TO.N,N/C*%
X5752944Y84320000D03*
X6455888Y86017056D03*
X6455888Y82622944D03*
X8152944Y86720000D03*
D12*
X8152944Y84320000D03*
D11*
X8152944Y81920000D03*
X9850000Y86017056D03*
X9850000Y82622944D03*
X10552944Y84320000D03*
%TD*%
D24*
%TO.P,R7,1*%
%TO.N,+5V*%
X29962500Y89500000D03*
%TO.P,R7,2*%
%TO.N,/RX-MISO*%
X27037500Y89500000D03*
%TD*%
D25*
%TO.N,+5V*%
X21000000Y78000000D03*
X6500000Y78000000D03*
%TO.N,GND*%
X12500000Y81000000D03*
X30000000Y77750000D03*
D26*
%TO.N,+5V*%
X5000000Y41750000D03*
X2500000Y48500000D03*
D25*
X9500000Y75500000D03*
X4000000Y75500000D03*
%TO.N,/TX-MOSI*%
X15000000Y73000000D03*
X15000000Y63920000D03*
%TO.N,/RX-MISO*%
X16913000Y70913000D03*
X16913000Y62000000D03*
%TD*%
D27*
%TO.N,+3V3*%
X37250000Y75250000D02*
X35475000Y75250000D01*
X30080000Y48080000D02*
X38250000Y56250000D01*
X30080000Y47616000D02*
X30080000Y48080000D01*
X38250000Y56250000D02*
X38250000Y74250000D01*
X38250000Y74250000D02*
X37250000Y75250000D01*
D28*
%TO.N,+5V*%
X17500000Y42500000D02*
X32660000Y42500000D01*
X32660000Y42500000D02*
X35160000Y45000000D01*
X15600000Y44400000D02*
X17500000Y42500000D01*
X12170937Y44400000D02*
X15600000Y44400000D01*
X35160000Y45000000D02*
X35160000Y47616000D01*
%TO.N,GND*%
X9100000Y47600000D02*
X8329063Y47600000D01*
X9750000Y48250000D02*
X9100000Y47600000D01*
X14750000Y48250000D02*
X9750000Y48250000D01*
X18500000Y44500000D02*
X14750000Y48250000D01*
X31500000Y44500000D02*
X18500000Y44500000D01*
X32620000Y45620000D02*
X31500000Y44500000D01*
X32620000Y47616000D02*
X32620000Y45620000D01*
D29*
X9000000Y47600000D02*
X8329063Y47600000D01*
X9000000Y46000000D02*
X9000000Y47600000D01*
X9000000Y46000000D02*
X8329063Y46670937D01*
X8329063Y46670937D02*
X8329063Y47600000D01*
%TO.N,+5V*%
X11500000Y46000000D02*
X11500000Y44400000D01*
D28*
X7635469Y41750000D02*
X5000000Y41750000D01*
X10285469Y44400000D02*
X7635469Y41750000D01*
X12170937Y44400000D02*
X10285469Y44400000D01*
D29*
X12170937Y41500000D02*
X12170937Y44400000D01*
X12170937Y41500000D02*
X12170937Y40670937D01*
X12170937Y42500000D02*
X12170937Y41500000D01*
D30*
X25000000Y74500000D02*
X23500000Y73000000D01*
X25500000Y74500000D02*
X25000000Y74500000D01*
X23500000Y73000000D02*
X23080000Y73000000D01*
X27000000Y76000000D02*
X25500000Y74500000D01*
D28*
X27000000Y76000000D02*
X27000000Y70000000D01*
X27000000Y70000000D02*
X26750000Y69750000D01*
X25750000Y77250000D02*
X27000000Y76000000D01*
X25000000Y78000000D02*
X25750000Y77250000D01*
X21000000Y78000000D02*
X25000000Y78000000D01*
X3000000Y74500000D02*
X6500000Y78000000D01*
X3000000Y74500000D02*
X4000000Y75500000D01*
X1500000Y73000000D02*
X3000000Y74500000D01*
%TO.N,GND*%
X7000000Y75500000D02*
X12500000Y81000000D01*
X7000000Y73000000D02*
X7000000Y75500000D01*
X14500000Y81000000D02*
X18500000Y85000000D01*
X12500000Y81000000D02*
X14500000Y81000000D01*
D30*
%TO.N,/RX-MISO*%
X16840000Y78340000D02*
X16840000Y76000000D01*
X23500000Y85000000D02*
X16840000Y78340000D01*
%TO.N,/TX-MOSI*%
X21000000Y85000000D02*
X15000000Y79000000D01*
X15000000Y79000000D02*
X15000000Y73000000D01*
D28*
%TO.N,GND*%
X29250000Y71500000D02*
X29250000Y69750000D01*
X30000000Y72250000D02*
X29250000Y71500000D01*
X30000000Y77750000D02*
X30000000Y72250000D01*
X35475000Y77750000D02*
X30000000Y77750000D01*
X8329063Y47600000D02*
X8329063Y49810937D01*
X7000000Y72000000D02*
X7000000Y73000000D01*
X5760000Y53760000D02*
X7000000Y55000000D01*
X4380000Y53760000D02*
X5760000Y53760000D01*
X7000000Y55000000D02*
X7000000Y57000000D01*
X4380000Y69000000D02*
X7000000Y69000000D01*
X4380000Y58840000D02*
X7000000Y58840000D01*
X4380000Y63920000D02*
X7000000Y63920000D01*
X8329063Y49810937D02*
X4380000Y53760000D01*
X18500000Y85000000D02*
X18500000Y88500000D01*
D29*
X2600000Y43600000D02*
X6600000Y47600000D01*
X2600000Y36950000D02*
X2600000Y43600000D01*
D28*
X18500000Y88500000D02*
X22000000Y92000000D01*
X7000000Y57000000D02*
X7000000Y72000000D01*
D29*
X6600000Y47600000D02*
X8329063Y47600000D01*
D28*
X12000000Y56300000D02*
X7000000Y56300000D01*
%TO.N,+5V*%
X12170937Y42500000D02*
X12170937Y44400000D01*
D27*
X27000000Y79000000D02*
X27000000Y76000000D01*
D30*
X25500000Y96000000D02*
X29500000Y92000000D01*
D29*
X12170937Y40670937D02*
X2600000Y31100000D01*
D30*
X11000000Y92000000D02*
X15000000Y96000000D01*
X15000000Y96000000D02*
X25500000Y96000000D01*
D27*
X25000000Y81000000D02*
X27000000Y79000000D01*
X26000000Y85000000D02*
X25000000Y84000000D01*
X26000000Y85000000D02*
X29500000Y88500000D01*
D28*
X12000000Y69000000D02*
X12000000Y70500000D01*
D27*
X25000000Y84000000D02*
X25000000Y81000000D01*
D28*
X9500000Y73000000D02*
X9500000Y75500000D01*
X2500000Y51000000D02*
X1500000Y52000000D01*
D29*
X2600000Y31100000D02*
X2600000Y21550000D01*
D28*
X2500000Y48500000D02*
X2500000Y51000000D01*
X12000000Y70500000D02*
X9500000Y73000000D01*
D27*
X29500000Y88500000D02*
X29500000Y92000000D01*
D28*
X1500000Y52000000D02*
X1500000Y73000000D01*
%TO.N,+3V3*%
X29000000Y56500000D02*
X29080000Y56500000D01*
X29000000Y56500000D02*
X30080000Y56500000D01*
X30080000Y50000000D02*
X30080000Y47616000D01*
X30080000Y50000000D02*
X30080000Y59750000D01*
X29000000Y56500000D02*
X30080000Y55420000D01*
D27*
X30080000Y47616000D02*
X30080000Y56500000D01*
X30080000Y57500000D02*
X30080000Y59750000D01*
X30080000Y56500000D02*
X30080000Y57500000D01*
D28*
X30080000Y55420000D02*
X30080000Y50000000D01*
X29080000Y56500000D02*
X30080000Y57500000D01*
X22670000Y56500000D02*
X29000000Y56500000D01*
D30*
%TO.N,/TX-MOSI*%
X22500000Y94000000D02*
X24500000Y92000000D01*
X12920000Y73000000D02*
X15000000Y73000000D01*
X24500000Y91000000D02*
X24500000Y92000000D01*
D27*
X12000000Y63920000D02*
X15000000Y63920000D01*
D30*
X21000000Y86500000D02*
X24500000Y90000000D01*
X18000000Y94000000D02*
X22500000Y94000000D01*
X24500000Y90000000D02*
X24500000Y91000000D01*
X21000000Y85000000D02*
X21000000Y86500000D01*
X16000000Y92000000D02*
X18000000Y94000000D01*
%TO.N,/RX-MISO*%
X27000000Y92000000D02*
X27000000Y89537500D01*
D27*
X16913000Y62000000D02*
X16293000Y61380000D01*
D30*
X27037500Y89037500D02*
X23500000Y85500000D01*
X27000000Y89537500D02*
X27037500Y89500000D01*
X16840000Y76000000D02*
X16913000Y75927000D01*
X16500000Y95000000D02*
X13500000Y92000000D01*
X23500000Y85500000D02*
X23500000Y85000000D01*
X27000000Y90000000D02*
X27000000Y92000000D01*
D27*
X16293000Y61380000D02*
X12000000Y61380000D01*
D30*
X27000000Y92000000D02*
X24000000Y95000000D01*
X24000000Y95000000D02*
X16500000Y95000000D01*
X27037500Y89500000D02*
X27037500Y89037500D01*
X16913000Y75927000D02*
X16913000Y70913000D01*
D27*
X17000000Y62000000D02*
X16913000Y62000000D01*
%TO.N,/MOSI*%
X19920000Y59750000D02*
X19920000Y63781000D01*
X12000000Y66460000D02*
X17241000Y66460000D01*
X17241000Y66460000D02*
X19920000Y63781000D01*
%TO.N,/MISO*%
X12000000Y58840000D02*
X17160000Y58840000D01*
X19920000Y56080000D02*
X19920000Y47616000D01*
X17160000Y58840000D02*
X19920000Y56080000D01*
D29*
%TO.N,Net-(J3-Pin_1)*%
X24810000Y3500000D02*
X24810000Y19000000D01*
X24810000Y19000000D02*
X24810000Y23560000D01*
X28000000Y26750000D02*
X32000000Y26750000D01*
X24810000Y23560000D02*
X28000000Y26750000D01*
%TO.N,Net-(J3-Pin_2)*%
X17190000Y8500000D02*
X17190000Y27190000D01*
X17190000Y27190000D02*
X21750000Y31750000D01*
X21750000Y31750000D02*
X32000000Y31750000D01*
X17190000Y3500000D02*
X17190000Y8500000D01*
D27*
%TO.N,Net-(J4-Pin_1)*%
X35160000Y63781000D02*
X35160000Y58830000D01*
X35160000Y58830000D02*
X32830000Y56500000D01*
X35475000Y72750000D02*
X35160000Y72435000D01*
X35160000Y72435000D02*
X35160000Y63781000D01*
%TD*%
M02*
