M48
; DRILL file {KiCad 7.0.8} date Mon Oct  9 03:06:30 2023
; FORMAT={3:3/ absolute / metric / suppress trailing zeros}
; #@! TF.CreationDate,2023-10-09T03:06:30-07:00
; #@! TF.GenerationSoftware,Kicad,Pcbnew,7.0.8
; #@! TF.FileFunction,MixedPlating,1,2
FMAT,2
METRIC,LZ
; #@! TA.AperFunction,Plated,PTH,ComponentDrill
T1C0.500
; #@! TA.AperFunction,Plated,PTH,ComponentDrill
T2C0.800
; #@! TA.AperFunction,Plated,PTH,ViaDrill
T3C0.889
; #@! TA.AperFunction,Plated,PTH,ComponentDrill
T4C0.950
; #@! TA.AperFunction,Plated,PTH,ComponentDrill
T5C1.000
; #@! TA.AperFunction,Plated,PTH,ComponentDrill
T6C1.300
; #@! TA.AperFunction,Plated,PTH,ComponentDrill
T7C3.200
%
G90
G05
T1
X0016Y093
X0016Y004
X002303Y094697
X002303Y091303
X002303Y005697
X002303Y002303
X004Y0954
X004Y0906
X004Y0064
X004Y0016
X005697Y094697
X005697Y091303
X005697Y005697
X005697Y002303
X005753Y08432
X005753Y0156
X0064Y093
X0064Y004
X006456Y086017
X006456Y082623
X006456Y017297
X006456Y013903
X008153Y08672
X008153Y08192
X008153Y018
X008153Y0132
X00985Y086017
X00985Y082623
X00985Y017297
X00985Y013903
X010553Y08432
X010553Y0156
X030903Y08432
X030903Y0156
X031606Y086017
X031606Y082623
X031606Y017297
X031606Y013903
X033303Y08672
X033303Y08192
X033303Y018
X033303Y0132
X0336Y004
X033903Y092303
X034303Y005697
X034303Y002303
X034606Y094
X034606Y090606
X035Y086017
X035Y082623
X035Y017297
X035Y013903
X035703Y08432
X035703Y0156
X036Y0064
X036Y0016
X036303Y094703
X036303Y089903
X037697Y005697
X037697Y002303
X038Y094
X038Y090606
X0384Y004
X038703Y092303
T2
X00438Y069
X00438Y06646
X00438Y06392
X00438Y06138
X00438Y05884
X00438Y0563
X00438Y05376
X007Y073
X008329Y0476
X009Y046
X0095Y073
X0115Y046
X012Y069
X012Y06646
X012Y06392
X012Y06138
X012Y05884
X012Y0563
X012Y05376
X012171Y0444
X01292Y073
X01684Y076
X01992Y05975
X01992Y053
X02267Y0565
X02308Y073
X02675Y06975
X027Y076
X02925Y06975
X03008Y05975
X03008Y053
X03283Y0565
T3
X0025Y0485
X004Y0755
X005Y04175
X0065Y078
X0095Y0755
X0125Y081
X015Y073
X015Y06392
X016913Y070913
X016913Y062
X021Y078
X03Y07775
T4
X011Y092
X0135Y092
X016Y092
X0185Y085
X01992Y063781
X01992Y047616
X021Y085
X022Y092
X02246Y063781
X02246Y047616
X0235Y085
X0245Y092
X025Y063781
X025Y047616
X026Y085
X027Y092
X02754Y063781
X02754Y047616
X0295Y092
X03008Y063781
X03008Y047616
X03262Y063781
X03262Y047616
X03516Y063781
X03516Y047616
X035475Y07775
X035475Y07525
X035475Y07275
T5
X0026Y03695
X0026Y02155
X032Y03175
X032Y02675
T6
X01719Y0085
X01719Y0035
X02481Y0085
X02481Y0035
T7
X004Y093
X004Y004
X008153Y08432
X008153Y0156
X033303Y08432
X033303Y0156
X036Y004
X036303Y092303
T0
M30
