M48
; DRILL file {KiCad 8.0.8} date 2025-02-15T05:52:52-0800
; FORMAT={-:-/ absolute / inch / decimal}
; #@! TF.CreationDate,2025-02-15T05:52:52-08:00
; #@! TF.GenerationSoftware,Kicad,Pcbnew,8.0.8
; #@! TF.FileFunction,Plated,1,2,PTH
FMAT,2
INCH
; #@! TA.AperFunction,Plated,PTH,ViaDrill
T1C0.0118
%
G90
G05
T1
X1.25Y5.2637
X1.2744Y5.605
X1.2744Y5.56
X1.2744Y5.52
X1.3Y5.2287
X1.3Y5.0813
X1.3244Y5.605
X1.3244Y5.56
X1.3244Y5.52
X1.355Y5.23
X1.4012Y5.5028
X1.44Y5.245
X1.49Y5.09
X1.4996Y5.5028
X1.575Y5.085
X1.5981Y5.5028
X1.665Y5.155
X1.6694Y5.515
X1.7Y5.15
X1.8004Y5.1195
X1.8244Y5.605
X1.8244Y5.56
X1.8244Y5.52
X1.8363Y5.285
X1.845Y5.245
X1.8694Y5.605
X1.8694Y5.56
X1.8694Y5.52
M30
