%TF.GenerationSoftware,KiCad,Pcbnew,8.0.8*%
%TF.CreationDate,2025-02-15T05:52:52-08:00*%
%TF.ProjectId,EZ Stepper Line Driver - R2,455a2053-7465-4707-9065-72204c696e65,rev?*%
%TF.SameCoordinates,Original*%
%TF.FileFunction,Copper,L1,Top*%
%TF.FilePolarity,Positive*%
%FSLAX46Y46*%
G04 Gerber Fmt 4.6, Leading zero omitted, Abs format (unit mm)*
G04 Created by KiCad (PCBNEW 8.0.8) date 2025-02-15 05:52:52*
%MOMM*%
%LPD*%
G01*
G04 APERTURE LIST*
G04 Aperture macros list*
%AMRoundRect*
0 Rectangle with rounded corners*
0 $1 Rounding radius*
0 $2 $3 $4 $5 $6 $7 $8 $9 X,Y pos of 4 corners*
0 Add a 4 corners polygon primitive as box body*
4,1,4,$2,$3,$4,$5,$6,$7,$8,$9,$2,$3,0*
0 Add four circle primitives for the rounded corners*
1,1,$1+$1,$2,$3*
1,1,$1+$1,$4,$5*
1,1,$1+$1,$6,$7*
1,1,$1+$1,$8,$9*
0 Add four rect primitives between the rounded corners*
20,1,$1+$1,$2,$3,$4,$5,0*
20,1,$1+$1,$4,$5,$6,$7,0*
20,1,$1+$1,$6,$7,$8,$9,0*
20,1,$1+$1,$8,$9,$2,$3,0*%
G04 Aperture macros list end*
%TA.AperFunction,SMDPad,CuDef*%
%ADD10R,1.600000X5.500000*%
%TD*%
%TA.AperFunction,SMDPad,CuDef*%
%ADD11RoundRect,0.200000X-0.200000X-0.275000X0.200000X-0.275000X0.200000X0.275000X-0.200000X0.275000X0*%
%TD*%
%TA.AperFunction,SMDPad,CuDef*%
%ADD12RoundRect,0.225000X-0.250000X0.225000X-0.250000X-0.225000X0.250000X-0.225000X0.250000X0.225000X0*%
%TD*%
%TA.AperFunction,SMDPad,CuDef*%
%ADD13R,0.400000X0.650000*%
%TD*%
%TA.AperFunction,SMDPad,CuDef*%
%ADD14RoundRect,0.200000X-0.275000X0.200000X-0.275000X-0.200000X0.275000X-0.200000X0.275000X0.200000X0*%
%TD*%
%TA.AperFunction,SMDPad,CuDef*%
%ADD15RoundRect,0.200000X0.275000X-0.200000X0.275000X0.200000X-0.275000X0.200000X-0.275000X-0.200000X0*%
%TD*%
%TA.AperFunction,SMDPad,CuDef*%
%ADD16RoundRect,0.218750X-0.218750X-0.256250X0.218750X-0.256250X0.218750X0.256250X-0.218750X0.256250X0*%
%TD*%
%TA.AperFunction,SMDPad,CuDef*%
%ADD17RoundRect,0.218750X-0.256250X0.218750X-0.256250X-0.218750X0.256250X-0.218750X0.256250X0.218750X0*%
%TD*%
%TA.AperFunction,SMDPad,CuDef*%
%ADD18RoundRect,0.218750X0.218750X0.256250X-0.218750X0.256250X-0.218750X-0.256250X0.218750X-0.256250X0*%
%TD*%
%TA.AperFunction,SMDPad,CuDef*%
%ADD19RoundRect,0.200000X0.200000X0.600000X-0.200000X0.600000X-0.200000X-0.600000X0.200000X-0.600000X0*%
%TD*%
%TA.AperFunction,SMDPad,CuDef*%
%ADD20RoundRect,0.250001X0.799999X1.249999X-0.799999X1.249999X-0.799999X-1.249999X0.799999X-1.249999X0*%
%TD*%
%TA.AperFunction,SMDPad,CuDef*%
%ADD21RoundRect,0.218750X0.256250X-0.218750X0.256250X0.218750X-0.256250X0.218750X-0.256250X-0.218750X0*%
%TD*%
%TA.AperFunction,ViaPad*%
%ADD22C,0.600000*%
%TD*%
%TA.AperFunction,Conductor*%
%ADD23C,0.200000*%
%TD*%
%TA.AperFunction,Conductor*%
%ADD24C,0.500000*%
%TD*%
%TA.AperFunction,Conductor*%
%ADD25C,0.300000*%
%TD*%
G04 APERTURE END LIST*
D10*
%TO.P,U1,1,DIR*%
%TO.N,/DIR*%
X31880000Y124785000D03*
%TO.P,U1,2,STEP*%
%TO.N,/STEP*%
X33880000Y124785000D03*
%TO.P,U1,3,DIAG*%
%TO.N,/DIAG*%
X35880000Y124785000D03*
%TO.P,U1,4,MISO*%
%TO.N,unconnected-(U1-MISO-Pad4)*%
X37880000Y124785000D03*
%TO.P,U1,5,CS*%
%TO.N,unconnected-(U1-CS-Pad5)*%
X39880000Y124785000D03*
%TO.P,U1,6,SCK*%
%TO.N,unconnected-(U1-SCK-Pad6)*%
X41880000Y124785000D03*
%TO.P,U1,7,MOSI*%
%TO.N,unconnected-(U1-MOSI-Pad7)*%
X43880000Y124785000D03*
%TO.P,U1,8,~{ENABLE}*%
%TO.N,/\u005CENABLE*%
X45880000Y124785000D03*
%TD*%
D11*
%TO.P,R3,1*%
%TO.N,/B-ENABLE*%
X40831000Y135890000D03*
%TO.P,R3,2*%
%TO.N,Net-(D1-K)*%
X42481000Y135890000D03*
%TD*%
D12*
%TO.P,C1,1*%
%TO.N,+5V*%
X35306000Y131712000D03*
%TO.P,C1,2*%
%TO.N,GND*%
X35306000Y130162000D03*
%TD*%
D13*
%TO.P,U2,1*%
%TO.N,/DIR*%
X32370000Y129987000D03*
%TO.P,U2,2,GND*%
%TO.N,GND*%
X33020000Y129987000D03*
%TO.P,U2,3*%
%TO.N,/STEP*%
X33670000Y129987000D03*
%TO.P,U2,4*%
%TO.N,/B-STEP*%
X33670000Y131887000D03*
%TO.P,U2,5,VCC*%
%TO.N,+5V*%
X33020000Y131887000D03*
%TO.P,U2,6*%
%TO.N,/B-DIR*%
X32370000Y131887000D03*
%TD*%
D14*
%TO.P,R2,1*%
%TO.N,GND*%
X45720000Y132860000D03*
%TO.P,R2,2*%
%TO.N,/DIAG*%
X45720000Y131210000D03*
%TD*%
D15*
%TO.P,R1,1*%
%TO.N,/DIAG*%
X44196000Y131210000D03*
%TO.P,R1,2*%
%TO.N,/5VDIAG*%
X44196000Y132860000D03*
%TD*%
D16*
%TO.P,D3,1,K*%
%TO.N,Net-(D3-K)*%
X33629500Y136271000D03*
%TO.P,D3,2,A*%
%TO.N,/B-DIR*%
X35204500Y136271000D03*
%TD*%
D17*
%TO.P,D4,1,K*%
%TO.N,Net-(D4-K)*%
X44196000Y135788500D03*
%TO.P,D4,2,A*%
%TO.N,/5VDIAG*%
X44196000Y134213500D03*
%TD*%
D18*
%TO.P,D1,1,K*%
%TO.N,Net-(D1-K)*%
X42443500Y134239000D03*
%TO.P,D1,2,A*%
%TO.N,+5V*%
X40868500Y134239000D03*
%TD*%
D13*
%TO.P,U3,1*%
%TO.N,/\u005CENABLE*%
X41006000Y129987000D03*
%TO.P,U3,2,GND*%
%TO.N,GND*%
X41656000Y129987000D03*
%TO.P,U3,3*%
%TO.N,/B-DIAG*%
X42306000Y129987000D03*
%TO.P,U3,4*%
%TO.N,/5VDIAG*%
X42306000Y131887000D03*
%TO.P,U3,5,VCC*%
%TO.N,+5V*%
X41656000Y131887000D03*
%TO.P,U3,6*%
%TO.N,/B-ENABLE*%
X41006000Y131887000D03*
%TD*%
D15*
%TO.P,R6,1*%
%TO.N,GND*%
X45720000Y134239000D03*
%TO.P,R6,2*%
%TO.N,Net-(D4-K)*%
X45720000Y135889000D03*
%TD*%
D11*
%TO.P,R4,1*%
%TO.N,GND*%
X37465000Y133224000D03*
%TO.P,R4,2*%
%TO.N,Net-(D2-K)*%
X39115000Y133224000D03*
%TD*%
D19*
%TO.P,J1,1,Pin_1*%
%TO.N,/B-DIAG*%
X44341000Y138425000D03*
%TO.P,J1,2,Pin_2*%
%TO.N,GND*%
X43091000Y138425000D03*
%TO.P,J1,3,Pin_3*%
%TO.N,/B-ENABLE*%
X41841000Y138425000D03*
%TO.P,J1,4,Pin_4*%
%TO.N,GND*%
X40591000Y138425000D03*
%TO.P,J1,5,Pin_5*%
%TO.N,/B-STEP*%
X39341000Y138425000D03*
%TO.P,J1,6,Pin_6*%
%TO.N,GND*%
X38091000Y138425000D03*
%TO.P,J1,7,Pin_7*%
%TO.N,/B-DIR*%
X36841000Y138425000D03*
%TO.P,J1,8,Pin_8*%
%TO.N,GND*%
X35591000Y138425000D03*
D20*
%TO.P,J1,MP*%
X46891000Y141325000D03*
X33041000Y141325000D03*
%TD*%
D14*
%TO.P,R7,1*%
%TO.N,/B-DIAG*%
X47244000Y131762000D03*
%TO.P,R7,2*%
%TO.N,+5V*%
X47244000Y130112000D03*
%TD*%
D21*
%TO.P,D2,1,K*%
%TO.N,Net-(D2-K)*%
X38989000Y134848500D03*
%TO.P,D2,2,A*%
%TO.N,/B-STEP*%
X38989000Y136423500D03*
%TD*%
D15*
%TO.P,R5,1*%
%TO.N,GND*%
X32004000Y134684000D03*
%TO.P,R5,2*%
%TO.N,Net-(D3-K)*%
X32004000Y136334000D03*
%TD*%
D12*
%TO.P,C2,1*%
%TO.N,+5V*%
X39116000Y131712000D03*
%TO.P,C2,2*%
%TO.N,GND*%
X39116000Y130162000D03*
%TD*%
D22*
%TO.N,+5V*%
X34417000Y132842000D03*
X33020000Y132808000D03*
X37846000Y129286000D03*
X45730000Y130035000D03*
%TO.N,GND*%
X46341000Y141224000D03*
X33020000Y129066000D03*
X38091000Y139772000D03*
X35591000Y139772000D03*
X46341000Y140208000D03*
X46863000Y133223000D03*
X32371000Y141224000D03*
X47484000Y140208000D03*
X46341000Y142367000D03*
X32371000Y142367000D03*
X42404000Y140081000D03*
X46641000Y134239000D03*
X47484000Y141224000D03*
X47484000Y142367000D03*
X31750000Y133699000D03*
X40591000Y139772000D03*
X36576000Y133223000D03*
X42291000Y130937000D03*
X33641000Y142367000D03*
X33641000Y141224000D03*
X32371000Y140208000D03*
X33641000Y140208000D03*
%TO.N,/DIAG*%
X43180000Y130810000D03*
X40005000Y129159000D03*
%TD*%
D23*
%TO.N,+5V*%
X39637000Y131191000D02*
X39116000Y131712000D01*
D24*
X37846000Y129286000D02*
X36944000Y130188000D01*
D23*
X40767000Y131191000D02*
X39637000Y131191000D01*
X33274000Y131191000D02*
X34785000Y131191000D01*
D25*
X36258500Y132397500D02*
X36944000Y131712000D01*
D23*
X33020000Y131887000D02*
X33020000Y132808000D01*
X41656000Y131445000D02*
X41402000Y131191000D01*
X41656000Y132842000D02*
X41656000Y131887000D01*
D25*
X39116000Y131712000D02*
X38494000Y131712000D01*
D23*
X40868500Y134239000D02*
X40868500Y133629500D01*
D25*
X35814000Y132842000D02*
X36258500Y132397500D01*
D23*
X47230000Y130460000D02*
X46805000Y130035000D01*
X33020000Y131445000D02*
X33274000Y131191000D01*
X45730000Y130035000D02*
X47167000Y130035000D01*
X41656000Y131887000D02*
X41656000Y131445000D01*
X39694000Y131191000D02*
X39961000Y131191000D01*
X40767000Y131191000D02*
X39961000Y131191000D01*
X46805000Y130035000D02*
X45730000Y130035000D01*
X40868500Y133629500D02*
X41656000Y132842000D01*
X41402000Y131191000D02*
X40767000Y131191000D01*
D25*
X34417000Y132842000D02*
X35814000Y132842000D01*
D23*
X33020000Y131887000D02*
X33020000Y131445000D01*
X34785000Y131191000D02*
X35306000Y131712000D01*
D24*
X36944000Y130188000D02*
X36944000Y131712000D01*
D23*
X47167000Y130035000D02*
X47244000Y130112000D01*
D25*
X36944000Y131712000D02*
X39116000Y131712000D01*
D23*
%TO.N,GND*%
X33274000Y130683000D02*
X33020000Y130429000D01*
X41592500Y130050500D02*
X41592500Y130492500D01*
X37465000Y133224000D02*
X36576000Y133223000D01*
X41148000Y130683000D02*
X40752736Y130683000D01*
X41656000Y129987000D02*
X41719500Y130050500D01*
X42404000Y140081000D02*
X43091000Y139394000D01*
X41592500Y130492500D02*
X41402000Y130683000D01*
X45720000Y134239000D02*
X46641000Y134239000D01*
X41656000Y129987000D02*
X41592500Y130050500D01*
X40591000Y138425000D02*
X40591000Y139772000D01*
X35591000Y138425000D02*
X35591000Y139772000D01*
X40736000Y130683000D02*
X41402000Y130683000D01*
X41275000Y130683000D02*
X39751686Y130683000D01*
X39230686Y130162000D02*
X39116000Y130162000D01*
X33020000Y129987000D02*
X33020000Y129066000D01*
X38091000Y138425000D02*
X38091000Y139772000D01*
X41275000Y130683000D02*
X41402000Y130683000D01*
X41719500Y130492500D02*
X42164000Y130937000D01*
X31750000Y134620000D02*
X31750000Y133699000D01*
X33020000Y130429000D02*
X33020000Y129987000D01*
X41719500Y130050500D02*
X41719500Y130492500D01*
X45720000Y132860000D02*
X46863000Y133223000D01*
X39751686Y130683000D02*
X39230686Y130162000D01*
X34785000Y130683000D02*
X33274000Y130683000D01*
X41148000Y130683000D02*
X41275000Y130683000D01*
X42164000Y130937000D02*
X42291000Y130937000D01*
X35306000Y130162000D02*
X34785000Y130683000D01*
X43091000Y139394000D02*
X43091000Y138425000D01*
%TO.N,/B-STEP*%
X34290000Y133858000D02*
X33670000Y133238000D01*
X38223500Y136042500D02*
X36982500Y136042500D01*
X33670000Y133238000D02*
X33670000Y131887000D01*
X36385500Y135445500D02*
X36385500Y134683500D01*
X36982500Y136042500D02*
X36385500Y135445500D01*
X39341000Y137160000D02*
X38223500Y136042500D01*
X36385500Y134683500D02*
X35560000Y133858000D01*
X35560000Y133858000D02*
X34290000Y133858000D01*
X39341000Y138425000D02*
X39341000Y137160000D01*
%TO.N,/B-DIR*%
X36841000Y137287000D02*
X35825000Y136271000D01*
X34544000Y134493000D02*
X33528000Y134493000D01*
X35825000Y136271000D02*
X35204500Y136271000D01*
X35204500Y136271000D02*
X35204500Y135153500D01*
X32370000Y133335000D02*
X32370000Y132715000D01*
X32370000Y131887000D02*
X32370000Y132715000D01*
X33528000Y134493000D02*
X32370000Y133335000D01*
X36816000Y138450000D02*
X36841000Y138425000D01*
X36841000Y138425000D02*
X36841000Y137287000D01*
X35204500Y135153500D02*
X34544000Y134493000D01*
%TO.N,Net-(D1-K)*%
X42481000Y134276500D02*
X42443500Y134239000D01*
X42481000Y135890000D02*
X42481000Y134276500D01*
%TO.N,Net-(D2-K)*%
X38963500Y134874000D02*
X38989000Y134848500D01*
X38989000Y133350000D02*
X39115000Y133224000D01*
X38989000Y134848500D02*
X38989000Y133350000D01*
%TO.N,/5VDIAG*%
X43180000Y131953000D02*
X43114000Y131887000D01*
X43751000Y132524000D02*
X43180000Y131953000D01*
X44196000Y132860000D02*
X44087000Y132860000D01*
X42306000Y131887000D02*
X43114000Y131887000D01*
X44196000Y134213500D02*
X44196000Y132860000D01*
X44087000Y132860000D02*
X43180000Y131953000D01*
%TO.N,/B-DIAG*%
X44062000Y128785000D02*
X47480000Y128785000D01*
X48230000Y129535000D02*
X48230000Y130175000D01*
X48006000Y132524000D02*
X47244000Y131762000D01*
X48006000Y133223000D02*
X48006000Y132524000D01*
X45965000Y138425000D02*
X44341000Y138425000D01*
X42860000Y129987000D02*
X44062000Y128785000D01*
X42306000Y129987000D02*
X42860000Y129987000D01*
X48230000Y130776000D02*
X48230000Y130175000D01*
X47480000Y128785000D02*
X48230000Y129535000D01*
X48006000Y136384000D02*
X45965000Y138425000D01*
X48006000Y133223000D02*
X48006000Y136384000D01*
X48006000Y132886000D02*
X48006000Y133223000D01*
X47244000Y131762000D02*
X48230000Y130776000D01*
%TO.N,/B-ENABLE*%
X40386000Y136906000D02*
X40005000Y136525000D01*
X40831000Y135890000D02*
X40005000Y135890000D01*
X40005000Y136525000D02*
X40005000Y135890000D01*
X40005000Y133477000D02*
X41006000Y132476000D01*
X41529000Y136906000D02*
X40386000Y136906000D01*
X41841000Y138425000D02*
X41841000Y137218000D01*
X41841000Y137218000D02*
X41529000Y136906000D01*
X41006000Y132476000D02*
X41006000Y131887000D01*
X40005000Y135890000D02*
X40005000Y133477000D01*
%TO.N,/DIAG*%
X44196000Y131210000D02*
X45720000Y131210000D01*
X38481000Y128270000D02*
X36195000Y128270000D01*
X40005000Y129159000D02*
X39370000Y129159000D01*
X36195000Y128270000D02*
X35880000Y127955000D01*
X43796000Y130810000D02*
X44196000Y131210000D01*
X35880000Y127955000D02*
X35880000Y124785000D01*
X43180000Y130810000D02*
X43796000Y130810000D01*
X39370000Y129159000D02*
X38481000Y128270000D01*
%TO.N,/DIR*%
X31880000Y128527000D02*
X32370000Y129017000D01*
X32370000Y129017000D02*
X32370000Y129987000D01*
X31880000Y124785000D02*
X31880000Y128527000D01*
%TO.N,Net-(D3-K)*%
X33629500Y136271000D02*
X32067000Y136271000D01*
X32067000Y136271000D02*
X32004000Y136334000D01*
%TO.N,/STEP*%
X33880000Y129315000D02*
X33880000Y124785000D01*
X33670000Y129987000D02*
X33670000Y129525000D01*
X33670000Y129525000D02*
X33880000Y129315000D01*
%TO.N,Net-(D4-K)*%
X44296500Y135889000D02*
X44196000Y135788500D01*
X45720000Y135889000D02*
X44296500Y135889000D01*
%TO.N,/\u005CENABLE*%
X41006000Y129779000D02*
X40640000Y129413000D01*
X45720000Y128143000D02*
X45847000Y128016000D01*
X40640000Y129413000D02*
X40640000Y128651000D01*
X45880000Y127983000D02*
X45880000Y124785000D01*
X45847000Y128016000D02*
X45880000Y127983000D01*
X40640000Y128651000D02*
X41148000Y128143000D01*
X41148000Y128143000D02*
X45720000Y128143000D01*
X41006000Y129987000D02*
X41006000Y129779000D01*
%TD*%
M02*
