%TF.GenerationSoftware,KiCad,Pcbnew,(5.1.6)-1*%
%TF.CreationDate,2021-10-10T19:01:51-07:00*%
%TF.ProjectId,PV Panel Monitor,50562050-616e-4656-9c20-4d6f6e69746f,rev?*%
%TF.SameCoordinates,Original*%
%TF.FileFunction,Legend,Top*%
%TF.FilePolarity,Positive*%
%FSLAX46Y46*%
G04 Gerber Fmt 4.6, Leading zero omitted, Abs format (unit mm)*
G04 Created by KiCad (PCBNEW (5.1.6)-1) date 2021-10-10 19:01:51*
%MOMM*%
%LPD*%
G01*
G04 APERTURE LIST*
%ADD10C,0.190500*%
%ADD11C,0.120000*%
%ADD12C,0.150000*%
G04 APERTURE END LIST*
D10*
X62306666Y-98832714D02*
X61822857Y-98832714D01*
X61774476Y-99195571D01*
X61822857Y-99159285D01*
X61919619Y-99123000D01*
X62161523Y-99123000D01*
X62258285Y-99159285D01*
X62306666Y-99195571D01*
X62355047Y-99268142D01*
X62355047Y-99449571D01*
X62306666Y-99522142D01*
X62258285Y-99558428D01*
X62161523Y-99594714D01*
X61919619Y-99594714D01*
X61822857Y-99558428D01*
X61774476Y-99522142D01*
X62645333Y-98832714D02*
X62984000Y-99594714D01*
X63322666Y-98832714D01*
X64435428Y-99594714D02*
X64435428Y-98832714D01*
X64870857Y-99558428D02*
X64967619Y-99594714D01*
X65161142Y-99594714D01*
X65257904Y-99558428D01*
X65306285Y-99485857D01*
X65306285Y-99449571D01*
X65257904Y-99377000D01*
X65161142Y-99340714D01*
X65016000Y-99340714D01*
X64919238Y-99304428D01*
X64870857Y-99231857D01*
X64870857Y-99195571D01*
X64919238Y-99123000D01*
X65016000Y-99086714D01*
X65161142Y-99086714D01*
X65257904Y-99123000D01*
X65886857Y-99594714D02*
X65790095Y-99558428D01*
X65741714Y-99522142D01*
X65693333Y-99449571D01*
X65693333Y-99231857D01*
X65741714Y-99159285D01*
X65790095Y-99123000D01*
X65886857Y-99086714D01*
X66032000Y-99086714D01*
X66128761Y-99123000D01*
X66177142Y-99159285D01*
X66225523Y-99231857D01*
X66225523Y-99449571D01*
X66177142Y-99522142D01*
X66128761Y-99558428D01*
X66032000Y-99594714D01*
X65886857Y-99594714D01*
X79558428Y-60209523D02*
X79594714Y-60064380D01*
X79594714Y-59822476D01*
X79558428Y-59725714D01*
X79522142Y-59677333D01*
X79449571Y-59628952D01*
X79377000Y-59628952D01*
X79304428Y-59677333D01*
X79268142Y-59725714D01*
X79231857Y-59822476D01*
X79195571Y-60016000D01*
X79159285Y-60112761D01*
X79123000Y-60161142D01*
X79050428Y-60209523D01*
X78977857Y-60209523D01*
X78905285Y-60161142D01*
X78869000Y-60112761D01*
X78832714Y-60016000D01*
X78832714Y-59774095D01*
X78869000Y-59628952D01*
X79522142Y-58612952D02*
X79558428Y-58661333D01*
X79594714Y-58806476D01*
X79594714Y-58903238D01*
X79558428Y-59048380D01*
X79485857Y-59145142D01*
X79413285Y-59193523D01*
X79268142Y-59241904D01*
X79159285Y-59241904D01*
X79014142Y-59193523D01*
X78941571Y-59145142D01*
X78869000Y-59048380D01*
X78832714Y-58903238D01*
X78832714Y-58806476D01*
X78869000Y-58661333D01*
X78905285Y-58612952D01*
X79594714Y-57693714D02*
X79594714Y-58177523D01*
X78832714Y-58177523D01*
X76558428Y-60233714D02*
X76594714Y-60088571D01*
X76594714Y-59846666D01*
X76558428Y-59749904D01*
X76522142Y-59701523D01*
X76449571Y-59653142D01*
X76377000Y-59653142D01*
X76304428Y-59701523D01*
X76268142Y-59749904D01*
X76231857Y-59846666D01*
X76195571Y-60040190D01*
X76159285Y-60136952D01*
X76123000Y-60185333D01*
X76050428Y-60233714D01*
X75977857Y-60233714D01*
X75905285Y-60185333D01*
X75869000Y-60136952D01*
X75832714Y-60040190D01*
X75832714Y-59798285D01*
X75869000Y-59653142D01*
X76594714Y-59217714D02*
X75832714Y-59217714D01*
X75832714Y-58975809D01*
X75869000Y-58830666D01*
X75941571Y-58733904D01*
X76014142Y-58685523D01*
X76159285Y-58637142D01*
X76268142Y-58637142D01*
X76413285Y-58685523D01*
X76485857Y-58733904D01*
X76558428Y-58830666D01*
X76594714Y-58975809D01*
X76594714Y-59217714D01*
X76377000Y-58250095D02*
X76377000Y-57766285D01*
X76594714Y-58346857D02*
X75832714Y-58008190D01*
X76594714Y-57669523D01*
X72869000Y-59774095D02*
X72832714Y-59870857D01*
X72832714Y-60016000D01*
X72869000Y-60161142D01*
X72941571Y-60257904D01*
X73014142Y-60306285D01*
X73159285Y-60354666D01*
X73268142Y-60354666D01*
X73413285Y-60306285D01*
X73485857Y-60257904D01*
X73558428Y-60161142D01*
X73594714Y-60016000D01*
X73594714Y-59919238D01*
X73558428Y-59774095D01*
X73522142Y-59725714D01*
X73268142Y-59725714D01*
X73268142Y-59919238D01*
X73594714Y-59290285D02*
X72832714Y-59290285D01*
X73594714Y-58709714D01*
X72832714Y-58709714D01*
X73594714Y-58225904D02*
X72832714Y-58225904D01*
X72832714Y-57984000D01*
X72869000Y-57838857D01*
X72941571Y-57742095D01*
X73014142Y-57693714D01*
X73159285Y-57645333D01*
X73268142Y-57645333D01*
X73413285Y-57693714D01*
X73485857Y-57742095D01*
X73558428Y-57838857D01*
X73594714Y-57984000D01*
X73594714Y-58225904D01*
D11*
%TO.C,TP4*%
X58380000Y-98580000D02*
X58380000Y-97250000D01*
X59710000Y-98580000D02*
X58380000Y-98580000D01*
X60980000Y-98580000D02*
X60980000Y-95920000D01*
X60980000Y-95920000D02*
X63580000Y-95920000D01*
X60980000Y-98580000D02*
X63580000Y-98580000D01*
X63580000Y-98580000D02*
X63580000Y-95920000D01*
%TO.C,TP3*%
X74920000Y-51920000D02*
X76250000Y-51920000D01*
X74920000Y-53250000D02*
X74920000Y-51920000D01*
X74920000Y-54520000D02*
X77580000Y-54520000D01*
X77580000Y-54520000D02*
X77580000Y-57120000D01*
X74920000Y-54520000D02*
X74920000Y-57120000D01*
X74920000Y-57120000D02*
X77580000Y-57120000D01*
%TO.C,TP2*%
X77920000Y-51920000D02*
X79250000Y-51920000D01*
X77920000Y-53250000D02*
X77920000Y-51920000D01*
X77920000Y-54520000D02*
X80580000Y-54520000D01*
X80580000Y-54520000D02*
X80580000Y-57120000D01*
X77920000Y-54520000D02*
X77920000Y-57120000D01*
X77920000Y-57120000D02*
X80580000Y-57120000D01*
%TO.C,TP1*%
X71920000Y-51920000D02*
X73250000Y-51920000D01*
X71920000Y-53250000D02*
X71920000Y-51920000D01*
X71920000Y-54520000D02*
X74580000Y-54520000D01*
X74580000Y-54520000D02*
X74580000Y-57120000D01*
X71920000Y-54520000D02*
X71920000Y-57120000D01*
X71920000Y-57120000D02*
X74580000Y-57120000D01*
%TO.C,J1*%
X56750000Y-57900000D02*
X55500000Y-57900000D01*
X56750000Y-59150000D02*
X56750000Y-57900000D01*
X51250000Y-72550000D02*
X51250000Y-65750000D01*
X54200000Y-72550000D02*
X51250000Y-72550000D01*
X54200000Y-73300000D02*
X54200000Y-72550000D01*
X51250000Y-58950000D02*
X51250000Y-65750000D01*
X54200000Y-58950000D02*
X51250000Y-58950000D01*
X54200000Y-58200000D02*
X54200000Y-58950000D01*
X56450000Y-73300000D02*
X56450000Y-71500000D01*
X55700000Y-73300000D02*
X56450000Y-73300000D01*
X55700000Y-71500000D02*
X55700000Y-73300000D01*
X56450000Y-71500000D02*
X55700000Y-71500000D01*
X56450000Y-60000000D02*
X56450000Y-58200000D01*
X55700000Y-60000000D02*
X56450000Y-60000000D01*
X55700000Y-58200000D02*
X55700000Y-60000000D01*
X56450000Y-58200000D02*
X55700000Y-58200000D01*
X56450000Y-70000000D02*
X56450000Y-61500000D01*
X55700000Y-70000000D02*
X56450000Y-70000000D01*
X55700000Y-61500000D02*
X55700000Y-70000000D01*
X56450000Y-61500000D02*
X55700000Y-61500000D01*
X56460000Y-73310000D02*
X56460000Y-58190000D01*
X50490000Y-73310000D02*
X56460000Y-73310000D01*
X50490000Y-58190000D02*
X50490000Y-73310000D01*
X56460000Y-58190000D02*
X50490000Y-58190000D01*
%TO.C,C22*%
X57564759Y-66346000D02*
X57564759Y-66976000D01*
X57249759Y-66661000D02*
X57879759Y-66661000D01*
X63991000Y-68098000D02*
X63991000Y-68902000D01*
X63951000Y-67867000D02*
X63951000Y-69133000D01*
X63911000Y-67698000D02*
X63911000Y-69302000D01*
X63871000Y-67560000D02*
X63871000Y-69440000D01*
X63831000Y-67441000D02*
X63831000Y-69559000D01*
X63791000Y-67335000D02*
X63791000Y-69665000D01*
X63751000Y-67238000D02*
X63751000Y-69762000D01*
X63711000Y-67150000D02*
X63711000Y-69850000D01*
X63671000Y-67068000D02*
X63671000Y-69932000D01*
X63631000Y-66991000D02*
X63631000Y-70009000D01*
X63591000Y-66919000D02*
X63591000Y-70081000D01*
X63551000Y-66850000D02*
X63551000Y-70150000D01*
X63511000Y-66786000D02*
X63511000Y-70214000D01*
X63471000Y-66724000D02*
X63471000Y-70276000D01*
X63431000Y-66666000D02*
X63431000Y-70334000D01*
X63391000Y-66610000D02*
X63391000Y-70390000D01*
X63351000Y-66556000D02*
X63351000Y-70444000D01*
X63311000Y-66505000D02*
X63311000Y-70495000D01*
X63271000Y-66456000D02*
X63271000Y-70544000D01*
X63231000Y-66408000D02*
X63231000Y-70592000D01*
X63191000Y-66363000D02*
X63191000Y-70637000D01*
X63151000Y-66318000D02*
X63151000Y-70682000D01*
X63111000Y-66276000D02*
X63111000Y-70724000D01*
X63071000Y-66235000D02*
X63071000Y-70765000D01*
X63031000Y-69540000D02*
X63031000Y-70805000D01*
X63031000Y-66195000D02*
X63031000Y-67460000D01*
X62991000Y-69540000D02*
X62991000Y-70843000D01*
X62991000Y-66157000D02*
X62991000Y-67460000D01*
X62951000Y-69540000D02*
X62951000Y-70880000D01*
X62951000Y-66120000D02*
X62951000Y-67460000D01*
X62911000Y-69540000D02*
X62911000Y-70916000D01*
X62911000Y-66084000D02*
X62911000Y-67460000D01*
X62871000Y-69540000D02*
X62871000Y-70950000D01*
X62871000Y-66050000D02*
X62871000Y-67460000D01*
X62831000Y-69540000D02*
X62831000Y-70984000D01*
X62831000Y-66016000D02*
X62831000Y-67460000D01*
X62791000Y-69540000D02*
X62791000Y-71016000D01*
X62791000Y-65984000D02*
X62791000Y-67460000D01*
X62751000Y-69540000D02*
X62751000Y-71048000D01*
X62751000Y-65952000D02*
X62751000Y-67460000D01*
X62711000Y-69540000D02*
X62711000Y-71078000D01*
X62711000Y-65922000D02*
X62711000Y-67460000D01*
X62671000Y-69540000D02*
X62671000Y-71107000D01*
X62671000Y-65893000D02*
X62671000Y-67460000D01*
X62631000Y-69540000D02*
X62631000Y-71136000D01*
X62631000Y-65864000D02*
X62631000Y-67460000D01*
X62591000Y-69540000D02*
X62591000Y-71164000D01*
X62591000Y-65836000D02*
X62591000Y-67460000D01*
X62551000Y-69540000D02*
X62551000Y-71190000D01*
X62551000Y-65810000D02*
X62551000Y-67460000D01*
X62511000Y-69540000D02*
X62511000Y-71216000D01*
X62511000Y-65784000D02*
X62511000Y-67460000D01*
X62471000Y-69540000D02*
X62471000Y-71242000D01*
X62471000Y-65758000D02*
X62471000Y-67460000D01*
X62431000Y-69540000D02*
X62431000Y-71266000D01*
X62431000Y-65734000D02*
X62431000Y-67460000D01*
X62391000Y-69540000D02*
X62391000Y-71290000D01*
X62391000Y-65710000D02*
X62391000Y-67460000D01*
X62351000Y-69540000D02*
X62351000Y-71312000D01*
X62351000Y-65688000D02*
X62351000Y-67460000D01*
X62311000Y-69540000D02*
X62311000Y-71334000D01*
X62311000Y-65666000D02*
X62311000Y-67460000D01*
X62271000Y-69540000D02*
X62271000Y-71356000D01*
X62271000Y-65644000D02*
X62271000Y-67460000D01*
X62231000Y-69540000D02*
X62231000Y-71376000D01*
X62231000Y-65624000D02*
X62231000Y-67460000D01*
X62191000Y-69540000D02*
X62191000Y-71396000D01*
X62191000Y-65604000D02*
X62191000Y-67460000D01*
X62151000Y-69540000D02*
X62151000Y-71416000D01*
X62151000Y-65584000D02*
X62151000Y-67460000D01*
X62111000Y-69540000D02*
X62111000Y-71434000D01*
X62111000Y-65566000D02*
X62111000Y-67460000D01*
X62071000Y-69540000D02*
X62071000Y-71452000D01*
X62071000Y-65548000D02*
X62071000Y-67460000D01*
X62031000Y-69540000D02*
X62031000Y-71470000D01*
X62031000Y-65530000D02*
X62031000Y-67460000D01*
X61991000Y-69540000D02*
X61991000Y-71486000D01*
X61991000Y-65514000D02*
X61991000Y-67460000D01*
X61951000Y-69540000D02*
X61951000Y-71502000D01*
X61951000Y-65498000D02*
X61951000Y-67460000D01*
X61911000Y-69540000D02*
X61911000Y-71518000D01*
X61911000Y-65482000D02*
X61911000Y-67460000D01*
X61871000Y-69540000D02*
X61871000Y-71533000D01*
X61871000Y-65467000D02*
X61871000Y-67460000D01*
X61831000Y-69540000D02*
X61831000Y-71547000D01*
X61831000Y-65453000D02*
X61831000Y-67460000D01*
X61791000Y-69540000D02*
X61791000Y-71561000D01*
X61791000Y-65439000D02*
X61791000Y-67460000D01*
X61751000Y-69540000D02*
X61751000Y-71574000D01*
X61751000Y-65426000D02*
X61751000Y-67460000D01*
X61711000Y-69540000D02*
X61711000Y-71586000D01*
X61711000Y-65414000D02*
X61711000Y-67460000D01*
X61671000Y-69540000D02*
X61671000Y-71598000D01*
X61671000Y-65402000D02*
X61671000Y-67460000D01*
X61631000Y-69540000D02*
X61631000Y-71610000D01*
X61631000Y-65390000D02*
X61631000Y-67460000D01*
X61591000Y-69540000D02*
X61591000Y-71621000D01*
X61591000Y-65379000D02*
X61591000Y-67460000D01*
X61551000Y-69540000D02*
X61551000Y-71631000D01*
X61551000Y-65369000D02*
X61551000Y-67460000D01*
X61511000Y-69540000D02*
X61511000Y-71641000D01*
X61511000Y-65359000D02*
X61511000Y-67460000D01*
X61471000Y-69540000D02*
X61471000Y-71650000D01*
X61471000Y-65350000D02*
X61471000Y-67460000D01*
X61430000Y-69540000D02*
X61430000Y-71659000D01*
X61430000Y-65341000D02*
X61430000Y-67460000D01*
X61390000Y-69540000D02*
X61390000Y-71667000D01*
X61390000Y-65333000D02*
X61390000Y-67460000D01*
X61350000Y-69540000D02*
X61350000Y-71675000D01*
X61350000Y-65325000D02*
X61350000Y-67460000D01*
X61310000Y-69540000D02*
X61310000Y-71682000D01*
X61310000Y-65318000D02*
X61310000Y-67460000D01*
X61270000Y-69540000D02*
X61270000Y-71689000D01*
X61270000Y-65311000D02*
X61270000Y-67460000D01*
X61230000Y-69540000D02*
X61230000Y-71695000D01*
X61230000Y-65305000D02*
X61230000Y-67460000D01*
X61190000Y-69540000D02*
X61190000Y-71701000D01*
X61190000Y-65299000D02*
X61190000Y-67460000D01*
X61150000Y-69540000D02*
X61150000Y-71706000D01*
X61150000Y-65294000D02*
X61150000Y-67460000D01*
X61110000Y-69540000D02*
X61110000Y-71711000D01*
X61110000Y-65289000D02*
X61110000Y-67460000D01*
X61070000Y-69540000D02*
X61070000Y-71715000D01*
X61070000Y-65285000D02*
X61070000Y-67460000D01*
X61030000Y-69540000D02*
X61030000Y-71718000D01*
X61030000Y-65282000D02*
X61030000Y-67460000D01*
X60990000Y-69540000D02*
X60990000Y-71722000D01*
X60990000Y-65278000D02*
X60990000Y-67460000D01*
X60950000Y-65276000D02*
X60950000Y-71724000D01*
X60910000Y-65273000D02*
X60910000Y-71727000D01*
X60870000Y-65272000D02*
X60870000Y-71728000D01*
X60830000Y-65270000D02*
X60830000Y-71730000D01*
X60790000Y-65270000D02*
X60790000Y-71730000D01*
X60750000Y-65270000D02*
X60750000Y-71730000D01*
X64020000Y-68500000D02*
G75*
G03*
X64020000Y-68500000I-3270000J0D01*
G01*
%TO.C,C19*%
X53260000Y-77859420D02*
X53260000Y-78140580D01*
X52240000Y-77859420D02*
X52240000Y-78140580D01*
D12*
%TO.C,U4*%
X72325000Y-81550000D02*
X71100000Y-81550000D01*
X72325000Y-84675000D02*
X75675000Y-84675000D01*
X72325000Y-81325000D02*
X75675000Y-81325000D01*
X72325000Y-84675000D02*
X72325000Y-84375000D01*
X75675000Y-84675000D02*
X75675000Y-84375000D01*
X75675000Y-81325000D02*
X75675000Y-81625000D01*
X72325000Y-81325000D02*
X72325000Y-81550000D01*
%TO.C,U3*%
X72325000Y-75550000D02*
X71100000Y-75550000D01*
X72325000Y-78675000D02*
X75675000Y-78675000D01*
X72325000Y-75325000D02*
X75675000Y-75325000D01*
X72325000Y-78675000D02*
X72325000Y-78375000D01*
X75675000Y-78675000D02*
X75675000Y-78375000D01*
X75675000Y-75325000D02*
X75675000Y-75625000D01*
X72325000Y-75325000D02*
X72325000Y-75550000D01*
%TO.C,U1*%
X72325000Y-61550000D02*
X71100000Y-61550000D01*
X72325000Y-64675000D02*
X75675000Y-64675000D01*
X72325000Y-61325000D02*
X75675000Y-61325000D01*
X72325000Y-64675000D02*
X72325000Y-64375000D01*
X75675000Y-64675000D02*
X75675000Y-64375000D01*
X75675000Y-61325000D02*
X75675000Y-61625000D01*
X72325000Y-61325000D02*
X72325000Y-61550000D01*
D11*
%TO.C,R20*%
X68727500Y-60512742D02*
X68727500Y-60987258D01*
X69772500Y-60512742D02*
X69772500Y-60987258D01*
%TO.C,R19*%
X66727500Y-63512742D02*
X66727500Y-63987258D01*
X67772500Y-63512742D02*
X67772500Y-63987258D01*
D12*
%TO.C,U2*%
X72325000Y-67325000D02*
X72325000Y-67550000D01*
X75675000Y-67325000D02*
X75675000Y-67625000D01*
X75675000Y-70675000D02*
X75675000Y-70375000D01*
X72325000Y-70675000D02*
X72325000Y-70375000D01*
X72325000Y-67325000D02*
X75675000Y-67325000D01*
X72325000Y-70675000D02*
X75675000Y-70675000D01*
X72325000Y-67550000D02*
X71100000Y-67550000D01*
D11*
%TO.C,C21*%
X56711252Y-84410000D02*
X55288748Y-84410000D01*
X56711252Y-82590000D02*
X55288748Y-82590000D01*
%TO.C,C20*%
X61038748Y-82590000D02*
X62461252Y-82590000D01*
X61038748Y-84410000D02*
X62461252Y-84410000D01*
%TO.C,C15*%
X64020000Y-60750000D02*
G75*
G03*
X64020000Y-60750000I-3270000J0D01*
G01*
X60750000Y-57520000D02*
X60750000Y-63980000D01*
X60790000Y-57520000D02*
X60790000Y-63980000D01*
X60830000Y-57520000D02*
X60830000Y-63980000D01*
X60870000Y-57522000D02*
X60870000Y-63978000D01*
X60910000Y-57523000D02*
X60910000Y-63977000D01*
X60950000Y-57526000D02*
X60950000Y-63974000D01*
X60990000Y-57528000D02*
X60990000Y-59710000D01*
X60990000Y-61790000D02*
X60990000Y-63972000D01*
X61030000Y-57532000D02*
X61030000Y-59710000D01*
X61030000Y-61790000D02*
X61030000Y-63968000D01*
X61070000Y-57535000D02*
X61070000Y-59710000D01*
X61070000Y-61790000D02*
X61070000Y-63965000D01*
X61110000Y-57539000D02*
X61110000Y-59710000D01*
X61110000Y-61790000D02*
X61110000Y-63961000D01*
X61150000Y-57544000D02*
X61150000Y-59710000D01*
X61150000Y-61790000D02*
X61150000Y-63956000D01*
X61190000Y-57549000D02*
X61190000Y-59710000D01*
X61190000Y-61790000D02*
X61190000Y-63951000D01*
X61230000Y-57555000D02*
X61230000Y-59710000D01*
X61230000Y-61790000D02*
X61230000Y-63945000D01*
X61270000Y-57561000D02*
X61270000Y-59710000D01*
X61270000Y-61790000D02*
X61270000Y-63939000D01*
X61310000Y-57568000D02*
X61310000Y-59710000D01*
X61310000Y-61790000D02*
X61310000Y-63932000D01*
X61350000Y-57575000D02*
X61350000Y-59710000D01*
X61350000Y-61790000D02*
X61350000Y-63925000D01*
X61390000Y-57583000D02*
X61390000Y-59710000D01*
X61390000Y-61790000D02*
X61390000Y-63917000D01*
X61430000Y-57591000D02*
X61430000Y-59710000D01*
X61430000Y-61790000D02*
X61430000Y-63909000D01*
X61471000Y-57600000D02*
X61471000Y-59710000D01*
X61471000Y-61790000D02*
X61471000Y-63900000D01*
X61511000Y-57609000D02*
X61511000Y-59710000D01*
X61511000Y-61790000D02*
X61511000Y-63891000D01*
X61551000Y-57619000D02*
X61551000Y-59710000D01*
X61551000Y-61790000D02*
X61551000Y-63881000D01*
X61591000Y-57629000D02*
X61591000Y-59710000D01*
X61591000Y-61790000D02*
X61591000Y-63871000D01*
X61631000Y-57640000D02*
X61631000Y-59710000D01*
X61631000Y-61790000D02*
X61631000Y-63860000D01*
X61671000Y-57652000D02*
X61671000Y-59710000D01*
X61671000Y-61790000D02*
X61671000Y-63848000D01*
X61711000Y-57664000D02*
X61711000Y-59710000D01*
X61711000Y-61790000D02*
X61711000Y-63836000D01*
X61751000Y-57676000D02*
X61751000Y-59710000D01*
X61751000Y-61790000D02*
X61751000Y-63824000D01*
X61791000Y-57689000D02*
X61791000Y-59710000D01*
X61791000Y-61790000D02*
X61791000Y-63811000D01*
X61831000Y-57703000D02*
X61831000Y-59710000D01*
X61831000Y-61790000D02*
X61831000Y-63797000D01*
X61871000Y-57717000D02*
X61871000Y-59710000D01*
X61871000Y-61790000D02*
X61871000Y-63783000D01*
X61911000Y-57732000D02*
X61911000Y-59710000D01*
X61911000Y-61790000D02*
X61911000Y-63768000D01*
X61951000Y-57748000D02*
X61951000Y-59710000D01*
X61951000Y-61790000D02*
X61951000Y-63752000D01*
X61991000Y-57764000D02*
X61991000Y-59710000D01*
X61991000Y-61790000D02*
X61991000Y-63736000D01*
X62031000Y-57780000D02*
X62031000Y-59710000D01*
X62031000Y-61790000D02*
X62031000Y-63720000D01*
X62071000Y-57798000D02*
X62071000Y-59710000D01*
X62071000Y-61790000D02*
X62071000Y-63702000D01*
X62111000Y-57816000D02*
X62111000Y-59710000D01*
X62111000Y-61790000D02*
X62111000Y-63684000D01*
X62151000Y-57834000D02*
X62151000Y-59710000D01*
X62151000Y-61790000D02*
X62151000Y-63666000D01*
X62191000Y-57854000D02*
X62191000Y-59710000D01*
X62191000Y-61790000D02*
X62191000Y-63646000D01*
X62231000Y-57874000D02*
X62231000Y-59710000D01*
X62231000Y-61790000D02*
X62231000Y-63626000D01*
X62271000Y-57894000D02*
X62271000Y-59710000D01*
X62271000Y-61790000D02*
X62271000Y-63606000D01*
X62311000Y-57916000D02*
X62311000Y-59710000D01*
X62311000Y-61790000D02*
X62311000Y-63584000D01*
X62351000Y-57938000D02*
X62351000Y-59710000D01*
X62351000Y-61790000D02*
X62351000Y-63562000D01*
X62391000Y-57960000D02*
X62391000Y-59710000D01*
X62391000Y-61790000D02*
X62391000Y-63540000D01*
X62431000Y-57984000D02*
X62431000Y-59710000D01*
X62431000Y-61790000D02*
X62431000Y-63516000D01*
X62471000Y-58008000D02*
X62471000Y-59710000D01*
X62471000Y-61790000D02*
X62471000Y-63492000D01*
X62511000Y-58034000D02*
X62511000Y-59710000D01*
X62511000Y-61790000D02*
X62511000Y-63466000D01*
X62551000Y-58060000D02*
X62551000Y-59710000D01*
X62551000Y-61790000D02*
X62551000Y-63440000D01*
X62591000Y-58086000D02*
X62591000Y-59710000D01*
X62591000Y-61790000D02*
X62591000Y-63414000D01*
X62631000Y-58114000D02*
X62631000Y-59710000D01*
X62631000Y-61790000D02*
X62631000Y-63386000D01*
X62671000Y-58143000D02*
X62671000Y-59710000D01*
X62671000Y-61790000D02*
X62671000Y-63357000D01*
X62711000Y-58172000D02*
X62711000Y-59710000D01*
X62711000Y-61790000D02*
X62711000Y-63328000D01*
X62751000Y-58202000D02*
X62751000Y-59710000D01*
X62751000Y-61790000D02*
X62751000Y-63298000D01*
X62791000Y-58234000D02*
X62791000Y-59710000D01*
X62791000Y-61790000D02*
X62791000Y-63266000D01*
X62831000Y-58266000D02*
X62831000Y-59710000D01*
X62831000Y-61790000D02*
X62831000Y-63234000D01*
X62871000Y-58300000D02*
X62871000Y-59710000D01*
X62871000Y-61790000D02*
X62871000Y-63200000D01*
X62911000Y-58334000D02*
X62911000Y-59710000D01*
X62911000Y-61790000D02*
X62911000Y-63166000D01*
X62951000Y-58370000D02*
X62951000Y-59710000D01*
X62951000Y-61790000D02*
X62951000Y-63130000D01*
X62991000Y-58407000D02*
X62991000Y-59710000D01*
X62991000Y-61790000D02*
X62991000Y-63093000D01*
X63031000Y-58445000D02*
X63031000Y-59710000D01*
X63031000Y-61790000D02*
X63031000Y-63055000D01*
X63071000Y-58485000D02*
X63071000Y-63015000D01*
X63111000Y-58526000D02*
X63111000Y-62974000D01*
X63151000Y-58568000D02*
X63151000Y-62932000D01*
X63191000Y-58613000D02*
X63191000Y-62887000D01*
X63231000Y-58658000D02*
X63231000Y-62842000D01*
X63271000Y-58706000D02*
X63271000Y-62794000D01*
X63311000Y-58755000D02*
X63311000Y-62745000D01*
X63351000Y-58806000D02*
X63351000Y-62694000D01*
X63391000Y-58860000D02*
X63391000Y-62640000D01*
X63431000Y-58916000D02*
X63431000Y-62584000D01*
X63471000Y-58974000D02*
X63471000Y-62526000D01*
X63511000Y-59036000D02*
X63511000Y-62464000D01*
X63551000Y-59100000D02*
X63551000Y-62400000D01*
X63591000Y-59169000D02*
X63591000Y-62331000D01*
X63631000Y-59241000D02*
X63631000Y-62259000D01*
X63671000Y-59318000D02*
X63671000Y-62182000D01*
X63711000Y-59400000D02*
X63711000Y-62100000D01*
X63751000Y-59488000D02*
X63751000Y-62012000D01*
X63791000Y-59585000D02*
X63791000Y-61915000D01*
X63831000Y-59691000D02*
X63831000Y-61809000D01*
X63871000Y-59810000D02*
X63871000Y-61690000D01*
X63911000Y-59948000D02*
X63911000Y-61552000D01*
X63951000Y-60117000D02*
X63951000Y-61383000D01*
X63991000Y-60348000D02*
X63991000Y-61152000D01*
X57249759Y-58911000D02*
X57879759Y-58911000D01*
X57564759Y-58596000D02*
X57564759Y-59226000D01*
%TO.C,U5*%
X70235000Y-93000000D02*
X70235000Y-90800000D01*
X70235000Y-93000000D02*
X70235000Y-95200000D01*
X64765000Y-93000000D02*
X64765000Y-90800000D01*
X64765000Y-93000000D02*
X64765000Y-96600000D01*
%TO.C,U6*%
X59000000Y-81710000D02*
X61760000Y-81710000D01*
X61760000Y-81710000D02*
X61760000Y-81435000D01*
X59000000Y-81710000D02*
X56240000Y-81710000D01*
X56240000Y-81710000D02*
X56240000Y-81435000D01*
X59000000Y-74290000D02*
X61760000Y-74290000D01*
X61760000Y-74290000D02*
X61760000Y-74565000D01*
X59000000Y-74290000D02*
X56240000Y-74290000D01*
X56240000Y-74290000D02*
X56240000Y-74565000D01*
X56240000Y-74565000D02*
X54550000Y-74565000D01*
%TO.C,R18*%
X66762742Y-79727500D02*
X67237258Y-79727500D01*
X66762742Y-80772500D02*
X67237258Y-80772500D01*
%TO.C,R17*%
X67237258Y-78772500D02*
X66762742Y-78772500D01*
X67237258Y-77727500D02*
X66762742Y-77727500D01*
%TO.C,C18*%
X65260000Y-77634420D02*
X65260000Y-77915580D01*
X64240000Y-77634420D02*
X64240000Y-77915580D01*
%TO.C,C17*%
X65010000Y-81109420D02*
X65010000Y-81390580D01*
X63990000Y-81109420D02*
X63990000Y-81390580D01*
%TO.C,C16*%
X53260000Y-80859420D02*
X53260000Y-81140580D01*
X52240000Y-80859420D02*
X52240000Y-81140580D01*
%TO.C,R16*%
X76522500Y-90762742D02*
X76522500Y-91237258D01*
X75477500Y-90762742D02*
X75477500Y-91237258D01*
%TO.C,R15*%
X73522500Y-90762742D02*
X73522500Y-91237258D01*
X72477500Y-90762742D02*
X72477500Y-91237258D01*
%TO.C,R14*%
X72477500Y-95237258D02*
X72477500Y-94762742D01*
X73522500Y-95237258D02*
X73522500Y-94762742D01*
%TO.C,R13*%
X75477500Y-95237258D02*
X75477500Y-94762742D01*
X76522500Y-95237258D02*
X76522500Y-94762742D01*
%TO.C,R12*%
X81737258Y-93022500D02*
X81262742Y-93022500D01*
X81737258Y-91977500D02*
X81262742Y-91977500D01*
%TO.C,R11*%
X81737258Y-95022500D02*
X81262742Y-95022500D01*
X81737258Y-93977500D02*
X81262742Y-93977500D01*
%TO.C,R10*%
X81737258Y-97022500D02*
X81262742Y-97022500D01*
X81737258Y-95977500D02*
X81262742Y-95977500D01*
%TO.C,R9*%
X81737258Y-99022500D02*
X81262742Y-99022500D01*
X81737258Y-97977500D02*
X81262742Y-97977500D01*
%TO.C,R8*%
X85237258Y-93022500D02*
X84762742Y-93022500D01*
X85237258Y-91977500D02*
X84762742Y-91977500D01*
%TO.C,R7*%
X85237258Y-95022500D02*
X84762742Y-95022500D01*
X85237258Y-93977500D02*
X84762742Y-93977500D01*
%TO.C,R6*%
X85237258Y-97022500D02*
X84762742Y-97022500D01*
X85237258Y-95977500D02*
X84762742Y-95977500D01*
%TO.C,R5*%
X85237258Y-99022500D02*
X84762742Y-99022500D01*
X85237258Y-97977500D02*
X84762742Y-97977500D01*
%TO.C,C14*%
X78010000Y-90859420D02*
X78010000Y-91140580D01*
X76990000Y-90859420D02*
X76990000Y-91140580D01*
%TO.C,C13*%
X75010000Y-90859420D02*
X75010000Y-91140580D01*
X73990000Y-90859420D02*
X73990000Y-91140580D01*
%TO.C,C12*%
X73990000Y-95140580D02*
X73990000Y-94859420D01*
X75010000Y-95140580D02*
X75010000Y-94859420D01*
%TO.C,C11*%
X76990000Y-95140580D02*
X76990000Y-94859420D01*
X78010000Y-95140580D02*
X78010000Y-94859420D01*
%TO.C,C10*%
X72010000Y-90859420D02*
X72010000Y-91140580D01*
X70990000Y-90859420D02*
X70990000Y-91140580D01*
%TO.C,C9*%
X70990000Y-95140580D02*
X70990000Y-94859420D01*
X72010000Y-95140580D02*
X72010000Y-94859420D01*
%TO.C,C8*%
X66240000Y-86390580D02*
X66240000Y-86109420D01*
X67260000Y-86390580D02*
X67260000Y-86109420D01*
%TO.C,C7*%
X69109420Y-86740000D02*
X69390580Y-86740000D01*
X69109420Y-87760000D02*
X69390580Y-87760000D01*
%TO.C,C6*%
X64020000Y-92250000D02*
G75*
G03*
X64020000Y-92250000I-3270000J0D01*
G01*
X60750000Y-89020000D02*
X60750000Y-95480000D01*
X60790000Y-89020000D02*
X60790000Y-95480000D01*
X60830000Y-89020000D02*
X60830000Y-95480000D01*
X60870000Y-89022000D02*
X60870000Y-95478000D01*
X60910000Y-89023000D02*
X60910000Y-95477000D01*
X60950000Y-89026000D02*
X60950000Y-95474000D01*
X60990000Y-89028000D02*
X60990000Y-91210000D01*
X60990000Y-93290000D02*
X60990000Y-95472000D01*
X61030000Y-89032000D02*
X61030000Y-91210000D01*
X61030000Y-93290000D02*
X61030000Y-95468000D01*
X61070000Y-89035000D02*
X61070000Y-91210000D01*
X61070000Y-93290000D02*
X61070000Y-95465000D01*
X61110000Y-89039000D02*
X61110000Y-91210000D01*
X61110000Y-93290000D02*
X61110000Y-95461000D01*
X61150000Y-89044000D02*
X61150000Y-91210000D01*
X61150000Y-93290000D02*
X61150000Y-95456000D01*
X61190000Y-89049000D02*
X61190000Y-91210000D01*
X61190000Y-93290000D02*
X61190000Y-95451000D01*
X61230000Y-89055000D02*
X61230000Y-91210000D01*
X61230000Y-93290000D02*
X61230000Y-95445000D01*
X61270000Y-89061000D02*
X61270000Y-91210000D01*
X61270000Y-93290000D02*
X61270000Y-95439000D01*
X61310000Y-89068000D02*
X61310000Y-91210000D01*
X61310000Y-93290000D02*
X61310000Y-95432000D01*
X61350000Y-89075000D02*
X61350000Y-91210000D01*
X61350000Y-93290000D02*
X61350000Y-95425000D01*
X61390000Y-89083000D02*
X61390000Y-91210000D01*
X61390000Y-93290000D02*
X61390000Y-95417000D01*
X61430000Y-89091000D02*
X61430000Y-91210000D01*
X61430000Y-93290000D02*
X61430000Y-95409000D01*
X61471000Y-89100000D02*
X61471000Y-91210000D01*
X61471000Y-93290000D02*
X61471000Y-95400000D01*
X61511000Y-89109000D02*
X61511000Y-91210000D01*
X61511000Y-93290000D02*
X61511000Y-95391000D01*
X61551000Y-89119000D02*
X61551000Y-91210000D01*
X61551000Y-93290000D02*
X61551000Y-95381000D01*
X61591000Y-89129000D02*
X61591000Y-91210000D01*
X61591000Y-93290000D02*
X61591000Y-95371000D01*
X61631000Y-89140000D02*
X61631000Y-91210000D01*
X61631000Y-93290000D02*
X61631000Y-95360000D01*
X61671000Y-89152000D02*
X61671000Y-91210000D01*
X61671000Y-93290000D02*
X61671000Y-95348000D01*
X61711000Y-89164000D02*
X61711000Y-91210000D01*
X61711000Y-93290000D02*
X61711000Y-95336000D01*
X61751000Y-89176000D02*
X61751000Y-91210000D01*
X61751000Y-93290000D02*
X61751000Y-95324000D01*
X61791000Y-89189000D02*
X61791000Y-91210000D01*
X61791000Y-93290000D02*
X61791000Y-95311000D01*
X61831000Y-89203000D02*
X61831000Y-91210000D01*
X61831000Y-93290000D02*
X61831000Y-95297000D01*
X61871000Y-89217000D02*
X61871000Y-91210000D01*
X61871000Y-93290000D02*
X61871000Y-95283000D01*
X61911000Y-89232000D02*
X61911000Y-91210000D01*
X61911000Y-93290000D02*
X61911000Y-95268000D01*
X61951000Y-89248000D02*
X61951000Y-91210000D01*
X61951000Y-93290000D02*
X61951000Y-95252000D01*
X61991000Y-89264000D02*
X61991000Y-91210000D01*
X61991000Y-93290000D02*
X61991000Y-95236000D01*
X62031000Y-89280000D02*
X62031000Y-91210000D01*
X62031000Y-93290000D02*
X62031000Y-95220000D01*
X62071000Y-89298000D02*
X62071000Y-91210000D01*
X62071000Y-93290000D02*
X62071000Y-95202000D01*
X62111000Y-89316000D02*
X62111000Y-91210000D01*
X62111000Y-93290000D02*
X62111000Y-95184000D01*
X62151000Y-89334000D02*
X62151000Y-91210000D01*
X62151000Y-93290000D02*
X62151000Y-95166000D01*
X62191000Y-89354000D02*
X62191000Y-91210000D01*
X62191000Y-93290000D02*
X62191000Y-95146000D01*
X62231000Y-89374000D02*
X62231000Y-91210000D01*
X62231000Y-93290000D02*
X62231000Y-95126000D01*
X62271000Y-89394000D02*
X62271000Y-91210000D01*
X62271000Y-93290000D02*
X62271000Y-95106000D01*
X62311000Y-89416000D02*
X62311000Y-91210000D01*
X62311000Y-93290000D02*
X62311000Y-95084000D01*
X62351000Y-89438000D02*
X62351000Y-91210000D01*
X62351000Y-93290000D02*
X62351000Y-95062000D01*
X62391000Y-89460000D02*
X62391000Y-91210000D01*
X62391000Y-93290000D02*
X62391000Y-95040000D01*
X62431000Y-89484000D02*
X62431000Y-91210000D01*
X62431000Y-93290000D02*
X62431000Y-95016000D01*
X62471000Y-89508000D02*
X62471000Y-91210000D01*
X62471000Y-93290000D02*
X62471000Y-94992000D01*
X62511000Y-89534000D02*
X62511000Y-91210000D01*
X62511000Y-93290000D02*
X62511000Y-94966000D01*
X62551000Y-89560000D02*
X62551000Y-91210000D01*
X62551000Y-93290000D02*
X62551000Y-94940000D01*
X62591000Y-89586000D02*
X62591000Y-91210000D01*
X62591000Y-93290000D02*
X62591000Y-94914000D01*
X62631000Y-89614000D02*
X62631000Y-91210000D01*
X62631000Y-93290000D02*
X62631000Y-94886000D01*
X62671000Y-89643000D02*
X62671000Y-91210000D01*
X62671000Y-93290000D02*
X62671000Y-94857000D01*
X62711000Y-89672000D02*
X62711000Y-91210000D01*
X62711000Y-93290000D02*
X62711000Y-94828000D01*
X62751000Y-89702000D02*
X62751000Y-91210000D01*
X62751000Y-93290000D02*
X62751000Y-94798000D01*
X62791000Y-89734000D02*
X62791000Y-91210000D01*
X62791000Y-93290000D02*
X62791000Y-94766000D01*
X62831000Y-89766000D02*
X62831000Y-91210000D01*
X62831000Y-93290000D02*
X62831000Y-94734000D01*
X62871000Y-89800000D02*
X62871000Y-91210000D01*
X62871000Y-93290000D02*
X62871000Y-94700000D01*
X62911000Y-89834000D02*
X62911000Y-91210000D01*
X62911000Y-93290000D02*
X62911000Y-94666000D01*
X62951000Y-89870000D02*
X62951000Y-91210000D01*
X62951000Y-93290000D02*
X62951000Y-94630000D01*
X62991000Y-89907000D02*
X62991000Y-91210000D01*
X62991000Y-93290000D02*
X62991000Y-94593000D01*
X63031000Y-89945000D02*
X63031000Y-91210000D01*
X63031000Y-93290000D02*
X63031000Y-94555000D01*
X63071000Y-89985000D02*
X63071000Y-94515000D01*
X63111000Y-90026000D02*
X63111000Y-94474000D01*
X63151000Y-90068000D02*
X63151000Y-94432000D01*
X63191000Y-90113000D02*
X63191000Y-94387000D01*
X63231000Y-90158000D02*
X63231000Y-94342000D01*
X63271000Y-90206000D02*
X63271000Y-94294000D01*
X63311000Y-90255000D02*
X63311000Y-94245000D01*
X63351000Y-90306000D02*
X63351000Y-94194000D01*
X63391000Y-90360000D02*
X63391000Y-94140000D01*
X63431000Y-90416000D02*
X63431000Y-94084000D01*
X63471000Y-90474000D02*
X63471000Y-94026000D01*
X63511000Y-90536000D02*
X63511000Y-93964000D01*
X63551000Y-90600000D02*
X63551000Y-93900000D01*
X63591000Y-90669000D02*
X63591000Y-93831000D01*
X63631000Y-90741000D02*
X63631000Y-93759000D01*
X63671000Y-90818000D02*
X63671000Y-93682000D01*
X63711000Y-90900000D02*
X63711000Y-93600000D01*
X63751000Y-90988000D02*
X63751000Y-93512000D01*
X63791000Y-91085000D02*
X63791000Y-93415000D01*
X63831000Y-91191000D02*
X63831000Y-93309000D01*
X63871000Y-91310000D02*
X63871000Y-93190000D01*
X63911000Y-91448000D02*
X63911000Y-93052000D01*
X63951000Y-91617000D02*
X63951000Y-92883000D01*
X63991000Y-91848000D02*
X63991000Y-92652000D01*
X57249759Y-90411000D02*
X57879759Y-90411000D01*
X57564759Y-90096000D02*
X57564759Y-90726000D01*
%TO.C,C5*%
X71520000Y-54000000D02*
G75*
G03*
X71520000Y-54000000I-3270000J0D01*
G01*
X68250000Y-50770000D02*
X68250000Y-57230000D01*
X68290000Y-50770000D02*
X68290000Y-57230000D01*
X68330000Y-50770000D02*
X68330000Y-57230000D01*
X68370000Y-50772000D02*
X68370000Y-57228000D01*
X68410000Y-50773000D02*
X68410000Y-57227000D01*
X68450000Y-50776000D02*
X68450000Y-57224000D01*
X68490000Y-50778000D02*
X68490000Y-52960000D01*
X68490000Y-55040000D02*
X68490000Y-57222000D01*
X68530000Y-50782000D02*
X68530000Y-52960000D01*
X68530000Y-55040000D02*
X68530000Y-57218000D01*
X68570000Y-50785000D02*
X68570000Y-52960000D01*
X68570000Y-55040000D02*
X68570000Y-57215000D01*
X68610000Y-50789000D02*
X68610000Y-52960000D01*
X68610000Y-55040000D02*
X68610000Y-57211000D01*
X68650000Y-50794000D02*
X68650000Y-52960000D01*
X68650000Y-55040000D02*
X68650000Y-57206000D01*
X68690000Y-50799000D02*
X68690000Y-52960000D01*
X68690000Y-55040000D02*
X68690000Y-57201000D01*
X68730000Y-50805000D02*
X68730000Y-52960000D01*
X68730000Y-55040000D02*
X68730000Y-57195000D01*
X68770000Y-50811000D02*
X68770000Y-52960000D01*
X68770000Y-55040000D02*
X68770000Y-57189000D01*
X68810000Y-50818000D02*
X68810000Y-52960000D01*
X68810000Y-55040000D02*
X68810000Y-57182000D01*
X68850000Y-50825000D02*
X68850000Y-52960000D01*
X68850000Y-55040000D02*
X68850000Y-57175000D01*
X68890000Y-50833000D02*
X68890000Y-52960000D01*
X68890000Y-55040000D02*
X68890000Y-57167000D01*
X68930000Y-50841000D02*
X68930000Y-52960000D01*
X68930000Y-55040000D02*
X68930000Y-57159000D01*
X68971000Y-50850000D02*
X68971000Y-52960000D01*
X68971000Y-55040000D02*
X68971000Y-57150000D01*
X69011000Y-50859000D02*
X69011000Y-52960000D01*
X69011000Y-55040000D02*
X69011000Y-57141000D01*
X69051000Y-50869000D02*
X69051000Y-52960000D01*
X69051000Y-55040000D02*
X69051000Y-57131000D01*
X69091000Y-50879000D02*
X69091000Y-52960000D01*
X69091000Y-55040000D02*
X69091000Y-57121000D01*
X69131000Y-50890000D02*
X69131000Y-52960000D01*
X69131000Y-55040000D02*
X69131000Y-57110000D01*
X69171000Y-50902000D02*
X69171000Y-52960000D01*
X69171000Y-55040000D02*
X69171000Y-57098000D01*
X69211000Y-50914000D02*
X69211000Y-52960000D01*
X69211000Y-55040000D02*
X69211000Y-57086000D01*
X69251000Y-50926000D02*
X69251000Y-52960000D01*
X69251000Y-55040000D02*
X69251000Y-57074000D01*
X69291000Y-50939000D02*
X69291000Y-52960000D01*
X69291000Y-55040000D02*
X69291000Y-57061000D01*
X69331000Y-50953000D02*
X69331000Y-52960000D01*
X69331000Y-55040000D02*
X69331000Y-57047000D01*
X69371000Y-50967000D02*
X69371000Y-52960000D01*
X69371000Y-55040000D02*
X69371000Y-57033000D01*
X69411000Y-50982000D02*
X69411000Y-52960000D01*
X69411000Y-55040000D02*
X69411000Y-57018000D01*
X69451000Y-50998000D02*
X69451000Y-52960000D01*
X69451000Y-55040000D02*
X69451000Y-57002000D01*
X69491000Y-51014000D02*
X69491000Y-52960000D01*
X69491000Y-55040000D02*
X69491000Y-56986000D01*
X69531000Y-51030000D02*
X69531000Y-52960000D01*
X69531000Y-55040000D02*
X69531000Y-56970000D01*
X69571000Y-51048000D02*
X69571000Y-52960000D01*
X69571000Y-55040000D02*
X69571000Y-56952000D01*
X69611000Y-51066000D02*
X69611000Y-52960000D01*
X69611000Y-55040000D02*
X69611000Y-56934000D01*
X69651000Y-51084000D02*
X69651000Y-52960000D01*
X69651000Y-55040000D02*
X69651000Y-56916000D01*
X69691000Y-51104000D02*
X69691000Y-52960000D01*
X69691000Y-55040000D02*
X69691000Y-56896000D01*
X69731000Y-51124000D02*
X69731000Y-52960000D01*
X69731000Y-55040000D02*
X69731000Y-56876000D01*
X69771000Y-51144000D02*
X69771000Y-52960000D01*
X69771000Y-55040000D02*
X69771000Y-56856000D01*
X69811000Y-51166000D02*
X69811000Y-52960000D01*
X69811000Y-55040000D02*
X69811000Y-56834000D01*
X69851000Y-51188000D02*
X69851000Y-52960000D01*
X69851000Y-55040000D02*
X69851000Y-56812000D01*
X69891000Y-51210000D02*
X69891000Y-52960000D01*
X69891000Y-55040000D02*
X69891000Y-56790000D01*
X69931000Y-51234000D02*
X69931000Y-52960000D01*
X69931000Y-55040000D02*
X69931000Y-56766000D01*
X69971000Y-51258000D02*
X69971000Y-52960000D01*
X69971000Y-55040000D02*
X69971000Y-56742000D01*
X70011000Y-51284000D02*
X70011000Y-52960000D01*
X70011000Y-55040000D02*
X70011000Y-56716000D01*
X70051000Y-51310000D02*
X70051000Y-52960000D01*
X70051000Y-55040000D02*
X70051000Y-56690000D01*
X70091000Y-51336000D02*
X70091000Y-52960000D01*
X70091000Y-55040000D02*
X70091000Y-56664000D01*
X70131000Y-51364000D02*
X70131000Y-52960000D01*
X70131000Y-55040000D02*
X70131000Y-56636000D01*
X70171000Y-51393000D02*
X70171000Y-52960000D01*
X70171000Y-55040000D02*
X70171000Y-56607000D01*
X70211000Y-51422000D02*
X70211000Y-52960000D01*
X70211000Y-55040000D02*
X70211000Y-56578000D01*
X70251000Y-51452000D02*
X70251000Y-52960000D01*
X70251000Y-55040000D02*
X70251000Y-56548000D01*
X70291000Y-51484000D02*
X70291000Y-52960000D01*
X70291000Y-55040000D02*
X70291000Y-56516000D01*
X70331000Y-51516000D02*
X70331000Y-52960000D01*
X70331000Y-55040000D02*
X70331000Y-56484000D01*
X70371000Y-51550000D02*
X70371000Y-52960000D01*
X70371000Y-55040000D02*
X70371000Y-56450000D01*
X70411000Y-51584000D02*
X70411000Y-52960000D01*
X70411000Y-55040000D02*
X70411000Y-56416000D01*
X70451000Y-51620000D02*
X70451000Y-52960000D01*
X70451000Y-55040000D02*
X70451000Y-56380000D01*
X70491000Y-51657000D02*
X70491000Y-52960000D01*
X70491000Y-55040000D02*
X70491000Y-56343000D01*
X70531000Y-51695000D02*
X70531000Y-52960000D01*
X70531000Y-55040000D02*
X70531000Y-56305000D01*
X70571000Y-51735000D02*
X70571000Y-56265000D01*
X70611000Y-51776000D02*
X70611000Y-56224000D01*
X70651000Y-51818000D02*
X70651000Y-56182000D01*
X70691000Y-51863000D02*
X70691000Y-56137000D01*
X70731000Y-51908000D02*
X70731000Y-56092000D01*
X70771000Y-51956000D02*
X70771000Y-56044000D01*
X70811000Y-52005000D02*
X70811000Y-55995000D01*
X70851000Y-52056000D02*
X70851000Y-55944000D01*
X70891000Y-52110000D02*
X70891000Y-55890000D01*
X70931000Y-52166000D02*
X70931000Y-55834000D01*
X70971000Y-52224000D02*
X70971000Y-55776000D01*
X71011000Y-52286000D02*
X71011000Y-55714000D01*
X71051000Y-52350000D02*
X71051000Y-55650000D01*
X71091000Y-52419000D02*
X71091000Y-55581000D01*
X71131000Y-52491000D02*
X71131000Y-55509000D01*
X71171000Y-52568000D02*
X71171000Y-55432000D01*
X71211000Y-52650000D02*
X71211000Y-55350000D01*
X71251000Y-52738000D02*
X71251000Y-55262000D01*
X71291000Y-52835000D02*
X71291000Y-55165000D01*
X71331000Y-52941000D02*
X71331000Y-55059000D01*
X71371000Y-53060000D02*
X71371000Y-54940000D01*
X71411000Y-53198000D02*
X71411000Y-54802000D01*
X71451000Y-53367000D02*
X71451000Y-54633000D01*
X71491000Y-53598000D02*
X71491000Y-54402000D01*
X64749759Y-52161000D02*
X65379759Y-52161000D01*
X65064759Y-51846000D02*
X65064759Y-52476000D01*
%TO.C,R4*%
X89150000Y-85778000D02*
X89150000Y-85553000D01*
X90850000Y-85778000D02*
X90850000Y-85553000D01*
X90300000Y-84803000D02*
X89700000Y-84803000D01*
X90300000Y-88053000D02*
X89700000Y-88053000D01*
%TO.C,R3*%
X89035000Y-77778000D02*
X89035000Y-77553000D01*
X90735000Y-77778000D02*
X90735000Y-77553000D01*
X90185000Y-76803000D02*
X89585000Y-76803000D01*
X90185000Y-80053000D02*
X89585000Y-80053000D01*
%TO.C,R2*%
X89150000Y-69778000D02*
X89150000Y-69553000D01*
X90850000Y-69778000D02*
X90850000Y-69553000D01*
X90300000Y-68803000D02*
X89700000Y-68803000D01*
X90300000Y-72053000D02*
X89700000Y-72053000D01*
%TO.C,R1*%
X89265000Y-61778500D02*
X89265000Y-61553500D01*
X90965000Y-61778500D02*
X90965000Y-61553500D01*
X90415000Y-60803500D02*
X89815000Y-60803500D01*
X90415000Y-64053500D02*
X89815000Y-64053500D01*
%TO.C,C4*%
X74140580Y-86260000D02*
X73859420Y-86260000D01*
X74140580Y-85240000D02*
X73859420Y-85240000D01*
%TO.C,C3*%
X74140580Y-80260000D02*
X73859420Y-80260000D01*
X74140580Y-79240000D02*
X73859420Y-79240000D01*
%TO.C,C2*%
X74140580Y-72260000D02*
X73859420Y-72260000D01*
X74140580Y-71240000D02*
X73859420Y-71240000D01*
%TO.C,C1*%
X74140580Y-66260000D02*
X73859420Y-66260000D01*
X74140580Y-65240000D02*
X73859420Y-65240000D01*
%TO.C,TP4*%
D12*
X57988095Y-98702380D02*
X58559523Y-98702380D01*
X58273809Y-99702380D02*
X58273809Y-98702380D01*
X58892857Y-99702380D02*
X58892857Y-98702380D01*
X59273809Y-98702380D01*
X59369047Y-98750000D01*
X59416666Y-98797619D01*
X59464285Y-98892857D01*
X59464285Y-99035714D01*
X59416666Y-99130952D01*
X59369047Y-99178571D01*
X59273809Y-99226190D01*
X58892857Y-99226190D01*
X60321428Y-99035714D02*
X60321428Y-99702380D01*
X60083333Y-98654761D02*
X59845238Y-99369047D01*
X60464285Y-99369047D01*
%TO.C,TP3*%
X74988095Y-50372380D02*
X75559523Y-50372380D01*
X75273809Y-51372380D02*
X75273809Y-50372380D01*
X75892857Y-51372380D02*
X75892857Y-50372380D01*
X76273809Y-50372380D01*
X76369047Y-50420000D01*
X76416666Y-50467619D01*
X76464285Y-50562857D01*
X76464285Y-50705714D01*
X76416666Y-50800952D01*
X76369047Y-50848571D01*
X76273809Y-50896190D01*
X75892857Y-50896190D01*
X76797619Y-50372380D02*
X77416666Y-50372380D01*
X77083333Y-50753333D01*
X77226190Y-50753333D01*
X77321428Y-50800952D01*
X77369047Y-50848571D01*
X77416666Y-50943809D01*
X77416666Y-51181904D01*
X77369047Y-51277142D01*
X77321428Y-51324761D01*
X77226190Y-51372380D01*
X76940476Y-51372380D01*
X76845238Y-51324761D01*
X76797619Y-51277142D01*
%TO.C,TP2*%
X77988095Y-50372380D02*
X78559523Y-50372380D01*
X78273809Y-51372380D02*
X78273809Y-50372380D01*
X78892857Y-51372380D02*
X78892857Y-50372380D01*
X79273809Y-50372380D01*
X79369047Y-50420000D01*
X79416666Y-50467619D01*
X79464285Y-50562857D01*
X79464285Y-50705714D01*
X79416666Y-50800952D01*
X79369047Y-50848571D01*
X79273809Y-50896190D01*
X78892857Y-50896190D01*
X79845238Y-50467619D02*
X79892857Y-50420000D01*
X79988095Y-50372380D01*
X80226190Y-50372380D01*
X80321428Y-50420000D01*
X80369047Y-50467619D01*
X80416666Y-50562857D01*
X80416666Y-50658095D01*
X80369047Y-50800952D01*
X79797619Y-51372380D01*
X80416666Y-51372380D01*
%TO.C,TP1*%
X71988095Y-50372380D02*
X72559523Y-50372380D01*
X72273809Y-51372380D02*
X72273809Y-50372380D01*
X72892857Y-51372380D02*
X72892857Y-50372380D01*
X73273809Y-50372380D01*
X73369047Y-50420000D01*
X73416666Y-50467619D01*
X73464285Y-50562857D01*
X73464285Y-50705714D01*
X73416666Y-50800952D01*
X73369047Y-50848571D01*
X73273809Y-50896190D01*
X72892857Y-50896190D01*
X74416666Y-51372380D02*
X73845238Y-51372380D01*
X74130952Y-51372380D02*
X74130952Y-50372380D01*
X74035714Y-50515238D01*
X73940476Y-50610476D01*
X73845238Y-50658095D01*
%TO.C,J1*%
X57002380Y-64833333D02*
X57716666Y-64833333D01*
X57859523Y-64880952D01*
X57954761Y-64976190D01*
X58002380Y-65119047D01*
X58002380Y-65214285D01*
X58002380Y-63833333D02*
X58002380Y-64404761D01*
X58002380Y-64119047D02*
X57002380Y-64119047D01*
X57145238Y-64214285D01*
X57240476Y-64309523D01*
X57288095Y-64404761D01*
%TO.C,C22*%
X65107142Y-69107142D02*
X65059523Y-69154761D01*
X64916666Y-69202380D01*
X64821428Y-69202380D01*
X64678571Y-69154761D01*
X64583333Y-69059523D01*
X64535714Y-68964285D01*
X64488095Y-68773809D01*
X64488095Y-68630952D01*
X64535714Y-68440476D01*
X64583333Y-68345238D01*
X64678571Y-68250000D01*
X64821428Y-68202380D01*
X64916666Y-68202380D01*
X65059523Y-68250000D01*
X65107142Y-68297619D01*
X65488095Y-68297619D02*
X65535714Y-68250000D01*
X65630952Y-68202380D01*
X65869047Y-68202380D01*
X65964285Y-68250000D01*
X66011904Y-68297619D01*
X66059523Y-68392857D01*
X66059523Y-68488095D01*
X66011904Y-68630952D01*
X65440476Y-69202380D01*
X66059523Y-69202380D01*
X66440476Y-68297619D02*
X66488095Y-68250000D01*
X66583333Y-68202380D01*
X66821428Y-68202380D01*
X66916666Y-68250000D01*
X66964285Y-68297619D01*
X67011904Y-68392857D01*
X67011904Y-68488095D01*
X66964285Y-68630952D01*
X66392857Y-69202380D01*
X67011904Y-69202380D01*
%TO.C,C19*%
X51607142Y-78392857D02*
X51654761Y-78440476D01*
X51702380Y-78583333D01*
X51702380Y-78678571D01*
X51654761Y-78821428D01*
X51559523Y-78916666D01*
X51464285Y-78964285D01*
X51273809Y-79011904D01*
X51130952Y-79011904D01*
X50940476Y-78964285D01*
X50845238Y-78916666D01*
X50750000Y-78821428D01*
X50702380Y-78678571D01*
X50702380Y-78583333D01*
X50750000Y-78440476D01*
X50797619Y-78392857D01*
X51702380Y-77440476D02*
X51702380Y-78011904D01*
X51702380Y-77726190D02*
X50702380Y-77726190D01*
X50845238Y-77821428D01*
X50940476Y-77916666D01*
X50988095Y-78011904D01*
X51702380Y-76964285D02*
X51702380Y-76773809D01*
X51654761Y-76678571D01*
X51607142Y-76630952D01*
X51464285Y-76535714D01*
X51273809Y-76488095D01*
X50892857Y-76488095D01*
X50797619Y-76535714D01*
X50750000Y-76583333D01*
X50702380Y-76678571D01*
X50702380Y-76869047D01*
X50750000Y-76964285D01*
X50797619Y-77011904D01*
X50892857Y-77059523D01*
X51130952Y-77059523D01*
X51226190Y-77011904D01*
X51273809Y-76964285D01*
X51321428Y-76869047D01*
X51321428Y-76678571D01*
X51273809Y-76583333D01*
X51226190Y-76535714D01*
X51130952Y-76488095D01*
%TO.C,U4*%
X70488095Y-80202380D02*
X70488095Y-81011904D01*
X70535714Y-81107142D01*
X70583333Y-81154761D01*
X70678571Y-81202380D01*
X70869047Y-81202380D01*
X70964285Y-81154761D01*
X71011904Y-81107142D01*
X71059523Y-81011904D01*
X71059523Y-80202380D01*
X71964285Y-80535714D02*
X71964285Y-81202380D01*
X71726190Y-80154761D02*
X71488095Y-80869047D01*
X72107142Y-80869047D01*
%TO.C,U3*%
X70488095Y-74202380D02*
X70488095Y-75011904D01*
X70535714Y-75107142D01*
X70583333Y-75154761D01*
X70678571Y-75202380D01*
X70869047Y-75202380D01*
X70964285Y-75154761D01*
X71011904Y-75107142D01*
X71059523Y-75011904D01*
X71059523Y-74202380D01*
X71440476Y-74202380D02*
X72059523Y-74202380D01*
X71726190Y-74583333D01*
X71869047Y-74583333D01*
X71964285Y-74630952D01*
X72011904Y-74678571D01*
X72059523Y-74773809D01*
X72059523Y-75011904D01*
X72011904Y-75107142D01*
X71964285Y-75154761D01*
X71869047Y-75202380D01*
X71583333Y-75202380D01*
X71488095Y-75154761D01*
X71440476Y-75107142D01*
%TO.C,U1*%
X70488095Y-60202380D02*
X70488095Y-61011904D01*
X70535714Y-61107142D01*
X70583333Y-61154761D01*
X70678571Y-61202380D01*
X70869047Y-61202380D01*
X70964285Y-61154761D01*
X71011904Y-61107142D01*
X71059523Y-61011904D01*
X71059523Y-60202380D01*
X72059523Y-61202380D02*
X71488095Y-61202380D01*
X71773809Y-61202380D02*
X71773809Y-60202380D01*
X71678571Y-60345238D01*
X71583333Y-60440476D01*
X71488095Y-60488095D01*
%TO.C,R20*%
X68452380Y-60392857D02*
X67976190Y-60726190D01*
X68452380Y-60964285D02*
X67452380Y-60964285D01*
X67452380Y-60583333D01*
X67500000Y-60488095D01*
X67547619Y-60440476D01*
X67642857Y-60392857D01*
X67785714Y-60392857D01*
X67880952Y-60440476D01*
X67928571Y-60488095D01*
X67976190Y-60583333D01*
X67976190Y-60964285D01*
X67547619Y-60011904D02*
X67500000Y-59964285D01*
X67452380Y-59869047D01*
X67452380Y-59630952D01*
X67500000Y-59535714D01*
X67547619Y-59488095D01*
X67642857Y-59440476D01*
X67738095Y-59440476D01*
X67880952Y-59488095D01*
X68452380Y-60059523D01*
X68452380Y-59440476D01*
X67452380Y-58821428D02*
X67452380Y-58726190D01*
X67500000Y-58630952D01*
X67547619Y-58583333D01*
X67642857Y-58535714D01*
X67833333Y-58488095D01*
X68071428Y-58488095D01*
X68261904Y-58535714D01*
X68357142Y-58583333D01*
X68404761Y-58630952D01*
X68452380Y-58726190D01*
X68452380Y-58821428D01*
X68404761Y-58916666D01*
X68357142Y-58964285D01*
X68261904Y-59011904D01*
X68071428Y-59059523D01*
X67833333Y-59059523D01*
X67642857Y-59011904D01*
X67547619Y-58964285D01*
X67500000Y-58916666D01*
X67452380Y-58821428D01*
%TO.C,R19*%
X66202380Y-64392857D02*
X65726190Y-64726190D01*
X66202380Y-64964285D02*
X65202380Y-64964285D01*
X65202380Y-64583333D01*
X65250000Y-64488095D01*
X65297619Y-64440476D01*
X65392857Y-64392857D01*
X65535714Y-64392857D01*
X65630952Y-64440476D01*
X65678571Y-64488095D01*
X65726190Y-64583333D01*
X65726190Y-64964285D01*
X66202380Y-63440476D02*
X66202380Y-64011904D01*
X66202380Y-63726190D02*
X65202380Y-63726190D01*
X65345238Y-63821428D01*
X65440476Y-63916666D01*
X65488095Y-64011904D01*
X66202380Y-62964285D02*
X66202380Y-62773809D01*
X66154761Y-62678571D01*
X66107142Y-62630952D01*
X65964285Y-62535714D01*
X65773809Y-62488095D01*
X65392857Y-62488095D01*
X65297619Y-62535714D01*
X65250000Y-62583333D01*
X65202380Y-62678571D01*
X65202380Y-62869047D01*
X65250000Y-62964285D01*
X65297619Y-63011904D01*
X65392857Y-63059523D01*
X65630952Y-63059523D01*
X65726190Y-63011904D01*
X65773809Y-62964285D01*
X65821428Y-62869047D01*
X65821428Y-62678571D01*
X65773809Y-62583333D01*
X65726190Y-62535714D01*
X65630952Y-62488095D01*
%TO.C,U2*%
X70488095Y-66202380D02*
X70488095Y-67011904D01*
X70535714Y-67107142D01*
X70583333Y-67154761D01*
X70678571Y-67202380D01*
X70869047Y-67202380D01*
X70964285Y-67154761D01*
X71011904Y-67107142D01*
X71059523Y-67011904D01*
X71059523Y-66202380D01*
X71488095Y-66297619D02*
X71535714Y-66250000D01*
X71630952Y-66202380D01*
X71869047Y-66202380D01*
X71964285Y-66250000D01*
X72011904Y-66297619D01*
X72059523Y-66392857D01*
X72059523Y-66488095D01*
X72011904Y-66630952D01*
X71440476Y-67202380D01*
X72059523Y-67202380D01*
%TO.C,C21*%
X55357142Y-85707142D02*
X55309523Y-85754761D01*
X55166666Y-85802380D01*
X55071428Y-85802380D01*
X54928571Y-85754761D01*
X54833333Y-85659523D01*
X54785714Y-85564285D01*
X54738095Y-85373809D01*
X54738095Y-85230952D01*
X54785714Y-85040476D01*
X54833333Y-84945238D01*
X54928571Y-84850000D01*
X55071428Y-84802380D01*
X55166666Y-84802380D01*
X55309523Y-84850000D01*
X55357142Y-84897619D01*
X55738095Y-84897619D02*
X55785714Y-84850000D01*
X55880952Y-84802380D01*
X56119047Y-84802380D01*
X56214285Y-84850000D01*
X56261904Y-84897619D01*
X56309523Y-84992857D01*
X56309523Y-85088095D01*
X56261904Y-85230952D01*
X55690476Y-85802380D01*
X56309523Y-85802380D01*
X57261904Y-85802380D02*
X56690476Y-85802380D01*
X56976190Y-85802380D02*
X56976190Y-84802380D01*
X56880952Y-84945238D01*
X56785714Y-85040476D01*
X56690476Y-85088095D01*
%TO.C,C20*%
X61107142Y-85857142D02*
X61059523Y-85904761D01*
X60916666Y-85952380D01*
X60821428Y-85952380D01*
X60678571Y-85904761D01*
X60583333Y-85809523D01*
X60535714Y-85714285D01*
X60488095Y-85523809D01*
X60488095Y-85380952D01*
X60535714Y-85190476D01*
X60583333Y-85095238D01*
X60678571Y-85000000D01*
X60821428Y-84952380D01*
X60916666Y-84952380D01*
X61059523Y-85000000D01*
X61107142Y-85047619D01*
X61488095Y-85047619D02*
X61535714Y-85000000D01*
X61630952Y-84952380D01*
X61869047Y-84952380D01*
X61964285Y-85000000D01*
X62011904Y-85047619D01*
X62059523Y-85142857D01*
X62059523Y-85238095D01*
X62011904Y-85380952D01*
X61440476Y-85952380D01*
X62059523Y-85952380D01*
X62678571Y-84952380D02*
X62773809Y-84952380D01*
X62869047Y-85000000D01*
X62916666Y-85047619D01*
X62964285Y-85142857D01*
X63011904Y-85333333D01*
X63011904Y-85571428D01*
X62964285Y-85761904D01*
X62916666Y-85857142D01*
X62869047Y-85904761D01*
X62773809Y-85952380D01*
X62678571Y-85952380D01*
X62583333Y-85904761D01*
X62535714Y-85857142D01*
X62488095Y-85761904D01*
X62440476Y-85571428D01*
X62440476Y-85333333D01*
X62488095Y-85142857D01*
X62535714Y-85047619D01*
X62583333Y-85000000D01*
X62678571Y-84952380D01*
%TO.C,C15*%
X60107142Y-56707142D02*
X60059523Y-56754761D01*
X59916666Y-56802380D01*
X59821428Y-56802380D01*
X59678571Y-56754761D01*
X59583333Y-56659523D01*
X59535714Y-56564285D01*
X59488095Y-56373809D01*
X59488095Y-56230952D01*
X59535714Y-56040476D01*
X59583333Y-55945238D01*
X59678571Y-55850000D01*
X59821428Y-55802380D01*
X59916666Y-55802380D01*
X60059523Y-55850000D01*
X60107142Y-55897619D01*
X61059523Y-56802380D02*
X60488095Y-56802380D01*
X60773809Y-56802380D02*
X60773809Y-55802380D01*
X60678571Y-55945238D01*
X60583333Y-56040476D01*
X60488095Y-56088095D01*
X61964285Y-55802380D02*
X61488095Y-55802380D01*
X61440476Y-56278571D01*
X61488095Y-56230952D01*
X61583333Y-56183333D01*
X61821428Y-56183333D01*
X61916666Y-56230952D01*
X61964285Y-56278571D01*
X62011904Y-56373809D01*
X62011904Y-56611904D01*
X61964285Y-56707142D01*
X61916666Y-56754761D01*
X61821428Y-56802380D01*
X61583333Y-56802380D01*
X61488095Y-56754761D01*
X61440476Y-56707142D01*
%TO.C,U5*%
X63202380Y-96761904D02*
X64011904Y-96761904D01*
X64107142Y-96714285D01*
X64154761Y-96666666D01*
X64202380Y-96571428D01*
X64202380Y-96380952D01*
X64154761Y-96285714D01*
X64107142Y-96238095D01*
X64011904Y-96190476D01*
X63202380Y-96190476D01*
X63202380Y-95238095D02*
X63202380Y-95714285D01*
X63678571Y-95761904D01*
X63630952Y-95714285D01*
X63583333Y-95619047D01*
X63583333Y-95380952D01*
X63630952Y-95285714D01*
X63678571Y-95238095D01*
X63773809Y-95190476D01*
X64011904Y-95190476D01*
X64107142Y-95238095D01*
X64154761Y-95285714D01*
X64202380Y-95380952D01*
X64202380Y-95619047D01*
X64154761Y-95714285D01*
X64107142Y-95761904D01*
%TO.C,U6*%
X58238095Y-72902380D02*
X58238095Y-73711904D01*
X58285714Y-73807142D01*
X58333333Y-73854761D01*
X58428571Y-73902380D01*
X58619047Y-73902380D01*
X58714285Y-73854761D01*
X58761904Y-73807142D01*
X58809523Y-73711904D01*
X58809523Y-72902380D01*
X59714285Y-72902380D02*
X59523809Y-72902380D01*
X59428571Y-72950000D01*
X59380952Y-72997619D01*
X59285714Y-73140476D01*
X59238095Y-73330952D01*
X59238095Y-73711904D01*
X59285714Y-73807142D01*
X59333333Y-73854761D01*
X59428571Y-73902380D01*
X59619047Y-73902380D01*
X59714285Y-73854761D01*
X59761904Y-73807142D01*
X59809523Y-73711904D01*
X59809523Y-73473809D01*
X59761904Y-73378571D01*
X59714285Y-73330952D01*
X59619047Y-73283333D01*
X59428571Y-73283333D01*
X59333333Y-73330952D01*
X59285714Y-73378571D01*
X59238095Y-73473809D01*
%TO.C,R18*%
X66952380Y-76642857D02*
X66476190Y-76976190D01*
X66952380Y-77214285D02*
X65952380Y-77214285D01*
X65952380Y-76833333D01*
X66000000Y-76738095D01*
X66047619Y-76690476D01*
X66142857Y-76642857D01*
X66285714Y-76642857D01*
X66380952Y-76690476D01*
X66428571Y-76738095D01*
X66476190Y-76833333D01*
X66476190Y-77214285D01*
X66952380Y-75690476D02*
X66952380Y-76261904D01*
X66952380Y-75976190D02*
X65952380Y-75976190D01*
X66095238Y-76071428D01*
X66190476Y-76166666D01*
X66238095Y-76261904D01*
X66380952Y-75119047D02*
X66333333Y-75214285D01*
X66285714Y-75261904D01*
X66190476Y-75309523D01*
X66142857Y-75309523D01*
X66047619Y-75261904D01*
X66000000Y-75214285D01*
X65952380Y-75119047D01*
X65952380Y-74928571D01*
X66000000Y-74833333D01*
X66047619Y-74785714D01*
X66142857Y-74738095D01*
X66190476Y-74738095D01*
X66285714Y-74785714D01*
X66333333Y-74833333D01*
X66380952Y-74928571D01*
X66380952Y-75119047D01*
X66428571Y-75214285D01*
X66476190Y-75261904D01*
X66571428Y-75309523D01*
X66761904Y-75309523D01*
X66857142Y-75261904D01*
X66904761Y-75214285D01*
X66952380Y-75119047D01*
X66952380Y-74928571D01*
X66904761Y-74833333D01*
X66857142Y-74785714D01*
X66761904Y-74738095D01*
X66571428Y-74738095D01*
X66476190Y-74785714D01*
X66428571Y-74833333D01*
X66380952Y-74928571D01*
%TO.C,R17*%
X67202380Y-83142857D02*
X66726190Y-83476190D01*
X67202380Y-83714285D02*
X66202380Y-83714285D01*
X66202380Y-83333333D01*
X66250000Y-83238095D01*
X66297619Y-83190476D01*
X66392857Y-83142857D01*
X66535714Y-83142857D01*
X66630952Y-83190476D01*
X66678571Y-83238095D01*
X66726190Y-83333333D01*
X66726190Y-83714285D01*
X67202380Y-82190476D02*
X67202380Y-82761904D01*
X67202380Y-82476190D02*
X66202380Y-82476190D01*
X66345238Y-82571428D01*
X66440476Y-82666666D01*
X66488095Y-82761904D01*
X66202380Y-81857142D02*
X66202380Y-81190476D01*
X67202380Y-81619047D01*
%TO.C,H4*%
X53238095Y-92452380D02*
X53238095Y-91452380D01*
X53238095Y-91928571D02*
X53809523Y-91928571D01*
X53809523Y-92452380D02*
X53809523Y-91452380D01*
X54714285Y-91785714D02*
X54714285Y-92452380D01*
X54476190Y-91404761D02*
X54238095Y-92119047D01*
X54857142Y-92119047D01*
%TO.C,H3*%
X90488095Y-54452380D02*
X90488095Y-53452380D01*
X90488095Y-53928571D02*
X91059523Y-53928571D01*
X91059523Y-54452380D02*
X91059523Y-53452380D01*
X91440476Y-53452380D02*
X92059523Y-53452380D01*
X91726190Y-53833333D01*
X91869047Y-53833333D01*
X91964285Y-53880952D01*
X92011904Y-53928571D01*
X92059523Y-54023809D01*
X92059523Y-54261904D01*
X92011904Y-54357142D01*
X91964285Y-54404761D01*
X91869047Y-54452380D01*
X91583333Y-54452380D01*
X91488095Y-54404761D01*
X91440476Y-54357142D01*
%TO.C,H2*%
X57988095Y-54452380D02*
X57988095Y-53452380D01*
X57988095Y-53928571D02*
X58559523Y-53928571D01*
X58559523Y-54452380D02*
X58559523Y-53452380D01*
X58988095Y-53547619D02*
X59035714Y-53500000D01*
X59130952Y-53452380D01*
X59369047Y-53452380D01*
X59464285Y-53500000D01*
X59511904Y-53547619D01*
X59559523Y-53642857D01*
X59559523Y-53738095D01*
X59511904Y-53880952D01*
X58940476Y-54452380D01*
X59559523Y-54452380D01*
%TO.C,H1*%
X95238095Y-92452380D02*
X95238095Y-91452380D01*
X95238095Y-91928571D02*
X95809523Y-91928571D01*
X95809523Y-92452380D02*
X95809523Y-91452380D01*
X96809523Y-92452380D02*
X96238095Y-92452380D01*
X96523809Y-92452380D02*
X96523809Y-91452380D01*
X96428571Y-91595238D01*
X96333333Y-91690476D01*
X96238095Y-91738095D01*
%TO.C,Gnd1*%
X77130952Y-53500000D02*
X77035714Y-53452380D01*
X76892857Y-53452380D01*
X76750000Y-53500000D01*
X76654761Y-53595238D01*
X76607142Y-53690476D01*
X76559523Y-53880952D01*
X76559523Y-54023809D01*
X76607142Y-54214285D01*
X76654761Y-54309523D01*
X76750000Y-54404761D01*
X76892857Y-54452380D01*
X76988095Y-54452380D01*
X77130952Y-54404761D01*
X77178571Y-54357142D01*
X77178571Y-54023809D01*
X76988095Y-54023809D01*
X77607142Y-53785714D02*
X77607142Y-54452380D01*
X77607142Y-53880952D02*
X77654761Y-53833333D01*
X77750000Y-53785714D01*
X77892857Y-53785714D01*
X77988095Y-53833333D01*
X78035714Y-53928571D01*
X78035714Y-54452380D01*
X78940476Y-54452380D02*
X78940476Y-53452380D01*
X78940476Y-54404761D02*
X78845238Y-54452380D01*
X78654761Y-54452380D01*
X78559523Y-54404761D01*
X78511904Y-54357142D01*
X78464285Y-54261904D01*
X78464285Y-53976190D01*
X78511904Y-53880952D01*
X78559523Y-53833333D01*
X78654761Y-53785714D01*
X78845238Y-53785714D01*
X78940476Y-53833333D01*
X79940476Y-54452380D02*
X79369047Y-54452380D01*
X79654761Y-54452380D02*
X79654761Y-53452380D01*
X79559523Y-53595238D01*
X79464285Y-53690476D01*
X79369047Y-53738095D01*
%TO.C,C18*%
X65107142Y-75392857D02*
X65154761Y-75440476D01*
X65202380Y-75583333D01*
X65202380Y-75678571D01*
X65154761Y-75821428D01*
X65059523Y-75916666D01*
X64964285Y-75964285D01*
X64773809Y-76011904D01*
X64630952Y-76011904D01*
X64440476Y-75964285D01*
X64345238Y-75916666D01*
X64250000Y-75821428D01*
X64202380Y-75678571D01*
X64202380Y-75583333D01*
X64250000Y-75440476D01*
X64297619Y-75392857D01*
X65202380Y-74440476D02*
X65202380Y-75011904D01*
X65202380Y-74726190D02*
X64202380Y-74726190D01*
X64345238Y-74821428D01*
X64440476Y-74916666D01*
X64488095Y-75011904D01*
X64630952Y-73869047D02*
X64583333Y-73964285D01*
X64535714Y-74011904D01*
X64440476Y-74059523D01*
X64392857Y-74059523D01*
X64297619Y-74011904D01*
X64250000Y-73964285D01*
X64202380Y-73869047D01*
X64202380Y-73678571D01*
X64250000Y-73583333D01*
X64297619Y-73535714D01*
X64392857Y-73488095D01*
X64440476Y-73488095D01*
X64535714Y-73535714D01*
X64583333Y-73583333D01*
X64630952Y-73678571D01*
X64630952Y-73869047D01*
X64678571Y-73964285D01*
X64726190Y-74011904D01*
X64821428Y-74059523D01*
X65011904Y-74059523D01*
X65107142Y-74011904D01*
X65154761Y-73964285D01*
X65202380Y-73869047D01*
X65202380Y-73678571D01*
X65154761Y-73583333D01*
X65107142Y-73535714D01*
X65011904Y-73488095D01*
X64821428Y-73488095D01*
X64726190Y-73535714D01*
X64678571Y-73583333D01*
X64630952Y-73678571D01*
%TO.C,C17*%
X65107142Y-84892857D02*
X65154761Y-84940476D01*
X65202380Y-85083333D01*
X65202380Y-85178571D01*
X65154761Y-85321428D01*
X65059523Y-85416666D01*
X64964285Y-85464285D01*
X64773809Y-85511904D01*
X64630952Y-85511904D01*
X64440476Y-85464285D01*
X64345238Y-85416666D01*
X64250000Y-85321428D01*
X64202380Y-85178571D01*
X64202380Y-85083333D01*
X64250000Y-84940476D01*
X64297619Y-84892857D01*
X65202380Y-83940476D02*
X65202380Y-84511904D01*
X65202380Y-84226190D02*
X64202380Y-84226190D01*
X64345238Y-84321428D01*
X64440476Y-84416666D01*
X64488095Y-84511904D01*
X64202380Y-83607142D02*
X64202380Y-82940476D01*
X65202380Y-83369047D01*
%TO.C,C16*%
X51607142Y-81642857D02*
X51654761Y-81690476D01*
X51702380Y-81833333D01*
X51702380Y-81928571D01*
X51654761Y-82071428D01*
X51559523Y-82166666D01*
X51464285Y-82214285D01*
X51273809Y-82261904D01*
X51130952Y-82261904D01*
X50940476Y-82214285D01*
X50845238Y-82166666D01*
X50750000Y-82071428D01*
X50702380Y-81928571D01*
X50702380Y-81833333D01*
X50750000Y-81690476D01*
X50797619Y-81642857D01*
X51702380Y-80690476D02*
X51702380Y-81261904D01*
X51702380Y-80976190D02*
X50702380Y-80976190D01*
X50845238Y-81071428D01*
X50940476Y-81166666D01*
X50988095Y-81261904D01*
X50702380Y-79833333D02*
X50702380Y-80023809D01*
X50750000Y-80119047D01*
X50797619Y-80166666D01*
X50940476Y-80261904D01*
X51130952Y-80309523D01*
X51511904Y-80309523D01*
X51607142Y-80261904D01*
X51654761Y-80214285D01*
X51702380Y-80119047D01*
X51702380Y-79928571D01*
X51654761Y-79833333D01*
X51607142Y-79785714D01*
X51511904Y-79738095D01*
X51273809Y-79738095D01*
X51178571Y-79785714D01*
X51130952Y-79833333D01*
X51083333Y-79928571D01*
X51083333Y-80119047D01*
X51130952Y-80214285D01*
X51178571Y-80261904D01*
X51273809Y-80309523D01*
%TO.C,R16*%
X76452380Y-88642857D02*
X75976190Y-88976190D01*
X76452380Y-89214285D02*
X75452380Y-89214285D01*
X75452380Y-88833333D01*
X75500000Y-88738095D01*
X75547619Y-88690476D01*
X75642857Y-88642857D01*
X75785714Y-88642857D01*
X75880952Y-88690476D01*
X75928571Y-88738095D01*
X75976190Y-88833333D01*
X75976190Y-89214285D01*
X76452380Y-87690476D02*
X76452380Y-88261904D01*
X76452380Y-87976190D02*
X75452380Y-87976190D01*
X75595238Y-88071428D01*
X75690476Y-88166666D01*
X75738095Y-88261904D01*
X75452380Y-86833333D02*
X75452380Y-87023809D01*
X75500000Y-87119047D01*
X75547619Y-87166666D01*
X75690476Y-87261904D01*
X75880952Y-87309523D01*
X76261904Y-87309523D01*
X76357142Y-87261904D01*
X76404761Y-87214285D01*
X76452380Y-87119047D01*
X76452380Y-86928571D01*
X76404761Y-86833333D01*
X76357142Y-86785714D01*
X76261904Y-86738095D01*
X76023809Y-86738095D01*
X75928571Y-86785714D01*
X75880952Y-86833333D01*
X75833333Y-86928571D01*
X75833333Y-87119047D01*
X75880952Y-87214285D01*
X75928571Y-87261904D01*
X76023809Y-87309523D01*
%TO.C,R15*%
X73452380Y-88642857D02*
X72976190Y-88976190D01*
X73452380Y-89214285D02*
X72452380Y-89214285D01*
X72452380Y-88833333D01*
X72500000Y-88738095D01*
X72547619Y-88690476D01*
X72642857Y-88642857D01*
X72785714Y-88642857D01*
X72880952Y-88690476D01*
X72928571Y-88738095D01*
X72976190Y-88833333D01*
X72976190Y-89214285D01*
X73452380Y-87690476D02*
X73452380Y-88261904D01*
X73452380Y-87976190D02*
X72452380Y-87976190D01*
X72595238Y-88071428D01*
X72690476Y-88166666D01*
X72738095Y-88261904D01*
X72452380Y-86785714D02*
X72452380Y-87261904D01*
X72928571Y-87309523D01*
X72880952Y-87261904D01*
X72833333Y-87166666D01*
X72833333Y-86928571D01*
X72880952Y-86833333D01*
X72928571Y-86785714D01*
X73023809Y-86738095D01*
X73261904Y-86738095D01*
X73357142Y-86785714D01*
X73404761Y-86833333D01*
X73452380Y-86928571D01*
X73452380Y-87166666D01*
X73404761Y-87261904D01*
X73357142Y-87309523D01*
%TO.C,R14*%
X73452380Y-98642857D02*
X72976190Y-98976190D01*
X73452380Y-99214285D02*
X72452380Y-99214285D01*
X72452380Y-98833333D01*
X72500000Y-98738095D01*
X72547619Y-98690476D01*
X72642857Y-98642857D01*
X72785714Y-98642857D01*
X72880952Y-98690476D01*
X72928571Y-98738095D01*
X72976190Y-98833333D01*
X72976190Y-99214285D01*
X73452380Y-97690476D02*
X73452380Y-98261904D01*
X73452380Y-97976190D02*
X72452380Y-97976190D01*
X72595238Y-98071428D01*
X72690476Y-98166666D01*
X72738095Y-98261904D01*
X72785714Y-96833333D02*
X73452380Y-96833333D01*
X72404761Y-97071428D02*
X73119047Y-97309523D01*
X73119047Y-96690476D01*
%TO.C,R13*%
X76452380Y-98642857D02*
X75976190Y-98976190D01*
X76452380Y-99214285D02*
X75452380Y-99214285D01*
X75452380Y-98833333D01*
X75500000Y-98738095D01*
X75547619Y-98690476D01*
X75642857Y-98642857D01*
X75785714Y-98642857D01*
X75880952Y-98690476D01*
X75928571Y-98738095D01*
X75976190Y-98833333D01*
X75976190Y-99214285D01*
X76452380Y-97690476D02*
X76452380Y-98261904D01*
X76452380Y-97976190D02*
X75452380Y-97976190D01*
X75595238Y-98071428D01*
X75690476Y-98166666D01*
X75738095Y-98261904D01*
X75452380Y-97357142D02*
X75452380Y-96738095D01*
X75833333Y-97071428D01*
X75833333Y-96928571D01*
X75880952Y-96833333D01*
X75928571Y-96785714D01*
X76023809Y-96738095D01*
X76261904Y-96738095D01*
X76357142Y-96785714D01*
X76404761Y-96833333D01*
X76452380Y-96928571D01*
X76452380Y-97214285D01*
X76404761Y-97309523D01*
X76357142Y-97357142D01*
%TO.C,R12*%
X88357142Y-92952380D02*
X88023809Y-92476190D01*
X87785714Y-92952380D02*
X87785714Y-91952380D01*
X88166666Y-91952380D01*
X88261904Y-92000000D01*
X88309523Y-92047619D01*
X88357142Y-92142857D01*
X88357142Y-92285714D01*
X88309523Y-92380952D01*
X88261904Y-92428571D01*
X88166666Y-92476190D01*
X87785714Y-92476190D01*
X89309523Y-92952380D02*
X88738095Y-92952380D01*
X89023809Y-92952380D02*
X89023809Y-91952380D01*
X88928571Y-92095238D01*
X88833333Y-92190476D01*
X88738095Y-92238095D01*
X89690476Y-92047619D02*
X89738095Y-92000000D01*
X89833333Y-91952380D01*
X90071428Y-91952380D01*
X90166666Y-92000000D01*
X90214285Y-92047619D01*
X90261904Y-92142857D01*
X90261904Y-92238095D01*
X90214285Y-92380952D01*
X89642857Y-92952380D01*
X90261904Y-92952380D01*
%TO.C,R11*%
X88357142Y-94952380D02*
X88023809Y-94476190D01*
X87785714Y-94952380D02*
X87785714Y-93952380D01*
X88166666Y-93952380D01*
X88261904Y-94000000D01*
X88309523Y-94047619D01*
X88357142Y-94142857D01*
X88357142Y-94285714D01*
X88309523Y-94380952D01*
X88261904Y-94428571D01*
X88166666Y-94476190D01*
X87785714Y-94476190D01*
X89309523Y-94952380D02*
X88738095Y-94952380D01*
X89023809Y-94952380D02*
X89023809Y-93952380D01*
X88928571Y-94095238D01*
X88833333Y-94190476D01*
X88738095Y-94238095D01*
X90261904Y-94952380D02*
X89690476Y-94952380D01*
X89976190Y-94952380D02*
X89976190Y-93952380D01*
X89880952Y-94095238D01*
X89785714Y-94190476D01*
X89690476Y-94238095D01*
%TO.C,R10*%
X88357142Y-96952380D02*
X88023809Y-96476190D01*
X87785714Y-96952380D02*
X87785714Y-95952380D01*
X88166666Y-95952380D01*
X88261904Y-96000000D01*
X88309523Y-96047619D01*
X88357142Y-96142857D01*
X88357142Y-96285714D01*
X88309523Y-96380952D01*
X88261904Y-96428571D01*
X88166666Y-96476190D01*
X87785714Y-96476190D01*
X89309523Y-96952380D02*
X88738095Y-96952380D01*
X89023809Y-96952380D02*
X89023809Y-95952380D01*
X88928571Y-96095238D01*
X88833333Y-96190476D01*
X88738095Y-96238095D01*
X89928571Y-95952380D02*
X90023809Y-95952380D01*
X90119047Y-96000000D01*
X90166666Y-96047619D01*
X90214285Y-96142857D01*
X90261904Y-96333333D01*
X90261904Y-96571428D01*
X90214285Y-96761904D01*
X90166666Y-96857142D01*
X90119047Y-96904761D01*
X90023809Y-96952380D01*
X89928571Y-96952380D01*
X89833333Y-96904761D01*
X89785714Y-96857142D01*
X89738095Y-96761904D01*
X89690476Y-96571428D01*
X89690476Y-96333333D01*
X89738095Y-96142857D01*
X89785714Y-96047619D01*
X89833333Y-96000000D01*
X89928571Y-95952380D01*
%TO.C,R9*%
X88833333Y-98952380D02*
X88500000Y-98476190D01*
X88261904Y-98952380D02*
X88261904Y-97952380D01*
X88642857Y-97952380D01*
X88738095Y-98000000D01*
X88785714Y-98047619D01*
X88833333Y-98142857D01*
X88833333Y-98285714D01*
X88785714Y-98380952D01*
X88738095Y-98428571D01*
X88642857Y-98476190D01*
X88261904Y-98476190D01*
X89309523Y-98952380D02*
X89500000Y-98952380D01*
X89595238Y-98904761D01*
X89642857Y-98857142D01*
X89738095Y-98714285D01*
X89785714Y-98523809D01*
X89785714Y-98142857D01*
X89738095Y-98047619D01*
X89690476Y-98000000D01*
X89595238Y-97952380D01*
X89404761Y-97952380D01*
X89309523Y-98000000D01*
X89261904Y-98047619D01*
X89214285Y-98142857D01*
X89214285Y-98380952D01*
X89261904Y-98476190D01*
X89309523Y-98523809D01*
X89404761Y-98571428D01*
X89595238Y-98571428D01*
X89690476Y-98523809D01*
X89738095Y-98476190D01*
X89785714Y-98380952D01*
%TO.C,R8*%
X91333333Y-92952380D02*
X91000000Y-92476190D01*
X90761904Y-92952380D02*
X90761904Y-91952380D01*
X91142857Y-91952380D01*
X91238095Y-92000000D01*
X91285714Y-92047619D01*
X91333333Y-92142857D01*
X91333333Y-92285714D01*
X91285714Y-92380952D01*
X91238095Y-92428571D01*
X91142857Y-92476190D01*
X90761904Y-92476190D01*
X91904761Y-92380952D02*
X91809523Y-92333333D01*
X91761904Y-92285714D01*
X91714285Y-92190476D01*
X91714285Y-92142857D01*
X91761904Y-92047619D01*
X91809523Y-92000000D01*
X91904761Y-91952380D01*
X92095238Y-91952380D01*
X92190476Y-92000000D01*
X92238095Y-92047619D01*
X92285714Y-92142857D01*
X92285714Y-92190476D01*
X92238095Y-92285714D01*
X92190476Y-92333333D01*
X92095238Y-92380952D01*
X91904761Y-92380952D01*
X91809523Y-92428571D01*
X91761904Y-92476190D01*
X91714285Y-92571428D01*
X91714285Y-92761904D01*
X91761904Y-92857142D01*
X91809523Y-92904761D01*
X91904761Y-92952380D01*
X92095238Y-92952380D01*
X92190476Y-92904761D01*
X92238095Y-92857142D01*
X92285714Y-92761904D01*
X92285714Y-92571428D01*
X92238095Y-92476190D01*
X92190476Y-92428571D01*
X92095238Y-92380952D01*
%TO.C,R7*%
X91333333Y-94952380D02*
X91000000Y-94476190D01*
X90761904Y-94952380D02*
X90761904Y-93952380D01*
X91142857Y-93952380D01*
X91238095Y-94000000D01*
X91285714Y-94047619D01*
X91333333Y-94142857D01*
X91333333Y-94285714D01*
X91285714Y-94380952D01*
X91238095Y-94428571D01*
X91142857Y-94476190D01*
X90761904Y-94476190D01*
X91666666Y-93952380D02*
X92333333Y-93952380D01*
X91904761Y-94952380D01*
%TO.C,R6*%
X91333333Y-96952380D02*
X91000000Y-96476190D01*
X90761904Y-96952380D02*
X90761904Y-95952380D01*
X91142857Y-95952380D01*
X91238095Y-96000000D01*
X91285714Y-96047619D01*
X91333333Y-96142857D01*
X91333333Y-96285714D01*
X91285714Y-96380952D01*
X91238095Y-96428571D01*
X91142857Y-96476190D01*
X90761904Y-96476190D01*
X92190476Y-95952380D02*
X92000000Y-95952380D01*
X91904761Y-96000000D01*
X91857142Y-96047619D01*
X91761904Y-96190476D01*
X91714285Y-96380952D01*
X91714285Y-96761904D01*
X91761904Y-96857142D01*
X91809523Y-96904761D01*
X91904761Y-96952380D01*
X92095238Y-96952380D01*
X92190476Y-96904761D01*
X92238095Y-96857142D01*
X92285714Y-96761904D01*
X92285714Y-96523809D01*
X92238095Y-96428571D01*
X92190476Y-96380952D01*
X92095238Y-96333333D01*
X91904761Y-96333333D01*
X91809523Y-96380952D01*
X91761904Y-96428571D01*
X91714285Y-96523809D01*
%TO.C,R5*%
X91333333Y-98952380D02*
X91000000Y-98476190D01*
X90761904Y-98952380D02*
X90761904Y-97952380D01*
X91142857Y-97952380D01*
X91238095Y-98000000D01*
X91285714Y-98047619D01*
X91333333Y-98142857D01*
X91333333Y-98285714D01*
X91285714Y-98380952D01*
X91238095Y-98428571D01*
X91142857Y-98476190D01*
X90761904Y-98476190D01*
X92238095Y-97952380D02*
X91761904Y-97952380D01*
X91714285Y-98428571D01*
X91761904Y-98380952D01*
X91857142Y-98333333D01*
X92095238Y-98333333D01*
X92190476Y-98380952D01*
X92238095Y-98428571D01*
X92285714Y-98523809D01*
X92285714Y-98761904D01*
X92238095Y-98857142D01*
X92190476Y-98904761D01*
X92095238Y-98952380D01*
X91857142Y-98952380D01*
X91761904Y-98904761D01*
X91714285Y-98857142D01*
%TO.C,C14*%
X77857142Y-88642857D02*
X77904761Y-88690476D01*
X77952380Y-88833333D01*
X77952380Y-88928571D01*
X77904761Y-89071428D01*
X77809523Y-89166666D01*
X77714285Y-89214285D01*
X77523809Y-89261904D01*
X77380952Y-89261904D01*
X77190476Y-89214285D01*
X77095238Y-89166666D01*
X77000000Y-89071428D01*
X76952380Y-88928571D01*
X76952380Y-88833333D01*
X77000000Y-88690476D01*
X77047619Y-88642857D01*
X77952380Y-87690476D02*
X77952380Y-88261904D01*
X77952380Y-87976190D02*
X76952380Y-87976190D01*
X77095238Y-88071428D01*
X77190476Y-88166666D01*
X77238095Y-88261904D01*
X77285714Y-86833333D02*
X77952380Y-86833333D01*
X76904761Y-87071428D02*
X77619047Y-87309523D01*
X77619047Y-86690476D01*
%TO.C,C13*%
X74857142Y-88642857D02*
X74904761Y-88690476D01*
X74952380Y-88833333D01*
X74952380Y-88928571D01*
X74904761Y-89071428D01*
X74809523Y-89166666D01*
X74714285Y-89214285D01*
X74523809Y-89261904D01*
X74380952Y-89261904D01*
X74190476Y-89214285D01*
X74095238Y-89166666D01*
X74000000Y-89071428D01*
X73952380Y-88928571D01*
X73952380Y-88833333D01*
X74000000Y-88690476D01*
X74047619Y-88642857D01*
X74952380Y-87690476D02*
X74952380Y-88261904D01*
X74952380Y-87976190D02*
X73952380Y-87976190D01*
X74095238Y-88071428D01*
X74190476Y-88166666D01*
X74238095Y-88261904D01*
X73952380Y-87357142D02*
X73952380Y-86738095D01*
X74333333Y-87071428D01*
X74333333Y-86928571D01*
X74380952Y-86833333D01*
X74428571Y-86785714D01*
X74523809Y-86738095D01*
X74761904Y-86738095D01*
X74857142Y-86785714D01*
X74904761Y-86833333D01*
X74952380Y-86928571D01*
X74952380Y-87214285D01*
X74904761Y-87309523D01*
X74857142Y-87357142D01*
%TO.C,C12*%
X74857142Y-98642857D02*
X74904761Y-98690476D01*
X74952380Y-98833333D01*
X74952380Y-98928571D01*
X74904761Y-99071428D01*
X74809523Y-99166666D01*
X74714285Y-99214285D01*
X74523809Y-99261904D01*
X74380952Y-99261904D01*
X74190476Y-99214285D01*
X74095238Y-99166666D01*
X74000000Y-99071428D01*
X73952380Y-98928571D01*
X73952380Y-98833333D01*
X74000000Y-98690476D01*
X74047619Y-98642857D01*
X74952380Y-97690476D02*
X74952380Y-98261904D01*
X74952380Y-97976190D02*
X73952380Y-97976190D01*
X74095238Y-98071428D01*
X74190476Y-98166666D01*
X74238095Y-98261904D01*
X74047619Y-97309523D02*
X74000000Y-97261904D01*
X73952380Y-97166666D01*
X73952380Y-96928571D01*
X74000000Y-96833333D01*
X74047619Y-96785714D01*
X74142857Y-96738095D01*
X74238095Y-96738095D01*
X74380952Y-96785714D01*
X74952380Y-97357142D01*
X74952380Y-96738095D01*
%TO.C,C11*%
X77857142Y-98642857D02*
X77904761Y-98690476D01*
X77952380Y-98833333D01*
X77952380Y-98928571D01*
X77904761Y-99071428D01*
X77809523Y-99166666D01*
X77714285Y-99214285D01*
X77523809Y-99261904D01*
X77380952Y-99261904D01*
X77190476Y-99214285D01*
X77095238Y-99166666D01*
X77000000Y-99071428D01*
X76952380Y-98928571D01*
X76952380Y-98833333D01*
X77000000Y-98690476D01*
X77047619Y-98642857D01*
X77952380Y-97690476D02*
X77952380Y-98261904D01*
X77952380Y-97976190D02*
X76952380Y-97976190D01*
X77095238Y-98071428D01*
X77190476Y-98166666D01*
X77238095Y-98261904D01*
X77952380Y-96738095D02*
X77952380Y-97309523D01*
X77952380Y-97023809D02*
X76952380Y-97023809D01*
X77095238Y-97119047D01*
X77190476Y-97214285D01*
X77238095Y-97309523D01*
%TO.C,C10*%
X71857142Y-88642857D02*
X71904761Y-88690476D01*
X71952380Y-88833333D01*
X71952380Y-88928571D01*
X71904761Y-89071428D01*
X71809523Y-89166666D01*
X71714285Y-89214285D01*
X71523809Y-89261904D01*
X71380952Y-89261904D01*
X71190476Y-89214285D01*
X71095238Y-89166666D01*
X71000000Y-89071428D01*
X70952380Y-88928571D01*
X70952380Y-88833333D01*
X71000000Y-88690476D01*
X71047619Y-88642857D01*
X71952380Y-87690476D02*
X71952380Y-88261904D01*
X71952380Y-87976190D02*
X70952380Y-87976190D01*
X71095238Y-88071428D01*
X71190476Y-88166666D01*
X71238095Y-88261904D01*
X70952380Y-87071428D02*
X70952380Y-86976190D01*
X71000000Y-86880952D01*
X71047619Y-86833333D01*
X71142857Y-86785714D01*
X71333333Y-86738095D01*
X71571428Y-86738095D01*
X71761904Y-86785714D01*
X71857142Y-86833333D01*
X71904761Y-86880952D01*
X71952380Y-86976190D01*
X71952380Y-87071428D01*
X71904761Y-87166666D01*
X71857142Y-87214285D01*
X71761904Y-87261904D01*
X71571428Y-87309523D01*
X71333333Y-87309523D01*
X71142857Y-87261904D01*
X71047619Y-87214285D01*
X71000000Y-87166666D01*
X70952380Y-87071428D01*
%TO.C,C9*%
X71857142Y-98666666D02*
X71904761Y-98714285D01*
X71952380Y-98857142D01*
X71952380Y-98952380D01*
X71904761Y-99095238D01*
X71809523Y-99190476D01*
X71714285Y-99238095D01*
X71523809Y-99285714D01*
X71380952Y-99285714D01*
X71190476Y-99238095D01*
X71095238Y-99190476D01*
X71000000Y-99095238D01*
X70952380Y-98952380D01*
X70952380Y-98857142D01*
X71000000Y-98714285D01*
X71047619Y-98666666D01*
X71952380Y-98190476D02*
X71952380Y-98000000D01*
X71904761Y-97904761D01*
X71857142Y-97857142D01*
X71714285Y-97761904D01*
X71523809Y-97714285D01*
X71142857Y-97714285D01*
X71047619Y-97761904D01*
X71000000Y-97809523D01*
X70952380Y-97904761D01*
X70952380Y-98095238D01*
X71000000Y-98190476D01*
X71047619Y-98238095D01*
X71142857Y-98285714D01*
X71380952Y-98285714D01*
X71476190Y-98238095D01*
X71523809Y-98190476D01*
X71571428Y-98095238D01*
X71571428Y-97904761D01*
X71523809Y-97809523D01*
X71476190Y-97761904D01*
X71380952Y-97714285D01*
%TO.C,C8*%
X65607142Y-86916666D02*
X65654761Y-86964285D01*
X65702380Y-87107142D01*
X65702380Y-87202380D01*
X65654761Y-87345238D01*
X65559523Y-87440476D01*
X65464285Y-87488095D01*
X65273809Y-87535714D01*
X65130952Y-87535714D01*
X64940476Y-87488095D01*
X64845238Y-87440476D01*
X64750000Y-87345238D01*
X64702380Y-87202380D01*
X64702380Y-87107142D01*
X64750000Y-86964285D01*
X64797619Y-86916666D01*
X65130952Y-86345238D02*
X65083333Y-86440476D01*
X65035714Y-86488095D01*
X64940476Y-86535714D01*
X64892857Y-86535714D01*
X64797619Y-86488095D01*
X64750000Y-86440476D01*
X64702380Y-86345238D01*
X64702380Y-86154761D01*
X64750000Y-86059523D01*
X64797619Y-86011904D01*
X64892857Y-85964285D01*
X64940476Y-85964285D01*
X65035714Y-86011904D01*
X65083333Y-86059523D01*
X65130952Y-86154761D01*
X65130952Y-86345238D01*
X65178571Y-86440476D01*
X65226190Y-86488095D01*
X65321428Y-86535714D01*
X65511904Y-86535714D01*
X65607142Y-86488095D01*
X65654761Y-86440476D01*
X65702380Y-86345238D01*
X65702380Y-86154761D01*
X65654761Y-86059523D01*
X65607142Y-86011904D01*
X65511904Y-85964285D01*
X65321428Y-85964285D01*
X65226190Y-86011904D01*
X65178571Y-86059523D01*
X65130952Y-86154761D01*
%TO.C,C7*%
X68833333Y-86177142D02*
X68785714Y-86224761D01*
X68642857Y-86272380D01*
X68547619Y-86272380D01*
X68404761Y-86224761D01*
X68309523Y-86129523D01*
X68261904Y-86034285D01*
X68214285Y-85843809D01*
X68214285Y-85700952D01*
X68261904Y-85510476D01*
X68309523Y-85415238D01*
X68404761Y-85320000D01*
X68547619Y-85272380D01*
X68642857Y-85272380D01*
X68785714Y-85320000D01*
X68833333Y-85367619D01*
X69166666Y-85272380D02*
X69833333Y-85272380D01*
X69404761Y-86272380D01*
%TO.C,C6*%
X60583333Y-88207142D02*
X60535714Y-88254761D01*
X60392857Y-88302380D01*
X60297619Y-88302380D01*
X60154761Y-88254761D01*
X60059523Y-88159523D01*
X60011904Y-88064285D01*
X59964285Y-87873809D01*
X59964285Y-87730952D01*
X60011904Y-87540476D01*
X60059523Y-87445238D01*
X60154761Y-87350000D01*
X60297619Y-87302380D01*
X60392857Y-87302380D01*
X60535714Y-87350000D01*
X60583333Y-87397619D01*
X61440476Y-87302380D02*
X61250000Y-87302380D01*
X61154761Y-87350000D01*
X61107142Y-87397619D01*
X61011904Y-87540476D01*
X60964285Y-87730952D01*
X60964285Y-88111904D01*
X61011904Y-88207142D01*
X61059523Y-88254761D01*
X61154761Y-88302380D01*
X61345238Y-88302380D01*
X61440476Y-88254761D01*
X61488095Y-88207142D01*
X61535714Y-88111904D01*
X61535714Y-87873809D01*
X61488095Y-87778571D01*
X61440476Y-87730952D01*
X61345238Y-87683333D01*
X61154761Y-87683333D01*
X61059523Y-87730952D01*
X61011904Y-87778571D01*
X60964285Y-87873809D01*
%TO.C,C5*%
X72833333Y-54357142D02*
X72785714Y-54404761D01*
X72642857Y-54452380D01*
X72547619Y-54452380D01*
X72404761Y-54404761D01*
X72309523Y-54309523D01*
X72261904Y-54214285D01*
X72214285Y-54023809D01*
X72214285Y-53880952D01*
X72261904Y-53690476D01*
X72309523Y-53595238D01*
X72404761Y-53500000D01*
X72547619Y-53452380D01*
X72642857Y-53452380D01*
X72785714Y-53500000D01*
X72833333Y-53547619D01*
X73738095Y-53452380D02*
X73261904Y-53452380D01*
X73214285Y-53928571D01*
X73261904Y-53880952D01*
X73357142Y-53833333D01*
X73595238Y-53833333D01*
X73690476Y-53880952D01*
X73738095Y-53928571D01*
X73785714Y-54023809D01*
X73785714Y-54261904D01*
X73738095Y-54357142D01*
X73690476Y-54404761D01*
X73595238Y-54452380D01*
X73357142Y-54452380D01*
X73261904Y-54404761D01*
X73214285Y-54357142D01*
%TO.C,S4_Lo1*%
X81523809Y-83404761D02*
X81666666Y-83452380D01*
X81904761Y-83452380D01*
X82000000Y-83404761D01*
X82047619Y-83357142D01*
X82095238Y-83261904D01*
X82095238Y-83166666D01*
X82047619Y-83071428D01*
X82000000Y-83023809D01*
X81904761Y-82976190D01*
X81714285Y-82928571D01*
X81619047Y-82880952D01*
X81571428Y-82833333D01*
X81523809Y-82738095D01*
X81523809Y-82642857D01*
X81571428Y-82547619D01*
X81619047Y-82500000D01*
X81714285Y-82452380D01*
X81952380Y-82452380D01*
X82095238Y-82500000D01*
X82952380Y-82785714D02*
X82952380Y-83452380D01*
X82714285Y-82404761D02*
X82476190Y-83119047D01*
X83095238Y-83119047D01*
X83238095Y-83547619D02*
X84000000Y-83547619D01*
X84714285Y-83452380D02*
X84238095Y-83452380D01*
X84238095Y-82452380D01*
X85190476Y-83452380D02*
X85095238Y-83404761D01*
X85047619Y-83357142D01*
X85000000Y-83261904D01*
X85000000Y-82976190D01*
X85047619Y-82880952D01*
X85095238Y-82833333D01*
X85190476Y-82785714D01*
X85333333Y-82785714D01*
X85428571Y-82833333D01*
X85476190Y-82880952D01*
X85523809Y-82976190D01*
X85523809Y-83261904D01*
X85476190Y-83357142D01*
X85428571Y-83404761D01*
X85333333Y-83452380D01*
X85190476Y-83452380D01*
X86476190Y-83452380D02*
X85904761Y-83452380D01*
X86190476Y-83452380D02*
X86190476Y-82452380D01*
X86095238Y-82595238D01*
X86000000Y-82690476D01*
X85904761Y-82738095D01*
%TO.C,S4_Hi1*%
X93619047Y-83404761D02*
X93761904Y-83452380D01*
X94000000Y-83452380D01*
X94095238Y-83404761D01*
X94142857Y-83357142D01*
X94190476Y-83261904D01*
X94190476Y-83166666D01*
X94142857Y-83071428D01*
X94095238Y-83023809D01*
X94000000Y-82976190D01*
X93809523Y-82928571D01*
X93714285Y-82880952D01*
X93666666Y-82833333D01*
X93619047Y-82738095D01*
X93619047Y-82642857D01*
X93666666Y-82547619D01*
X93714285Y-82500000D01*
X93809523Y-82452380D01*
X94047619Y-82452380D01*
X94190476Y-82500000D01*
X95047619Y-82785714D02*
X95047619Y-83452380D01*
X94809523Y-82404761D02*
X94571428Y-83119047D01*
X95190476Y-83119047D01*
X95333333Y-83547619D02*
X96095238Y-83547619D01*
X96333333Y-83452380D02*
X96333333Y-82452380D01*
X96333333Y-82928571D02*
X96904761Y-82928571D01*
X96904761Y-83452380D02*
X96904761Y-82452380D01*
X97380952Y-83452380D02*
X97380952Y-82785714D01*
X97380952Y-82452380D02*
X97333333Y-82500000D01*
X97380952Y-82547619D01*
X97428571Y-82500000D01*
X97380952Y-82452380D01*
X97380952Y-82547619D01*
X98380952Y-83452380D02*
X97809523Y-83452380D01*
X98095238Y-83452380D02*
X98095238Y-82452380D01*
X98000000Y-82595238D01*
X97904761Y-82690476D01*
X97809523Y-82738095D01*
%TO.C,S3_Lo1*%
X81523809Y-75404761D02*
X81666666Y-75452380D01*
X81904761Y-75452380D01*
X82000000Y-75404761D01*
X82047619Y-75357142D01*
X82095238Y-75261904D01*
X82095238Y-75166666D01*
X82047619Y-75071428D01*
X82000000Y-75023809D01*
X81904761Y-74976190D01*
X81714285Y-74928571D01*
X81619047Y-74880952D01*
X81571428Y-74833333D01*
X81523809Y-74738095D01*
X81523809Y-74642857D01*
X81571428Y-74547619D01*
X81619047Y-74500000D01*
X81714285Y-74452380D01*
X81952380Y-74452380D01*
X82095238Y-74500000D01*
X82428571Y-74452380D02*
X83047619Y-74452380D01*
X82714285Y-74833333D01*
X82857142Y-74833333D01*
X82952380Y-74880952D01*
X83000000Y-74928571D01*
X83047619Y-75023809D01*
X83047619Y-75261904D01*
X83000000Y-75357142D01*
X82952380Y-75404761D01*
X82857142Y-75452380D01*
X82571428Y-75452380D01*
X82476190Y-75404761D01*
X82428571Y-75357142D01*
X83238095Y-75547619D02*
X84000000Y-75547619D01*
X84714285Y-75452380D02*
X84238095Y-75452380D01*
X84238095Y-74452380D01*
X85190476Y-75452380D02*
X85095238Y-75404761D01*
X85047619Y-75357142D01*
X85000000Y-75261904D01*
X85000000Y-74976190D01*
X85047619Y-74880952D01*
X85095238Y-74833333D01*
X85190476Y-74785714D01*
X85333333Y-74785714D01*
X85428571Y-74833333D01*
X85476190Y-74880952D01*
X85523809Y-74976190D01*
X85523809Y-75261904D01*
X85476190Y-75357142D01*
X85428571Y-75404761D01*
X85333333Y-75452380D01*
X85190476Y-75452380D01*
X86476190Y-75452380D02*
X85904761Y-75452380D01*
X86190476Y-75452380D02*
X86190476Y-74452380D01*
X86095238Y-74595238D01*
X86000000Y-74690476D01*
X85904761Y-74738095D01*
%TO.C,S3_Hi1*%
X93619047Y-75404761D02*
X93761904Y-75452380D01*
X94000000Y-75452380D01*
X94095238Y-75404761D01*
X94142857Y-75357142D01*
X94190476Y-75261904D01*
X94190476Y-75166666D01*
X94142857Y-75071428D01*
X94095238Y-75023809D01*
X94000000Y-74976190D01*
X93809523Y-74928571D01*
X93714285Y-74880952D01*
X93666666Y-74833333D01*
X93619047Y-74738095D01*
X93619047Y-74642857D01*
X93666666Y-74547619D01*
X93714285Y-74500000D01*
X93809523Y-74452380D01*
X94047619Y-74452380D01*
X94190476Y-74500000D01*
X94523809Y-74452380D02*
X95142857Y-74452380D01*
X94809523Y-74833333D01*
X94952380Y-74833333D01*
X95047619Y-74880952D01*
X95095238Y-74928571D01*
X95142857Y-75023809D01*
X95142857Y-75261904D01*
X95095238Y-75357142D01*
X95047619Y-75404761D01*
X94952380Y-75452380D01*
X94666666Y-75452380D01*
X94571428Y-75404761D01*
X94523809Y-75357142D01*
X95333333Y-75547619D02*
X96095238Y-75547619D01*
X96333333Y-75452380D02*
X96333333Y-74452380D01*
X96333333Y-74928571D02*
X96904761Y-74928571D01*
X96904761Y-75452380D02*
X96904761Y-74452380D01*
X97380952Y-75452380D02*
X97380952Y-74785714D01*
X97380952Y-74452380D02*
X97333333Y-74500000D01*
X97380952Y-74547619D01*
X97428571Y-74500000D01*
X97380952Y-74452380D01*
X97380952Y-74547619D01*
X98380952Y-75452380D02*
X97809523Y-75452380D01*
X98095238Y-75452380D02*
X98095238Y-74452380D01*
X98000000Y-74595238D01*
X97904761Y-74690476D01*
X97809523Y-74738095D01*
%TO.C,S2_Lo1*%
X81523809Y-67404761D02*
X81666666Y-67452380D01*
X81904761Y-67452380D01*
X82000000Y-67404761D01*
X82047619Y-67357142D01*
X82095238Y-67261904D01*
X82095238Y-67166666D01*
X82047619Y-67071428D01*
X82000000Y-67023809D01*
X81904761Y-66976190D01*
X81714285Y-66928571D01*
X81619047Y-66880952D01*
X81571428Y-66833333D01*
X81523809Y-66738095D01*
X81523809Y-66642857D01*
X81571428Y-66547619D01*
X81619047Y-66500000D01*
X81714285Y-66452380D01*
X81952380Y-66452380D01*
X82095238Y-66500000D01*
X82476190Y-66547619D02*
X82523809Y-66500000D01*
X82619047Y-66452380D01*
X82857142Y-66452380D01*
X82952380Y-66500000D01*
X83000000Y-66547619D01*
X83047619Y-66642857D01*
X83047619Y-66738095D01*
X83000000Y-66880952D01*
X82428571Y-67452380D01*
X83047619Y-67452380D01*
X83238095Y-67547619D02*
X84000000Y-67547619D01*
X84714285Y-67452380D02*
X84238095Y-67452380D01*
X84238095Y-66452380D01*
X85190476Y-67452380D02*
X85095238Y-67404761D01*
X85047619Y-67357142D01*
X85000000Y-67261904D01*
X85000000Y-66976190D01*
X85047619Y-66880952D01*
X85095238Y-66833333D01*
X85190476Y-66785714D01*
X85333333Y-66785714D01*
X85428571Y-66833333D01*
X85476190Y-66880952D01*
X85523809Y-66976190D01*
X85523809Y-67261904D01*
X85476190Y-67357142D01*
X85428571Y-67404761D01*
X85333333Y-67452380D01*
X85190476Y-67452380D01*
X86476190Y-67452380D02*
X85904761Y-67452380D01*
X86190476Y-67452380D02*
X86190476Y-66452380D01*
X86095238Y-66595238D01*
X86000000Y-66690476D01*
X85904761Y-66738095D01*
%TO.C,S2_Hi1*%
X93619047Y-67404761D02*
X93761904Y-67452380D01*
X94000000Y-67452380D01*
X94095238Y-67404761D01*
X94142857Y-67357142D01*
X94190476Y-67261904D01*
X94190476Y-67166666D01*
X94142857Y-67071428D01*
X94095238Y-67023809D01*
X94000000Y-66976190D01*
X93809523Y-66928571D01*
X93714285Y-66880952D01*
X93666666Y-66833333D01*
X93619047Y-66738095D01*
X93619047Y-66642857D01*
X93666666Y-66547619D01*
X93714285Y-66500000D01*
X93809523Y-66452380D01*
X94047619Y-66452380D01*
X94190476Y-66500000D01*
X94571428Y-66547619D02*
X94619047Y-66500000D01*
X94714285Y-66452380D01*
X94952380Y-66452380D01*
X95047619Y-66500000D01*
X95095238Y-66547619D01*
X95142857Y-66642857D01*
X95142857Y-66738095D01*
X95095238Y-66880952D01*
X94523809Y-67452380D01*
X95142857Y-67452380D01*
X95333333Y-67547619D02*
X96095238Y-67547619D01*
X96333333Y-67452380D02*
X96333333Y-66452380D01*
X96333333Y-66928571D02*
X96904761Y-66928571D01*
X96904761Y-67452380D02*
X96904761Y-66452380D01*
X97380952Y-67452380D02*
X97380952Y-66785714D01*
X97380952Y-66452380D02*
X97333333Y-66500000D01*
X97380952Y-66547619D01*
X97428571Y-66500000D01*
X97380952Y-66452380D01*
X97380952Y-66547619D01*
X98380952Y-67452380D02*
X97809523Y-67452380D01*
X98095238Y-67452380D02*
X98095238Y-66452380D01*
X98000000Y-66595238D01*
X97904761Y-66690476D01*
X97809523Y-66738095D01*
%TO.C,S1_Lo1*%
X81523809Y-59404761D02*
X81666666Y-59452380D01*
X81904761Y-59452380D01*
X82000000Y-59404761D01*
X82047619Y-59357142D01*
X82095238Y-59261904D01*
X82095238Y-59166666D01*
X82047619Y-59071428D01*
X82000000Y-59023809D01*
X81904761Y-58976190D01*
X81714285Y-58928571D01*
X81619047Y-58880952D01*
X81571428Y-58833333D01*
X81523809Y-58738095D01*
X81523809Y-58642857D01*
X81571428Y-58547619D01*
X81619047Y-58500000D01*
X81714285Y-58452380D01*
X81952380Y-58452380D01*
X82095238Y-58500000D01*
X83047619Y-59452380D02*
X82476190Y-59452380D01*
X82761904Y-59452380D02*
X82761904Y-58452380D01*
X82666666Y-58595238D01*
X82571428Y-58690476D01*
X82476190Y-58738095D01*
X83238095Y-59547619D02*
X84000000Y-59547619D01*
X84714285Y-59452380D02*
X84238095Y-59452380D01*
X84238095Y-58452380D01*
X85190476Y-59452380D02*
X85095238Y-59404761D01*
X85047619Y-59357142D01*
X85000000Y-59261904D01*
X85000000Y-58976190D01*
X85047619Y-58880952D01*
X85095238Y-58833333D01*
X85190476Y-58785714D01*
X85333333Y-58785714D01*
X85428571Y-58833333D01*
X85476190Y-58880952D01*
X85523809Y-58976190D01*
X85523809Y-59261904D01*
X85476190Y-59357142D01*
X85428571Y-59404761D01*
X85333333Y-59452380D01*
X85190476Y-59452380D01*
X86476190Y-59452380D02*
X85904761Y-59452380D01*
X86190476Y-59452380D02*
X86190476Y-58452380D01*
X86095238Y-58595238D01*
X86000000Y-58690476D01*
X85904761Y-58738095D01*
%TO.C,S1_Hi1*%
X93619047Y-59404761D02*
X93761904Y-59452380D01*
X94000000Y-59452380D01*
X94095238Y-59404761D01*
X94142857Y-59357142D01*
X94190476Y-59261904D01*
X94190476Y-59166666D01*
X94142857Y-59071428D01*
X94095238Y-59023809D01*
X94000000Y-58976190D01*
X93809523Y-58928571D01*
X93714285Y-58880952D01*
X93666666Y-58833333D01*
X93619047Y-58738095D01*
X93619047Y-58642857D01*
X93666666Y-58547619D01*
X93714285Y-58500000D01*
X93809523Y-58452380D01*
X94047619Y-58452380D01*
X94190476Y-58500000D01*
X95142857Y-59452380D02*
X94571428Y-59452380D01*
X94857142Y-59452380D02*
X94857142Y-58452380D01*
X94761904Y-58595238D01*
X94666666Y-58690476D01*
X94571428Y-58738095D01*
X95333333Y-59547619D02*
X96095238Y-59547619D01*
X96333333Y-59452380D02*
X96333333Y-58452380D01*
X96333333Y-58928571D02*
X96904761Y-58928571D01*
X96904761Y-59452380D02*
X96904761Y-58452380D01*
X97380952Y-59452380D02*
X97380952Y-58785714D01*
X97380952Y-58452380D02*
X97333333Y-58500000D01*
X97380952Y-58547619D01*
X97428571Y-58500000D01*
X97380952Y-58452380D01*
X97380952Y-58547619D01*
X98380952Y-59452380D02*
X97809523Y-59452380D01*
X98095238Y-59452380D02*
X98095238Y-58452380D01*
X98000000Y-58595238D01*
X97904761Y-58690476D01*
X97809523Y-58738095D01*
%TO.C,R4*%
X89833333Y-84202380D02*
X89500000Y-83726190D01*
X89261904Y-84202380D02*
X89261904Y-83202380D01*
X89642857Y-83202380D01*
X89738095Y-83250000D01*
X89785714Y-83297619D01*
X89833333Y-83392857D01*
X89833333Y-83535714D01*
X89785714Y-83630952D01*
X89738095Y-83678571D01*
X89642857Y-83726190D01*
X89261904Y-83726190D01*
X90690476Y-83535714D02*
X90690476Y-84202380D01*
X90452380Y-83154761D02*
X90214285Y-83869047D01*
X90833333Y-83869047D01*
%TO.C,R3*%
X89583333Y-76202380D02*
X89250000Y-75726190D01*
X89011904Y-76202380D02*
X89011904Y-75202380D01*
X89392857Y-75202380D01*
X89488095Y-75250000D01*
X89535714Y-75297619D01*
X89583333Y-75392857D01*
X89583333Y-75535714D01*
X89535714Y-75630952D01*
X89488095Y-75678571D01*
X89392857Y-75726190D01*
X89011904Y-75726190D01*
X89916666Y-75202380D02*
X90535714Y-75202380D01*
X90202380Y-75583333D01*
X90345238Y-75583333D01*
X90440476Y-75630952D01*
X90488095Y-75678571D01*
X90535714Y-75773809D01*
X90535714Y-76011904D01*
X90488095Y-76107142D01*
X90440476Y-76154761D01*
X90345238Y-76202380D01*
X90059523Y-76202380D01*
X89964285Y-76154761D01*
X89916666Y-76107142D01*
%TO.C,R2*%
X89833333Y-68202380D02*
X89500000Y-67726190D01*
X89261904Y-68202380D02*
X89261904Y-67202380D01*
X89642857Y-67202380D01*
X89738095Y-67250000D01*
X89785714Y-67297619D01*
X89833333Y-67392857D01*
X89833333Y-67535714D01*
X89785714Y-67630952D01*
X89738095Y-67678571D01*
X89642857Y-67726190D01*
X89261904Y-67726190D01*
X90214285Y-67297619D02*
X90261904Y-67250000D01*
X90357142Y-67202380D01*
X90595238Y-67202380D01*
X90690476Y-67250000D01*
X90738095Y-67297619D01*
X90785714Y-67392857D01*
X90785714Y-67488095D01*
X90738095Y-67630952D01*
X90166666Y-68202380D01*
X90785714Y-68202380D01*
%TO.C,R1*%
X89833333Y-60202380D02*
X89500000Y-59726190D01*
X89261904Y-60202380D02*
X89261904Y-59202380D01*
X89642857Y-59202380D01*
X89738095Y-59250000D01*
X89785714Y-59297619D01*
X89833333Y-59392857D01*
X89833333Y-59535714D01*
X89785714Y-59630952D01*
X89738095Y-59678571D01*
X89642857Y-59726190D01*
X89261904Y-59726190D01*
X90785714Y-60202380D02*
X90214285Y-60202380D01*
X90500000Y-60202380D02*
X90500000Y-59202380D01*
X90404761Y-59345238D01*
X90309523Y-59440476D01*
X90214285Y-59488095D01*
%TO.C,C4*%
X76583333Y-86107142D02*
X76535714Y-86154761D01*
X76392857Y-86202380D01*
X76297619Y-86202380D01*
X76154761Y-86154761D01*
X76059523Y-86059523D01*
X76011904Y-85964285D01*
X75964285Y-85773809D01*
X75964285Y-85630952D01*
X76011904Y-85440476D01*
X76059523Y-85345238D01*
X76154761Y-85250000D01*
X76297619Y-85202380D01*
X76392857Y-85202380D01*
X76535714Y-85250000D01*
X76583333Y-85297619D01*
X77440476Y-85535714D02*
X77440476Y-86202380D01*
X77202380Y-85154761D02*
X76964285Y-85869047D01*
X77583333Y-85869047D01*
%TO.C,C3*%
X76583333Y-80107142D02*
X76535714Y-80154761D01*
X76392857Y-80202380D01*
X76297619Y-80202380D01*
X76154761Y-80154761D01*
X76059523Y-80059523D01*
X76011904Y-79964285D01*
X75964285Y-79773809D01*
X75964285Y-79630952D01*
X76011904Y-79440476D01*
X76059523Y-79345238D01*
X76154761Y-79250000D01*
X76297619Y-79202380D01*
X76392857Y-79202380D01*
X76535714Y-79250000D01*
X76583333Y-79297619D01*
X76916666Y-79202380D02*
X77535714Y-79202380D01*
X77202380Y-79583333D01*
X77345238Y-79583333D01*
X77440476Y-79630952D01*
X77488095Y-79678571D01*
X77535714Y-79773809D01*
X77535714Y-80011904D01*
X77488095Y-80107142D01*
X77440476Y-80154761D01*
X77345238Y-80202380D01*
X77059523Y-80202380D01*
X76964285Y-80154761D01*
X76916666Y-80107142D01*
%TO.C,C2*%
X76333333Y-72107142D02*
X76285714Y-72154761D01*
X76142857Y-72202380D01*
X76047619Y-72202380D01*
X75904761Y-72154761D01*
X75809523Y-72059523D01*
X75761904Y-71964285D01*
X75714285Y-71773809D01*
X75714285Y-71630952D01*
X75761904Y-71440476D01*
X75809523Y-71345238D01*
X75904761Y-71250000D01*
X76047619Y-71202380D01*
X76142857Y-71202380D01*
X76285714Y-71250000D01*
X76333333Y-71297619D01*
X76714285Y-71297619D02*
X76761904Y-71250000D01*
X76857142Y-71202380D01*
X77095238Y-71202380D01*
X77190476Y-71250000D01*
X77238095Y-71297619D01*
X77285714Y-71392857D01*
X77285714Y-71488095D01*
X77238095Y-71630952D01*
X76666666Y-72202380D01*
X77285714Y-72202380D01*
%TO.C,C1*%
X76333333Y-66107142D02*
X76285714Y-66154761D01*
X76142857Y-66202380D01*
X76047619Y-66202380D01*
X75904761Y-66154761D01*
X75809523Y-66059523D01*
X75761904Y-65964285D01*
X75714285Y-65773809D01*
X75714285Y-65630952D01*
X75761904Y-65440476D01*
X75809523Y-65345238D01*
X75904761Y-65250000D01*
X76047619Y-65202380D01*
X76142857Y-65202380D01*
X76285714Y-65250000D01*
X76333333Y-65297619D01*
X77285714Y-66202380D02*
X76714285Y-66202380D01*
X77000000Y-66202380D02*
X77000000Y-65202380D01*
X76904761Y-65345238D01*
X76809523Y-65440476D01*
X76714285Y-65488095D01*
%TD*%
M02*
