%TF.GenerationSoftware,KiCad,Pcbnew,(5.1.6)-1*%
%TF.CreationDate,2021-10-10T19:01:51-07:00*%
%TF.ProjectId,PV Panel Monitor,50562050-616e-4656-9c20-4d6f6e69746f,rev?*%
%TF.SameCoordinates,Original*%
%TF.FileFunction,Paste,Top*%
%TF.FilePolarity,Positive*%
%FSLAX46Y46*%
G04 Gerber Fmt 4.6, Leading zero omitted, Abs format (unit mm)*
G04 Created by KiCad (PCBNEW (5.1.6)-1) date 2021-10-10 19:01:51*
%MOMM*%
%LPD*%
G01*
G04 APERTURE LIST*
%ADD10R,1.400000X0.300000*%
%ADD11R,1.010000X0.762000*%
%ADD12R,1.010000X2.287000*%
G04 APERTURE END LIST*
%TO.C,C19*%
G36*
G01*
X52500000Y-78325000D02*
X53000000Y-78325000D01*
G75*
G02*
X53225000Y-78550000I0J-225000D01*
G01*
X53225000Y-79000000D01*
G75*
G02*
X53000000Y-79225000I-225000J0D01*
G01*
X52500000Y-79225000D01*
G75*
G02*
X52275000Y-79000000I0J225000D01*
G01*
X52275000Y-78550000D01*
G75*
G02*
X52500000Y-78325000I225000J0D01*
G01*
G37*
G36*
G01*
X52500000Y-76775000D02*
X53000000Y-76775000D01*
G75*
G02*
X53225000Y-77000000I0J-225000D01*
G01*
X53225000Y-77450000D01*
G75*
G02*
X53000000Y-77675000I-225000J0D01*
G01*
X52500000Y-77675000D01*
G75*
G02*
X52275000Y-77450000I0J225000D01*
G01*
X52275000Y-77000000D01*
G75*
G02*
X52500000Y-76775000I225000J0D01*
G01*
G37*
%TD*%
D10*
%TO.C,U4*%
X76200000Y-82000000D03*
X76200000Y-82500000D03*
X76200000Y-83000000D03*
X76200000Y-83500000D03*
X76200000Y-84000000D03*
X71800000Y-84000000D03*
X71800000Y-83500000D03*
X71800000Y-83000000D03*
X71800000Y-82500000D03*
X71800000Y-82000000D03*
%TD*%
%TO.C,U3*%
X76200000Y-76000000D03*
X76200000Y-76500000D03*
X76200000Y-77000000D03*
X76200000Y-77500000D03*
X76200000Y-78000000D03*
X71800000Y-78000000D03*
X71800000Y-77500000D03*
X71800000Y-77000000D03*
X71800000Y-76500000D03*
X71800000Y-76000000D03*
%TD*%
%TO.C,U1*%
X76200000Y-62000000D03*
X76200000Y-62500000D03*
X76200000Y-63000000D03*
X76200000Y-63500000D03*
X76200000Y-64000000D03*
X71800000Y-64000000D03*
X71800000Y-63500000D03*
X71800000Y-63000000D03*
X71800000Y-62500000D03*
X71800000Y-62000000D03*
%TD*%
%TO.C,R20*%
G36*
G01*
X68975000Y-61175000D02*
X69525000Y-61175000D01*
G75*
G02*
X69725000Y-61375000I0J-200000D01*
G01*
X69725000Y-61775000D01*
G75*
G02*
X69525000Y-61975000I-200000J0D01*
G01*
X68975000Y-61975000D01*
G75*
G02*
X68775000Y-61775000I0J200000D01*
G01*
X68775000Y-61375000D01*
G75*
G02*
X68975000Y-61175000I200000J0D01*
G01*
G37*
G36*
G01*
X68975000Y-59525000D02*
X69525000Y-59525000D01*
G75*
G02*
X69725000Y-59725000I0J-200000D01*
G01*
X69725000Y-60125000D01*
G75*
G02*
X69525000Y-60325000I-200000J0D01*
G01*
X68975000Y-60325000D01*
G75*
G02*
X68775000Y-60125000I0J200000D01*
G01*
X68775000Y-59725000D01*
G75*
G02*
X68975000Y-59525000I200000J0D01*
G01*
G37*
%TD*%
%TO.C,R19*%
G36*
G01*
X66975000Y-64175000D02*
X67525000Y-64175000D01*
G75*
G02*
X67725000Y-64375000I0J-200000D01*
G01*
X67725000Y-64775000D01*
G75*
G02*
X67525000Y-64975000I-200000J0D01*
G01*
X66975000Y-64975000D01*
G75*
G02*
X66775000Y-64775000I0J200000D01*
G01*
X66775000Y-64375000D01*
G75*
G02*
X66975000Y-64175000I200000J0D01*
G01*
G37*
G36*
G01*
X66975000Y-62525000D02*
X67525000Y-62525000D01*
G75*
G02*
X67725000Y-62725000I0J-200000D01*
G01*
X67725000Y-63125000D01*
G75*
G02*
X67525000Y-63325000I-200000J0D01*
G01*
X66975000Y-63325000D01*
G75*
G02*
X66775000Y-63125000I0J200000D01*
G01*
X66775000Y-62725000D01*
G75*
G02*
X66975000Y-62525000I200000J0D01*
G01*
G37*
%TD*%
%TO.C,U2*%
X76200000Y-68000000D03*
X76200000Y-68500000D03*
X76200000Y-69000000D03*
X76200000Y-69500000D03*
X76200000Y-70000000D03*
X71800000Y-70000000D03*
X71800000Y-69500000D03*
X71800000Y-69000000D03*
X71800000Y-68500000D03*
X71800000Y-68000000D03*
%TD*%
%TO.C,C21*%
G36*
G01*
X55100000Y-82849999D02*
X55100000Y-84150001D01*
G75*
G02*
X54850001Y-84400000I-249999J0D01*
G01*
X54199999Y-84400000D01*
G75*
G02*
X53950000Y-84150001I0J249999D01*
G01*
X53950000Y-82849999D01*
G75*
G02*
X54199999Y-82600000I249999J0D01*
G01*
X54850001Y-82600000D01*
G75*
G02*
X55100000Y-82849999I0J-249999D01*
G01*
G37*
G36*
G01*
X58050000Y-82849999D02*
X58050000Y-84150001D01*
G75*
G02*
X57800001Y-84400000I-249999J0D01*
G01*
X57149999Y-84400000D01*
G75*
G02*
X56900000Y-84150001I0J249999D01*
G01*
X56900000Y-82849999D01*
G75*
G02*
X57149999Y-82600000I249999J0D01*
G01*
X57800001Y-82600000D01*
G75*
G02*
X58050000Y-82849999I0J-249999D01*
G01*
G37*
%TD*%
%TO.C,C20*%
G36*
G01*
X62650000Y-84150001D02*
X62650000Y-82849999D01*
G75*
G02*
X62899999Y-82600000I249999J0D01*
G01*
X63550001Y-82600000D01*
G75*
G02*
X63800000Y-82849999I0J-249999D01*
G01*
X63800000Y-84150001D01*
G75*
G02*
X63550001Y-84400000I-249999J0D01*
G01*
X62899999Y-84400000D01*
G75*
G02*
X62650000Y-84150001I0J249999D01*
G01*
G37*
G36*
G01*
X59700000Y-84150001D02*
X59700000Y-82849999D01*
G75*
G02*
X59949999Y-82600000I249999J0D01*
G01*
X60600001Y-82600000D01*
G75*
G02*
X60850000Y-82849999I0J-249999D01*
G01*
X60850000Y-84150001D01*
G75*
G02*
X60600001Y-84400000I-249999J0D01*
G01*
X59949999Y-84400000D01*
G75*
G02*
X59700000Y-84150001I0J249999D01*
G01*
G37*
%TD*%
%TO.C,U5*%
G36*
G01*
X65325000Y-90875000D02*
X65125000Y-90875000D01*
G75*
G02*
X65025000Y-90775000I0J100000D01*
G01*
X65025000Y-89500000D01*
G75*
G02*
X65125000Y-89400000I100000J0D01*
G01*
X65325000Y-89400000D01*
G75*
G02*
X65425000Y-89500000I0J-100000D01*
G01*
X65425000Y-90775000D01*
G75*
G02*
X65325000Y-90875000I-100000J0D01*
G01*
G37*
G36*
G01*
X65975000Y-90875000D02*
X65775000Y-90875000D01*
G75*
G02*
X65675000Y-90775000I0J100000D01*
G01*
X65675000Y-89500000D01*
G75*
G02*
X65775000Y-89400000I100000J0D01*
G01*
X65975000Y-89400000D01*
G75*
G02*
X66075000Y-89500000I0J-100000D01*
G01*
X66075000Y-90775000D01*
G75*
G02*
X65975000Y-90875000I-100000J0D01*
G01*
G37*
G36*
G01*
X66625000Y-90875000D02*
X66425000Y-90875000D01*
G75*
G02*
X66325000Y-90775000I0J100000D01*
G01*
X66325000Y-89500000D01*
G75*
G02*
X66425000Y-89400000I100000J0D01*
G01*
X66625000Y-89400000D01*
G75*
G02*
X66725000Y-89500000I0J-100000D01*
G01*
X66725000Y-90775000D01*
G75*
G02*
X66625000Y-90875000I-100000J0D01*
G01*
G37*
G36*
G01*
X67275000Y-90875000D02*
X67075000Y-90875000D01*
G75*
G02*
X66975000Y-90775000I0J100000D01*
G01*
X66975000Y-89500000D01*
G75*
G02*
X67075000Y-89400000I100000J0D01*
G01*
X67275000Y-89400000D01*
G75*
G02*
X67375000Y-89500000I0J-100000D01*
G01*
X67375000Y-90775000D01*
G75*
G02*
X67275000Y-90875000I-100000J0D01*
G01*
G37*
G36*
G01*
X67925000Y-90875000D02*
X67725000Y-90875000D01*
G75*
G02*
X67625000Y-90775000I0J100000D01*
G01*
X67625000Y-89500000D01*
G75*
G02*
X67725000Y-89400000I100000J0D01*
G01*
X67925000Y-89400000D01*
G75*
G02*
X68025000Y-89500000I0J-100000D01*
G01*
X68025000Y-90775000D01*
G75*
G02*
X67925000Y-90875000I-100000J0D01*
G01*
G37*
G36*
G01*
X68575000Y-90875000D02*
X68375000Y-90875000D01*
G75*
G02*
X68275000Y-90775000I0J100000D01*
G01*
X68275000Y-89500000D01*
G75*
G02*
X68375000Y-89400000I100000J0D01*
G01*
X68575000Y-89400000D01*
G75*
G02*
X68675000Y-89500000I0J-100000D01*
G01*
X68675000Y-90775000D01*
G75*
G02*
X68575000Y-90875000I-100000J0D01*
G01*
G37*
G36*
G01*
X69225000Y-90875000D02*
X69025000Y-90875000D01*
G75*
G02*
X68925000Y-90775000I0J100000D01*
G01*
X68925000Y-89500000D01*
G75*
G02*
X69025000Y-89400000I100000J0D01*
G01*
X69225000Y-89400000D01*
G75*
G02*
X69325000Y-89500000I0J-100000D01*
G01*
X69325000Y-90775000D01*
G75*
G02*
X69225000Y-90875000I-100000J0D01*
G01*
G37*
G36*
G01*
X69875000Y-90875000D02*
X69675000Y-90875000D01*
G75*
G02*
X69575000Y-90775000I0J100000D01*
G01*
X69575000Y-89500000D01*
G75*
G02*
X69675000Y-89400000I100000J0D01*
G01*
X69875000Y-89400000D01*
G75*
G02*
X69975000Y-89500000I0J-100000D01*
G01*
X69975000Y-90775000D01*
G75*
G02*
X69875000Y-90875000I-100000J0D01*
G01*
G37*
G36*
G01*
X69875000Y-96600000D02*
X69675000Y-96600000D01*
G75*
G02*
X69575000Y-96500000I0J100000D01*
G01*
X69575000Y-95225000D01*
G75*
G02*
X69675000Y-95125000I100000J0D01*
G01*
X69875000Y-95125000D01*
G75*
G02*
X69975000Y-95225000I0J-100000D01*
G01*
X69975000Y-96500000D01*
G75*
G02*
X69875000Y-96600000I-100000J0D01*
G01*
G37*
G36*
G01*
X69225000Y-96600000D02*
X69025000Y-96600000D01*
G75*
G02*
X68925000Y-96500000I0J100000D01*
G01*
X68925000Y-95225000D01*
G75*
G02*
X69025000Y-95125000I100000J0D01*
G01*
X69225000Y-95125000D01*
G75*
G02*
X69325000Y-95225000I0J-100000D01*
G01*
X69325000Y-96500000D01*
G75*
G02*
X69225000Y-96600000I-100000J0D01*
G01*
G37*
G36*
G01*
X68575000Y-96600000D02*
X68375000Y-96600000D01*
G75*
G02*
X68275000Y-96500000I0J100000D01*
G01*
X68275000Y-95225000D01*
G75*
G02*
X68375000Y-95125000I100000J0D01*
G01*
X68575000Y-95125000D01*
G75*
G02*
X68675000Y-95225000I0J-100000D01*
G01*
X68675000Y-96500000D01*
G75*
G02*
X68575000Y-96600000I-100000J0D01*
G01*
G37*
G36*
G01*
X67925000Y-96600000D02*
X67725000Y-96600000D01*
G75*
G02*
X67625000Y-96500000I0J100000D01*
G01*
X67625000Y-95225000D01*
G75*
G02*
X67725000Y-95125000I100000J0D01*
G01*
X67925000Y-95125000D01*
G75*
G02*
X68025000Y-95225000I0J-100000D01*
G01*
X68025000Y-96500000D01*
G75*
G02*
X67925000Y-96600000I-100000J0D01*
G01*
G37*
G36*
G01*
X67275000Y-96600000D02*
X67075000Y-96600000D01*
G75*
G02*
X66975000Y-96500000I0J100000D01*
G01*
X66975000Y-95225000D01*
G75*
G02*
X67075000Y-95125000I100000J0D01*
G01*
X67275000Y-95125000D01*
G75*
G02*
X67375000Y-95225000I0J-100000D01*
G01*
X67375000Y-96500000D01*
G75*
G02*
X67275000Y-96600000I-100000J0D01*
G01*
G37*
G36*
G01*
X66625000Y-96600000D02*
X66425000Y-96600000D01*
G75*
G02*
X66325000Y-96500000I0J100000D01*
G01*
X66325000Y-95225000D01*
G75*
G02*
X66425000Y-95125000I100000J0D01*
G01*
X66625000Y-95125000D01*
G75*
G02*
X66725000Y-95225000I0J-100000D01*
G01*
X66725000Y-96500000D01*
G75*
G02*
X66625000Y-96600000I-100000J0D01*
G01*
G37*
G36*
G01*
X65975000Y-96600000D02*
X65775000Y-96600000D01*
G75*
G02*
X65675000Y-96500000I0J100000D01*
G01*
X65675000Y-95225000D01*
G75*
G02*
X65775000Y-95125000I100000J0D01*
G01*
X65975000Y-95125000D01*
G75*
G02*
X66075000Y-95225000I0J-100000D01*
G01*
X66075000Y-96500000D01*
G75*
G02*
X65975000Y-96600000I-100000J0D01*
G01*
G37*
G36*
G01*
X65325000Y-96600000D02*
X65125000Y-96600000D01*
G75*
G02*
X65025000Y-96500000I0J100000D01*
G01*
X65025000Y-95225000D01*
G75*
G02*
X65125000Y-95125000I100000J0D01*
G01*
X65325000Y-95125000D01*
G75*
G02*
X65425000Y-95225000I0J-100000D01*
G01*
X65425000Y-96500000D01*
G75*
G02*
X65325000Y-96600000I-100000J0D01*
G01*
G37*
%TD*%
%TO.C,U6*%
G36*
G01*
X61550000Y-75200000D02*
X61550000Y-74950000D01*
G75*
G02*
X61675000Y-74825000I125000J0D01*
G01*
X63325000Y-74825000D01*
G75*
G02*
X63450000Y-74950000I0J-125000D01*
G01*
X63450000Y-75200000D01*
G75*
G02*
X63325000Y-75325000I-125000J0D01*
G01*
X61675000Y-75325000D01*
G75*
G02*
X61550000Y-75200000I0J125000D01*
G01*
G37*
G36*
G01*
X61550000Y-75850000D02*
X61550000Y-75600000D01*
G75*
G02*
X61675000Y-75475000I125000J0D01*
G01*
X63325000Y-75475000D01*
G75*
G02*
X63450000Y-75600000I0J-125000D01*
G01*
X63450000Y-75850000D01*
G75*
G02*
X63325000Y-75975000I-125000J0D01*
G01*
X61675000Y-75975000D01*
G75*
G02*
X61550000Y-75850000I0J125000D01*
G01*
G37*
G36*
G01*
X61550000Y-76500000D02*
X61550000Y-76250000D01*
G75*
G02*
X61675000Y-76125000I125000J0D01*
G01*
X63325000Y-76125000D01*
G75*
G02*
X63450000Y-76250000I0J-125000D01*
G01*
X63450000Y-76500000D01*
G75*
G02*
X63325000Y-76625000I-125000J0D01*
G01*
X61675000Y-76625000D01*
G75*
G02*
X61550000Y-76500000I0J125000D01*
G01*
G37*
G36*
G01*
X61550000Y-77150000D02*
X61550000Y-76900000D01*
G75*
G02*
X61675000Y-76775000I125000J0D01*
G01*
X63325000Y-76775000D01*
G75*
G02*
X63450000Y-76900000I0J-125000D01*
G01*
X63450000Y-77150000D01*
G75*
G02*
X63325000Y-77275000I-125000J0D01*
G01*
X61675000Y-77275000D01*
G75*
G02*
X61550000Y-77150000I0J125000D01*
G01*
G37*
G36*
G01*
X61550000Y-77800000D02*
X61550000Y-77550000D01*
G75*
G02*
X61675000Y-77425000I125000J0D01*
G01*
X63325000Y-77425000D01*
G75*
G02*
X63450000Y-77550000I0J-125000D01*
G01*
X63450000Y-77800000D01*
G75*
G02*
X63325000Y-77925000I-125000J0D01*
G01*
X61675000Y-77925000D01*
G75*
G02*
X61550000Y-77800000I0J125000D01*
G01*
G37*
G36*
G01*
X61550000Y-78450000D02*
X61550000Y-78200000D01*
G75*
G02*
X61675000Y-78075000I125000J0D01*
G01*
X63325000Y-78075000D01*
G75*
G02*
X63450000Y-78200000I0J-125000D01*
G01*
X63450000Y-78450000D01*
G75*
G02*
X63325000Y-78575000I-125000J0D01*
G01*
X61675000Y-78575000D01*
G75*
G02*
X61550000Y-78450000I0J125000D01*
G01*
G37*
G36*
G01*
X61550000Y-79100000D02*
X61550000Y-78850000D01*
G75*
G02*
X61675000Y-78725000I125000J0D01*
G01*
X63325000Y-78725000D01*
G75*
G02*
X63450000Y-78850000I0J-125000D01*
G01*
X63450000Y-79100000D01*
G75*
G02*
X63325000Y-79225000I-125000J0D01*
G01*
X61675000Y-79225000D01*
G75*
G02*
X61550000Y-79100000I0J125000D01*
G01*
G37*
G36*
G01*
X61550000Y-79750000D02*
X61550000Y-79500000D01*
G75*
G02*
X61675000Y-79375000I125000J0D01*
G01*
X63325000Y-79375000D01*
G75*
G02*
X63450000Y-79500000I0J-125000D01*
G01*
X63450000Y-79750000D01*
G75*
G02*
X63325000Y-79875000I-125000J0D01*
G01*
X61675000Y-79875000D01*
G75*
G02*
X61550000Y-79750000I0J125000D01*
G01*
G37*
G36*
G01*
X61550000Y-80400000D02*
X61550000Y-80150000D01*
G75*
G02*
X61675000Y-80025000I125000J0D01*
G01*
X63325000Y-80025000D01*
G75*
G02*
X63450000Y-80150000I0J-125000D01*
G01*
X63450000Y-80400000D01*
G75*
G02*
X63325000Y-80525000I-125000J0D01*
G01*
X61675000Y-80525000D01*
G75*
G02*
X61550000Y-80400000I0J125000D01*
G01*
G37*
G36*
G01*
X61550000Y-81050000D02*
X61550000Y-80800000D01*
G75*
G02*
X61675000Y-80675000I125000J0D01*
G01*
X63325000Y-80675000D01*
G75*
G02*
X63450000Y-80800000I0J-125000D01*
G01*
X63450000Y-81050000D01*
G75*
G02*
X63325000Y-81175000I-125000J0D01*
G01*
X61675000Y-81175000D01*
G75*
G02*
X61550000Y-81050000I0J125000D01*
G01*
G37*
G36*
G01*
X54550000Y-81050000D02*
X54550000Y-80800000D01*
G75*
G02*
X54675000Y-80675000I125000J0D01*
G01*
X56325000Y-80675000D01*
G75*
G02*
X56450000Y-80800000I0J-125000D01*
G01*
X56450000Y-81050000D01*
G75*
G02*
X56325000Y-81175000I-125000J0D01*
G01*
X54675000Y-81175000D01*
G75*
G02*
X54550000Y-81050000I0J125000D01*
G01*
G37*
G36*
G01*
X54550000Y-80400000D02*
X54550000Y-80150000D01*
G75*
G02*
X54675000Y-80025000I125000J0D01*
G01*
X56325000Y-80025000D01*
G75*
G02*
X56450000Y-80150000I0J-125000D01*
G01*
X56450000Y-80400000D01*
G75*
G02*
X56325000Y-80525000I-125000J0D01*
G01*
X54675000Y-80525000D01*
G75*
G02*
X54550000Y-80400000I0J125000D01*
G01*
G37*
G36*
G01*
X54550000Y-79750000D02*
X54550000Y-79500000D01*
G75*
G02*
X54675000Y-79375000I125000J0D01*
G01*
X56325000Y-79375000D01*
G75*
G02*
X56450000Y-79500000I0J-125000D01*
G01*
X56450000Y-79750000D01*
G75*
G02*
X56325000Y-79875000I-125000J0D01*
G01*
X54675000Y-79875000D01*
G75*
G02*
X54550000Y-79750000I0J125000D01*
G01*
G37*
G36*
G01*
X54550000Y-79100000D02*
X54550000Y-78850000D01*
G75*
G02*
X54675000Y-78725000I125000J0D01*
G01*
X56325000Y-78725000D01*
G75*
G02*
X56450000Y-78850000I0J-125000D01*
G01*
X56450000Y-79100000D01*
G75*
G02*
X56325000Y-79225000I-125000J0D01*
G01*
X54675000Y-79225000D01*
G75*
G02*
X54550000Y-79100000I0J125000D01*
G01*
G37*
G36*
G01*
X54550000Y-78450000D02*
X54550000Y-78200000D01*
G75*
G02*
X54675000Y-78075000I125000J0D01*
G01*
X56325000Y-78075000D01*
G75*
G02*
X56450000Y-78200000I0J-125000D01*
G01*
X56450000Y-78450000D01*
G75*
G02*
X56325000Y-78575000I-125000J0D01*
G01*
X54675000Y-78575000D01*
G75*
G02*
X54550000Y-78450000I0J125000D01*
G01*
G37*
G36*
G01*
X54550000Y-77800000D02*
X54550000Y-77550000D01*
G75*
G02*
X54675000Y-77425000I125000J0D01*
G01*
X56325000Y-77425000D01*
G75*
G02*
X56450000Y-77550000I0J-125000D01*
G01*
X56450000Y-77800000D01*
G75*
G02*
X56325000Y-77925000I-125000J0D01*
G01*
X54675000Y-77925000D01*
G75*
G02*
X54550000Y-77800000I0J125000D01*
G01*
G37*
G36*
G01*
X54550000Y-77150000D02*
X54550000Y-76900000D01*
G75*
G02*
X54675000Y-76775000I125000J0D01*
G01*
X56325000Y-76775000D01*
G75*
G02*
X56450000Y-76900000I0J-125000D01*
G01*
X56450000Y-77150000D01*
G75*
G02*
X56325000Y-77275000I-125000J0D01*
G01*
X54675000Y-77275000D01*
G75*
G02*
X54550000Y-77150000I0J125000D01*
G01*
G37*
G36*
G01*
X54550000Y-76500000D02*
X54550000Y-76250000D01*
G75*
G02*
X54675000Y-76125000I125000J0D01*
G01*
X56325000Y-76125000D01*
G75*
G02*
X56450000Y-76250000I0J-125000D01*
G01*
X56450000Y-76500000D01*
G75*
G02*
X56325000Y-76625000I-125000J0D01*
G01*
X54675000Y-76625000D01*
G75*
G02*
X54550000Y-76500000I0J125000D01*
G01*
G37*
G36*
G01*
X54550000Y-75850000D02*
X54550000Y-75600000D01*
G75*
G02*
X54675000Y-75475000I125000J0D01*
G01*
X56325000Y-75475000D01*
G75*
G02*
X56450000Y-75600000I0J-125000D01*
G01*
X56450000Y-75850000D01*
G75*
G02*
X56325000Y-75975000I-125000J0D01*
G01*
X54675000Y-75975000D01*
G75*
G02*
X54550000Y-75850000I0J125000D01*
G01*
G37*
G36*
G01*
X54550000Y-75200000D02*
X54550000Y-74950000D01*
G75*
G02*
X54675000Y-74825000I125000J0D01*
G01*
X56325000Y-74825000D01*
G75*
G02*
X56450000Y-74950000I0J-125000D01*
G01*
X56450000Y-75200000D01*
G75*
G02*
X56325000Y-75325000I-125000J0D01*
G01*
X54675000Y-75325000D01*
G75*
G02*
X54550000Y-75200000I0J125000D01*
G01*
G37*
%TD*%
%TO.C,R18*%
G36*
G01*
X67425000Y-80525000D02*
X67425000Y-79975000D01*
G75*
G02*
X67625000Y-79775000I200000J0D01*
G01*
X68025000Y-79775000D01*
G75*
G02*
X68225000Y-79975000I0J-200000D01*
G01*
X68225000Y-80525000D01*
G75*
G02*
X68025000Y-80725000I-200000J0D01*
G01*
X67625000Y-80725000D01*
G75*
G02*
X67425000Y-80525000I0J200000D01*
G01*
G37*
G36*
G01*
X65775000Y-80525000D02*
X65775000Y-79975000D01*
G75*
G02*
X65975000Y-79775000I200000J0D01*
G01*
X66375000Y-79775000D01*
G75*
G02*
X66575000Y-79975000I0J-200000D01*
G01*
X66575000Y-80525000D01*
G75*
G02*
X66375000Y-80725000I-200000J0D01*
G01*
X65975000Y-80725000D01*
G75*
G02*
X65775000Y-80525000I0J200000D01*
G01*
G37*
%TD*%
%TO.C,R17*%
G36*
G01*
X66575000Y-77975000D02*
X66575000Y-78525000D01*
G75*
G02*
X66375000Y-78725000I-200000J0D01*
G01*
X65975000Y-78725000D01*
G75*
G02*
X65775000Y-78525000I0J200000D01*
G01*
X65775000Y-77975000D01*
G75*
G02*
X65975000Y-77775000I200000J0D01*
G01*
X66375000Y-77775000D01*
G75*
G02*
X66575000Y-77975000I0J-200000D01*
G01*
G37*
G36*
G01*
X68225000Y-77975000D02*
X68225000Y-78525000D01*
G75*
G02*
X68025000Y-78725000I-200000J0D01*
G01*
X67625000Y-78725000D01*
G75*
G02*
X67425000Y-78525000I0J200000D01*
G01*
X67425000Y-77975000D01*
G75*
G02*
X67625000Y-77775000I200000J0D01*
G01*
X68025000Y-77775000D01*
G75*
G02*
X68225000Y-77975000I0J-200000D01*
G01*
G37*
%TD*%
%TO.C,C18*%
G36*
G01*
X64500000Y-78100000D02*
X65000000Y-78100000D01*
G75*
G02*
X65225000Y-78325000I0J-225000D01*
G01*
X65225000Y-78775000D01*
G75*
G02*
X65000000Y-79000000I-225000J0D01*
G01*
X64500000Y-79000000D01*
G75*
G02*
X64275000Y-78775000I0J225000D01*
G01*
X64275000Y-78325000D01*
G75*
G02*
X64500000Y-78100000I225000J0D01*
G01*
G37*
G36*
G01*
X64500000Y-76550000D02*
X65000000Y-76550000D01*
G75*
G02*
X65225000Y-76775000I0J-225000D01*
G01*
X65225000Y-77225000D01*
G75*
G02*
X65000000Y-77450000I-225000J0D01*
G01*
X64500000Y-77450000D01*
G75*
G02*
X64275000Y-77225000I0J225000D01*
G01*
X64275000Y-76775000D01*
G75*
G02*
X64500000Y-76550000I225000J0D01*
G01*
G37*
%TD*%
%TO.C,C17*%
G36*
G01*
X64250000Y-81575000D02*
X64750000Y-81575000D01*
G75*
G02*
X64975000Y-81800000I0J-225000D01*
G01*
X64975000Y-82250000D01*
G75*
G02*
X64750000Y-82475000I-225000J0D01*
G01*
X64250000Y-82475000D01*
G75*
G02*
X64025000Y-82250000I0J225000D01*
G01*
X64025000Y-81800000D01*
G75*
G02*
X64250000Y-81575000I225000J0D01*
G01*
G37*
G36*
G01*
X64250000Y-80025000D02*
X64750000Y-80025000D01*
G75*
G02*
X64975000Y-80250000I0J-225000D01*
G01*
X64975000Y-80700000D01*
G75*
G02*
X64750000Y-80925000I-225000J0D01*
G01*
X64250000Y-80925000D01*
G75*
G02*
X64025000Y-80700000I0J225000D01*
G01*
X64025000Y-80250000D01*
G75*
G02*
X64250000Y-80025000I225000J0D01*
G01*
G37*
%TD*%
%TO.C,C16*%
G36*
G01*
X52500000Y-81325000D02*
X53000000Y-81325000D01*
G75*
G02*
X53225000Y-81550000I0J-225000D01*
G01*
X53225000Y-82000000D01*
G75*
G02*
X53000000Y-82225000I-225000J0D01*
G01*
X52500000Y-82225000D01*
G75*
G02*
X52275000Y-82000000I0J225000D01*
G01*
X52275000Y-81550000D01*
G75*
G02*
X52500000Y-81325000I225000J0D01*
G01*
G37*
G36*
G01*
X52500000Y-79775000D02*
X53000000Y-79775000D01*
G75*
G02*
X53225000Y-80000000I0J-225000D01*
G01*
X53225000Y-80450000D01*
G75*
G02*
X53000000Y-80675000I-225000J0D01*
G01*
X52500000Y-80675000D01*
G75*
G02*
X52275000Y-80450000I0J225000D01*
G01*
X52275000Y-80000000D01*
G75*
G02*
X52500000Y-79775000I225000J0D01*
G01*
G37*
%TD*%
%TO.C,R16*%
G36*
G01*
X75725000Y-91425000D02*
X76275000Y-91425000D01*
G75*
G02*
X76475000Y-91625000I0J-200000D01*
G01*
X76475000Y-92025000D01*
G75*
G02*
X76275000Y-92225000I-200000J0D01*
G01*
X75725000Y-92225000D01*
G75*
G02*
X75525000Y-92025000I0J200000D01*
G01*
X75525000Y-91625000D01*
G75*
G02*
X75725000Y-91425000I200000J0D01*
G01*
G37*
G36*
G01*
X75725000Y-89775000D02*
X76275000Y-89775000D01*
G75*
G02*
X76475000Y-89975000I0J-200000D01*
G01*
X76475000Y-90375000D01*
G75*
G02*
X76275000Y-90575000I-200000J0D01*
G01*
X75725000Y-90575000D01*
G75*
G02*
X75525000Y-90375000I0J200000D01*
G01*
X75525000Y-89975000D01*
G75*
G02*
X75725000Y-89775000I200000J0D01*
G01*
G37*
%TD*%
%TO.C,R15*%
G36*
G01*
X72725000Y-91425000D02*
X73275000Y-91425000D01*
G75*
G02*
X73475000Y-91625000I0J-200000D01*
G01*
X73475000Y-92025000D01*
G75*
G02*
X73275000Y-92225000I-200000J0D01*
G01*
X72725000Y-92225000D01*
G75*
G02*
X72525000Y-92025000I0J200000D01*
G01*
X72525000Y-91625000D01*
G75*
G02*
X72725000Y-91425000I200000J0D01*
G01*
G37*
G36*
G01*
X72725000Y-89775000D02*
X73275000Y-89775000D01*
G75*
G02*
X73475000Y-89975000I0J-200000D01*
G01*
X73475000Y-90375000D01*
G75*
G02*
X73275000Y-90575000I-200000J0D01*
G01*
X72725000Y-90575000D01*
G75*
G02*
X72525000Y-90375000I0J200000D01*
G01*
X72525000Y-89975000D01*
G75*
G02*
X72725000Y-89775000I200000J0D01*
G01*
G37*
%TD*%
%TO.C,R14*%
G36*
G01*
X73275000Y-94575000D02*
X72725000Y-94575000D01*
G75*
G02*
X72525000Y-94375000I0J200000D01*
G01*
X72525000Y-93975000D01*
G75*
G02*
X72725000Y-93775000I200000J0D01*
G01*
X73275000Y-93775000D01*
G75*
G02*
X73475000Y-93975000I0J-200000D01*
G01*
X73475000Y-94375000D01*
G75*
G02*
X73275000Y-94575000I-200000J0D01*
G01*
G37*
G36*
G01*
X73275000Y-96225000D02*
X72725000Y-96225000D01*
G75*
G02*
X72525000Y-96025000I0J200000D01*
G01*
X72525000Y-95625000D01*
G75*
G02*
X72725000Y-95425000I200000J0D01*
G01*
X73275000Y-95425000D01*
G75*
G02*
X73475000Y-95625000I0J-200000D01*
G01*
X73475000Y-96025000D01*
G75*
G02*
X73275000Y-96225000I-200000J0D01*
G01*
G37*
%TD*%
%TO.C,R13*%
G36*
G01*
X76275000Y-94575000D02*
X75725000Y-94575000D01*
G75*
G02*
X75525000Y-94375000I0J200000D01*
G01*
X75525000Y-93975000D01*
G75*
G02*
X75725000Y-93775000I200000J0D01*
G01*
X76275000Y-93775000D01*
G75*
G02*
X76475000Y-93975000I0J-200000D01*
G01*
X76475000Y-94375000D01*
G75*
G02*
X76275000Y-94575000I-200000J0D01*
G01*
G37*
G36*
G01*
X76275000Y-96225000D02*
X75725000Y-96225000D01*
G75*
G02*
X75525000Y-96025000I0J200000D01*
G01*
X75525000Y-95625000D01*
G75*
G02*
X75725000Y-95425000I200000J0D01*
G01*
X76275000Y-95425000D01*
G75*
G02*
X76475000Y-95625000I0J-200000D01*
G01*
X76475000Y-96025000D01*
G75*
G02*
X76275000Y-96225000I-200000J0D01*
G01*
G37*
%TD*%
%TO.C,R12*%
G36*
G01*
X81075000Y-92225000D02*
X81075000Y-92775000D01*
G75*
G02*
X80875000Y-92975000I-200000J0D01*
G01*
X80475000Y-92975000D01*
G75*
G02*
X80275000Y-92775000I0J200000D01*
G01*
X80275000Y-92225000D01*
G75*
G02*
X80475000Y-92025000I200000J0D01*
G01*
X80875000Y-92025000D01*
G75*
G02*
X81075000Y-92225000I0J-200000D01*
G01*
G37*
G36*
G01*
X82725000Y-92225000D02*
X82725000Y-92775000D01*
G75*
G02*
X82525000Y-92975000I-200000J0D01*
G01*
X82125000Y-92975000D01*
G75*
G02*
X81925000Y-92775000I0J200000D01*
G01*
X81925000Y-92225000D01*
G75*
G02*
X82125000Y-92025000I200000J0D01*
G01*
X82525000Y-92025000D01*
G75*
G02*
X82725000Y-92225000I0J-200000D01*
G01*
G37*
%TD*%
%TO.C,R11*%
G36*
G01*
X81075000Y-94225000D02*
X81075000Y-94775000D01*
G75*
G02*
X80875000Y-94975000I-200000J0D01*
G01*
X80475000Y-94975000D01*
G75*
G02*
X80275000Y-94775000I0J200000D01*
G01*
X80275000Y-94225000D01*
G75*
G02*
X80475000Y-94025000I200000J0D01*
G01*
X80875000Y-94025000D01*
G75*
G02*
X81075000Y-94225000I0J-200000D01*
G01*
G37*
G36*
G01*
X82725000Y-94225000D02*
X82725000Y-94775000D01*
G75*
G02*
X82525000Y-94975000I-200000J0D01*
G01*
X82125000Y-94975000D01*
G75*
G02*
X81925000Y-94775000I0J200000D01*
G01*
X81925000Y-94225000D01*
G75*
G02*
X82125000Y-94025000I200000J0D01*
G01*
X82525000Y-94025000D01*
G75*
G02*
X82725000Y-94225000I0J-200000D01*
G01*
G37*
%TD*%
%TO.C,R10*%
G36*
G01*
X81075000Y-96225000D02*
X81075000Y-96775000D01*
G75*
G02*
X80875000Y-96975000I-200000J0D01*
G01*
X80475000Y-96975000D01*
G75*
G02*
X80275000Y-96775000I0J200000D01*
G01*
X80275000Y-96225000D01*
G75*
G02*
X80475000Y-96025000I200000J0D01*
G01*
X80875000Y-96025000D01*
G75*
G02*
X81075000Y-96225000I0J-200000D01*
G01*
G37*
G36*
G01*
X82725000Y-96225000D02*
X82725000Y-96775000D01*
G75*
G02*
X82525000Y-96975000I-200000J0D01*
G01*
X82125000Y-96975000D01*
G75*
G02*
X81925000Y-96775000I0J200000D01*
G01*
X81925000Y-96225000D01*
G75*
G02*
X82125000Y-96025000I200000J0D01*
G01*
X82525000Y-96025000D01*
G75*
G02*
X82725000Y-96225000I0J-200000D01*
G01*
G37*
%TD*%
%TO.C,R9*%
G36*
G01*
X81075000Y-98225000D02*
X81075000Y-98775000D01*
G75*
G02*
X80875000Y-98975000I-200000J0D01*
G01*
X80475000Y-98975000D01*
G75*
G02*
X80275000Y-98775000I0J200000D01*
G01*
X80275000Y-98225000D01*
G75*
G02*
X80475000Y-98025000I200000J0D01*
G01*
X80875000Y-98025000D01*
G75*
G02*
X81075000Y-98225000I0J-200000D01*
G01*
G37*
G36*
G01*
X82725000Y-98225000D02*
X82725000Y-98775000D01*
G75*
G02*
X82525000Y-98975000I-200000J0D01*
G01*
X82125000Y-98975000D01*
G75*
G02*
X81925000Y-98775000I0J200000D01*
G01*
X81925000Y-98225000D01*
G75*
G02*
X82125000Y-98025000I200000J0D01*
G01*
X82525000Y-98025000D01*
G75*
G02*
X82725000Y-98225000I0J-200000D01*
G01*
G37*
%TD*%
%TO.C,R8*%
G36*
G01*
X84575000Y-92225000D02*
X84575000Y-92775000D01*
G75*
G02*
X84375000Y-92975000I-200000J0D01*
G01*
X83975000Y-92975000D01*
G75*
G02*
X83775000Y-92775000I0J200000D01*
G01*
X83775000Y-92225000D01*
G75*
G02*
X83975000Y-92025000I200000J0D01*
G01*
X84375000Y-92025000D01*
G75*
G02*
X84575000Y-92225000I0J-200000D01*
G01*
G37*
G36*
G01*
X86225000Y-92225000D02*
X86225000Y-92775000D01*
G75*
G02*
X86025000Y-92975000I-200000J0D01*
G01*
X85625000Y-92975000D01*
G75*
G02*
X85425000Y-92775000I0J200000D01*
G01*
X85425000Y-92225000D01*
G75*
G02*
X85625000Y-92025000I200000J0D01*
G01*
X86025000Y-92025000D01*
G75*
G02*
X86225000Y-92225000I0J-200000D01*
G01*
G37*
%TD*%
%TO.C,R7*%
G36*
G01*
X84575000Y-94225000D02*
X84575000Y-94775000D01*
G75*
G02*
X84375000Y-94975000I-200000J0D01*
G01*
X83975000Y-94975000D01*
G75*
G02*
X83775000Y-94775000I0J200000D01*
G01*
X83775000Y-94225000D01*
G75*
G02*
X83975000Y-94025000I200000J0D01*
G01*
X84375000Y-94025000D01*
G75*
G02*
X84575000Y-94225000I0J-200000D01*
G01*
G37*
G36*
G01*
X86225000Y-94225000D02*
X86225000Y-94775000D01*
G75*
G02*
X86025000Y-94975000I-200000J0D01*
G01*
X85625000Y-94975000D01*
G75*
G02*
X85425000Y-94775000I0J200000D01*
G01*
X85425000Y-94225000D01*
G75*
G02*
X85625000Y-94025000I200000J0D01*
G01*
X86025000Y-94025000D01*
G75*
G02*
X86225000Y-94225000I0J-200000D01*
G01*
G37*
%TD*%
%TO.C,R6*%
G36*
G01*
X84575000Y-96225000D02*
X84575000Y-96775000D01*
G75*
G02*
X84375000Y-96975000I-200000J0D01*
G01*
X83975000Y-96975000D01*
G75*
G02*
X83775000Y-96775000I0J200000D01*
G01*
X83775000Y-96225000D01*
G75*
G02*
X83975000Y-96025000I200000J0D01*
G01*
X84375000Y-96025000D01*
G75*
G02*
X84575000Y-96225000I0J-200000D01*
G01*
G37*
G36*
G01*
X86225000Y-96225000D02*
X86225000Y-96775000D01*
G75*
G02*
X86025000Y-96975000I-200000J0D01*
G01*
X85625000Y-96975000D01*
G75*
G02*
X85425000Y-96775000I0J200000D01*
G01*
X85425000Y-96225000D01*
G75*
G02*
X85625000Y-96025000I200000J0D01*
G01*
X86025000Y-96025000D01*
G75*
G02*
X86225000Y-96225000I0J-200000D01*
G01*
G37*
%TD*%
%TO.C,R5*%
G36*
G01*
X84575000Y-98225000D02*
X84575000Y-98775000D01*
G75*
G02*
X84375000Y-98975000I-200000J0D01*
G01*
X83975000Y-98975000D01*
G75*
G02*
X83775000Y-98775000I0J200000D01*
G01*
X83775000Y-98225000D01*
G75*
G02*
X83975000Y-98025000I200000J0D01*
G01*
X84375000Y-98025000D01*
G75*
G02*
X84575000Y-98225000I0J-200000D01*
G01*
G37*
G36*
G01*
X86225000Y-98225000D02*
X86225000Y-98775000D01*
G75*
G02*
X86025000Y-98975000I-200000J0D01*
G01*
X85625000Y-98975000D01*
G75*
G02*
X85425000Y-98775000I0J200000D01*
G01*
X85425000Y-98225000D01*
G75*
G02*
X85625000Y-98025000I200000J0D01*
G01*
X86025000Y-98025000D01*
G75*
G02*
X86225000Y-98225000I0J-200000D01*
G01*
G37*
%TD*%
%TO.C,C14*%
G36*
G01*
X77250000Y-91325000D02*
X77750000Y-91325000D01*
G75*
G02*
X77975000Y-91550000I0J-225000D01*
G01*
X77975000Y-92000000D01*
G75*
G02*
X77750000Y-92225000I-225000J0D01*
G01*
X77250000Y-92225000D01*
G75*
G02*
X77025000Y-92000000I0J225000D01*
G01*
X77025000Y-91550000D01*
G75*
G02*
X77250000Y-91325000I225000J0D01*
G01*
G37*
G36*
G01*
X77250000Y-89775000D02*
X77750000Y-89775000D01*
G75*
G02*
X77975000Y-90000000I0J-225000D01*
G01*
X77975000Y-90450000D01*
G75*
G02*
X77750000Y-90675000I-225000J0D01*
G01*
X77250000Y-90675000D01*
G75*
G02*
X77025000Y-90450000I0J225000D01*
G01*
X77025000Y-90000000D01*
G75*
G02*
X77250000Y-89775000I225000J0D01*
G01*
G37*
%TD*%
%TO.C,C13*%
G36*
G01*
X74250000Y-91325000D02*
X74750000Y-91325000D01*
G75*
G02*
X74975000Y-91550000I0J-225000D01*
G01*
X74975000Y-92000000D01*
G75*
G02*
X74750000Y-92225000I-225000J0D01*
G01*
X74250000Y-92225000D01*
G75*
G02*
X74025000Y-92000000I0J225000D01*
G01*
X74025000Y-91550000D01*
G75*
G02*
X74250000Y-91325000I225000J0D01*
G01*
G37*
G36*
G01*
X74250000Y-89775000D02*
X74750000Y-89775000D01*
G75*
G02*
X74975000Y-90000000I0J-225000D01*
G01*
X74975000Y-90450000D01*
G75*
G02*
X74750000Y-90675000I-225000J0D01*
G01*
X74250000Y-90675000D01*
G75*
G02*
X74025000Y-90450000I0J225000D01*
G01*
X74025000Y-90000000D01*
G75*
G02*
X74250000Y-89775000I225000J0D01*
G01*
G37*
%TD*%
%TO.C,C12*%
G36*
G01*
X74750000Y-94675000D02*
X74250000Y-94675000D01*
G75*
G02*
X74025000Y-94450000I0J225000D01*
G01*
X74025000Y-94000000D01*
G75*
G02*
X74250000Y-93775000I225000J0D01*
G01*
X74750000Y-93775000D01*
G75*
G02*
X74975000Y-94000000I0J-225000D01*
G01*
X74975000Y-94450000D01*
G75*
G02*
X74750000Y-94675000I-225000J0D01*
G01*
G37*
G36*
G01*
X74750000Y-96225000D02*
X74250000Y-96225000D01*
G75*
G02*
X74025000Y-96000000I0J225000D01*
G01*
X74025000Y-95550000D01*
G75*
G02*
X74250000Y-95325000I225000J0D01*
G01*
X74750000Y-95325000D01*
G75*
G02*
X74975000Y-95550000I0J-225000D01*
G01*
X74975000Y-96000000D01*
G75*
G02*
X74750000Y-96225000I-225000J0D01*
G01*
G37*
%TD*%
%TO.C,C11*%
G36*
G01*
X77750000Y-94675000D02*
X77250000Y-94675000D01*
G75*
G02*
X77025000Y-94450000I0J225000D01*
G01*
X77025000Y-94000000D01*
G75*
G02*
X77250000Y-93775000I225000J0D01*
G01*
X77750000Y-93775000D01*
G75*
G02*
X77975000Y-94000000I0J-225000D01*
G01*
X77975000Y-94450000D01*
G75*
G02*
X77750000Y-94675000I-225000J0D01*
G01*
G37*
G36*
G01*
X77750000Y-96225000D02*
X77250000Y-96225000D01*
G75*
G02*
X77025000Y-96000000I0J225000D01*
G01*
X77025000Y-95550000D01*
G75*
G02*
X77250000Y-95325000I225000J0D01*
G01*
X77750000Y-95325000D01*
G75*
G02*
X77975000Y-95550000I0J-225000D01*
G01*
X77975000Y-96000000D01*
G75*
G02*
X77750000Y-96225000I-225000J0D01*
G01*
G37*
%TD*%
%TO.C,C10*%
G36*
G01*
X71250000Y-91325000D02*
X71750000Y-91325000D01*
G75*
G02*
X71975000Y-91550000I0J-225000D01*
G01*
X71975000Y-92000000D01*
G75*
G02*
X71750000Y-92225000I-225000J0D01*
G01*
X71250000Y-92225000D01*
G75*
G02*
X71025000Y-92000000I0J225000D01*
G01*
X71025000Y-91550000D01*
G75*
G02*
X71250000Y-91325000I225000J0D01*
G01*
G37*
G36*
G01*
X71250000Y-89775000D02*
X71750000Y-89775000D01*
G75*
G02*
X71975000Y-90000000I0J-225000D01*
G01*
X71975000Y-90450000D01*
G75*
G02*
X71750000Y-90675000I-225000J0D01*
G01*
X71250000Y-90675000D01*
G75*
G02*
X71025000Y-90450000I0J225000D01*
G01*
X71025000Y-90000000D01*
G75*
G02*
X71250000Y-89775000I225000J0D01*
G01*
G37*
%TD*%
%TO.C,C9*%
G36*
G01*
X71750000Y-94675000D02*
X71250000Y-94675000D01*
G75*
G02*
X71025000Y-94450000I0J225000D01*
G01*
X71025000Y-94000000D01*
G75*
G02*
X71250000Y-93775000I225000J0D01*
G01*
X71750000Y-93775000D01*
G75*
G02*
X71975000Y-94000000I0J-225000D01*
G01*
X71975000Y-94450000D01*
G75*
G02*
X71750000Y-94675000I-225000J0D01*
G01*
G37*
G36*
G01*
X71750000Y-96225000D02*
X71250000Y-96225000D01*
G75*
G02*
X71025000Y-96000000I0J225000D01*
G01*
X71025000Y-95550000D01*
G75*
G02*
X71250000Y-95325000I225000J0D01*
G01*
X71750000Y-95325000D01*
G75*
G02*
X71975000Y-95550000I0J-225000D01*
G01*
X71975000Y-96000000D01*
G75*
G02*
X71750000Y-96225000I-225000J0D01*
G01*
G37*
%TD*%
%TO.C,C8*%
G36*
G01*
X67000000Y-85925000D02*
X66500000Y-85925000D01*
G75*
G02*
X66275000Y-85700000I0J225000D01*
G01*
X66275000Y-85250000D01*
G75*
G02*
X66500000Y-85025000I225000J0D01*
G01*
X67000000Y-85025000D01*
G75*
G02*
X67225000Y-85250000I0J-225000D01*
G01*
X67225000Y-85700000D01*
G75*
G02*
X67000000Y-85925000I-225000J0D01*
G01*
G37*
G36*
G01*
X67000000Y-87475000D02*
X66500000Y-87475000D01*
G75*
G02*
X66275000Y-87250000I0J225000D01*
G01*
X66275000Y-86800000D01*
G75*
G02*
X66500000Y-86575000I225000J0D01*
G01*
X67000000Y-86575000D01*
G75*
G02*
X67225000Y-86800000I0J-225000D01*
G01*
X67225000Y-87250000D01*
G75*
G02*
X67000000Y-87475000I-225000J0D01*
G01*
G37*
%TD*%
%TO.C,C7*%
G36*
G01*
X69575000Y-87500000D02*
X69575000Y-87000000D01*
G75*
G02*
X69800000Y-86775000I225000J0D01*
G01*
X70250000Y-86775000D01*
G75*
G02*
X70475000Y-87000000I0J-225000D01*
G01*
X70475000Y-87500000D01*
G75*
G02*
X70250000Y-87725000I-225000J0D01*
G01*
X69800000Y-87725000D01*
G75*
G02*
X69575000Y-87500000I0J225000D01*
G01*
G37*
G36*
G01*
X68025000Y-87500000D02*
X68025000Y-87000000D01*
G75*
G02*
X68250000Y-86775000I225000J0D01*
G01*
X68700000Y-86775000D01*
G75*
G02*
X68925000Y-87000000I0J-225000D01*
G01*
X68925000Y-87500000D01*
G75*
G02*
X68700000Y-87725000I-225000J0D01*
G01*
X68250000Y-87725000D01*
G75*
G02*
X68025000Y-87500000I0J225000D01*
G01*
G37*
%TD*%
D11*
%TO.C,R4*%
X89115000Y-85094000D03*
X90885000Y-85094000D03*
D12*
X90885000Y-86999500D03*
X89115000Y-87000000D03*
%TD*%
D11*
%TO.C,R3*%
X89000000Y-77094000D03*
X90770000Y-77094000D03*
D12*
X90770000Y-78999500D03*
X89000000Y-79000000D03*
%TD*%
D11*
%TO.C,R2*%
X89115000Y-69094000D03*
X90885000Y-69094000D03*
D12*
X90885000Y-70999500D03*
X89115000Y-71000000D03*
%TD*%
D11*
%TO.C,R1*%
X89230000Y-61094500D03*
X91000000Y-61094500D03*
D12*
X91000000Y-63000000D03*
X89230000Y-63000500D03*
%TD*%
%TO.C,C4*%
G36*
G01*
X73675000Y-85500000D02*
X73675000Y-86000000D01*
G75*
G02*
X73450000Y-86225000I-225000J0D01*
G01*
X73000000Y-86225000D01*
G75*
G02*
X72775000Y-86000000I0J225000D01*
G01*
X72775000Y-85500000D01*
G75*
G02*
X73000000Y-85275000I225000J0D01*
G01*
X73450000Y-85275000D01*
G75*
G02*
X73675000Y-85500000I0J-225000D01*
G01*
G37*
G36*
G01*
X75225000Y-85500000D02*
X75225000Y-86000000D01*
G75*
G02*
X75000000Y-86225000I-225000J0D01*
G01*
X74550000Y-86225000D01*
G75*
G02*
X74325000Y-86000000I0J225000D01*
G01*
X74325000Y-85500000D01*
G75*
G02*
X74550000Y-85275000I225000J0D01*
G01*
X75000000Y-85275000D01*
G75*
G02*
X75225000Y-85500000I0J-225000D01*
G01*
G37*
%TD*%
%TO.C,C3*%
G36*
G01*
X73675000Y-79500000D02*
X73675000Y-80000000D01*
G75*
G02*
X73450000Y-80225000I-225000J0D01*
G01*
X73000000Y-80225000D01*
G75*
G02*
X72775000Y-80000000I0J225000D01*
G01*
X72775000Y-79500000D01*
G75*
G02*
X73000000Y-79275000I225000J0D01*
G01*
X73450000Y-79275000D01*
G75*
G02*
X73675000Y-79500000I0J-225000D01*
G01*
G37*
G36*
G01*
X75225000Y-79500000D02*
X75225000Y-80000000D01*
G75*
G02*
X75000000Y-80225000I-225000J0D01*
G01*
X74550000Y-80225000D01*
G75*
G02*
X74325000Y-80000000I0J225000D01*
G01*
X74325000Y-79500000D01*
G75*
G02*
X74550000Y-79275000I225000J0D01*
G01*
X75000000Y-79275000D01*
G75*
G02*
X75225000Y-79500000I0J-225000D01*
G01*
G37*
%TD*%
%TO.C,C2*%
G36*
G01*
X73675000Y-71500000D02*
X73675000Y-72000000D01*
G75*
G02*
X73450000Y-72225000I-225000J0D01*
G01*
X73000000Y-72225000D01*
G75*
G02*
X72775000Y-72000000I0J225000D01*
G01*
X72775000Y-71500000D01*
G75*
G02*
X73000000Y-71275000I225000J0D01*
G01*
X73450000Y-71275000D01*
G75*
G02*
X73675000Y-71500000I0J-225000D01*
G01*
G37*
G36*
G01*
X75225000Y-71500000D02*
X75225000Y-72000000D01*
G75*
G02*
X75000000Y-72225000I-225000J0D01*
G01*
X74550000Y-72225000D01*
G75*
G02*
X74325000Y-72000000I0J225000D01*
G01*
X74325000Y-71500000D01*
G75*
G02*
X74550000Y-71275000I225000J0D01*
G01*
X75000000Y-71275000D01*
G75*
G02*
X75225000Y-71500000I0J-225000D01*
G01*
G37*
%TD*%
%TO.C,C1*%
G36*
G01*
X73675000Y-65500000D02*
X73675000Y-66000000D01*
G75*
G02*
X73450000Y-66225000I-225000J0D01*
G01*
X73000000Y-66225000D01*
G75*
G02*
X72775000Y-66000000I0J225000D01*
G01*
X72775000Y-65500000D01*
G75*
G02*
X73000000Y-65275000I225000J0D01*
G01*
X73450000Y-65275000D01*
G75*
G02*
X73675000Y-65500000I0J-225000D01*
G01*
G37*
G36*
G01*
X75225000Y-65500000D02*
X75225000Y-66000000D01*
G75*
G02*
X75000000Y-66225000I-225000J0D01*
G01*
X74550000Y-66225000D01*
G75*
G02*
X74325000Y-66000000I0J225000D01*
G01*
X74325000Y-65500000D01*
G75*
G02*
X74550000Y-65275000I225000J0D01*
G01*
X75000000Y-65275000D01*
G75*
G02*
X75225000Y-65500000I0J-225000D01*
G01*
G37*
%TD*%
M02*
