%TF.GenerationSoftware,KiCad,Pcbnew,(5.1.6)-1*%
%TF.CreationDate,2021-10-10T19:01:51-07:00*%
%TF.ProjectId,PV Panel Monitor,50562050-616e-4656-9c20-4d6f6e69746f,rev?*%
%TF.SameCoordinates,Original*%
%TF.FileFunction,Soldermask,Top*%
%TF.FilePolarity,Negative*%
%FSLAX46Y46*%
G04 Gerber Fmt 4.6, Leading zero omitted, Abs format (unit mm)*
G04 Created by KiCad (PCBNEW (5.1.6)-1) date 2021-10-10 19:01:51*
%MOMM*%
%LPD*%
G01*
G04 APERTURE LIST*
%ADD10O,1.800000X1.800000*%
%ADD11R,1.800000X1.800000*%
%ADD12O,2.050000X1.800000*%
%ADD13C,1.700000*%
%ADD14R,1.700000X1.700000*%
%ADD15R,1.500000X0.400000*%
%ADD16C,6.100000*%
%ADD17C,0.900000*%
%ADD18R,1.110000X0.862000*%
%ADD19R,1.110000X2.387000*%
G04 APERTURE END LIST*
D10*
%TO.C,TP4*%
X62250000Y-97250000D03*
D11*
X59710000Y-97250000D03*
%TD*%
D10*
%TO.C,TP3*%
X76250000Y-55790000D03*
D11*
X76250000Y-53250000D03*
%TD*%
D10*
%TO.C,TP2*%
X79250000Y-55790000D03*
D11*
X79250000Y-53250000D03*
%TD*%
D10*
%TO.C,TP1*%
X73250000Y-55790000D03*
D11*
X73250000Y-53250000D03*
%TD*%
D12*
%TO.C,J1*%
X54000000Y-70750000D03*
X54000000Y-68250000D03*
X54000000Y-65750000D03*
X54000000Y-63250000D03*
G36*
G01*
X53239706Y-59850000D02*
X54760294Y-59850000D01*
G75*
G02*
X55025000Y-60114706I0J-264706D01*
G01*
X55025000Y-61385294D01*
G75*
G02*
X54760294Y-61650000I-264706J0D01*
G01*
X53239706Y-61650000D01*
G75*
G02*
X52975000Y-61385294I0J264706D01*
G01*
X52975000Y-60114706D01*
G75*
G02*
X53239706Y-59850000I264706J0D01*
G01*
G37*
%TD*%
D13*
%TO.C,C22*%
X62000000Y-68500000D03*
D14*
X59500000Y-68500000D03*
%TD*%
%TO.C,C19*%
G36*
G01*
X52475000Y-78275000D02*
X53025000Y-78275000D01*
G75*
G02*
X53275000Y-78525000I0J-250000D01*
G01*
X53275000Y-79025000D01*
G75*
G02*
X53025000Y-79275000I-250000J0D01*
G01*
X52475000Y-79275000D01*
G75*
G02*
X52225000Y-79025000I0J250000D01*
G01*
X52225000Y-78525000D01*
G75*
G02*
X52475000Y-78275000I250000J0D01*
G01*
G37*
G36*
G01*
X52475000Y-76725000D02*
X53025000Y-76725000D01*
G75*
G02*
X53275000Y-76975000I0J-250000D01*
G01*
X53275000Y-77475000D01*
G75*
G02*
X53025000Y-77725000I-250000J0D01*
G01*
X52475000Y-77725000D01*
G75*
G02*
X52225000Y-77475000I0J250000D01*
G01*
X52225000Y-76975000D01*
G75*
G02*
X52475000Y-76725000I250000J0D01*
G01*
G37*
%TD*%
D15*
%TO.C,U4*%
X76200000Y-82000000D03*
X76200000Y-82500000D03*
X76200000Y-83000000D03*
X76200000Y-83500000D03*
X76200000Y-84000000D03*
X71800000Y-84000000D03*
X71800000Y-83500000D03*
X71800000Y-83000000D03*
X71800000Y-82500000D03*
X71800000Y-82000000D03*
%TD*%
%TO.C,U3*%
X76200000Y-76000000D03*
X76200000Y-76500000D03*
X76200000Y-77000000D03*
X76200000Y-77500000D03*
X76200000Y-78000000D03*
X71800000Y-78000000D03*
X71800000Y-77500000D03*
X71800000Y-77000000D03*
X71800000Y-76500000D03*
X71800000Y-76000000D03*
%TD*%
%TO.C,U1*%
X76200000Y-62000000D03*
X76200000Y-62500000D03*
X76200000Y-63000000D03*
X76200000Y-63500000D03*
X76200000Y-64000000D03*
X71800000Y-64000000D03*
X71800000Y-63500000D03*
X71800000Y-63000000D03*
X71800000Y-62500000D03*
X71800000Y-62000000D03*
%TD*%
%TO.C,R20*%
G36*
G01*
X68950000Y-61125000D02*
X69550000Y-61125000D01*
G75*
G02*
X69775000Y-61350000I0J-225000D01*
G01*
X69775000Y-61800000D01*
G75*
G02*
X69550000Y-62025000I-225000J0D01*
G01*
X68950000Y-62025000D01*
G75*
G02*
X68725000Y-61800000I0J225000D01*
G01*
X68725000Y-61350000D01*
G75*
G02*
X68950000Y-61125000I225000J0D01*
G01*
G37*
G36*
G01*
X68950000Y-59475000D02*
X69550000Y-59475000D01*
G75*
G02*
X69775000Y-59700000I0J-225000D01*
G01*
X69775000Y-60150000D01*
G75*
G02*
X69550000Y-60375000I-225000J0D01*
G01*
X68950000Y-60375000D01*
G75*
G02*
X68725000Y-60150000I0J225000D01*
G01*
X68725000Y-59700000D01*
G75*
G02*
X68950000Y-59475000I225000J0D01*
G01*
G37*
%TD*%
%TO.C,R19*%
G36*
G01*
X66950000Y-64125000D02*
X67550000Y-64125000D01*
G75*
G02*
X67775000Y-64350000I0J-225000D01*
G01*
X67775000Y-64800000D01*
G75*
G02*
X67550000Y-65025000I-225000J0D01*
G01*
X66950000Y-65025000D01*
G75*
G02*
X66725000Y-64800000I0J225000D01*
G01*
X66725000Y-64350000D01*
G75*
G02*
X66950000Y-64125000I225000J0D01*
G01*
G37*
G36*
G01*
X66950000Y-62475000D02*
X67550000Y-62475000D01*
G75*
G02*
X67775000Y-62700000I0J-225000D01*
G01*
X67775000Y-63150000D01*
G75*
G02*
X67550000Y-63375000I-225000J0D01*
G01*
X66950000Y-63375000D01*
G75*
G02*
X66725000Y-63150000I0J225000D01*
G01*
X66725000Y-62700000D01*
G75*
G02*
X66950000Y-62475000I225000J0D01*
G01*
G37*
%TD*%
%TO.C,U2*%
X76200000Y-68000000D03*
X76200000Y-68500000D03*
X76200000Y-69000000D03*
X76200000Y-69500000D03*
X76200000Y-70000000D03*
X71800000Y-70000000D03*
X71800000Y-69500000D03*
X71800000Y-69000000D03*
X71800000Y-68500000D03*
X71800000Y-68000000D03*
%TD*%
%TO.C,C21*%
G36*
G01*
X55150000Y-82821738D02*
X55150000Y-84178262D01*
G75*
G02*
X54878262Y-84450000I-271738J0D01*
G01*
X54171738Y-84450000D01*
G75*
G02*
X53900000Y-84178262I0J271738D01*
G01*
X53900000Y-82821738D01*
G75*
G02*
X54171738Y-82550000I271738J0D01*
G01*
X54878262Y-82550000D01*
G75*
G02*
X55150000Y-82821738I0J-271738D01*
G01*
G37*
G36*
G01*
X58100000Y-82821738D02*
X58100000Y-84178262D01*
G75*
G02*
X57828262Y-84450000I-271738J0D01*
G01*
X57121738Y-84450000D01*
G75*
G02*
X56850000Y-84178262I0J271738D01*
G01*
X56850000Y-82821738D01*
G75*
G02*
X57121738Y-82550000I271738J0D01*
G01*
X57828262Y-82550000D01*
G75*
G02*
X58100000Y-82821738I0J-271738D01*
G01*
G37*
%TD*%
%TO.C,C20*%
G36*
G01*
X62600000Y-84178262D02*
X62600000Y-82821738D01*
G75*
G02*
X62871738Y-82550000I271738J0D01*
G01*
X63578262Y-82550000D01*
G75*
G02*
X63850000Y-82821738I0J-271738D01*
G01*
X63850000Y-84178262D01*
G75*
G02*
X63578262Y-84450000I-271738J0D01*
G01*
X62871738Y-84450000D01*
G75*
G02*
X62600000Y-84178262I0J271738D01*
G01*
G37*
G36*
G01*
X59650000Y-84178262D02*
X59650000Y-82821738D01*
G75*
G02*
X59921738Y-82550000I271738J0D01*
G01*
X60628262Y-82550000D01*
G75*
G02*
X60900000Y-82821738I0J-271738D01*
G01*
X60900000Y-84178262D01*
G75*
G02*
X60628262Y-84450000I-271738J0D01*
G01*
X59921738Y-84450000D01*
G75*
G02*
X59650000Y-84178262I0J271738D01*
G01*
G37*
%TD*%
D13*
%TO.C,C15*%
X62000000Y-60750000D03*
D14*
X59500000Y-60750000D03*
%TD*%
%TO.C,U5*%
G36*
G01*
X65350000Y-90925000D02*
X65100000Y-90925000D01*
G75*
G02*
X64975000Y-90800000I0J125000D01*
G01*
X64975000Y-89475000D01*
G75*
G02*
X65100000Y-89350000I125000J0D01*
G01*
X65350000Y-89350000D01*
G75*
G02*
X65475000Y-89475000I0J-125000D01*
G01*
X65475000Y-90800000D01*
G75*
G02*
X65350000Y-90925000I-125000J0D01*
G01*
G37*
G36*
G01*
X66000000Y-90925000D02*
X65750000Y-90925000D01*
G75*
G02*
X65625000Y-90800000I0J125000D01*
G01*
X65625000Y-89475000D01*
G75*
G02*
X65750000Y-89350000I125000J0D01*
G01*
X66000000Y-89350000D01*
G75*
G02*
X66125000Y-89475000I0J-125000D01*
G01*
X66125000Y-90800000D01*
G75*
G02*
X66000000Y-90925000I-125000J0D01*
G01*
G37*
G36*
G01*
X66650000Y-90925000D02*
X66400000Y-90925000D01*
G75*
G02*
X66275000Y-90800000I0J125000D01*
G01*
X66275000Y-89475000D01*
G75*
G02*
X66400000Y-89350000I125000J0D01*
G01*
X66650000Y-89350000D01*
G75*
G02*
X66775000Y-89475000I0J-125000D01*
G01*
X66775000Y-90800000D01*
G75*
G02*
X66650000Y-90925000I-125000J0D01*
G01*
G37*
G36*
G01*
X67300000Y-90925000D02*
X67050000Y-90925000D01*
G75*
G02*
X66925000Y-90800000I0J125000D01*
G01*
X66925000Y-89475000D01*
G75*
G02*
X67050000Y-89350000I125000J0D01*
G01*
X67300000Y-89350000D01*
G75*
G02*
X67425000Y-89475000I0J-125000D01*
G01*
X67425000Y-90800000D01*
G75*
G02*
X67300000Y-90925000I-125000J0D01*
G01*
G37*
G36*
G01*
X67950000Y-90925000D02*
X67700000Y-90925000D01*
G75*
G02*
X67575000Y-90800000I0J125000D01*
G01*
X67575000Y-89475000D01*
G75*
G02*
X67700000Y-89350000I125000J0D01*
G01*
X67950000Y-89350000D01*
G75*
G02*
X68075000Y-89475000I0J-125000D01*
G01*
X68075000Y-90800000D01*
G75*
G02*
X67950000Y-90925000I-125000J0D01*
G01*
G37*
G36*
G01*
X68600000Y-90925000D02*
X68350000Y-90925000D01*
G75*
G02*
X68225000Y-90800000I0J125000D01*
G01*
X68225000Y-89475000D01*
G75*
G02*
X68350000Y-89350000I125000J0D01*
G01*
X68600000Y-89350000D01*
G75*
G02*
X68725000Y-89475000I0J-125000D01*
G01*
X68725000Y-90800000D01*
G75*
G02*
X68600000Y-90925000I-125000J0D01*
G01*
G37*
G36*
G01*
X69250000Y-90925000D02*
X69000000Y-90925000D01*
G75*
G02*
X68875000Y-90800000I0J125000D01*
G01*
X68875000Y-89475000D01*
G75*
G02*
X69000000Y-89350000I125000J0D01*
G01*
X69250000Y-89350000D01*
G75*
G02*
X69375000Y-89475000I0J-125000D01*
G01*
X69375000Y-90800000D01*
G75*
G02*
X69250000Y-90925000I-125000J0D01*
G01*
G37*
G36*
G01*
X69900000Y-90925000D02*
X69650000Y-90925000D01*
G75*
G02*
X69525000Y-90800000I0J125000D01*
G01*
X69525000Y-89475000D01*
G75*
G02*
X69650000Y-89350000I125000J0D01*
G01*
X69900000Y-89350000D01*
G75*
G02*
X70025000Y-89475000I0J-125000D01*
G01*
X70025000Y-90800000D01*
G75*
G02*
X69900000Y-90925000I-125000J0D01*
G01*
G37*
G36*
G01*
X69900000Y-96650000D02*
X69650000Y-96650000D01*
G75*
G02*
X69525000Y-96525000I0J125000D01*
G01*
X69525000Y-95200000D01*
G75*
G02*
X69650000Y-95075000I125000J0D01*
G01*
X69900000Y-95075000D01*
G75*
G02*
X70025000Y-95200000I0J-125000D01*
G01*
X70025000Y-96525000D01*
G75*
G02*
X69900000Y-96650000I-125000J0D01*
G01*
G37*
G36*
G01*
X69250000Y-96650000D02*
X69000000Y-96650000D01*
G75*
G02*
X68875000Y-96525000I0J125000D01*
G01*
X68875000Y-95200000D01*
G75*
G02*
X69000000Y-95075000I125000J0D01*
G01*
X69250000Y-95075000D01*
G75*
G02*
X69375000Y-95200000I0J-125000D01*
G01*
X69375000Y-96525000D01*
G75*
G02*
X69250000Y-96650000I-125000J0D01*
G01*
G37*
G36*
G01*
X68600000Y-96650000D02*
X68350000Y-96650000D01*
G75*
G02*
X68225000Y-96525000I0J125000D01*
G01*
X68225000Y-95200000D01*
G75*
G02*
X68350000Y-95075000I125000J0D01*
G01*
X68600000Y-95075000D01*
G75*
G02*
X68725000Y-95200000I0J-125000D01*
G01*
X68725000Y-96525000D01*
G75*
G02*
X68600000Y-96650000I-125000J0D01*
G01*
G37*
G36*
G01*
X67950000Y-96650000D02*
X67700000Y-96650000D01*
G75*
G02*
X67575000Y-96525000I0J125000D01*
G01*
X67575000Y-95200000D01*
G75*
G02*
X67700000Y-95075000I125000J0D01*
G01*
X67950000Y-95075000D01*
G75*
G02*
X68075000Y-95200000I0J-125000D01*
G01*
X68075000Y-96525000D01*
G75*
G02*
X67950000Y-96650000I-125000J0D01*
G01*
G37*
G36*
G01*
X67300000Y-96650000D02*
X67050000Y-96650000D01*
G75*
G02*
X66925000Y-96525000I0J125000D01*
G01*
X66925000Y-95200000D01*
G75*
G02*
X67050000Y-95075000I125000J0D01*
G01*
X67300000Y-95075000D01*
G75*
G02*
X67425000Y-95200000I0J-125000D01*
G01*
X67425000Y-96525000D01*
G75*
G02*
X67300000Y-96650000I-125000J0D01*
G01*
G37*
G36*
G01*
X66650000Y-96650000D02*
X66400000Y-96650000D01*
G75*
G02*
X66275000Y-96525000I0J125000D01*
G01*
X66275000Y-95200000D01*
G75*
G02*
X66400000Y-95075000I125000J0D01*
G01*
X66650000Y-95075000D01*
G75*
G02*
X66775000Y-95200000I0J-125000D01*
G01*
X66775000Y-96525000D01*
G75*
G02*
X66650000Y-96650000I-125000J0D01*
G01*
G37*
G36*
G01*
X66000000Y-96650000D02*
X65750000Y-96650000D01*
G75*
G02*
X65625000Y-96525000I0J125000D01*
G01*
X65625000Y-95200000D01*
G75*
G02*
X65750000Y-95075000I125000J0D01*
G01*
X66000000Y-95075000D01*
G75*
G02*
X66125000Y-95200000I0J-125000D01*
G01*
X66125000Y-96525000D01*
G75*
G02*
X66000000Y-96650000I-125000J0D01*
G01*
G37*
G36*
G01*
X65350000Y-96650000D02*
X65100000Y-96650000D01*
G75*
G02*
X64975000Y-96525000I0J125000D01*
G01*
X64975000Y-95200000D01*
G75*
G02*
X65100000Y-95075000I125000J0D01*
G01*
X65350000Y-95075000D01*
G75*
G02*
X65475000Y-95200000I0J-125000D01*
G01*
X65475000Y-96525000D01*
G75*
G02*
X65350000Y-96650000I-125000J0D01*
G01*
G37*
%TD*%
%TO.C,U6*%
G36*
G01*
X61500000Y-75225000D02*
X61500000Y-74925000D01*
G75*
G02*
X61650000Y-74775000I150000J0D01*
G01*
X63350000Y-74775000D01*
G75*
G02*
X63500000Y-74925000I0J-150000D01*
G01*
X63500000Y-75225000D01*
G75*
G02*
X63350000Y-75375000I-150000J0D01*
G01*
X61650000Y-75375000D01*
G75*
G02*
X61500000Y-75225000I0J150000D01*
G01*
G37*
G36*
G01*
X61500000Y-75875000D02*
X61500000Y-75575000D01*
G75*
G02*
X61650000Y-75425000I150000J0D01*
G01*
X63350000Y-75425000D01*
G75*
G02*
X63500000Y-75575000I0J-150000D01*
G01*
X63500000Y-75875000D01*
G75*
G02*
X63350000Y-76025000I-150000J0D01*
G01*
X61650000Y-76025000D01*
G75*
G02*
X61500000Y-75875000I0J150000D01*
G01*
G37*
G36*
G01*
X61500000Y-76525000D02*
X61500000Y-76225000D01*
G75*
G02*
X61650000Y-76075000I150000J0D01*
G01*
X63350000Y-76075000D01*
G75*
G02*
X63500000Y-76225000I0J-150000D01*
G01*
X63500000Y-76525000D01*
G75*
G02*
X63350000Y-76675000I-150000J0D01*
G01*
X61650000Y-76675000D01*
G75*
G02*
X61500000Y-76525000I0J150000D01*
G01*
G37*
G36*
G01*
X61500000Y-77175000D02*
X61500000Y-76875000D01*
G75*
G02*
X61650000Y-76725000I150000J0D01*
G01*
X63350000Y-76725000D01*
G75*
G02*
X63500000Y-76875000I0J-150000D01*
G01*
X63500000Y-77175000D01*
G75*
G02*
X63350000Y-77325000I-150000J0D01*
G01*
X61650000Y-77325000D01*
G75*
G02*
X61500000Y-77175000I0J150000D01*
G01*
G37*
G36*
G01*
X61500000Y-77825000D02*
X61500000Y-77525000D01*
G75*
G02*
X61650000Y-77375000I150000J0D01*
G01*
X63350000Y-77375000D01*
G75*
G02*
X63500000Y-77525000I0J-150000D01*
G01*
X63500000Y-77825000D01*
G75*
G02*
X63350000Y-77975000I-150000J0D01*
G01*
X61650000Y-77975000D01*
G75*
G02*
X61500000Y-77825000I0J150000D01*
G01*
G37*
G36*
G01*
X61500000Y-78475000D02*
X61500000Y-78175000D01*
G75*
G02*
X61650000Y-78025000I150000J0D01*
G01*
X63350000Y-78025000D01*
G75*
G02*
X63500000Y-78175000I0J-150000D01*
G01*
X63500000Y-78475000D01*
G75*
G02*
X63350000Y-78625000I-150000J0D01*
G01*
X61650000Y-78625000D01*
G75*
G02*
X61500000Y-78475000I0J150000D01*
G01*
G37*
G36*
G01*
X61500000Y-79125000D02*
X61500000Y-78825000D01*
G75*
G02*
X61650000Y-78675000I150000J0D01*
G01*
X63350000Y-78675000D01*
G75*
G02*
X63500000Y-78825000I0J-150000D01*
G01*
X63500000Y-79125000D01*
G75*
G02*
X63350000Y-79275000I-150000J0D01*
G01*
X61650000Y-79275000D01*
G75*
G02*
X61500000Y-79125000I0J150000D01*
G01*
G37*
G36*
G01*
X61500000Y-79775000D02*
X61500000Y-79475000D01*
G75*
G02*
X61650000Y-79325000I150000J0D01*
G01*
X63350000Y-79325000D01*
G75*
G02*
X63500000Y-79475000I0J-150000D01*
G01*
X63500000Y-79775000D01*
G75*
G02*
X63350000Y-79925000I-150000J0D01*
G01*
X61650000Y-79925000D01*
G75*
G02*
X61500000Y-79775000I0J150000D01*
G01*
G37*
G36*
G01*
X61500000Y-80425000D02*
X61500000Y-80125000D01*
G75*
G02*
X61650000Y-79975000I150000J0D01*
G01*
X63350000Y-79975000D01*
G75*
G02*
X63500000Y-80125000I0J-150000D01*
G01*
X63500000Y-80425000D01*
G75*
G02*
X63350000Y-80575000I-150000J0D01*
G01*
X61650000Y-80575000D01*
G75*
G02*
X61500000Y-80425000I0J150000D01*
G01*
G37*
G36*
G01*
X61500000Y-81075000D02*
X61500000Y-80775000D01*
G75*
G02*
X61650000Y-80625000I150000J0D01*
G01*
X63350000Y-80625000D01*
G75*
G02*
X63500000Y-80775000I0J-150000D01*
G01*
X63500000Y-81075000D01*
G75*
G02*
X63350000Y-81225000I-150000J0D01*
G01*
X61650000Y-81225000D01*
G75*
G02*
X61500000Y-81075000I0J150000D01*
G01*
G37*
G36*
G01*
X54500000Y-81075000D02*
X54500000Y-80775000D01*
G75*
G02*
X54650000Y-80625000I150000J0D01*
G01*
X56350000Y-80625000D01*
G75*
G02*
X56500000Y-80775000I0J-150000D01*
G01*
X56500000Y-81075000D01*
G75*
G02*
X56350000Y-81225000I-150000J0D01*
G01*
X54650000Y-81225000D01*
G75*
G02*
X54500000Y-81075000I0J150000D01*
G01*
G37*
G36*
G01*
X54500000Y-80425000D02*
X54500000Y-80125000D01*
G75*
G02*
X54650000Y-79975000I150000J0D01*
G01*
X56350000Y-79975000D01*
G75*
G02*
X56500000Y-80125000I0J-150000D01*
G01*
X56500000Y-80425000D01*
G75*
G02*
X56350000Y-80575000I-150000J0D01*
G01*
X54650000Y-80575000D01*
G75*
G02*
X54500000Y-80425000I0J150000D01*
G01*
G37*
G36*
G01*
X54500000Y-79775000D02*
X54500000Y-79475000D01*
G75*
G02*
X54650000Y-79325000I150000J0D01*
G01*
X56350000Y-79325000D01*
G75*
G02*
X56500000Y-79475000I0J-150000D01*
G01*
X56500000Y-79775000D01*
G75*
G02*
X56350000Y-79925000I-150000J0D01*
G01*
X54650000Y-79925000D01*
G75*
G02*
X54500000Y-79775000I0J150000D01*
G01*
G37*
G36*
G01*
X54500000Y-79125000D02*
X54500000Y-78825000D01*
G75*
G02*
X54650000Y-78675000I150000J0D01*
G01*
X56350000Y-78675000D01*
G75*
G02*
X56500000Y-78825000I0J-150000D01*
G01*
X56500000Y-79125000D01*
G75*
G02*
X56350000Y-79275000I-150000J0D01*
G01*
X54650000Y-79275000D01*
G75*
G02*
X54500000Y-79125000I0J150000D01*
G01*
G37*
G36*
G01*
X54500000Y-78475000D02*
X54500000Y-78175000D01*
G75*
G02*
X54650000Y-78025000I150000J0D01*
G01*
X56350000Y-78025000D01*
G75*
G02*
X56500000Y-78175000I0J-150000D01*
G01*
X56500000Y-78475000D01*
G75*
G02*
X56350000Y-78625000I-150000J0D01*
G01*
X54650000Y-78625000D01*
G75*
G02*
X54500000Y-78475000I0J150000D01*
G01*
G37*
G36*
G01*
X54500000Y-77825000D02*
X54500000Y-77525000D01*
G75*
G02*
X54650000Y-77375000I150000J0D01*
G01*
X56350000Y-77375000D01*
G75*
G02*
X56500000Y-77525000I0J-150000D01*
G01*
X56500000Y-77825000D01*
G75*
G02*
X56350000Y-77975000I-150000J0D01*
G01*
X54650000Y-77975000D01*
G75*
G02*
X54500000Y-77825000I0J150000D01*
G01*
G37*
G36*
G01*
X54500000Y-77175000D02*
X54500000Y-76875000D01*
G75*
G02*
X54650000Y-76725000I150000J0D01*
G01*
X56350000Y-76725000D01*
G75*
G02*
X56500000Y-76875000I0J-150000D01*
G01*
X56500000Y-77175000D01*
G75*
G02*
X56350000Y-77325000I-150000J0D01*
G01*
X54650000Y-77325000D01*
G75*
G02*
X54500000Y-77175000I0J150000D01*
G01*
G37*
G36*
G01*
X54500000Y-76525000D02*
X54500000Y-76225000D01*
G75*
G02*
X54650000Y-76075000I150000J0D01*
G01*
X56350000Y-76075000D01*
G75*
G02*
X56500000Y-76225000I0J-150000D01*
G01*
X56500000Y-76525000D01*
G75*
G02*
X56350000Y-76675000I-150000J0D01*
G01*
X54650000Y-76675000D01*
G75*
G02*
X54500000Y-76525000I0J150000D01*
G01*
G37*
G36*
G01*
X54500000Y-75875000D02*
X54500000Y-75575000D01*
G75*
G02*
X54650000Y-75425000I150000J0D01*
G01*
X56350000Y-75425000D01*
G75*
G02*
X56500000Y-75575000I0J-150000D01*
G01*
X56500000Y-75875000D01*
G75*
G02*
X56350000Y-76025000I-150000J0D01*
G01*
X54650000Y-76025000D01*
G75*
G02*
X54500000Y-75875000I0J150000D01*
G01*
G37*
G36*
G01*
X54500000Y-75225000D02*
X54500000Y-74925000D01*
G75*
G02*
X54650000Y-74775000I150000J0D01*
G01*
X56350000Y-74775000D01*
G75*
G02*
X56500000Y-74925000I0J-150000D01*
G01*
X56500000Y-75225000D01*
G75*
G02*
X56350000Y-75375000I-150000J0D01*
G01*
X54650000Y-75375000D01*
G75*
G02*
X54500000Y-75225000I0J150000D01*
G01*
G37*
%TD*%
%TO.C,R18*%
G36*
G01*
X67375000Y-80550000D02*
X67375000Y-79950000D01*
G75*
G02*
X67600000Y-79725000I225000J0D01*
G01*
X68050000Y-79725000D01*
G75*
G02*
X68275000Y-79950000I0J-225000D01*
G01*
X68275000Y-80550000D01*
G75*
G02*
X68050000Y-80775000I-225000J0D01*
G01*
X67600000Y-80775000D01*
G75*
G02*
X67375000Y-80550000I0J225000D01*
G01*
G37*
G36*
G01*
X65725000Y-80550000D02*
X65725000Y-79950000D01*
G75*
G02*
X65950000Y-79725000I225000J0D01*
G01*
X66400000Y-79725000D01*
G75*
G02*
X66625000Y-79950000I0J-225000D01*
G01*
X66625000Y-80550000D01*
G75*
G02*
X66400000Y-80775000I-225000J0D01*
G01*
X65950000Y-80775000D01*
G75*
G02*
X65725000Y-80550000I0J225000D01*
G01*
G37*
%TD*%
%TO.C,R17*%
G36*
G01*
X66625000Y-77950000D02*
X66625000Y-78550000D01*
G75*
G02*
X66400000Y-78775000I-225000J0D01*
G01*
X65950000Y-78775000D01*
G75*
G02*
X65725000Y-78550000I0J225000D01*
G01*
X65725000Y-77950000D01*
G75*
G02*
X65950000Y-77725000I225000J0D01*
G01*
X66400000Y-77725000D01*
G75*
G02*
X66625000Y-77950000I0J-225000D01*
G01*
G37*
G36*
G01*
X68275000Y-77950000D02*
X68275000Y-78550000D01*
G75*
G02*
X68050000Y-78775000I-225000J0D01*
G01*
X67600000Y-78775000D01*
G75*
G02*
X67375000Y-78550000I0J225000D01*
G01*
X67375000Y-77950000D01*
G75*
G02*
X67600000Y-77725000I225000J0D01*
G01*
X68050000Y-77725000D01*
G75*
G02*
X68275000Y-77950000I0J-225000D01*
G01*
G37*
%TD*%
D16*
%TO.C,H4*%
X54000000Y-96000000D03*
D17*
X56250000Y-96000000D03*
X55590990Y-97590990D03*
X54000000Y-98250000D03*
X52409010Y-97590990D03*
X51750000Y-96000000D03*
X52409010Y-94409010D03*
X54000000Y-93750000D03*
X55590990Y-94409010D03*
%TD*%
D16*
%TO.C,H3*%
X96000000Y-54000000D03*
D17*
X98250000Y-54000000D03*
X97590990Y-55590990D03*
X96000000Y-56250000D03*
X94409010Y-55590990D03*
X93750000Y-54000000D03*
X94409010Y-52409010D03*
X96000000Y-51750000D03*
X97590990Y-52409010D03*
%TD*%
D16*
%TO.C,H2*%
X54000000Y-54000000D03*
D17*
X56250000Y-54000000D03*
X55590990Y-55590990D03*
X54000000Y-56250000D03*
X52409010Y-55590990D03*
X51750000Y-54000000D03*
X52409010Y-52409010D03*
X54000000Y-51750000D03*
X55590990Y-52409010D03*
%TD*%
D16*
%TO.C,H1*%
X96000000Y-96000000D03*
D17*
X98250000Y-96000000D03*
X97590990Y-97590990D03*
X96000000Y-98250000D03*
X94409010Y-97590990D03*
X93750000Y-96000000D03*
X94409010Y-94409010D03*
X96000000Y-93750000D03*
X97590990Y-94409010D03*
%TD*%
%TO.C,Gnd1*%
X85340990Y-52409010D03*
X83750000Y-51750000D03*
X82159010Y-52409010D03*
X81500000Y-54000000D03*
X82159010Y-55590990D03*
X83750000Y-56250000D03*
X85340990Y-55590990D03*
X86000000Y-54000000D03*
D16*
X83750000Y-54000000D03*
%TD*%
%TO.C,C18*%
G36*
G01*
X64475000Y-78050000D02*
X65025000Y-78050000D01*
G75*
G02*
X65275000Y-78300000I0J-250000D01*
G01*
X65275000Y-78800000D01*
G75*
G02*
X65025000Y-79050000I-250000J0D01*
G01*
X64475000Y-79050000D01*
G75*
G02*
X64225000Y-78800000I0J250000D01*
G01*
X64225000Y-78300000D01*
G75*
G02*
X64475000Y-78050000I250000J0D01*
G01*
G37*
G36*
G01*
X64475000Y-76500000D02*
X65025000Y-76500000D01*
G75*
G02*
X65275000Y-76750000I0J-250000D01*
G01*
X65275000Y-77250000D01*
G75*
G02*
X65025000Y-77500000I-250000J0D01*
G01*
X64475000Y-77500000D01*
G75*
G02*
X64225000Y-77250000I0J250000D01*
G01*
X64225000Y-76750000D01*
G75*
G02*
X64475000Y-76500000I250000J0D01*
G01*
G37*
%TD*%
%TO.C,C17*%
G36*
G01*
X64225000Y-81525000D02*
X64775000Y-81525000D01*
G75*
G02*
X65025000Y-81775000I0J-250000D01*
G01*
X65025000Y-82275000D01*
G75*
G02*
X64775000Y-82525000I-250000J0D01*
G01*
X64225000Y-82525000D01*
G75*
G02*
X63975000Y-82275000I0J250000D01*
G01*
X63975000Y-81775000D01*
G75*
G02*
X64225000Y-81525000I250000J0D01*
G01*
G37*
G36*
G01*
X64225000Y-79975000D02*
X64775000Y-79975000D01*
G75*
G02*
X65025000Y-80225000I0J-250000D01*
G01*
X65025000Y-80725000D01*
G75*
G02*
X64775000Y-80975000I-250000J0D01*
G01*
X64225000Y-80975000D01*
G75*
G02*
X63975000Y-80725000I0J250000D01*
G01*
X63975000Y-80225000D01*
G75*
G02*
X64225000Y-79975000I250000J0D01*
G01*
G37*
%TD*%
%TO.C,C16*%
G36*
G01*
X52475000Y-81275000D02*
X53025000Y-81275000D01*
G75*
G02*
X53275000Y-81525000I0J-250000D01*
G01*
X53275000Y-82025000D01*
G75*
G02*
X53025000Y-82275000I-250000J0D01*
G01*
X52475000Y-82275000D01*
G75*
G02*
X52225000Y-82025000I0J250000D01*
G01*
X52225000Y-81525000D01*
G75*
G02*
X52475000Y-81275000I250000J0D01*
G01*
G37*
G36*
G01*
X52475000Y-79725000D02*
X53025000Y-79725000D01*
G75*
G02*
X53275000Y-79975000I0J-250000D01*
G01*
X53275000Y-80475000D01*
G75*
G02*
X53025000Y-80725000I-250000J0D01*
G01*
X52475000Y-80725000D01*
G75*
G02*
X52225000Y-80475000I0J250000D01*
G01*
X52225000Y-79975000D01*
G75*
G02*
X52475000Y-79725000I250000J0D01*
G01*
G37*
%TD*%
%TO.C,R16*%
G36*
G01*
X75700000Y-91375000D02*
X76300000Y-91375000D01*
G75*
G02*
X76525000Y-91600000I0J-225000D01*
G01*
X76525000Y-92050000D01*
G75*
G02*
X76300000Y-92275000I-225000J0D01*
G01*
X75700000Y-92275000D01*
G75*
G02*
X75475000Y-92050000I0J225000D01*
G01*
X75475000Y-91600000D01*
G75*
G02*
X75700000Y-91375000I225000J0D01*
G01*
G37*
G36*
G01*
X75700000Y-89725000D02*
X76300000Y-89725000D01*
G75*
G02*
X76525000Y-89950000I0J-225000D01*
G01*
X76525000Y-90400000D01*
G75*
G02*
X76300000Y-90625000I-225000J0D01*
G01*
X75700000Y-90625000D01*
G75*
G02*
X75475000Y-90400000I0J225000D01*
G01*
X75475000Y-89950000D01*
G75*
G02*
X75700000Y-89725000I225000J0D01*
G01*
G37*
%TD*%
%TO.C,R15*%
G36*
G01*
X72700000Y-91375000D02*
X73300000Y-91375000D01*
G75*
G02*
X73525000Y-91600000I0J-225000D01*
G01*
X73525000Y-92050000D01*
G75*
G02*
X73300000Y-92275000I-225000J0D01*
G01*
X72700000Y-92275000D01*
G75*
G02*
X72475000Y-92050000I0J225000D01*
G01*
X72475000Y-91600000D01*
G75*
G02*
X72700000Y-91375000I225000J0D01*
G01*
G37*
G36*
G01*
X72700000Y-89725000D02*
X73300000Y-89725000D01*
G75*
G02*
X73525000Y-89950000I0J-225000D01*
G01*
X73525000Y-90400000D01*
G75*
G02*
X73300000Y-90625000I-225000J0D01*
G01*
X72700000Y-90625000D01*
G75*
G02*
X72475000Y-90400000I0J225000D01*
G01*
X72475000Y-89950000D01*
G75*
G02*
X72700000Y-89725000I225000J0D01*
G01*
G37*
%TD*%
%TO.C,R14*%
G36*
G01*
X73300000Y-94625000D02*
X72700000Y-94625000D01*
G75*
G02*
X72475000Y-94400000I0J225000D01*
G01*
X72475000Y-93950000D01*
G75*
G02*
X72700000Y-93725000I225000J0D01*
G01*
X73300000Y-93725000D01*
G75*
G02*
X73525000Y-93950000I0J-225000D01*
G01*
X73525000Y-94400000D01*
G75*
G02*
X73300000Y-94625000I-225000J0D01*
G01*
G37*
G36*
G01*
X73300000Y-96275000D02*
X72700000Y-96275000D01*
G75*
G02*
X72475000Y-96050000I0J225000D01*
G01*
X72475000Y-95600000D01*
G75*
G02*
X72700000Y-95375000I225000J0D01*
G01*
X73300000Y-95375000D01*
G75*
G02*
X73525000Y-95600000I0J-225000D01*
G01*
X73525000Y-96050000D01*
G75*
G02*
X73300000Y-96275000I-225000J0D01*
G01*
G37*
%TD*%
%TO.C,R13*%
G36*
G01*
X76300000Y-94625000D02*
X75700000Y-94625000D01*
G75*
G02*
X75475000Y-94400000I0J225000D01*
G01*
X75475000Y-93950000D01*
G75*
G02*
X75700000Y-93725000I225000J0D01*
G01*
X76300000Y-93725000D01*
G75*
G02*
X76525000Y-93950000I0J-225000D01*
G01*
X76525000Y-94400000D01*
G75*
G02*
X76300000Y-94625000I-225000J0D01*
G01*
G37*
G36*
G01*
X76300000Y-96275000D02*
X75700000Y-96275000D01*
G75*
G02*
X75475000Y-96050000I0J225000D01*
G01*
X75475000Y-95600000D01*
G75*
G02*
X75700000Y-95375000I225000J0D01*
G01*
X76300000Y-95375000D01*
G75*
G02*
X76525000Y-95600000I0J-225000D01*
G01*
X76525000Y-96050000D01*
G75*
G02*
X76300000Y-96275000I-225000J0D01*
G01*
G37*
%TD*%
%TO.C,R12*%
G36*
G01*
X81125000Y-92200000D02*
X81125000Y-92800000D01*
G75*
G02*
X80900000Y-93025000I-225000J0D01*
G01*
X80450000Y-93025000D01*
G75*
G02*
X80225000Y-92800000I0J225000D01*
G01*
X80225000Y-92200000D01*
G75*
G02*
X80450000Y-91975000I225000J0D01*
G01*
X80900000Y-91975000D01*
G75*
G02*
X81125000Y-92200000I0J-225000D01*
G01*
G37*
G36*
G01*
X82775000Y-92200000D02*
X82775000Y-92800000D01*
G75*
G02*
X82550000Y-93025000I-225000J0D01*
G01*
X82100000Y-93025000D01*
G75*
G02*
X81875000Y-92800000I0J225000D01*
G01*
X81875000Y-92200000D01*
G75*
G02*
X82100000Y-91975000I225000J0D01*
G01*
X82550000Y-91975000D01*
G75*
G02*
X82775000Y-92200000I0J-225000D01*
G01*
G37*
%TD*%
%TO.C,R11*%
G36*
G01*
X81125000Y-94200000D02*
X81125000Y-94800000D01*
G75*
G02*
X80900000Y-95025000I-225000J0D01*
G01*
X80450000Y-95025000D01*
G75*
G02*
X80225000Y-94800000I0J225000D01*
G01*
X80225000Y-94200000D01*
G75*
G02*
X80450000Y-93975000I225000J0D01*
G01*
X80900000Y-93975000D01*
G75*
G02*
X81125000Y-94200000I0J-225000D01*
G01*
G37*
G36*
G01*
X82775000Y-94200000D02*
X82775000Y-94800000D01*
G75*
G02*
X82550000Y-95025000I-225000J0D01*
G01*
X82100000Y-95025000D01*
G75*
G02*
X81875000Y-94800000I0J225000D01*
G01*
X81875000Y-94200000D01*
G75*
G02*
X82100000Y-93975000I225000J0D01*
G01*
X82550000Y-93975000D01*
G75*
G02*
X82775000Y-94200000I0J-225000D01*
G01*
G37*
%TD*%
%TO.C,R10*%
G36*
G01*
X81125000Y-96200000D02*
X81125000Y-96800000D01*
G75*
G02*
X80900000Y-97025000I-225000J0D01*
G01*
X80450000Y-97025000D01*
G75*
G02*
X80225000Y-96800000I0J225000D01*
G01*
X80225000Y-96200000D01*
G75*
G02*
X80450000Y-95975000I225000J0D01*
G01*
X80900000Y-95975000D01*
G75*
G02*
X81125000Y-96200000I0J-225000D01*
G01*
G37*
G36*
G01*
X82775000Y-96200000D02*
X82775000Y-96800000D01*
G75*
G02*
X82550000Y-97025000I-225000J0D01*
G01*
X82100000Y-97025000D01*
G75*
G02*
X81875000Y-96800000I0J225000D01*
G01*
X81875000Y-96200000D01*
G75*
G02*
X82100000Y-95975000I225000J0D01*
G01*
X82550000Y-95975000D01*
G75*
G02*
X82775000Y-96200000I0J-225000D01*
G01*
G37*
%TD*%
%TO.C,R9*%
G36*
G01*
X81125000Y-98200000D02*
X81125000Y-98800000D01*
G75*
G02*
X80900000Y-99025000I-225000J0D01*
G01*
X80450000Y-99025000D01*
G75*
G02*
X80225000Y-98800000I0J225000D01*
G01*
X80225000Y-98200000D01*
G75*
G02*
X80450000Y-97975000I225000J0D01*
G01*
X80900000Y-97975000D01*
G75*
G02*
X81125000Y-98200000I0J-225000D01*
G01*
G37*
G36*
G01*
X82775000Y-98200000D02*
X82775000Y-98800000D01*
G75*
G02*
X82550000Y-99025000I-225000J0D01*
G01*
X82100000Y-99025000D01*
G75*
G02*
X81875000Y-98800000I0J225000D01*
G01*
X81875000Y-98200000D01*
G75*
G02*
X82100000Y-97975000I225000J0D01*
G01*
X82550000Y-97975000D01*
G75*
G02*
X82775000Y-98200000I0J-225000D01*
G01*
G37*
%TD*%
%TO.C,R8*%
G36*
G01*
X84625000Y-92200000D02*
X84625000Y-92800000D01*
G75*
G02*
X84400000Y-93025000I-225000J0D01*
G01*
X83950000Y-93025000D01*
G75*
G02*
X83725000Y-92800000I0J225000D01*
G01*
X83725000Y-92200000D01*
G75*
G02*
X83950000Y-91975000I225000J0D01*
G01*
X84400000Y-91975000D01*
G75*
G02*
X84625000Y-92200000I0J-225000D01*
G01*
G37*
G36*
G01*
X86275000Y-92200000D02*
X86275000Y-92800000D01*
G75*
G02*
X86050000Y-93025000I-225000J0D01*
G01*
X85600000Y-93025000D01*
G75*
G02*
X85375000Y-92800000I0J225000D01*
G01*
X85375000Y-92200000D01*
G75*
G02*
X85600000Y-91975000I225000J0D01*
G01*
X86050000Y-91975000D01*
G75*
G02*
X86275000Y-92200000I0J-225000D01*
G01*
G37*
%TD*%
%TO.C,R7*%
G36*
G01*
X84625000Y-94200000D02*
X84625000Y-94800000D01*
G75*
G02*
X84400000Y-95025000I-225000J0D01*
G01*
X83950000Y-95025000D01*
G75*
G02*
X83725000Y-94800000I0J225000D01*
G01*
X83725000Y-94200000D01*
G75*
G02*
X83950000Y-93975000I225000J0D01*
G01*
X84400000Y-93975000D01*
G75*
G02*
X84625000Y-94200000I0J-225000D01*
G01*
G37*
G36*
G01*
X86275000Y-94200000D02*
X86275000Y-94800000D01*
G75*
G02*
X86050000Y-95025000I-225000J0D01*
G01*
X85600000Y-95025000D01*
G75*
G02*
X85375000Y-94800000I0J225000D01*
G01*
X85375000Y-94200000D01*
G75*
G02*
X85600000Y-93975000I225000J0D01*
G01*
X86050000Y-93975000D01*
G75*
G02*
X86275000Y-94200000I0J-225000D01*
G01*
G37*
%TD*%
%TO.C,R6*%
G36*
G01*
X84625000Y-96200000D02*
X84625000Y-96800000D01*
G75*
G02*
X84400000Y-97025000I-225000J0D01*
G01*
X83950000Y-97025000D01*
G75*
G02*
X83725000Y-96800000I0J225000D01*
G01*
X83725000Y-96200000D01*
G75*
G02*
X83950000Y-95975000I225000J0D01*
G01*
X84400000Y-95975000D01*
G75*
G02*
X84625000Y-96200000I0J-225000D01*
G01*
G37*
G36*
G01*
X86275000Y-96200000D02*
X86275000Y-96800000D01*
G75*
G02*
X86050000Y-97025000I-225000J0D01*
G01*
X85600000Y-97025000D01*
G75*
G02*
X85375000Y-96800000I0J225000D01*
G01*
X85375000Y-96200000D01*
G75*
G02*
X85600000Y-95975000I225000J0D01*
G01*
X86050000Y-95975000D01*
G75*
G02*
X86275000Y-96200000I0J-225000D01*
G01*
G37*
%TD*%
%TO.C,R5*%
G36*
G01*
X84625000Y-98200000D02*
X84625000Y-98800000D01*
G75*
G02*
X84400000Y-99025000I-225000J0D01*
G01*
X83950000Y-99025000D01*
G75*
G02*
X83725000Y-98800000I0J225000D01*
G01*
X83725000Y-98200000D01*
G75*
G02*
X83950000Y-97975000I225000J0D01*
G01*
X84400000Y-97975000D01*
G75*
G02*
X84625000Y-98200000I0J-225000D01*
G01*
G37*
G36*
G01*
X86275000Y-98200000D02*
X86275000Y-98800000D01*
G75*
G02*
X86050000Y-99025000I-225000J0D01*
G01*
X85600000Y-99025000D01*
G75*
G02*
X85375000Y-98800000I0J225000D01*
G01*
X85375000Y-98200000D01*
G75*
G02*
X85600000Y-97975000I225000J0D01*
G01*
X86050000Y-97975000D01*
G75*
G02*
X86275000Y-98200000I0J-225000D01*
G01*
G37*
%TD*%
%TO.C,C14*%
G36*
G01*
X77225000Y-91275000D02*
X77775000Y-91275000D01*
G75*
G02*
X78025000Y-91525000I0J-250000D01*
G01*
X78025000Y-92025000D01*
G75*
G02*
X77775000Y-92275000I-250000J0D01*
G01*
X77225000Y-92275000D01*
G75*
G02*
X76975000Y-92025000I0J250000D01*
G01*
X76975000Y-91525000D01*
G75*
G02*
X77225000Y-91275000I250000J0D01*
G01*
G37*
G36*
G01*
X77225000Y-89725000D02*
X77775000Y-89725000D01*
G75*
G02*
X78025000Y-89975000I0J-250000D01*
G01*
X78025000Y-90475000D01*
G75*
G02*
X77775000Y-90725000I-250000J0D01*
G01*
X77225000Y-90725000D01*
G75*
G02*
X76975000Y-90475000I0J250000D01*
G01*
X76975000Y-89975000D01*
G75*
G02*
X77225000Y-89725000I250000J0D01*
G01*
G37*
%TD*%
%TO.C,C13*%
G36*
G01*
X74225000Y-91275000D02*
X74775000Y-91275000D01*
G75*
G02*
X75025000Y-91525000I0J-250000D01*
G01*
X75025000Y-92025000D01*
G75*
G02*
X74775000Y-92275000I-250000J0D01*
G01*
X74225000Y-92275000D01*
G75*
G02*
X73975000Y-92025000I0J250000D01*
G01*
X73975000Y-91525000D01*
G75*
G02*
X74225000Y-91275000I250000J0D01*
G01*
G37*
G36*
G01*
X74225000Y-89725000D02*
X74775000Y-89725000D01*
G75*
G02*
X75025000Y-89975000I0J-250000D01*
G01*
X75025000Y-90475000D01*
G75*
G02*
X74775000Y-90725000I-250000J0D01*
G01*
X74225000Y-90725000D01*
G75*
G02*
X73975000Y-90475000I0J250000D01*
G01*
X73975000Y-89975000D01*
G75*
G02*
X74225000Y-89725000I250000J0D01*
G01*
G37*
%TD*%
%TO.C,C12*%
G36*
G01*
X74775000Y-94725000D02*
X74225000Y-94725000D01*
G75*
G02*
X73975000Y-94475000I0J250000D01*
G01*
X73975000Y-93975000D01*
G75*
G02*
X74225000Y-93725000I250000J0D01*
G01*
X74775000Y-93725000D01*
G75*
G02*
X75025000Y-93975000I0J-250000D01*
G01*
X75025000Y-94475000D01*
G75*
G02*
X74775000Y-94725000I-250000J0D01*
G01*
G37*
G36*
G01*
X74775000Y-96275000D02*
X74225000Y-96275000D01*
G75*
G02*
X73975000Y-96025000I0J250000D01*
G01*
X73975000Y-95525000D01*
G75*
G02*
X74225000Y-95275000I250000J0D01*
G01*
X74775000Y-95275000D01*
G75*
G02*
X75025000Y-95525000I0J-250000D01*
G01*
X75025000Y-96025000D01*
G75*
G02*
X74775000Y-96275000I-250000J0D01*
G01*
G37*
%TD*%
%TO.C,C11*%
G36*
G01*
X77775000Y-94725000D02*
X77225000Y-94725000D01*
G75*
G02*
X76975000Y-94475000I0J250000D01*
G01*
X76975000Y-93975000D01*
G75*
G02*
X77225000Y-93725000I250000J0D01*
G01*
X77775000Y-93725000D01*
G75*
G02*
X78025000Y-93975000I0J-250000D01*
G01*
X78025000Y-94475000D01*
G75*
G02*
X77775000Y-94725000I-250000J0D01*
G01*
G37*
G36*
G01*
X77775000Y-96275000D02*
X77225000Y-96275000D01*
G75*
G02*
X76975000Y-96025000I0J250000D01*
G01*
X76975000Y-95525000D01*
G75*
G02*
X77225000Y-95275000I250000J0D01*
G01*
X77775000Y-95275000D01*
G75*
G02*
X78025000Y-95525000I0J-250000D01*
G01*
X78025000Y-96025000D01*
G75*
G02*
X77775000Y-96275000I-250000J0D01*
G01*
G37*
%TD*%
%TO.C,C10*%
G36*
G01*
X71225000Y-91275000D02*
X71775000Y-91275000D01*
G75*
G02*
X72025000Y-91525000I0J-250000D01*
G01*
X72025000Y-92025000D01*
G75*
G02*
X71775000Y-92275000I-250000J0D01*
G01*
X71225000Y-92275000D01*
G75*
G02*
X70975000Y-92025000I0J250000D01*
G01*
X70975000Y-91525000D01*
G75*
G02*
X71225000Y-91275000I250000J0D01*
G01*
G37*
G36*
G01*
X71225000Y-89725000D02*
X71775000Y-89725000D01*
G75*
G02*
X72025000Y-89975000I0J-250000D01*
G01*
X72025000Y-90475000D01*
G75*
G02*
X71775000Y-90725000I-250000J0D01*
G01*
X71225000Y-90725000D01*
G75*
G02*
X70975000Y-90475000I0J250000D01*
G01*
X70975000Y-89975000D01*
G75*
G02*
X71225000Y-89725000I250000J0D01*
G01*
G37*
%TD*%
%TO.C,C9*%
G36*
G01*
X71775000Y-94725000D02*
X71225000Y-94725000D01*
G75*
G02*
X70975000Y-94475000I0J250000D01*
G01*
X70975000Y-93975000D01*
G75*
G02*
X71225000Y-93725000I250000J0D01*
G01*
X71775000Y-93725000D01*
G75*
G02*
X72025000Y-93975000I0J-250000D01*
G01*
X72025000Y-94475000D01*
G75*
G02*
X71775000Y-94725000I-250000J0D01*
G01*
G37*
G36*
G01*
X71775000Y-96275000D02*
X71225000Y-96275000D01*
G75*
G02*
X70975000Y-96025000I0J250000D01*
G01*
X70975000Y-95525000D01*
G75*
G02*
X71225000Y-95275000I250000J0D01*
G01*
X71775000Y-95275000D01*
G75*
G02*
X72025000Y-95525000I0J-250000D01*
G01*
X72025000Y-96025000D01*
G75*
G02*
X71775000Y-96275000I-250000J0D01*
G01*
G37*
%TD*%
%TO.C,C8*%
G36*
G01*
X67025000Y-85975000D02*
X66475000Y-85975000D01*
G75*
G02*
X66225000Y-85725000I0J250000D01*
G01*
X66225000Y-85225000D01*
G75*
G02*
X66475000Y-84975000I250000J0D01*
G01*
X67025000Y-84975000D01*
G75*
G02*
X67275000Y-85225000I0J-250000D01*
G01*
X67275000Y-85725000D01*
G75*
G02*
X67025000Y-85975000I-250000J0D01*
G01*
G37*
G36*
G01*
X67025000Y-87525000D02*
X66475000Y-87525000D01*
G75*
G02*
X66225000Y-87275000I0J250000D01*
G01*
X66225000Y-86775000D01*
G75*
G02*
X66475000Y-86525000I250000J0D01*
G01*
X67025000Y-86525000D01*
G75*
G02*
X67275000Y-86775000I0J-250000D01*
G01*
X67275000Y-87275000D01*
G75*
G02*
X67025000Y-87525000I-250000J0D01*
G01*
G37*
%TD*%
%TO.C,C7*%
G36*
G01*
X69525000Y-87525000D02*
X69525000Y-86975000D01*
G75*
G02*
X69775000Y-86725000I250000J0D01*
G01*
X70275000Y-86725000D01*
G75*
G02*
X70525000Y-86975000I0J-250000D01*
G01*
X70525000Y-87525000D01*
G75*
G02*
X70275000Y-87775000I-250000J0D01*
G01*
X69775000Y-87775000D01*
G75*
G02*
X69525000Y-87525000I0J250000D01*
G01*
G37*
G36*
G01*
X67975000Y-87525000D02*
X67975000Y-86975000D01*
G75*
G02*
X68225000Y-86725000I250000J0D01*
G01*
X68725000Y-86725000D01*
G75*
G02*
X68975000Y-86975000I0J-250000D01*
G01*
X68975000Y-87525000D01*
G75*
G02*
X68725000Y-87775000I-250000J0D01*
G01*
X68225000Y-87775000D01*
G75*
G02*
X67975000Y-87525000I0J250000D01*
G01*
G37*
%TD*%
D13*
%TO.C,C6*%
X62000000Y-92250000D03*
D14*
X59500000Y-92250000D03*
%TD*%
D13*
%TO.C,C5*%
X69500000Y-54000000D03*
D14*
X67000000Y-54000000D03*
%TD*%
D17*
%TO.C,S4_Lo1*%
X85590990Y-85409010D03*
X84000000Y-84750000D03*
X82409010Y-85409010D03*
X81750000Y-87000000D03*
X82409010Y-88590990D03*
X84000000Y-89250000D03*
X85590990Y-88590990D03*
X86250000Y-87000000D03*
D16*
X84000000Y-87000000D03*
%TD*%
D17*
%TO.C,S4_Hi1*%
X97590990Y-85409010D03*
X96000000Y-84750000D03*
X94409010Y-85409010D03*
X93750000Y-87000000D03*
X94409010Y-88590990D03*
X96000000Y-89250000D03*
X97590990Y-88590990D03*
X98250000Y-87000000D03*
D16*
X96000000Y-87000000D03*
%TD*%
D17*
%TO.C,S3_Lo1*%
X85590990Y-77409010D03*
X84000000Y-76750000D03*
X82409010Y-77409010D03*
X81750000Y-79000000D03*
X82409010Y-80590990D03*
X84000000Y-81250000D03*
X85590990Y-80590990D03*
X86250000Y-79000000D03*
D16*
X84000000Y-79000000D03*
%TD*%
D17*
%TO.C,S3_Hi1*%
X97590990Y-77409010D03*
X96000000Y-76750000D03*
X94409010Y-77409010D03*
X93750000Y-79000000D03*
X94409010Y-80590990D03*
X96000000Y-81250000D03*
X97590990Y-80590990D03*
X98250000Y-79000000D03*
D16*
X96000000Y-79000000D03*
%TD*%
D17*
%TO.C,S2_Lo1*%
X85590990Y-69409010D03*
X84000000Y-68750000D03*
X82409010Y-69409010D03*
X81750000Y-71000000D03*
X82409010Y-72590990D03*
X84000000Y-73250000D03*
X85590990Y-72590990D03*
X86250000Y-71000000D03*
D16*
X84000000Y-71000000D03*
%TD*%
D17*
%TO.C,S2_Hi1*%
X97590990Y-69409010D03*
X96000000Y-68750000D03*
X94409010Y-69409010D03*
X93750000Y-71000000D03*
X94409010Y-72590990D03*
X96000000Y-73250000D03*
X97590990Y-72590990D03*
X98250000Y-71000000D03*
D16*
X96000000Y-71000000D03*
%TD*%
D17*
%TO.C,S1_Lo1*%
X85590990Y-61409010D03*
X84000000Y-60750000D03*
X82409010Y-61409010D03*
X81750000Y-63000000D03*
X82409010Y-64590990D03*
X84000000Y-65250000D03*
X85590990Y-64590990D03*
X86250000Y-63000000D03*
D16*
X84000000Y-63000000D03*
%TD*%
D17*
%TO.C,S1_Hi1*%
X97590990Y-61409010D03*
X96000000Y-60750000D03*
X94409010Y-61409010D03*
X93750000Y-63000000D03*
X94409010Y-64590990D03*
X96000000Y-65250000D03*
X97590990Y-64590990D03*
X98250000Y-63000000D03*
D16*
X96000000Y-63000000D03*
%TD*%
D18*
%TO.C,R4*%
X89115000Y-85094000D03*
X90885000Y-85094000D03*
D19*
X90885000Y-86999500D03*
X89115000Y-87000000D03*
%TD*%
D18*
%TO.C,R3*%
X89000000Y-77094000D03*
X90770000Y-77094000D03*
D19*
X90770000Y-78999500D03*
X89000000Y-79000000D03*
%TD*%
D18*
%TO.C,R2*%
X89115000Y-69094000D03*
X90885000Y-69094000D03*
D19*
X90885000Y-70999500D03*
X89115000Y-71000000D03*
%TD*%
D18*
%TO.C,R1*%
X89230000Y-61094500D03*
X91000000Y-61094500D03*
D19*
X91000000Y-63000000D03*
X89230000Y-63000500D03*
%TD*%
%TO.C,C4*%
G36*
G01*
X73725000Y-85475000D02*
X73725000Y-86025000D01*
G75*
G02*
X73475000Y-86275000I-250000J0D01*
G01*
X72975000Y-86275000D01*
G75*
G02*
X72725000Y-86025000I0J250000D01*
G01*
X72725000Y-85475000D01*
G75*
G02*
X72975000Y-85225000I250000J0D01*
G01*
X73475000Y-85225000D01*
G75*
G02*
X73725000Y-85475000I0J-250000D01*
G01*
G37*
G36*
G01*
X75275000Y-85475000D02*
X75275000Y-86025000D01*
G75*
G02*
X75025000Y-86275000I-250000J0D01*
G01*
X74525000Y-86275000D01*
G75*
G02*
X74275000Y-86025000I0J250000D01*
G01*
X74275000Y-85475000D01*
G75*
G02*
X74525000Y-85225000I250000J0D01*
G01*
X75025000Y-85225000D01*
G75*
G02*
X75275000Y-85475000I0J-250000D01*
G01*
G37*
%TD*%
%TO.C,C3*%
G36*
G01*
X73725000Y-79475000D02*
X73725000Y-80025000D01*
G75*
G02*
X73475000Y-80275000I-250000J0D01*
G01*
X72975000Y-80275000D01*
G75*
G02*
X72725000Y-80025000I0J250000D01*
G01*
X72725000Y-79475000D01*
G75*
G02*
X72975000Y-79225000I250000J0D01*
G01*
X73475000Y-79225000D01*
G75*
G02*
X73725000Y-79475000I0J-250000D01*
G01*
G37*
G36*
G01*
X75275000Y-79475000D02*
X75275000Y-80025000D01*
G75*
G02*
X75025000Y-80275000I-250000J0D01*
G01*
X74525000Y-80275000D01*
G75*
G02*
X74275000Y-80025000I0J250000D01*
G01*
X74275000Y-79475000D01*
G75*
G02*
X74525000Y-79225000I250000J0D01*
G01*
X75025000Y-79225000D01*
G75*
G02*
X75275000Y-79475000I0J-250000D01*
G01*
G37*
%TD*%
%TO.C,C2*%
G36*
G01*
X73725000Y-71475000D02*
X73725000Y-72025000D01*
G75*
G02*
X73475000Y-72275000I-250000J0D01*
G01*
X72975000Y-72275000D01*
G75*
G02*
X72725000Y-72025000I0J250000D01*
G01*
X72725000Y-71475000D01*
G75*
G02*
X72975000Y-71225000I250000J0D01*
G01*
X73475000Y-71225000D01*
G75*
G02*
X73725000Y-71475000I0J-250000D01*
G01*
G37*
G36*
G01*
X75275000Y-71475000D02*
X75275000Y-72025000D01*
G75*
G02*
X75025000Y-72275000I-250000J0D01*
G01*
X74525000Y-72275000D01*
G75*
G02*
X74275000Y-72025000I0J250000D01*
G01*
X74275000Y-71475000D01*
G75*
G02*
X74525000Y-71225000I250000J0D01*
G01*
X75025000Y-71225000D01*
G75*
G02*
X75275000Y-71475000I0J-250000D01*
G01*
G37*
%TD*%
%TO.C,C1*%
G36*
G01*
X73725000Y-65475000D02*
X73725000Y-66025000D01*
G75*
G02*
X73475000Y-66275000I-250000J0D01*
G01*
X72975000Y-66275000D01*
G75*
G02*
X72725000Y-66025000I0J250000D01*
G01*
X72725000Y-65475000D01*
G75*
G02*
X72975000Y-65225000I250000J0D01*
G01*
X73475000Y-65225000D01*
G75*
G02*
X73725000Y-65475000I0J-250000D01*
G01*
G37*
G36*
G01*
X75275000Y-65475000D02*
X75275000Y-66025000D01*
G75*
G02*
X75025000Y-66275000I-250000J0D01*
G01*
X74525000Y-66275000D01*
G75*
G02*
X74275000Y-66025000I0J250000D01*
G01*
X74275000Y-65475000D01*
G75*
G02*
X74525000Y-65225000I250000J0D01*
G01*
X75025000Y-65225000D01*
G75*
G02*
X75275000Y-65475000I0J-250000D01*
G01*
G37*
%TD*%
M02*
