M48
; DRILL file {KiCad (5.1.6)-1} date 10/10/21 19:01:56
; FORMAT={3:3/ absolute / metric / suppress trailing zeros}
; #@! TF.CreationDate,2021-10-10T19:01:56-07:00
; #@! TF.GenerationSoftware,Kicad,Pcbnew,(5.1.6)-1
FMAT,2
METRIC,LZ
T1C0.400
T2C0.500
T3C0.800
T4C0.950
T5C1.000
T6C3.000
%
G90
G05
T1
X052775Y-0835
X054Y-08175
X05725Y-075075
X05725Y-077675
X05725Y-079
X057475Y-080275
X06075Y-075075
X06075Y-07675
X06075Y-078975
X06075Y-080275
X06075Y-078
X0625Y-082
X064725Y-088438
X06545Y-09375
X06575Y-082
X066225Y-088438
X066525Y-097725
X06675Y-08425
X06675Y-092
X06675Y-09375
X06725Y-0617
X067825Y-077025
X067825Y-081475
X06825Y-092
X06825Y-09375
X06925Y-0587
X06925Y-063
X06925Y-069
X06925Y-077
X06925Y-083
X0705Y-06475
X0705Y-07075
X0705Y-07875
X0705Y-08475
X07125Y-08725
X0715Y-093
X073Y-09305
X073225Y-064525
X073225Y-070525
X073225Y-078525
X073225Y-084525
X07335Y-062
X0735Y-06725
X0735Y-069
X0735Y-0755
X0735Y-077
X0735Y-0815
X0735Y-083
X07375Y-0885
X0745Y-093
X0745Y-0975
X07465Y-0635
X07465Y-0695
X07465Y-0775
X07465Y-0835
X076Y-09305
X0775Y-093
X07775Y-064
X07775Y-07
X07775Y-078
X07775Y-084
X0795Y-0965
X0795Y-0945
X087Y-0925
X087Y-0945
X087Y-0965
X087Y-0985
T2
X08175Y-079
X082409Y-077409
X082409Y-080591
X084Y-07675
X084Y-08125
X085591Y-077409
X085591Y-080591
X08625Y-079
X05175Y-054
X052409Y-052409
X052409Y-055591
X054Y-05175
X054Y-05625
X055591Y-052409
X055591Y-055591
X05625Y-054
X05175Y-096
X052409Y-094409
X052409Y-097591
X054Y-09375
X054Y-09825
X055591Y-094409
X055591Y-097591
X05625Y-096
X09375Y-096
X094409Y-094409
X094409Y-097591
X096Y-09375
X096Y-09825
X097591Y-094409
X097591Y-097591
X09825Y-096
X08175Y-071
X082409Y-069409
X082409Y-072591
X084Y-06875
X084Y-07325
X085591Y-069409
X085591Y-072591
X08625Y-071
X09375Y-071
X094409Y-069409
X094409Y-072591
X096Y-06875
X096Y-07325
X097591Y-069409
X097591Y-072591
X09825Y-071
X09375Y-054
X094409Y-052409
X094409Y-055591
X096Y-05175
X096Y-05625
X097591Y-052409
X097591Y-055591
X09825Y-054
X09375Y-079
X094409Y-077409
X094409Y-080591
X096Y-07675
X096Y-08125
X097591Y-077409
X097591Y-080591
X09825Y-079
X08175Y-087
X082409Y-085409
X082409Y-088591
X084Y-08475
X084Y-08925
X085591Y-085409
X085591Y-088591
X08625Y-087
X0815Y-054
X082159Y-052409
X082159Y-055591
X08375Y-05175
X08375Y-05625
X085341Y-052409
X085341Y-055591
X086Y-054
X09375Y-087
X094409Y-085409
X094409Y-088591
X096Y-08475
X096Y-08925
X097591Y-085409
X097591Y-088591
X09825Y-087
X08175Y-063
X082409Y-061409
X082409Y-064591
X084Y-06075
X084Y-06525
X085591Y-061409
X085591Y-064591
X08625Y-063
X09375Y-063
X094409Y-061409
X094409Y-064591
X096Y-06075
X096Y-06525
X097591Y-061409
X097591Y-064591
X09825Y-063
T3
X0595Y-06075
X0595Y-09225
X062Y-09225
X067Y-054
X0695Y-054
X0595Y-0685
X062Y-0685
X062Y-06075
T4
X054Y-06075
X054Y-06325
X054Y-06575
X054Y-06825
X054Y-07075
T5
X07325Y-05325
X07325Y-05579
X07925Y-05325
X07925Y-05579
X07625Y-05325
X07625Y-05579
X05971Y-09725
X06225Y-09725
T6
X096Y-054
X096Y-079
X084Y-087
X08375Y-054
X096Y-087
X084Y-063
X096Y-063
X084Y-079
X054Y-054
X054Y-096
X096Y-096
X084Y-071
X096Y-071
T0
M30
