%TF.GenerationSoftware,KiCad,Pcbnew,(5.1.6)-1*%
%TF.CreationDate,2021-10-10T19:01:51-07:00*%
%TF.ProjectId,PV Panel Monitor,50562050-616e-4656-9c20-4d6f6e69746f,rev?*%
%TF.SameCoordinates,Original*%
%TF.FileFunction,Copper,L4,Bot*%
%TF.FilePolarity,Positive*%
%FSLAX46Y46*%
G04 Gerber Fmt 4.6, Leading zero omitted, Abs format (unit mm)*
G04 Created by KiCad (PCBNEW (5.1.6)-1) date 2021-10-10 19:01:51*
%MOMM*%
%LPD*%
G01*
G04 APERTURE LIST*
%TA.AperFunction,ComponentPad*%
%ADD10O,1.700000X1.700000*%
%TD*%
%TA.AperFunction,ComponentPad*%
%ADD11R,1.700000X1.700000*%
%TD*%
%TA.AperFunction,ComponentPad*%
%ADD12O,1.950000X1.700000*%
%TD*%
%TA.AperFunction,ComponentPad*%
%ADD13C,1.600000*%
%TD*%
%TA.AperFunction,ComponentPad*%
%ADD14R,1.600000X1.600000*%
%TD*%
%TA.AperFunction,ComponentPad*%
%ADD15C,6.000000*%
%TD*%
%TA.AperFunction,ComponentPad*%
%ADD16C,0.800000*%
%TD*%
%TA.AperFunction,ViaPad*%
%ADD17C,0.800000*%
%TD*%
%TA.AperFunction,Conductor*%
%ADD18C,0.250000*%
%TD*%
G04 APERTURE END LIST*
D10*
%TO.P,TP4,2*%
%TO.N,+5VA*%
X62250000Y-97250000D03*
D11*
%TO.P,TP4,1*%
X59710000Y-97250000D03*
%TD*%
D10*
%TO.P,TP3,2*%
%TO.N,/SDA*%
X76250000Y-55790000D03*
D11*
%TO.P,TP3,1*%
X76250000Y-53250000D03*
%TD*%
D10*
%TO.P,TP2,2*%
%TO.N,/SCL*%
X79250000Y-55790000D03*
D11*
%TO.P,TP2,1*%
X79250000Y-53250000D03*
%TD*%
D10*
%TO.P,TP1,2*%
%TO.N,GNDA*%
X73250000Y-55790000D03*
D11*
%TO.P,TP1,1*%
X73250000Y-53250000D03*
%TD*%
D12*
%TO.P,J1,5*%
%TO.N,GND*%
X54000000Y-70750000D03*
%TO.P,J1,4*%
%TO.N,Net-(J1-Pad4)*%
X54000000Y-68250000D03*
%TO.P,J1,3*%
%TO.N,Net-(J1-Pad3)*%
X54000000Y-65750000D03*
%TO.P,J1,2*%
%TO.N,VBUS*%
X54000000Y-63250000D03*
%TO.P,J1,1*%
%TO.N,+5V*%
%TA.AperFunction,ComponentPad*%
G36*
G01*
X53275000Y-59900000D02*
X54725000Y-59900000D01*
G75*
G02*
X54975000Y-60150000I0J-250000D01*
G01*
X54975000Y-61350000D01*
G75*
G02*
X54725000Y-61600000I-250000J0D01*
G01*
X53275000Y-61600000D01*
G75*
G02*
X53025000Y-61350000I0J250000D01*
G01*
X53025000Y-60150000D01*
G75*
G02*
X53275000Y-59900000I250000J0D01*
G01*
G37*
%TD.AperFunction*%
%TD*%
D13*
%TO.P,C22,2*%
%TO.N,GND*%
X62000000Y-68500000D03*
D14*
%TO.P,C22,1*%
%TO.N,VBUS*%
X59500000Y-68500000D03*
%TD*%
D13*
%TO.P,C15,2*%
%TO.N,GND*%
X62000000Y-60750000D03*
D14*
%TO.P,C15,1*%
%TO.N,+5V*%
X59500000Y-60750000D03*
%TD*%
D15*
%TO.P,H4,1*%
%TO.N,N/C*%
X54000000Y-96000000D03*
D16*
X56250000Y-96000000D03*
X55590990Y-97590990D03*
X54000000Y-98250000D03*
X52409010Y-97590990D03*
X51750000Y-96000000D03*
X52409010Y-94409010D03*
X54000000Y-93750000D03*
X55590990Y-94409010D03*
%TD*%
D15*
%TO.P,H3,1*%
%TO.N,N/C*%
X96000000Y-54000000D03*
D16*
X98250000Y-54000000D03*
X97590990Y-55590990D03*
X96000000Y-56250000D03*
X94409010Y-55590990D03*
X93750000Y-54000000D03*
X94409010Y-52409010D03*
X96000000Y-51750000D03*
X97590990Y-52409010D03*
%TD*%
D15*
%TO.P,H2,1*%
%TO.N,N/C*%
X54000000Y-54000000D03*
D16*
X56250000Y-54000000D03*
X55590990Y-55590990D03*
X54000000Y-56250000D03*
X52409010Y-55590990D03*
X51750000Y-54000000D03*
X52409010Y-52409010D03*
X54000000Y-51750000D03*
X55590990Y-52409010D03*
%TD*%
D15*
%TO.P,H1,1*%
%TO.N,N/C*%
X96000000Y-96000000D03*
D16*
X98250000Y-96000000D03*
X97590990Y-97590990D03*
X96000000Y-98250000D03*
X94409010Y-97590990D03*
X93750000Y-96000000D03*
X94409010Y-94409010D03*
X96000000Y-93750000D03*
X97590990Y-94409010D03*
%TD*%
%TO.P,Gnd1,1*%
%TO.N,GNDA*%
X85340990Y-52409010D03*
X83750000Y-51750000D03*
X82159010Y-52409010D03*
X81500000Y-54000000D03*
X82159010Y-55590990D03*
X83750000Y-56250000D03*
X85340990Y-55590990D03*
X86000000Y-54000000D03*
D15*
X83750000Y-54000000D03*
%TD*%
D13*
%TO.P,C6,2*%
%TO.N,GNDA*%
X62000000Y-92250000D03*
D14*
%TO.P,C6,1*%
%TO.N,+5VA*%
X59500000Y-92250000D03*
%TD*%
D13*
%TO.P,C5,2*%
%TO.N,GNDA*%
X69500000Y-54000000D03*
D14*
%TO.P,C5,1*%
%TO.N,+5VA*%
X67000000Y-54000000D03*
%TD*%
D16*
%TO.P,S4_Lo1,1*%
%TO.N,Net-(R4-Pad1)*%
X85590990Y-85409010D03*
X84000000Y-84750000D03*
X82409010Y-85409010D03*
X81750000Y-87000000D03*
X82409010Y-88590990D03*
X84000000Y-89250000D03*
X85590990Y-88590990D03*
X86250000Y-87000000D03*
D15*
X84000000Y-87000000D03*
%TD*%
D16*
%TO.P,S4_Hi1,1*%
%TO.N,Net-(R4-Pad4)*%
X97590990Y-85409010D03*
X96000000Y-84750000D03*
X94409010Y-85409010D03*
X93750000Y-87000000D03*
X94409010Y-88590990D03*
X96000000Y-89250000D03*
X97590990Y-88590990D03*
X98250000Y-87000000D03*
D15*
X96000000Y-87000000D03*
%TD*%
D16*
%TO.P,S3_Lo1,1*%
%TO.N,Net-(R3-Pad1)*%
X85590990Y-77409010D03*
X84000000Y-76750000D03*
X82409010Y-77409010D03*
X81750000Y-79000000D03*
X82409010Y-80590990D03*
X84000000Y-81250000D03*
X85590990Y-80590990D03*
X86250000Y-79000000D03*
D15*
X84000000Y-79000000D03*
%TD*%
D16*
%TO.P,S3_Hi1,1*%
%TO.N,Net-(R3-Pad4)*%
X97590990Y-77409010D03*
X96000000Y-76750000D03*
X94409010Y-77409010D03*
X93750000Y-79000000D03*
X94409010Y-80590990D03*
X96000000Y-81250000D03*
X97590990Y-80590990D03*
X98250000Y-79000000D03*
D15*
X96000000Y-79000000D03*
%TD*%
D16*
%TO.P,S2_Lo1,1*%
%TO.N,Net-(R2-Pad1)*%
X85590990Y-69409010D03*
X84000000Y-68750000D03*
X82409010Y-69409010D03*
X81750000Y-71000000D03*
X82409010Y-72590990D03*
X84000000Y-73250000D03*
X85590990Y-72590990D03*
X86250000Y-71000000D03*
D15*
X84000000Y-71000000D03*
%TD*%
D16*
%TO.P,S2_Hi1,1*%
%TO.N,Net-(R2-Pad4)*%
X97590990Y-69409010D03*
X96000000Y-68750000D03*
X94409010Y-69409010D03*
X93750000Y-71000000D03*
X94409010Y-72590990D03*
X96000000Y-73250000D03*
X97590990Y-72590990D03*
X98250000Y-71000000D03*
D15*
X96000000Y-71000000D03*
%TD*%
D16*
%TO.P,S1_Lo1,1*%
%TO.N,Net-(R1-Pad1)*%
X85590990Y-61409010D03*
X84000000Y-60750000D03*
X82409010Y-61409010D03*
X81750000Y-63000000D03*
X82409010Y-64590990D03*
X84000000Y-65250000D03*
X85590990Y-64590990D03*
X86250000Y-63000000D03*
D15*
X84000000Y-63000000D03*
%TD*%
D16*
%TO.P,S1_Hi1,1*%
%TO.N,Net-(R1-Pad4)*%
X97590990Y-61409010D03*
X96000000Y-60750000D03*
X94409010Y-61409010D03*
X93750000Y-63000000D03*
X94409010Y-64590990D03*
X96000000Y-65250000D03*
X97590990Y-64590990D03*
X98250000Y-63000000D03*
D15*
X96000000Y-63000000D03*
%TD*%
D17*
%TO.N,GND*%
X52775000Y-83500000D03*
X57250000Y-79000000D03*
X57250000Y-77675000D03*
X57250000Y-75075000D03*
X54000000Y-81750000D03*
%TO.N,Net-(R1-Pad4)*%
X87000000Y-92500000D03*
%TO.N,Net-(R2-Pad4)*%
X87000000Y-94500000D03*
%TO.N,Net-(R3-Pad4)*%
X87000000Y-96500000D03*
%TO.N,Net-(R4-Pad4)*%
X87000000Y-98500000D03*
%TO.N,Net-(C12-Pad1)*%
X74500000Y-97500000D03*
X79499990Y-96500000D03*
%TO.N,Net-(C13-Pad1)*%
X79500000Y-94500000D03*
X73750000Y-88500000D03*
%TO.N,GNDA*%
X74650000Y-63500000D03*
X73225000Y-64525000D03*
X73225000Y-78525000D03*
X73225000Y-84525000D03*
X66750000Y-84250000D03*
X71250000Y-87250000D03*
X73500000Y-77000000D03*
X74650000Y-83500000D03*
X74650000Y-77500000D03*
X73350000Y-62000000D03*
X74650000Y-69500000D03*
X67825000Y-81475000D03*
X60750000Y-75075000D03*
X60750000Y-78975000D03*
X65750000Y-82000000D03*
X62500000Y-82000000D03*
X77500000Y-93000000D03*
X76000000Y-93050000D03*
X74500000Y-93000000D03*
X73000000Y-93050000D03*
X71500000Y-93000000D03*
X60750006Y-78000000D03*
X73500000Y-67250000D03*
X65450000Y-93750000D03*
X66750000Y-93749984D03*
X68250000Y-93750000D03*
X73225000Y-70525000D03*
%TO.N,+5VA*%
X69250000Y-58700000D03*
X67250000Y-61700000D03*
X73500000Y-81500000D03*
X73500000Y-83000000D03*
X73500000Y-75500000D03*
X77750000Y-64000000D03*
X77750000Y-70000000D03*
X77750000Y-78000000D03*
X67825000Y-77025000D03*
X60750000Y-80275000D03*
X66525000Y-97725000D03*
X66750000Y-92000000D03*
X68250000Y-92000000D03*
X60750000Y-76750018D03*
X77750000Y-84000000D03*
X73500000Y-69000000D03*
%TO.N,+5V*%
X57475000Y-80275000D03*
%TO.N,/SCL*%
X70500000Y-64750000D03*
X70500000Y-70750000D03*
X70500000Y-78750000D03*
X64725000Y-88437500D03*
X70500000Y-84750000D03*
%TO.N,/SDA*%
X69250000Y-63000000D03*
X69250000Y-69000000D03*
X69250000Y-77000000D03*
X66225000Y-88437500D03*
X69250000Y-83000000D03*
%TD*%
D18*
%TO.N,Net-(R1-Pad4)*%
X92875000Y-66125000D02*
X96000000Y-63000000D01*
X87000000Y-92500000D02*
X88750000Y-91300000D01*
X88750000Y-91300000D02*
X88750000Y-70250000D01*
X88750000Y-70250000D02*
X92875000Y-66125000D01*
%TO.N,Net-(R2-Pad4)*%
X92000000Y-75000000D02*
X96000000Y-71000000D01*
X92000000Y-82500000D02*
X92000000Y-75000000D01*
X90000000Y-92050000D02*
X90000000Y-84500000D01*
X90000000Y-84500000D02*
X92000000Y-82500000D01*
X87000000Y-94500000D02*
X90000000Y-92050000D01*
%TO.N,Net-(R3-Pad4)*%
X93000000Y-83500000D02*
X93000000Y-82000000D01*
X91000000Y-85500000D02*
X93000000Y-83500000D01*
X87000000Y-96500000D02*
X89250000Y-96500000D01*
X93000000Y-82000000D02*
X96000000Y-79000000D01*
X91000000Y-94750000D02*
X91000000Y-85500000D01*
X89250000Y-96500000D02*
X91000000Y-94750000D01*
%TO.N,Net-(R4-Pad4)*%
X93625000Y-89375000D02*
X96000000Y-87000000D01*
X93625000Y-89625000D02*
X93625000Y-89375000D01*
X91750000Y-91500000D02*
X93625000Y-89625000D01*
X87000000Y-98500000D02*
X89750000Y-98500000D01*
X89750000Y-98500000D02*
X91750000Y-96500000D01*
X91750000Y-96500000D02*
X91750000Y-91500000D01*
%TO.N,Net-(C12-Pad1)*%
X78499990Y-97500000D02*
X74500000Y-97500000D01*
X79499990Y-96500000D02*
X78499990Y-97500000D01*
%TO.N,Net-(C13-Pad1)*%
X79500000Y-93434315D02*
X74565685Y-88500000D01*
X79500000Y-94500000D02*
X79500000Y-93434315D01*
X74565685Y-88500000D02*
X73750000Y-88500000D01*
%TO.N,/SCL*%
X70500000Y-64750000D02*
X70500000Y-86250000D01*
X70500000Y-86250000D02*
X67250000Y-89500000D01*
X67250000Y-89500000D02*
X65250000Y-89500000D01*
X64725000Y-88975000D02*
X64725000Y-88437500D01*
X65250000Y-89500000D02*
X64725000Y-88975000D01*
X79250000Y-55790000D02*
X79250000Y-57250000D01*
X79250000Y-57250000D02*
X76500000Y-60000000D01*
X76500000Y-60000000D02*
X72500000Y-60000000D01*
X70500000Y-62000000D02*
X70500000Y-64750000D01*
X72500000Y-60000000D02*
X70500000Y-62000000D01*
X79250000Y-55790000D02*
X79250000Y-53250000D01*
%TO.N,/SDA*%
X69250000Y-63000000D02*
X69250000Y-83000000D01*
X69250000Y-85412500D02*
X69250000Y-83000000D01*
X66225000Y-88437500D02*
X69250000Y-85412500D01*
X69250000Y-63000000D02*
X69250000Y-61750000D01*
X69250000Y-61750000D02*
X71750000Y-59250000D01*
X71750000Y-59250000D02*
X74250000Y-59250000D01*
X76250000Y-57250000D02*
X76250000Y-55790000D01*
X74250000Y-59250000D02*
X76250000Y-57250000D01*
X76250000Y-55790000D02*
X76250000Y-53250000D01*
%TD*%
M02*
