%TF.GenerationSoftware,KiCad,Pcbnew,(5.1.6)-1*%
%TF.CreationDate,2021-10-10T19:01:51-07:00*%
%TF.ProjectId,PV Panel Monitor,50562050-616e-4656-9c20-4d6f6e69746f,rev?*%
%TF.SameCoordinates,Original*%
%TF.FileFunction,Copper,L2,Inr*%
%TF.FilePolarity,Positive*%
%FSLAX46Y46*%
G04 Gerber Fmt 4.6, Leading zero omitted, Abs format (unit mm)*
G04 Created by KiCad (PCBNEW (5.1.6)-1) date 2021-10-10 19:01:51*
%MOMM*%
%LPD*%
G01*
G04 APERTURE LIST*
%TA.AperFunction,ViaPad*%
%ADD10O,1.700000X1.700000*%
%TD*%
%TA.AperFunction,ViaPad*%
%ADD11R,1.700000X1.700000*%
%TD*%
%TA.AperFunction,ViaPad*%
%ADD12O,1.950000X1.700000*%
%TD*%
%TA.AperFunction,ViaPad*%
%ADD13C,1.600000*%
%TD*%
%TA.AperFunction,ViaPad*%
%ADD14R,1.600000X1.600000*%
%TD*%
%TA.AperFunction,ViaPad*%
%ADD15C,6.000000*%
%TD*%
%TA.AperFunction,ViaPad*%
%ADD16C,0.800000*%
%TD*%
%TA.AperFunction,Conductor*%
%ADD17C,0.400000*%
%TD*%
%TA.AperFunction,Conductor*%
%ADD18C,0.254000*%
%TD*%
G04 APERTURE END LIST*
D10*
%TO.N,+5VA*%
%TO.C,TP4*%
X62250000Y-97250000D03*
D11*
X59710000Y-97250000D03*
%TD*%
D10*
%TO.N,/SDA*%
%TO.C,TP3*%
X76250000Y-55790000D03*
D11*
X76250000Y-53250000D03*
%TD*%
D10*
%TO.N,/SCL*%
%TO.C,TP2*%
X79250000Y-55790000D03*
D11*
X79250000Y-53250000D03*
%TD*%
D10*
%TO.N,GNDA*%
%TO.C,TP1*%
X73250000Y-55790000D03*
D11*
X73250000Y-53250000D03*
%TD*%
D12*
%TO.N,GND*%
%TO.C,J1*%
X54000000Y-70750000D03*
%TO.N,Net-(J1-Pad4)*%
X54000000Y-68250000D03*
%TO.N,Net-(J1-Pad3)*%
X54000000Y-65750000D03*
%TO.N,VBUS*%
X54000000Y-63250000D03*
%TO.N,+5V*%
%TA.AperFunction,ViaPad*%
G36*
G01*
X53275000Y-59900000D02*
X54725000Y-59900000D01*
G75*
G02*
X54975000Y-60150000I0J-250000D01*
G01*
X54975000Y-61350000D01*
G75*
G02*
X54725000Y-61600000I-250000J0D01*
G01*
X53275000Y-61600000D01*
G75*
G02*
X53025000Y-61350000I0J250000D01*
G01*
X53025000Y-60150000D01*
G75*
G02*
X53275000Y-59900000I250000J0D01*
G01*
G37*
%TD.AperFunction*%
%TD*%
D13*
%TO.N,GND*%
%TO.C,C22*%
X62000000Y-68500000D03*
D14*
%TO.N,VBUS*%
X59500000Y-68500000D03*
%TD*%
D13*
%TO.N,GND*%
%TO.C,C15*%
X62000000Y-60750000D03*
D14*
%TO.N,+5V*%
X59500000Y-60750000D03*
%TD*%
D15*
%TO.N,N/C*%
%TO.C,H4*%
X54000000Y-96000000D03*
D16*
X56250000Y-96000000D03*
X55590990Y-97590990D03*
X54000000Y-98250000D03*
X52409010Y-97590990D03*
X51750000Y-96000000D03*
X52409010Y-94409010D03*
X54000000Y-93750000D03*
X55590990Y-94409010D03*
%TD*%
D15*
%TO.N,N/C*%
%TO.C,H3*%
X96000000Y-54000000D03*
D16*
X98250000Y-54000000D03*
X97590990Y-55590990D03*
X96000000Y-56250000D03*
X94409010Y-55590990D03*
X93750000Y-54000000D03*
X94409010Y-52409010D03*
X96000000Y-51750000D03*
X97590990Y-52409010D03*
%TD*%
D15*
%TO.N,N/C*%
%TO.C,H2*%
X54000000Y-54000000D03*
D16*
X56250000Y-54000000D03*
X55590990Y-55590990D03*
X54000000Y-56250000D03*
X52409010Y-55590990D03*
X51750000Y-54000000D03*
X52409010Y-52409010D03*
X54000000Y-51750000D03*
X55590990Y-52409010D03*
%TD*%
D15*
%TO.N,N/C*%
%TO.C,H1*%
X96000000Y-96000000D03*
D16*
X98250000Y-96000000D03*
X97590990Y-97590990D03*
X96000000Y-98250000D03*
X94409010Y-97590990D03*
X93750000Y-96000000D03*
X94409010Y-94409010D03*
X96000000Y-93750000D03*
X97590990Y-94409010D03*
%TD*%
%TO.N,GNDA*%
%TO.C,Gnd1*%
X85340990Y-52409010D03*
X83750000Y-51750000D03*
X82159010Y-52409010D03*
X81500000Y-54000000D03*
X82159010Y-55590990D03*
X83750000Y-56250000D03*
X85340990Y-55590990D03*
X86000000Y-54000000D03*
D15*
X83750000Y-54000000D03*
%TD*%
D13*
%TO.N,GNDA*%
%TO.C,C6*%
X62000000Y-92250000D03*
D14*
%TO.N,+5VA*%
X59500000Y-92250000D03*
%TD*%
D13*
%TO.N,GNDA*%
%TO.C,C5*%
X69500000Y-54000000D03*
D14*
%TO.N,+5VA*%
X67000000Y-54000000D03*
%TD*%
D16*
%TO.N,Net-(R4-Pad1)*%
%TO.C,S4_Lo1*%
X85590990Y-85409010D03*
X84000000Y-84750000D03*
X82409010Y-85409010D03*
X81750000Y-87000000D03*
X82409010Y-88590990D03*
X84000000Y-89250000D03*
X85590990Y-88590990D03*
X86250000Y-87000000D03*
D15*
X84000000Y-87000000D03*
%TD*%
D16*
%TO.N,Net-(R4-Pad4)*%
%TO.C,S4_Hi1*%
X97590990Y-85409010D03*
X96000000Y-84750000D03*
X94409010Y-85409010D03*
X93750000Y-87000000D03*
X94409010Y-88590990D03*
X96000000Y-89250000D03*
X97590990Y-88590990D03*
X98250000Y-87000000D03*
D15*
X96000000Y-87000000D03*
%TD*%
D16*
%TO.N,Net-(R3-Pad1)*%
%TO.C,S3_Lo1*%
X85590990Y-77409010D03*
X84000000Y-76750000D03*
X82409010Y-77409010D03*
X81750000Y-79000000D03*
X82409010Y-80590990D03*
X84000000Y-81250000D03*
X85590990Y-80590990D03*
X86250000Y-79000000D03*
D15*
X84000000Y-79000000D03*
%TD*%
D16*
%TO.N,Net-(R3-Pad4)*%
%TO.C,S3_Hi1*%
X97590990Y-77409010D03*
X96000000Y-76750000D03*
X94409010Y-77409010D03*
X93750000Y-79000000D03*
X94409010Y-80590990D03*
X96000000Y-81250000D03*
X97590990Y-80590990D03*
X98250000Y-79000000D03*
D15*
X96000000Y-79000000D03*
%TD*%
D16*
%TO.N,Net-(R2-Pad1)*%
%TO.C,S2_Lo1*%
X85590990Y-69409010D03*
X84000000Y-68750000D03*
X82409010Y-69409010D03*
X81750000Y-71000000D03*
X82409010Y-72590990D03*
X84000000Y-73250000D03*
X85590990Y-72590990D03*
X86250000Y-71000000D03*
D15*
X84000000Y-71000000D03*
%TD*%
D16*
%TO.N,Net-(R2-Pad4)*%
%TO.C,S2_Hi1*%
X97590990Y-69409010D03*
X96000000Y-68750000D03*
X94409010Y-69409010D03*
X93750000Y-71000000D03*
X94409010Y-72590990D03*
X96000000Y-73250000D03*
X97590990Y-72590990D03*
X98250000Y-71000000D03*
D15*
X96000000Y-71000000D03*
%TD*%
D16*
%TO.N,Net-(R1-Pad1)*%
%TO.C,S1_Lo1*%
X85590990Y-61409010D03*
X84000000Y-60750000D03*
X82409010Y-61409010D03*
X81750000Y-63000000D03*
X82409010Y-64590990D03*
X84000000Y-65250000D03*
X85590990Y-64590990D03*
X86250000Y-63000000D03*
D15*
X84000000Y-63000000D03*
%TD*%
D16*
%TO.N,Net-(R1-Pad4)*%
%TO.C,S1_Hi1*%
X97590990Y-61409010D03*
X96000000Y-60750000D03*
X94409010Y-61409010D03*
X93750000Y-63000000D03*
X94409010Y-64590990D03*
X96000000Y-65250000D03*
X97590990Y-64590990D03*
X98250000Y-63000000D03*
D15*
X96000000Y-63000000D03*
%TD*%
D16*
%TO.N,GND*%
X52775000Y-83500000D03*
X57250000Y-79000000D03*
X57250000Y-77675000D03*
X57250000Y-75075000D03*
X54000000Y-81750000D03*
%TO.N,Net-(R1-Pad4)*%
X87000000Y-92500000D03*
%TO.N,Net-(R2-Pad4)*%
X87000000Y-94500000D03*
%TO.N,Net-(R3-Pad4)*%
X87000000Y-96500000D03*
%TO.N,Net-(R4-Pad4)*%
X87000000Y-98500000D03*
%TO.N,Net-(C12-Pad1)*%
X74500000Y-97500000D03*
X79499990Y-96500000D03*
%TO.N,Net-(C13-Pad1)*%
X79500000Y-94500000D03*
X73750000Y-88500000D03*
%TO.N,GNDA*%
X74650000Y-63500000D03*
X73225000Y-64525000D03*
X73225000Y-78525000D03*
X73225000Y-84525000D03*
X66750000Y-84250000D03*
X71250000Y-87250000D03*
X73500000Y-77000000D03*
X74650000Y-83500000D03*
X74650000Y-77500000D03*
X73350000Y-62000000D03*
X74650000Y-69500000D03*
X67825000Y-81475000D03*
X60750000Y-75075000D03*
X60750000Y-78975000D03*
X65750000Y-82000000D03*
X62500000Y-82000000D03*
X77500000Y-93000000D03*
X76000000Y-93050000D03*
X74500000Y-93000000D03*
X73000000Y-93050000D03*
X71500000Y-93000000D03*
X60750006Y-78000000D03*
X73500000Y-67250000D03*
X65450000Y-93750000D03*
X66750000Y-93749984D03*
X68250000Y-93750000D03*
X73225000Y-70525000D03*
%TO.N,+5VA*%
X69250000Y-58700000D03*
X67250000Y-61700000D03*
X73500000Y-81500000D03*
X73500000Y-83000000D03*
X73500000Y-75500000D03*
X77750000Y-64000000D03*
X77750000Y-70000000D03*
X77750000Y-78000000D03*
X67825000Y-77025000D03*
X60750000Y-80275000D03*
X66525000Y-97725000D03*
X66750000Y-92000000D03*
X68250000Y-92000000D03*
X60750000Y-76750018D03*
X77750000Y-84000000D03*
X73500000Y-69000000D03*
%TO.N,+5V*%
X57475000Y-80275000D03*
%TO.N,/SCL*%
X70500000Y-64750000D03*
X70500000Y-70750000D03*
X70500000Y-78750000D03*
X64725000Y-88437500D03*
X70500000Y-84750000D03*
%TO.N,/SDA*%
X69250000Y-63000000D03*
X69250000Y-69000000D03*
X69250000Y-77000000D03*
X66225000Y-88437500D03*
X69250000Y-83000000D03*
%TD*%
D17*
%TO.N,GNDA*%
X60750006Y-78974994D02*
X60750000Y-78975000D01*
X60750006Y-78000000D02*
X60750006Y-78974994D01*
%TD*%
D18*
%TO.N,GNDA*%
G36*
X81370919Y-51441314D02*
G01*
X83750000Y-53820395D01*
X86129081Y-51441314D01*
X85903863Y-51127000D01*
X87373000Y-51127000D01*
X87373000Y-53701904D01*
X87335569Y-53303518D01*
X87130796Y-52617391D01*
X86796102Y-51984397D01*
X86777868Y-51957106D01*
X86308686Y-51620919D01*
X83929605Y-54000000D01*
X86308686Y-56379081D01*
X86777868Y-56042894D01*
X87118237Y-55412932D01*
X87329166Y-54728673D01*
X87373000Y-54303222D01*
X87373000Y-57373000D01*
X85147353Y-57373000D01*
X85765603Y-57046102D01*
X85792894Y-57027868D01*
X86129081Y-56558686D01*
X83750000Y-54179605D01*
X81370919Y-56558686D01*
X81707106Y-57027868D01*
X82337068Y-57368237D01*
X82352519Y-57373000D01*
X81500000Y-57373000D01*
X81475224Y-57375440D01*
X81451399Y-57382667D01*
X81429443Y-57394403D01*
X81410197Y-57410197D01*
X78910197Y-59910197D01*
X78894403Y-59929443D01*
X78882667Y-59951399D01*
X78875440Y-59975224D01*
X78873000Y-60000000D01*
X78873000Y-63382149D01*
X78741911Y-63185960D01*
X78564040Y-63008089D01*
X78354886Y-62868337D01*
X78122487Y-62772074D01*
X77875774Y-62723000D01*
X77624226Y-62723000D01*
X77377513Y-62772074D01*
X77145114Y-62868337D01*
X76935960Y-63008089D01*
X76758089Y-63185960D01*
X76618337Y-63395114D01*
X76522074Y-63627513D01*
X76473000Y-63874226D01*
X76473000Y-64125774D01*
X76522074Y-64372487D01*
X76618337Y-64604886D01*
X76758089Y-64814040D01*
X76935960Y-64991911D01*
X77145114Y-65131663D01*
X77377513Y-65227926D01*
X77624226Y-65277000D01*
X77875774Y-65277000D01*
X78122487Y-65227926D01*
X78354886Y-65131663D01*
X78564040Y-64991911D01*
X78741911Y-64814040D01*
X78873000Y-64617851D01*
X78873000Y-69382149D01*
X78741911Y-69185960D01*
X78564040Y-69008089D01*
X78354886Y-68868337D01*
X78122487Y-68772074D01*
X77875774Y-68723000D01*
X77624226Y-68723000D01*
X77377513Y-68772074D01*
X77145114Y-68868337D01*
X76935960Y-69008089D01*
X76758089Y-69185960D01*
X76618337Y-69395114D01*
X76522074Y-69627513D01*
X76473000Y-69874226D01*
X76473000Y-70125774D01*
X76522074Y-70372487D01*
X76618337Y-70604886D01*
X76758089Y-70814040D01*
X76935960Y-70991911D01*
X77145114Y-71131663D01*
X77377513Y-71227926D01*
X77624226Y-71277000D01*
X77875774Y-71277000D01*
X78122487Y-71227926D01*
X78354886Y-71131663D01*
X78564040Y-70991911D01*
X78741911Y-70814040D01*
X78873000Y-70617851D01*
X78873000Y-77382149D01*
X78741911Y-77185960D01*
X78564040Y-77008089D01*
X78354886Y-76868337D01*
X78122487Y-76772074D01*
X77875774Y-76723000D01*
X77624226Y-76723000D01*
X77377513Y-76772074D01*
X77145114Y-76868337D01*
X76935960Y-77008089D01*
X76758089Y-77185960D01*
X76618337Y-77395114D01*
X76522074Y-77627513D01*
X76473000Y-77874226D01*
X76473000Y-78125774D01*
X76522074Y-78372487D01*
X76618337Y-78604886D01*
X76758089Y-78814040D01*
X76935960Y-78991911D01*
X77145114Y-79131663D01*
X77377513Y-79227926D01*
X77624226Y-79277000D01*
X77875774Y-79277000D01*
X78122487Y-79227926D01*
X78354886Y-79131663D01*
X78564040Y-78991911D01*
X78741911Y-78814040D01*
X78873000Y-78617851D01*
X78873000Y-83382149D01*
X78741911Y-83185960D01*
X78564040Y-83008089D01*
X78354886Y-82868337D01*
X78122487Y-82772074D01*
X77875774Y-82723000D01*
X77624226Y-82723000D01*
X77377513Y-82772074D01*
X77145114Y-82868337D01*
X76935960Y-83008089D01*
X76758089Y-83185960D01*
X76618337Y-83395114D01*
X76522074Y-83627513D01*
X76473000Y-83874226D01*
X76473000Y-84125774D01*
X76522074Y-84372487D01*
X76618337Y-84604886D01*
X76758089Y-84814040D01*
X76935960Y-84991911D01*
X77145114Y-85131663D01*
X77377513Y-85227926D01*
X77624226Y-85277000D01*
X77875774Y-85277000D01*
X78122487Y-85227926D01*
X78354886Y-85131663D01*
X78564040Y-84991911D01*
X78741911Y-84814040D01*
X78873000Y-84617851D01*
X78873000Y-89000000D01*
X78875440Y-89024776D01*
X78882667Y-89048601D01*
X78894403Y-89070557D01*
X78910197Y-89089803D01*
X81910197Y-92089803D01*
X81929443Y-92105597D01*
X81951399Y-92117333D01*
X81975224Y-92124560D01*
X82000000Y-92127000D01*
X85772286Y-92127000D01*
X85772074Y-92127513D01*
X85723000Y-92374226D01*
X85723000Y-92625774D01*
X85772074Y-92872487D01*
X85868337Y-93104886D01*
X86008089Y-93314040D01*
X86185960Y-93491911D01*
X86198066Y-93500000D01*
X86185960Y-93508089D01*
X86008089Y-93685960D01*
X85868337Y-93895114D01*
X85772074Y-94127513D01*
X85723000Y-94374226D01*
X85723000Y-94625774D01*
X85772074Y-94872487D01*
X85868337Y-95104886D01*
X86008089Y-95314040D01*
X86185960Y-95491911D01*
X86198066Y-95500000D01*
X86185960Y-95508089D01*
X86008089Y-95685960D01*
X85868337Y-95895114D01*
X85772074Y-96127513D01*
X85723000Y-96374226D01*
X85723000Y-96625774D01*
X85772074Y-96872487D01*
X85868337Y-97104886D01*
X86008089Y-97314040D01*
X86185960Y-97491911D01*
X86198066Y-97500000D01*
X86185960Y-97508089D01*
X86008089Y-97685960D01*
X85868337Y-97895114D01*
X85772074Y-98127513D01*
X85723000Y-98374226D01*
X85723000Y-98625774D01*
X85772074Y-98872487D01*
X85772286Y-98873000D01*
X67090445Y-98873000D01*
X67129886Y-98856663D01*
X67339040Y-98716911D01*
X67516911Y-98539040D01*
X67656663Y-98329886D01*
X67752926Y-98097487D01*
X67802000Y-97850774D01*
X67802000Y-97599226D01*
X67757245Y-97374226D01*
X73223000Y-97374226D01*
X73223000Y-97625774D01*
X73272074Y-97872487D01*
X73368337Y-98104886D01*
X73508089Y-98314040D01*
X73685960Y-98491911D01*
X73895114Y-98631663D01*
X74127513Y-98727926D01*
X74374226Y-98777000D01*
X74625774Y-98777000D01*
X74872487Y-98727926D01*
X75104886Y-98631663D01*
X75314040Y-98491911D01*
X75491911Y-98314040D01*
X75631663Y-98104886D01*
X75727926Y-97872487D01*
X75777000Y-97625774D01*
X75777000Y-97374226D01*
X75727926Y-97127513D01*
X75631663Y-96895114D01*
X75491911Y-96685960D01*
X75314040Y-96508089D01*
X75113700Y-96374226D01*
X78222990Y-96374226D01*
X78222990Y-96625774D01*
X78272064Y-96872487D01*
X78368327Y-97104886D01*
X78508079Y-97314040D01*
X78685950Y-97491911D01*
X78895104Y-97631663D01*
X79127503Y-97727926D01*
X79374216Y-97777000D01*
X79625764Y-97777000D01*
X79872477Y-97727926D01*
X80104876Y-97631663D01*
X80314030Y-97491911D01*
X80491901Y-97314040D01*
X80631653Y-97104886D01*
X80727916Y-96872487D01*
X80776990Y-96625774D01*
X80776990Y-96374226D01*
X80727916Y-96127513D01*
X80631653Y-95895114D01*
X80491901Y-95685960D01*
X80314030Y-95508089D01*
X80301929Y-95500003D01*
X80314040Y-95491911D01*
X80491911Y-95314040D01*
X80631663Y-95104886D01*
X80727926Y-94872487D01*
X80777000Y-94625774D01*
X80777000Y-94374226D01*
X80727926Y-94127513D01*
X80631663Y-93895114D01*
X80491911Y-93685960D01*
X80314040Y-93508089D01*
X80104886Y-93368337D01*
X79872487Y-93272074D01*
X79625774Y-93223000D01*
X79374226Y-93223000D01*
X79127513Y-93272074D01*
X78895114Y-93368337D01*
X78685960Y-93508089D01*
X78508089Y-93685960D01*
X78368337Y-93895114D01*
X78272074Y-94127513D01*
X78223000Y-94374226D01*
X78223000Y-94625774D01*
X78272074Y-94872487D01*
X78368337Y-95104886D01*
X78508089Y-95314040D01*
X78685960Y-95491911D01*
X78698061Y-95499997D01*
X78685950Y-95508089D01*
X78508079Y-95685960D01*
X78368327Y-95895114D01*
X78272064Y-96127513D01*
X78222990Y-96374226D01*
X75113700Y-96374226D01*
X75104886Y-96368337D01*
X74872487Y-96272074D01*
X74625774Y-96223000D01*
X74374226Y-96223000D01*
X74127513Y-96272074D01*
X73895114Y-96368337D01*
X73685960Y-96508089D01*
X73508089Y-96685960D01*
X73368337Y-96895114D01*
X73272074Y-97127513D01*
X73223000Y-97374226D01*
X67757245Y-97374226D01*
X67752926Y-97352513D01*
X67656663Y-97120114D01*
X67516911Y-96910960D01*
X67339040Y-96733089D01*
X67129886Y-96593337D01*
X66897487Y-96497074D01*
X66650774Y-96448000D01*
X66399226Y-96448000D01*
X66152513Y-96497074D01*
X65920114Y-96593337D01*
X65710960Y-96733089D01*
X65533089Y-96910960D01*
X65393337Y-97120114D01*
X65297074Y-97352513D01*
X65248000Y-97599226D01*
X65248000Y-97850774D01*
X65297074Y-98097487D01*
X65393337Y-98329886D01*
X65533089Y-98539040D01*
X65710960Y-98716911D01*
X65920114Y-98856663D01*
X65959555Y-98873000D01*
X62844599Y-98873000D01*
X63068041Y-98780447D01*
X63350898Y-98591448D01*
X63591448Y-98350898D01*
X63780447Y-98068041D01*
X63910632Y-97753747D01*
X63977000Y-97420095D01*
X63977000Y-97079905D01*
X63910632Y-96746253D01*
X63780447Y-96431959D01*
X63591448Y-96149102D01*
X63350898Y-95908552D01*
X63068041Y-95719553D01*
X62753747Y-95589368D01*
X62420095Y-95523000D01*
X62079905Y-95523000D01*
X61746253Y-95589368D01*
X61431959Y-95719553D01*
X61240878Y-95847229D01*
X61183133Y-95776867D01*
X61049592Y-95667273D01*
X60897237Y-95585838D01*
X60731922Y-95535690D01*
X60560000Y-95518757D01*
X58860000Y-95518757D01*
X58688078Y-95535690D01*
X58522763Y-95585838D01*
X58370408Y-95667273D01*
X58236867Y-95776867D01*
X58127273Y-95910408D01*
X58127000Y-95910919D01*
X58127000Y-93714276D01*
X58210408Y-93782727D01*
X58362763Y-93864162D01*
X58528078Y-93914310D01*
X58700000Y-93931243D01*
X60300000Y-93931243D01*
X60471922Y-93914310D01*
X60637237Y-93864162D01*
X60789592Y-93782727D01*
X60923133Y-93673133D01*
X61032727Y-93539592D01*
X61114162Y-93387237D01*
X61145423Y-93284184D01*
X61186903Y-93242704D01*
X61258486Y-93486671D01*
X61513996Y-93607571D01*
X61788184Y-93676300D01*
X62070512Y-93690217D01*
X62350130Y-93648787D01*
X62616292Y-93553603D01*
X62741514Y-93486671D01*
X62813097Y-93242702D01*
X62000000Y-92429605D01*
X61985858Y-92443748D01*
X61806253Y-92264143D01*
X61820395Y-92250000D01*
X62179605Y-92250000D01*
X62992702Y-93063097D01*
X63236671Y-92991514D01*
X63357571Y-92736004D01*
X63426300Y-92461816D01*
X63440217Y-92179488D01*
X63398787Y-91899870D01*
X63389617Y-91874226D01*
X65473000Y-91874226D01*
X65473000Y-92125774D01*
X65522074Y-92372487D01*
X65618337Y-92604886D01*
X65758089Y-92814040D01*
X65935960Y-92991911D01*
X66145114Y-93131663D01*
X66377513Y-93227926D01*
X66624226Y-93277000D01*
X66875774Y-93277000D01*
X67122487Y-93227926D01*
X67354886Y-93131663D01*
X67500000Y-93034701D01*
X67645114Y-93131663D01*
X67877513Y-93227926D01*
X68124226Y-93277000D01*
X68375774Y-93277000D01*
X68622487Y-93227926D01*
X68854886Y-93131663D01*
X69064040Y-92991911D01*
X69241911Y-92814040D01*
X69381663Y-92604886D01*
X69477926Y-92372487D01*
X69527000Y-92125774D01*
X69527000Y-91874226D01*
X69477926Y-91627513D01*
X69381663Y-91395114D01*
X69241911Y-91185960D01*
X69064040Y-91008089D01*
X68854886Y-90868337D01*
X68622487Y-90772074D01*
X68375774Y-90723000D01*
X68124226Y-90723000D01*
X67877513Y-90772074D01*
X67645114Y-90868337D01*
X67500000Y-90965299D01*
X67354886Y-90868337D01*
X67122487Y-90772074D01*
X66875774Y-90723000D01*
X66624226Y-90723000D01*
X66377513Y-90772074D01*
X66145114Y-90868337D01*
X65935960Y-91008089D01*
X65758089Y-91185960D01*
X65618337Y-91395114D01*
X65522074Y-91627513D01*
X65473000Y-91874226D01*
X63389617Y-91874226D01*
X63303603Y-91633708D01*
X63236671Y-91508486D01*
X62992702Y-91436903D01*
X62179605Y-92250000D01*
X61820395Y-92250000D01*
X61806253Y-92235858D01*
X61985858Y-92056253D01*
X62000000Y-92070395D01*
X62813097Y-91257298D01*
X62741514Y-91013329D01*
X62486004Y-90892429D01*
X62211816Y-90823700D01*
X61929488Y-90809783D01*
X61649870Y-90851213D01*
X61383708Y-90946397D01*
X61258486Y-91013329D01*
X61186903Y-91257296D01*
X61145423Y-91215816D01*
X61114162Y-91112763D01*
X61032727Y-90960408D01*
X60923133Y-90826867D01*
X60789592Y-90717273D01*
X60637237Y-90635838D01*
X60471922Y-90585690D01*
X60300000Y-90568757D01*
X58700000Y-90568757D01*
X58528078Y-90585690D01*
X58362763Y-90635838D01*
X58210408Y-90717273D01*
X58127000Y-90785724D01*
X58127000Y-89052606D01*
X58867880Y-88311726D01*
X63448000Y-88311726D01*
X63448000Y-88563274D01*
X63497074Y-88809987D01*
X63593337Y-89042386D01*
X63733089Y-89251540D01*
X63910960Y-89429411D01*
X64120114Y-89569163D01*
X64352513Y-89665426D01*
X64599226Y-89714500D01*
X64850774Y-89714500D01*
X65097487Y-89665426D01*
X65329886Y-89569163D01*
X65475000Y-89472201D01*
X65620114Y-89569163D01*
X65852513Y-89665426D01*
X66099226Y-89714500D01*
X66350774Y-89714500D01*
X66597487Y-89665426D01*
X66829886Y-89569163D01*
X67039040Y-89429411D01*
X67216911Y-89251540D01*
X67356663Y-89042386D01*
X67452926Y-88809987D01*
X67502000Y-88563274D01*
X67502000Y-88374226D01*
X72473000Y-88374226D01*
X72473000Y-88625774D01*
X72522074Y-88872487D01*
X72618337Y-89104886D01*
X72758089Y-89314040D01*
X72935960Y-89491911D01*
X73145114Y-89631663D01*
X73377513Y-89727926D01*
X73624226Y-89777000D01*
X73875774Y-89777000D01*
X74122487Y-89727926D01*
X74354886Y-89631663D01*
X74564040Y-89491911D01*
X74741911Y-89314040D01*
X74881663Y-89104886D01*
X74977926Y-88872487D01*
X75027000Y-88625774D01*
X75027000Y-88374226D01*
X74977926Y-88127513D01*
X74881663Y-87895114D01*
X74741911Y-87685960D01*
X74564040Y-87508089D01*
X74354886Y-87368337D01*
X74122487Y-87272074D01*
X73875774Y-87223000D01*
X73624226Y-87223000D01*
X73377513Y-87272074D01*
X73145114Y-87368337D01*
X72935960Y-87508089D01*
X72758089Y-87685960D01*
X72618337Y-87895114D01*
X72522074Y-88127513D01*
X72473000Y-88374226D01*
X67502000Y-88374226D01*
X67502000Y-88311726D01*
X67452926Y-88065013D01*
X67356663Y-87832614D01*
X67216911Y-87623460D01*
X67039040Y-87445589D01*
X66829886Y-87305837D01*
X66597487Y-87209574D01*
X66350774Y-87160500D01*
X66099226Y-87160500D01*
X65852513Y-87209574D01*
X65620114Y-87305837D01*
X65475000Y-87402799D01*
X65329886Y-87305837D01*
X65097487Y-87209574D01*
X64850774Y-87160500D01*
X64599226Y-87160500D01*
X64352513Y-87209574D01*
X64120114Y-87305837D01*
X63910960Y-87445589D01*
X63733089Y-87623460D01*
X63593337Y-87832614D01*
X63497074Y-88065013D01*
X63448000Y-88311726D01*
X58867880Y-88311726D01*
X60089803Y-87089803D01*
X60105597Y-87070557D01*
X60117333Y-87048601D01*
X60124560Y-87024776D01*
X60127000Y-87000000D01*
X60127000Y-82874226D01*
X67973000Y-82874226D01*
X67973000Y-83125774D01*
X68022074Y-83372487D01*
X68118337Y-83604886D01*
X68258089Y-83814040D01*
X68435960Y-83991911D01*
X68645114Y-84131663D01*
X68877513Y-84227926D01*
X69124226Y-84277000D01*
X69313708Y-84277000D01*
X69272074Y-84377513D01*
X69223000Y-84624226D01*
X69223000Y-84875774D01*
X69272074Y-85122487D01*
X69368337Y-85354886D01*
X69508089Y-85564040D01*
X69685960Y-85741911D01*
X69895114Y-85881663D01*
X70127513Y-85977926D01*
X70374226Y-86027000D01*
X70625774Y-86027000D01*
X70872487Y-85977926D01*
X71104886Y-85881663D01*
X71314040Y-85741911D01*
X71491911Y-85564040D01*
X71631663Y-85354886D01*
X71727926Y-85122487D01*
X71777000Y-84875774D01*
X71777000Y-84624226D01*
X71727926Y-84377513D01*
X71631663Y-84145114D01*
X71491911Y-83935960D01*
X71314040Y-83758089D01*
X71104886Y-83618337D01*
X70872487Y-83522074D01*
X70625774Y-83473000D01*
X70436292Y-83473000D01*
X70477926Y-83372487D01*
X70527000Y-83125774D01*
X70527000Y-82874226D01*
X70477926Y-82627513D01*
X70381663Y-82395114D01*
X70241911Y-82185960D01*
X70064040Y-82008089D01*
X69854886Y-81868337D01*
X69622487Y-81772074D01*
X69375774Y-81723000D01*
X69124226Y-81723000D01*
X68877513Y-81772074D01*
X68645114Y-81868337D01*
X68435960Y-82008089D01*
X68258089Y-82185960D01*
X68118337Y-82395114D01*
X68022074Y-82627513D01*
X67973000Y-82874226D01*
X60127000Y-82874226D01*
X60127000Y-81394560D01*
X60145114Y-81406663D01*
X60377513Y-81502926D01*
X60624226Y-81552000D01*
X60875774Y-81552000D01*
X61122487Y-81502926D01*
X61354886Y-81406663D01*
X61403431Y-81374226D01*
X72223000Y-81374226D01*
X72223000Y-81625774D01*
X72272074Y-81872487D01*
X72368337Y-82104886D01*
X72465299Y-82250000D01*
X72368337Y-82395114D01*
X72272074Y-82627513D01*
X72223000Y-82874226D01*
X72223000Y-83125774D01*
X72272074Y-83372487D01*
X72368337Y-83604886D01*
X72508089Y-83814040D01*
X72685960Y-83991911D01*
X72895114Y-84131663D01*
X73127513Y-84227926D01*
X73374226Y-84277000D01*
X73625774Y-84277000D01*
X73872487Y-84227926D01*
X74104886Y-84131663D01*
X74314040Y-83991911D01*
X74491911Y-83814040D01*
X74631663Y-83604886D01*
X74727926Y-83372487D01*
X74777000Y-83125774D01*
X74777000Y-82874226D01*
X74727926Y-82627513D01*
X74631663Y-82395114D01*
X74534701Y-82250000D01*
X74631663Y-82104886D01*
X74727926Y-81872487D01*
X74777000Y-81625774D01*
X74777000Y-81374226D01*
X74727926Y-81127513D01*
X74631663Y-80895114D01*
X74491911Y-80685960D01*
X74314040Y-80508089D01*
X74104886Y-80368337D01*
X73872487Y-80272074D01*
X73625774Y-80223000D01*
X73374226Y-80223000D01*
X73127513Y-80272074D01*
X72895114Y-80368337D01*
X72685960Y-80508089D01*
X72508089Y-80685960D01*
X72368337Y-80895114D01*
X72272074Y-81127513D01*
X72223000Y-81374226D01*
X61403431Y-81374226D01*
X61564040Y-81266911D01*
X61741911Y-81089040D01*
X61881663Y-80879886D01*
X61977926Y-80647487D01*
X62027000Y-80400774D01*
X62027000Y-80149226D01*
X61977926Y-79902513D01*
X61881663Y-79670114D01*
X61741911Y-79460960D01*
X61564040Y-79283089D01*
X61354886Y-79143337D01*
X61122487Y-79047074D01*
X60875774Y-78998000D01*
X60624226Y-78998000D01*
X60377513Y-79047074D01*
X60145114Y-79143337D01*
X60127000Y-79155440D01*
X60127000Y-77869578D01*
X60145114Y-77881681D01*
X60377513Y-77977944D01*
X60624226Y-78027018D01*
X60875774Y-78027018D01*
X61122487Y-77977944D01*
X61354886Y-77881681D01*
X61564040Y-77741929D01*
X61741911Y-77564058D01*
X61881663Y-77354904D01*
X61977926Y-77122505D01*
X62022338Y-76899226D01*
X66548000Y-76899226D01*
X66548000Y-77150774D01*
X66597074Y-77397487D01*
X66693337Y-77629886D01*
X66833089Y-77839040D01*
X67010960Y-78016911D01*
X67220114Y-78156663D01*
X67452513Y-78252926D01*
X67699226Y-78302000D01*
X67950774Y-78302000D01*
X68197487Y-78252926D01*
X68429886Y-78156663D01*
X68556208Y-78072258D01*
X68645114Y-78131663D01*
X68877513Y-78227926D01*
X69124226Y-78277000D01*
X69313708Y-78277000D01*
X69272074Y-78377513D01*
X69223000Y-78624226D01*
X69223000Y-78875774D01*
X69272074Y-79122487D01*
X69368337Y-79354886D01*
X69508089Y-79564040D01*
X69685960Y-79741911D01*
X69895114Y-79881663D01*
X70127513Y-79977926D01*
X70374226Y-80027000D01*
X70625774Y-80027000D01*
X70872487Y-79977926D01*
X71104886Y-79881663D01*
X71314040Y-79741911D01*
X71491911Y-79564040D01*
X71631663Y-79354886D01*
X71727926Y-79122487D01*
X71777000Y-78875774D01*
X71777000Y-78624226D01*
X71727926Y-78377513D01*
X71631663Y-78145114D01*
X71491911Y-77935960D01*
X71314040Y-77758089D01*
X71104886Y-77618337D01*
X70872487Y-77522074D01*
X70625774Y-77473000D01*
X70436292Y-77473000D01*
X70477926Y-77372487D01*
X70527000Y-77125774D01*
X70527000Y-76874226D01*
X70477926Y-76627513D01*
X70381663Y-76395114D01*
X70241911Y-76185960D01*
X70064040Y-76008089D01*
X69854886Y-75868337D01*
X69622487Y-75772074D01*
X69375774Y-75723000D01*
X69124226Y-75723000D01*
X68877513Y-75772074D01*
X68645114Y-75868337D01*
X68518792Y-75952742D01*
X68429886Y-75893337D01*
X68197487Y-75797074D01*
X67950774Y-75748000D01*
X67699226Y-75748000D01*
X67452513Y-75797074D01*
X67220114Y-75893337D01*
X67010960Y-76033089D01*
X66833089Y-76210960D01*
X66693337Y-76420114D01*
X66597074Y-76652513D01*
X66548000Y-76899226D01*
X62022338Y-76899226D01*
X62027000Y-76875792D01*
X62027000Y-76624244D01*
X61977926Y-76377531D01*
X61881663Y-76145132D01*
X61741911Y-75935978D01*
X61564040Y-75758107D01*
X61354886Y-75618355D01*
X61122487Y-75522092D01*
X60875774Y-75473018D01*
X60624226Y-75473018D01*
X60377513Y-75522092D01*
X60145114Y-75618355D01*
X60127000Y-75630458D01*
X60127000Y-75374226D01*
X72223000Y-75374226D01*
X72223000Y-75625774D01*
X72272074Y-75872487D01*
X72368337Y-76104886D01*
X72508089Y-76314040D01*
X72685960Y-76491911D01*
X72895114Y-76631663D01*
X73127513Y-76727926D01*
X73374226Y-76777000D01*
X73625774Y-76777000D01*
X73872487Y-76727926D01*
X74104886Y-76631663D01*
X74314040Y-76491911D01*
X74491911Y-76314040D01*
X74631663Y-76104886D01*
X74727926Y-75872487D01*
X74777000Y-75625774D01*
X74777000Y-75374226D01*
X74727926Y-75127513D01*
X74631663Y-74895114D01*
X74491911Y-74685960D01*
X74314040Y-74508089D01*
X74104886Y-74368337D01*
X73872487Y-74272074D01*
X73625774Y-74223000D01*
X73374226Y-74223000D01*
X73127513Y-74272074D01*
X72895114Y-74368337D01*
X72685960Y-74508089D01*
X72508089Y-74685960D01*
X72368337Y-74895114D01*
X72272074Y-75127513D01*
X72223000Y-75374226D01*
X60127000Y-75374226D01*
X60127000Y-74802606D01*
X65089803Y-69839803D01*
X65105597Y-69820557D01*
X65117333Y-69798601D01*
X65124560Y-69774776D01*
X65127000Y-69750000D01*
X65127000Y-68874226D01*
X67973000Y-68874226D01*
X67973000Y-69125774D01*
X68022074Y-69372487D01*
X68118337Y-69604886D01*
X68258089Y-69814040D01*
X68435960Y-69991911D01*
X68645114Y-70131663D01*
X68877513Y-70227926D01*
X69124226Y-70277000D01*
X69313708Y-70277000D01*
X69272074Y-70377513D01*
X69223000Y-70624226D01*
X69223000Y-70875774D01*
X69272074Y-71122487D01*
X69368337Y-71354886D01*
X69508089Y-71564040D01*
X69685960Y-71741911D01*
X69895114Y-71881663D01*
X70127513Y-71977926D01*
X70374226Y-72027000D01*
X70625774Y-72027000D01*
X70872487Y-71977926D01*
X71104886Y-71881663D01*
X71314040Y-71741911D01*
X71491911Y-71564040D01*
X71631663Y-71354886D01*
X71727926Y-71122487D01*
X71777000Y-70875774D01*
X71777000Y-70624226D01*
X71727926Y-70377513D01*
X71631663Y-70145114D01*
X71491911Y-69935960D01*
X71314040Y-69758089D01*
X71104886Y-69618337D01*
X70872487Y-69522074D01*
X70625774Y-69473000D01*
X70436292Y-69473000D01*
X70477926Y-69372487D01*
X70527000Y-69125774D01*
X70527000Y-68874226D01*
X72223000Y-68874226D01*
X72223000Y-69125774D01*
X72272074Y-69372487D01*
X72368337Y-69604886D01*
X72508089Y-69814040D01*
X72685960Y-69991911D01*
X72895114Y-70131663D01*
X73127513Y-70227926D01*
X73374226Y-70277000D01*
X73625774Y-70277000D01*
X73872487Y-70227926D01*
X74104886Y-70131663D01*
X74314040Y-69991911D01*
X74491911Y-69814040D01*
X74631663Y-69604886D01*
X74727926Y-69372487D01*
X74777000Y-69125774D01*
X74777000Y-68874226D01*
X74727926Y-68627513D01*
X74631663Y-68395114D01*
X74491911Y-68185960D01*
X74314040Y-68008089D01*
X74104886Y-67868337D01*
X73872487Y-67772074D01*
X73625774Y-67723000D01*
X73374226Y-67723000D01*
X73127513Y-67772074D01*
X72895114Y-67868337D01*
X72685960Y-68008089D01*
X72508089Y-68185960D01*
X72368337Y-68395114D01*
X72272074Y-68627513D01*
X72223000Y-68874226D01*
X70527000Y-68874226D01*
X70477926Y-68627513D01*
X70381663Y-68395114D01*
X70241911Y-68185960D01*
X70064040Y-68008089D01*
X69854886Y-67868337D01*
X69622487Y-67772074D01*
X69375774Y-67723000D01*
X69124226Y-67723000D01*
X68877513Y-67772074D01*
X68645114Y-67868337D01*
X68435960Y-68008089D01*
X68258089Y-68185960D01*
X68118337Y-68395114D01*
X68022074Y-68627513D01*
X67973000Y-68874226D01*
X65127000Y-68874226D01*
X65127000Y-61574226D01*
X65973000Y-61574226D01*
X65973000Y-61825774D01*
X66022074Y-62072487D01*
X66118337Y-62304886D01*
X66258089Y-62514040D01*
X66435960Y-62691911D01*
X66645114Y-62831663D01*
X66877513Y-62927926D01*
X67124226Y-62977000D01*
X67375774Y-62977000D01*
X67622487Y-62927926D01*
X67854886Y-62831663D01*
X68000869Y-62734121D01*
X67973000Y-62874226D01*
X67973000Y-63125774D01*
X68022074Y-63372487D01*
X68118337Y-63604886D01*
X68258089Y-63814040D01*
X68435960Y-63991911D01*
X68645114Y-64131663D01*
X68877513Y-64227926D01*
X69124226Y-64277000D01*
X69313708Y-64277000D01*
X69272074Y-64377513D01*
X69223000Y-64624226D01*
X69223000Y-64875774D01*
X69272074Y-65122487D01*
X69368337Y-65354886D01*
X69508089Y-65564040D01*
X69685960Y-65741911D01*
X69895114Y-65881663D01*
X70127513Y-65977926D01*
X70374226Y-66027000D01*
X70625774Y-66027000D01*
X70872487Y-65977926D01*
X71104886Y-65881663D01*
X71314040Y-65741911D01*
X71491911Y-65564040D01*
X71631663Y-65354886D01*
X71727926Y-65122487D01*
X71777000Y-64875774D01*
X71777000Y-64624226D01*
X71727926Y-64377513D01*
X71631663Y-64145114D01*
X71491911Y-63935960D01*
X71314040Y-63758089D01*
X71104886Y-63618337D01*
X70872487Y-63522074D01*
X70625774Y-63473000D01*
X70436292Y-63473000D01*
X70477926Y-63372487D01*
X70527000Y-63125774D01*
X70527000Y-62874226D01*
X70477926Y-62627513D01*
X70381663Y-62395114D01*
X70241911Y-62185960D01*
X70064040Y-62008089D01*
X69854886Y-61868337D01*
X69622487Y-61772074D01*
X69375774Y-61723000D01*
X69124226Y-61723000D01*
X68877513Y-61772074D01*
X68645114Y-61868337D01*
X68499131Y-61965879D01*
X68527000Y-61825774D01*
X68527000Y-61574226D01*
X68477926Y-61327513D01*
X68381663Y-61095114D01*
X68241911Y-60885960D01*
X68064040Y-60708089D01*
X67854886Y-60568337D01*
X67622487Y-60472074D01*
X67375774Y-60423000D01*
X67124226Y-60423000D01*
X66877513Y-60472074D01*
X66645114Y-60568337D01*
X66435960Y-60708089D01*
X66258089Y-60885960D01*
X66118337Y-61095114D01*
X66022074Y-61327513D01*
X65973000Y-61574226D01*
X65127000Y-61574226D01*
X65127000Y-58574226D01*
X67973000Y-58574226D01*
X67973000Y-58825774D01*
X68022074Y-59072487D01*
X68118337Y-59304886D01*
X68258089Y-59514040D01*
X68435960Y-59691911D01*
X68645114Y-59831663D01*
X68877513Y-59927926D01*
X69124226Y-59977000D01*
X69375774Y-59977000D01*
X69622487Y-59927926D01*
X69854886Y-59831663D01*
X70064040Y-59691911D01*
X70241911Y-59514040D01*
X70381663Y-59304886D01*
X70477926Y-59072487D01*
X70527000Y-58825774D01*
X70527000Y-58574226D01*
X70477926Y-58327513D01*
X70381663Y-58095114D01*
X70241911Y-57885960D01*
X70064040Y-57708089D01*
X69854886Y-57568337D01*
X69622487Y-57472074D01*
X69375774Y-57423000D01*
X69124226Y-57423000D01*
X68877513Y-57472074D01*
X68645114Y-57568337D01*
X68435960Y-57708089D01*
X68258089Y-57885960D01*
X68118337Y-58095114D01*
X68022074Y-58327513D01*
X67973000Y-58574226D01*
X65127000Y-58574226D01*
X65127000Y-56146890D01*
X71808524Y-56146890D01*
X71853175Y-56294099D01*
X71978359Y-56556920D01*
X72152412Y-56790269D01*
X72368645Y-56985178D01*
X72618748Y-57134157D01*
X72893109Y-57231481D01*
X73123000Y-57110814D01*
X73123000Y-55917000D01*
X71929845Y-55917000D01*
X71808524Y-56146890D01*
X65127000Y-56146890D01*
X65127000Y-53200000D01*
X65318757Y-53200000D01*
X65318757Y-54800000D01*
X65335690Y-54971922D01*
X65385838Y-55137237D01*
X65467273Y-55289592D01*
X65576867Y-55423133D01*
X65710408Y-55532727D01*
X65862763Y-55614162D01*
X66028078Y-55664310D01*
X66200000Y-55681243D01*
X67800000Y-55681243D01*
X67971922Y-55664310D01*
X68137237Y-55614162D01*
X68289592Y-55532727D01*
X68423133Y-55423133D01*
X68532727Y-55289592D01*
X68614162Y-55137237D01*
X68645423Y-55034184D01*
X68686903Y-54992704D01*
X68758486Y-55236671D01*
X69013996Y-55357571D01*
X69288184Y-55426300D01*
X69570512Y-55440217D01*
X69850130Y-55398787D01*
X70116292Y-55303603D01*
X70241514Y-55236671D01*
X70313097Y-54992702D01*
X69500000Y-54179605D01*
X69485858Y-54193748D01*
X69306253Y-54014143D01*
X69320395Y-54000000D01*
X69679605Y-54000000D01*
X70492702Y-54813097D01*
X70736671Y-54741514D01*
X70857571Y-54486004D01*
X70926300Y-54211816D01*
X70931811Y-54100000D01*
X71761928Y-54100000D01*
X71774188Y-54224482D01*
X71810498Y-54344180D01*
X71869463Y-54454494D01*
X71948815Y-54551185D01*
X72045506Y-54630537D01*
X72155820Y-54689502D01*
X72236466Y-54713966D01*
X72152412Y-54789731D01*
X71978359Y-55023080D01*
X71853175Y-55285901D01*
X71808524Y-55433110D01*
X71929845Y-55663000D01*
X73123000Y-55663000D01*
X73123000Y-53377000D01*
X71923750Y-53377000D01*
X71765000Y-53535750D01*
X71761928Y-54100000D01*
X70931811Y-54100000D01*
X70940217Y-53929488D01*
X70898787Y-53649870D01*
X70803603Y-53383708D01*
X70736671Y-53258486D01*
X70492702Y-53186903D01*
X69679605Y-54000000D01*
X69320395Y-54000000D01*
X69306253Y-53985858D01*
X69485858Y-53806253D01*
X69500000Y-53820395D01*
X70313097Y-53007298D01*
X70241514Y-52763329D01*
X69986004Y-52642429D01*
X69711816Y-52573700D01*
X69429488Y-52559783D01*
X69149870Y-52601213D01*
X68883708Y-52696397D01*
X68758486Y-52763329D01*
X68686903Y-53007296D01*
X68645423Y-52965816D01*
X68614162Y-52862763D01*
X68532727Y-52710408D01*
X68423133Y-52576867D01*
X68289592Y-52467273D01*
X68163733Y-52400000D01*
X71761928Y-52400000D01*
X71765000Y-52964250D01*
X71923750Y-53123000D01*
X73123000Y-53123000D01*
X73123000Y-51923750D01*
X73377000Y-51923750D01*
X73377000Y-53123000D01*
X73397000Y-53123000D01*
X73397000Y-53377000D01*
X73377000Y-53377000D01*
X73377000Y-55663000D01*
X73397000Y-55663000D01*
X73397000Y-55917000D01*
X73377000Y-55917000D01*
X73377000Y-57110814D01*
X73606891Y-57231481D01*
X73881252Y-57134157D01*
X74131355Y-56985178D01*
X74347588Y-56790269D01*
X74521641Y-56556920D01*
X74616171Y-56358456D01*
X74719553Y-56608041D01*
X74908552Y-56890898D01*
X75149102Y-57131448D01*
X75431959Y-57320447D01*
X75746253Y-57450632D01*
X76079905Y-57517000D01*
X76420095Y-57517000D01*
X76753747Y-57450632D01*
X77068041Y-57320447D01*
X77350898Y-57131448D01*
X77591448Y-56890898D01*
X77750000Y-56653608D01*
X77908552Y-56890898D01*
X78149102Y-57131448D01*
X78431959Y-57320447D01*
X78746253Y-57450632D01*
X79079905Y-57517000D01*
X79420095Y-57517000D01*
X79753747Y-57450632D01*
X80068041Y-57320447D01*
X80350898Y-57131448D01*
X80591448Y-56890898D01*
X80780447Y-56608041D01*
X80910632Y-56293747D01*
X80930790Y-56192406D01*
X81191314Y-56379081D01*
X83570395Y-54000000D01*
X81191314Y-51620919D01*
X80815907Y-51889913D01*
X80723133Y-51776867D01*
X80589592Y-51667273D01*
X80437237Y-51585838D01*
X80271922Y-51535690D01*
X80100000Y-51518757D01*
X78400000Y-51518757D01*
X78228078Y-51535690D01*
X78062763Y-51585838D01*
X77910408Y-51667273D01*
X77776867Y-51776867D01*
X77750000Y-51809605D01*
X77723133Y-51776867D01*
X77589592Y-51667273D01*
X77437237Y-51585838D01*
X77271922Y-51535690D01*
X77100000Y-51518757D01*
X75400000Y-51518757D01*
X75228078Y-51535690D01*
X75062763Y-51585838D01*
X74910408Y-51667273D01*
X74776867Y-51776867D01*
X74667273Y-51910408D01*
X74609054Y-52019329D01*
X74551185Y-51948815D01*
X74454494Y-51869463D01*
X74344180Y-51810498D01*
X74224482Y-51774188D01*
X74100000Y-51761928D01*
X73535750Y-51765000D01*
X73377000Y-51923750D01*
X73123000Y-51923750D01*
X72964250Y-51765000D01*
X72400000Y-51761928D01*
X72275518Y-51774188D01*
X72155820Y-51810498D01*
X72045506Y-51869463D01*
X71948815Y-51948815D01*
X71869463Y-52045506D01*
X71810498Y-52155820D01*
X71774188Y-52275518D01*
X71761928Y-52400000D01*
X68163733Y-52400000D01*
X68137237Y-52385838D01*
X67971922Y-52335690D01*
X67800000Y-52318757D01*
X66200000Y-52318757D01*
X66028078Y-52335690D01*
X65862763Y-52385838D01*
X65710408Y-52467273D01*
X65576867Y-52576867D01*
X65467273Y-52710408D01*
X65385838Y-52862763D01*
X65335690Y-53028078D01*
X65318757Y-53200000D01*
X65127000Y-53200000D01*
X65127000Y-51127000D01*
X81596137Y-51127000D01*
X81370919Y-51441314D01*
G37*
X81370919Y-51441314D02*
X83750000Y-53820395D01*
X86129081Y-51441314D01*
X85903863Y-51127000D01*
X87373000Y-51127000D01*
X87373000Y-53701904D01*
X87335569Y-53303518D01*
X87130796Y-52617391D01*
X86796102Y-51984397D01*
X86777868Y-51957106D01*
X86308686Y-51620919D01*
X83929605Y-54000000D01*
X86308686Y-56379081D01*
X86777868Y-56042894D01*
X87118237Y-55412932D01*
X87329166Y-54728673D01*
X87373000Y-54303222D01*
X87373000Y-57373000D01*
X85147353Y-57373000D01*
X85765603Y-57046102D01*
X85792894Y-57027868D01*
X86129081Y-56558686D01*
X83750000Y-54179605D01*
X81370919Y-56558686D01*
X81707106Y-57027868D01*
X82337068Y-57368237D01*
X82352519Y-57373000D01*
X81500000Y-57373000D01*
X81475224Y-57375440D01*
X81451399Y-57382667D01*
X81429443Y-57394403D01*
X81410197Y-57410197D01*
X78910197Y-59910197D01*
X78894403Y-59929443D01*
X78882667Y-59951399D01*
X78875440Y-59975224D01*
X78873000Y-60000000D01*
X78873000Y-63382149D01*
X78741911Y-63185960D01*
X78564040Y-63008089D01*
X78354886Y-62868337D01*
X78122487Y-62772074D01*
X77875774Y-62723000D01*
X77624226Y-62723000D01*
X77377513Y-62772074D01*
X77145114Y-62868337D01*
X76935960Y-63008089D01*
X76758089Y-63185960D01*
X76618337Y-63395114D01*
X76522074Y-63627513D01*
X76473000Y-63874226D01*
X76473000Y-64125774D01*
X76522074Y-64372487D01*
X76618337Y-64604886D01*
X76758089Y-64814040D01*
X76935960Y-64991911D01*
X77145114Y-65131663D01*
X77377513Y-65227926D01*
X77624226Y-65277000D01*
X77875774Y-65277000D01*
X78122487Y-65227926D01*
X78354886Y-65131663D01*
X78564040Y-64991911D01*
X78741911Y-64814040D01*
X78873000Y-64617851D01*
X78873000Y-69382149D01*
X78741911Y-69185960D01*
X78564040Y-69008089D01*
X78354886Y-68868337D01*
X78122487Y-68772074D01*
X77875774Y-68723000D01*
X77624226Y-68723000D01*
X77377513Y-68772074D01*
X77145114Y-68868337D01*
X76935960Y-69008089D01*
X76758089Y-69185960D01*
X76618337Y-69395114D01*
X76522074Y-69627513D01*
X76473000Y-69874226D01*
X76473000Y-70125774D01*
X76522074Y-70372487D01*
X76618337Y-70604886D01*
X76758089Y-70814040D01*
X76935960Y-70991911D01*
X77145114Y-71131663D01*
X77377513Y-71227926D01*
X77624226Y-71277000D01*
X77875774Y-71277000D01*
X78122487Y-71227926D01*
X78354886Y-71131663D01*
X78564040Y-70991911D01*
X78741911Y-70814040D01*
X78873000Y-70617851D01*
X78873000Y-77382149D01*
X78741911Y-77185960D01*
X78564040Y-77008089D01*
X78354886Y-76868337D01*
X78122487Y-76772074D01*
X77875774Y-76723000D01*
X77624226Y-76723000D01*
X77377513Y-76772074D01*
X77145114Y-76868337D01*
X76935960Y-77008089D01*
X76758089Y-77185960D01*
X76618337Y-77395114D01*
X76522074Y-77627513D01*
X76473000Y-77874226D01*
X76473000Y-78125774D01*
X76522074Y-78372487D01*
X76618337Y-78604886D01*
X76758089Y-78814040D01*
X76935960Y-78991911D01*
X77145114Y-79131663D01*
X77377513Y-79227926D01*
X77624226Y-79277000D01*
X77875774Y-79277000D01*
X78122487Y-79227926D01*
X78354886Y-79131663D01*
X78564040Y-78991911D01*
X78741911Y-78814040D01*
X78873000Y-78617851D01*
X78873000Y-83382149D01*
X78741911Y-83185960D01*
X78564040Y-83008089D01*
X78354886Y-82868337D01*
X78122487Y-82772074D01*
X77875774Y-82723000D01*
X77624226Y-82723000D01*
X77377513Y-82772074D01*
X77145114Y-82868337D01*
X76935960Y-83008089D01*
X76758089Y-83185960D01*
X76618337Y-83395114D01*
X76522074Y-83627513D01*
X76473000Y-83874226D01*
X76473000Y-84125774D01*
X76522074Y-84372487D01*
X76618337Y-84604886D01*
X76758089Y-84814040D01*
X76935960Y-84991911D01*
X77145114Y-85131663D01*
X77377513Y-85227926D01*
X77624226Y-85277000D01*
X77875774Y-85277000D01*
X78122487Y-85227926D01*
X78354886Y-85131663D01*
X78564040Y-84991911D01*
X78741911Y-84814040D01*
X78873000Y-84617851D01*
X78873000Y-89000000D01*
X78875440Y-89024776D01*
X78882667Y-89048601D01*
X78894403Y-89070557D01*
X78910197Y-89089803D01*
X81910197Y-92089803D01*
X81929443Y-92105597D01*
X81951399Y-92117333D01*
X81975224Y-92124560D01*
X82000000Y-92127000D01*
X85772286Y-92127000D01*
X85772074Y-92127513D01*
X85723000Y-92374226D01*
X85723000Y-92625774D01*
X85772074Y-92872487D01*
X85868337Y-93104886D01*
X86008089Y-93314040D01*
X86185960Y-93491911D01*
X86198066Y-93500000D01*
X86185960Y-93508089D01*
X86008089Y-93685960D01*
X85868337Y-93895114D01*
X85772074Y-94127513D01*
X85723000Y-94374226D01*
X85723000Y-94625774D01*
X85772074Y-94872487D01*
X85868337Y-95104886D01*
X86008089Y-95314040D01*
X86185960Y-95491911D01*
X86198066Y-95500000D01*
X86185960Y-95508089D01*
X86008089Y-95685960D01*
X85868337Y-95895114D01*
X85772074Y-96127513D01*
X85723000Y-96374226D01*
X85723000Y-96625774D01*
X85772074Y-96872487D01*
X85868337Y-97104886D01*
X86008089Y-97314040D01*
X86185960Y-97491911D01*
X86198066Y-97500000D01*
X86185960Y-97508089D01*
X86008089Y-97685960D01*
X85868337Y-97895114D01*
X85772074Y-98127513D01*
X85723000Y-98374226D01*
X85723000Y-98625774D01*
X85772074Y-98872487D01*
X85772286Y-98873000D01*
X67090445Y-98873000D01*
X67129886Y-98856663D01*
X67339040Y-98716911D01*
X67516911Y-98539040D01*
X67656663Y-98329886D01*
X67752926Y-98097487D01*
X67802000Y-97850774D01*
X67802000Y-97599226D01*
X67757245Y-97374226D01*
X73223000Y-97374226D01*
X73223000Y-97625774D01*
X73272074Y-97872487D01*
X73368337Y-98104886D01*
X73508089Y-98314040D01*
X73685960Y-98491911D01*
X73895114Y-98631663D01*
X74127513Y-98727926D01*
X74374226Y-98777000D01*
X74625774Y-98777000D01*
X74872487Y-98727926D01*
X75104886Y-98631663D01*
X75314040Y-98491911D01*
X75491911Y-98314040D01*
X75631663Y-98104886D01*
X75727926Y-97872487D01*
X75777000Y-97625774D01*
X75777000Y-97374226D01*
X75727926Y-97127513D01*
X75631663Y-96895114D01*
X75491911Y-96685960D01*
X75314040Y-96508089D01*
X75113700Y-96374226D01*
X78222990Y-96374226D01*
X78222990Y-96625774D01*
X78272064Y-96872487D01*
X78368327Y-97104886D01*
X78508079Y-97314040D01*
X78685950Y-97491911D01*
X78895104Y-97631663D01*
X79127503Y-97727926D01*
X79374216Y-97777000D01*
X79625764Y-97777000D01*
X79872477Y-97727926D01*
X80104876Y-97631663D01*
X80314030Y-97491911D01*
X80491901Y-97314040D01*
X80631653Y-97104886D01*
X80727916Y-96872487D01*
X80776990Y-96625774D01*
X80776990Y-96374226D01*
X80727916Y-96127513D01*
X80631653Y-95895114D01*
X80491901Y-95685960D01*
X80314030Y-95508089D01*
X80301929Y-95500003D01*
X80314040Y-95491911D01*
X80491911Y-95314040D01*
X80631663Y-95104886D01*
X80727926Y-94872487D01*
X80777000Y-94625774D01*
X80777000Y-94374226D01*
X80727926Y-94127513D01*
X80631663Y-93895114D01*
X80491911Y-93685960D01*
X80314040Y-93508089D01*
X80104886Y-93368337D01*
X79872487Y-93272074D01*
X79625774Y-93223000D01*
X79374226Y-93223000D01*
X79127513Y-93272074D01*
X78895114Y-93368337D01*
X78685960Y-93508089D01*
X78508089Y-93685960D01*
X78368337Y-93895114D01*
X78272074Y-94127513D01*
X78223000Y-94374226D01*
X78223000Y-94625774D01*
X78272074Y-94872487D01*
X78368337Y-95104886D01*
X78508089Y-95314040D01*
X78685960Y-95491911D01*
X78698061Y-95499997D01*
X78685950Y-95508089D01*
X78508079Y-95685960D01*
X78368327Y-95895114D01*
X78272064Y-96127513D01*
X78222990Y-96374226D01*
X75113700Y-96374226D01*
X75104886Y-96368337D01*
X74872487Y-96272074D01*
X74625774Y-96223000D01*
X74374226Y-96223000D01*
X74127513Y-96272074D01*
X73895114Y-96368337D01*
X73685960Y-96508089D01*
X73508089Y-96685960D01*
X73368337Y-96895114D01*
X73272074Y-97127513D01*
X73223000Y-97374226D01*
X67757245Y-97374226D01*
X67752926Y-97352513D01*
X67656663Y-97120114D01*
X67516911Y-96910960D01*
X67339040Y-96733089D01*
X67129886Y-96593337D01*
X66897487Y-96497074D01*
X66650774Y-96448000D01*
X66399226Y-96448000D01*
X66152513Y-96497074D01*
X65920114Y-96593337D01*
X65710960Y-96733089D01*
X65533089Y-96910960D01*
X65393337Y-97120114D01*
X65297074Y-97352513D01*
X65248000Y-97599226D01*
X65248000Y-97850774D01*
X65297074Y-98097487D01*
X65393337Y-98329886D01*
X65533089Y-98539040D01*
X65710960Y-98716911D01*
X65920114Y-98856663D01*
X65959555Y-98873000D01*
X62844599Y-98873000D01*
X63068041Y-98780447D01*
X63350898Y-98591448D01*
X63591448Y-98350898D01*
X63780447Y-98068041D01*
X63910632Y-97753747D01*
X63977000Y-97420095D01*
X63977000Y-97079905D01*
X63910632Y-96746253D01*
X63780447Y-96431959D01*
X63591448Y-96149102D01*
X63350898Y-95908552D01*
X63068041Y-95719553D01*
X62753747Y-95589368D01*
X62420095Y-95523000D01*
X62079905Y-95523000D01*
X61746253Y-95589368D01*
X61431959Y-95719553D01*
X61240878Y-95847229D01*
X61183133Y-95776867D01*
X61049592Y-95667273D01*
X60897237Y-95585838D01*
X60731922Y-95535690D01*
X60560000Y-95518757D01*
X58860000Y-95518757D01*
X58688078Y-95535690D01*
X58522763Y-95585838D01*
X58370408Y-95667273D01*
X58236867Y-95776867D01*
X58127273Y-95910408D01*
X58127000Y-95910919D01*
X58127000Y-93714276D01*
X58210408Y-93782727D01*
X58362763Y-93864162D01*
X58528078Y-93914310D01*
X58700000Y-93931243D01*
X60300000Y-93931243D01*
X60471922Y-93914310D01*
X60637237Y-93864162D01*
X60789592Y-93782727D01*
X60923133Y-93673133D01*
X61032727Y-93539592D01*
X61114162Y-93387237D01*
X61145423Y-93284184D01*
X61186903Y-93242704D01*
X61258486Y-93486671D01*
X61513996Y-93607571D01*
X61788184Y-93676300D01*
X62070512Y-93690217D01*
X62350130Y-93648787D01*
X62616292Y-93553603D01*
X62741514Y-93486671D01*
X62813097Y-93242702D01*
X62000000Y-92429605D01*
X61985858Y-92443748D01*
X61806253Y-92264143D01*
X61820395Y-92250000D01*
X62179605Y-92250000D01*
X62992702Y-93063097D01*
X63236671Y-92991514D01*
X63357571Y-92736004D01*
X63426300Y-92461816D01*
X63440217Y-92179488D01*
X63398787Y-91899870D01*
X63389617Y-91874226D01*
X65473000Y-91874226D01*
X65473000Y-92125774D01*
X65522074Y-92372487D01*
X65618337Y-92604886D01*
X65758089Y-92814040D01*
X65935960Y-92991911D01*
X66145114Y-93131663D01*
X66377513Y-93227926D01*
X66624226Y-93277000D01*
X66875774Y-93277000D01*
X67122487Y-93227926D01*
X67354886Y-93131663D01*
X67500000Y-93034701D01*
X67645114Y-93131663D01*
X67877513Y-93227926D01*
X68124226Y-93277000D01*
X68375774Y-93277000D01*
X68622487Y-93227926D01*
X68854886Y-93131663D01*
X69064040Y-92991911D01*
X69241911Y-92814040D01*
X69381663Y-92604886D01*
X69477926Y-92372487D01*
X69527000Y-92125774D01*
X69527000Y-91874226D01*
X69477926Y-91627513D01*
X69381663Y-91395114D01*
X69241911Y-91185960D01*
X69064040Y-91008089D01*
X68854886Y-90868337D01*
X68622487Y-90772074D01*
X68375774Y-90723000D01*
X68124226Y-90723000D01*
X67877513Y-90772074D01*
X67645114Y-90868337D01*
X67500000Y-90965299D01*
X67354886Y-90868337D01*
X67122487Y-90772074D01*
X66875774Y-90723000D01*
X66624226Y-90723000D01*
X66377513Y-90772074D01*
X66145114Y-90868337D01*
X65935960Y-91008089D01*
X65758089Y-91185960D01*
X65618337Y-91395114D01*
X65522074Y-91627513D01*
X65473000Y-91874226D01*
X63389617Y-91874226D01*
X63303603Y-91633708D01*
X63236671Y-91508486D01*
X62992702Y-91436903D01*
X62179605Y-92250000D01*
X61820395Y-92250000D01*
X61806253Y-92235858D01*
X61985858Y-92056253D01*
X62000000Y-92070395D01*
X62813097Y-91257298D01*
X62741514Y-91013329D01*
X62486004Y-90892429D01*
X62211816Y-90823700D01*
X61929488Y-90809783D01*
X61649870Y-90851213D01*
X61383708Y-90946397D01*
X61258486Y-91013329D01*
X61186903Y-91257296D01*
X61145423Y-91215816D01*
X61114162Y-91112763D01*
X61032727Y-90960408D01*
X60923133Y-90826867D01*
X60789592Y-90717273D01*
X60637237Y-90635838D01*
X60471922Y-90585690D01*
X60300000Y-90568757D01*
X58700000Y-90568757D01*
X58528078Y-90585690D01*
X58362763Y-90635838D01*
X58210408Y-90717273D01*
X58127000Y-90785724D01*
X58127000Y-89052606D01*
X58867880Y-88311726D01*
X63448000Y-88311726D01*
X63448000Y-88563274D01*
X63497074Y-88809987D01*
X63593337Y-89042386D01*
X63733089Y-89251540D01*
X63910960Y-89429411D01*
X64120114Y-89569163D01*
X64352513Y-89665426D01*
X64599226Y-89714500D01*
X64850774Y-89714500D01*
X65097487Y-89665426D01*
X65329886Y-89569163D01*
X65475000Y-89472201D01*
X65620114Y-89569163D01*
X65852513Y-89665426D01*
X66099226Y-89714500D01*
X66350774Y-89714500D01*
X66597487Y-89665426D01*
X66829886Y-89569163D01*
X67039040Y-89429411D01*
X67216911Y-89251540D01*
X67356663Y-89042386D01*
X67452926Y-88809987D01*
X67502000Y-88563274D01*
X67502000Y-88374226D01*
X72473000Y-88374226D01*
X72473000Y-88625774D01*
X72522074Y-88872487D01*
X72618337Y-89104886D01*
X72758089Y-89314040D01*
X72935960Y-89491911D01*
X73145114Y-89631663D01*
X73377513Y-89727926D01*
X73624226Y-89777000D01*
X73875774Y-89777000D01*
X74122487Y-89727926D01*
X74354886Y-89631663D01*
X74564040Y-89491911D01*
X74741911Y-89314040D01*
X74881663Y-89104886D01*
X74977926Y-88872487D01*
X75027000Y-88625774D01*
X75027000Y-88374226D01*
X74977926Y-88127513D01*
X74881663Y-87895114D01*
X74741911Y-87685960D01*
X74564040Y-87508089D01*
X74354886Y-87368337D01*
X74122487Y-87272074D01*
X73875774Y-87223000D01*
X73624226Y-87223000D01*
X73377513Y-87272074D01*
X73145114Y-87368337D01*
X72935960Y-87508089D01*
X72758089Y-87685960D01*
X72618337Y-87895114D01*
X72522074Y-88127513D01*
X72473000Y-88374226D01*
X67502000Y-88374226D01*
X67502000Y-88311726D01*
X67452926Y-88065013D01*
X67356663Y-87832614D01*
X67216911Y-87623460D01*
X67039040Y-87445589D01*
X66829886Y-87305837D01*
X66597487Y-87209574D01*
X66350774Y-87160500D01*
X66099226Y-87160500D01*
X65852513Y-87209574D01*
X65620114Y-87305837D01*
X65475000Y-87402799D01*
X65329886Y-87305837D01*
X65097487Y-87209574D01*
X64850774Y-87160500D01*
X64599226Y-87160500D01*
X64352513Y-87209574D01*
X64120114Y-87305837D01*
X63910960Y-87445589D01*
X63733089Y-87623460D01*
X63593337Y-87832614D01*
X63497074Y-88065013D01*
X63448000Y-88311726D01*
X58867880Y-88311726D01*
X60089803Y-87089803D01*
X60105597Y-87070557D01*
X60117333Y-87048601D01*
X60124560Y-87024776D01*
X60127000Y-87000000D01*
X60127000Y-82874226D01*
X67973000Y-82874226D01*
X67973000Y-83125774D01*
X68022074Y-83372487D01*
X68118337Y-83604886D01*
X68258089Y-83814040D01*
X68435960Y-83991911D01*
X68645114Y-84131663D01*
X68877513Y-84227926D01*
X69124226Y-84277000D01*
X69313708Y-84277000D01*
X69272074Y-84377513D01*
X69223000Y-84624226D01*
X69223000Y-84875774D01*
X69272074Y-85122487D01*
X69368337Y-85354886D01*
X69508089Y-85564040D01*
X69685960Y-85741911D01*
X69895114Y-85881663D01*
X70127513Y-85977926D01*
X70374226Y-86027000D01*
X70625774Y-86027000D01*
X70872487Y-85977926D01*
X71104886Y-85881663D01*
X71314040Y-85741911D01*
X71491911Y-85564040D01*
X71631663Y-85354886D01*
X71727926Y-85122487D01*
X71777000Y-84875774D01*
X71777000Y-84624226D01*
X71727926Y-84377513D01*
X71631663Y-84145114D01*
X71491911Y-83935960D01*
X71314040Y-83758089D01*
X71104886Y-83618337D01*
X70872487Y-83522074D01*
X70625774Y-83473000D01*
X70436292Y-83473000D01*
X70477926Y-83372487D01*
X70527000Y-83125774D01*
X70527000Y-82874226D01*
X70477926Y-82627513D01*
X70381663Y-82395114D01*
X70241911Y-82185960D01*
X70064040Y-82008089D01*
X69854886Y-81868337D01*
X69622487Y-81772074D01*
X69375774Y-81723000D01*
X69124226Y-81723000D01*
X68877513Y-81772074D01*
X68645114Y-81868337D01*
X68435960Y-82008089D01*
X68258089Y-82185960D01*
X68118337Y-82395114D01*
X68022074Y-82627513D01*
X67973000Y-82874226D01*
X60127000Y-82874226D01*
X60127000Y-81394560D01*
X60145114Y-81406663D01*
X60377513Y-81502926D01*
X60624226Y-81552000D01*
X60875774Y-81552000D01*
X61122487Y-81502926D01*
X61354886Y-81406663D01*
X61403431Y-81374226D01*
X72223000Y-81374226D01*
X72223000Y-81625774D01*
X72272074Y-81872487D01*
X72368337Y-82104886D01*
X72465299Y-82250000D01*
X72368337Y-82395114D01*
X72272074Y-82627513D01*
X72223000Y-82874226D01*
X72223000Y-83125774D01*
X72272074Y-83372487D01*
X72368337Y-83604886D01*
X72508089Y-83814040D01*
X72685960Y-83991911D01*
X72895114Y-84131663D01*
X73127513Y-84227926D01*
X73374226Y-84277000D01*
X73625774Y-84277000D01*
X73872487Y-84227926D01*
X74104886Y-84131663D01*
X74314040Y-83991911D01*
X74491911Y-83814040D01*
X74631663Y-83604886D01*
X74727926Y-83372487D01*
X74777000Y-83125774D01*
X74777000Y-82874226D01*
X74727926Y-82627513D01*
X74631663Y-82395114D01*
X74534701Y-82250000D01*
X74631663Y-82104886D01*
X74727926Y-81872487D01*
X74777000Y-81625774D01*
X74777000Y-81374226D01*
X74727926Y-81127513D01*
X74631663Y-80895114D01*
X74491911Y-80685960D01*
X74314040Y-80508089D01*
X74104886Y-80368337D01*
X73872487Y-80272074D01*
X73625774Y-80223000D01*
X73374226Y-80223000D01*
X73127513Y-80272074D01*
X72895114Y-80368337D01*
X72685960Y-80508089D01*
X72508089Y-80685960D01*
X72368337Y-80895114D01*
X72272074Y-81127513D01*
X72223000Y-81374226D01*
X61403431Y-81374226D01*
X61564040Y-81266911D01*
X61741911Y-81089040D01*
X61881663Y-80879886D01*
X61977926Y-80647487D01*
X62027000Y-80400774D01*
X62027000Y-80149226D01*
X61977926Y-79902513D01*
X61881663Y-79670114D01*
X61741911Y-79460960D01*
X61564040Y-79283089D01*
X61354886Y-79143337D01*
X61122487Y-79047074D01*
X60875774Y-78998000D01*
X60624226Y-78998000D01*
X60377513Y-79047074D01*
X60145114Y-79143337D01*
X60127000Y-79155440D01*
X60127000Y-77869578D01*
X60145114Y-77881681D01*
X60377513Y-77977944D01*
X60624226Y-78027018D01*
X60875774Y-78027018D01*
X61122487Y-77977944D01*
X61354886Y-77881681D01*
X61564040Y-77741929D01*
X61741911Y-77564058D01*
X61881663Y-77354904D01*
X61977926Y-77122505D01*
X62022338Y-76899226D01*
X66548000Y-76899226D01*
X66548000Y-77150774D01*
X66597074Y-77397487D01*
X66693337Y-77629886D01*
X66833089Y-77839040D01*
X67010960Y-78016911D01*
X67220114Y-78156663D01*
X67452513Y-78252926D01*
X67699226Y-78302000D01*
X67950774Y-78302000D01*
X68197487Y-78252926D01*
X68429886Y-78156663D01*
X68556208Y-78072258D01*
X68645114Y-78131663D01*
X68877513Y-78227926D01*
X69124226Y-78277000D01*
X69313708Y-78277000D01*
X69272074Y-78377513D01*
X69223000Y-78624226D01*
X69223000Y-78875774D01*
X69272074Y-79122487D01*
X69368337Y-79354886D01*
X69508089Y-79564040D01*
X69685960Y-79741911D01*
X69895114Y-79881663D01*
X70127513Y-79977926D01*
X70374226Y-80027000D01*
X70625774Y-80027000D01*
X70872487Y-79977926D01*
X71104886Y-79881663D01*
X71314040Y-79741911D01*
X71491911Y-79564040D01*
X71631663Y-79354886D01*
X71727926Y-79122487D01*
X71777000Y-78875774D01*
X71777000Y-78624226D01*
X71727926Y-78377513D01*
X71631663Y-78145114D01*
X71491911Y-77935960D01*
X71314040Y-77758089D01*
X71104886Y-77618337D01*
X70872487Y-77522074D01*
X70625774Y-77473000D01*
X70436292Y-77473000D01*
X70477926Y-77372487D01*
X70527000Y-77125774D01*
X70527000Y-76874226D01*
X70477926Y-76627513D01*
X70381663Y-76395114D01*
X70241911Y-76185960D01*
X70064040Y-76008089D01*
X69854886Y-75868337D01*
X69622487Y-75772074D01*
X69375774Y-75723000D01*
X69124226Y-75723000D01*
X68877513Y-75772074D01*
X68645114Y-75868337D01*
X68518792Y-75952742D01*
X68429886Y-75893337D01*
X68197487Y-75797074D01*
X67950774Y-75748000D01*
X67699226Y-75748000D01*
X67452513Y-75797074D01*
X67220114Y-75893337D01*
X67010960Y-76033089D01*
X66833089Y-76210960D01*
X66693337Y-76420114D01*
X66597074Y-76652513D01*
X66548000Y-76899226D01*
X62022338Y-76899226D01*
X62027000Y-76875792D01*
X62027000Y-76624244D01*
X61977926Y-76377531D01*
X61881663Y-76145132D01*
X61741911Y-75935978D01*
X61564040Y-75758107D01*
X61354886Y-75618355D01*
X61122487Y-75522092D01*
X60875774Y-75473018D01*
X60624226Y-75473018D01*
X60377513Y-75522092D01*
X60145114Y-75618355D01*
X60127000Y-75630458D01*
X60127000Y-75374226D01*
X72223000Y-75374226D01*
X72223000Y-75625774D01*
X72272074Y-75872487D01*
X72368337Y-76104886D01*
X72508089Y-76314040D01*
X72685960Y-76491911D01*
X72895114Y-76631663D01*
X73127513Y-76727926D01*
X73374226Y-76777000D01*
X73625774Y-76777000D01*
X73872487Y-76727926D01*
X74104886Y-76631663D01*
X74314040Y-76491911D01*
X74491911Y-76314040D01*
X74631663Y-76104886D01*
X74727926Y-75872487D01*
X74777000Y-75625774D01*
X74777000Y-75374226D01*
X74727926Y-75127513D01*
X74631663Y-74895114D01*
X74491911Y-74685960D01*
X74314040Y-74508089D01*
X74104886Y-74368337D01*
X73872487Y-74272074D01*
X73625774Y-74223000D01*
X73374226Y-74223000D01*
X73127513Y-74272074D01*
X72895114Y-74368337D01*
X72685960Y-74508089D01*
X72508089Y-74685960D01*
X72368337Y-74895114D01*
X72272074Y-75127513D01*
X72223000Y-75374226D01*
X60127000Y-75374226D01*
X60127000Y-74802606D01*
X65089803Y-69839803D01*
X65105597Y-69820557D01*
X65117333Y-69798601D01*
X65124560Y-69774776D01*
X65127000Y-69750000D01*
X65127000Y-68874226D01*
X67973000Y-68874226D01*
X67973000Y-69125774D01*
X68022074Y-69372487D01*
X68118337Y-69604886D01*
X68258089Y-69814040D01*
X68435960Y-69991911D01*
X68645114Y-70131663D01*
X68877513Y-70227926D01*
X69124226Y-70277000D01*
X69313708Y-70277000D01*
X69272074Y-70377513D01*
X69223000Y-70624226D01*
X69223000Y-70875774D01*
X69272074Y-71122487D01*
X69368337Y-71354886D01*
X69508089Y-71564040D01*
X69685960Y-71741911D01*
X69895114Y-71881663D01*
X70127513Y-71977926D01*
X70374226Y-72027000D01*
X70625774Y-72027000D01*
X70872487Y-71977926D01*
X71104886Y-71881663D01*
X71314040Y-71741911D01*
X71491911Y-71564040D01*
X71631663Y-71354886D01*
X71727926Y-71122487D01*
X71777000Y-70875774D01*
X71777000Y-70624226D01*
X71727926Y-70377513D01*
X71631663Y-70145114D01*
X71491911Y-69935960D01*
X71314040Y-69758089D01*
X71104886Y-69618337D01*
X70872487Y-69522074D01*
X70625774Y-69473000D01*
X70436292Y-69473000D01*
X70477926Y-69372487D01*
X70527000Y-69125774D01*
X70527000Y-68874226D01*
X72223000Y-68874226D01*
X72223000Y-69125774D01*
X72272074Y-69372487D01*
X72368337Y-69604886D01*
X72508089Y-69814040D01*
X72685960Y-69991911D01*
X72895114Y-70131663D01*
X73127513Y-70227926D01*
X73374226Y-70277000D01*
X73625774Y-70277000D01*
X73872487Y-70227926D01*
X74104886Y-70131663D01*
X74314040Y-69991911D01*
X74491911Y-69814040D01*
X74631663Y-69604886D01*
X74727926Y-69372487D01*
X74777000Y-69125774D01*
X74777000Y-68874226D01*
X74727926Y-68627513D01*
X74631663Y-68395114D01*
X74491911Y-68185960D01*
X74314040Y-68008089D01*
X74104886Y-67868337D01*
X73872487Y-67772074D01*
X73625774Y-67723000D01*
X73374226Y-67723000D01*
X73127513Y-67772074D01*
X72895114Y-67868337D01*
X72685960Y-68008089D01*
X72508089Y-68185960D01*
X72368337Y-68395114D01*
X72272074Y-68627513D01*
X72223000Y-68874226D01*
X70527000Y-68874226D01*
X70477926Y-68627513D01*
X70381663Y-68395114D01*
X70241911Y-68185960D01*
X70064040Y-68008089D01*
X69854886Y-67868337D01*
X69622487Y-67772074D01*
X69375774Y-67723000D01*
X69124226Y-67723000D01*
X68877513Y-67772074D01*
X68645114Y-67868337D01*
X68435960Y-68008089D01*
X68258089Y-68185960D01*
X68118337Y-68395114D01*
X68022074Y-68627513D01*
X67973000Y-68874226D01*
X65127000Y-68874226D01*
X65127000Y-61574226D01*
X65973000Y-61574226D01*
X65973000Y-61825774D01*
X66022074Y-62072487D01*
X66118337Y-62304886D01*
X66258089Y-62514040D01*
X66435960Y-62691911D01*
X66645114Y-62831663D01*
X66877513Y-62927926D01*
X67124226Y-62977000D01*
X67375774Y-62977000D01*
X67622487Y-62927926D01*
X67854886Y-62831663D01*
X68000869Y-62734121D01*
X67973000Y-62874226D01*
X67973000Y-63125774D01*
X68022074Y-63372487D01*
X68118337Y-63604886D01*
X68258089Y-63814040D01*
X68435960Y-63991911D01*
X68645114Y-64131663D01*
X68877513Y-64227926D01*
X69124226Y-64277000D01*
X69313708Y-64277000D01*
X69272074Y-64377513D01*
X69223000Y-64624226D01*
X69223000Y-64875774D01*
X69272074Y-65122487D01*
X69368337Y-65354886D01*
X69508089Y-65564040D01*
X69685960Y-65741911D01*
X69895114Y-65881663D01*
X70127513Y-65977926D01*
X70374226Y-66027000D01*
X70625774Y-66027000D01*
X70872487Y-65977926D01*
X71104886Y-65881663D01*
X71314040Y-65741911D01*
X71491911Y-65564040D01*
X71631663Y-65354886D01*
X71727926Y-65122487D01*
X71777000Y-64875774D01*
X71777000Y-64624226D01*
X71727926Y-64377513D01*
X71631663Y-64145114D01*
X71491911Y-63935960D01*
X71314040Y-63758089D01*
X71104886Y-63618337D01*
X70872487Y-63522074D01*
X70625774Y-63473000D01*
X70436292Y-63473000D01*
X70477926Y-63372487D01*
X70527000Y-63125774D01*
X70527000Y-62874226D01*
X70477926Y-62627513D01*
X70381663Y-62395114D01*
X70241911Y-62185960D01*
X70064040Y-62008089D01*
X69854886Y-61868337D01*
X69622487Y-61772074D01*
X69375774Y-61723000D01*
X69124226Y-61723000D01*
X68877513Y-61772074D01*
X68645114Y-61868337D01*
X68499131Y-61965879D01*
X68527000Y-61825774D01*
X68527000Y-61574226D01*
X68477926Y-61327513D01*
X68381663Y-61095114D01*
X68241911Y-60885960D01*
X68064040Y-60708089D01*
X67854886Y-60568337D01*
X67622487Y-60472074D01*
X67375774Y-60423000D01*
X67124226Y-60423000D01*
X66877513Y-60472074D01*
X66645114Y-60568337D01*
X66435960Y-60708089D01*
X66258089Y-60885960D01*
X66118337Y-61095114D01*
X66022074Y-61327513D01*
X65973000Y-61574226D01*
X65127000Y-61574226D01*
X65127000Y-58574226D01*
X67973000Y-58574226D01*
X67973000Y-58825774D01*
X68022074Y-59072487D01*
X68118337Y-59304886D01*
X68258089Y-59514040D01*
X68435960Y-59691911D01*
X68645114Y-59831663D01*
X68877513Y-59927926D01*
X69124226Y-59977000D01*
X69375774Y-59977000D01*
X69622487Y-59927926D01*
X69854886Y-59831663D01*
X70064040Y-59691911D01*
X70241911Y-59514040D01*
X70381663Y-59304886D01*
X70477926Y-59072487D01*
X70527000Y-58825774D01*
X70527000Y-58574226D01*
X70477926Y-58327513D01*
X70381663Y-58095114D01*
X70241911Y-57885960D01*
X70064040Y-57708089D01*
X69854886Y-57568337D01*
X69622487Y-57472074D01*
X69375774Y-57423000D01*
X69124226Y-57423000D01*
X68877513Y-57472074D01*
X68645114Y-57568337D01*
X68435960Y-57708089D01*
X68258089Y-57885960D01*
X68118337Y-58095114D01*
X68022074Y-58327513D01*
X67973000Y-58574226D01*
X65127000Y-58574226D01*
X65127000Y-56146890D01*
X71808524Y-56146890D01*
X71853175Y-56294099D01*
X71978359Y-56556920D01*
X72152412Y-56790269D01*
X72368645Y-56985178D01*
X72618748Y-57134157D01*
X72893109Y-57231481D01*
X73123000Y-57110814D01*
X73123000Y-55917000D01*
X71929845Y-55917000D01*
X71808524Y-56146890D01*
X65127000Y-56146890D01*
X65127000Y-53200000D01*
X65318757Y-53200000D01*
X65318757Y-54800000D01*
X65335690Y-54971922D01*
X65385838Y-55137237D01*
X65467273Y-55289592D01*
X65576867Y-55423133D01*
X65710408Y-55532727D01*
X65862763Y-55614162D01*
X66028078Y-55664310D01*
X66200000Y-55681243D01*
X67800000Y-55681243D01*
X67971922Y-55664310D01*
X68137237Y-55614162D01*
X68289592Y-55532727D01*
X68423133Y-55423133D01*
X68532727Y-55289592D01*
X68614162Y-55137237D01*
X68645423Y-55034184D01*
X68686903Y-54992704D01*
X68758486Y-55236671D01*
X69013996Y-55357571D01*
X69288184Y-55426300D01*
X69570512Y-55440217D01*
X69850130Y-55398787D01*
X70116292Y-55303603D01*
X70241514Y-55236671D01*
X70313097Y-54992702D01*
X69500000Y-54179605D01*
X69485858Y-54193748D01*
X69306253Y-54014143D01*
X69320395Y-54000000D01*
X69679605Y-54000000D01*
X70492702Y-54813097D01*
X70736671Y-54741514D01*
X70857571Y-54486004D01*
X70926300Y-54211816D01*
X70931811Y-54100000D01*
X71761928Y-54100000D01*
X71774188Y-54224482D01*
X71810498Y-54344180D01*
X71869463Y-54454494D01*
X71948815Y-54551185D01*
X72045506Y-54630537D01*
X72155820Y-54689502D01*
X72236466Y-54713966D01*
X72152412Y-54789731D01*
X71978359Y-55023080D01*
X71853175Y-55285901D01*
X71808524Y-55433110D01*
X71929845Y-55663000D01*
X73123000Y-55663000D01*
X73123000Y-53377000D01*
X71923750Y-53377000D01*
X71765000Y-53535750D01*
X71761928Y-54100000D01*
X70931811Y-54100000D01*
X70940217Y-53929488D01*
X70898787Y-53649870D01*
X70803603Y-53383708D01*
X70736671Y-53258486D01*
X70492702Y-53186903D01*
X69679605Y-54000000D01*
X69320395Y-54000000D01*
X69306253Y-53985858D01*
X69485858Y-53806253D01*
X69500000Y-53820395D01*
X70313097Y-53007298D01*
X70241514Y-52763329D01*
X69986004Y-52642429D01*
X69711816Y-52573700D01*
X69429488Y-52559783D01*
X69149870Y-52601213D01*
X68883708Y-52696397D01*
X68758486Y-52763329D01*
X68686903Y-53007296D01*
X68645423Y-52965816D01*
X68614162Y-52862763D01*
X68532727Y-52710408D01*
X68423133Y-52576867D01*
X68289592Y-52467273D01*
X68163733Y-52400000D01*
X71761928Y-52400000D01*
X71765000Y-52964250D01*
X71923750Y-53123000D01*
X73123000Y-53123000D01*
X73123000Y-51923750D01*
X73377000Y-51923750D01*
X73377000Y-53123000D01*
X73397000Y-53123000D01*
X73397000Y-53377000D01*
X73377000Y-53377000D01*
X73377000Y-55663000D01*
X73397000Y-55663000D01*
X73397000Y-55917000D01*
X73377000Y-55917000D01*
X73377000Y-57110814D01*
X73606891Y-57231481D01*
X73881252Y-57134157D01*
X74131355Y-56985178D01*
X74347588Y-56790269D01*
X74521641Y-56556920D01*
X74616171Y-56358456D01*
X74719553Y-56608041D01*
X74908552Y-56890898D01*
X75149102Y-57131448D01*
X75431959Y-57320447D01*
X75746253Y-57450632D01*
X76079905Y-57517000D01*
X76420095Y-57517000D01*
X76753747Y-57450632D01*
X77068041Y-57320447D01*
X77350898Y-57131448D01*
X77591448Y-56890898D01*
X77750000Y-56653608D01*
X77908552Y-56890898D01*
X78149102Y-57131448D01*
X78431959Y-57320447D01*
X78746253Y-57450632D01*
X79079905Y-57517000D01*
X79420095Y-57517000D01*
X79753747Y-57450632D01*
X80068041Y-57320447D01*
X80350898Y-57131448D01*
X80591448Y-56890898D01*
X80780447Y-56608041D01*
X80910632Y-56293747D01*
X80930790Y-56192406D01*
X81191314Y-56379081D01*
X83570395Y-54000000D01*
X81191314Y-51620919D01*
X80815907Y-51889913D01*
X80723133Y-51776867D01*
X80589592Y-51667273D01*
X80437237Y-51585838D01*
X80271922Y-51535690D01*
X80100000Y-51518757D01*
X78400000Y-51518757D01*
X78228078Y-51535690D01*
X78062763Y-51585838D01*
X77910408Y-51667273D01*
X77776867Y-51776867D01*
X77750000Y-51809605D01*
X77723133Y-51776867D01*
X77589592Y-51667273D01*
X77437237Y-51585838D01*
X77271922Y-51535690D01*
X77100000Y-51518757D01*
X75400000Y-51518757D01*
X75228078Y-51535690D01*
X75062763Y-51585838D01*
X74910408Y-51667273D01*
X74776867Y-51776867D01*
X74667273Y-51910408D01*
X74609054Y-52019329D01*
X74551185Y-51948815D01*
X74454494Y-51869463D01*
X74344180Y-51810498D01*
X74224482Y-51774188D01*
X74100000Y-51761928D01*
X73535750Y-51765000D01*
X73377000Y-51923750D01*
X73123000Y-51923750D01*
X72964250Y-51765000D01*
X72400000Y-51761928D01*
X72275518Y-51774188D01*
X72155820Y-51810498D01*
X72045506Y-51869463D01*
X71948815Y-51948815D01*
X71869463Y-52045506D01*
X71810498Y-52155820D01*
X71774188Y-52275518D01*
X71761928Y-52400000D01*
X68163733Y-52400000D01*
X68137237Y-52385838D01*
X67971922Y-52335690D01*
X67800000Y-52318757D01*
X66200000Y-52318757D01*
X66028078Y-52335690D01*
X65862763Y-52385838D01*
X65710408Y-52467273D01*
X65576867Y-52576867D01*
X65467273Y-52710408D01*
X65385838Y-52862763D01*
X65335690Y-53028078D01*
X65318757Y-53200000D01*
X65127000Y-53200000D01*
X65127000Y-51127000D01*
X81596137Y-51127000D01*
X81370919Y-51441314D01*
%TO.N,GND*%
G36*
X64123000Y-68947394D02*
G01*
X58910197Y-74160197D01*
X58894403Y-74179443D01*
X58882667Y-74201399D01*
X58875440Y-74225224D01*
X58873000Y-74250000D01*
X58873000Y-85947394D01*
X55947394Y-88873000D01*
X51127000Y-88873000D01*
X51127000Y-80149226D01*
X56198000Y-80149226D01*
X56198000Y-80400774D01*
X56247074Y-80647487D01*
X56343337Y-80879886D01*
X56483089Y-81089040D01*
X56660960Y-81266911D01*
X56870114Y-81406663D01*
X57102513Y-81502926D01*
X57349226Y-81552000D01*
X57600774Y-81552000D01*
X57847487Y-81502926D01*
X58079886Y-81406663D01*
X58289040Y-81266911D01*
X58466911Y-81089040D01*
X58606663Y-80879886D01*
X58702926Y-80647487D01*
X58752000Y-80400774D01*
X58752000Y-80149226D01*
X58702926Y-79902513D01*
X58606663Y-79670114D01*
X58466911Y-79460960D01*
X58289040Y-79283089D01*
X58079886Y-79143337D01*
X57847487Y-79047074D01*
X57600774Y-78998000D01*
X57349226Y-78998000D01*
X57102513Y-79047074D01*
X56870114Y-79143337D01*
X56660960Y-79283089D01*
X56483089Y-79460960D01*
X56343337Y-79670114D01*
X56247074Y-79902513D01*
X56198000Y-80149226D01*
X51127000Y-80149226D01*
X51127000Y-71106890D01*
X52433524Y-71106890D01*
X52525648Y-71369858D01*
X52672504Y-71621193D01*
X52865571Y-71839049D01*
X53097430Y-72015053D01*
X53359170Y-72142442D01*
X53640733Y-72216320D01*
X53873000Y-72076165D01*
X53873000Y-70877000D01*
X54127000Y-70877000D01*
X54127000Y-72076165D01*
X54359267Y-72216320D01*
X54640830Y-72142442D01*
X54902570Y-72015053D01*
X55134429Y-71839049D01*
X55327496Y-71621193D01*
X55474352Y-71369858D01*
X55566476Y-71106890D01*
X55445155Y-70877000D01*
X54127000Y-70877000D01*
X53873000Y-70877000D01*
X52554845Y-70877000D01*
X52433524Y-71106890D01*
X51127000Y-71106890D01*
X51127000Y-63250000D01*
X52139644Y-63250000D01*
X52172988Y-63588551D01*
X52271740Y-63914092D01*
X52432104Y-64214112D01*
X52647918Y-64477082D01*
X52675844Y-64500000D01*
X52647918Y-64522918D01*
X52432104Y-64785888D01*
X52271740Y-65085908D01*
X52172988Y-65411449D01*
X52139644Y-65750000D01*
X52172988Y-66088551D01*
X52271740Y-66414092D01*
X52432104Y-66714112D01*
X52647918Y-66977082D01*
X52675844Y-67000000D01*
X52647918Y-67022918D01*
X52432104Y-67285888D01*
X52271740Y-67585908D01*
X52172988Y-67911449D01*
X52139644Y-68250000D01*
X52172988Y-68588551D01*
X52271740Y-68914092D01*
X52432104Y-69214112D01*
X52647918Y-69477082D01*
X52868892Y-69658430D01*
X52865571Y-69660951D01*
X52672504Y-69878807D01*
X52525648Y-70130142D01*
X52433524Y-70393110D01*
X52554845Y-70623000D01*
X53873000Y-70623000D01*
X53873000Y-70603000D01*
X54127000Y-70603000D01*
X54127000Y-70623000D01*
X55445155Y-70623000D01*
X55566476Y-70393110D01*
X55474352Y-70130142D01*
X55327496Y-69878807D01*
X55134429Y-69660951D01*
X55131108Y-69658430D01*
X55352082Y-69477082D01*
X55567896Y-69214112D01*
X55728260Y-68914092D01*
X55827012Y-68588551D01*
X55860356Y-68250000D01*
X55827012Y-67911449D01*
X55762870Y-67700000D01*
X57818757Y-67700000D01*
X57818757Y-69300000D01*
X57835690Y-69471922D01*
X57885838Y-69637237D01*
X57967273Y-69789592D01*
X58076867Y-69923133D01*
X58210408Y-70032727D01*
X58362763Y-70114162D01*
X58528078Y-70164310D01*
X58700000Y-70181243D01*
X60300000Y-70181243D01*
X60471922Y-70164310D01*
X60637237Y-70114162D01*
X60789592Y-70032727D01*
X60923133Y-69923133D01*
X61032727Y-69789592D01*
X61114162Y-69637237D01*
X61145423Y-69534184D01*
X61186903Y-69492704D01*
X61258486Y-69736671D01*
X61513996Y-69857571D01*
X61788184Y-69926300D01*
X62070512Y-69940217D01*
X62350130Y-69898787D01*
X62616292Y-69803603D01*
X62741514Y-69736671D01*
X62813097Y-69492702D01*
X62000000Y-68679605D01*
X61985858Y-68693748D01*
X61806253Y-68514143D01*
X61820395Y-68500000D01*
X62179605Y-68500000D01*
X62992702Y-69313097D01*
X63236671Y-69241514D01*
X63357571Y-68986004D01*
X63426300Y-68711816D01*
X63440217Y-68429488D01*
X63398787Y-68149870D01*
X63303603Y-67883708D01*
X63236671Y-67758486D01*
X62992702Y-67686903D01*
X62179605Y-68500000D01*
X61820395Y-68500000D01*
X61806253Y-68485858D01*
X61985858Y-68306253D01*
X62000000Y-68320395D01*
X62813097Y-67507298D01*
X62741514Y-67263329D01*
X62486004Y-67142429D01*
X62211816Y-67073700D01*
X61929488Y-67059783D01*
X61649870Y-67101213D01*
X61383708Y-67196397D01*
X61258486Y-67263329D01*
X61186903Y-67507296D01*
X61145423Y-67465816D01*
X61114162Y-67362763D01*
X61032727Y-67210408D01*
X60923133Y-67076867D01*
X60789592Y-66967273D01*
X60637237Y-66885838D01*
X60471922Y-66835690D01*
X60300000Y-66818757D01*
X58700000Y-66818757D01*
X58528078Y-66835690D01*
X58362763Y-66885838D01*
X58210408Y-66967273D01*
X58076867Y-67076867D01*
X57967273Y-67210408D01*
X57885838Y-67362763D01*
X57835690Y-67528078D01*
X57818757Y-67700000D01*
X55762870Y-67700000D01*
X55728260Y-67585908D01*
X55567896Y-67285888D01*
X55352082Y-67022918D01*
X55324156Y-67000000D01*
X55352082Y-66977082D01*
X55567896Y-66714112D01*
X55728260Y-66414092D01*
X55827012Y-66088551D01*
X55860356Y-65750000D01*
X55827012Y-65411449D01*
X55728260Y-65085908D01*
X55567896Y-64785888D01*
X55352082Y-64522918D01*
X55324156Y-64500000D01*
X55352082Y-64477082D01*
X55567896Y-64214112D01*
X55728260Y-63914092D01*
X55827012Y-63588551D01*
X55860356Y-63250000D01*
X55827012Y-62911449D01*
X55728260Y-62585908D01*
X55567896Y-62285888D01*
X55483913Y-62183555D01*
X55524910Y-62149910D01*
X55665594Y-61978485D01*
X55770132Y-61782908D01*
X55834506Y-61570695D01*
X55856243Y-61350000D01*
X55856243Y-60150000D01*
X55836545Y-59950000D01*
X57818757Y-59950000D01*
X57818757Y-61550000D01*
X57835690Y-61721922D01*
X57885838Y-61887237D01*
X57967273Y-62039592D01*
X58076867Y-62173133D01*
X58210408Y-62282727D01*
X58362763Y-62364162D01*
X58528078Y-62414310D01*
X58700000Y-62431243D01*
X60300000Y-62431243D01*
X60471922Y-62414310D01*
X60637237Y-62364162D01*
X60789592Y-62282727D01*
X60923133Y-62173133D01*
X61032727Y-62039592D01*
X61114162Y-61887237D01*
X61145423Y-61784184D01*
X61186903Y-61742704D01*
X61258486Y-61986671D01*
X61513996Y-62107571D01*
X61788184Y-62176300D01*
X62070512Y-62190217D01*
X62350130Y-62148787D01*
X62616292Y-62053603D01*
X62741514Y-61986671D01*
X62813097Y-61742702D01*
X62000000Y-60929605D01*
X61985858Y-60943748D01*
X61806253Y-60764143D01*
X61820395Y-60750000D01*
X62179605Y-60750000D01*
X62992702Y-61563097D01*
X63236671Y-61491514D01*
X63357571Y-61236004D01*
X63426300Y-60961816D01*
X63440217Y-60679488D01*
X63398787Y-60399870D01*
X63303603Y-60133708D01*
X63236671Y-60008486D01*
X62992702Y-59936903D01*
X62179605Y-60750000D01*
X61820395Y-60750000D01*
X61806253Y-60735858D01*
X61985858Y-60556253D01*
X62000000Y-60570395D01*
X62813097Y-59757298D01*
X62741514Y-59513329D01*
X62486004Y-59392429D01*
X62211816Y-59323700D01*
X61929488Y-59309783D01*
X61649870Y-59351213D01*
X61383708Y-59446397D01*
X61258486Y-59513329D01*
X61186903Y-59757296D01*
X61145423Y-59715816D01*
X61114162Y-59612763D01*
X61032727Y-59460408D01*
X60923133Y-59326867D01*
X60789592Y-59217273D01*
X60637237Y-59135838D01*
X60471922Y-59085690D01*
X60300000Y-59068757D01*
X58700000Y-59068757D01*
X58528078Y-59085690D01*
X58362763Y-59135838D01*
X58210408Y-59217273D01*
X58076867Y-59326867D01*
X57967273Y-59460408D01*
X57885838Y-59612763D01*
X57835690Y-59778078D01*
X57818757Y-59950000D01*
X55836545Y-59950000D01*
X55834506Y-59929305D01*
X55770132Y-59717092D01*
X55665594Y-59521515D01*
X55524910Y-59350090D01*
X55353485Y-59209406D01*
X55157908Y-59104868D01*
X54945695Y-59040494D01*
X54725000Y-59018757D01*
X53275000Y-59018757D01*
X53054305Y-59040494D01*
X52842092Y-59104868D01*
X52646515Y-59209406D01*
X52475090Y-59350090D01*
X52334406Y-59521515D01*
X52229868Y-59717092D01*
X52165494Y-59929305D01*
X52143757Y-60150000D01*
X52143757Y-61350000D01*
X52165494Y-61570695D01*
X52229868Y-61782908D01*
X52334406Y-61978485D01*
X52475090Y-62149910D01*
X52516087Y-62183555D01*
X52432104Y-62285888D01*
X52271740Y-62585908D01*
X52172988Y-62911449D01*
X52139644Y-63250000D01*
X51127000Y-63250000D01*
X51127000Y-58127000D01*
X64123000Y-58127000D01*
X64123000Y-68947394D01*
G37*
X64123000Y-68947394D02*
X58910197Y-74160197D01*
X58894403Y-74179443D01*
X58882667Y-74201399D01*
X58875440Y-74225224D01*
X58873000Y-74250000D01*
X58873000Y-85947394D01*
X55947394Y-88873000D01*
X51127000Y-88873000D01*
X51127000Y-80149226D01*
X56198000Y-80149226D01*
X56198000Y-80400774D01*
X56247074Y-80647487D01*
X56343337Y-80879886D01*
X56483089Y-81089040D01*
X56660960Y-81266911D01*
X56870114Y-81406663D01*
X57102513Y-81502926D01*
X57349226Y-81552000D01*
X57600774Y-81552000D01*
X57847487Y-81502926D01*
X58079886Y-81406663D01*
X58289040Y-81266911D01*
X58466911Y-81089040D01*
X58606663Y-80879886D01*
X58702926Y-80647487D01*
X58752000Y-80400774D01*
X58752000Y-80149226D01*
X58702926Y-79902513D01*
X58606663Y-79670114D01*
X58466911Y-79460960D01*
X58289040Y-79283089D01*
X58079886Y-79143337D01*
X57847487Y-79047074D01*
X57600774Y-78998000D01*
X57349226Y-78998000D01*
X57102513Y-79047074D01*
X56870114Y-79143337D01*
X56660960Y-79283089D01*
X56483089Y-79460960D01*
X56343337Y-79670114D01*
X56247074Y-79902513D01*
X56198000Y-80149226D01*
X51127000Y-80149226D01*
X51127000Y-71106890D01*
X52433524Y-71106890D01*
X52525648Y-71369858D01*
X52672504Y-71621193D01*
X52865571Y-71839049D01*
X53097430Y-72015053D01*
X53359170Y-72142442D01*
X53640733Y-72216320D01*
X53873000Y-72076165D01*
X53873000Y-70877000D01*
X54127000Y-70877000D01*
X54127000Y-72076165D01*
X54359267Y-72216320D01*
X54640830Y-72142442D01*
X54902570Y-72015053D01*
X55134429Y-71839049D01*
X55327496Y-71621193D01*
X55474352Y-71369858D01*
X55566476Y-71106890D01*
X55445155Y-70877000D01*
X54127000Y-70877000D01*
X53873000Y-70877000D01*
X52554845Y-70877000D01*
X52433524Y-71106890D01*
X51127000Y-71106890D01*
X51127000Y-63250000D01*
X52139644Y-63250000D01*
X52172988Y-63588551D01*
X52271740Y-63914092D01*
X52432104Y-64214112D01*
X52647918Y-64477082D01*
X52675844Y-64500000D01*
X52647918Y-64522918D01*
X52432104Y-64785888D01*
X52271740Y-65085908D01*
X52172988Y-65411449D01*
X52139644Y-65750000D01*
X52172988Y-66088551D01*
X52271740Y-66414092D01*
X52432104Y-66714112D01*
X52647918Y-66977082D01*
X52675844Y-67000000D01*
X52647918Y-67022918D01*
X52432104Y-67285888D01*
X52271740Y-67585908D01*
X52172988Y-67911449D01*
X52139644Y-68250000D01*
X52172988Y-68588551D01*
X52271740Y-68914092D01*
X52432104Y-69214112D01*
X52647918Y-69477082D01*
X52868892Y-69658430D01*
X52865571Y-69660951D01*
X52672504Y-69878807D01*
X52525648Y-70130142D01*
X52433524Y-70393110D01*
X52554845Y-70623000D01*
X53873000Y-70623000D01*
X53873000Y-70603000D01*
X54127000Y-70603000D01*
X54127000Y-70623000D01*
X55445155Y-70623000D01*
X55566476Y-70393110D01*
X55474352Y-70130142D01*
X55327496Y-69878807D01*
X55134429Y-69660951D01*
X55131108Y-69658430D01*
X55352082Y-69477082D01*
X55567896Y-69214112D01*
X55728260Y-68914092D01*
X55827012Y-68588551D01*
X55860356Y-68250000D01*
X55827012Y-67911449D01*
X55762870Y-67700000D01*
X57818757Y-67700000D01*
X57818757Y-69300000D01*
X57835690Y-69471922D01*
X57885838Y-69637237D01*
X57967273Y-69789592D01*
X58076867Y-69923133D01*
X58210408Y-70032727D01*
X58362763Y-70114162D01*
X58528078Y-70164310D01*
X58700000Y-70181243D01*
X60300000Y-70181243D01*
X60471922Y-70164310D01*
X60637237Y-70114162D01*
X60789592Y-70032727D01*
X60923133Y-69923133D01*
X61032727Y-69789592D01*
X61114162Y-69637237D01*
X61145423Y-69534184D01*
X61186903Y-69492704D01*
X61258486Y-69736671D01*
X61513996Y-69857571D01*
X61788184Y-69926300D01*
X62070512Y-69940217D01*
X62350130Y-69898787D01*
X62616292Y-69803603D01*
X62741514Y-69736671D01*
X62813097Y-69492702D01*
X62000000Y-68679605D01*
X61985858Y-68693748D01*
X61806253Y-68514143D01*
X61820395Y-68500000D01*
X62179605Y-68500000D01*
X62992702Y-69313097D01*
X63236671Y-69241514D01*
X63357571Y-68986004D01*
X63426300Y-68711816D01*
X63440217Y-68429488D01*
X63398787Y-68149870D01*
X63303603Y-67883708D01*
X63236671Y-67758486D01*
X62992702Y-67686903D01*
X62179605Y-68500000D01*
X61820395Y-68500000D01*
X61806253Y-68485858D01*
X61985858Y-68306253D01*
X62000000Y-68320395D01*
X62813097Y-67507298D01*
X62741514Y-67263329D01*
X62486004Y-67142429D01*
X62211816Y-67073700D01*
X61929488Y-67059783D01*
X61649870Y-67101213D01*
X61383708Y-67196397D01*
X61258486Y-67263329D01*
X61186903Y-67507296D01*
X61145423Y-67465816D01*
X61114162Y-67362763D01*
X61032727Y-67210408D01*
X60923133Y-67076867D01*
X60789592Y-66967273D01*
X60637237Y-66885838D01*
X60471922Y-66835690D01*
X60300000Y-66818757D01*
X58700000Y-66818757D01*
X58528078Y-66835690D01*
X58362763Y-66885838D01*
X58210408Y-66967273D01*
X58076867Y-67076867D01*
X57967273Y-67210408D01*
X57885838Y-67362763D01*
X57835690Y-67528078D01*
X57818757Y-67700000D01*
X55762870Y-67700000D01*
X55728260Y-67585908D01*
X55567896Y-67285888D01*
X55352082Y-67022918D01*
X55324156Y-67000000D01*
X55352082Y-66977082D01*
X55567896Y-66714112D01*
X55728260Y-66414092D01*
X55827012Y-66088551D01*
X55860356Y-65750000D01*
X55827012Y-65411449D01*
X55728260Y-65085908D01*
X55567896Y-64785888D01*
X55352082Y-64522918D01*
X55324156Y-64500000D01*
X55352082Y-64477082D01*
X55567896Y-64214112D01*
X55728260Y-63914092D01*
X55827012Y-63588551D01*
X55860356Y-63250000D01*
X55827012Y-62911449D01*
X55728260Y-62585908D01*
X55567896Y-62285888D01*
X55483913Y-62183555D01*
X55524910Y-62149910D01*
X55665594Y-61978485D01*
X55770132Y-61782908D01*
X55834506Y-61570695D01*
X55856243Y-61350000D01*
X55856243Y-60150000D01*
X55836545Y-59950000D01*
X57818757Y-59950000D01*
X57818757Y-61550000D01*
X57835690Y-61721922D01*
X57885838Y-61887237D01*
X57967273Y-62039592D01*
X58076867Y-62173133D01*
X58210408Y-62282727D01*
X58362763Y-62364162D01*
X58528078Y-62414310D01*
X58700000Y-62431243D01*
X60300000Y-62431243D01*
X60471922Y-62414310D01*
X60637237Y-62364162D01*
X60789592Y-62282727D01*
X60923133Y-62173133D01*
X61032727Y-62039592D01*
X61114162Y-61887237D01*
X61145423Y-61784184D01*
X61186903Y-61742704D01*
X61258486Y-61986671D01*
X61513996Y-62107571D01*
X61788184Y-62176300D01*
X62070512Y-62190217D01*
X62350130Y-62148787D01*
X62616292Y-62053603D01*
X62741514Y-61986671D01*
X62813097Y-61742702D01*
X62000000Y-60929605D01*
X61985858Y-60943748D01*
X61806253Y-60764143D01*
X61820395Y-60750000D01*
X62179605Y-60750000D01*
X62992702Y-61563097D01*
X63236671Y-61491514D01*
X63357571Y-61236004D01*
X63426300Y-60961816D01*
X63440217Y-60679488D01*
X63398787Y-60399870D01*
X63303603Y-60133708D01*
X63236671Y-60008486D01*
X62992702Y-59936903D01*
X62179605Y-60750000D01*
X61820395Y-60750000D01*
X61806253Y-60735858D01*
X61985858Y-60556253D01*
X62000000Y-60570395D01*
X62813097Y-59757298D01*
X62741514Y-59513329D01*
X62486004Y-59392429D01*
X62211816Y-59323700D01*
X61929488Y-59309783D01*
X61649870Y-59351213D01*
X61383708Y-59446397D01*
X61258486Y-59513329D01*
X61186903Y-59757296D01*
X61145423Y-59715816D01*
X61114162Y-59612763D01*
X61032727Y-59460408D01*
X60923133Y-59326867D01*
X60789592Y-59217273D01*
X60637237Y-59135838D01*
X60471922Y-59085690D01*
X60300000Y-59068757D01*
X58700000Y-59068757D01*
X58528078Y-59085690D01*
X58362763Y-59135838D01*
X58210408Y-59217273D01*
X58076867Y-59326867D01*
X57967273Y-59460408D01*
X57885838Y-59612763D01*
X57835690Y-59778078D01*
X57818757Y-59950000D01*
X55836545Y-59950000D01*
X55834506Y-59929305D01*
X55770132Y-59717092D01*
X55665594Y-59521515D01*
X55524910Y-59350090D01*
X55353485Y-59209406D01*
X55157908Y-59104868D01*
X54945695Y-59040494D01*
X54725000Y-59018757D01*
X53275000Y-59018757D01*
X53054305Y-59040494D01*
X52842092Y-59104868D01*
X52646515Y-59209406D01*
X52475090Y-59350090D01*
X52334406Y-59521515D01*
X52229868Y-59717092D01*
X52165494Y-59929305D01*
X52143757Y-60150000D01*
X52143757Y-61350000D01*
X52165494Y-61570695D01*
X52229868Y-61782908D01*
X52334406Y-61978485D01*
X52475090Y-62149910D01*
X52516087Y-62183555D01*
X52432104Y-62285888D01*
X52271740Y-62585908D01*
X52172988Y-62911449D01*
X52139644Y-63250000D01*
X51127000Y-63250000D01*
X51127000Y-58127000D01*
X64123000Y-58127000D01*
X64123000Y-68947394D01*
%TO.N,GNDA*%
G36*
X87373000Y-57373000D02*
G01*
X78377000Y-57373000D01*
X78377000Y-56983053D01*
X78550378Y-57098901D01*
X78819175Y-57210240D01*
X79104528Y-57267000D01*
X79395472Y-57267000D01*
X79680825Y-57210240D01*
X79949622Y-57098901D01*
X80191533Y-56937261D01*
X80397261Y-56731533D01*
X80558901Y-56489622D01*
X80670240Y-56220825D01*
X80727000Y-55935472D01*
X80727000Y-55644528D01*
X80670240Y-55359175D01*
X80558901Y-55090378D01*
X80397261Y-54848467D01*
X80256525Y-54707731D01*
X80341103Y-54682075D01*
X80450028Y-54623853D01*
X80545501Y-54545501D01*
X80623853Y-54450028D01*
X80682075Y-54341103D01*
X80717927Y-54222913D01*
X80730033Y-54100000D01*
X80730033Y-52400000D01*
X80717927Y-52277087D01*
X80682075Y-52158897D01*
X80623853Y-52049972D01*
X80545501Y-51954499D01*
X80450028Y-51876147D01*
X80341103Y-51817925D01*
X80222913Y-51782073D01*
X80100000Y-51769967D01*
X78400000Y-51769967D01*
X78377000Y-51772232D01*
X78377000Y-51127000D01*
X87373000Y-51127000D01*
X87373000Y-57373000D01*
G37*
X87373000Y-57373000D02*
X78377000Y-57373000D01*
X78377000Y-56983053D01*
X78550378Y-57098901D01*
X78819175Y-57210240D01*
X79104528Y-57267000D01*
X79395472Y-57267000D01*
X79680825Y-57210240D01*
X79949622Y-57098901D01*
X80191533Y-56937261D01*
X80397261Y-56731533D01*
X80558901Y-56489622D01*
X80670240Y-56220825D01*
X80727000Y-55935472D01*
X80727000Y-55644528D01*
X80670240Y-55359175D01*
X80558901Y-55090378D01*
X80397261Y-54848467D01*
X80256525Y-54707731D01*
X80341103Y-54682075D01*
X80450028Y-54623853D01*
X80545501Y-54545501D01*
X80623853Y-54450028D01*
X80682075Y-54341103D01*
X80717927Y-54222913D01*
X80730033Y-54100000D01*
X80730033Y-52400000D01*
X80717927Y-52277087D01*
X80682075Y-52158897D01*
X80623853Y-52049972D01*
X80545501Y-51954499D01*
X80450028Y-51876147D01*
X80341103Y-51817925D01*
X80222913Y-51782073D01*
X80100000Y-51769967D01*
X78400000Y-51769967D01*
X78377000Y-51772232D01*
X78377000Y-51127000D01*
X87373000Y-51127000D01*
X87373000Y-57373000D01*
%TD*%
M02*
