%TF.GenerationSoftware,KiCad,Pcbnew,(5.1.6)-1*%
%TF.CreationDate,2021-10-10T19:01:51-07:00*%
%TF.ProjectId,PV Panel Monitor,50562050-616e-4656-9c20-4d6f6e69746f,rev?*%
%TF.SameCoordinates,Original*%
%TF.FileFunction,Soldermask,Bot*%
%TF.FilePolarity,Negative*%
%FSLAX46Y46*%
G04 Gerber Fmt 4.6, Leading zero omitted, Abs format (unit mm)*
G04 Created by KiCad (PCBNEW (5.1.6)-1) date 2021-10-10 19:01:51*
%MOMM*%
%LPD*%
G01*
G04 APERTURE LIST*
%ADD10O,1.800000X1.800000*%
%ADD11R,1.800000X1.800000*%
%ADD12O,2.050000X1.800000*%
%ADD13C,1.700000*%
%ADD14R,1.700000X1.700000*%
%ADD15C,6.100000*%
%ADD16C,0.900000*%
G04 APERTURE END LIST*
D10*
%TO.C,TP4*%
X62250000Y-97250000D03*
D11*
X59710000Y-97250000D03*
%TD*%
D10*
%TO.C,TP3*%
X76250000Y-55790000D03*
D11*
X76250000Y-53250000D03*
%TD*%
D10*
%TO.C,TP2*%
X79250000Y-55790000D03*
D11*
X79250000Y-53250000D03*
%TD*%
D10*
%TO.C,TP1*%
X73250000Y-55790000D03*
D11*
X73250000Y-53250000D03*
%TD*%
D12*
%TO.C,J1*%
X54000000Y-70750000D03*
X54000000Y-68250000D03*
X54000000Y-65750000D03*
X54000000Y-63250000D03*
G36*
G01*
X53239706Y-59850000D02*
X54760294Y-59850000D01*
G75*
G02*
X55025000Y-60114706I0J-264706D01*
G01*
X55025000Y-61385294D01*
G75*
G02*
X54760294Y-61650000I-264706J0D01*
G01*
X53239706Y-61650000D01*
G75*
G02*
X52975000Y-61385294I0J264706D01*
G01*
X52975000Y-60114706D01*
G75*
G02*
X53239706Y-59850000I264706J0D01*
G01*
G37*
%TD*%
D13*
%TO.C,C22*%
X62000000Y-68500000D03*
D14*
X59500000Y-68500000D03*
%TD*%
D13*
%TO.C,C15*%
X62000000Y-60750000D03*
D14*
X59500000Y-60750000D03*
%TD*%
D15*
%TO.C,H4*%
X54000000Y-96000000D03*
D16*
X56250000Y-96000000D03*
X55590990Y-97590990D03*
X54000000Y-98250000D03*
X52409010Y-97590990D03*
X51750000Y-96000000D03*
X52409010Y-94409010D03*
X54000000Y-93750000D03*
X55590990Y-94409010D03*
%TD*%
D15*
%TO.C,H3*%
X96000000Y-54000000D03*
D16*
X98250000Y-54000000D03*
X97590990Y-55590990D03*
X96000000Y-56250000D03*
X94409010Y-55590990D03*
X93750000Y-54000000D03*
X94409010Y-52409010D03*
X96000000Y-51750000D03*
X97590990Y-52409010D03*
%TD*%
D15*
%TO.C,H2*%
X54000000Y-54000000D03*
D16*
X56250000Y-54000000D03*
X55590990Y-55590990D03*
X54000000Y-56250000D03*
X52409010Y-55590990D03*
X51750000Y-54000000D03*
X52409010Y-52409010D03*
X54000000Y-51750000D03*
X55590990Y-52409010D03*
%TD*%
D15*
%TO.C,H1*%
X96000000Y-96000000D03*
D16*
X98250000Y-96000000D03*
X97590990Y-97590990D03*
X96000000Y-98250000D03*
X94409010Y-97590990D03*
X93750000Y-96000000D03*
X94409010Y-94409010D03*
X96000000Y-93750000D03*
X97590990Y-94409010D03*
%TD*%
%TO.C,Gnd1*%
X85340990Y-52409010D03*
X83750000Y-51750000D03*
X82159010Y-52409010D03*
X81500000Y-54000000D03*
X82159010Y-55590990D03*
X83750000Y-56250000D03*
X85340990Y-55590990D03*
X86000000Y-54000000D03*
D15*
X83750000Y-54000000D03*
%TD*%
D13*
%TO.C,C6*%
X62000000Y-92250000D03*
D14*
X59500000Y-92250000D03*
%TD*%
D13*
%TO.C,C5*%
X69500000Y-54000000D03*
D14*
X67000000Y-54000000D03*
%TD*%
D16*
%TO.C,S4_Lo1*%
X85590990Y-85409010D03*
X84000000Y-84750000D03*
X82409010Y-85409010D03*
X81750000Y-87000000D03*
X82409010Y-88590990D03*
X84000000Y-89250000D03*
X85590990Y-88590990D03*
X86250000Y-87000000D03*
D15*
X84000000Y-87000000D03*
%TD*%
D16*
%TO.C,S4_Hi1*%
X97590990Y-85409010D03*
X96000000Y-84750000D03*
X94409010Y-85409010D03*
X93750000Y-87000000D03*
X94409010Y-88590990D03*
X96000000Y-89250000D03*
X97590990Y-88590990D03*
X98250000Y-87000000D03*
D15*
X96000000Y-87000000D03*
%TD*%
D16*
%TO.C,S3_Lo1*%
X85590990Y-77409010D03*
X84000000Y-76750000D03*
X82409010Y-77409010D03*
X81750000Y-79000000D03*
X82409010Y-80590990D03*
X84000000Y-81250000D03*
X85590990Y-80590990D03*
X86250000Y-79000000D03*
D15*
X84000000Y-79000000D03*
%TD*%
D16*
%TO.C,S3_Hi1*%
X97590990Y-77409010D03*
X96000000Y-76750000D03*
X94409010Y-77409010D03*
X93750000Y-79000000D03*
X94409010Y-80590990D03*
X96000000Y-81250000D03*
X97590990Y-80590990D03*
X98250000Y-79000000D03*
D15*
X96000000Y-79000000D03*
%TD*%
D16*
%TO.C,S2_Lo1*%
X85590990Y-69409010D03*
X84000000Y-68750000D03*
X82409010Y-69409010D03*
X81750000Y-71000000D03*
X82409010Y-72590990D03*
X84000000Y-73250000D03*
X85590990Y-72590990D03*
X86250000Y-71000000D03*
D15*
X84000000Y-71000000D03*
%TD*%
D16*
%TO.C,S2_Hi1*%
X97590990Y-69409010D03*
X96000000Y-68750000D03*
X94409010Y-69409010D03*
X93750000Y-71000000D03*
X94409010Y-72590990D03*
X96000000Y-73250000D03*
X97590990Y-72590990D03*
X98250000Y-71000000D03*
D15*
X96000000Y-71000000D03*
%TD*%
D16*
%TO.C,S1_Lo1*%
X85590990Y-61409010D03*
X84000000Y-60750000D03*
X82409010Y-61409010D03*
X81750000Y-63000000D03*
X82409010Y-64590990D03*
X84000000Y-65250000D03*
X85590990Y-64590990D03*
X86250000Y-63000000D03*
D15*
X84000000Y-63000000D03*
%TD*%
D16*
%TO.C,S1_Hi1*%
X97590990Y-61409010D03*
X96000000Y-60750000D03*
X94409010Y-61409010D03*
X93750000Y-63000000D03*
X94409010Y-64590990D03*
X96000000Y-65250000D03*
X97590990Y-64590990D03*
X98250000Y-63000000D03*
D15*
X96000000Y-63000000D03*
%TD*%
M02*
