%TF.GenerationSoftware,KiCad,Pcbnew,7.0.8*%
%TF.CreationDate,2024-01-22T00:16:33-08:00*%
%TF.ProjectId,PWMGen R1,50574d47-656e-4205-9231-2e6b69636164,rev?*%
%TF.SameCoordinates,Original*%
%TF.FileFunction,Legend,Bot*%
%TF.FilePolarity,Positive*%
%FSLAX46Y46*%
G04 Gerber Fmt 4.6, Leading zero omitted, Abs format (unit mm)*
G04 Created by KiCad (PCBNEW 7.0.8) date 2024-01-22 00:16:33*
%MOMM*%
%LPD*%
G01*
G04 APERTURE LIST*
G04 Aperture macros list*
%AMRoundRect*
0 Rectangle with rounded corners*
0 $1 Rounding radius*
0 $2 $3 $4 $5 $6 $7 $8 $9 X,Y pos of 4 corners*
0 Add a 4 corners polygon primitive as box body*
4,1,4,$2,$3,$4,$5,$6,$7,$8,$9,$2,$3,0*
0 Add four circle primitives for the rounded corners*
1,1,$1+$1,$2,$3*
1,1,$1+$1,$4,$5*
1,1,$1+$1,$6,$7*
1,1,$1+$1,$8,$9*
0 Add four rect primitives between the rounded corners*
20,1,$1+$1,$2,$3,$4,$5,0*
20,1,$1+$1,$4,$5,$6,$7,0*
20,1,$1+$1,$6,$7,$8,$9,0*
20,1,$1+$1,$8,$9,$2,$3,0*%
G04 Aperture macros list end*
%ADD10C,0.254000*%
%ADD11R,1.700000X1.700000*%
%ADD12O,1.700000X1.700000*%
%ADD13R,2.100000X2.100000*%
%ADD14C,2.100000*%
%ADD15C,0.800000*%
%ADD16C,6.400000*%
%ADD17RoundRect,0.250001X1.399999X-1.099999X1.399999X1.099999X-1.399999X1.099999X-1.399999X-1.099999X0*%
%ADD18O,3.300000X2.700000*%
%ADD19C,1.200000*%
%ADD20RoundRect,0.250000X-0.725000X0.600000X-0.725000X-0.600000X0.725000X-0.600000X0.725000X0.600000X0*%
%ADD21O,1.950000X1.700000*%
G04 APERTURE END LIST*
D10*
X-113174619Y180449560D02*
X-112096989Y181527191D01*
X-112096989Y181527191D02*
X-112507515Y181937717D01*
X-112507515Y181937717D02*
X-112661462Y181989033D01*
X-112661462Y181989033D02*
X-112764093Y181989033D01*
X-112764093Y181989033D02*
X-112918041Y181937717D01*
X-112918041Y181937717D02*
X-113071988Y181783770D01*
X-113071988Y181783770D02*
X-113123304Y181629823D01*
X-113123304Y181629823D02*
X-113123304Y181527191D01*
X-113123304Y181527191D02*
X-113071988Y181373244D01*
X-113071988Y181373244D02*
X-112661462Y180962718D01*
X-113071988Y182502190D02*
X-114406197Y181681138D01*
X-114406197Y181681138D02*
X-113841724Y182656137D01*
X-113841724Y182656137D02*
X-114816723Y182091664D01*
X-114816723Y182091664D02*
X-113995671Y183425874D01*
X-115483828Y182758769D02*
X-114406197Y183836400D01*
X-114406197Y183836400D02*
X-115535144Y183425874D01*
X-115535144Y183425874D02*
X-115124618Y184554820D01*
X-115124618Y184554820D02*
X-116202248Y183477189D01*
X-118152247Y185427188D02*
X-117279879Y185581135D01*
X-117536458Y184811399D02*
X-116458827Y185889029D01*
X-116458827Y185889029D02*
X-116869353Y186299555D01*
X-116869353Y186299555D02*
X-117023300Y186350871D01*
X-117023300Y186350871D02*
X-117125932Y186350871D01*
X-117125932Y186350871D02*
X-117279879Y186299555D01*
X-117279879Y186299555D02*
X-117433826Y186145608D01*
X-117433826Y186145608D02*
X-117485142Y185991661D01*
X-117485142Y185991661D02*
X-117485142Y185889029D01*
X-117485142Y185889029D02*
X-117433826Y185735082D01*
X-117433826Y185735082D02*
X-117023300Y185324556D01*
X-118973299Y186350871D02*
X-118921983Y186196924D01*
X-118921983Y186196924D02*
X-118716720Y185991661D01*
X-118716720Y185991661D02*
X-118562773Y185940345D01*
X-118562773Y185940345D02*
X-118408826Y185991661D01*
X-118408826Y185991661D02*
X-117998300Y186402187D01*
X-117998300Y186402187D02*
X-117946984Y186556134D01*
X-117946984Y186556134D02*
X-117998300Y186710081D01*
X-117998300Y186710081D02*
X-118203563Y186915344D01*
X-118203563Y186915344D02*
X-118357510Y186966660D01*
X-118357510Y186966660D02*
X-118511457Y186915344D01*
X-118511457Y186915344D02*
X-118614089Y186812713D01*
X-118614089Y186812713D02*
X-118203563Y186196924D01*
X-119537772Y186812713D02*
X-118819352Y187531134D01*
X-118921983Y187428502D02*
X-118921983Y187531134D01*
X-118921983Y187531134D02*
X-118973299Y187685081D01*
X-118973299Y187685081D02*
X-119127246Y187839028D01*
X-119127246Y187839028D02*
X-119281193Y187890344D01*
X-119281193Y187890344D02*
X-119435141Y187839028D01*
X-119435141Y187839028D02*
X-119999614Y187274555D01*
X-119435141Y187839028D02*
X-119383825Y187992975D01*
X-119383825Y187992975D02*
X-119435141Y188146923D01*
X-119435141Y188146923D02*
X-119589088Y188300870D01*
X-119589088Y188300870D02*
X-119743035Y188352186D01*
X-119743035Y188352186D02*
X-119896982Y188300870D01*
X-119896982Y188300870D02*
X-120461456Y187736397D01*
X-121436455Y188711396D02*
X-120871982Y189275869D01*
X-120871982Y189275869D02*
X-120718034Y189327185D01*
X-120718034Y189327185D02*
X-120564087Y189275869D01*
X-120564087Y189275869D02*
X-120358824Y189070606D01*
X-120358824Y189070606D02*
X-120307508Y188916659D01*
X-121385139Y188762712D02*
X-121333823Y188608764D01*
X-121333823Y188608764D02*
X-121077245Y188352186D01*
X-121077245Y188352186D02*
X-120923297Y188300870D01*
X-120923297Y188300870D02*
X-120769350Y188352186D01*
X-120769350Y188352186D02*
X-120666719Y188454817D01*
X-120666719Y188454817D02*
X-120615403Y188608764D01*
X-120615403Y188608764D02*
X-120666719Y188762712D01*
X-120666719Y188762712D02*
X-120923297Y189019290D01*
X-120923297Y189019290D02*
X-120974613Y189173238D01*
X-121231192Y189942974D02*
X-122308823Y188865343D01*
X-121282508Y189891658D02*
X-121333823Y190045605D01*
X-121333823Y190045605D02*
X-121539086Y190250868D01*
X-121539086Y190250868D02*
X-121693034Y190302184D01*
X-121693034Y190302184D02*
X-121795665Y190302184D01*
X-121795665Y190302184D02*
X-121949612Y190250868D01*
X-121949612Y190250868D02*
X-122257507Y189942974D01*
X-122257507Y189942974D02*
X-122308823Y189789026D01*
X-122308823Y189789026D02*
X-122308823Y189686395D01*
X-122308823Y189686395D02*
X-122257507Y189532448D01*
X-122257507Y189532448D02*
X-122052244Y189327185D01*
X-122052244Y189327185D02*
X-121898297Y189275869D01*
X-122206191Y190917973D02*
X-123283822Y189840342D01*
X-122257507Y190866657D02*
X-122308822Y191020604D01*
X-122308822Y191020604D02*
X-122514085Y191225867D01*
X-122514085Y191225867D02*
X-122668033Y191277183D01*
X-122668033Y191277183D02*
X-122770664Y191277183D01*
X-122770664Y191277183D02*
X-122924611Y191225867D01*
X-122924611Y191225867D02*
X-123232506Y190917973D01*
X-123232506Y190917973D02*
X-123283822Y190764026D01*
X-123283822Y190764026D02*
X-123283822Y190661394D01*
X-123283822Y190661394D02*
X-123232506Y190507447D01*
X-123232506Y190507447D02*
X-123027243Y190302184D01*
X-123027243Y190302184D02*
X-122873296Y190250868D01*
X-124258821Y191636393D02*
X-124207505Y191482446D01*
X-124207505Y191482446D02*
X-124002242Y191277183D01*
X-124002242Y191277183D02*
X-123848295Y191225867D01*
X-123848295Y191225867D02*
X-123694348Y191277183D01*
X-123694348Y191277183D02*
X-123283822Y191687709D01*
X-123283822Y191687709D02*
X-123232506Y191841656D01*
X-123232506Y191841656D02*
X-123283822Y191995603D01*
X-123283822Y191995603D02*
X-123489085Y192200866D01*
X-123489085Y192200866D02*
X-123643032Y192252182D01*
X-123643032Y192252182D02*
X-123796979Y192200866D01*
X-123796979Y192200866D02*
X-123899611Y192098235D01*
X-123899611Y192098235D02*
X-123489085Y191482446D01*
X-124823294Y192098235D02*
X-124104874Y192816656D01*
X-124310137Y192611393D02*
X-124258821Y192765340D01*
X-124258821Y192765340D02*
X-124258821Y192867971D01*
X-124258821Y192867971D02*
X-124310137Y193021919D01*
X-124310137Y193021919D02*
X-124412768Y193124550D01*
X-113663408Y178271349D02*
X-112791041Y178425297D01*
X-113047619Y177655560D02*
X-111969989Y178733191D01*
X-111969989Y178733191D02*
X-112380515Y179143717D01*
X-112380515Y179143717D02*
X-112534462Y179195033D01*
X-112534462Y179195033D02*
X-112637093Y179195033D01*
X-112637093Y179195033D02*
X-112791041Y179143717D01*
X-112791041Y179143717D02*
X-112944988Y178989770D01*
X-112944988Y178989770D02*
X-112996304Y178835823D01*
X-112996304Y178835823D02*
X-112996304Y178733191D01*
X-112996304Y178733191D02*
X-112944988Y178579244D01*
X-112944988Y178579244D02*
X-112534462Y178168718D01*
X-113098935Y179656874D02*
X-113098935Y179759506D01*
X-113098935Y179759506D02*
X-113150251Y179913453D01*
X-113150251Y179913453D02*
X-113406830Y180170032D01*
X-113406830Y180170032D02*
X-113560777Y180221348D01*
X-113560777Y180221348D02*
X-113663408Y180221348D01*
X-113663408Y180221348D02*
X-113817356Y180170032D01*
X-113817356Y180170032D02*
X-113919987Y180067400D01*
X-113919987Y180067400D02*
X-114022619Y179862137D01*
X-114022619Y179862137D02*
X-114022619Y178630560D01*
X-114022619Y178630560D02*
X-114689723Y179297664D01*
X-115151565Y179862138D02*
X-115202881Y179810822D01*
X-115202881Y179810822D02*
X-115254197Y179656875D01*
X-115254197Y179656875D02*
X-115254197Y179554243D01*
X-116998932Y181812136D02*
X-116998932Y181709505D01*
X-116998932Y181709505D02*
X-116896301Y181504242D01*
X-116896301Y181504242D02*
X-116793669Y181401610D01*
X-116793669Y181401610D02*
X-116588406Y181298979D01*
X-116588406Y181298979D02*
X-116383143Y181298979D01*
X-116383143Y181298979D02*
X-116229196Y181350294D01*
X-116229196Y181350294D02*
X-115972617Y181504242D01*
X-115972617Y181504242D02*
X-115818670Y181658189D01*
X-115818670Y181658189D02*
X-115664723Y181914768D01*
X-115664723Y181914768D02*
X-115613407Y182068715D01*
X-115613407Y182068715D02*
X-115613407Y182273978D01*
X-115613407Y182273978D02*
X-115716039Y182479241D01*
X-115716039Y182479241D02*
X-115818670Y182581872D01*
X-115818670Y182581872D02*
X-116023933Y182684504D01*
X-116023933Y182684504D02*
X-116126565Y182684504D01*
X-117460774Y182273978D02*
X-117563406Y182273978D01*
X-117563406Y182273978D02*
X-117563406Y182171346D01*
X-117563406Y182171346D02*
X-117460774Y182171346D01*
X-117460774Y182171346D02*
X-117460774Y182273978D01*
X-117460774Y182273978D02*
X-117563406Y182171346D01*
X-117717353Y184480555D02*
X-119051562Y183659503D01*
X-119051562Y183659503D02*
X-118487089Y184634502D01*
X-118487089Y184634502D02*
X-119462088Y184070029D01*
X-119462088Y184070029D02*
X-118641036Y185404239D01*
X-120283140Y184891081D02*
X-120129193Y184839765D01*
X-120129193Y184839765D02*
X-120026561Y184839765D01*
X-120026561Y184839765D02*
X-119872614Y184891081D01*
X-119872614Y184891081D02*
X-119564719Y185198975D01*
X-119564719Y185198975D02*
X-119513404Y185352923D01*
X-119513404Y185352923D02*
X-119513404Y185455554D01*
X-119513404Y185455554D02*
X-119564719Y185609501D01*
X-119564719Y185609501D02*
X-119718667Y185763449D01*
X-119718667Y185763449D02*
X-119872614Y185814764D01*
X-119872614Y185814764D02*
X-119975245Y185814764D01*
X-119975245Y185814764D02*
X-120129193Y185763449D01*
X-120129193Y185763449D02*
X-120437087Y185455554D01*
X-120437087Y185455554D02*
X-120488403Y185301607D01*
X-120488403Y185301607D02*
X-120488403Y185198975D01*
X-120488403Y185198975D02*
X-120437087Y185045028D01*
X-120437087Y185045028D02*
X-120283140Y184891081D01*
X-121258139Y185866080D02*
X-121104192Y185814764D01*
X-121104192Y185814764D02*
X-120950245Y185866080D01*
X-120950245Y185866080D02*
X-120026561Y186789763D01*
X-120796298Y186841079D02*
X-121206824Y187251605D01*
X-121668665Y186276606D02*
X-120744982Y187200290D01*
X-120744982Y187200290D02*
X-120693666Y187354237D01*
X-120693666Y187354237D02*
X-120744982Y187508184D01*
X-120744982Y187508184D02*
X-120847613Y187610816D01*
%LPC*%
D11*
%TO.C,P6*%
X-133801100Y157578600D03*
D12*
X-133801100Y155038600D03*
X-133801100Y152498600D03*
%TD*%
D13*
%TO.C,J1*%
X-132801100Y128053600D03*
D14*
X-130261100Y128053600D03*
X-127721100Y128053600D03*
X-125181100Y128053600D03*
%TD*%
D15*
%TO.C,H1*%
X-134201100Y136053600D03*
X-133498156Y137750656D03*
X-133498156Y134356544D03*
X-131801100Y138453600D03*
D16*
X-131801100Y136053600D03*
D15*
X-131801100Y133653600D03*
X-130104044Y137750656D03*
X-130104044Y134356544D03*
X-129401100Y136053600D03*
%TD*%
%TO.C,H2*%
X-104201100Y156053600D03*
X-103498156Y157750656D03*
X-103498156Y154356544D03*
X-101801100Y158453600D03*
D16*
X-101801100Y156053600D03*
D15*
X-101801100Y153653600D03*
X-100104044Y157750656D03*
X-100104044Y154356544D03*
X-99401100Y156053600D03*
%TD*%
D17*
%TO.C,J2*%
X-107051100Y127853600D03*
D18*
X-107051100Y132053600D03*
X-107051100Y136253600D03*
X-101551100Y127853600D03*
X-101551100Y132053600D03*
X-101551100Y136253600D03*
%TD*%
D13*
%TO.C,J3*%
X-120561100Y128053600D03*
D14*
X-118021100Y128053600D03*
X-115481100Y128053600D03*
X-112941100Y128053600D03*
%TD*%
D13*
%TO.C,J5*%
X-120561100Y163423600D03*
D14*
X-118021100Y163423600D03*
X-115481100Y163423600D03*
X-112941100Y163423600D03*
%TD*%
D13*
%TO.C,J6*%
X-107861100Y163423600D03*
D14*
X-105321100Y163423600D03*
X-102781100Y163423600D03*
X-100241100Y163423600D03*
%TD*%
D19*
%TO.C,P1*%
X-133801100Y149153600D03*
D20*
X-131801100Y147553600D03*
D21*
X-131801100Y145053600D03*
X-131801100Y142553600D03*
%TD*%
D13*
%TO.C,J4*%
X-133261100Y163423600D03*
D14*
X-130721100Y163423600D03*
X-128181100Y163423600D03*
X-125641100Y163423600D03*
%TD*%
%LPD*%
M02*
