%TF.GenerationSoftware,KiCad,Pcbnew,7.0.8*%
%TF.CreationDate,2024-01-22T00:16:33-08:00*%
%TF.ProjectId,PWMGen R1,50574d47-656e-4205-9231-2e6b69636164,rev?*%
%TF.SameCoordinates,Original*%
%TF.FileFunction,Legend,Top*%
%TF.FilePolarity,Positive*%
%FSLAX46Y46*%
G04 Gerber Fmt 4.6, Leading zero omitted, Abs format (unit mm)*
G04 Created by KiCad (PCBNEW 7.0.8) date 2024-01-22 00:16:33*
%MOMM*%
%LPD*%
G01*
G04 APERTURE LIST*
G04 Aperture macros list*
%AMRoundRect*
0 Rectangle with rounded corners*
0 $1 Rounding radius*
0 $2 $3 $4 $5 $6 $7 $8 $9 X,Y pos of 4 corners*
0 Add a 4 corners polygon primitive as box body*
4,1,4,$2,$3,$4,$5,$6,$7,$8,$9,$2,$3,0*
0 Add four circle primitives for the rounded corners*
1,1,$1+$1,$2,$3*
1,1,$1+$1,$4,$5*
1,1,$1+$1,$6,$7*
1,1,$1+$1,$8,$9*
0 Add four rect primitives between the rounded corners*
20,1,$1+$1,$2,$3,$4,$5,0*
20,1,$1+$1,$4,$5,$6,$7,0*
20,1,$1+$1,$6,$7,$8,$9,0*
20,1,$1+$1,$8,$9,$2,$3,0*%
G04 Aperture macros list end*
%ADD10C,0.254000*%
%ADD11C,0.120000*%
%ADD12RoundRect,0.150000X0.825000X0.150000X-0.825000X0.150000X-0.825000X-0.150000X0.825000X-0.150000X0*%
%ADD13RoundRect,0.218750X-0.218750X-0.256250X0.218750X-0.256250X0.218750X0.256250X-0.218750X0.256250X0*%
%ADD14R,1.700000X1.700000*%
%ADD15O,1.700000X1.700000*%
%ADD16RoundRect,0.200000X0.200000X0.275000X-0.200000X0.275000X-0.200000X-0.275000X0.200000X-0.275000X0*%
%ADD17R,0.600000X0.450000*%
%ADD18RoundRect,0.200000X-0.275000X0.200000X-0.275000X-0.200000X0.275000X-0.200000X0.275000X0.200000X0*%
%ADD19R,0.450000X0.600000*%
%ADD20RoundRect,0.250000X0.325000X0.650000X-0.325000X0.650000X-0.325000X-0.650000X0.325000X-0.650000X0*%
%ADD21R,2.100000X2.100000*%
%ADD22C,2.100000*%
%ADD23C,0.800000*%
%ADD24C,6.400000*%
%ADD25RoundRect,0.225000X0.225000X0.250000X-0.225000X0.250000X-0.225000X-0.250000X0.225000X-0.250000X0*%
%ADD26RoundRect,0.250001X1.399999X-1.099999X1.399999X1.099999X-1.399999X1.099999X-1.399999X-1.099999X0*%
%ADD27O,3.300000X2.700000*%
%ADD28RoundRect,0.250000X0.412500X0.925000X-0.412500X0.925000X-0.412500X-0.925000X0.412500X-0.925000X0*%
%ADD29RoundRect,0.200000X0.275000X-0.200000X0.275000X0.200000X-0.275000X0.200000X-0.275000X-0.200000X0*%
%ADD30RoundRect,0.150000X0.512500X0.150000X-0.512500X0.150000X-0.512500X-0.150000X0.512500X-0.150000X0*%
%ADD31C,1.200000*%
%ADD32RoundRect,0.250000X-0.725000X0.600000X-0.725000X-0.600000X0.725000X-0.600000X0.725000X0.600000X0*%
%ADD33O,1.950000X1.700000*%
%ADD34RoundRect,0.250000X-0.650000X0.325000X-0.650000X-0.325000X0.650000X-0.325000X0.650000X0.325000X0*%
%ADD35RoundRect,0.050000X-0.375000X-0.050000X0.375000X-0.050000X0.375000X0.050000X-0.375000X0.050000X0*%
%ADD36RoundRect,0.050000X-0.050000X-0.375000X0.050000X-0.375000X0.050000X0.375000X-0.050000X0.375000X0*%
%ADD37R,1.650000X1.650000*%
G04 APERTURE END LIST*
D10*
X-134801100Y124053600D02*
X-98801100Y124053600D01*
X-97801100Y166553600D02*
X-98801100Y167553600D01*
X-97801100Y125053600D02*
X-98801100Y124053600D01*
X-134801100Y167553600D02*
X-98801100Y167553600D01*
X-135801100Y166553600D02*
X-134801100Y167553600D01*
X-97801100Y166553600D02*
X-97801100Y125053600D01*
X-134801100Y124053600D02*
X-135801100Y125053600D01*
X-135801100Y166553600D02*
X-135801100Y125053600D01*
D11*
%TO.C,U3*%
X-124801100Y140993600D02*
X-121351100Y140993600D01*
X-124801100Y140993600D02*
X-126751100Y140993600D01*
X-124801100Y146113600D02*
X-122851100Y146113600D01*
X-124801100Y146113600D02*
X-126751100Y146113600D01*
%TO.C,D5*%
X-105498600Y147288600D02*
X-105498600Y145818600D01*
X-105498600Y145818600D02*
X-103213600Y145818600D01*
X-103213600Y147288600D02*
X-105498600Y147288600D01*
%TO.C,P6*%
X-135131100Y158908600D02*
X-133801100Y158908600D01*
X-135131100Y157578600D02*
X-135131100Y158908600D01*
X-135131100Y156308600D02*
X-135131100Y151168600D01*
X-135131100Y156308600D02*
X-132471100Y156308600D01*
X-135131100Y151168600D02*
X-132471100Y151168600D01*
X-132471100Y156308600D02*
X-132471100Y151168600D01*
%TO.C,R16*%
X-107563842Y156031100D02*
X-108038358Y156031100D01*
X-107563842Y157076100D02*
X-108038358Y157076100D01*
%TO.C,D15*%
X-106301100Y157703600D02*
X-106301100Y159403600D01*
X-106301100Y157703600D02*
X-108851100Y157703600D01*
X-106301100Y159403600D02*
X-108851100Y159403600D01*
%TO.C,R17*%
X-128778600Y158290858D02*
X-128778600Y157816342D01*
X-129823600Y158290858D02*
X-129823600Y157816342D01*
%TO.C,R1*%
X-124778600Y158290858D02*
X-124778600Y157816342D01*
X-125823600Y158290858D02*
X-125823600Y157816342D01*
%TO.C,D1*%
X-127651100Y132053600D02*
X-125951100Y132053600D01*
X-127651100Y132053600D02*
X-127651100Y134603600D01*
X-125951100Y132053600D02*
X-125951100Y134603600D01*
%TO.C,C11*%
X-128089848Y151143600D02*
X-129512352Y151143600D01*
X-128089848Y152963600D02*
X-129512352Y152963600D01*
%TO.C,J1*%
X-134661100Y125083600D02*
X-134661100Y124443600D01*
X-134661100Y124443600D02*
X-134261100Y124443600D01*
X-134421100Y131423600D02*
X-134421100Y124683600D01*
X-134421100Y131423600D02*
X-123560100Y131423600D01*
X-134421100Y130303600D02*
X-123560100Y130303600D01*
X-134421100Y125203600D02*
X-123560100Y125203600D01*
X-134421100Y124683600D02*
X-123560100Y124683600D01*
X-123560100Y131423600D02*
X-123560100Y124683600D01*
%TO.C,D4*%
X-114451100Y159553600D02*
X-116151100Y159553600D01*
X-114451100Y159553600D02*
X-114451100Y157003600D01*
X-116151100Y159553600D02*
X-116151100Y157003600D01*
%TO.C,C8*%
X-120910520Y148293600D02*
X-121191680Y148293600D01*
X-120910520Y149313600D02*
X-121191680Y149313600D01*
%TO.C,D6*%
X-105498600Y149193600D02*
X-105498600Y147723600D01*
X-105498600Y147723600D02*
X-103213600Y147723600D01*
X-103213600Y149193600D02*
X-105498600Y149193600D01*
%TO.C,J2*%
X-109651100Y124803600D02*
X-106801100Y124803600D01*
X-109411100Y125043600D02*
X-99591100Y125043600D01*
X-99591100Y125043600D02*
X-99591100Y130243600D01*
X-109651100Y127653600D02*
X-109651100Y124803600D01*
X-99591100Y130243600D02*
X-98191100Y130243600D01*
X-98191100Y130243600D02*
X-98191100Y132053600D01*
X-109411100Y132053600D02*
X-109411100Y125043600D01*
X-109411100Y132053600D02*
X-109411100Y139063600D01*
X-99591100Y133863600D02*
X-98191100Y133863600D01*
X-98191100Y133863600D02*
X-98191100Y132053600D01*
X-109411100Y139063600D02*
X-99591100Y139063600D01*
X-99591100Y139063600D02*
X-99591100Y133863600D01*
%TO.C,J3*%
X-122421100Y125083600D02*
X-122421100Y124443600D01*
X-122421100Y124443600D02*
X-122021100Y124443600D01*
X-122181100Y131423600D02*
X-122181100Y124683600D01*
X-122181100Y131423600D02*
X-111320100Y131423600D01*
X-122181100Y130303600D02*
X-111320100Y130303600D01*
X-122181100Y125203600D02*
X-111320100Y125203600D01*
X-122181100Y124683600D02*
X-111320100Y124683600D01*
X-111320100Y131423600D02*
X-111320100Y124683600D01*
%TO.C,C13*%
X-107341100Y141043600D02*
X-107341100Y144063600D01*
X-107341100Y144063600D02*
X-111551100Y144063600D01*
X-111551100Y141043600D02*
X-107341100Y141043600D01*
%TO.C,R5*%
X-110278600Y158290858D02*
X-110278600Y157816342D01*
X-111323600Y158290858D02*
X-111323600Y157816342D01*
%TO.C,R7*%
X-115823600Y136816342D02*
X-115823600Y137290858D01*
X-114778600Y136816342D02*
X-114778600Y137290858D01*
%TO.C,D3*%
X-126451100Y159553600D02*
X-128151100Y159553600D01*
X-126451100Y159553600D02*
X-126451100Y157003600D01*
X-128151100Y159553600D02*
X-128151100Y157003600D01*
%TO.C,D7*%
X-105498600Y151098600D02*
X-105498600Y149628600D01*
X-105498600Y149628600D02*
X-103213600Y149628600D01*
X-103213600Y151098600D02*
X-105498600Y151098600D01*
%TO.C,J5*%
X-122421100Y160453600D02*
X-122421100Y159813600D01*
X-122421100Y159813600D02*
X-122021100Y159813600D01*
X-122181100Y166793600D02*
X-122181100Y160053600D01*
X-122181100Y166793600D02*
X-111320100Y166793600D01*
X-122181100Y165673600D02*
X-111320100Y165673600D01*
X-122181100Y160573600D02*
X-111320100Y160573600D01*
X-122181100Y160053600D02*
X-111320100Y160053600D01*
X-111320100Y166793600D02*
X-111320100Y160053600D01*
%TO.C,R9*%
X-125323600Y133316342D02*
X-125323600Y133790858D01*
X-124278600Y133316342D02*
X-124278600Y133790858D01*
%TO.C,U2*%
X-104801100Y140993600D02*
X-103001100Y140993600D01*
X-104801100Y140993600D02*
X-105601100Y140993600D01*
X-104801100Y144113600D02*
X-104001100Y144113600D01*
X-104801100Y144113600D02*
X-105601100Y144113600D01*
%TO.C,J6*%
X-109721100Y160453600D02*
X-109721100Y159813600D01*
X-109721100Y159813600D02*
X-109321100Y159813600D01*
X-109481100Y166793600D02*
X-109481100Y160053600D01*
X-109481100Y166793600D02*
X-98620100Y166793600D01*
X-109481100Y165673600D02*
X-98620100Y165673600D01*
X-109481100Y160573600D02*
X-98620100Y160573600D01*
X-109481100Y160053600D02*
X-98620100Y160053600D01*
X-98620100Y166793600D02*
X-98620100Y160053600D01*
%TO.C,R12*%
X-107141342Y147936100D02*
X-107615858Y147936100D01*
X-107141342Y148981100D02*
X-107615858Y148981100D01*
%TO.C,R3*%
X-127323600Y136816342D02*
X-127323600Y137290858D01*
X-126278600Y136816342D02*
X-126278600Y137290858D01*
%TO.C,R11*%
X-107141342Y146031100D02*
X-107615858Y146031100D01*
X-107141342Y147076100D02*
X-107615858Y147076100D01*
%TO.C,P1*%
X-129051100Y150403600D02*
X-130301100Y150403600D01*
X-129341100Y150113600D02*
X-135311100Y150113600D01*
X-135311100Y150113600D02*
X-135311100Y139993600D01*
X-129351100Y150103600D02*
X-130101100Y150103600D01*
X-130101100Y150103600D02*
X-130101100Y148303600D01*
X-131601100Y150103600D02*
X-131601100Y149353600D01*
X-131601100Y149353600D02*
X-132941100Y149353600D01*
X-129051100Y149153600D02*
X-129051100Y150403600D01*
X-129351100Y148303600D02*
X-129351100Y150103600D01*
X-130101100Y148303600D02*
X-129351100Y148303600D01*
X-129351100Y146803600D02*
X-130101100Y146803600D01*
X-130101100Y146803600D02*
X-130101100Y143303600D01*
X-134551100Y145053600D02*
X-134551100Y148293600D01*
X-129351100Y143303600D02*
X-129351100Y146803600D01*
X-130101100Y143303600D02*
X-129351100Y143303600D01*
X-129351100Y141803600D02*
X-130101100Y141803600D01*
X-130101100Y141803600D02*
X-130101100Y140003600D01*
X-131601100Y140753600D02*
X-134551100Y140753600D01*
X-134551100Y140753600D02*
X-134551100Y145053600D01*
X-129351100Y140003600D02*
X-129351100Y141803600D01*
X-130101100Y140003600D02*
X-129351100Y140003600D01*
X-131601100Y140003600D02*
X-131601100Y140753600D01*
X-129341100Y139993600D02*
X-129341100Y150113600D01*
X-135311100Y139993600D02*
X-129341100Y139993600D01*
%TO.C,J4*%
X-135121100Y160453600D02*
X-135121100Y159813600D01*
X-135121100Y159813600D02*
X-134721100Y159813600D01*
X-134881100Y166793600D02*
X-134881100Y160053600D01*
X-134881100Y166793600D02*
X-124020100Y166793600D01*
X-134881100Y165673600D02*
X-124020100Y165673600D01*
X-134881100Y160573600D02*
X-124020100Y160573600D01*
X-134881100Y160053600D02*
X-124020100Y160053600D01*
X-124020100Y166793600D02*
X-124020100Y160053600D01*
%TO.C,R13*%
X-107141342Y149841100D02*
X-107615858Y149841100D01*
X-107141342Y150886100D02*
X-107615858Y150886100D01*
%TO.C,C10*%
X-99891100Y143264852D02*
X-99891100Y141842348D01*
X-101711100Y143264852D02*
X-101711100Y141842348D01*
%TO.C,C1*%
X-126360520Y139543600D02*
X-126641680Y139543600D01*
X-126360520Y140563600D02*
X-126641680Y140563600D01*
%TO.C,U1*%
X-118821100Y147353600D02*
X-118821100Y147803600D01*
X-118371100Y150573600D02*
X-118821100Y150573600D01*
X-118371100Y147353600D02*
X-118821100Y147353600D01*
X-116051100Y150573600D02*
X-115601100Y150573600D01*
X-116051100Y147353600D02*
X-115601100Y147353600D01*
X-115601100Y150573600D02*
X-115601100Y150123600D01*
X-115601100Y147353600D02*
X-115601100Y147803600D01*
%TO.C,R10*%
X-113823600Y133316342D02*
X-113823600Y133790858D01*
X-112778600Y133316342D02*
X-112778600Y133790858D01*
%TO.C,R4*%
X-116778600Y158290858D02*
X-116778600Y157816342D01*
X-117823600Y158290858D02*
X-117823600Y157816342D01*
%TO.C,R2*%
X-112418600Y158290858D02*
X-112418600Y157816342D01*
X-113463600Y158290858D02*
X-113463600Y157816342D01*
%TO.C,R6*%
X-131573600Y155566342D02*
X-131573600Y156040858D01*
X-130528600Y155566342D02*
X-130528600Y156040858D01*
%TO.C,D2*%
X-116151100Y132053600D02*
X-114451100Y132053600D01*
X-116151100Y132053600D02*
X-116151100Y134603600D01*
X-114451100Y132053600D02*
X-114451100Y134603600D01*
%TD*%
%LPC*%
D12*
%TO.C,U3*%
X-122326100Y141648600D03*
X-122326100Y142918600D03*
X-122326100Y144188600D03*
X-122326100Y145458600D03*
X-127276100Y145458600D03*
X-127276100Y144188600D03*
X-127276100Y142918600D03*
X-127276100Y141648600D03*
%TD*%
D13*
%TO.C,D5*%
X-104801100Y146553600D03*
X-103226100Y146553600D03*
%TD*%
D14*
%TO.C,P6*%
X-133801100Y157578600D03*
D15*
X-133801100Y155038600D03*
X-133801100Y152498600D03*
%TD*%
D16*
%TO.C,R16*%
X-106976100Y156553600D03*
X-108626100Y156553600D03*
%TD*%
D17*
%TO.C,D15*%
X-106751100Y158553600D03*
X-108851100Y158553600D03*
%TD*%
D18*
%TO.C,R17*%
X-129301100Y158878600D03*
X-129301100Y157228600D03*
%TD*%
%TO.C,R1*%
X-125301100Y158878600D03*
X-125301100Y157228600D03*
%TD*%
D19*
%TO.C,D1*%
X-126801100Y132503600D03*
X-126801100Y134603600D03*
%TD*%
D20*
%TO.C,C11*%
X-127326100Y152053600D03*
X-130276100Y152053600D03*
%TD*%
D21*
%TO.C,J1*%
X-132801100Y128053600D03*
D22*
X-130261100Y128053600D03*
X-127721100Y128053600D03*
X-125181100Y128053600D03*
%TD*%
D23*
%TO.C,H1*%
X-134201100Y136053600D03*
X-133498156Y137750656D03*
X-133498156Y134356544D03*
X-131801100Y138453600D03*
D24*
X-131801100Y136053600D03*
D23*
X-131801100Y133653600D03*
X-130104044Y137750656D03*
X-130104044Y134356544D03*
X-129401100Y136053600D03*
%TD*%
%TO.C,H2*%
X-104201100Y156053600D03*
X-103498156Y157750656D03*
X-103498156Y154356544D03*
X-101801100Y158453600D03*
D24*
X-101801100Y156053600D03*
D23*
X-101801100Y153653600D03*
X-100104044Y157750656D03*
X-100104044Y154356544D03*
X-99401100Y156053600D03*
%TD*%
D19*
%TO.C,D4*%
X-115301100Y159103600D03*
X-115301100Y157003600D03*
%TD*%
D25*
%TO.C,C8*%
X-120276100Y148803600D03*
X-121826100Y148803600D03*
%TD*%
D13*
%TO.C,D6*%
X-104801100Y148458600D03*
X-103226100Y148458600D03*
%TD*%
D26*
%TO.C,J2*%
X-107051100Y127853600D03*
D27*
X-107051100Y132053600D03*
X-107051100Y136253600D03*
X-101551100Y127853600D03*
X-101551100Y132053600D03*
X-101551100Y136253600D03*
%TD*%
D21*
%TO.C,J3*%
X-120561100Y128053600D03*
D22*
X-118021100Y128053600D03*
X-115481100Y128053600D03*
X-112941100Y128053600D03*
%TD*%
D28*
%TO.C,C13*%
X-108263600Y142553600D03*
X-111338600Y142553600D03*
%TD*%
D18*
%TO.C,R5*%
X-110801100Y158878600D03*
X-110801100Y157228600D03*
%TD*%
D29*
%TO.C,R7*%
X-115301100Y136228600D03*
X-115301100Y137878600D03*
%TD*%
D19*
%TO.C,D3*%
X-127301100Y159103600D03*
X-127301100Y157003600D03*
%TD*%
D13*
%TO.C,D7*%
X-104801100Y150363600D03*
X-103226100Y150363600D03*
%TD*%
D21*
%TO.C,J5*%
X-120561100Y163423600D03*
D22*
X-118021100Y163423600D03*
X-115481100Y163423600D03*
X-112941100Y163423600D03*
%TD*%
D29*
%TO.C,R9*%
X-124801100Y132728600D03*
X-124801100Y134378600D03*
%TD*%
D30*
%TO.C,U2*%
X-103663600Y141603600D03*
X-103663600Y142553600D03*
X-103663600Y143503600D03*
X-105938600Y143503600D03*
X-105938600Y141603600D03*
%TD*%
D21*
%TO.C,J6*%
X-107861100Y163423600D03*
D22*
X-105321100Y163423600D03*
X-102781100Y163423600D03*
X-100241100Y163423600D03*
%TD*%
D16*
%TO.C,R12*%
X-106553600Y148458600D03*
X-108203600Y148458600D03*
%TD*%
D29*
%TO.C,R3*%
X-126801100Y136228600D03*
X-126801100Y137878600D03*
%TD*%
D16*
%TO.C,R11*%
X-106553600Y146553600D03*
X-108203600Y146553600D03*
%TD*%
D31*
%TO.C,P1*%
X-133801100Y149153600D03*
D32*
X-131801100Y147553600D03*
D33*
X-131801100Y145053600D03*
X-131801100Y142553600D03*
%TD*%
D21*
%TO.C,J4*%
X-133261100Y163423600D03*
D22*
X-130721100Y163423600D03*
X-128181100Y163423600D03*
X-125641100Y163423600D03*
%TD*%
D16*
%TO.C,R13*%
X-106553600Y150363600D03*
X-108203600Y150363600D03*
%TD*%
D34*
%TO.C,C10*%
X-100801100Y144028600D03*
X-100801100Y141078600D03*
%TD*%
D25*
%TO.C,C1*%
X-125726100Y140053600D03*
X-127276100Y140053600D03*
%TD*%
D35*
%TO.C,U1*%
X-118661100Y149763600D03*
X-118661100Y149363600D03*
X-118661100Y148963600D03*
X-118661100Y148563600D03*
X-118661100Y148163600D03*
D36*
X-118011100Y147513600D03*
X-117611100Y147513600D03*
X-117211100Y147513600D03*
X-116811100Y147513600D03*
X-116411100Y147513600D03*
D35*
X-115761100Y148163600D03*
X-115761100Y148563600D03*
X-115761100Y148963600D03*
X-115761100Y149363600D03*
X-115761100Y149763600D03*
D36*
X-116411100Y150413600D03*
X-116811100Y150413600D03*
X-117211100Y150413600D03*
X-117611100Y150413600D03*
X-118011100Y150413600D03*
D37*
X-117211100Y148963600D03*
%TD*%
D29*
%TO.C,R10*%
X-113301100Y132728600D03*
X-113301100Y134378600D03*
%TD*%
D18*
%TO.C,R4*%
X-117301100Y158878600D03*
X-117301100Y157228600D03*
%TD*%
%TO.C,R2*%
X-112941100Y158878600D03*
X-112941100Y157228600D03*
%TD*%
D29*
%TO.C,R6*%
X-131051100Y154978600D03*
X-131051100Y156628600D03*
%TD*%
D19*
%TO.C,D2*%
X-115301100Y132503600D03*
X-115301100Y134603600D03*
%TD*%
%LPD*%
M02*
