%TF.GenerationSoftware,KiCad,Pcbnew,7.0.8*%
%TF.CreationDate,2024-01-22T00:16:33-08:00*%
%TF.ProjectId,PWMGen R1,50574d47-656e-4205-9231-2e6b69636164,rev?*%
%TF.SameCoordinates,Original*%
%TF.FileFunction,Copper,L3,Inr*%
%TF.FilePolarity,Positive*%
%FSLAX46Y46*%
G04 Gerber Fmt 4.6, Leading zero omitted, Abs format (unit mm)*
G04 Created by KiCad (PCBNEW 7.0.8) date 2024-01-22 00:16:33*
%MOMM*%
%LPD*%
G01*
G04 APERTURE LIST*
G04 Aperture macros list*
%AMRoundRect*
0 Rectangle with rounded corners*
0 $1 Rounding radius*
0 $2 $3 $4 $5 $6 $7 $8 $9 X,Y pos of 4 corners*
0 Add a 4 corners polygon primitive as box body*
4,1,4,$2,$3,$4,$5,$6,$7,$8,$9,$2,$3,0*
0 Add four circle primitives for the rounded corners*
1,1,$1+$1,$2,$3*
1,1,$1+$1,$4,$5*
1,1,$1+$1,$6,$7*
1,1,$1+$1,$8,$9*
0 Add four rect primitives between the rounded corners*
20,1,$1+$1,$2,$3,$4,$5,0*
20,1,$1+$1,$4,$5,$6,$7,0*
20,1,$1+$1,$6,$7,$8,$9,0*
20,1,$1+$1,$8,$9,$2,$3,0*%
G04 Aperture macros list end*
%TA.AperFunction,ComponentPad*%
%ADD10R,1.700000X1.700000*%
%TD*%
%TA.AperFunction,ComponentPad*%
%ADD11O,1.700000X1.700000*%
%TD*%
%TA.AperFunction,ComponentPad*%
%ADD12R,2.100000X2.100000*%
%TD*%
%TA.AperFunction,ComponentPad*%
%ADD13C,2.100000*%
%TD*%
%TA.AperFunction,ComponentPad*%
%ADD14C,0.800000*%
%TD*%
%TA.AperFunction,ComponentPad*%
%ADD15C,6.400000*%
%TD*%
%TA.AperFunction,ComponentPad*%
%ADD16RoundRect,0.250001X1.399999X-1.099999X1.399999X1.099999X-1.399999X1.099999X-1.399999X-1.099999X0*%
%TD*%
%TA.AperFunction,ComponentPad*%
%ADD17O,3.300000X2.700000*%
%TD*%
%TA.AperFunction,ComponentPad*%
%ADD18RoundRect,0.250000X-0.725000X0.600000X-0.725000X-0.600000X0.725000X-0.600000X0.725000X0.600000X0*%
%TD*%
%TA.AperFunction,ComponentPad*%
%ADD19O,1.950000X1.700000*%
%TD*%
%TA.AperFunction,ViaPad*%
%ADD20C,0.600000*%
%TD*%
%TA.AperFunction,ViaPad*%
%ADD21C,0.800000*%
%TD*%
%TA.AperFunction,ViaPad*%
%ADD22C,0.550000*%
%TD*%
G04 APERTURE END LIST*
D10*
%TO.N,GND*%
%TO.C,P6*%
X-133801100Y157578600D03*
D11*
%TO.N,/UPDI{slash}~{RESET}*%
X-133801100Y155038600D03*
%TO.N,5V*%
X-133801100Y152498600D03*
%TD*%
D12*
%TO.N,GND*%
%TO.C,J1*%
X-132801100Y128053600D03*
D13*
%TO.N,12V*%
X-130261100Y128053600D03*
%TO.N,/Tach4*%
X-127721100Y128053600D03*
%TO.N,/PWM_OUT4*%
X-125181100Y128053600D03*
%TD*%
D14*
%TO.N,N/C*%
%TO.C,H1*%
X-134201100Y136053600D03*
X-133498156Y137750656D03*
X-133498156Y134356544D03*
X-131801100Y138453600D03*
D15*
X-131801100Y136053600D03*
D14*
X-131801100Y133653600D03*
X-130104044Y137750656D03*
X-130104044Y134356544D03*
X-129401100Y136053600D03*
%TD*%
%TO.N,N/C*%
%TO.C,H2*%
X-104201100Y156053600D03*
X-103498156Y157750656D03*
X-103498156Y154356544D03*
X-101801100Y158453600D03*
D15*
X-101801100Y156053600D03*
D14*
X-101801100Y153653600D03*
X-100104044Y157750656D03*
X-100104044Y154356544D03*
X-99401100Y156053600D03*
%TD*%
D16*
%TO.N,12V*%
%TO.C,J2*%
X-107051100Y127853600D03*
D17*
X-107051100Y132053600D03*
X-107051100Y136253600D03*
%TO.N,GND*%
X-101551100Y127853600D03*
X-101551100Y132053600D03*
X-101551100Y136253600D03*
%TD*%
D12*
%TO.N,GND*%
%TO.C,J3*%
X-120561100Y128053600D03*
D13*
%TO.N,12V*%
X-118021100Y128053600D03*
%TO.N,/Tach5*%
X-115481100Y128053600D03*
%TO.N,/PWM_OUT5*%
X-112941100Y128053600D03*
%TD*%
D12*
%TO.N,GND*%
%TO.C,J5*%
X-120561100Y163423600D03*
D13*
%TO.N,12V*%
X-118021100Y163423600D03*
%TO.N,/Tach2*%
X-115481100Y163423600D03*
%TO.N,/PWM_OUT2*%
X-112941100Y163423600D03*
%TD*%
D12*
%TO.N,GND*%
%TO.C,J6*%
X-107861100Y163423600D03*
D13*
%TO.N,12V*%
X-105321100Y163423600D03*
%TO.N,/Tach3*%
X-102781100Y163423600D03*
%TO.N,/PWM_OUT3*%
X-100241100Y163423600D03*
%TD*%
D18*
%TO.N,GND*%
%TO.C,P1*%
X-131801100Y147553600D03*
D19*
%TO.N,Net-(U3-A)*%
X-131801100Y145053600D03*
%TO.N,Net-(U3-B)*%
X-131801100Y142553600D03*
%TD*%
D12*
%TO.N,GND*%
%TO.C,J4*%
X-133261100Y163423600D03*
D13*
%TO.N,12V*%
X-130721100Y163423600D03*
%TO.N,/Tach1*%
X-128181100Y163423600D03*
%TO.N,/PWM_OUT1*%
X-125641100Y163423600D03*
%TD*%
D20*
%TO.N,GND*%
X-116801100Y148553600D03*
D21*
X-126128600Y152688600D03*
D20*
X-117551100Y149303600D03*
X-116801100Y149303600D03*
D21*
X-100801100Y146553600D03*
X-100166100Y145728600D03*
X-126128600Y151418600D03*
X-101436100Y145728600D03*
X-112976100Y141918600D03*
X-125596100Y145458600D03*
X-102228600Y142553600D03*
X-112976100Y143188600D03*
X-124046100Y140053600D03*
D20*
X-117551100Y148553600D03*
D21*
%TO.N,12V*%
X-100801100Y139808600D03*
X-103663600Y140191100D03*
%TO.N,5V*%
X-110301100Y146553600D03*
X-128956100Y141648600D03*
X-112301100Y140053600D03*
X-131571100Y151533600D03*
X-117301100Y155803600D03*
X-129301100Y155953600D03*
D20*
X-122801100Y148803600D03*
D21*
X-110801100Y155803600D03*
X-115301100Y140153600D03*
X-111301100Y140053600D03*
X-131571100Y152553600D03*
X-110301100Y140053600D03*
X-122551100Y140053600D03*
D22*
%TO.N,/RXD*%
X-119801100Y150553600D03*
X-120551100Y141648600D03*
%TO.N,/TXD*%
X-118801100Y151303600D03*
X-120551100Y145458600D03*
%TO.N,Net-(U1-PC1)*%
X-115801100Y151653600D03*
X-123876100Y157228600D03*
%TO.N,/UPDI{slash}~{RESET}*%
X-125386100Y155038600D03*
X-120001100Y152453600D03*
%TO.N,Net-(U1-PB1)*%
X-114401100Y149253600D03*
X-114401100Y146453600D03*
%TO.N,Net-(U1-PB2{slash}TOSC2)*%
X-113601100Y148853600D03*
X-117401100Y140453600D03*
%TO.N,Net-(U1-PC2)*%
X-112201100Y155053600D03*
X-114601100Y154453600D03*
%TD*%
%TA.AperFunction,Conductor*%
%TO.N,GND*%
G36*
X-98358061Y167033915D02*
G01*
X-98312306Y166981111D01*
X-98301100Y166929600D01*
X-98301100Y157852012D01*
X-98320785Y157784973D01*
X-98373589Y157739218D01*
X-98442747Y157729274D01*
X-98506303Y157758299D01*
X-98535585Y157795717D01*
X-98591975Y157906389D01*
X-98803224Y158231684D01*
X-99047319Y158533116D01*
X-99321584Y158807381D01*
X-99623016Y159051476D01*
X-99948311Y159262725D01*
X-100293906Y159438814D01*
X-100656013Y159577814D01*
X-101030667Y159678202D01*
X-101413762Y159738878D01*
X-101780799Y159758114D01*
X-101801099Y159759178D01*
X-101801101Y159759178D01*
X-101822524Y159758055D01*
X-102188438Y159738878D01*
X-102571533Y159678202D01*
X-102946187Y159577814D01*
X-103308294Y159438814D01*
X-103653889Y159262725D01*
X-103653893Y159262722D01*
X-103653894Y159262722D01*
X-103979183Y159051477D01*
X-103979184Y159051476D01*
X-104280616Y158807381D01*
X-104280620Y158807377D01*
X-104554878Y158533119D01*
X-104554885Y158533111D01*
X-104798978Y158231682D01*
X-105010223Y157906393D01*
X-105186313Y157560797D01*
X-105325312Y157198694D01*
X-105325314Y157198688D01*
X-105325314Y157198687D01*
X-105408028Y156889994D01*
X-105425703Y156824029D01*
X-105425703Y156824027D01*
X-105486378Y156440939D01*
X-105506678Y156053600D01*
X-105506678Y156053599D01*
X-105486378Y155666260D01*
X-105425703Y155283172D01*
X-105425703Y155283170D01*
X-105325312Y154908505D01*
X-105186313Y154546402D01*
X-105010223Y154200806D01*
X-104798978Y153875517D01*
X-104554885Y153574088D01*
X-104554878Y153574080D01*
X-104280620Y153299822D01*
X-104280612Y153299815D01*
X-103979183Y153055722D01*
X-103653894Y152844477D01*
X-103308298Y152668387D01*
X-102946195Y152529388D01*
X-102571529Y152428997D01*
X-102188440Y152368322D01*
X-101801101Y152348022D01*
X-101801100Y152348022D01*
X-101801099Y152348022D01*
X-101413761Y152368322D01*
X-101030673Y152428997D01*
X-101030671Y152428997D01*
X-100938840Y152453603D01*
X-100656013Y152529386D01*
X-100656012Y152529386D01*
X-100656006Y152529388D01*
X-100293903Y152668387D01*
X-99948307Y152844477D01*
X-99623018Y153055722D01*
X-99321589Y153299815D01*
X-99321581Y153299822D01*
X-99047323Y153574080D01*
X-99047316Y153574088D01*
X-98803223Y153875517D01*
X-98591978Y154200806D01*
X-98535585Y154311482D01*
X-98487610Y154362278D01*
X-98419789Y154379073D01*
X-98353654Y154356536D01*
X-98310203Y154301820D01*
X-98301100Y154255187D01*
X-98301100Y124677600D01*
X-98320785Y124610561D01*
X-98373589Y124564806D01*
X-98425100Y124553600D01*
X-135177100Y124553600D01*
X-135244139Y124573285D01*
X-135289894Y124626089D01*
X-135301100Y124677600D01*
X-135301100Y127553600D01*
X-134851100Y127553600D01*
X-134851100Y126945598D01*
X-134840492Y126826274D01*
X-134840491Y126826271D01*
X-134784543Y126630738D01*
X-134690379Y126450470D01*
X-134561854Y126292846D01*
X-134404230Y126164321D01*
X-134223962Y126070157D01*
X-134028429Y126014209D01*
X-134028426Y126014208D01*
X-133909102Y126003600D01*
X-133301100Y126003600D01*
X-133301100Y127553600D01*
X-134851100Y127553600D01*
X-135301100Y127553600D01*
X-135301100Y128015714D01*
X-133354977Y128015714D01*
X-133324216Y127867685D01*
X-133254658Y127733444D01*
X-133151462Y127622948D01*
X-133022281Y127544391D01*
X-132876696Y127503600D01*
X-132763478Y127503600D01*
X-132651317Y127519016D01*
X-132512642Y127579251D01*
X-132395361Y127674666D01*
X-132308172Y127798185D01*
X-132301100Y127818083D01*
X-132301100Y126003600D01*
X-131693098Y126003600D01*
X-131573775Y126014208D01*
X-131573772Y126014209D01*
X-131378239Y126070157D01*
X-131197971Y126164321D01*
X-131040347Y126292846D01*
X-130911822Y126450469D01*
X-130911822Y126450470D01*
X-130880122Y126511157D01*
X-130831636Y126561465D01*
X-130763649Y126577573D01*
X-130741269Y126574321D01*
X-130530749Y126523779D01*
X-130504398Y126517453D01*
X-130261100Y126498306D01*
X-130017803Y126517453D01*
X-130017800Y126517453D01*
X-130017798Y126517454D01*
X-129780488Y126574428D01*
X-129780487Y126574428D01*
X-129780481Y126574430D01*
X-129555011Y126667822D01*
X-129346927Y126795337D01*
X-129346924Y126795338D01*
X-129284037Y126849049D01*
X-129161341Y126953841D01*
X-129085390Y127042768D01*
X-129026883Y127080961D01*
X-128957015Y127081459D01*
X-128897969Y127044105D01*
X-128896810Y127042768D01*
X-128820859Y126953841D01*
X-128635277Y126795338D01*
X-128635274Y126795337D01*
X-128427190Y126667822D01*
X-128201719Y126574430D01*
X-128201722Y126574430D01*
X-127964398Y126517453D01*
X-127721100Y126498306D01*
X-127477803Y126517453D01*
X-127477800Y126517453D01*
X-127477798Y126517454D01*
X-127240488Y126574428D01*
X-127240487Y126574428D01*
X-127240481Y126574430D01*
X-127015011Y126667822D01*
X-126806927Y126795337D01*
X-126806924Y126795338D01*
X-126744037Y126849049D01*
X-126621341Y126953841D01*
X-126545390Y127042768D01*
X-126486883Y127080961D01*
X-126417015Y127081459D01*
X-126357969Y127044105D01*
X-126356810Y127042768D01*
X-126280859Y126953841D01*
X-126095277Y126795338D01*
X-126095274Y126795337D01*
X-125887190Y126667822D01*
X-125661719Y126574430D01*
X-125661722Y126574430D01*
X-125424398Y126517453D01*
X-125181100Y126498306D01*
X-124937803Y126517453D01*
X-124937800Y126517453D01*
X-124937798Y126517454D01*
X-124700488Y126574428D01*
X-124700487Y126574428D01*
X-124700481Y126574430D01*
X-124475011Y126667822D01*
X-124266927Y126795337D01*
X-124266924Y126795338D01*
X-124204037Y126849049D01*
X-124081341Y126953841D01*
X-123922841Y127139421D01*
X-123922839Y127139423D01*
X-123922838Y127139426D01*
X-123795323Y127347510D01*
X-123709958Y127553600D01*
X-122611100Y127553600D01*
X-122611100Y126945598D01*
X-122600492Y126826274D01*
X-122600491Y126826271D01*
X-122544543Y126630738D01*
X-122450379Y126450470D01*
X-122321854Y126292846D01*
X-122164230Y126164321D01*
X-121983962Y126070157D01*
X-121788429Y126014209D01*
X-121788426Y126014208D01*
X-121669102Y126003600D01*
X-121061100Y126003600D01*
X-121061100Y127553600D01*
X-122611100Y127553600D01*
X-123709958Y127553600D01*
X-123701931Y127572980D01*
X-123701931Y127572981D01*
X-123701928Y127572988D01*
X-123644954Y127810298D01*
X-123628788Y128015714D01*
X-121114977Y128015714D01*
X-121084216Y127867685D01*
X-121014658Y127733444D01*
X-120911462Y127622948D01*
X-120782281Y127544391D01*
X-120636696Y127503600D01*
X-120523478Y127503600D01*
X-120411317Y127519016D01*
X-120272642Y127579251D01*
X-120155361Y127674666D01*
X-120068172Y127798185D01*
X-120061100Y127818083D01*
X-120061100Y126003600D01*
X-119453098Y126003600D01*
X-119333775Y126014208D01*
X-119333772Y126014209D01*
X-119138239Y126070157D01*
X-118957971Y126164321D01*
X-118800347Y126292846D01*
X-118671822Y126450469D01*
X-118671822Y126450470D01*
X-118640122Y126511157D01*
X-118591636Y126561465D01*
X-118523649Y126577573D01*
X-118501269Y126574321D01*
X-118290749Y126523779D01*
X-118264398Y126517453D01*
X-118021100Y126498306D01*
X-117777803Y126517453D01*
X-117777800Y126517453D01*
X-117777798Y126517454D01*
X-117540488Y126574428D01*
X-117540487Y126574428D01*
X-117540481Y126574430D01*
X-117315011Y126667822D01*
X-117106927Y126795337D01*
X-117106924Y126795338D01*
X-117044037Y126849049D01*
X-116921341Y126953841D01*
X-116845390Y127042768D01*
X-116786883Y127080961D01*
X-116717015Y127081459D01*
X-116657969Y127044105D01*
X-116656810Y127042768D01*
X-116580859Y126953841D01*
X-116395277Y126795338D01*
X-116395274Y126795337D01*
X-116187190Y126667822D01*
X-115961719Y126574430D01*
X-115961722Y126574430D01*
X-115724398Y126517453D01*
X-115481100Y126498306D01*
X-115237803Y126517453D01*
X-115237800Y126517453D01*
X-115237798Y126517454D01*
X-115000488Y126574428D01*
X-115000487Y126574428D01*
X-115000481Y126574430D01*
X-114775011Y126667822D01*
X-114566927Y126795337D01*
X-114566924Y126795338D01*
X-114504037Y126849049D01*
X-114381341Y126953841D01*
X-114305390Y127042768D01*
X-114246883Y127080961D01*
X-114177015Y127081459D01*
X-114117969Y127044105D01*
X-114116810Y127042768D01*
X-114040859Y126953841D01*
X-113855277Y126795338D01*
X-113855274Y126795337D01*
X-113647190Y126667822D01*
X-113421719Y126574430D01*
X-113421722Y126574430D01*
X-113184398Y126517453D01*
X-112941100Y126498306D01*
X-112697803Y126517453D01*
X-112697800Y126517453D01*
X-112697798Y126517454D01*
X-112460488Y126574428D01*
X-112460487Y126574428D01*
X-112460481Y126574430D01*
X-112235011Y126667822D01*
X-112176653Y126703584D01*
X-109201600Y126703584D01*
X-109191100Y126600804D01*
X-109191099Y126600803D01*
X-109135914Y126434264D01*
X-109135913Y126434262D01*
X-109043814Y126284948D01*
X-109043811Y126284944D01*
X-108919756Y126160889D01*
X-108919752Y126160886D01*
X-108770438Y126068787D01*
X-108770436Y126068786D01*
X-108603897Y126013601D01*
X-108603896Y126013600D01*
X-108501116Y126003100D01*
X-108501108Y126003100D01*
X-105601085Y126003100D01*
X-105498305Y126013600D01*
X-105498303Y126013601D01*
X-105415035Y126041193D01*
X-105331765Y126068786D01*
X-105331763Y126068787D01*
X-105182449Y126160886D01*
X-105182445Y126160889D01*
X-105058390Y126284944D01*
X-105058387Y126284948D01*
X-104966288Y126434262D01*
X-104966287Y126434264D01*
X-104960917Y126450470D01*
X-104911101Y126600803D01*
X-104900600Y126703592D01*
X-104900600Y127353600D01*
X-104147683Y127353600D01*
X-104125897Y127244074D01*
X-104125894Y127244062D01*
X-104026877Y126952368D01*
X-104026868Y126952347D01*
X-103890629Y126676082D01*
X-103719479Y126419939D01*
X-103516367Y126188333D01*
X-103284761Y125985221D01*
X-103028618Y125814071D01*
X-102752353Y125677832D01*
X-102752332Y125677823D01*
X-102460639Y125578806D01*
X-102460625Y125578803D01*
X-102158506Y125518708D01*
X-102158479Y125518704D01*
X-102051101Y125511665D01*
X-102051100Y125511665D01*
X-102051100Y127353600D01*
X-104147683Y127353600D01*
X-104900600Y127353600D01*
X-104900600Y127768605D01*
X-102251100Y127768605D01*
X-102210418Y127603554D01*
X-102131420Y127453034D01*
X-102018695Y127325794D01*
X-101878795Y127229229D01*
X-101719851Y127168949D01*
X-101593440Y127153600D01*
X-101508760Y127153600D01*
X-101382349Y127168949D01*
X-101223405Y127229229D01*
X-101083505Y127325794D01*
X-101058871Y127353600D01*
X-101051100Y127353600D01*
X-101051100Y125511665D01*
X-100943722Y125518704D01*
X-100943695Y125518708D01*
X-100641576Y125578803D01*
X-100641562Y125578806D01*
X-100349869Y125677823D01*
X-100349848Y125677832D01*
X-100073583Y125814071D01*
X-99817440Y125985221D01*
X-99585834Y126188333D01*
X-99382722Y126419939D01*
X-99211572Y126676082D01*
X-99075333Y126952347D01*
X-99075324Y126952368D01*
X-98976307Y127244062D01*
X-98976304Y127244074D01*
X-98954517Y127353600D01*
X-101051100Y127353600D01*
X-101058871Y127353600D01*
X-100970780Y127453034D01*
X-100891782Y127603554D01*
X-100851100Y127768605D01*
X-100851100Y127938595D01*
X-100891782Y128103646D01*
X-100970780Y128254166D01*
X-101083505Y128381406D01*
X-101223405Y128477971D01*
X-101382349Y128538251D01*
X-101508760Y128553600D01*
X-101593440Y128553600D01*
X-101719851Y128538251D01*
X-101878795Y128477971D01*
X-102018695Y128381406D01*
X-102131420Y128254166D01*
X-102210418Y128103646D01*
X-102251100Y127938595D01*
X-102251100Y127768605D01*
X-104900600Y127768605D01*
X-104900600Y128353600D01*
X-104147684Y128353600D01*
X-102051100Y128353600D01*
X-102051100Y131553600D01*
X-104147683Y131553600D01*
X-104125897Y131444074D01*
X-104125894Y131444062D01*
X-104026877Y131152368D01*
X-104026868Y131152347D01*
X-103890629Y130876082D01*
X-103719479Y130619939D01*
X-103516367Y130388333D01*
X-103284761Y130185221D01*
X-103092419Y130056702D01*
X-103047614Y130003090D01*
X-103038907Y129933765D01*
X-103069061Y129870737D01*
X-103092419Y129850498D01*
X-103284761Y129721978D01*
X-103516367Y129518866D01*
X-103719479Y129287260D01*
X-103890629Y129031117D01*
X-104026868Y128754852D01*
X-104026877Y128754831D01*
X-104125894Y128463137D01*
X-104125897Y128463125D01*
X-104147684Y128353600D01*
X-104900600Y128353600D01*
X-104900600Y129003608D01*
X-104911101Y129106397D01*
X-104966286Y129272934D01*
X-105058389Y129422255D01*
X-105182445Y129546311D01*
X-105331766Y129638414D01*
X-105498303Y129693599D01*
X-105601092Y129704100D01*
X-108501108Y129704100D01*
X-108603897Y129693599D01*
X-108770434Y129638414D01*
X-108770436Y129638413D01*
X-108770438Y129638412D01*
X-108919752Y129546313D01*
X-108919756Y129546310D01*
X-109043811Y129422255D01*
X-109043814Y129422251D01*
X-109135913Y129272937D01*
X-109135914Y129272935D01*
X-109135914Y129272934D01*
X-109175537Y129153358D01*
X-109191099Y129106396D01*
X-109191100Y129106395D01*
X-109201600Y129003615D01*
X-109201600Y126703584D01*
X-112176653Y126703584D01*
X-112026927Y126795337D01*
X-112026924Y126795338D01*
X-111964037Y126849049D01*
X-111841341Y126953841D01*
X-111682841Y127139421D01*
X-111682839Y127139423D01*
X-111682838Y127139426D01*
X-111555323Y127347510D01*
X-111461931Y127572980D01*
X-111461931Y127572981D01*
X-111461928Y127572988D01*
X-111404954Y127810298D01*
X-111385806Y128053600D01*
X-111404954Y128296902D01*
X-111461928Y128534212D01*
X-111555323Y128759689D01*
X-111682841Y128967779D01*
X-111841341Y129153359D01*
X-112026921Y129311859D01*
X-112235011Y129439377D01*
X-112460481Y129532769D01*
X-112460479Y129532769D01*
X-112460484Y129532770D01*
X-112460488Y129532772D01*
X-112697798Y129589746D01*
X-112941100Y129608894D01*
X-113184402Y129589746D01*
X-113421712Y129532772D01*
X-113421719Y129532769D01*
X-113421720Y129532769D01*
X-113647190Y129439377D01*
X-113855274Y129311862D01*
X-113855277Y129311861D01*
X-113929511Y129248459D01*
X-114040859Y129153359D01*
X-114040860Y129153358D01*
X-114040862Y129153356D01*
X-114116810Y129064432D01*
X-114175316Y129026238D01*
X-114245184Y129025739D01*
X-114304231Y129063093D01*
X-114305390Y129064432D01*
X-114341232Y129106397D01*
X-114381341Y129153359D01*
X-114566921Y129311859D01*
X-114775011Y129439377D01*
X-115000481Y129532769D01*
X-115000479Y129532769D01*
X-115000484Y129532770D01*
X-115000488Y129532772D01*
X-115237798Y129589746D01*
X-115481100Y129608894D01*
X-115724402Y129589746D01*
X-115961712Y129532772D01*
X-115961719Y129532769D01*
X-115961720Y129532769D01*
X-116187190Y129439377D01*
X-116395274Y129311862D01*
X-116395277Y129311861D01*
X-116469511Y129248459D01*
X-116580859Y129153359D01*
X-116580860Y129153358D01*
X-116580862Y129153356D01*
X-116656810Y129064432D01*
X-116715316Y129026238D01*
X-116785184Y129025739D01*
X-116844231Y129063093D01*
X-116845390Y129064432D01*
X-116881232Y129106397D01*
X-116921341Y129153359D01*
X-117106921Y129311859D01*
X-117315011Y129439377D01*
X-117540481Y129532769D01*
X-117540479Y129532769D01*
X-117540484Y129532770D01*
X-117540488Y129532772D01*
X-117777798Y129589746D01*
X-118021100Y129608894D01*
X-118264402Y129589746D01*
X-118501270Y129532878D01*
X-118571047Y129536368D01*
X-118627865Y129577032D01*
X-118640123Y129596042D01*
X-118671825Y129656733D01*
X-118800347Y129814353D01*
X-118957971Y129942878D01*
X-119138239Y130037042D01*
X-119333772Y130092990D01*
X-119333775Y130092991D01*
X-119453098Y130103600D01*
X-120061100Y130103600D01*
X-120061100Y128284126D01*
X-120107542Y128373756D01*
X-120210738Y128484252D01*
X-120339919Y128562809D01*
X-120485504Y128603600D01*
X-120598722Y128603600D01*
X-120710883Y128588184D01*
X-120849558Y128527949D01*
X-120966839Y128432534D01*
X-121054028Y128309015D01*
X-121104659Y128166553D01*
X-121114977Y128015714D01*
X-123628788Y128015714D01*
X-123625806Y128053600D01*
X-123644954Y128296902D01*
X-123701928Y128534212D01*
X-123709959Y128553600D01*
X-122611100Y128553600D01*
X-121061100Y128553600D01*
X-121061100Y130103600D01*
X-121669102Y130103600D01*
X-121788426Y130092991D01*
X-121788429Y130092990D01*
X-121983962Y130037042D01*
X-122164230Y129942878D01*
X-122321854Y129814353D01*
X-122450379Y129656729D01*
X-122544543Y129476461D01*
X-122600491Y129280928D01*
X-122600492Y129280925D01*
X-122611100Y129161602D01*
X-122611100Y128553600D01*
X-123709959Y128553600D01*
X-123795323Y128759689D01*
X-123922841Y128967779D01*
X-124081341Y129153359D01*
X-124266921Y129311859D01*
X-124475011Y129439377D01*
X-124700481Y129532769D01*
X-124700479Y129532769D01*
X-124700484Y129532770D01*
X-124700488Y129532772D01*
X-124937798Y129589746D01*
X-125181100Y129608894D01*
X-125424402Y129589746D01*
X-125661712Y129532772D01*
X-125661719Y129532769D01*
X-125661720Y129532769D01*
X-125887190Y129439377D01*
X-126095274Y129311862D01*
X-126095277Y129311861D01*
X-126169511Y129248459D01*
X-126280859Y129153359D01*
X-126280860Y129153358D01*
X-126280862Y129153356D01*
X-126356810Y129064432D01*
X-126415316Y129026238D01*
X-126485184Y129025739D01*
X-126544231Y129063093D01*
X-126545390Y129064432D01*
X-126581232Y129106397D01*
X-126621341Y129153359D01*
X-126806921Y129311859D01*
X-127015011Y129439377D01*
X-127240481Y129532769D01*
X-127240479Y129532769D01*
X-127240484Y129532770D01*
X-127240488Y129532772D01*
X-127477798Y129589746D01*
X-127721100Y129608894D01*
X-127964402Y129589746D01*
X-128201712Y129532772D01*
X-128201719Y129532769D01*
X-128201720Y129532769D01*
X-128427190Y129439377D01*
X-128635274Y129311862D01*
X-128635277Y129311861D01*
X-128709511Y129248459D01*
X-128820859Y129153359D01*
X-128820860Y129153358D01*
X-128820862Y129153356D01*
X-128896810Y129064432D01*
X-128955316Y129026238D01*
X-129025184Y129025739D01*
X-129084231Y129063093D01*
X-129085390Y129064432D01*
X-129121232Y129106397D01*
X-129161341Y129153359D01*
X-129346921Y129311859D01*
X-129555011Y129439377D01*
X-129780481Y129532769D01*
X-129780479Y129532769D01*
X-129780484Y129532770D01*
X-129780488Y129532772D01*
X-130017798Y129589746D01*
X-130261100Y129608894D01*
X-130504402Y129589746D01*
X-130741270Y129532878D01*
X-130811047Y129536368D01*
X-130867865Y129577032D01*
X-130880123Y129596042D01*
X-130911825Y129656733D01*
X-131040347Y129814353D01*
X-131197971Y129942878D01*
X-131378239Y130037042D01*
X-131573772Y130092990D01*
X-131573775Y130092991D01*
X-131693098Y130103600D01*
X-132301100Y130103600D01*
X-132301100Y128284126D01*
X-132347542Y128373756D01*
X-132450738Y128484252D01*
X-132579919Y128562809D01*
X-132725504Y128603600D01*
X-132838722Y128603600D01*
X-132950883Y128588184D01*
X-133089558Y128527949D01*
X-133206839Y128432534D01*
X-133294028Y128309015D01*
X-133344659Y128166553D01*
X-133354977Y128015714D01*
X-135301100Y128015714D01*
X-135301100Y128553600D01*
X-134851100Y128553600D01*
X-133301100Y128553600D01*
X-133301100Y130103600D01*
X-133909102Y130103600D01*
X-134028426Y130092991D01*
X-134028429Y130092990D01*
X-134223962Y130037042D01*
X-134404230Y129942878D01*
X-134561854Y129814353D01*
X-134690379Y129656729D01*
X-134784543Y129476461D01*
X-134840491Y129280928D01*
X-134840492Y129280925D01*
X-134851100Y129161602D01*
X-134851100Y128553600D01*
X-135301100Y128553600D01*
X-135301100Y131985836D01*
X-109205313Y131985836D01*
X-109175687Y131716586D01*
X-109175685Y131716575D01*
X-109107174Y131454517D01*
X-109001230Y131205210D01*
X-108860121Y130973994D01*
X-108860114Y130973984D01*
X-108686847Y130765780D01*
X-108686841Y130765775D01*
X-108485103Y130585018D01*
X-108259193Y130435557D01*
X-108013915Y130320576D01*
X-107754543Y130242542D01*
X-107754529Y130242539D01*
X-107608421Y130221037D01*
X-107486539Y130203100D01*
X-107486535Y130203100D01*
X-106683464Y130203100D01*
X-106514699Y130215452D01*
X-106480944Y130217923D01*
X-106480942Y130217923D01*
X-106480932Y130217925D01*
X-106216554Y130276817D01*
X-106216547Y130276820D01*
X-105963542Y130373586D01*
X-105727323Y130506159D01*
X-105512923Y130671712D01*
X-105324923Y130866709D01*
X-105324917Y130866716D01*
X-105324914Y130866719D01*
X-105167301Y131087021D01*
X-105106536Y131205210D01*
X-105043451Y131327909D01*
X-105043448Y131327918D01*
X-105043444Y131327925D01*
X-104975940Y131525794D01*
X-104955985Y131584285D01*
X-104955985Y131584288D01*
X-104955982Y131584295D01*
X-104906781Y131850667D01*
X-104902471Y131968605D01*
X-102251100Y131968605D01*
X-102210418Y131803554D01*
X-102131420Y131653034D01*
X-102018695Y131525794D01*
X-101878795Y131429229D01*
X-101719851Y131368949D01*
X-101593440Y131353600D01*
X-101508760Y131353600D01*
X-101382349Y131368949D01*
X-101223405Y131429229D01*
X-101083505Y131525794D01*
X-101058871Y131553600D01*
X-101051100Y131553600D01*
X-101051100Y128353600D01*
X-98954517Y128353600D01*
X-98976304Y128463125D01*
X-98976307Y128463137D01*
X-99075324Y128754831D01*
X-99075333Y128754852D01*
X-99211572Y129031117D01*
X-99382722Y129287260D01*
X-99585834Y129518866D01*
X-99817440Y129721978D01*
X-100009782Y129850498D01*
X-100054587Y129904110D01*
X-100063294Y129973435D01*
X-100033140Y130036462D01*
X-100009782Y130056702D01*
X-99817440Y130185221D01*
X-99585834Y130388333D01*
X-99382722Y130619939D01*
X-99211572Y130876082D01*
X-99075333Y131152347D01*
X-99075324Y131152368D01*
X-98976307Y131444062D01*
X-98976304Y131444074D01*
X-98954517Y131553600D01*
X-101051100Y131553600D01*
X-101058871Y131553600D01*
X-100970780Y131653034D01*
X-100891782Y131803554D01*
X-100851100Y131968605D01*
X-100851100Y132138595D01*
X-100891782Y132303646D01*
X-100970780Y132454166D01*
X-101083505Y132581406D01*
X-101223405Y132677971D01*
X-101382349Y132738251D01*
X-101508760Y132753600D01*
X-101593440Y132753600D01*
X-101719851Y132738251D01*
X-101878795Y132677971D01*
X-102018695Y132581406D01*
X-102131420Y132454166D01*
X-102210418Y132303646D01*
X-102251100Y132138595D01*
X-102251100Y131968605D01*
X-104902471Y131968605D01*
X-104896888Y132121365D01*
X-104926514Y132390618D01*
X-104969123Y132553600D01*
X-104147684Y132553600D01*
X-102051100Y132553600D01*
X-102051100Y135753600D01*
X-104147683Y135753600D01*
X-104125897Y135644074D01*
X-104125894Y135644062D01*
X-104026877Y135352368D01*
X-104026868Y135352347D01*
X-103890629Y135076082D01*
X-103719479Y134819939D01*
X-103516367Y134588333D01*
X-103284761Y134385221D01*
X-103092419Y134256702D01*
X-103047614Y134203090D01*
X-103038907Y134133765D01*
X-103069061Y134070737D01*
X-103092419Y134050498D01*
X-103284761Y133921978D01*
X-103516367Y133718866D01*
X-103719479Y133487260D01*
X-103890629Y133231117D01*
X-104026868Y132954852D01*
X-104026877Y132954831D01*
X-104125894Y132663137D01*
X-104125897Y132663125D01*
X-104147684Y132553600D01*
X-104969123Y132553600D01*
X-104995028Y132652688D01*
X-105100970Y132901990D01*
X-105242082Y133133210D01*
X-105415355Y133341420D01*
X-105617098Y133522182D01*
X-105843010Y133671644D01*
X-106088276Y133786620D01*
X-106233724Y133830379D01*
X-106347658Y133864657D01*
X-106347662Y133864657D01*
X-106347669Y133864660D01*
X-106615661Y133904100D01*
X-107418731Y133904100D01*
X-107418736Y133904100D01*
X-107472994Y133900128D01*
X-107621256Y133889277D01*
X-107621269Y133889274D01*
X-107885647Y133830382D01*
X-107885651Y133830380D01*
X-107885653Y133830380D01*
X-108138658Y133733614D01*
X-108374877Y133601041D01*
X-108522229Y133487260D01*
X-108589278Y133435487D01*
X-108777278Y133240490D01*
X-108777284Y133240483D01*
X-108777286Y133240481D01*
X-108909470Y133055722D01*
X-108934898Y133020180D01*
X-108934901Y133020175D01*
X-109058750Y132779290D01*
X-109058757Y132779272D01*
X-109146216Y132522914D01*
X-109146218Y132522905D01*
X-109163563Y132428997D01*
X-109195419Y132256531D01*
X-109195420Y132256524D01*
X-109205313Y131985836D01*
X-135301100Y131985836D01*
X-135301100Y134255187D01*
X-135281415Y134322226D01*
X-135228611Y134367981D01*
X-135159453Y134377925D01*
X-135095897Y134348900D01*
X-135066615Y134311482D01*
X-135010223Y134200806D01*
X-134798978Y133875517D01*
X-134554885Y133574088D01*
X-134554878Y133574080D01*
X-134280620Y133299822D01*
X-134280612Y133299815D01*
X-133979183Y133055722D01*
X-133653894Y132844477D01*
X-133308298Y132668387D01*
X-132946195Y132529388D01*
X-132571529Y132428997D01*
X-132188440Y132368322D01*
X-131801101Y132348022D01*
X-131801100Y132348022D01*
X-131801099Y132348022D01*
X-131413761Y132368322D01*
X-131030673Y132428997D01*
X-131030671Y132428997D01*
X-130936739Y132454166D01*
X-130656013Y132529386D01*
X-130656012Y132529386D01*
X-130656006Y132529388D01*
X-130293903Y132668387D01*
X-129948307Y132844477D01*
X-129623018Y133055722D01*
X-129321589Y133299815D01*
X-129321581Y133299822D01*
X-129047323Y133574080D01*
X-129047316Y133574088D01*
X-128968316Y133671644D01*
X-128803224Y133875516D01*
X-128794287Y133889277D01*
X-128591978Y134200806D01*
X-128563497Y134256702D01*
X-128415886Y134546406D01*
X-128276886Y134908513D01*
X-128176498Y135283167D01*
X-128115822Y135666262D01*
X-128095522Y136053600D01*
X-128102452Y136185836D01*
X-109205313Y136185836D01*
X-109175687Y135916586D01*
X-109175685Y135916575D01*
X-109107174Y135654517D01*
X-109001230Y135405210D01*
X-108860121Y135173994D01*
X-108860114Y135173984D01*
X-108686847Y134965780D01*
X-108686841Y134965775D01*
X-108485103Y134785018D01*
X-108259193Y134635557D01*
X-108013915Y134520576D01*
X-107754543Y134442542D01*
X-107754529Y134442539D01*
X-107608421Y134421037D01*
X-107486539Y134403100D01*
X-107486535Y134403100D01*
X-106683464Y134403100D01*
X-106514699Y134415452D01*
X-106480944Y134417923D01*
X-106480942Y134417923D01*
X-106480932Y134417925D01*
X-106216554Y134476817D01*
X-106216547Y134476820D01*
X-105963542Y134573586D01*
X-105727323Y134706159D01*
X-105512923Y134871712D01*
X-105477443Y134908513D01*
X-105324923Y135066709D01*
X-105324917Y135066716D01*
X-105324914Y135066719D01*
X-105167301Y135287021D01*
X-105106536Y135405210D01*
X-105043451Y135527909D01*
X-105043448Y135527918D01*
X-105043444Y135527925D01*
X-104975940Y135725794D01*
X-104955985Y135784285D01*
X-104955985Y135784288D01*
X-104955982Y135784295D01*
X-104906781Y136050667D01*
X-104902471Y136168605D01*
X-102251100Y136168605D01*
X-102210418Y136003554D01*
X-102131420Y135853034D01*
X-102018695Y135725794D01*
X-101878795Y135629229D01*
X-101719851Y135568949D01*
X-101593440Y135553600D01*
X-101508760Y135553600D01*
X-101382349Y135568949D01*
X-101223405Y135629229D01*
X-101083505Y135725794D01*
X-101058871Y135753600D01*
X-101051100Y135753600D01*
X-101051100Y132553600D01*
X-98954517Y132553600D01*
X-98976304Y132663125D01*
X-98976307Y132663137D01*
X-99075324Y132954831D01*
X-99075333Y132954852D01*
X-99211572Y133231117D01*
X-99382722Y133487260D01*
X-99585834Y133718866D01*
X-99817440Y133921978D01*
X-100009782Y134050498D01*
X-100054587Y134104110D01*
X-100063294Y134173435D01*
X-100033140Y134236462D01*
X-100009782Y134256702D01*
X-99817440Y134385221D01*
X-99585834Y134588333D01*
X-99382722Y134819939D01*
X-99211572Y135076082D01*
X-99075333Y135352347D01*
X-99075324Y135352368D01*
X-98976307Y135644062D01*
X-98976304Y135644074D01*
X-98954517Y135753600D01*
X-101051100Y135753600D01*
X-101058871Y135753600D01*
X-100970780Y135853034D01*
X-100891782Y136003554D01*
X-100851100Y136168605D01*
X-100851100Y136338595D01*
X-100891782Y136503646D01*
X-100970780Y136654166D01*
X-101083505Y136781406D01*
X-101223405Y136877971D01*
X-101382349Y136938251D01*
X-101508760Y136953600D01*
X-101593440Y136953600D01*
X-101719851Y136938251D01*
X-101878795Y136877971D01*
X-102018695Y136781406D01*
X-102131420Y136654166D01*
X-102210418Y136503646D01*
X-102251100Y136338595D01*
X-102251100Y136168605D01*
X-104902471Y136168605D01*
X-104896888Y136321365D01*
X-104926514Y136590618D01*
X-104969123Y136753600D01*
X-104147684Y136753600D01*
X-102051100Y136753600D01*
X-102051100Y138595532D01*
X-101051100Y138595532D01*
X-101051100Y136753600D01*
X-98954517Y136753600D01*
X-98976304Y136863125D01*
X-98976307Y136863137D01*
X-99075324Y137154831D01*
X-99075333Y137154852D01*
X-99211572Y137431117D01*
X-99382722Y137687260D01*
X-99585834Y137918866D01*
X-99817440Y138121978D01*
X-100073583Y138293128D01*
X-100349848Y138429367D01*
X-100349869Y138429376D01*
X-100641562Y138528393D01*
X-100641576Y138528396D01*
X-100943695Y138588491D01*
X-100943707Y138588493D01*
X-101051100Y138595532D01*
X-102051100Y138595532D01*
X-102158494Y138588493D01*
X-102158506Y138588491D01*
X-102460625Y138528396D01*
X-102460639Y138528393D01*
X-102752332Y138429376D01*
X-102752353Y138429367D01*
X-103028618Y138293128D01*
X-103284761Y138121978D01*
X-103516367Y137918866D01*
X-103719479Y137687260D01*
X-103890629Y137431117D01*
X-104026868Y137154852D01*
X-104026877Y137154831D01*
X-104125894Y136863137D01*
X-104125897Y136863125D01*
X-104147684Y136753600D01*
X-104969123Y136753600D01*
X-104995028Y136852688D01*
X-105100970Y137101990D01*
X-105242082Y137333210D01*
X-105415355Y137541420D01*
X-105617098Y137722182D01*
X-105843010Y137871644D01*
X-106088276Y137986620D01*
X-106233724Y138030379D01*
X-106347658Y138064657D01*
X-106347662Y138064657D01*
X-106347669Y138064660D01*
X-106615661Y138104100D01*
X-107418731Y138104100D01*
X-107418736Y138104100D01*
X-107472994Y138100128D01*
X-107621256Y138089277D01*
X-107621269Y138089274D01*
X-107885647Y138030382D01*
X-107885651Y138030380D01*
X-107885653Y138030380D01*
X-108138658Y137933614D01*
X-108374877Y137801041D01*
X-108522229Y137687260D01*
X-108589278Y137635487D01*
X-108777278Y137440490D01*
X-108777284Y137440483D01*
X-108777286Y137440481D01*
X-108934898Y137220180D01*
X-108934901Y137220175D01*
X-109058750Y136979290D01*
X-109058757Y136979272D01*
X-109146216Y136722914D01*
X-109146219Y136722900D01*
X-109195419Y136456531D01*
X-109195420Y136456524D01*
X-109205313Y136185836D01*
X-128102452Y136185836D01*
X-128115822Y136440938D01*
X-128176498Y136824033D01*
X-128276886Y137198687D01*
X-128415886Y137560794D01*
X-128591975Y137906389D01*
X-128803224Y138231684D01*
X-129047319Y138533116D01*
X-129321584Y138807381D01*
X-129623016Y139051476D01*
X-129948311Y139262725D01*
X-130293906Y139438814D01*
X-130656013Y139577814D01*
X-131030667Y139678202D01*
X-131413762Y139738878D01*
X-131780799Y139758114D01*
X-131801099Y139759178D01*
X-131801101Y139759178D01*
X-131822524Y139758055D01*
X-132188438Y139738878D01*
X-132571533Y139678202D01*
X-132946187Y139577814D01*
X-133308294Y139438814D01*
X-133653889Y139262725D01*
X-133653893Y139262722D01*
X-133653894Y139262722D01*
X-133979183Y139051477D01*
X-133979184Y139051476D01*
X-134280616Y138807381D01*
X-134280620Y138807377D01*
X-134554878Y138533119D01*
X-134554885Y138533111D01*
X-134798978Y138231682D01*
X-135010223Y137906393D01*
X-135010225Y137906389D01*
X-135061692Y137805378D01*
X-135066615Y137795717D01*
X-135114589Y137744921D01*
X-135182410Y137728126D01*
X-135248545Y137750663D01*
X-135291997Y137805378D01*
X-135301100Y137852012D01*
X-135301100Y140053600D01*
X-123456560Y140053600D01*
X-123436774Y139865344D01*
X-123436774Y139865341D01*
X-123436773Y139865340D01*
X-123378282Y139685322D01*
X-123378279Y139685315D01*
X-123283634Y139521385D01*
X-123156971Y139380711D01*
X-123003835Y139269451D01*
X-123003830Y139269448D01*
X-122830908Y139192457D01*
X-122830903Y139192455D01*
X-122678203Y139159998D01*
X-122645746Y139153100D01*
X-122645745Y139153100D01*
X-122456455Y139153100D01*
X-122456454Y139153100D01*
X-122417099Y139161465D01*
X-122271298Y139192455D01*
X-122271293Y139192457D01*
X-122098371Y139269448D01*
X-122098366Y139269451D01*
X-121945230Y139380711D01*
X-121921603Y139406951D01*
X-121818567Y139521384D01*
X-121723921Y139685316D01*
X-121665426Y139865344D01*
X-121645640Y140053600D01*
X-121665426Y140241856D01*
X-121723921Y140421884D01*
X-121742230Y140453596D01*
X-118181507Y140453596D01*
X-118161943Y140279951D01*
X-118161941Y140279941D01*
X-118104223Y140114995D01*
X-118011247Y139967023D01*
X-117887677Y139843453D01*
X-117739705Y139750477D01*
X-117574759Y139692759D01*
X-117574749Y139692757D01*
X-117401104Y139673193D01*
X-117401100Y139673193D01*
X-117401096Y139673193D01*
X-117227452Y139692757D01*
X-117227442Y139692759D01*
X-117062496Y139750477D01*
X-116947369Y139822815D01*
X-116914524Y139843453D01*
X-116790953Y139967024D01*
X-116697978Y140114994D01*
X-116684469Y140153600D01*
X-116206560Y140153600D01*
X-116186774Y139965344D01*
X-116186774Y139965341D01*
X-116186773Y139965340D01*
X-116128282Y139785322D01*
X-116128279Y139785315D01*
X-116033634Y139621385D01*
X-115906971Y139480711D01*
X-115753835Y139369451D01*
X-115753830Y139369448D01*
X-115580908Y139292457D01*
X-115580903Y139292455D01*
X-115428203Y139259998D01*
X-115395746Y139253100D01*
X-115395745Y139253100D01*
X-115206455Y139253100D01*
X-115206454Y139253100D01*
X-115161186Y139262722D01*
X-115021298Y139292455D01*
X-115021293Y139292457D01*
X-114848371Y139369448D01*
X-114848366Y139369451D01*
X-114695230Y139480711D01*
X-114658607Y139521385D01*
X-114568567Y139621384D01*
X-114473921Y139785316D01*
X-114415426Y139965344D01*
X-114406150Y140053600D01*
X-113206560Y140053600D01*
X-113186774Y139865344D01*
X-113186774Y139865341D01*
X-113186773Y139865340D01*
X-113128282Y139685322D01*
X-113128279Y139685315D01*
X-113033634Y139521385D01*
X-112906971Y139380711D01*
X-112753835Y139269451D01*
X-112753830Y139269448D01*
X-112580908Y139192457D01*
X-112580903Y139192455D01*
X-112428203Y139159998D01*
X-112395746Y139153100D01*
X-112395745Y139153100D01*
X-112206455Y139153100D01*
X-112206454Y139153100D01*
X-112167099Y139161465D01*
X-112021298Y139192455D01*
X-112021293Y139192457D01*
X-111851536Y139268039D01*
X-111782286Y139277324D01*
X-111750664Y139268039D01*
X-111580908Y139192457D01*
X-111580903Y139192455D01*
X-111428203Y139159998D01*
X-111395746Y139153100D01*
X-111395745Y139153100D01*
X-111206455Y139153100D01*
X-111206454Y139153100D01*
X-111167099Y139161465D01*
X-111021298Y139192455D01*
X-111021293Y139192457D01*
X-110851536Y139268039D01*
X-110782286Y139277324D01*
X-110750664Y139268039D01*
X-110580908Y139192457D01*
X-110580903Y139192455D01*
X-110428203Y139159998D01*
X-110395746Y139153100D01*
X-110395745Y139153100D01*
X-110206455Y139153100D01*
X-110206454Y139153100D01*
X-110167099Y139161465D01*
X-110021298Y139192455D01*
X-110021293Y139192457D01*
X-109848371Y139269448D01*
X-109848366Y139269451D01*
X-109695230Y139380711D01*
X-109671603Y139406951D01*
X-109568567Y139521384D01*
X-109473921Y139685316D01*
X-109415426Y139865344D01*
X-109395640Y140053600D01*
X-109410091Y140191100D01*
X-104569060Y140191100D01*
X-104549274Y140002844D01*
X-104549274Y140002841D01*
X-104549273Y140002840D01*
X-104490782Y139822822D01*
X-104490779Y139822815D01*
X-104396134Y139658885D01*
X-104269471Y139518211D01*
X-104116335Y139406951D01*
X-104116330Y139406948D01*
X-103943408Y139329957D01*
X-103943403Y139329955D01*
X-103790703Y139297498D01*
X-103758246Y139290600D01*
X-103758245Y139290600D01*
X-103568955Y139290600D01*
X-103568954Y139290600D01*
X-103529599Y139298965D01*
X-103383798Y139329955D01*
X-103383793Y139329957D01*
X-103210871Y139406948D01*
X-103210866Y139406951D01*
X-103057730Y139518211D01*
X-103004063Y139577814D01*
X-102931067Y139658884D01*
X-102844629Y139808600D01*
X-101706560Y139808600D01*
X-101686774Y139620344D01*
X-101686774Y139620341D01*
X-101686773Y139620340D01*
X-101628282Y139440322D01*
X-101628279Y139440315D01*
X-101533634Y139276385D01*
X-101406971Y139135711D01*
X-101253835Y139024451D01*
X-101253830Y139024448D01*
X-101080908Y138947457D01*
X-101080903Y138947455D01*
X-100928203Y138914998D01*
X-100895746Y138908100D01*
X-100895745Y138908100D01*
X-100706455Y138908100D01*
X-100706454Y138908100D01*
X-100667099Y138916465D01*
X-100521298Y138947455D01*
X-100521293Y138947457D01*
X-100348371Y139024448D01*
X-100348366Y139024451D01*
X-100195230Y139135711D01*
X-100179573Y139153100D01*
X-100068567Y139276384D01*
X-99973921Y139440316D01*
X-99915426Y139620344D01*
X-99895640Y139808600D01*
X-99915426Y139996856D01*
X-99973921Y140176884D01*
X-100068567Y140340816D01*
X-100195229Y140481488D01*
X-100348370Y140592751D01*
X-100521297Y140669744D01*
X-100706454Y140709100D01*
X-100895746Y140709100D01*
X-101005299Y140685814D01*
X-101080903Y140669744D01*
X-101080908Y140669742D01*
X-101253830Y140592751D01*
X-101253835Y140592748D01*
X-101351380Y140521877D01*
X-101406971Y140481488D01*
X-101533633Y140340816D01*
X-101533634Y140340814D01*
X-101628279Y140176884D01*
X-101628282Y140176877D01*
X-101668337Y140053600D01*
X-101686774Y139996856D01*
X-101706560Y139808600D01*
X-102844629Y139808600D01*
X-102836421Y139822816D01*
X-102777926Y140002844D01*
X-102758140Y140191100D01*
X-102777926Y140379356D01*
X-102836421Y140559384D01*
X-102931067Y140723316D01*
X-103057729Y140863988D01*
X-103210870Y140975251D01*
X-103383797Y141052244D01*
X-103568954Y141091600D01*
X-103758246Y141091600D01*
X-103889285Y141063747D01*
X-103943403Y141052244D01*
X-103943408Y141052242D01*
X-104116330Y140975251D01*
X-104116335Y140975248D01*
X-104157311Y140945477D01*
X-104269471Y140863988D01*
X-104396133Y140723316D01*
X-104475520Y140585814D01*
X-104490779Y140559384D01*
X-104490782Y140559377D01*
X-104502964Y140521884D01*
X-104549274Y140379356D01*
X-104569060Y140191100D01*
X-109410091Y140191100D01*
X-109415426Y140241856D01*
X-109473921Y140421884D01*
X-109568567Y140585816D01*
X-109695229Y140726488D01*
X-109848370Y140837751D01*
X-110021297Y140914744D01*
X-110206454Y140954100D01*
X-110395746Y140954100D01*
X-110580903Y140914744D01*
X-110580904Y140914744D01*
X-110631236Y140892334D01*
X-110750667Y140839159D01*
X-110819913Y140829875D01*
X-110851531Y140839157D01*
X-111021297Y140914744D01*
X-111206454Y140954100D01*
X-111395746Y140954100D01*
X-111580903Y140914744D01*
X-111580904Y140914744D01*
X-111631236Y140892334D01*
X-111750667Y140839159D01*
X-111819913Y140829875D01*
X-111851531Y140839157D01*
X-112021297Y140914744D01*
X-112206454Y140954100D01*
X-112395746Y140954100D01*
X-112580903Y140914744D01*
X-112580908Y140914742D01*
X-112753830Y140837751D01*
X-112753835Y140837748D01*
X-112823057Y140787455D01*
X-112906971Y140726488D01*
X-113033633Y140585816D01*
X-113070544Y140521884D01*
X-113128279Y140421884D01*
X-113128282Y140421877D01*
X-113174396Y140279951D01*
X-113186774Y140241856D01*
X-113206560Y140053600D01*
X-114406150Y140053600D01*
X-114395640Y140153600D01*
X-114415426Y140341856D01*
X-114473921Y140521884D01*
X-114568567Y140685816D01*
X-114695229Y140826488D01*
X-114848370Y140937751D01*
X-115021297Y141014744D01*
X-115206454Y141054100D01*
X-115395746Y141054100D01*
X-115580903Y141014744D01*
X-115580908Y141014742D01*
X-115753830Y140937751D01*
X-115753835Y140937748D01*
X-115891469Y140837751D01*
X-115906971Y140826488D01*
X-116033633Y140685816D01*
X-116033634Y140685814D01*
X-116128279Y140521884D01*
X-116128282Y140521877D01*
X-116184808Y140347909D01*
X-116186774Y140341856D01*
X-116206560Y140153600D01*
X-116684469Y140153600D01*
X-116640259Y140279943D01*
X-116640258Y140279951D01*
X-116620693Y140453596D01*
X-116620693Y140453603D01*
X-116640258Y140627248D01*
X-116640259Y140627257D01*
X-116697978Y140792206D01*
X-116790953Y140940176D01*
X-116914524Y141063747D01*
X-117062494Y141156722D01*
X-117227443Y141214441D01*
X-117232696Y141215032D01*
X-117401096Y141234007D01*
X-117401104Y141234007D01*
X-117574749Y141214442D01*
X-117574751Y141214441D01*
X-117574757Y141214441D01*
X-117739706Y141156722D01*
X-117887676Y141063747D01*
X-118011247Y140940176D01*
X-118056476Y140868193D01*
X-118104223Y140792204D01*
X-118161941Y140627258D01*
X-118161943Y140627248D01*
X-118181507Y140453603D01*
X-118181507Y140453596D01*
X-121742230Y140453596D01*
X-121818567Y140585816D01*
X-121945229Y140726488D01*
X-122098370Y140837751D01*
X-122271297Y140914744D01*
X-122456454Y140954100D01*
X-122645746Y140954100D01*
X-122830903Y140914744D01*
X-122830908Y140914742D01*
X-123003830Y140837751D01*
X-123003835Y140837748D01*
X-123073057Y140787455D01*
X-123156971Y140726488D01*
X-123283633Y140585816D01*
X-123320544Y140521884D01*
X-123378279Y140421884D01*
X-123378282Y140421877D01*
X-123424396Y140279951D01*
X-123436774Y140241856D01*
X-123456560Y140053600D01*
X-135301100Y140053600D01*
X-135301100Y147053600D01*
X-133776099Y147053600D01*
X-133776099Y146889408D01*
X-133765700Y146757267D01*
X-133710723Y146539080D01*
X-133617672Y146334225D01*
X-133617669Y146334219D01*
X-133489541Y146149276D01*
X-133489531Y146149264D01*
X-133330436Y145990169D01*
X-133330424Y145990159D01*
X-133151140Y145865951D01*
X-133107243Y145811592D01*
X-133099704Y145742131D01*
X-133109374Y145711619D01*
X-133200001Y145517269D01*
X-133200006Y145517255D01*
X-133261162Y145289013D01*
X-133261164Y145289003D01*
X-133281759Y145053600D01*
X-133281759Y145053599D01*
X-133261164Y144818196D01*
X-133261162Y144818186D01*
X-133200006Y144589944D01*
X-133200002Y144589935D01*
X-133100136Y144375771D01*
X-133100135Y144375769D01*
X-132964595Y144182197D01*
X-132797503Y144015105D01*
X-132640505Y143905175D01*
X-132596880Y143850598D01*
X-132589686Y143781100D01*
X-132621209Y143718745D01*
X-132640505Y143702025D01*
X-132797503Y143592094D01*
X-132964594Y143425002D01*
X-132964599Y143424995D01*
X-133100133Y143231434D01*
X-133100135Y143231430D01*
X-133200003Y143017263D01*
X-133200004Y143017259D01*
X-133200006Y143017255D01*
X-133261162Y142789013D01*
X-133261164Y142789003D01*
X-133281759Y142553600D01*
X-133281759Y142553599D01*
X-133261164Y142318196D01*
X-133261162Y142318186D01*
X-133200006Y142089944D01*
X-133200002Y142089935D01*
X-133100136Y141875771D01*
X-133100135Y141875769D01*
X-132964595Y141682197D01*
X-132797503Y141515105D01*
X-132603931Y141379565D01*
X-132603929Y141379564D01*
X-132389765Y141279698D01*
X-132389756Y141279694D01*
X-132161514Y141218538D01*
X-132161504Y141218536D01*
X-131985066Y141203100D01*
X-131617134Y141203100D01*
X-131440697Y141218536D01*
X-131440687Y141218538D01*
X-131212445Y141279694D01*
X-131212441Y141279696D01*
X-131212437Y141279697D01*
X-131105354Y141329631D01*
X-130998272Y141379564D01*
X-130998270Y141379565D01*
X-130804698Y141515105D01*
X-130671204Y141648600D01*
X-129861560Y141648600D01*
X-129841774Y141460344D01*
X-129841774Y141460341D01*
X-129841773Y141460340D01*
X-129783282Y141280322D01*
X-129783279Y141280315D01*
X-129688634Y141116385D01*
X-129561971Y140975711D01*
X-129408835Y140864451D01*
X-129408830Y140864448D01*
X-129235908Y140787457D01*
X-129235903Y140787455D01*
X-129083203Y140754998D01*
X-129050746Y140748100D01*
X-129050745Y140748100D01*
X-128861455Y140748100D01*
X-128861454Y140748100D01*
X-128822099Y140756465D01*
X-128676298Y140787455D01*
X-128676293Y140787457D01*
X-128503371Y140864448D01*
X-128503366Y140864451D01*
X-128350230Y140975711D01*
X-128315086Y141014742D01*
X-128223567Y141116384D01*
X-128128921Y141280316D01*
X-128070426Y141460344D01*
X-128050640Y141648596D01*
X-121331507Y141648596D01*
X-121311943Y141474951D01*
X-121311941Y141474941D01*
X-121254223Y141309995D01*
X-121161247Y141162023D01*
X-121037677Y141038453D01*
X-120889705Y140945477D01*
X-120724759Y140887759D01*
X-120724749Y140887757D01*
X-120551104Y140868193D01*
X-120551100Y140868193D01*
X-120551096Y140868193D01*
X-120377452Y140887757D01*
X-120377442Y140887759D01*
X-120212496Y140945477D01*
X-120164376Y140975712D01*
X-120064524Y141038453D01*
X-119940953Y141162024D01*
X-119847978Y141309994D01*
X-119790259Y141474943D01*
X-119770693Y141648600D01*
X-119774479Y141682199D01*
X-119790258Y141822248D01*
X-119790259Y141822257D01*
X-119847978Y141987206D01*
X-119940953Y142135176D01*
X-120064524Y142258747D01*
X-120212494Y142351722D01*
X-120377443Y142409441D01*
X-120382696Y142410032D01*
X-120551096Y142429007D01*
X-120551104Y142429007D01*
X-120724749Y142409442D01*
X-120724751Y142409441D01*
X-120724757Y142409441D01*
X-120889706Y142351722D01*
X-121037676Y142258747D01*
X-121161247Y142135176D01*
X-121235578Y142016877D01*
X-121254223Y141987204D01*
X-121311941Y141822258D01*
X-121311943Y141822248D01*
X-121331507Y141648603D01*
X-121331507Y141648596D01*
X-128050640Y141648596D01*
X-128050640Y141648600D01*
X-128070426Y141836856D01*
X-128128921Y142016884D01*
X-128223567Y142180816D01*
X-128350229Y142321488D01*
X-128503370Y142432751D01*
X-128676297Y142509744D01*
X-128861454Y142549100D01*
X-129050746Y142549100D01*
X-129235903Y142509744D01*
X-129235908Y142509742D01*
X-129408830Y142432751D01*
X-129408835Y142432748D01*
X-129561971Y142321488D01*
X-129688633Y142180816D01*
X-129688634Y142180814D01*
X-129783279Y142016884D01*
X-129783282Y142016877D01*
X-129792923Y141987204D01*
X-129841774Y141836856D01*
X-129861560Y141648600D01*
X-130671204Y141648600D01*
X-130637607Y141682197D01*
X-130637605Y141682199D01*
X-130569835Y141778984D01*
X-130502068Y141875765D01*
X-130502066Y141875769D01*
X-130502065Y141875770D01*
X-130402197Y142089937D01*
X-130341037Y142318192D01*
X-130320441Y142553600D01*
X-130341037Y142789008D01*
X-130402197Y143017263D01*
X-130502065Y143231429D01*
X-130637605Y143425001D01*
X-130804699Y143592095D01*
X-130961699Y143702026D01*
X-131005322Y143756601D01*
X-131012516Y143826100D01*
X-130980994Y143888455D01*
X-130961702Y143905171D01*
X-130860913Y143975744D01*
X-130804697Y144015106D01*
X-130637607Y144182197D01*
X-130637605Y144182199D01*
X-130569835Y144278984D01*
X-130502068Y144375765D01*
X-130502066Y144375769D01*
X-130502065Y144375770D01*
X-130402197Y144589937D01*
X-130341037Y144818192D01*
X-130320441Y145053600D01*
X-130341037Y145289008D01*
X-130386477Y145458596D01*
X-121331507Y145458596D01*
X-121311943Y145284951D01*
X-121311941Y145284941D01*
X-121254223Y145119995D01*
X-121161247Y144972023D01*
X-121037677Y144848453D01*
X-120889705Y144755477D01*
X-120724759Y144697759D01*
X-120724749Y144697757D01*
X-120551104Y144678193D01*
X-120551100Y144678193D01*
X-120551096Y144678193D01*
X-120377452Y144697757D01*
X-120377442Y144697759D01*
X-120212496Y144755477D01*
X-120112684Y144818192D01*
X-120064524Y144848453D01*
X-119940953Y144972024D01*
X-119847978Y145119994D01*
X-119790259Y145284943D01*
X-119790258Y145284951D01*
X-119770693Y145458596D01*
X-119770693Y145458603D01*
X-119790258Y145632248D01*
X-119790259Y145632257D01*
X-119847978Y145797206D01*
X-119940953Y145945176D01*
X-120064524Y146068747D01*
X-120212494Y146161722D01*
X-120377443Y146219441D01*
X-120382696Y146220032D01*
X-120551096Y146239007D01*
X-120551104Y146239007D01*
X-120724749Y146219442D01*
X-120724751Y146219441D01*
X-120724757Y146219441D01*
X-120889706Y146161722D01*
X-121037676Y146068747D01*
X-121161247Y145945176D01*
X-121224518Y145844479D01*
X-121254223Y145797204D01*
X-121311941Y145632258D01*
X-121311943Y145632248D01*
X-121331507Y145458603D01*
X-121331507Y145458596D01*
X-130386477Y145458596D01*
X-130402197Y145517263D01*
X-130492829Y145711621D01*
X-130503320Y145780695D01*
X-130474801Y145844479D01*
X-130451062Y145865951D01*
X-130271777Y145990159D01*
X-130271765Y145990169D01*
X-130112670Y146149264D01*
X-130112660Y146149276D01*
X-129984532Y146334219D01*
X-129984529Y146334225D01*
X-129930307Y146453596D01*
X-115181507Y146453596D01*
X-115161943Y146279951D01*
X-115161941Y146279941D01*
X-115104223Y146114995D01*
X-115011247Y145967023D01*
X-114887677Y145843453D01*
X-114739705Y145750477D01*
X-114574759Y145692759D01*
X-114574749Y145692757D01*
X-114401104Y145673193D01*
X-114401100Y145673193D01*
X-114401096Y145673193D01*
X-114227452Y145692757D01*
X-114227442Y145692759D01*
X-114062496Y145750477D01*
X-114032303Y145769448D01*
X-113914524Y145843453D01*
X-113790953Y145967024D01*
X-113697978Y146114994D01*
X-113640259Y146279943D01*
X-113634900Y146327503D01*
X-113620693Y146453596D01*
X-113620693Y146453603D01*
X-113631960Y146553600D01*
X-111206560Y146553600D01*
X-111186774Y146365344D01*
X-111186774Y146365341D01*
X-111186773Y146365340D01*
X-111128282Y146185322D01*
X-111128279Y146185315D01*
X-111033634Y146021385D01*
X-110906971Y145880711D01*
X-110753835Y145769451D01*
X-110753830Y145769448D01*
X-110580908Y145692457D01*
X-110580903Y145692455D01*
X-110428203Y145659998D01*
X-110395746Y145653100D01*
X-110395745Y145653100D01*
X-110206455Y145653100D01*
X-110206454Y145653100D01*
X-110167099Y145661465D01*
X-110021298Y145692455D01*
X-110021293Y145692457D01*
X-109848371Y145769448D01*
X-109848366Y145769451D01*
X-109695230Y145880711D01*
X-109655351Y145925001D01*
X-109568567Y146021384D01*
X-109473921Y146185316D01*
X-109415426Y146365344D01*
X-109395640Y146553600D01*
X-109415426Y146741856D01*
X-109473921Y146921884D01*
X-109568567Y147085816D01*
X-109695229Y147226488D01*
X-109848370Y147337751D01*
X-110021297Y147414744D01*
X-110206454Y147454100D01*
X-110395746Y147454100D01*
X-110580903Y147414744D01*
X-110580908Y147414742D01*
X-110753830Y147337751D01*
X-110753835Y147337748D01*
X-110889279Y147239342D01*
X-110906971Y147226488D01*
X-111033633Y147085816D01*
X-111046375Y147063746D01*
X-111128279Y146921884D01*
X-111128282Y146921877D01*
X-111138832Y146889406D01*
X-111186774Y146741856D01*
X-111206560Y146553600D01*
X-113631960Y146553600D01*
X-113640258Y146627248D01*
X-113640259Y146627257D01*
X-113697978Y146792206D01*
X-113790953Y146940176D01*
X-113914524Y147063747D01*
X-114062494Y147156722D01*
X-114227443Y147214441D01*
X-114232696Y147215032D01*
X-114401096Y147234007D01*
X-114401104Y147234007D01*
X-114574749Y147214442D01*
X-114574751Y147214441D01*
X-114574757Y147214441D01*
X-114739706Y147156722D01*
X-114887676Y147063747D01*
X-114887677Y147063746D01*
X-115011247Y146940176D01*
X-115104223Y146792204D01*
X-115161941Y146627258D01*
X-115161943Y146627248D01*
X-115181507Y146453603D01*
X-115181507Y146453596D01*
X-129930307Y146453596D01*
X-129891478Y146539080D01*
X-129836501Y146757267D01*
X-129826100Y146889406D01*
X-129826100Y147053600D01*
X-133776099Y147053600D01*
X-135301100Y147053600D01*
X-135301100Y147485305D01*
X-132276100Y147485305D01*
X-132237619Y147354249D01*
X-132163773Y147239342D01*
X-132060545Y147149895D01*
X-131936299Y147093154D01*
X-131835075Y147078600D01*
X-131767125Y147078600D01*
X-131665901Y147093154D01*
X-131541655Y147149895D01*
X-131438427Y147239342D01*
X-131364581Y147354249D01*
X-131326100Y147485305D01*
X-131326100Y147621895D01*
X-131364581Y147752951D01*
X-131438427Y147867858D01*
X-131541655Y147957305D01*
X-131665901Y148014046D01*
X-131767125Y148028600D01*
X-131835075Y148028600D01*
X-131936299Y148014046D01*
X-132060545Y147957305D01*
X-132163773Y147867858D01*
X-132237619Y147752951D01*
X-132276100Y147621895D01*
X-132276100Y147485305D01*
X-135301100Y147485305D01*
X-135301100Y149199914D01*
X-134655360Y149199914D01*
X-134645345Y149015193D01*
X-134645345Y149015188D01*
X-134595856Y148836943D01*
X-134595853Y148836937D01*
X-134509202Y148673497D01*
X-134389438Y148532500D01*
X-134242164Y148420546D01*
X-134074268Y148342868D01*
X-134074264Y148342866D01*
X-133893598Y148303100D01*
X-133886911Y148302373D01*
X-133887243Y148299324D01*
X-133833061Y148283415D01*
X-133787306Y148230611D01*
X-133776100Y148179100D01*
X-133776100Y148053600D01*
X-132301100Y148053600D01*
X-131301100Y148053600D01*
X-129826101Y148053600D01*
X-129826101Y148217792D01*
X-129836501Y148349932D01*
X-129891478Y148568119D01*
X-129984529Y148772974D01*
X-129984532Y148772980D01*
X-130005743Y148803596D01*
X-123606665Y148803596D01*
X-123586470Y148624350D01*
X-123586469Y148624345D01*
X-123526889Y148454076D01*
X-123430916Y148301337D01*
X-123303363Y148173784D01*
X-123150624Y148077811D01*
X-122980355Y148018231D01*
X-122980350Y148018230D01*
X-122801104Y147998035D01*
X-122801100Y147998035D01*
X-122801096Y147998035D01*
X-122621851Y148018230D01*
X-122621846Y148018231D01*
X-122451577Y148077811D01*
X-122298838Y148173784D01*
X-122171285Y148301337D01*
X-122140750Y148349932D01*
X-122114518Y148391680D01*
X-122075312Y148454076D01*
X-122071359Y148465371D01*
X-122015732Y148624345D01*
X-122010194Y148673497D01*
X-121995535Y148803596D01*
X-121995535Y148803603D01*
X-122015731Y148982849D01*
X-122015732Y148982854D01*
X-122031269Y149027257D01*
X-122075311Y149153122D01*
X-122138443Y149253596D01*
X-115181507Y149253596D01*
X-115161943Y149079951D01*
X-115161941Y149079941D01*
X-115104223Y148914995D01*
X-115011247Y148767023D01*
X-114887677Y148643453D01*
X-114739705Y148550477D01*
X-114574759Y148492759D01*
X-114574749Y148492757D01*
X-114401104Y148473193D01*
X-114401100Y148473193D01*
X-114401096Y148473193D01*
X-114363523Y148477426D01*
X-114294701Y148465371D01*
X-114244648Y148420180D01*
X-114211246Y148367022D01*
X-114087677Y148243453D01*
X-113939705Y148150477D01*
X-113774759Y148092759D01*
X-113774749Y148092757D01*
X-113601104Y148073193D01*
X-113601100Y148073193D01*
X-113601096Y148073193D01*
X-113427452Y148092757D01*
X-113427442Y148092759D01*
X-113262496Y148150477D01*
X-113225402Y148173784D01*
X-113114524Y148243453D01*
X-112990953Y148367024D01*
X-112897978Y148514994D01*
X-112840259Y148679943D01*
X-112832042Y148752870D01*
X-112820693Y148853596D01*
X-112820693Y148853603D01*
X-112840258Y149027248D01*
X-112840259Y149027257D01*
X-112897978Y149192206D01*
X-112990953Y149340176D01*
X-113114524Y149463747D01*
X-113262494Y149556722D01*
X-113427443Y149614441D01*
X-113427451Y149614441D01*
X-113427451Y149614442D01*
X-113601097Y149634007D01*
X-113601101Y149634007D01*
X-113623624Y149631469D01*
X-113638677Y149629773D01*
X-113707498Y149641827D01*
X-113757555Y149687021D01*
X-113790953Y149740176D01*
X-113914524Y149863747D01*
X-114062494Y149956722D01*
X-114227443Y150014441D01*
X-114232696Y150015032D01*
X-114401096Y150034007D01*
X-114401104Y150034007D01*
X-114574749Y150014442D01*
X-114574751Y150014441D01*
X-114574757Y150014441D01*
X-114739706Y149956722D01*
X-114887676Y149863747D01*
X-115011247Y149740176D01*
X-115090251Y149614440D01*
X-115104223Y149592204D01*
X-115161941Y149427258D01*
X-115161943Y149427248D01*
X-115181507Y149253603D01*
X-115181507Y149253596D01*
X-122138443Y149253596D01*
X-122171284Y149305862D01*
X-122298838Y149433416D01*
X-122451578Y149529389D01*
X-122621845Y149588968D01*
X-122621848Y149588968D01*
X-122621851Y149588969D01*
X-122801096Y149609165D01*
X-122801104Y149609165D01*
X-122980350Y149588969D01*
X-122980355Y149588968D01*
X-123150622Y149529389D01*
X-123303362Y149433416D01*
X-123303363Y149433415D01*
X-123430916Y149305862D01*
X-123526889Y149153123D01*
X-123586469Y148982854D01*
X-123586470Y148982849D01*
X-123606665Y148803603D01*
X-123606665Y148803596D01*
X-130005743Y148803596D01*
X-130112660Y148957923D01*
X-130112670Y148957935D01*
X-130271765Y149117030D01*
X-130271777Y149117040D01*
X-130456720Y149245168D01*
X-130456726Y149245171D01*
X-130661581Y149338222D01*
X-130879768Y149393199D01*
X-131011907Y149403600D01*
X-131301100Y149403599D01*
X-131301100Y148053600D01*
X-132301100Y148053600D01*
X-132301100Y149403599D01*
X-132590292Y149403599D01*
X-132722433Y149393199D01*
X-132850395Y149360956D01*
X-132920212Y149363664D01*
X-132977482Y149403688D01*
X-133000174Y149448028D01*
X-133006346Y149470259D01*
X-133006348Y149470262D01*
X-133050915Y149554323D01*
X-133093000Y149633704D01*
X-133212763Y149774700D01*
X-133360036Y149886654D01*
X-133527933Y149964332D01*
X-133527937Y149964332D01*
X-133527937Y149964333D01*
X-133547229Y149968579D01*
X-133708603Y150004100D01*
X-133847213Y150004100D01*
X-133985010Y149989114D01*
X-134160321Y149930044D01*
X-134318836Y149834670D01*
X-134318838Y149834668D01*
X-134318839Y149834667D01*
X-134453141Y149707450D01*
X-134497634Y149641827D01*
X-134556958Y149554330D01*
X-134556960Y149554327D01*
X-134556962Y149554323D01*
X-134625431Y149382477D01*
X-134625431Y149382475D01*
X-134646559Y149253596D01*
X-134655360Y149199914D01*
X-135301100Y149199914D01*
X-135301100Y151960476D01*
X-135281415Y152027515D01*
X-135228611Y152073270D01*
X-135159453Y152083214D01*
X-135095897Y152054189D01*
X-135064718Y152012881D01*
X-134975135Y151820769D01*
X-134975133Y151820765D01*
X-134839599Y151627204D01*
X-134839594Y151627197D01*
X-134672503Y151460106D01*
X-134672496Y151460101D01*
X-134478935Y151324567D01*
X-134478931Y151324565D01*
X-134264765Y151224698D01*
X-134264756Y151224694D01*
X-134036514Y151163538D01*
X-134036504Y151163536D01*
X-133801101Y151142941D01*
X-133801100Y151142941D01*
X-133801099Y151142941D01*
X-133565697Y151163536D01*
X-133565687Y151163538D01*
X-133337445Y151224694D01*
X-133337441Y151224696D01*
X-133337437Y151224697D01*
X-133123270Y151324565D01*
X-133123266Y151324567D01*
X-132929705Y151460101D01*
X-132929698Y151460106D01*
X-132762607Y151627197D01*
X-132762602Y151627203D01*
X-132689480Y151731632D01*
X-132634903Y151775257D01*
X-132565405Y151782451D01*
X-132503050Y151750928D01*
X-132467636Y151690698D01*
X-132464584Y151647548D01*
X-132476560Y151533600D01*
X-132456774Y151345344D01*
X-132456774Y151345341D01*
X-132456773Y151345340D01*
X-132398282Y151165322D01*
X-132398279Y151165315D01*
X-132303634Y151001385D01*
X-132176971Y150860711D01*
X-132023835Y150749451D01*
X-132023830Y150749448D01*
X-131850908Y150672457D01*
X-131850903Y150672455D01*
X-131698203Y150639998D01*
X-131665746Y150633100D01*
X-131665745Y150633100D01*
X-131476455Y150633100D01*
X-131476454Y150633100D01*
X-131437099Y150641465D01*
X-131291298Y150672455D01*
X-131291293Y150672457D01*
X-131118371Y150749448D01*
X-131118366Y150749451D01*
X-130965230Y150860711D01*
X-130953991Y150873193D01*
X-130838567Y151001384D01*
X-130743921Y151165316D01*
X-130685426Y151345344D01*
X-130665640Y151533600D01*
X-130685426Y151721856D01*
X-130743921Y151901884D01*
X-130789948Y151981603D01*
X-130806419Y152049499D01*
X-130789948Y152105596D01*
X-130743921Y152185316D01*
X-130685426Y152365344D01*
X-130676151Y152453596D01*
X-120781507Y152453596D01*
X-120761943Y152279951D01*
X-120761941Y152279941D01*
X-120704223Y152114995D01*
X-120611247Y151967023D01*
X-120487677Y151843453D01*
X-120339705Y151750477D01*
X-120174759Y151692759D01*
X-120174749Y151692757D01*
X-120001104Y151673193D01*
X-120001100Y151673193D01*
X-120001096Y151673193D01*
X-119827452Y151692757D01*
X-119827442Y151692759D01*
X-119682007Y151743650D01*
X-119612228Y151747212D01*
X-119551601Y151712484D01*
X-119519373Y151650491D01*
X-119524011Y151585654D01*
X-119561941Y151477259D01*
X-119561943Y151477248D01*
X-119566994Y151432415D01*
X-119594060Y151368001D01*
X-119651655Y151328446D01*
X-119704097Y151323078D01*
X-119801096Y151334007D01*
X-119801104Y151334007D01*
X-119974749Y151314442D01*
X-119974751Y151314441D01*
X-119974757Y151314441D01*
X-120139706Y151256722D01*
X-120287676Y151163747D01*
X-120411247Y151040176D01*
X-120503874Y150892759D01*
X-120504223Y150892204D01*
X-120561941Y150727258D01*
X-120561943Y150727248D01*
X-120581507Y150553603D01*
X-120581507Y150553596D01*
X-120561943Y150379951D01*
X-120561941Y150379941D01*
X-120504223Y150214995D01*
X-120411247Y150067023D01*
X-120287677Y149943453D01*
X-120139705Y149850477D01*
X-119974759Y149792759D01*
X-119974749Y149792757D01*
X-119801104Y149773193D01*
X-119801100Y149773193D01*
X-119801096Y149773193D01*
X-119627452Y149792757D01*
X-119627442Y149792759D01*
X-119462496Y149850477D01*
X-119441376Y149863747D01*
X-119314524Y149943453D01*
X-119190953Y150067024D01*
X-119097978Y150214994D01*
X-119040259Y150379943D01*
X-119035207Y150424785D01*
X-119008142Y150489197D01*
X-118950548Y150528753D01*
X-118898105Y150534121D01*
X-118801105Y150523193D01*
X-118801100Y150523193D01*
X-118801096Y150523193D01*
X-118627452Y150542757D01*
X-118627442Y150542759D01*
X-118462496Y150600477D01*
X-118314524Y150693453D01*
X-118190954Y150817023D01*
X-118163503Y150860711D01*
X-118097978Y150964994D01*
X-118040259Y151129943D01*
X-118040258Y151129951D01*
X-118020693Y151303596D01*
X-118020693Y151303603D01*
X-118040258Y151477248D01*
X-118040259Y151477257D01*
X-118097978Y151642206D01*
X-118105135Y151653596D01*
X-116581507Y151653596D01*
X-116561943Y151479951D01*
X-116561941Y151479941D01*
X-116504223Y151314995D01*
X-116411247Y151167023D01*
X-116287677Y151043453D01*
X-116139705Y150950477D01*
X-115974759Y150892759D01*
X-115974749Y150892757D01*
X-115801104Y150873193D01*
X-115801100Y150873193D01*
X-115801096Y150873193D01*
X-115627452Y150892757D01*
X-115627442Y150892759D01*
X-115462496Y150950477D01*
X-115381475Y151001385D01*
X-115314524Y151043453D01*
X-115190953Y151167024D01*
X-115097978Y151314994D01*
X-115040259Y151479943D01*
X-115034213Y151533600D01*
X-115020693Y151653596D01*
X-115020693Y151653603D01*
X-115040258Y151827248D01*
X-115040259Y151827257D01*
X-115097978Y151992206D01*
X-115190953Y152140176D01*
X-115314524Y152263747D01*
X-115462494Y152356722D01*
X-115627443Y152414441D01*
X-115632696Y152415032D01*
X-115801096Y152434007D01*
X-115801104Y152434007D01*
X-115974749Y152414442D01*
X-115974751Y152414441D01*
X-115974757Y152414441D01*
X-116139706Y152356722D01*
X-116287676Y152263747D01*
X-116411247Y152140176D01*
X-116477372Y152034937D01*
X-116504223Y151992204D01*
X-116561941Y151827258D01*
X-116561943Y151827248D01*
X-116581507Y151653603D01*
X-116581507Y151653596D01*
X-118105135Y151653596D01*
X-118190953Y151790176D01*
X-118314524Y151913747D01*
X-118462494Y152006722D01*
X-118627443Y152064441D01*
X-118632696Y152065032D01*
X-118801096Y152084007D01*
X-118801104Y152084007D01*
X-118974749Y152064442D01*
X-118974753Y152064441D01*
X-118974757Y152064441D01*
X-119120197Y152013548D01*
X-119189972Y152009986D01*
X-119250600Y152044715D01*
X-119282827Y152106708D01*
X-119278190Y152171545D01*
X-119245926Y152263747D01*
X-119240259Y152279943D01*
X-119240258Y152279951D01*
X-119220693Y152453596D01*
X-119220693Y152453603D01*
X-119240258Y152627248D01*
X-119240259Y152627257D01*
X-119297978Y152792206D01*
X-119390953Y152940176D01*
X-119514524Y153063747D01*
X-119662494Y153156722D01*
X-119827443Y153214441D01*
X-119832696Y153215032D01*
X-120001096Y153234007D01*
X-120001104Y153234007D01*
X-120174749Y153214442D01*
X-120174751Y153214441D01*
X-120174757Y153214441D01*
X-120339706Y153156722D01*
X-120487676Y153063747D01*
X-120487677Y153063746D01*
X-120611247Y152940176D01*
X-120704223Y152792204D01*
X-120761941Y152627258D01*
X-120761943Y152627248D01*
X-120781507Y152453603D01*
X-120781507Y152453596D01*
X-130676151Y152453596D01*
X-130665640Y152553600D01*
X-130685426Y152741856D01*
X-130743921Y152921884D01*
X-130838567Y153085816D01*
X-130965229Y153226488D01*
X-131118370Y153337751D01*
X-131291297Y153414744D01*
X-131476454Y153454100D01*
X-131665746Y153454100D01*
X-131850903Y153414744D01*
X-131850908Y153414742D01*
X-132023830Y153337751D01*
X-132023835Y153337748D01*
X-132076045Y153299815D01*
X-132176971Y153226488D01*
X-132303633Y153085816D01*
X-132316375Y153063746D01*
X-132340080Y153022688D01*
X-132390647Y152974473D01*
X-132459254Y152961249D01*
X-132524118Y152987217D01*
X-132559849Y153032284D01*
X-132574521Y153063747D01*
X-132627065Y153176429D01*
X-132762605Y153370001D01*
X-132929699Y153537095D01*
X-133115258Y153667025D01*
X-133158883Y153721602D01*
X-133166077Y153791100D01*
X-133134554Y153853455D01*
X-133115258Y153870175D01*
X-132929704Y154000101D01*
X-132929698Y154000106D01*
X-132762607Y154167197D01*
X-132762605Y154167199D01*
X-132644775Y154335477D01*
X-132627068Y154360765D01*
X-132627066Y154360769D01*
X-132627065Y154360770D01*
X-132527197Y154574937D01*
X-132522038Y154594189D01*
X-132512474Y154629885D01*
X-132466037Y154803192D01*
X-132447117Y155019448D01*
X-132445441Y155038596D01*
X-126166507Y155038596D01*
X-126146943Y154864951D01*
X-126146941Y154864941D01*
X-126089223Y154699995D01*
X-125996247Y154552023D01*
X-125872677Y154428453D01*
X-125724705Y154335477D01*
X-125559759Y154277759D01*
X-125559749Y154277757D01*
X-125386104Y154258193D01*
X-125386100Y154258193D01*
X-125386096Y154258193D01*
X-125212452Y154277757D01*
X-125212442Y154277759D01*
X-125047496Y154335477D01*
X-125023621Y154350478D01*
X-124899524Y154428453D01*
X-124874381Y154453596D01*
X-115381507Y154453596D01*
X-115361943Y154279951D01*
X-115361941Y154279941D01*
X-115304223Y154114995D01*
X-115211247Y153967023D01*
X-115087677Y153843453D01*
X-114939705Y153750477D01*
X-114774759Y153692759D01*
X-114774749Y153692757D01*
X-114601104Y153673193D01*
X-114601100Y153673193D01*
X-114601096Y153673193D01*
X-114427452Y153692757D01*
X-114427442Y153692759D01*
X-114262496Y153750477D01*
X-114233654Y153768599D01*
X-114114524Y153843453D01*
X-113990953Y153967024D01*
X-113897978Y154114994D01*
X-113840259Y154279943D01*
X-113831629Y154356536D01*
X-113820693Y154453596D01*
X-113820693Y154453603D01*
X-113840258Y154627248D01*
X-113840259Y154627257D01*
X-113897978Y154792206D01*
X-113990953Y154940176D01*
X-114104373Y155053596D01*
X-112981507Y155053596D01*
X-112961943Y154879951D01*
X-112961941Y154879941D01*
X-112904223Y154714995D01*
X-112811247Y154567023D01*
X-112687677Y154443453D01*
X-112539705Y154350477D01*
X-112374759Y154292759D01*
X-112374749Y154292757D01*
X-112201104Y154273193D01*
X-112201100Y154273193D01*
X-112201096Y154273193D01*
X-112027452Y154292757D01*
X-112027442Y154292759D01*
X-111862496Y154350477D01*
X-111846122Y154360765D01*
X-111714524Y154443453D01*
X-111590953Y154567024D01*
X-111497978Y154714994D01*
X-111440259Y154879943D01*
X-111435319Y154923791D01*
X-111408254Y154988203D01*
X-111350660Y155027759D01*
X-111280823Y155029898D01*
X-111260078Y155021393D01*
X-111259766Y155022092D01*
X-111080908Y154942457D01*
X-111080903Y154942455D01*
X-110928203Y154909998D01*
X-110895746Y154903100D01*
X-110895745Y154903100D01*
X-110706455Y154903100D01*
X-110706454Y154903100D01*
X-110667099Y154911465D01*
X-110521298Y154942455D01*
X-110521293Y154942457D01*
X-110348371Y155019448D01*
X-110348366Y155019451D01*
X-110195230Y155130711D01*
X-110195229Y155130712D01*
X-110068567Y155271384D01*
X-109973921Y155435316D01*
X-109915426Y155615344D01*
X-109895640Y155803600D01*
X-109915426Y155991856D01*
X-109973921Y156171884D01*
X-110068567Y156335816D01*
X-110195229Y156476488D01*
X-110348370Y156587751D01*
X-110521297Y156664744D01*
X-110706454Y156704100D01*
X-110895746Y156704100D01*
X-111053362Y156670598D01*
X-111080903Y156664744D01*
X-111080908Y156664742D01*
X-111253830Y156587751D01*
X-111253835Y156587748D01*
X-111394132Y156485816D01*
X-111406971Y156476488D01*
X-111533633Y156335816D01*
X-111541681Y156321877D01*
X-111628279Y156171884D01*
X-111628282Y156171877D01*
X-111678329Y156017846D01*
X-111686774Y155991856D01*
X-111700465Y155861587D01*
X-111727050Y155796973D01*
X-111784347Y155756988D01*
X-111854166Y155754328D01*
X-111864736Y155757506D01*
X-112027443Y155814441D01*
X-112032696Y155815032D01*
X-112201096Y155834007D01*
X-112201104Y155834007D01*
X-112374749Y155814442D01*
X-112374751Y155814441D01*
X-112374757Y155814441D01*
X-112539706Y155756722D01*
X-112687676Y155663747D01*
X-112811247Y155540176D01*
X-112877130Y155435322D01*
X-112904223Y155392204D01*
X-112961941Y155227258D01*
X-112961943Y155227248D01*
X-112981507Y155053603D01*
X-112981507Y155053596D01*
X-114104373Y155053596D01*
X-114114524Y155063747D01*
X-114262494Y155156722D01*
X-114427443Y155214441D01*
X-114432696Y155215032D01*
X-114601096Y155234007D01*
X-114601104Y155234007D01*
X-114774749Y155214442D01*
X-114774751Y155214441D01*
X-114774757Y155214441D01*
X-114939706Y155156722D01*
X-115087676Y155063747D01*
X-115211247Y154940176D01*
X-115297316Y154803196D01*
X-115304223Y154792204D01*
X-115361941Y154627258D01*
X-115361943Y154627248D01*
X-115381507Y154453603D01*
X-115381507Y154453596D01*
X-124874381Y154453596D01*
X-124775953Y154552024D01*
X-124682978Y154699994D01*
X-124625259Y154864943D01*
X-124616782Y154940176D01*
X-124605693Y155038596D01*
X-124605693Y155038603D01*
X-124625258Y155212248D01*
X-124625259Y155212257D01*
X-124682978Y155377206D01*
X-124775953Y155525176D01*
X-124899524Y155648747D01*
X-125047494Y155741722D01*
X-125212443Y155799441D01*
X-125237738Y155802291D01*
X-125249356Y155803600D01*
X-118206560Y155803600D01*
X-118186774Y155615344D01*
X-118186774Y155615341D01*
X-118186773Y155615340D01*
X-118128282Y155435322D01*
X-118128279Y155435315D01*
X-118033634Y155271385D01*
X-117906971Y155130711D01*
X-117753835Y155019451D01*
X-117753830Y155019448D01*
X-117580908Y154942457D01*
X-117580903Y154942455D01*
X-117428203Y154909998D01*
X-117395746Y154903100D01*
X-117395745Y154903100D01*
X-117206455Y154903100D01*
X-117206454Y154903100D01*
X-117167099Y154911465D01*
X-117021298Y154942455D01*
X-117021293Y154942457D01*
X-116848371Y155019448D01*
X-116848366Y155019451D01*
X-116695230Y155130711D01*
X-116695229Y155130712D01*
X-116568567Y155271384D01*
X-116473921Y155435316D01*
X-116415426Y155615344D01*
X-116395640Y155803600D01*
X-116415426Y155991856D01*
X-116473921Y156171884D01*
X-116568567Y156335816D01*
X-116695229Y156476488D01*
X-116848370Y156587751D01*
X-117021297Y156664744D01*
X-117206454Y156704100D01*
X-117395746Y156704100D01*
X-117553362Y156670598D01*
X-117580903Y156664744D01*
X-117580908Y156664742D01*
X-117753830Y156587751D01*
X-117753835Y156587748D01*
X-117894132Y156485816D01*
X-117906971Y156476488D01*
X-118033633Y156335816D01*
X-118041681Y156321877D01*
X-118128279Y156171884D01*
X-118128282Y156171877D01*
X-118178329Y156017846D01*
X-118186774Y155991856D01*
X-118206560Y155803600D01*
X-125249356Y155803600D01*
X-125386096Y155819007D01*
X-125386104Y155819007D01*
X-125559749Y155799442D01*
X-125559751Y155799441D01*
X-125559757Y155799441D01*
X-125724706Y155741722D01*
X-125872676Y155648747D01*
X-125996247Y155525176D01*
X-126052705Y155435322D01*
X-126089223Y155377204D01*
X-126146941Y155212258D01*
X-126146943Y155212248D01*
X-126166507Y155038603D01*
X-126166507Y155038596D01*
X-132445441Y155038596D01*
X-132445441Y155038599D01*
X-132445441Y155038600D01*
X-132460634Y155212248D01*
X-132466037Y155274008D01*
X-132527197Y155502263D01*
X-132596926Y155651797D01*
X-132607418Y155720873D01*
X-132578898Y155784658D01*
X-132541955Y155814110D01*
X-132397971Y155889321D01*
X-132319139Y155953600D01*
X-130206560Y155953600D01*
X-130186774Y155765344D01*
X-130186774Y155765341D01*
X-130186773Y155765340D01*
X-130128282Y155585322D01*
X-130128279Y155585315D01*
X-130033634Y155421385D01*
X-129906971Y155280711D01*
X-129753835Y155169451D01*
X-129753830Y155169448D01*
X-129580908Y155092457D01*
X-129580903Y155092455D01*
X-129445837Y155063747D01*
X-129395746Y155053100D01*
X-129395745Y155053100D01*
X-129206455Y155053100D01*
X-129206454Y155053100D01*
X-129156363Y155063747D01*
X-129021298Y155092455D01*
X-129021293Y155092457D01*
X-128848371Y155169448D01*
X-128848366Y155169451D01*
X-128695230Y155280711D01*
X-128693014Y155283172D01*
X-128568567Y155421384D01*
X-128473921Y155585316D01*
X-128415426Y155765344D01*
X-128395640Y155953600D01*
X-128415426Y156141856D01*
X-128473921Y156321884D01*
X-128568567Y156485816D01*
X-128695229Y156626488D01*
X-128848370Y156737751D01*
X-129021297Y156814744D01*
X-129206454Y156854100D01*
X-129395746Y156854100D01*
X-129580903Y156814744D01*
X-129580908Y156814742D01*
X-129753830Y156737751D01*
X-129753835Y156737748D01*
X-129800147Y156704100D01*
X-129906971Y156626488D01*
X-130033633Y156485816D01*
X-130059543Y156440939D01*
X-130128279Y156321884D01*
X-130128282Y156321877D01*
X-130175852Y156175470D01*
X-130186774Y156141856D01*
X-130206560Y155953600D01*
X-132319139Y155953600D01*
X-132240347Y156017846D01*
X-132111822Y156175470D01*
X-132017658Y156355738D01*
X-131961710Y156551271D01*
X-131961709Y156551274D01*
X-131951100Y156670598D01*
X-131951100Y157078600D01*
X-133765337Y157078600D01*
X-133658785Y157093920D01*
X-133528000Y157153648D01*
X-133441504Y157228596D01*
X-124656507Y157228596D01*
X-124636943Y157054951D01*
X-124636941Y157054941D01*
X-124579223Y156889995D01*
X-124486247Y156742023D01*
X-124362677Y156618453D01*
X-124214705Y156525477D01*
X-124049759Y156467759D01*
X-124049749Y156467757D01*
X-123876104Y156448193D01*
X-123876100Y156448193D01*
X-123876096Y156448193D01*
X-123702452Y156467757D01*
X-123702442Y156467759D01*
X-123537496Y156525477D01*
X-123496444Y156551271D01*
X-123389524Y156618453D01*
X-123265953Y156742024D01*
X-123172978Y156889994D01*
X-123115259Y157054943D01*
X-123115258Y157054951D01*
X-123095693Y157228596D01*
X-123095693Y157228603D01*
X-123115258Y157402248D01*
X-123115259Y157402257D01*
X-123172978Y157567206D01*
X-123265953Y157715176D01*
X-123389524Y157838747D01*
X-123537494Y157931722D01*
X-123702443Y157989441D01*
X-123707696Y157990032D01*
X-123876096Y158009007D01*
X-123876104Y158009007D01*
X-124049749Y157989442D01*
X-124049751Y157989441D01*
X-124049757Y157989441D01*
X-124214706Y157931722D01*
X-124362676Y157838747D01*
X-124362677Y157838746D01*
X-124486247Y157715176D01*
X-124579223Y157567204D01*
X-124636941Y157402258D01*
X-124636943Y157402248D01*
X-124656507Y157228603D01*
X-124656507Y157228596D01*
X-133441504Y157228596D01*
X-133419339Y157247802D01*
X-133341607Y157368756D01*
X-133301100Y157506711D01*
X-133301100Y157650489D01*
X-133341607Y157788444D01*
X-133419339Y157909398D01*
X-133528000Y158003552D01*
X-133658785Y158063280D01*
X-133765337Y158078600D01*
X-133836863Y158078600D01*
X-133943415Y158063280D01*
X-134074200Y158003552D01*
X-134182861Y157909398D01*
X-134260593Y157788444D01*
X-134301100Y157650489D01*
X-134301100Y159428600D01*
X-133301100Y159428600D01*
X-133301100Y158078600D01*
X-131951100Y158078600D01*
X-131951100Y158486602D01*
X-131961709Y158605925D01*
X-131961710Y158605928D01*
X-132017658Y158801461D01*
X-132111822Y158981729D01*
X-132240347Y159139353D01*
X-132397971Y159267878D01*
X-132578239Y159362042D01*
X-132773772Y159417990D01*
X-132773775Y159417991D01*
X-132893098Y159428600D01*
X-133301100Y159428600D01*
X-134301100Y159428600D01*
X-134709102Y159428600D01*
X-134828426Y159417991D01*
X-134828429Y159417990D01*
X-135023962Y159362042D01*
X-135119689Y159312039D01*
X-135188224Y159298448D01*
X-135253227Y159324067D01*
X-135294061Y159380763D01*
X-135301100Y159421948D01*
X-135301100Y161657020D01*
X-135281415Y161724059D01*
X-135228611Y161769814D01*
X-135159453Y161779758D01*
X-135095897Y161750733D01*
X-135080999Y161735382D01*
X-135021854Y161662847D01*
X-134864230Y161534321D01*
X-134683962Y161440157D01*
X-134488429Y161384209D01*
X-134488426Y161384208D01*
X-134369102Y161373600D01*
X-133761100Y161373600D01*
X-133761100Y163193073D01*
X-133714658Y163103444D01*
X-133611462Y162992948D01*
X-133482281Y162914391D01*
X-133336696Y162873600D01*
X-133223478Y162873600D01*
X-133111317Y162889016D01*
X-132972642Y162949251D01*
X-132855361Y163044666D01*
X-132768172Y163168185D01*
X-132761100Y163188083D01*
X-132761100Y161373600D01*
X-132153098Y161373600D01*
X-132033775Y161384208D01*
X-132033772Y161384209D01*
X-131838239Y161440157D01*
X-131657971Y161534321D01*
X-131500347Y161662846D01*
X-131371822Y161820469D01*
X-131371822Y161820470D01*
X-131340122Y161881157D01*
X-131291636Y161931465D01*
X-131223649Y161947573D01*
X-131201269Y161944321D01*
X-130990749Y161893779D01*
X-130964398Y161887453D01*
X-130721100Y161868306D01*
X-130477803Y161887453D01*
X-130477800Y161887453D01*
X-130477798Y161887454D01*
X-130240488Y161944428D01*
X-130240487Y161944428D01*
X-130240481Y161944430D01*
X-130015011Y162037822D01*
X-129806927Y162165337D01*
X-129806924Y162165338D01*
X-129744037Y162219049D01*
X-129621341Y162323841D01*
X-129545390Y162412768D01*
X-129486883Y162450961D01*
X-129417015Y162451459D01*
X-129357969Y162414105D01*
X-129356810Y162412768D01*
X-129280859Y162323841D01*
X-129095277Y162165338D01*
X-129095274Y162165337D01*
X-128887190Y162037822D01*
X-128661719Y161944430D01*
X-128661722Y161944430D01*
X-128424398Y161887453D01*
X-128181100Y161868306D01*
X-127937803Y161887453D01*
X-127937800Y161887453D01*
X-127937798Y161887454D01*
X-127700488Y161944428D01*
X-127700487Y161944428D01*
X-127700481Y161944430D01*
X-127475011Y162037822D01*
X-127266927Y162165337D01*
X-127266924Y162165338D01*
X-127204037Y162219049D01*
X-127081341Y162323841D01*
X-127005390Y162412768D01*
X-126946883Y162450961D01*
X-126877015Y162451459D01*
X-126817969Y162414105D01*
X-126816810Y162412768D01*
X-126740859Y162323841D01*
X-126555277Y162165338D01*
X-126555274Y162165337D01*
X-126347190Y162037822D01*
X-126121719Y161944430D01*
X-126121722Y161944430D01*
X-125884398Y161887453D01*
X-125641100Y161868306D01*
X-125397803Y161887453D01*
X-125397800Y161887453D01*
X-125397798Y161887454D01*
X-125160488Y161944428D01*
X-125160487Y161944428D01*
X-125160481Y161944430D01*
X-124935011Y162037822D01*
X-124726927Y162165337D01*
X-124726924Y162165338D01*
X-124664037Y162219049D01*
X-124541341Y162323841D01*
X-124382841Y162509421D01*
X-124382839Y162509423D01*
X-124382838Y162509426D01*
X-124255323Y162717510D01*
X-124169958Y162923600D01*
X-122611100Y162923600D01*
X-122611100Y162315598D01*
X-122600492Y162196274D01*
X-122600491Y162196271D01*
X-122544543Y162000738D01*
X-122450379Y161820470D01*
X-122321854Y161662846D01*
X-122164230Y161534321D01*
X-121983962Y161440157D01*
X-121788429Y161384209D01*
X-121788426Y161384208D01*
X-121669102Y161373600D01*
X-121061100Y161373600D01*
X-121061100Y162923600D01*
X-122611100Y162923600D01*
X-124169958Y162923600D01*
X-124161931Y162942980D01*
X-124161931Y162942981D01*
X-124161928Y162942988D01*
X-124104954Y163180298D01*
X-124088788Y163385714D01*
X-121114977Y163385714D01*
X-121084216Y163237685D01*
X-121014658Y163103444D01*
X-120911462Y162992948D01*
X-120782281Y162914391D01*
X-120636696Y162873600D01*
X-120523478Y162873600D01*
X-120411317Y162889016D01*
X-120272642Y162949251D01*
X-120155361Y163044666D01*
X-120068172Y163168185D01*
X-120061100Y163188083D01*
X-120061100Y161373600D01*
X-119453098Y161373600D01*
X-119333775Y161384208D01*
X-119333772Y161384209D01*
X-119138239Y161440157D01*
X-118957971Y161534321D01*
X-118800347Y161662846D01*
X-118671822Y161820469D01*
X-118671822Y161820470D01*
X-118640122Y161881157D01*
X-118591636Y161931465D01*
X-118523649Y161947573D01*
X-118501269Y161944321D01*
X-118290749Y161893779D01*
X-118264398Y161887453D01*
X-118021100Y161868306D01*
X-117777803Y161887453D01*
X-117777800Y161887453D01*
X-117777798Y161887454D01*
X-117540488Y161944428D01*
X-117540487Y161944428D01*
X-117540481Y161944430D01*
X-117315011Y162037822D01*
X-117106927Y162165337D01*
X-117106924Y162165338D01*
X-117044037Y162219049D01*
X-116921341Y162323841D01*
X-116845390Y162412768D01*
X-116786883Y162450961D01*
X-116717015Y162451459D01*
X-116657969Y162414105D01*
X-116656810Y162412768D01*
X-116580859Y162323841D01*
X-116395277Y162165338D01*
X-116395274Y162165337D01*
X-116187190Y162037822D01*
X-115961719Y161944430D01*
X-115961722Y161944430D01*
X-115724398Y161887453D01*
X-115481100Y161868306D01*
X-115237803Y161887453D01*
X-115237800Y161887453D01*
X-115237798Y161887454D01*
X-115000488Y161944428D01*
X-115000487Y161944428D01*
X-115000481Y161944430D01*
X-114775011Y162037822D01*
X-114566927Y162165337D01*
X-114566924Y162165338D01*
X-114504037Y162219049D01*
X-114381341Y162323841D01*
X-114305390Y162412768D01*
X-114246883Y162450961D01*
X-114177015Y162451459D01*
X-114117969Y162414105D01*
X-114116810Y162412768D01*
X-114040859Y162323841D01*
X-113855277Y162165338D01*
X-113855274Y162165337D01*
X-113647190Y162037822D01*
X-113421719Y161944430D01*
X-113421722Y161944430D01*
X-113184398Y161887453D01*
X-112941100Y161868306D01*
X-112697803Y161887453D01*
X-112697800Y161887453D01*
X-112697798Y161887454D01*
X-112460488Y161944428D01*
X-112460487Y161944428D01*
X-112460481Y161944430D01*
X-112235011Y162037822D01*
X-112026927Y162165337D01*
X-112026924Y162165338D01*
X-111964037Y162219049D01*
X-111841341Y162323841D01*
X-111682841Y162509421D01*
X-111682839Y162509423D01*
X-111682838Y162509426D01*
X-111555323Y162717510D01*
X-111469958Y162923600D01*
X-109911100Y162923600D01*
X-109911100Y162315598D01*
X-109900492Y162196274D01*
X-109900491Y162196271D01*
X-109844543Y162000738D01*
X-109750379Y161820470D01*
X-109621854Y161662846D01*
X-109464230Y161534321D01*
X-109283962Y161440157D01*
X-109088429Y161384209D01*
X-109088426Y161384208D01*
X-108969102Y161373600D01*
X-108361100Y161373600D01*
X-108361100Y162923600D01*
X-109911100Y162923600D01*
X-111469958Y162923600D01*
X-111461931Y162942980D01*
X-111461931Y162942981D01*
X-111461928Y162942988D01*
X-111404954Y163180298D01*
X-111388788Y163385714D01*
X-108414977Y163385714D01*
X-108384216Y163237685D01*
X-108314658Y163103444D01*
X-108211462Y162992948D01*
X-108082281Y162914391D01*
X-107936696Y162873600D01*
X-107823478Y162873600D01*
X-107711317Y162889016D01*
X-107572642Y162949251D01*
X-107455361Y163044666D01*
X-107368172Y163168185D01*
X-107361100Y163188083D01*
X-107361100Y161373600D01*
X-106753098Y161373600D01*
X-106633775Y161384208D01*
X-106633772Y161384209D01*
X-106438239Y161440157D01*
X-106257971Y161534321D01*
X-106100347Y161662846D01*
X-105971822Y161820469D01*
X-105971822Y161820470D01*
X-105940122Y161881157D01*
X-105891636Y161931465D01*
X-105823649Y161947573D01*
X-105801269Y161944321D01*
X-105590749Y161893779D01*
X-105564398Y161887453D01*
X-105321100Y161868306D01*
X-105077803Y161887453D01*
X-105077800Y161887453D01*
X-105077798Y161887454D01*
X-104840488Y161944428D01*
X-104840487Y161944428D01*
X-104840481Y161944430D01*
X-104615011Y162037822D01*
X-104406927Y162165337D01*
X-104406924Y162165338D01*
X-104344037Y162219049D01*
X-104221341Y162323841D01*
X-104145390Y162412768D01*
X-104086883Y162450961D01*
X-104017015Y162451459D01*
X-103957969Y162414105D01*
X-103956810Y162412768D01*
X-103880859Y162323841D01*
X-103695277Y162165338D01*
X-103695274Y162165337D01*
X-103487190Y162037822D01*
X-103261719Y161944430D01*
X-103261722Y161944430D01*
X-103024398Y161887453D01*
X-102781100Y161868306D01*
X-102537803Y161887453D01*
X-102537800Y161887453D01*
X-102537798Y161887454D01*
X-102300488Y161944428D01*
X-102300487Y161944428D01*
X-102300481Y161944430D01*
X-102075011Y162037822D01*
X-101866927Y162165337D01*
X-101866924Y162165338D01*
X-101804037Y162219049D01*
X-101681341Y162323841D01*
X-101605390Y162412768D01*
X-101546883Y162450961D01*
X-101477015Y162451459D01*
X-101417969Y162414105D01*
X-101416810Y162412768D01*
X-101340859Y162323841D01*
X-101155277Y162165338D01*
X-101155274Y162165337D01*
X-100947190Y162037822D01*
X-100721719Y161944430D01*
X-100721722Y161944430D01*
X-100484398Y161887453D01*
X-100241100Y161868306D01*
X-99997803Y161887453D01*
X-99997800Y161887453D01*
X-99997798Y161887454D01*
X-99760488Y161944428D01*
X-99760487Y161944428D01*
X-99760481Y161944430D01*
X-99535011Y162037822D01*
X-99326927Y162165337D01*
X-99326924Y162165338D01*
X-99264037Y162219049D01*
X-99141341Y162323841D01*
X-98982841Y162509421D01*
X-98982839Y162509423D01*
X-98982838Y162509426D01*
X-98855323Y162717510D01*
X-98761931Y162942980D01*
X-98761931Y162942981D01*
X-98761928Y162942988D01*
X-98704954Y163180298D01*
X-98685806Y163423600D01*
X-98704954Y163666902D01*
X-98761928Y163904212D01*
X-98855323Y164129689D01*
X-98982841Y164337779D01*
X-99141341Y164523359D01*
X-99326921Y164681859D01*
X-99535011Y164809377D01*
X-99760481Y164902769D01*
X-99760479Y164902769D01*
X-99760484Y164902770D01*
X-99760488Y164902772D01*
X-99997798Y164959746D01*
X-100241100Y164978894D01*
X-100484402Y164959746D01*
X-100721712Y164902772D01*
X-100721719Y164902769D01*
X-100721720Y164902769D01*
X-100947190Y164809377D01*
X-101155274Y164681862D01*
X-101155277Y164681861D01*
X-101155279Y164681859D01*
X-101340859Y164523359D01*
X-101340860Y164523358D01*
X-101340862Y164523356D01*
X-101416810Y164434432D01*
X-101475316Y164396238D01*
X-101545184Y164395739D01*
X-101604231Y164433093D01*
X-101605390Y164434432D01*
X-101632247Y164465876D01*
X-101681341Y164523359D01*
X-101866921Y164681859D01*
X-102075011Y164809377D01*
X-102300481Y164902769D01*
X-102300479Y164902769D01*
X-102300484Y164902770D01*
X-102300488Y164902772D01*
X-102537798Y164959746D01*
X-102781100Y164978894D01*
X-103024402Y164959746D01*
X-103261712Y164902772D01*
X-103261719Y164902769D01*
X-103261720Y164902769D01*
X-103487190Y164809377D01*
X-103695274Y164681862D01*
X-103695277Y164681861D01*
X-103695279Y164681859D01*
X-103880859Y164523359D01*
X-103880860Y164523358D01*
X-103880862Y164523356D01*
X-103956810Y164434432D01*
X-104015316Y164396238D01*
X-104085184Y164395739D01*
X-104144231Y164433093D01*
X-104145390Y164434432D01*
X-104172247Y164465876D01*
X-104221341Y164523359D01*
X-104406921Y164681859D01*
X-104615011Y164809377D01*
X-104840481Y164902769D01*
X-104840479Y164902769D01*
X-104840484Y164902770D01*
X-104840488Y164902772D01*
X-105077798Y164959746D01*
X-105321100Y164978894D01*
X-105564402Y164959746D01*
X-105801270Y164902878D01*
X-105871047Y164906368D01*
X-105927865Y164947032D01*
X-105940123Y164966042D01*
X-105971825Y165026733D01*
X-106100347Y165184353D01*
X-106257971Y165312878D01*
X-106438239Y165407042D01*
X-106633772Y165462990D01*
X-106633775Y165462991D01*
X-106753098Y165473600D01*
X-107361100Y165473600D01*
X-107361100Y163654126D01*
X-107407542Y163743756D01*
X-107510738Y163854252D01*
X-107639919Y163932809D01*
X-107785504Y163973600D01*
X-107898722Y163973600D01*
X-108010883Y163958184D01*
X-108149558Y163897949D01*
X-108266839Y163802534D01*
X-108354028Y163679015D01*
X-108404659Y163536553D01*
X-108414977Y163385714D01*
X-111388788Y163385714D01*
X-111385806Y163423600D01*
X-111404954Y163666902D01*
X-111461928Y163904212D01*
X-111469959Y163923600D01*
X-109911100Y163923600D01*
X-108361100Y163923600D01*
X-108361100Y165473600D01*
X-108969102Y165473600D01*
X-109088426Y165462991D01*
X-109088429Y165462990D01*
X-109283962Y165407042D01*
X-109464230Y165312878D01*
X-109621854Y165184353D01*
X-109750379Y165026729D01*
X-109844543Y164846461D01*
X-109900491Y164650928D01*
X-109900492Y164650925D01*
X-109911100Y164531602D01*
X-109911100Y163923600D01*
X-111469959Y163923600D01*
X-111555323Y164129689D01*
X-111682841Y164337779D01*
X-111841341Y164523359D01*
X-112026921Y164681859D01*
X-112235011Y164809377D01*
X-112460481Y164902769D01*
X-112460479Y164902769D01*
X-112460484Y164902770D01*
X-112460488Y164902772D01*
X-112697798Y164959746D01*
X-112941100Y164978894D01*
X-113184402Y164959746D01*
X-113421712Y164902772D01*
X-113421719Y164902769D01*
X-113421720Y164902769D01*
X-113647190Y164809377D01*
X-113855274Y164681862D01*
X-113855277Y164681861D01*
X-113855279Y164681859D01*
X-114040859Y164523359D01*
X-114040860Y164523358D01*
X-114040862Y164523356D01*
X-114116810Y164434432D01*
X-114175316Y164396238D01*
X-114245184Y164395739D01*
X-114304231Y164433093D01*
X-114305390Y164434432D01*
X-114332247Y164465876D01*
X-114381341Y164523359D01*
X-114566921Y164681859D01*
X-114775011Y164809377D01*
X-115000481Y164902769D01*
X-115000479Y164902769D01*
X-115000484Y164902770D01*
X-115000488Y164902772D01*
X-115237798Y164959746D01*
X-115481100Y164978894D01*
X-115724402Y164959746D01*
X-115961712Y164902772D01*
X-115961719Y164902769D01*
X-115961720Y164902769D01*
X-116187190Y164809377D01*
X-116395274Y164681862D01*
X-116395277Y164681861D01*
X-116395279Y164681859D01*
X-116580859Y164523359D01*
X-116580860Y164523358D01*
X-116580862Y164523356D01*
X-116656810Y164434432D01*
X-116715316Y164396238D01*
X-116785184Y164395739D01*
X-116844231Y164433093D01*
X-116845390Y164434432D01*
X-116872247Y164465876D01*
X-116921341Y164523359D01*
X-117106921Y164681859D01*
X-117315011Y164809377D01*
X-117540481Y164902769D01*
X-117540479Y164902769D01*
X-117540484Y164902770D01*
X-117540488Y164902772D01*
X-117777798Y164959746D01*
X-118021100Y164978894D01*
X-118264402Y164959746D01*
X-118501270Y164902878D01*
X-118571047Y164906368D01*
X-118627865Y164947032D01*
X-118640123Y164966042D01*
X-118671825Y165026733D01*
X-118800347Y165184353D01*
X-118957971Y165312878D01*
X-119138239Y165407042D01*
X-119333772Y165462990D01*
X-119333775Y165462991D01*
X-119453098Y165473600D01*
X-120061100Y165473600D01*
X-120061100Y163654126D01*
X-120107542Y163743756D01*
X-120210738Y163854252D01*
X-120339919Y163932809D01*
X-120485504Y163973600D01*
X-120598722Y163973600D01*
X-120710883Y163958184D01*
X-120849558Y163897949D01*
X-120966839Y163802534D01*
X-121054028Y163679015D01*
X-121104659Y163536553D01*
X-121114977Y163385714D01*
X-124088788Y163385714D01*
X-124085806Y163423600D01*
X-124104954Y163666902D01*
X-124161928Y163904212D01*
X-124169959Y163923600D01*
X-122611100Y163923600D01*
X-121061100Y163923600D01*
X-121061100Y165473600D01*
X-121669102Y165473600D01*
X-121788426Y165462991D01*
X-121788429Y165462990D01*
X-121983962Y165407042D01*
X-122164230Y165312878D01*
X-122321854Y165184353D01*
X-122450379Y165026729D01*
X-122544543Y164846461D01*
X-122600491Y164650928D01*
X-122600492Y164650925D01*
X-122611100Y164531602D01*
X-122611100Y163923600D01*
X-124169959Y163923600D01*
X-124255323Y164129689D01*
X-124382841Y164337779D01*
X-124541341Y164523359D01*
X-124726921Y164681859D01*
X-124935011Y164809377D01*
X-125160481Y164902769D01*
X-125160479Y164902769D01*
X-125160484Y164902770D01*
X-125160488Y164902772D01*
X-125397798Y164959746D01*
X-125641100Y164978894D01*
X-125884402Y164959746D01*
X-126121712Y164902772D01*
X-126121719Y164902769D01*
X-126121720Y164902769D01*
X-126347190Y164809377D01*
X-126555274Y164681862D01*
X-126555277Y164681861D01*
X-126555279Y164681859D01*
X-126740859Y164523359D01*
X-126740860Y164523358D01*
X-126740862Y164523356D01*
X-126816810Y164434432D01*
X-126875316Y164396238D01*
X-126945184Y164395739D01*
X-127004231Y164433093D01*
X-127005390Y164434432D01*
X-127032247Y164465876D01*
X-127081341Y164523359D01*
X-127266921Y164681859D01*
X-127475011Y164809377D01*
X-127700481Y164902769D01*
X-127700479Y164902769D01*
X-127700484Y164902770D01*
X-127700488Y164902772D01*
X-127937798Y164959746D01*
X-128181100Y164978894D01*
X-128424402Y164959746D01*
X-128661712Y164902772D01*
X-128661719Y164902769D01*
X-128661720Y164902769D01*
X-128887190Y164809377D01*
X-129095274Y164681862D01*
X-129095277Y164681861D01*
X-129095279Y164681859D01*
X-129280859Y164523359D01*
X-129280860Y164523358D01*
X-129280862Y164523356D01*
X-129356810Y164434432D01*
X-129415316Y164396238D01*
X-129485184Y164395739D01*
X-129544231Y164433093D01*
X-129545390Y164434432D01*
X-129572247Y164465876D01*
X-129621341Y164523359D01*
X-129806921Y164681859D01*
X-130015011Y164809377D01*
X-130240481Y164902769D01*
X-130240479Y164902769D01*
X-130240484Y164902770D01*
X-130240488Y164902772D01*
X-130477798Y164959746D01*
X-130721100Y164978894D01*
X-130964402Y164959746D01*
X-131201270Y164902878D01*
X-131271047Y164906368D01*
X-131327865Y164947032D01*
X-131340123Y164966042D01*
X-131371825Y165026733D01*
X-131500347Y165184353D01*
X-131657971Y165312878D01*
X-131838239Y165407042D01*
X-132033772Y165462990D01*
X-132033775Y165462991D01*
X-132153098Y165473600D01*
X-132761100Y165473600D01*
X-132761100Y163654126D01*
X-132807542Y163743756D01*
X-132910738Y163854252D01*
X-133039919Y163932809D01*
X-133185504Y163973600D01*
X-133298722Y163973600D01*
X-133410883Y163958184D01*
X-133549558Y163897949D01*
X-133666839Y163802534D01*
X-133754028Y163679015D01*
X-133761100Y163659116D01*
X-133761100Y165473600D01*
X-134369102Y165473600D01*
X-134488426Y165462991D01*
X-134488429Y165462990D01*
X-134683962Y165407042D01*
X-134864230Y165312878D01*
X-135021854Y165184353D01*
X-135080998Y165111818D01*
X-135138619Y165072301D01*
X-135208458Y165070209D01*
X-135268340Y165106207D01*
X-135299255Y165168866D01*
X-135301100Y165190179D01*
X-135301100Y166929600D01*
X-135281415Y166996639D01*
X-135228611Y167042394D01*
X-135177100Y167053600D01*
X-98425100Y167053600D01*
X-98358061Y167033915D01*
G37*
%TD.AperFunction*%
%TA.AperFunction,Conductor*%
G36*
X-134260593Y157368756D02*
G01*
X-134182861Y157247802D01*
X-134074200Y157153648D01*
X-133943415Y157093920D01*
X-133836863Y157078600D01*
X-134177100Y157078600D01*
X-134244139Y157098285D01*
X-134289894Y157151089D01*
X-134301100Y157202600D01*
X-134301100Y157506711D01*
X-134260593Y157368756D01*
G37*
%TD.AperFunction*%
%TD*%
M02*
