M48
; DRILL file {KiCad 7.0.8} date Mon Jan 22 00:16:33 2024
; FORMAT={-:-/ absolute / inch / decimal}
; #@! TF.CreationDate,2024-01-22T00:16:33-08:00
; #@! TF.GenerationSoftware,Kicad,Pcbnew,7.0.8
; #@! TF.FileFunction,Plated,1,4,PTH
FMAT,2
INCH
; #@! TA.AperFunction,Plated,PTH,ViaDrill
T1C0.0118
; #@! TA.AperFunction,Plated,PTH,ViaDrill
T2C0.0157
; #@! TA.AperFunction,Plated,PTH,ComponentDrill
T3C0.0197
; #@! TA.AperFunction,Plated,PTH,ComponentDrill
T4C0.0374
; #@! TA.AperFunction,Plated,PTH,ComponentDrill
T5C0.0394
; #@! TA.AperFunction,Plated,PTH,ComponentDrill
T6C0.0433
; #@! TA.AperFunction,Plated,PTH,ComponentDrill
T7C0.0551
; #@! TA.AperFunction,Plated,PTH,ComponentDrill
T8C0.1260
%
G90
G05
T1
X-4.9365Y6.1039
X-4.877Y6.1901
X-4.8347Y5.8584
X-4.7461Y5.7267
X-4.7461Y5.5767
X-4.7245Y6.0021
X-4.7166Y5.9273
X-4.6772Y5.9568
X-4.628Y5.8781
X-4.628Y5.8486
X-4.6221Y5.5297
X-4.5985Y5.8781
X-4.5985Y5.8486
X-4.5591Y5.9706
X-4.5119Y6.0809
X-4.504Y5.8761
X-4.504Y5.7659
X-4.4725Y5.8604
X-4.4174Y6.1045
T2
X-5.18Y6.006
X-5.18Y5.9659
X-5.0906Y6.1399
X-5.077Y5.5767
X-4.9657Y6.0114
X-4.9657Y5.9614
X-4.9447Y5.7267
X-4.8837Y5.5139
X-4.8248Y5.5139
X-4.6182Y6.134
X-4.5394Y5.5179
X-4.4479Y5.6373
X-4.4479Y5.5873
X-4.4213Y5.5139
X-4.3819Y5.5139
X-4.3622Y6.134
X-4.3426Y5.7698
X-4.3426Y5.5139
X-4.0812Y5.5193
X-4.0247Y5.6123
X-3.9935Y5.7373
X-3.9685Y5.7698
X-3.9685Y5.5043
X-3.9435Y5.7373
T3
X-5.2835Y5.3564
X-5.2558Y5.4233
X-5.2558Y5.2896
X-5.189Y5.4509
X-5.189Y5.262
X-5.1222Y5.4233
X-5.1222Y5.2896
X-5.0945Y5.3564
X-4.1024Y6.1438
X-4.0747Y6.2107
X-4.0747Y6.077
X-4.0079Y6.2383
X-4.0079Y6.0494
X-3.9411Y6.2107
X-3.9411Y6.077
X-3.9134Y6.1438
T4
X-5.189Y5.8092
X-5.189Y5.7108
X-5.189Y5.6123
T5
X-5.2678Y6.2039
X-5.2678Y6.1039
X-5.2678Y6.0039
T6
X-5.2465Y6.434
X-5.2284Y5.0415
X-5.1465Y6.434
X-5.1284Y5.0415
X-5.0465Y6.434
X-5.0284Y5.0415
X-4.9465Y6.434
X-4.9284Y5.0415
X-4.7465Y6.434
X-4.7465Y5.0415
X-4.6465Y6.434
X-4.6465Y5.0415
X-4.5465Y6.434
X-4.5465Y5.0415
X-4.4465Y6.434
X-4.4465Y5.0415
X-4.2465Y6.434
X-4.1465Y6.434
X-4.0465Y6.434
X-3.9465Y6.434
T7
X-4.2146Y5.3643
X-4.2146Y5.199
X-4.2146Y5.0336
X-3.9981Y5.3643
X-3.9981Y5.199
X-3.9981Y5.0336
T8
X-5.189Y5.3564
X-4.0079Y6.1438
T0
M30
