%TF.GenerationSoftware,KiCad,Pcbnew,7.0.8*%
%TF.CreationDate,2024-01-22T00:16:33-08:00*%
%TF.ProjectId,PWMGen R1,50574d47-656e-4205-9231-2e6b69636164,rev?*%
%TF.SameCoordinates,Original*%
%TF.FileFunction,Copper,L1,Top*%
%TF.FilePolarity,Positive*%
%FSLAX46Y46*%
G04 Gerber Fmt 4.6, Leading zero omitted, Abs format (unit mm)*
G04 Created by KiCad (PCBNEW 7.0.8) date 2024-01-22 00:16:33*
%MOMM*%
%LPD*%
G01*
G04 APERTURE LIST*
G04 Aperture macros list*
%AMRoundRect*
0 Rectangle with rounded corners*
0 $1 Rounding radius*
0 $2 $3 $4 $5 $6 $7 $8 $9 X,Y pos of 4 corners*
0 Add a 4 corners polygon primitive as box body*
4,1,4,$2,$3,$4,$5,$6,$7,$8,$9,$2,$3,0*
0 Add four circle primitives for the rounded corners*
1,1,$1+$1,$2,$3*
1,1,$1+$1,$4,$5*
1,1,$1+$1,$6,$7*
1,1,$1+$1,$8,$9*
0 Add four rect primitives between the rounded corners*
20,1,$1+$1,$2,$3,$4,$5,0*
20,1,$1+$1,$4,$5,$6,$7,0*
20,1,$1+$1,$6,$7,$8,$9,0*
20,1,$1+$1,$8,$9,$2,$3,0*%
G04 Aperture macros list end*
%TA.AperFunction,SMDPad,CuDef*%
%ADD10RoundRect,0.150000X0.825000X0.150000X-0.825000X0.150000X-0.825000X-0.150000X0.825000X-0.150000X0*%
%TD*%
%TA.AperFunction,SMDPad,CuDef*%
%ADD11RoundRect,0.218750X-0.218750X-0.256250X0.218750X-0.256250X0.218750X0.256250X-0.218750X0.256250X0*%
%TD*%
%TA.AperFunction,ComponentPad*%
%ADD12R,1.700000X1.700000*%
%TD*%
%TA.AperFunction,ComponentPad*%
%ADD13O,1.700000X1.700000*%
%TD*%
%TA.AperFunction,SMDPad,CuDef*%
%ADD14RoundRect,0.200000X0.200000X0.275000X-0.200000X0.275000X-0.200000X-0.275000X0.200000X-0.275000X0*%
%TD*%
%TA.AperFunction,SMDPad,CuDef*%
%ADD15R,0.600000X0.450000*%
%TD*%
%TA.AperFunction,SMDPad,CuDef*%
%ADD16RoundRect,0.200000X-0.275000X0.200000X-0.275000X-0.200000X0.275000X-0.200000X0.275000X0.200000X0*%
%TD*%
%TA.AperFunction,SMDPad,CuDef*%
%ADD17R,0.450000X0.600000*%
%TD*%
%TA.AperFunction,SMDPad,CuDef*%
%ADD18RoundRect,0.250000X0.325000X0.650000X-0.325000X0.650000X-0.325000X-0.650000X0.325000X-0.650000X0*%
%TD*%
%TA.AperFunction,ComponentPad*%
%ADD19R,2.100000X2.100000*%
%TD*%
%TA.AperFunction,ComponentPad*%
%ADD20C,2.100000*%
%TD*%
%TA.AperFunction,ComponentPad*%
%ADD21C,0.800000*%
%TD*%
%TA.AperFunction,ComponentPad*%
%ADD22C,6.400000*%
%TD*%
%TA.AperFunction,SMDPad,CuDef*%
%ADD23RoundRect,0.225000X0.225000X0.250000X-0.225000X0.250000X-0.225000X-0.250000X0.225000X-0.250000X0*%
%TD*%
%TA.AperFunction,ComponentPad*%
%ADD24RoundRect,0.250001X1.399999X-1.099999X1.399999X1.099999X-1.399999X1.099999X-1.399999X-1.099999X0*%
%TD*%
%TA.AperFunction,ComponentPad*%
%ADD25O,3.300000X2.700000*%
%TD*%
%TA.AperFunction,SMDPad,CuDef*%
%ADD26RoundRect,0.250000X0.412500X0.925000X-0.412500X0.925000X-0.412500X-0.925000X0.412500X-0.925000X0*%
%TD*%
%TA.AperFunction,SMDPad,CuDef*%
%ADD27RoundRect,0.200000X0.275000X-0.200000X0.275000X0.200000X-0.275000X0.200000X-0.275000X-0.200000X0*%
%TD*%
%TA.AperFunction,SMDPad,CuDef*%
%ADD28RoundRect,0.150000X0.512500X0.150000X-0.512500X0.150000X-0.512500X-0.150000X0.512500X-0.150000X0*%
%TD*%
%TA.AperFunction,ComponentPad*%
%ADD29RoundRect,0.250000X-0.725000X0.600000X-0.725000X-0.600000X0.725000X-0.600000X0.725000X0.600000X0*%
%TD*%
%TA.AperFunction,ComponentPad*%
%ADD30O,1.950000X1.700000*%
%TD*%
%TA.AperFunction,SMDPad,CuDef*%
%ADD31RoundRect,0.250000X-0.650000X0.325000X-0.650000X-0.325000X0.650000X-0.325000X0.650000X0.325000X0*%
%TD*%
%TA.AperFunction,SMDPad,CuDef*%
%ADD32RoundRect,0.050000X-0.375000X-0.050000X0.375000X-0.050000X0.375000X0.050000X-0.375000X0.050000X0*%
%TD*%
%TA.AperFunction,SMDPad,CuDef*%
%ADD33RoundRect,0.050000X-0.050000X-0.375000X0.050000X-0.375000X0.050000X0.375000X-0.050000X0.375000X0*%
%TD*%
%TA.AperFunction,SMDPad,CuDef*%
%ADD34R,1.650000X1.650000*%
%TD*%
%TA.AperFunction,ViaPad*%
%ADD35C,0.600000*%
%TD*%
%TA.AperFunction,ViaPad*%
%ADD36C,0.800000*%
%TD*%
%TA.AperFunction,ViaPad*%
%ADD37C,0.550000*%
%TD*%
%TA.AperFunction,Conductor*%
%ADD38C,0.250000*%
%TD*%
%TA.AperFunction,Conductor*%
%ADD39C,0.203200*%
%TD*%
%TA.AperFunction,Conductor*%
%ADD40C,0.254000*%
%TD*%
%TA.AperFunction,Conductor*%
%ADD41C,0.152400*%
%TD*%
%TA.AperFunction,Conductor*%
%ADD42C,0.635000*%
%TD*%
%TA.AperFunction,Conductor*%
%ADD43C,0.500000*%
%TD*%
G04 APERTURE END LIST*
D10*
%TO.P,U3,1,RO*%
%TO.N,/RXD*%
X-122326100Y141648600D03*
%TO.P,U3,2,~{RE}*%
%TO.N,/XDIR*%
X-122326100Y142918600D03*
%TO.P,U3,3,DE*%
X-122326100Y144188600D03*
%TO.P,U3,4,DI*%
%TO.N,/TXD*%
X-122326100Y145458600D03*
%TO.P,U3,5,GND*%
%TO.N,GND*%
X-127276100Y145458600D03*
%TO.P,U3,6,A*%
%TO.N,Net-(U3-A)*%
X-127276100Y144188600D03*
%TO.P,U3,7,B*%
%TO.N,Net-(U3-B)*%
X-127276100Y142918600D03*
%TO.P,U3,8,VCC*%
%TO.N,5V*%
X-127276100Y141648600D03*
%TD*%
D11*
%TO.P,D5,1,1*%
%TO.N,Net-(D5-Pad1)*%
X-104801100Y146553600D03*
%TO.P,D5,2,2*%
%TO.N,GND*%
X-103226100Y146553600D03*
%TD*%
D12*
%TO.P,P6,1,1*%
%TO.N,GND*%
X-133801100Y157578600D03*
D13*
%TO.P,P6,2,2*%
%TO.N,/UPDI{slash}~{RESET}*%
X-133801100Y155038600D03*
%TO.P,P6,3,3*%
%TO.N,5V*%
X-133801100Y152498600D03*
%TD*%
D14*
%TO.P,R16,1,1*%
%TO.N,/PWM_OUT3*%
X-106976100Y156553600D03*
%TO.P,R16,2,2*%
%TO.N,Net-(U1-PB0)*%
X-108626100Y156553600D03*
%TD*%
D15*
%TO.P,D15,1,1*%
%TO.N,/Tach3*%
X-106751100Y158553600D03*
%TO.P,D15,2,2*%
%TO.N,Net-(U1-PC2)*%
X-108851100Y158553600D03*
%TD*%
D16*
%TO.P,R17,1,1*%
%TO.N,Net-(U1-PA3)*%
X-129301100Y158878600D03*
%TO.P,R17,2,2*%
%TO.N,5V*%
X-129301100Y157228600D03*
%TD*%
%TO.P,R1,1,1*%
%TO.N,/PWM_OUT1*%
X-125301100Y158878600D03*
%TO.P,R1,2,2*%
%TO.N,Net-(U1-PC1)*%
X-125301100Y157228600D03*
%TD*%
D17*
%TO.P,D1,1,1*%
%TO.N,/Tach4*%
X-126801100Y132503600D03*
%TO.P,D1,2,2*%
%TO.N,Net-(U1-PA7)*%
X-126801100Y134603600D03*
%TD*%
D18*
%TO.P,C11,1,1*%
%TO.N,GND*%
X-127326100Y152053600D03*
%TO.P,C11,2,2*%
%TO.N,5V*%
X-130276100Y152053600D03*
%TD*%
D19*
%TO.P,J1,1,Pin_1*%
%TO.N,GND*%
X-132801100Y128053600D03*
D20*
%TO.P,J1,2,Pin_2*%
%TO.N,12V*%
X-130261100Y128053600D03*
%TO.P,J1,3,Pin_3*%
%TO.N,/Tach4*%
X-127721100Y128053600D03*
%TO.P,J1,4,Pin_4*%
%TO.N,/PWM_OUT4*%
X-125181100Y128053600D03*
%TD*%
D21*
%TO.P,H1,1*%
%TO.N,N/C*%
X-134201100Y136053600D03*
X-133498156Y137750656D03*
X-133498156Y134356544D03*
X-131801100Y138453600D03*
D22*
X-131801100Y136053600D03*
D21*
X-131801100Y133653600D03*
X-130104044Y137750656D03*
X-130104044Y134356544D03*
X-129401100Y136053600D03*
%TD*%
%TO.P,H2,1*%
%TO.N,N/C*%
X-104201100Y156053600D03*
X-103498156Y157750656D03*
X-103498156Y154356544D03*
X-101801100Y158453600D03*
D22*
X-101801100Y156053600D03*
D21*
X-101801100Y153653600D03*
X-100104044Y157750656D03*
X-100104044Y154356544D03*
X-99401100Y156053600D03*
%TD*%
D17*
%TO.P,D4,1,1*%
%TO.N,/Tach2*%
X-115301100Y159103600D03*
%TO.P,D4,2,2*%
%TO.N,Net-(U1-PC3)*%
X-115301100Y157003600D03*
%TD*%
D23*
%TO.P,C8,1,1*%
%TO.N,GND*%
X-120276100Y148803600D03*
%TO.P,C8,2,2*%
%TO.N,5V*%
X-121826100Y148803600D03*
%TD*%
D11*
%TO.P,D6,1,1*%
%TO.N,Net-(D6-Pad1)*%
X-104801100Y148458600D03*
%TO.P,D6,2,2*%
%TO.N,GND*%
X-103226100Y148458600D03*
%TD*%
D24*
%TO.P,J2,1,Pin_1*%
%TO.N,12V*%
X-107051100Y127853600D03*
D25*
%TO.P,J2,2,Pin_2*%
X-107051100Y132053600D03*
%TO.P,J2,3,Pin_3*%
X-107051100Y136253600D03*
%TO.P,J2,4,Pin_4*%
%TO.N,GND*%
X-101551100Y127853600D03*
%TO.P,J2,5,Pin_5*%
X-101551100Y132053600D03*
%TO.P,J2,6,Pin_6*%
X-101551100Y136253600D03*
%TD*%
D19*
%TO.P,J3,1,Pin_1*%
%TO.N,GND*%
X-120561100Y128053600D03*
D20*
%TO.P,J3,2,Pin_2*%
%TO.N,12V*%
X-118021100Y128053600D03*
%TO.P,J3,3,Pin_3*%
%TO.N,/Tach5*%
X-115481100Y128053600D03*
%TO.P,J3,4,Pin_4*%
%TO.N,/PWM_OUT5*%
X-112941100Y128053600D03*
%TD*%
D26*
%TO.P,C13,1,1*%
%TO.N,5V*%
X-108263600Y142553600D03*
%TO.P,C13,2,2*%
%TO.N,GND*%
X-111338600Y142553600D03*
%TD*%
D16*
%TO.P,R5,1,1*%
%TO.N,Net-(U1-PC2)*%
X-110801100Y158878600D03*
%TO.P,R5,2,2*%
%TO.N,5V*%
X-110801100Y157228600D03*
%TD*%
D27*
%TO.P,R7,1,1*%
%TO.N,Net-(U1-PB5)*%
X-115301100Y136228600D03*
%TO.P,R7,2,2*%
%TO.N,5V*%
X-115301100Y137878600D03*
%TD*%
D17*
%TO.P,D3,1,1*%
%TO.N,/Tach1*%
X-127301100Y159103600D03*
%TO.P,D3,2,2*%
%TO.N,Net-(U1-PA3)*%
X-127301100Y157003600D03*
%TD*%
D11*
%TO.P,D7,1,1*%
%TO.N,Net-(D7-Pad1)*%
X-104801100Y150363600D03*
%TO.P,D7,2,2*%
%TO.N,GND*%
X-103226100Y150363600D03*
%TD*%
D19*
%TO.P,J5,1,Pin_1*%
%TO.N,GND*%
X-120561100Y163423600D03*
D20*
%TO.P,J5,2,Pin_2*%
%TO.N,12V*%
X-118021100Y163423600D03*
%TO.P,J5,3,Pin_3*%
%TO.N,/Tach2*%
X-115481100Y163423600D03*
%TO.P,J5,4,Pin_4*%
%TO.N,/PWM_OUT2*%
X-112941100Y163423600D03*
%TD*%
D27*
%TO.P,R9,1,1*%
%TO.N,/PWM_OUT4*%
X-124801100Y132728600D03*
%TO.P,R9,2,2*%
%TO.N,Net-(U1-PB2{slash}TOSC2)*%
X-124801100Y134378600D03*
%TD*%
D28*
%TO.P,U2,1,In*%
%TO.N,12V*%
X-103663600Y141603600D03*
%TO.P,U2,2,Gnd*%
%TO.N,GND*%
X-103663600Y142553600D03*
%TO.P,U2,3,En*%
%TO.N,unconnected-(U2-En-Pad3)*%
X-103663600Y143503600D03*
%TO.P,U2,4*%
%TO.N,N/C*%
X-105938600Y143503600D03*
%TO.P,U2,5,Out*%
%TO.N,5V*%
X-105938600Y141603600D03*
%TD*%
D19*
%TO.P,J6,1,Pin_1*%
%TO.N,GND*%
X-107861100Y163423600D03*
D20*
%TO.P,J6,2,Pin_2*%
%TO.N,12V*%
X-105321100Y163423600D03*
%TO.P,J6,3,Pin_3*%
%TO.N,/Tach3*%
X-102781100Y163423600D03*
%TO.P,J6,4,Pin_4*%
%TO.N,/PWM_OUT3*%
X-100241100Y163423600D03*
%TD*%
D14*
%TO.P,R12,1,1*%
%TO.N,Net-(D6-Pad1)*%
X-106553600Y148458600D03*
%TO.P,R12,2,2*%
%TO.N,Net-(U1-PB4)*%
X-108203600Y148458600D03*
%TD*%
D27*
%TO.P,R3,1,1*%
%TO.N,Net-(U1-PA7)*%
X-126801100Y136228600D03*
%TO.P,R3,2,2*%
%TO.N,5V*%
X-126801100Y137878600D03*
%TD*%
D14*
%TO.P,R11,1,1*%
%TO.N,Net-(D5-Pad1)*%
X-106553600Y146553600D03*
%TO.P,R11,2,2*%
%TO.N,5V*%
X-108203600Y146553600D03*
%TD*%
D29*
%TO.P,P1,1,1*%
%TO.N,GND*%
X-131801100Y147553600D03*
D30*
%TO.P,P1,2,2*%
%TO.N,Net-(U3-A)*%
X-131801100Y145053600D03*
%TO.P,P1,3,3*%
%TO.N,Net-(U3-B)*%
X-131801100Y142553600D03*
%TD*%
D19*
%TO.P,J4,1,Pin_1*%
%TO.N,GND*%
X-133261100Y163423600D03*
D20*
%TO.P,J4,2,Pin_2*%
%TO.N,12V*%
X-130721100Y163423600D03*
%TO.P,J4,3,Pin_3*%
%TO.N,/Tach1*%
X-128181100Y163423600D03*
%TO.P,J4,4,Pin_4*%
%TO.N,/PWM_OUT1*%
X-125641100Y163423600D03*
%TD*%
D14*
%TO.P,R13,1,1*%
%TO.N,Net-(D7-Pad1)*%
X-106553600Y150363600D03*
%TO.P,R13,2,2*%
%TO.N,Net-(U1-PB3{slash}TOSC1)*%
X-108203600Y150363600D03*
%TD*%
D31*
%TO.P,C10,1,1*%
%TO.N,GND*%
X-100801100Y144028600D03*
%TO.P,C10,2,2*%
%TO.N,12V*%
X-100801100Y141078600D03*
%TD*%
D23*
%TO.P,C1,1,1*%
%TO.N,GND*%
X-125726100Y140053600D03*
%TO.P,C1,2,2*%
%TO.N,5V*%
X-127276100Y140053600D03*
%TD*%
D32*
%TO.P,U1,1,PA2/SCL*%
%TO.N,/RXD*%
X-118661100Y149763600D03*
%TO.P,U1,2,PA3*%
%TO.N,Net-(U1-PA3)*%
X-118661100Y149363600D03*
%TO.P,U1,3,GND*%
%TO.N,GND*%
X-118661100Y148963600D03*
%TO.P,U1,4,VDD*%
%TO.N,5V*%
X-118661100Y148563600D03*
%TO.P,U1,5,PA4*%
%TO.N,/XDIR*%
X-118661100Y148163600D03*
D33*
%TO.P,U1,6,PA5*%
%TO.N,unconnected-(U1-PA5-Pad6)*%
X-118011100Y147513600D03*
%TO.P,U1,7,PA6*%
%TO.N,unconnected-(U1-PA6-Pad7)*%
X-117611100Y147513600D03*
%TO.P,U1,8,PA7*%
%TO.N,Net-(U1-PA7)*%
X-117211100Y147513600D03*
%TO.P,U1,9,PB5*%
%TO.N,Net-(U1-PB5)*%
X-116811100Y147513600D03*
%TO.P,U1,10,PB4*%
%TO.N,Net-(U1-PB4)*%
X-116411100Y147513600D03*
D32*
%TO.P,U1,11,PB3/TOSC1*%
%TO.N,Net-(U1-PB3{slash}TOSC1)*%
X-115761100Y148163600D03*
%TO.P,U1,12,PB2/TOSC2*%
%TO.N,Net-(U1-PB2{slash}TOSC2)*%
X-115761100Y148563600D03*
%TO.P,U1,13,PB1*%
%TO.N,Net-(U1-PB1)*%
X-115761100Y148963600D03*
%TO.P,U1,14,PB0*%
%TO.N,Net-(U1-PB0)*%
X-115761100Y149363600D03*
%TO.P,U1,15,PC0*%
%TO.N,Net-(U1-PC0)*%
X-115761100Y149763600D03*
D33*
%TO.P,U1,16,PC1*%
%TO.N,Net-(U1-PC1)*%
X-116411100Y150413600D03*
%TO.P,U1,17,PC2*%
%TO.N,Net-(U1-PC2)*%
X-116811100Y150413600D03*
%TO.P,U1,18,PC3*%
%TO.N,Net-(U1-PC3)*%
X-117211100Y150413600D03*
%TO.P,U1,19,PA0/~{RESET}/UPDI*%
%TO.N,/UPDI{slash}~{RESET}*%
X-117611100Y150413600D03*
%TO.P,U1,20,PA1/SDA*%
%TO.N,/TXD*%
X-118011100Y150413600D03*
D34*
%TO.P,U1,21,PAD*%
%TO.N,GND*%
X-117211100Y148963600D03*
%TD*%
D27*
%TO.P,R10,1,1*%
%TO.N,/PWM_OUT5*%
X-113301100Y132728600D03*
%TO.P,R10,2,2*%
%TO.N,Net-(U1-PB1)*%
X-113301100Y134378600D03*
%TD*%
D16*
%TO.P,R4,1,1*%
%TO.N,Net-(U1-PC3)*%
X-117301100Y158878600D03*
%TO.P,R4,2,2*%
%TO.N,5V*%
X-117301100Y157228600D03*
%TD*%
%TO.P,R2,1,1*%
%TO.N,/PWM_OUT2*%
X-112941100Y158878600D03*
%TO.P,R2,2,2*%
%TO.N,Net-(U1-PC0)*%
X-112941100Y157228600D03*
%TD*%
D27*
%TO.P,R6,1,1*%
%TO.N,/UPDI{slash}~{RESET}*%
X-131051100Y154978600D03*
%TO.P,R6,2,2*%
%TO.N,5V*%
X-131051100Y156628600D03*
%TD*%
D17*
%TO.P,D2,1,1*%
%TO.N,/Tach5*%
X-115301100Y132503600D03*
%TO.P,D2,2,2*%
%TO.N,Net-(U1-PB5)*%
X-115301100Y134603600D03*
%TD*%
D35*
%TO.N,GND*%
X-116801100Y148553600D03*
D36*
X-126128600Y152688600D03*
D35*
X-117551100Y149303600D03*
X-116801100Y149303600D03*
D36*
X-100801100Y146553600D03*
X-100166100Y145728600D03*
X-126128600Y151418600D03*
X-101436100Y145728600D03*
X-112976100Y141918600D03*
X-125596100Y145458600D03*
X-102228600Y142553600D03*
X-112976100Y143188600D03*
X-124046100Y140053600D03*
D35*
X-117551100Y148553600D03*
D36*
%TO.N,12V*%
X-100801100Y139808600D03*
X-103663600Y140191100D03*
%TO.N,5V*%
X-110301100Y146553600D03*
X-128956100Y141648600D03*
X-112301100Y140053600D03*
X-131571100Y151533600D03*
X-117301100Y155803600D03*
X-129301100Y155953600D03*
D35*
X-122801100Y148803600D03*
D36*
X-110801100Y155803600D03*
X-115301100Y140153600D03*
X-111301100Y140053600D03*
X-131571100Y152553600D03*
X-110301100Y140053600D03*
X-122551100Y140053600D03*
D37*
%TO.N,/RXD*%
X-119801100Y150553600D03*
X-120551100Y141648600D03*
%TO.N,/TXD*%
X-118801100Y151303600D03*
X-120551100Y145458600D03*
%TO.N,Net-(U1-PC1)*%
X-115801100Y151653600D03*
X-123876100Y157228600D03*
%TO.N,/UPDI{slash}~{RESET}*%
X-125386100Y155038600D03*
X-120001100Y152453600D03*
%TO.N,Net-(U1-PB1)*%
X-114401100Y149253600D03*
X-114401100Y146453600D03*
%TO.N,Net-(U1-PB2{slash}TOSC2)*%
X-113601100Y148853600D03*
X-117401100Y140453600D03*
%TO.N,Net-(U1-PC2)*%
X-112201100Y155053600D03*
X-114601100Y154453600D03*
%TD*%
D38*
%TO.N,GND*%
X-102228600Y142553600D02*
X-103663600Y142553600D01*
X-103226100Y146553600D02*
X-100801100Y146553600D01*
X-127398600Y151418600D02*
X-126128600Y151418600D01*
X-111706100Y143188600D02*
X-112976100Y143188600D01*
D39*
X-120116100Y148963600D02*
X-118661100Y148963600D01*
D40*
X-125726100Y140053600D02*
X-124046100Y140053600D01*
D38*
X-103226100Y146553600D02*
X-103226100Y150363600D01*
D41*
X-118661100Y148963600D02*
X-117551100Y148963600D01*
D38*
X-111706100Y141918600D02*
X-112976100Y141918600D01*
D41*
X-120276100Y148803600D02*
X-120116100Y148963600D01*
D38*
X-127398600Y152688600D02*
X-126128600Y152688600D01*
D40*
X-100166100Y144458600D02*
X-100166100Y145728600D01*
D41*
X-117551100Y148963600D02*
X-117211100Y148963600D01*
D40*
X-127276100Y145458600D02*
X-125596100Y145458600D01*
X-101436100Y144458600D02*
X-101436100Y145728600D01*
D42*
%TO.N,12V*%
X-100801100Y141078600D02*
X-100801100Y139808600D01*
D43*
X-103663600Y140191100D02*
X-103663600Y141603600D01*
X-102851100Y141603600D02*
X-102301100Y141053600D01*
X-102301100Y141053600D02*
X-100826100Y141053600D01*
X-100826100Y141053600D02*
X-100801100Y141078600D01*
X-103663600Y141603600D02*
X-102851100Y141603600D01*
D42*
X-106581100Y136723600D02*
X-107051100Y136253600D01*
D41*
%TO.N,5V*%
X-115301100Y137878600D02*
X-115301100Y140153600D01*
D39*
X-121138600Y148116100D02*
X-120976100Y147953600D01*
D41*
X-122551100Y139303600D02*
X-122551100Y140053600D01*
D40*
X-127276100Y140053600D02*
X-127276100Y141648600D01*
D39*
X-121826100Y148803600D02*
X-122801100Y148803600D01*
D43*
X-110301100Y140053600D02*
X-111301100Y140053600D01*
D41*
X-129301100Y157228600D02*
X-129301100Y155953600D01*
D43*
X-108263600Y142116100D02*
X-108263600Y142553600D01*
X-105938600Y140916100D02*
X-106801100Y140053600D01*
D39*
X-119291100Y148563600D02*
X-119701100Y148153600D01*
D41*
X-131051100Y156628600D02*
X-129976100Y156628600D01*
D39*
X-119901100Y147953600D02*
X-120201100Y147953600D01*
D43*
X-105938600Y141603600D02*
X-107751100Y141603600D01*
D38*
X-130301100Y152553600D02*
X-131571100Y152553600D01*
D41*
X-123976100Y137878600D02*
X-122551100Y139303600D01*
D39*
X-121074900Y148052400D02*
X-121138600Y148116100D01*
D41*
X-117301100Y157228600D02*
X-117301100Y155803600D01*
X-110801100Y157228600D02*
X-110801100Y155803600D01*
D40*
X-127276100Y141648600D02*
X-128956100Y141648600D01*
D39*
X-118661100Y148563600D02*
X-119291100Y148563600D01*
D41*
X-129301100Y157228600D02*
X-129076100Y157003600D01*
D38*
X-110301100Y146553600D02*
X-108203600Y146553600D01*
D41*
X-129976100Y156628600D02*
X-129301100Y155953600D01*
D39*
X-120201100Y147953600D02*
X-120701100Y147953600D01*
X-120976100Y147953600D02*
X-120701100Y147953600D01*
X-121138600Y148116100D02*
X-121826100Y148803600D01*
D41*
X-126801100Y137878600D02*
X-123976100Y137878600D01*
D43*
X-106801100Y140053600D02*
X-110301100Y140053600D01*
X-111301100Y140053600D02*
X-112301100Y140053600D01*
X-107751100Y141603600D02*
X-108263600Y142116100D01*
D39*
X-119701100Y148153600D02*
X-119802300Y148052400D01*
D43*
X-105938600Y141603600D02*
X-105938600Y140916100D01*
D38*
X-130301100Y151533600D02*
X-131571100Y151533600D01*
D39*
X-119701100Y148153600D02*
X-119901100Y147953600D01*
D41*
%TO.N,/RXD*%
X-119051100Y150553600D02*
X-119801100Y150553600D01*
X-118661100Y150163600D02*
X-119051100Y150553600D01*
X-122326100Y141648600D02*
X-120551100Y141648600D01*
X-118661100Y149763600D02*
X-118661100Y150163600D01*
%TO.N,/XDIR*%
X-120551100Y143053600D02*
X-120551100Y144188600D01*
X-118661100Y146078600D02*
X-120551100Y144188600D01*
X-120551100Y144188600D02*
X-122326100Y144188600D01*
X-118661100Y148163600D02*
X-118661100Y146078600D01*
X-122326100Y142918600D02*
X-120686100Y142918600D01*
X-120686100Y142918600D02*
X-120551100Y143053600D01*
%TO.N,/TXD*%
X-118011100Y150413600D02*
X-118011100Y150899918D01*
X-118414782Y151303600D02*
X-118801100Y151303600D01*
X-118011100Y150899918D02*
X-118414782Y151303600D01*
X-122326100Y145458600D02*
X-120551100Y145458600D01*
%TO.N,Net-(U3-A)*%
X-131801100Y145053600D02*
X-129801100Y145053600D01*
X-129801100Y145053600D02*
X-128936100Y144188600D01*
X-128936100Y144188600D02*
X-127276100Y144188600D01*
%TO.N,Net-(U3-B)*%
X-127276100Y142918600D02*
X-129436100Y142918600D01*
X-131801100Y142553600D02*
X-129801100Y142553600D01*
X-129436100Y142918600D02*
X-129801100Y142553600D01*
%TO.N,/Tach4*%
X-127721100Y130133600D02*
X-126801100Y131053600D01*
X-126801100Y131053600D02*
X-126801100Y132503600D01*
X-127721100Y128053600D02*
X-127721100Y130133600D01*
%TO.N,/Tach1*%
X-127301100Y159103600D02*
X-127301100Y160053600D01*
X-127301100Y160053600D02*
X-128181100Y160933600D01*
X-128181100Y160933600D02*
X-128181100Y163423600D01*
%TO.N,/Tach2*%
X-115301100Y160873600D02*
X-115481100Y161053600D01*
X-115301100Y159103600D02*
X-115301100Y160873600D01*
X-115481100Y163423600D02*
X-115481100Y161053600D01*
D38*
%TO.N,Net-(D5-Pad1)*%
X-104801100Y146553600D02*
X-106553600Y146553600D01*
%TO.N,Net-(D6-Pad1)*%
X-106553600Y148458600D02*
X-104801100Y148458600D01*
%TO.N,Net-(D7-Pad1)*%
X-104801100Y150363600D02*
X-106553600Y150363600D01*
D41*
%TO.N,/Tach3*%
X-106751100Y158553600D02*
X-106751100Y160103600D01*
X-102781100Y162523600D02*
X-102781100Y163423600D01*
X-104251100Y161053600D02*
X-102781100Y162523600D01*
X-105801100Y161053600D02*
X-104251100Y161053600D01*
X-106751100Y160103600D02*
X-105801100Y161053600D01*
%TO.N,Net-(U1-PC1)*%
X-125301100Y157228600D02*
X-123876100Y157228600D01*
X-116411100Y151043600D02*
X-115801100Y151653600D01*
X-116411100Y150413600D02*
X-116411100Y151043600D01*
%TO.N,/PWM_OUT1*%
X-125641100Y163423600D02*
X-125641100Y161393600D01*
X-125301100Y161053600D02*
X-125301100Y158878600D01*
X-125641100Y161393600D02*
X-125301100Y161053600D01*
%TO.N,/PWM_OUT2*%
X-112941100Y158878600D02*
X-112941100Y163423600D01*
%TO.N,/PWM_OUT3*%
X-103111100Y160553600D02*
X-100241100Y163423600D01*
X-105801100Y157863600D02*
X-105801100Y160053600D01*
X-106976100Y156688600D02*
X-105801100Y157863600D01*
X-105301100Y160553600D02*
X-103111100Y160553600D01*
X-106976100Y156553600D02*
X-106976100Y156688600D01*
D38*
X-100051100Y163233600D02*
X-100241100Y163423600D01*
D41*
X-105801100Y160053600D02*
X-105301100Y160553600D01*
%TO.N,/UPDI{slash}~{RESET}*%
X-117611100Y151863600D02*
X-118201100Y152453600D01*
X-118201100Y152453600D02*
X-120001100Y152453600D01*
X-117611100Y150413600D02*
X-117611100Y151863600D01*
X-127816100Y155038600D02*
X-125386100Y155038600D01*
X-133801100Y155038600D02*
X-127816100Y155038600D01*
%TO.N,Net-(U1-PB1)*%
X-113301100Y138053600D02*
X-113301100Y134378600D01*
X-114401100Y146453600D02*
X-114401100Y139153600D01*
X-114691100Y148963600D02*
X-114401100Y149253600D01*
X-115761100Y148963600D02*
X-114691100Y148963600D01*
X-114401100Y139153600D02*
X-113301100Y138053600D01*
%TO.N,Net-(U1-PB3{slash}TOSC1)*%
X-115761100Y148163600D02*
X-112191100Y148163600D01*
X-112191100Y148163600D02*
X-109991100Y150363600D01*
X-109991100Y150363600D02*
X-108203600Y150363600D01*
%TO.N,Net-(U1-PB4)*%
X-108203600Y148458600D02*
X-110896100Y148458600D01*
X-110896100Y148458600D02*
X-111841100Y147513600D01*
X-111841100Y147513600D02*
X-116411100Y147513600D01*
X-108253600Y148408600D02*
X-108203600Y148458600D01*
%TO.N,Net-(U1-PB2{slash}TOSC2)*%
X-124801100Y134378600D02*
X-122676100Y134378600D01*
X-117401100Y139653600D02*
X-117401100Y140453600D01*
X-115761100Y148563600D02*
X-113891100Y148563600D01*
X-122676100Y134378600D02*
X-117401100Y139653600D01*
X-113891100Y148563600D02*
X-113601100Y148853600D01*
%TO.N,/Tach5*%
X-115301100Y131053600D02*
X-115301100Y132503600D01*
X-115481100Y128053600D02*
X-115481100Y130873600D01*
X-115481100Y130873600D02*
X-115301100Y131053600D01*
%TO.N,/PWM_OUT4*%
X-125181100Y130673600D02*
X-124801100Y131053600D01*
X-124801100Y131053600D02*
X-124801100Y132728600D01*
X-125181100Y128053600D02*
X-125181100Y130673600D01*
%TO.N,/PWM_OUT5*%
X-112941100Y130193600D02*
X-113301100Y130553600D01*
X-112941100Y128053600D02*
X-112941100Y130193600D01*
X-113301100Y130553600D02*
X-113301100Y132728600D01*
%TO.N,Net-(U1-PA7)*%
X-117211100Y142643600D02*
X-117211100Y147513600D01*
X-126801100Y136228600D02*
X-123626100Y136228600D01*
X-123626100Y136228600D02*
X-117211100Y142643600D01*
X-126801100Y134603600D02*
X-126801100Y136228600D01*
%TO.N,Net-(U1-PB5)*%
X-115301100Y136228600D02*
X-115301100Y134603600D01*
X-116811100Y141563600D02*
X-116301100Y141053600D01*
X-116301100Y141053600D02*
X-116301100Y137228600D01*
X-116301100Y137228600D02*
X-115301100Y136228600D01*
X-116811100Y147513600D02*
X-116811100Y141563600D01*
%TO.N,Net-(U1-PC0)*%
X-115761100Y150453600D02*
X-112941100Y153273600D01*
X-115761100Y149763600D02*
X-115761100Y150453600D01*
X-112941100Y153273600D02*
X-112941100Y157228600D01*
%TO.N,Net-(U1-PB0)*%
X-115091100Y149363600D02*
X-108626100Y155828600D01*
X-108626100Y155828600D02*
X-108626100Y156553600D01*
X-115761100Y149363600D02*
X-115091100Y149363600D01*
%TO.N,Net-(U1-PA3)*%
X-124551100Y155803600D02*
X-122001100Y153253600D01*
X-129301100Y158878600D02*
X-128426100Y158878600D01*
X-128201100Y157403600D02*
X-127801100Y157003600D01*
X-127801100Y157003600D02*
X-127301100Y157003600D01*
X-127301100Y157003600D02*
X-127301100Y156303600D01*
X-119611100Y149363600D02*
X-118661100Y149363600D01*
X-127301100Y156303600D02*
X-126801100Y155803600D01*
X-122001100Y151753600D02*
X-119611100Y149363600D01*
X-126801100Y155803600D02*
X-124551100Y155803600D01*
X-128426100Y158878600D02*
X-128201100Y158653600D01*
X-128201100Y158653600D02*
X-128201100Y157403600D01*
X-122001100Y153253600D02*
X-122001100Y151753600D01*
%TO.N,Net-(U1-PC3)*%
X-117211100Y150413600D02*
X-117211100Y153643600D01*
X-117301100Y158878600D02*
X-117176100Y158878600D01*
X-115301100Y155553600D02*
X-115301100Y157003600D01*
X-117211100Y153643600D02*
X-115301100Y155553600D01*
X-117176100Y158878600D02*
X-115301100Y157003600D01*
%TO.N,Net-(U1-PC2)*%
X-111801100Y157878600D02*
X-110801100Y158878600D01*
X-111801100Y155453600D02*
X-111801100Y157878600D01*
X-110126100Y158878600D02*
X-109801100Y158553600D01*
X-116811100Y150413600D02*
X-116811100Y151653600D01*
X-116811100Y151653600D02*
X-116811100Y152043600D01*
X-116811100Y151653600D02*
X-116811100Y152243600D01*
X-116811100Y152043600D02*
X-116801100Y152053600D01*
X-110801100Y158878600D02*
X-110126100Y158878600D01*
X-108851100Y158553600D02*
X-109801100Y158553600D01*
X-116811100Y152243600D02*
X-114601100Y154453600D01*
X-112201100Y155053600D02*
X-111801100Y155453600D01*
%TD*%
M02*
