%TF.GenerationSoftware,KiCad,Pcbnew,7.0.8*%
%TF.CreationDate,2024-01-22T00:16:33-08:00*%
%TF.ProjectId,PWMGen R1,50574d47-656e-4205-9231-2e6b69636164,rev?*%
%TF.SameCoordinates,Original*%
%TF.FileFunction,Copper,L4,Bot*%
%TF.FilePolarity,Positive*%
%FSLAX46Y46*%
G04 Gerber Fmt 4.6, Leading zero omitted, Abs format (unit mm)*
G04 Created by KiCad (PCBNEW 7.0.8) date 2024-01-22 00:16:33*
%MOMM*%
%LPD*%
G01*
G04 APERTURE LIST*
G04 Aperture macros list*
%AMRoundRect*
0 Rectangle with rounded corners*
0 $1 Rounding radius*
0 $2 $3 $4 $5 $6 $7 $8 $9 X,Y pos of 4 corners*
0 Add a 4 corners polygon primitive as box body*
4,1,4,$2,$3,$4,$5,$6,$7,$8,$9,$2,$3,0*
0 Add four circle primitives for the rounded corners*
1,1,$1+$1,$2,$3*
1,1,$1+$1,$4,$5*
1,1,$1+$1,$6,$7*
1,1,$1+$1,$8,$9*
0 Add four rect primitives between the rounded corners*
20,1,$1+$1,$2,$3,$4,$5,0*
20,1,$1+$1,$4,$5,$6,$7,0*
20,1,$1+$1,$6,$7,$8,$9,0*
20,1,$1+$1,$8,$9,$2,$3,0*%
G04 Aperture macros list end*
%TA.AperFunction,ComponentPad*%
%ADD10R,1.700000X1.700000*%
%TD*%
%TA.AperFunction,ComponentPad*%
%ADD11O,1.700000X1.700000*%
%TD*%
%TA.AperFunction,ComponentPad*%
%ADD12R,2.100000X2.100000*%
%TD*%
%TA.AperFunction,ComponentPad*%
%ADD13C,2.100000*%
%TD*%
%TA.AperFunction,ComponentPad*%
%ADD14C,0.800000*%
%TD*%
%TA.AperFunction,ComponentPad*%
%ADD15C,6.400000*%
%TD*%
%TA.AperFunction,ComponentPad*%
%ADD16RoundRect,0.250001X1.399999X-1.099999X1.399999X1.099999X-1.399999X1.099999X-1.399999X-1.099999X0*%
%TD*%
%TA.AperFunction,ComponentPad*%
%ADD17O,3.300000X2.700000*%
%TD*%
%TA.AperFunction,ComponentPad*%
%ADD18RoundRect,0.250000X-0.725000X0.600000X-0.725000X-0.600000X0.725000X-0.600000X0.725000X0.600000X0*%
%TD*%
%TA.AperFunction,ComponentPad*%
%ADD19O,1.950000X1.700000*%
%TD*%
%TA.AperFunction,ViaPad*%
%ADD20C,0.600000*%
%TD*%
%TA.AperFunction,ViaPad*%
%ADD21C,0.800000*%
%TD*%
%TA.AperFunction,ViaPad*%
%ADD22C,0.550000*%
%TD*%
%TA.AperFunction,Conductor*%
%ADD23C,0.635000*%
%TD*%
%TA.AperFunction,Conductor*%
%ADD24C,0.152400*%
%TD*%
G04 APERTURE END LIST*
D10*
%TO.P,P6,1,1*%
%TO.N,GND*%
X-133801100Y157578600D03*
D11*
%TO.P,P6,2,2*%
%TO.N,/UPDI{slash}~{RESET}*%
X-133801100Y155038600D03*
%TO.P,P6,3,3*%
%TO.N,5V*%
X-133801100Y152498600D03*
%TD*%
D12*
%TO.P,J1,1,Pin_1*%
%TO.N,GND*%
X-132801100Y128053600D03*
D13*
%TO.P,J1,2,Pin_2*%
%TO.N,12V*%
X-130261100Y128053600D03*
%TO.P,J1,3,Pin_3*%
%TO.N,/Tach4*%
X-127721100Y128053600D03*
%TO.P,J1,4,Pin_4*%
%TO.N,/PWM_OUT4*%
X-125181100Y128053600D03*
%TD*%
D14*
%TO.P,H1,1*%
%TO.N,N/C*%
X-134201100Y136053600D03*
X-133498156Y137750656D03*
X-133498156Y134356544D03*
X-131801100Y138453600D03*
D15*
X-131801100Y136053600D03*
D14*
X-131801100Y133653600D03*
X-130104044Y137750656D03*
X-130104044Y134356544D03*
X-129401100Y136053600D03*
%TD*%
%TO.P,H2,1*%
%TO.N,N/C*%
X-104201100Y156053600D03*
X-103498156Y157750656D03*
X-103498156Y154356544D03*
X-101801100Y158453600D03*
D15*
X-101801100Y156053600D03*
D14*
X-101801100Y153653600D03*
X-100104044Y157750656D03*
X-100104044Y154356544D03*
X-99401100Y156053600D03*
%TD*%
D16*
%TO.P,J2,1,Pin_1*%
%TO.N,12V*%
X-107051100Y127853600D03*
D17*
%TO.P,J2,2,Pin_2*%
X-107051100Y132053600D03*
%TO.P,J2,3,Pin_3*%
X-107051100Y136253600D03*
%TO.P,J2,4,Pin_4*%
%TO.N,GND*%
X-101551100Y127853600D03*
%TO.P,J2,5,Pin_5*%
X-101551100Y132053600D03*
%TO.P,J2,6,Pin_6*%
X-101551100Y136253600D03*
%TD*%
D12*
%TO.P,J3,1,Pin_1*%
%TO.N,GND*%
X-120561100Y128053600D03*
D13*
%TO.P,J3,2,Pin_2*%
%TO.N,12V*%
X-118021100Y128053600D03*
%TO.P,J3,3,Pin_3*%
%TO.N,/Tach5*%
X-115481100Y128053600D03*
%TO.P,J3,4,Pin_4*%
%TO.N,/PWM_OUT5*%
X-112941100Y128053600D03*
%TD*%
D12*
%TO.P,J5,1,Pin_1*%
%TO.N,GND*%
X-120561100Y163423600D03*
D13*
%TO.P,J5,2,Pin_2*%
%TO.N,12V*%
X-118021100Y163423600D03*
%TO.P,J5,3,Pin_3*%
%TO.N,/Tach2*%
X-115481100Y163423600D03*
%TO.P,J5,4,Pin_4*%
%TO.N,/PWM_OUT2*%
X-112941100Y163423600D03*
%TD*%
D12*
%TO.P,J6,1,Pin_1*%
%TO.N,GND*%
X-107861100Y163423600D03*
D13*
%TO.P,J6,2,Pin_2*%
%TO.N,12V*%
X-105321100Y163423600D03*
%TO.P,J6,3,Pin_3*%
%TO.N,/Tach3*%
X-102781100Y163423600D03*
%TO.P,J6,4,Pin_4*%
%TO.N,/PWM_OUT3*%
X-100241100Y163423600D03*
%TD*%
D18*
%TO.P,P1,1,1*%
%TO.N,GND*%
X-131801100Y147553600D03*
D19*
%TO.P,P1,2,2*%
%TO.N,Net-(U3-A)*%
X-131801100Y145053600D03*
%TO.P,P1,3,3*%
%TO.N,Net-(U3-B)*%
X-131801100Y142553600D03*
%TD*%
D12*
%TO.P,J4,1,Pin_1*%
%TO.N,GND*%
X-133261100Y163423600D03*
D13*
%TO.P,J4,2,Pin_2*%
%TO.N,12V*%
X-130721100Y163423600D03*
%TO.P,J4,3,Pin_3*%
%TO.N,/Tach1*%
X-128181100Y163423600D03*
%TO.P,J4,4,Pin_4*%
%TO.N,/PWM_OUT1*%
X-125641100Y163423600D03*
%TD*%
D20*
%TO.N,GND*%
X-116801100Y148553600D03*
D21*
X-126128600Y152688600D03*
D20*
X-117551100Y149303600D03*
X-116801100Y149303600D03*
D21*
X-100801100Y146553600D03*
X-100166100Y145728600D03*
X-126128600Y151418600D03*
X-101436100Y145728600D03*
X-112976100Y141918600D03*
X-125596100Y145458600D03*
X-102228600Y142553600D03*
X-112976100Y143188600D03*
X-124046100Y140053600D03*
D20*
X-117551100Y148553600D03*
D21*
%TO.N,12V*%
X-100801100Y139808600D03*
X-103663600Y140191100D03*
%TO.N,5V*%
X-110301100Y146553600D03*
X-128956100Y141648600D03*
X-112301100Y140053600D03*
X-131571100Y151533600D03*
X-117301100Y155803600D03*
X-129301100Y155953600D03*
D20*
X-122801100Y148803600D03*
D21*
X-110801100Y155803600D03*
X-115301100Y140153600D03*
X-111301100Y140053600D03*
X-131571100Y152553600D03*
X-110301100Y140053600D03*
X-122551100Y140053600D03*
D22*
%TO.N,/RXD*%
X-119801100Y150553600D03*
X-120551100Y141648600D03*
%TO.N,/TXD*%
X-118801100Y151303600D03*
X-120551100Y145458600D03*
%TO.N,Net-(U1-PC1)*%
X-115801100Y151653600D03*
X-123876100Y157228600D03*
%TO.N,/UPDI{slash}~{RESET}*%
X-125386100Y155038600D03*
X-120001100Y152453600D03*
%TO.N,Net-(U1-PB1)*%
X-114401100Y149253600D03*
X-114401100Y146453600D03*
%TO.N,Net-(U1-PB2{slash}TOSC2)*%
X-113601100Y148853600D03*
X-117401100Y140453600D03*
%TO.N,Net-(U1-PC2)*%
X-112201100Y155053600D03*
X-114601100Y154453600D03*
%TD*%
D23*
%TO.N,12V*%
X-107051100Y136253600D02*
X-107051100Y127853600D01*
D24*
%TO.N,/RXD*%
X-121801100Y142898600D02*
X-120551100Y141648600D01*
X-121801100Y148553600D02*
X-121801100Y144803600D01*
X-121801100Y144803600D02*
X-121801100Y142898600D01*
X-119801100Y150553600D02*
X-121801100Y148553600D01*
%TO.N,/TXD*%
X-118801100Y151303600D02*
X-118801100Y150053600D01*
X-120551100Y148303600D02*
X-120551100Y145458600D01*
X-118801100Y150053600D02*
X-120551100Y148303600D01*
%TO.N,Net-(U1-PC1)*%
X-123876100Y157228600D02*
X-120176100Y157228600D01*
X-120176100Y157228600D02*
X-119501100Y156553600D01*
X-115801100Y151653600D02*
X-115801100Y152853600D01*
X-115801100Y152853600D02*
X-119501100Y156553600D01*
%TO.N,/UPDI{slash}~{RESET}*%
X-125386100Y155038600D02*
X-124386100Y155038600D01*
X-124386100Y155038600D02*
X-121801100Y152453600D01*
X-121801100Y152453600D02*
X-120001100Y152453600D01*
%TO.N,Net-(U1-PB1)*%
X-114401100Y149253600D02*
X-114401100Y146453600D01*
%TO.N,Net-(U1-PB2{slash}TOSC2)*%
X-117401100Y141653600D02*
X-117401100Y140453600D01*
X-113601100Y148853600D02*
X-113601100Y145453600D01*
X-113601100Y145453600D02*
X-117401100Y141653600D01*
%TO.N,Net-(U1-PC2)*%
X-114601100Y154453600D02*
X-114001100Y155053600D01*
X-114001100Y155053600D02*
X-112201100Y155053600D01*
%TD*%
M02*
