%TF.GenerationSoftware,KiCad,Pcbnew,7.0.8*%
%TF.CreationDate,2024-01-22T00:16:33-08:00*%
%TF.ProjectId,PWMGen R1,50574d47-656e-4205-9231-2e6b69636164,rev?*%
%TF.SameCoordinates,Original*%
%TF.FileFunction,Paste,Top*%
%TF.FilePolarity,Positive*%
%FSLAX46Y46*%
G04 Gerber Fmt 4.6, Leading zero omitted, Abs format (unit mm)*
G04 Created by KiCad (PCBNEW 7.0.8) date 2024-01-22 00:16:33*
%MOMM*%
%LPD*%
G01*
G04 APERTURE LIST*
G04 Aperture macros list*
%AMRoundRect*
0 Rectangle with rounded corners*
0 $1 Rounding radius*
0 $2 $3 $4 $5 $6 $7 $8 $9 X,Y pos of 4 corners*
0 Add a 4 corners polygon primitive as box body*
4,1,4,$2,$3,$4,$5,$6,$7,$8,$9,$2,$3,0*
0 Add four circle primitives for the rounded corners*
1,1,$1+$1,$2,$3*
1,1,$1+$1,$4,$5*
1,1,$1+$1,$6,$7*
1,1,$1+$1,$8,$9*
0 Add four rect primitives between the rounded corners*
20,1,$1+$1,$2,$3,$4,$5,0*
20,1,$1+$1,$4,$5,$6,$7,0*
20,1,$1+$1,$6,$7,$8,$9,0*
20,1,$1+$1,$8,$9,$2,$3,0*%
G04 Aperture macros list end*
%ADD10RoundRect,0.150000X0.825000X0.150000X-0.825000X0.150000X-0.825000X-0.150000X0.825000X-0.150000X0*%
%ADD11RoundRect,0.218750X-0.218750X-0.256250X0.218750X-0.256250X0.218750X0.256250X-0.218750X0.256250X0*%
%ADD12RoundRect,0.200000X0.200000X0.275000X-0.200000X0.275000X-0.200000X-0.275000X0.200000X-0.275000X0*%
%ADD13R,0.600000X0.450000*%
%ADD14RoundRect,0.200000X-0.275000X0.200000X-0.275000X-0.200000X0.275000X-0.200000X0.275000X0.200000X0*%
%ADD15R,0.450000X0.600000*%
%ADD16RoundRect,0.250000X0.325000X0.650000X-0.325000X0.650000X-0.325000X-0.650000X0.325000X-0.650000X0*%
%ADD17RoundRect,0.225000X0.225000X0.250000X-0.225000X0.250000X-0.225000X-0.250000X0.225000X-0.250000X0*%
%ADD18RoundRect,0.250000X0.412500X0.925000X-0.412500X0.925000X-0.412500X-0.925000X0.412500X-0.925000X0*%
%ADD19RoundRect,0.200000X0.275000X-0.200000X0.275000X0.200000X-0.275000X0.200000X-0.275000X-0.200000X0*%
%ADD20RoundRect,0.150000X0.512500X0.150000X-0.512500X0.150000X-0.512500X-0.150000X0.512500X-0.150000X0*%
%ADD21RoundRect,0.250000X-0.650000X0.325000X-0.650000X-0.325000X0.650000X-0.325000X0.650000X0.325000X0*%
%ADD22RoundRect,0.167500X-0.167500X-0.167500X0.167500X-0.167500X0.167500X0.167500X-0.167500X0.167500X0*%
%ADD23RoundRect,0.050000X-0.375000X-0.050000X0.375000X-0.050000X0.375000X0.050000X-0.375000X0.050000X0*%
%ADD24RoundRect,0.050000X-0.050000X-0.375000X0.050000X-0.375000X0.050000X0.375000X-0.050000X0.375000X0*%
G04 APERTURE END LIST*
D10*
%TO.C,U3*%
X-122326100Y141648600D03*
X-122326100Y142918600D03*
X-122326100Y144188600D03*
X-122326100Y145458600D03*
X-127276100Y145458600D03*
X-127276100Y144188600D03*
X-127276100Y142918600D03*
X-127276100Y141648600D03*
%TD*%
D11*
%TO.C,D5*%
X-104801100Y146553600D03*
X-103226100Y146553600D03*
%TD*%
D12*
%TO.C,R16*%
X-106976100Y156553600D03*
X-108626100Y156553600D03*
%TD*%
D13*
%TO.C,D15*%
X-106751100Y158553600D03*
X-108851100Y158553600D03*
%TD*%
D14*
%TO.C,R17*%
X-129301100Y158878600D03*
X-129301100Y157228600D03*
%TD*%
%TO.C,R1*%
X-125301100Y158878600D03*
X-125301100Y157228600D03*
%TD*%
D15*
%TO.C,D1*%
X-126801100Y132503600D03*
X-126801100Y134603600D03*
%TD*%
D16*
%TO.C,C11*%
X-127326100Y152053600D03*
X-130276100Y152053600D03*
%TD*%
D15*
%TO.C,D4*%
X-115301100Y159103600D03*
X-115301100Y157003600D03*
%TD*%
D17*
%TO.C,C8*%
X-120276100Y148803600D03*
X-121826100Y148803600D03*
%TD*%
D11*
%TO.C,D6*%
X-104801100Y148458600D03*
X-103226100Y148458600D03*
%TD*%
D18*
%TO.C,C13*%
X-108263600Y142553600D03*
X-111338600Y142553600D03*
%TD*%
D14*
%TO.C,R5*%
X-110801100Y158878600D03*
X-110801100Y157228600D03*
%TD*%
D19*
%TO.C,R7*%
X-115301100Y136228600D03*
X-115301100Y137878600D03*
%TD*%
D15*
%TO.C,D3*%
X-127301100Y159103600D03*
X-127301100Y157003600D03*
%TD*%
D11*
%TO.C,D7*%
X-104801100Y150363600D03*
X-103226100Y150363600D03*
%TD*%
D19*
%TO.C,R9*%
X-124801100Y132728600D03*
X-124801100Y134378600D03*
%TD*%
D20*
%TO.C,U2*%
X-103663600Y141603600D03*
X-103663600Y142553600D03*
X-103663600Y143503600D03*
X-105938600Y143503600D03*
X-105938600Y141603600D03*
%TD*%
D12*
%TO.C,R12*%
X-106553600Y148458600D03*
X-108203600Y148458600D03*
%TD*%
D19*
%TO.C,R3*%
X-126801100Y136228600D03*
X-126801100Y137878600D03*
%TD*%
D12*
%TO.C,R11*%
X-106553600Y146553600D03*
X-108203600Y146553600D03*
%TD*%
%TO.C,R13*%
X-106553600Y150363600D03*
X-108203600Y150363600D03*
%TD*%
D21*
%TO.C,C10*%
X-100801100Y144028600D03*
X-100801100Y141078600D03*
%TD*%
D17*
%TO.C,C1*%
X-125726100Y140053600D03*
X-127276100Y140053600D03*
%TD*%
D22*
%TO.C,U1*%
X-117621100Y149373600D03*
X-117621100Y148553600D03*
X-116801100Y149373600D03*
X-116801100Y148553600D03*
D23*
X-118661100Y149763600D03*
X-118661100Y149363600D03*
X-118661100Y148963600D03*
X-118661100Y148563600D03*
X-118661100Y148163600D03*
D24*
X-118011100Y147513600D03*
X-117611100Y147513600D03*
X-117211100Y147513600D03*
X-116811100Y147513600D03*
X-116411100Y147513600D03*
D23*
X-115761100Y148163600D03*
X-115761100Y148563600D03*
X-115761100Y148963600D03*
X-115761100Y149363600D03*
X-115761100Y149763600D03*
D24*
X-116411100Y150413600D03*
X-116811100Y150413600D03*
X-117211100Y150413600D03*
X-117611100Y150413600D03*
X-118011100Y150413600D03*
%TD*%
D19*
%TO.C,R10*%
X-113301100Y132728600D03*
X-113301100Y134378600D03*
%TD*%
D14*
%TO.C,R4*%
X-117301100Y158878600D03*
X-117301100Y157228600D03*
%TD*%
%TO.C,R2*%
X-112941100Y158878600D03*
X-112941100Y157228600D03*
%TD*%
D19*
%TO.C,R6*%
X-131051100Y154978600D03*
X-131051100Y156628600D03*
%TD*%
D15*
%TO.C,D2*%
X-115301100Y132503600D03*
X-115301100Y134603600D03*
%TD*%
M02*
