M48
; DRILL file {KiCad 7.0.8} date Wed Apr  3 00:29:45 2024
; FORMAT={3:3/ absolute / metric / suppress trailing zeros}
; #@! TF.CreationDate,2024-04-03T00:29:45-07:00
; #@! TF.GenerationSoftware,Kicad,Pcbnew,7.0.8
; #@! TF.FileFunction,MixedPlating,1,2
FMAT,2
METRIC,LZ
; #@! TA.AperFunction,Plated,PTH,ViaDrill
T1C0.762
; #@! TA.AperFunction,Plated,PTH,ComponentDrill
T2C0.762
; #@! TA.AperFunction,Plated,PTH,ComponentDrill
T3C0.950
%
G90
G05
T1
X008255Y01651
X008255Y01016
X018415Y018415
X018415Y008255
X028575Y023495
X028575Y01016
X028575Y008255
X028575Y001905
T2
X00127Y02413
X00127Y02159
X00127Y01905
X00127Y01651
X00127Y01397
X00127Y01143
X00127Y00889
X00127Y00635
X00127Y00381
X00127Y00127
X00381Y02413
X00381Y01651
X00381Y01397
X00381Y01143
X00381Y00889
X00381Y00635
X00381Y00127
X032766Y02413
X032766Y01651
X032766Y01397
X032766Y01143
X032766Y00889
X032766Y00635
X035306Y02413
X035306Y02159
X035306Y01905
X035306Y01651
X035306Y01397
X035306Y01143
X035306Y00889
X035306Y00635
X035306Y00381
X035306Y00127
T3
X023385Y02022
X023385Y01772
X023385Y01522
X023385Y01272
X023385Y01022
X023385Y00772
T0
M30
