%TF.GenerationSoftware,KiCad,Pcbnew,7.0.8*%
%TF.CreationDate,2024-04-03T00:29:51-07:00*%
%TF.ProjectId,PrintConnector - R1,5072696e-7443-46f6-9e6e-6563746f7220,rev?*%
%TF.SameCoordinates,Original*%
%TF.FileFunction,Plated,1,2,PTH,Drill*%
%TF.FilePolarity,Positive*%
%FSLAX46Y46*%
G04 Gerber Fmt 4.6, Leading zero omitted, Abs format (unit mm)*
G04 Created by KiCad (PCBNEW 7.0.8) date 2024-04-03 00:29:51*
%MOMM*%
%LPD*%
G01*
G04 APERTURE LIST*
%TA.AperFunction,ViaDrill*%
%ADD10C,0.762000*%
%TD*%
%TA.AperFunction,ComponentDrill*%
%ADD11C,0.762000*%
%TD*%
%TA.AperFunction,ComponentDrill*%
%ADD12C,0.950000*%
%TD*%
G04 APERTURE END LIST*
D10*
X8255000Y16510000D03*
X8255000Y10160000D03*
X18415000Y18415000D03*
X18415000Y8255000D03*
X28575000Y23495000D03*
X28575000Y10160000D03*
X28575000Y8255000D03*
X28575000Y1905000D03*
D11*
%TO.C,J1*%
X1270000Y24130000D03*
X1270000Y21590000D03*
X1270000Y19050000D03*
X1270000Y16510000D03*
X1270000Y13970000D03*
X1270000Y11430000D03*
X1270000Y8890000D03*
X1270000Y6350000D03*
X1270000Y3810000D03*
X1270000Y1270000D03*
X3810000Y24130000D03*
X3810000Y16510000D03*
X3810000Y13970000D03*
X3810000Y11430000D03*
X3810000Y8890000D03*
X3810000Y6350000D03*
X3810000Y1270000D03*
X32766000Y24130000D03*
X32766000Y16510000D03*
X32766000Y13970000D03*
X32766000Y11430000D03*
X32766000Y8890000D03*
X32766000Y6350000D03*
X35306000Y24130000D03*
X35306000Y21590000D03*
X35306000Y19050000D03*
X35306000Y16510000D03*
X35306000Y13970000D03*
X35306000Y11430000D03*
X35306000Y8890000D03*
X35306000Y6350000D03*
X35306000Y3810000D03*
X35306000Y1270000D03*
D12*
%TO.C,J2*%
X23385000Y20220000D03*
X23385000Y17720000D03*
X23385000Y15220000D03*
X23385000Y12720000D03*
X23385000Y10220000D03*
X23385000Y7720000D03*
M02*
