%TF.GenerationSoftware,KiCad,Pcbnew,7.0.8*%
%TF.CreationDate,2024-04-03T00:29:43-07:00*%
%TF.ProjectId,PrintConnector - R1,5072696e-7443-46f6-9e6e-6563746f7220,rev?*%
%TF.SameCoordinates,Original*%
%TF.FileFunction,Legend,Top*%
%TF.FilePolarity,Positive*%
%FSLAX46Y46*%
G04 Gerber Fmt 4.6, Leading zero omitted, Abs format (unit mm)*
G04 Created by KiCad (PCBNEW 7.0.8) date 2024-04-03 00:29:43*
%MOMM*%
%LPD*%
G01*
G04 APERTURE LIST*
%ADD10C,0.150000*%
%ADD11C,0.120000*%
G04 APERTURE END LIST*
D10*
X7667666Y24675180D02*
X7667666Y23960895D01*
X7667666Y23960895D02*
X7620047Y23818038D01*
X7620047Y23818038D02*
X7524809Y23722800D01*
X7524809Y23722800D02*
X7381952Y23675180D01*
X7381952Y23675180D02*
X7286714Y23675180D01*
X8667666Y23675180D02*
X8096238Y23675180D01*
X8381952Y23675180D02*
X8381952Y24675180D01*
X8381952Y24675180D02*
X8286714Y24532323D01*
X8286714Y24532323D02*
X8191476Y24437085D01*
X8191476Y24437085D02*
X8096238Y24389466D01*
X17189819Y15541666D02*
X17904104Y15541666D01*
X17904104Y15541666D02*
X18046961Y15494047D01*
X18046961Y15494047D02*
X18142200Y15398809D01*
X18142200Y15398809D02*
X18189819Y15255952D01*
X18189819Y15255952D02*
X18189819Y15160714D01*
X17189819Y15922619D02*
X17189819Y16541666D01*
X17189819Y16541666D02*
X17570771Y16208333D01*
X17570771Y16208333D02*
X17570771Y16351190D01*
X17570771Y16351190D02*
X17618390Y16446428D01*
X17618390Y16446428D02*
X17666009Y16494047D01*
X17666009Y16494047D02*
X17761247Y16541666D01*
X17761247Y16541666D02*
X17999342Y16541666D01*
X17999342Y16541666D02*
X18094580Y16494047D01*
X18094580Y16494047D02*
X18142200Y16446428D01*
X18142200Y16446428D02*
X18189819Y16351190D01*
X18189819Y16351190D02*
X18189819Y16065476D01*
X18189819Y16065476D02*
X18142200Y15970238D01*
X18142200Y15970238D02*
X18094580Y15922619D01*
X26389819Y13636666D02*
X27104104Y13636666D01*
X27104104Y13636666D02*
X27246961Y13589047D01*
X27246961Y13589047D02*
X27342200Y13493809D01*
X27342200Y13493809D02*
X27389819Y13350952D01*
X27389819Y13350952D02*
X27389819Y13255714D01*
X26485057Y14065238D02*
X26437438Y14112857D01*
X26437438Y14112857D02*
X26389819Y14208095D01*
X26389819Y14208095D02*
X26389819Y14446190D01*
X26389819Y14446190D02*
X26437438Y14541428D01*
X26437438Y14541428D02*
X26485057Y14589047D01*
X26485057Y14589047D02*
X26580295Y14636666D01*
X26580295Y14636666D02*
X26675533Y14636666D01*
X26675533Y14636666D02*
X26818390Y14589047D01*
X26818390Y14589047D02*
X27389819Y14017619D01*
X27389819Y14017619D02*
X27389819Y14636666D01*
%TO.C,J1*%
X0Y25400000D02*
X0Y0D01*
X0Y0D02*
X5080000Y0D01*
X5080000Y25400000D02*
X0Y25400000D01*
X5080000Y25400000D02*
X31496000Y25400000D01*
X5080000Y0D02*
X5080000Y25400000D01*
X31496000Y25400000D02*
X31496000Y0D01*
X31496000Y25400000D02*
X31496000Y0D01*
X31496000Y0D02*
X5080000Y0D01*
X31496000Y0D02*
X36576000Y0D01*
X36576000Y25400000D02*
X31496000Y25400000D01*
X36576000Y0D02*
X36576000Y25400000D01*
D11*
%TO.C,J3*%
X15045000Y19660000D02*
X16535000Y19660000D01*
X11075000Y20610000D02*
X10625000Y20610000D01*
X15045000Y11140000D02*
X15045000Y12090000D01*
X14595000Y20610000D02*
X15045000Y20610000D01*
X10625000Y11140000D02*
X11075000Y11140000D01*
X10625000Y20610000D02*
X10625000Y11140000D01*
X15045000Y20610000D02*
X15045000Y19660000D01*
X14595000Y11140000D02*
X15045000Y11140000D01*
%TO.C,J2*%
X25085000Y6970000D02*
X25085000Y5170000D01*
X25085000Y22770000D02*
X25085000Y20970000D01*
X20635000Y22020000D02*
X20635000Y13970000D01*
X25085000Y20970000D02*
X25835000Y20970000D01*
X25085000Y5170000D02*
X25835000Y5170000D01*
X25085000Y8470000D02*
X25835000Y8470000D01*
X23585000Y5920000D02*
X20635000Y5920000D01*
X19875000Y22780000D02*
X19875000Y5160000D01*
X25845000Y5160000D02*
X25845000Y22780000D01*
X25845000Y22780000D02*
X19875000Y22780000D01*
X25835000Y22770000D02*
X25085000Y22770000D01*
X20635000Y5920000D02*
X20635000Y13970000D01*
X25085000Y19470000D02*
X25085000Y8470000D01*
X23585000Y22020000D02*
X20635000Y22020000D01*
X26135000Y23070000D02*
X24885000Y23070000D01*
X26135000Y21820000D02*
X26135000Y23070000D01*
X23585000Y5170000D02*
X23585000Y5920000D01*
X25835000Y6970000D02*
X25085000Y6970000D01*
X25835000Y8470000D02*
X25835000Y19470000D01*
X23585000Y22770000D02*
X23585000Y22020000D01*
X25835000Y5170000D02*
X25835000Y6970000D01*
X19875000Y5160000D02*
X25845000Y5160000D01*
X25835000Y20970000D02*
X25835000Y22770000D01*
X25835000Y19470000D02*
X25085000Y19470000D01*
%TD*%
M02*
