%TF.GenerationSoftware,KiCad,Pcbnew,(7.0.0)*%
%TF.CreationDate,2023-03-12T03:04:05-07:00*%
%TF.ProjectId,EnergyMonitor - ESP PCB,456e6572-6779-44d6-9f6e-69746f72202d,rev?*%
%TF.SameCoordinates,Original*%
%TF.FileFunction,Soldermask,Top*%
%TF.FilePolarity,Negative*%
%FSLAX46Y46*%
G04 Gerber Fmt 4.6, Leading zero omitted, Abs format (unit mm)*
G04 Created by KiCad (PCBNEW (7.0.0)) date 2023-03-12 03:04:05*
%MOMM*%
%LPD*%
G01*
G04 APERTURE LIST*
G04 Aperture macros list*
%AMRoundRect*
0 Rectangle with rounded corners*
0 $1 Rounding radius*
0 $2 $3 $4 $5 $6 $7 $8 $9 X,Y pos of 4 corners*
0 Add a 4 corners polygon primitive as box body*
4,1,4,$2,$3,$4,$5,$6,$7,$8,$9,$2,$3,0*
0 Add four circle primitives for the rounded corners*
1,1,$1+$1,$2,$3*
1,1,$1+$1,$4,$5*
1,1,$1+$1,$6,$7*
1,1,$1+$1,$8,$9*
0 Add four rect primitives between the rounded corners*
20,1,$1+$1,$2,$3,$4,$5,0*
20,1,$1+$1,$4,$5,$6,$7,0*
20,1,$1+$1,$6,$7,$8,$9,0*
20,1,$1+$1,$8,$9,$2,$3,0*%
G04 Aperture macros list end*
%ADD10RoundRect,0.275000X-0.250000X0.225000X-0.250000X-0.225000X0.250000X-0.225000X0.250000X0.225000X0*%
%ADD11RoundRect,0.300000X-0.600000X-0.600000X0.600000X-0.600000X0.600000X0.600000X-0.600000X0.600000X0*%
%ADD12C,1.800000*%
%ADD13RoundRect,0.200000X-0.150000X0.875000X-0.150000X-0.875000X0.150000X-0.875000X0.150000X0.875000X0*%
%ADD14C,0.900000*%
%ADD15C,6.500000*%
%ADD16RoundRect,0.250000X0.275000X-0.200000X0.275000X0.200000X-0.275000X0.200000X-0.275000X-0.200000X0*%
%ADD17RoundRect,0.250000X-0.275000X0.200000X-0.275000X-0.200000X0.275000X-0.200000X0.275000X0.200000X0*%
%ADD18RoundRect,0.300000X0.650000X-0.325000X0.650000X0.325000X-0.650000X0.325000X-0.650000X-0.325000X0*%
%ADD19RoundRect,0.300000X-0.650000X0.325000X-0.650000X-0.325000X0.650000X-0.325000X0.650000X0.325000X0*%
%ADD20RoundRect,0.275000X0.225000X0.250000X-0.225000X0.250000X-0.225000X-0.250000X0.225000X-0.250000X0*%
%ADD21RoundRect,0.050000X1.250000X-1.250000X1.250000X1.250000X-1.250000X1.250000X-1.250000X-1.250000X0*%
%ADD22RoundRect,0.300000X-0.600000X0.600000X-0.600000X-0.600000X0.600000X-0.600000X0.600000X0.600000X0*%
%ADD23RoundRect,0.050000X-0.800000X0.800000X-0.800000X-0.800000X0.800000X-0.800000X0.800000X0.800000X0*%
%ADD24C,1.700000*%
%ADD25RoundRect,0.050000X-1.200000X1.200000X-1.200000X-1.200000X1.200000X-1.200000X1.200000X1.200000X0*%
%ADD26C,2.500000*%
%ADD27RoundRect,0.050000X1.000000X1.600000X-1.000000X1.600000X-1.000000X-1.600000X1.000000X-1.600000X0*%
%ADD28RoundRect,0.300000X0.325000X0.650000X-0.325000X0.650000X-0.325000X-0.650000X0.325000X-0.650000X0*%
%ADD29RoundRect,0.050000X1.600000X-1.000000X1.600000X1.000000X-1.600000X1.000000X-1.600000X-1.000000X0*%
%ADD30RoundRect,0.050000X-0.800000X-0.800000X0.800000X-0.800000X0.800000X0.800000X-0.800000X0.800000X0*%
%ADD31RoundRect,0.275000X0.250000X-0.225000X0.250000X0.225000X-0.250000X0.225000X-0.250000X-0.225000X0*%
%ADD32RoundRect,0.250000X0.200000X0.275000X-0.200000X0.275000X-0.200000X-0.275000X0.200000X-0.275000X0*%
%ADD33RoundRect,0.200000X-0.825000X-0.150000X0.825000X-0.150000X0.825000X0.150000X-0.825000X0.150000X0*%
%ADD34C,1.878000*%
%ADD35C,3.600000*%
%ADD36RoundRect,0.050000X0.889000X0.889000X-0.889000X0.889000X-0.889000X-0.889000X0.889000X-0.889000X0*%
%ADD37RoundRect,0.200000X0.825000X0.150000X-0.825000X0.150000X-0.825000X-0.150000X0.825000X-0.150000X0*%
%ADD38RoundRect,0.300000X0.725000X-0.600000X0.725000X0.600000X-0.725000X0.600000X-0.725000X-0.600000X0*%
%ADD39O,2.050000X1.800000*%
%ADD40RoundRect,0.101600X0.400000X-0.400000X0.400000X0.400000X-0.400000X0.400000X-0.400000X-0.400000X0*%
%ADD41RoundRect,0.101600X-0.400000X0.400000X-0.400000X-0.400000X0.400000X-0.400000X0.400000X0.400000X0*%
%ADD42RoundRect,0.200000X-0.150000X0.825000X-0.150000X-0.825000X0.150000X-0.825000X0.150000X0.825000X0*%
%ADD43RoundRect,0.200000X-0.512500X-0.150000X0.512500X-0.150000X0.512500X0.150000X-0.512500X0.150000X0*%
%ADD44RoundRect,0.275000X-0.225000X-0.250000X0.225000X-0.250000X0.225000X0.250000X-0.225000X0.250000X0*%
%ADD45RoundRect,0.250000X-0.200000X-0.275000X0.200000X-0.275000X0.200000X0.275000X-0.200000X0.275000X0*%
G04 APERTURE END LIST*
D10*
%TO.C,C1*%
X118653000Y-95509000D03*
X118653000Y-97059000D03*
%TD*%
D11*
%TO.C,J1*%
X132710000Y-102230000D03*
D12*
X135250000Y-102230000D03*
X132710000Y-104770000D03*
X135250000Y-104770000D03*
X132710000Y-107310000D03*
X135250000Y-107310000D03*
X132710000Y-109850000D03*
X135250000Y-109850000D03*
X132710000Y-112390000D03*
X135250000Y-112390000D03*
%TD*%
D13*
%TO.C,U4*%
X71115000Y-109010000D03*
X69845000Y-109010000D03*
X68575000Y-109010000D03*
X67305000Y-109010000D03*
X66035000Y-109010000D03*
X64765000Y-109010000D03*
X63495000Y-109010000D03*
X62225000Y-109010000D03*
X60955000Y-109010000D03*
X59685000Y-109010000D03*
X58415000Y-109010000D03*
X57145000Y-109010000D03*
X57145000Y-118310000D03*
X58415000Y-118310000D03*
X59685000Y-118310000D03*
X60955000Y-118310000D03*
X62225000Y-118310000D03*
X63495000Y-118310000D03*
X64765000Y-118310000D03*
X66035000Y-118310000D03*
X67305000Y-118310000D03*
X68575000Y-118310000D03*
X69845000Y-118310000D03*
X71115000Y-118310000D03*
%TD*%
D14*
%TO.C,H1*%
X41600000Y-44000000D03*
X42302944Y-42302944D03*
X42302944Y-45697056D03*
X44000000Y-41600000D03*
D15*
X44000000Y-44000000D03*
D14*
X44000000Y-46400000D03*
X45697056Y-42302944D03*
X45697056Y-45697056D03*
X46400000Y-44000000D03*
%TD*%
%TO.C,H2*%
X41600000Y-136000000D03*
X42302944Y-134302944D03*
X42302944Y-137697056D03*
X44000000Y-133600000D03*
D15*
X44000000Y-136000000D03*
D14*
X44000000Y-138400000D03*
X45697056Y-134302944D03*
X45697056Y-137697056D03*
X46400000Y-136000000D03*
%TD*%
%TO.C,H3*%
X133600000Y-44000000D03*
X134302944Y-42302944D03*
X134302944Y-45697056D03*
X136000000Y-41600000D03*
D15*
X136000000Y-44000000D03*
D14*
X136000000Y-46400000D03*
X137697056Y-42302944D03*
X137697056Y-45697056D03*
X138400000Y-44000000D03*
%TD*%
%TO.C,H4*%
X133600000Y-136000000D03*
X134302944Y-134302944D03*
X134302944Y-137697056D03*
X136000000Y-133600000D03*
D15*
X136000000Y-136000000D03*
D14*
X136000000Y-138400000D03*
X137697056Y-134302944D03*
X137697056Y-137697056D03*
X138400000Y-136000000D03*
%TD*%
D16*
%TO.C,R3*%
X86355000Y-107805000D03*
X86355000Y-106155000D03*
%TD*%
D17*
%TO.C,R1*%
X53970000Y-131695000D03*
X53970000Y-133345000D03*
%TD*%
D18*
%TO.C,C6*%
X84810000Y-128687500D03*
X84810000Y-125737500D03*
%TD*%
%TO.C,C7*%
X103810000Y-128687500D03*
X103810000Y-125737500D03*
%TD*%
D19*
%TO.C,C8*%
X103810000Y-117712500D03*
X103810000Y-120662500D03*
%TD*%
%TO.C,C9*%
X122810000Y-117712500D03*
X122810000Y-120662500D03*
%TD*%
D20*
%TO.C,C10*%
X99710000Y-114700000D03*
X98160000Y-114700000D03*
%TD*%
%TO.C,C11*%
X118710000Y-114700000D03*
X117160000Y-114700000D03*
%TD*%
D21*
%TO.C,U6*%
X107810000Y-128700000D03*
X107810000Y-117700000D03*
X118810000Y-117700000D03*
X118810000Y-128700000D03*
%TD*%
D22*
%TO.C,J3*%
X109215000Y-59685000D03*
D12*
X109215000Y-62225000D03*
X106675000Y-59685000D03*
X106675000Y-62225000D03*
X104135000Y-59685000D03*
X104135000Y-62225000D03*
X101595000Y-59685000D03*
X101595000Y-62225000D03*
X99055000Y-59685000D03*
X99055000Y-62225000D03*
X96515000Y-59685000D03*
X96515000Y-62225000D03*
X93975000Y-59685000D03*
X93975000Y-62225000D03*
%TD*%
D22*
%TO.C,J4*%
X109215000Y-73655000D03*
D12*
X109215000Y-76195000D03*
X106675000Y-73655000D03*
X106675000Y-76195000D03*
X104135000Y-73655000D03*
X104135000Y-76195000D03*
X101595000Y-73655000D03*
X101595000Y-76195000D03*
X99055000Y-73655000D03*
X99055000Y-76195000D03*
X96515000Y-73655000D03*
X96515000Y-76195000D03*
X93975000Y-73655000D03*
X93975000Y-76195000D03*
%TD*%
D22*
%TO.C,J7*%
X69210000Y-73655000D03*
D12*
X69210000Y-76195000D03*
X66670000Y-73655000D03*
X66670000Y-76195000D03*
X64130000Y-73655000D03*
X64130000Y-76195000D03*
X61590000Y-73655000D03*
X61590000Y-76195000D03*
X59050000Y-73655000D03*
X59050000Y-76195000D03*
X56510000Y-73655000D03*
X56510000Y-76195000D03*
X53970000Y-73655000D03*
X53970000Y-76195000D03*
%TD*%
D22*
%TO.C,J6*%
X69210000Y-59685000D03*
D12*
X69210000Y-62225000D03*
X66670000Y-59685000D03*
X66670000Y-62225000D03*
X64130000Y-59685000D03*
X64130000Y-62225000D03*
X61590000Y-59685000D03*
X61590000Y-62225000D03*
X59050000Y-59685000D03*
X59050000Y-62225000D03*
X56510000Y-59685000D03*
X56510000Y-62225000D03*
X53970000Y-59685000D03*
X53970000Y-62225000D03*
%TD*%
D22*
%TO.C,J5*%
X69210000Y-45715000D03*
D12*
X69210000Y-48255000D03*
X66670000Y-45715000D03*
X66670000Y-48255000D03*
X64130000Y-45715000D03*
X64130000Y-48255000D03*
X61590000Y-45715000D03*
X61590000Y-48255000D03*
X59050000Y-45715000D03*
X59050000Y-48255000D03*
X56510000Y-45715000D03*
X56510000Y-48255000D03*
X53970000Y-45715000D03*
X53970000Y-48255000D03*
%TD*%
D23*
%TO.C,C14*%
X93975000Y-134020000D03*
D24*
X93975000Y-136520000D03*
%TD*%
D25*
%TO.C,C4*%
X132710000Y-122131041D03*
D26*
X132710000Y-127131041D03*
%TD*%
D23*
%TO.C,C5*%
X103500000Y-134020000D03*
D24*
X103500000Y-136520000D03*
%TD*%
D27*
%TO.C,L1*%
X117560000Y-135250000D03*
X109760000Y-135250000D03*
%TD*%
D21*
%TO.C,U5*%
X88810000Y-128700000D03*
X88810000Y-117700000D03*
X99810000Y-117700000D03*
X99810000Y-128700000D03*
%TD*%
D28*
%TO.C,C12*%
X96974000Y-100706000D03*
X94024000Y-100706000D03*
%TD*%
D29*
%TO.C,L2*%
X97150000Y-111845000D03*
X97150000Y-104045000D03*
%TD*%
D30*
%TO.C,C15*%
X98782606Y-96388000D03*
D24*
X101282606Y-96388000D03*
%TD*%
D23*
%TO.C,C16*%
X113310000Y-107700000D03*
D24*
X113310000Y-110200000D03*
%TD*%
D29*
%TO.C,L3*%
X122810000Y-114600000D03*
X122810000Y-106800000D03*
%TD*%
D18*
%TO.C,C13*%
X118310000Y-106675000D03*
X118310000Y-103725000D03*
%TD*%
D22*
%TO.C,J2*%
X109215000Y-45715000D03*
D12*
X109215000Y-48255000D03*
X106675000Y-45715000D03*
X106675000Y-48255000D03*
X104135000Y-45715000D03*
X104135000Y-48255000D03*
X101595000Y-45715000D03*
X101595000Y-48255000D03*
X99055000Y-45715000D03*
X99055000Y-48255000D03*
X96515000Y-45715000D03*
X96515000Y-48255000D03*
X93975000Y-45715000D03*
X93975000Y-48255000D03*
%TD*%
D31*
%TO.C,C3*%
X90800000Y-81783000D03*
X90800000Y-80233000D03*
%TD*%
D10*
%TO.C,C2*%
X71130000Y-120885000D03*
X71130000Y-122435000D03*
%TD*%
D32*
%TO.C,R4*%
X55156250Y-123252750D03*
X53506250Y-123252750D03*
%TD*%
%TO.C,R5*%
X55156250Y-128332750D03*
X53506250Y-128332750D03*
%TD*%
D33*
%TO.C,U3*%
X86420000Y-83180000D03*
X86420000Y-84450000D03*
X86420000Y-85720000D03*
X86420000Y-86990000D03*
X86420000Y-88260000D03*
X86420000Y-89530000D03*
X86420000Y-90800000D03*
X91370000Y-90800000D03*
X91370000Y-89530000D03*
X91370000Y-88260000D03*
X91370000Y-86990000D03*
X91370000Y-85720000D03*
X91370000Y-84450000D03*
X91370000Y-83180000D03*
%TD*%
D34*
%TO.C,LCD1*%
X80205000Y-102230000D03*
X80205000Y-99690000D03*
X80205000Y-97150000D03*
X80205000Y-94610000D03*
D35*
X80705000Y-110070000D03*
X104505000Y-110070000D03*
X80705000Y-86770000D03*
X104505000Y-86770000D03*
%TD*%
D36*
%TO.C,U2*%
X50795000Y-113112500D03*
D34*
X50795000Y-115652500D03*
X50795000Y-118192500D03*
X50795000Y-120732500D03*
X50795000Y-123272500D03*
X50795000Y-125812500D03*
X50795000Y-128352500D03*
X50795000Y-130892500D03*
X50795000Y-133432500D03*
X50795000Y-135972500D03*
D36*
X76195000Y-113112500D03*
D34*
X76195000Y-115652500D03*
X76195000Y-118192500D03*
X76195000Y-120732500D03*
X76195000Y-123272500D03*
X76195000Y-125812500D03*
X76195000Y-128352500D03*
X76195000Y-130892500D03*
X76195000Y-133432500D03*
X76195000Y-135972500D03*
%TD*%
D37*
%TO.C,U1*%
X123628000Y-93594000D03*
X123628000Y-92324000D03*
X123628000Y-91054000D03*
X123628000Y-89784000D03*
X123628000Y-88514000D03*
X123628000Y-87244000D03*
X123628000Y-85974000D03*
X118678000Y-85974000D03*
X118678000Y-87244000D03*
X118678000Y-88514000D03*
X118678000Y-89784000D03*
X118678000Y-91054000D03*
X118678000Y-92324000D03*
X118678000Y-93594000D03*
%TD*%
D16*
%TO.C,R2*%
X123820000Y-97340000D03*
X123820000Y-95690000D03*
%TD*%
D38*
%TO.C,J8*%
X135885000Y-76750000D03*
D39*
X135884999Y-74249999D03*
X135884999Y-71749999D03*
X135884999Y-69249999D03*
%TD*%
D38*
%TO.C,J9*%
X135995000Y-63435000D03*
D39*
X135994999Y-60934999D03*
X135994999Y-58434999D03*
X135994999Y-55934999D03*
%TD*%
D17*
%TO.C,R6*%
X78735000Y-114105000D03*
X78735000Y-115755000D03*
%TD*%
D38*
%TO.C,J11*%
X129535000Y-92665000D03*
D39*
X129534999Y-90164999D03*
X129534999Y-87664999D03*
X129534999Y-85164999D03*
X129534999Y-82664999D03*
%TD*%
D38*
%TO.C,J12*%
X135995000Y-92625000D03*
D39*
X135994999Y-90124999D03*
X135994999Y-87624999D03*
X135994999Y-85124999D03*
X135994999Y-82624999D03*
%TD*%
D40*
%TO.C,D6*%
X41905000Y-123185000D03*
X43405000Y-123185000D03*
%TD*%
D32*
%TO.C,R28*%
X59875000Y-125090000D03*
X58225000Y-125090000D03*
%TD*%
D41*
%TO.C,D16*%
X43405000Y-106980000D03*
X41905000Y-106980000D03*
%TD*%
D42*
%TO.C,U15*%
X124455000Y-59815000D03*
X123185000Y-59815000D03*
X121915000Y-59815000D03*
X120645000Y-59815000D03*
X119375000Y-59815000D03*
X118105000Y-59815000D03*
X116835000Y-59815000D03*
X115565000Y-59815000D03*
X115565000Y-64765000D03*
X116835000Y-64765000D03*
X118105000Y-64765000D03*
X119375000Y-64765000D03*
X120645000Y-64765000D03*
X121915000Y-64765000D03*
X123185000Y-64765000D03*
X124455000Y-64765000D03*
%TD*%
D41*
%TO.C,D11*%
X43405000Y-97455000D03*
X41905000Y-97455000D03*
%TD*%
D42*
%TO.C,U7*%
X84450000Y-45845000D03*
X83180000Y-45845000D03*
X81910000Y-45845000D03*
X80640000Y-45845000D03*
X79370000Y-45845000D03*
X78100000Y-45845000D03*
X76830000Y-45845000D03*
X75560000Y-45845000D03*
X75560000Y-50795000D03*
X76830000Y-50795000D03*
X78100000Y-50795000D03*
X79370000Y-50795000D03*
X80640000Y-50795000D03*
X81910000Y-50795000D03*
X83180000Y-50795000D03*
X84450000Y-50795000D03*
%TD*%
D43*
%TO.C,U14*%
X109347500Y-53020000D03*
X109347500Y-53970000D03*
X109347500Y-54920000D03*
X111622500Y-54920000D03*
X111622500Y-53020000D03*
%TD*%
D16*
%TO.C,R17*%
X104770000Y-54160000D03*
X104770000Y-52510000D03*
%TD*%
D44*
%TO.C,C19*%
X73515000Y-67305000D03*
X75065000Y-67305000D03*
%TD*%
D32*
%TO.C,R27*%
X59875000Y-126995000D03*
X58225000Y-126995000D03*
%TD*%
D42*
%TO.C,U17*%
X124455000Y-73785000D03*
X123185000Y-73785000D03*
X121915000Y-73785000D03*
X120645000Y-73785000D03*
X119375000Y-73785000D03*
X118105000Y-73785000D03*
X116835000Y-73785000D03*
X115565000Y-73785000D03*
X115565000Y-78735000D03*
X116835000Y-78735000D03*
X118105000Y-78735000D03*
X119375000Y-78735000D03*
X120645000Y-78735000D03*
X121915000Y-78735000D03*
X123185000Y-78735000D03*
X124455000Y-78735000D03*
%TD*%
D45*
%TO.C,R42*%
X53145000Y-120950000D03*
X54795000Y-120950000D03*
%TD*%
%TO.C,R11*%
X51240000Y-101265000D03*
X52890000Y-101265000D03*
%TD*%
D41*
%TO.C,D20*%
X43405000Y-91740000D03*
X41905000Y-91740000D03*
%TD*%
D16*
%TO.C,R31*%
X64765000Y-82100000D03*
X64765000Y-80450000D03*
%TD*%
D17*
%TO.C,R53*%
X100325000Y-80450000D03*
X100325000Y-82100000D03*
%TD*%
%TO.C,R34*%
X62860000Y-80450000D03*
X62860000Y-82100000D03*
%TD*%
%TO.C,R50*%
X102865000Y-66480000D03*
X102865000Y-68130000D03*
%TD*%
D41*
%TO.C,D19*%
X43405000Y-89835000D03*
X41905000Y-89835000D03*
%TD*%
D45*
%TO.C,R10*%
X51240000Y-99360000D03*
X52890000Y-99360000D03*
%TD*%
D20*
%TO.C,C26*%
X124595000Y-80767000D03*
X123045000Y-80767000D03*
%TD*%
D43*
%TO.C,U10*%
X69342500Y-53020000D03*
X69342500Y-53970000D03*
X69342500Y-54920000D03*
X71617500Y-54920000D03*
X71617500Y-53020000D03*
%TD*%
D42*
%TO.C,U11*%
X84450000Y-73785000D03*
X83180000Y-73785000D03*
X81910000Y-73785000D03*
X80640000Y-73785000D03*
X79370000Y-73785000D03*
X78100000Y-73785000D03*
X76830000Y-73785000D03*
X75560000Y-73785000D03*
X75560000Y-78735000D03*
X76830000Y-78735000D03*
X78100000Y-78735000D03*
X79370000Y-78735000D03*
X80640000Y-78735000D03*
X81910000Y-78735000D03*
X83180000Y-78735000D03*
X84450000Y-78735000D03*
%TD*%
D41*
%TO.C,D9*%
X43405000Y-118740000D03*
X41905000Y-118740000D03*
%TD*%
D17*
%TO.C,R44*%
X62860000Y-52510000D03*
X62860000Y-54160000D03*
%TD*%
D41*
%TO.C,D10*%
X43405000Y-120645000D03*
X41905000Y-120645000D03*
%TD*%
D17*
%TO.C,R48*%
X102865000Y-52510000D03*
X102865000Y-54160000D03*
%TD*%
%TO.C,R15*%
X78735000Y-118105000D03*
X78735000Y-119755000D03*
%TD*%
D41*
%TO.C,D8*%
X43405000Y-116835000D03*
X41905000Y-116835000D03*
%TD*%
D45*
%TO.C,R55*%
X51240000Y-95550000D03*
X52890000Y-95550000D03*
%TD*%
D32*
%TO.C,R8*%
X52890000Y-108885000D03*
X51240000Y-108885000D03*
%TD*%
D17*
%TO.C,R29*%
X53970000Y-136000000D03*
X53970000Y-137650000D03*
%TD*%
%TO.C,R35*%
X60320000Y-80450000D03*
X60320000Y-82100000D03*
%TD*%
D41*
%TO.C,D18*%
X43405000Y-87930000D03*
X41905000Y-87930000D03*
%TD*%
D17*
%TO.C,R51*%
X100325000Y-66480000D03*
X100325000Y-68130000D03*
%TD*%
D40*
%TO.C,D5*%
X41905000Y-125090000D03*
X43405000Y-125090000D03*
%TD*%
D20*
%TO.C,C27*%
X84590000Y-66797000D03*
X83040000Y-66797000D03*
%TD*%
D45*
%TO.C,R40*%
X53145000Y-114600000D03*
X54795000Y-114600000D03*
%TD*%
%TO.C,R43*%
X58860000Y-123490000D03*
X60510000Y-123490000D03*
%TD*%
D32*
%TO.C,R7*%
X52890000Y-110790000D03*
X51240000Y-110790000D03*
%TD*%
D40*
%TO.C,D4*%
X41905000Y-126995000D03*
X43405000Y-126995000D03*
%TD*%
D16*
%TO.C,R21*%
X104770000Y-82100000D03*
X104770000Y-80450000D03*
%TD*%
D44*
%TO.C,C23*%
X113520000Y-81275000D03*
X115070000Y-81275000D03*
%TD*%
D17*
%TO.C,R47*%
X60320000Y-66480000D03*
X60320000Y-68130000D03*
%TD*%
D41*
%TO.C,D13*%
X43405000Y-101265000D03*
X41905000Y-101265000D03*
%TD*%
D42*
%TO.C,U9*%
X84450000Y-59815000D03*
X83180000Y-59815000D03*
X81910000Y-59815000D03*
X80640000Y-59815000D03*
X79370000Y-59815000D03*
X78100000Y-59815000D03*
X76830000Y-59815000D03*
X75560000Y-59815000D03*
X75560000Y-64765000D03*
X76830000Y-64765000D03*
X78100000Y-64765000D03*
X79370000Y-64765000D03*
X80640000Y-64765000D03*
X81910000Y-64765000D03*
X83180000Y-64765000D03*
X84450000Y-64765000D03*
%TD*%
D44*
%TO.C,C20*%
X73515000Y-81275000D03*
X75065000Y-81275000D03*
%TD*%
D45*
%TO.C,R33*%
X51240000Y-106980000D03*
X52890000Y-106980000D03*
%TD*%
D17*
%TO.C,R49*%
X100325000Y-52510000D03*
X100325000Y-54160000D03*
%TD*%
D16*
%TO.C,R16*%
X106675000Y-54160000D03*
X106675000Y-52510000D03*
%TD*%
D45*
%TO.C,R38*%
X51240000Y-89835000D03*
X52890000Y-89835000D03*
%TD*%
%TO.C,R12*%
X51240000Y-103170000D03*
X52890000Y-103170000D03*
%TD*%
D44*
%TO.C,C18*%
X73515000Y-53335000D03*
X75065000Y-53335000D03*
%TD*%
D17*
%TO.C,R46*%
X62860000Y-66480000D03*
X62860000Y-68130000D03*
%TD*%
D45*
%TO.C,R32*%
X51240000Y-105075000D03*
X52890000Y-105075000D03*
%TD*%
D32*
%TO.C,R26*%
X59875000Y-129205000D03*
X58225000Y-129205000D03*
%TD*%
D16*
%TO.C,R22*%
X66670000Y-54160000D03*
X66670000Y-52510000D03*
%TD*%
D45*
%TO.C,R54*%
X51240000Y-93645000D03*
X52890000Y-93645000D03*
%TD*%
D20*
%TO.C,C28*%
X84590000Y-80767000D03*
X83040000Y-80767000D03*
%TD*%
D45*
%TO.C,R39*%
X51240000Y-91740000D03*
X52890000Y-91740000D03*
%TD*%
D16*
%TO.C,R23*%
X64765000Y-54160000D03*
X64765000Y-52510000D03*
%TD*%
%TO.C,R24*%
X66670000Y-68130000D03*
X66670000Y-66480000D03*
%TD*%
D43*
%TO.C,U8*%
X69342500Y-80960000D03*
X69342500Y-81910000D03*
X69342500Y-82860000D03*
X71617500Y-82860000D03*
X71617500Y-80960000D03*
%TD*%
D40*
%TO.C,D2*%
X41905000Y-109850000D03*
X43405000Y-109850000D03*
%TD*%
D44*
%TO.C,C22*%
X113520000Y-67305000D03*
X115070000Y-67305000D03*
%TD*%
D45*
%TO.C,R9*%
X51240000Y-97455000D03*
X52890000Y-97455000D03*
%TD*%
D16*
%TO.C,R30*%
X66670000Y-82100000D03*
X66670000Y-80450000D03*
%TD*%
D20*
%TO.C,C17*%
X84590000Y-52827000D03*
X83040000Y-52827000D03*
%TD*%
D41*
%TO.C,D12*%
X43405000Y-99360000D03*
X41905000Y-99360000D03*
%TD*%
D17*
%TO.C,R45*%
X60320000Y-52510000D03*
X60320000Y-54160000D03*
%TD*%
D45*
%TO.C,R41*%
X53145000Y-116835000D03*
X54795000Y-116835000D03*
%TD*%
D43*
%TO.C,U12*%
X69342500Y-66990000D03*
X69342500Y-67940000D03*
X69342500Y-68890000D03*
X71617500Y-68890000D03*
X71617500Y-66990000D03*
%TD*%
D40*
%TO.C,D1*%
X41905000Y-111755000D03*
X43405000Y-111755000D03*
%TD*%
D16*
%TO.C,R20*%
X106675000Y-82100000D03*
X106675000Y-80450000D03*
%TD*%
%TO.C,R18*%
X106675000Y-68130000D03*
X106675000Y-66480000D03*
%TD*%
D41*
%TO.C,D7*%
X43405000Y-114930000D03*
X41905000Y-114930000D03*
%TD*%
D43*
%TO.C,U18*%
X109347500Y-80960000D03*
X109347500Y-81910000D03*
X109347500Y-82860000D03*
X111622500Y-82860000D03*
X111622500Y-80960000D03*
%TD*%
D41*
%TO.C,D14*%
X43405000Y-103170000D03*
X41905000Y-103170000D03*
%TD*%
%TO.C,D15*%
X43405000Y-105075000D03*
X41905000Y-105075000D03*
%TD*%
D17*
%TO.C,R52*%
X102865000Y-80450000D03*
X102865000Y-82100000D03*
%TD*%
D45*
%TO.C,R37*%
X51240000Y-87930000D03*
X52890000Y-87930000D03*
%TD*%
D16*
%TO.C,R19*%
X104770000Y-68130000D03*
X104770000Y-66480000D03*
%TD*%
D41*
%TO.C,D17*%
X43405000Y-86025000D03*
X41905000Y-86025000D03*
%TD*%
D44*
%TO.C,C21*%
X113520000Y-53335000D03*
X115070000Y-53335000D03*
%TD*%
D41*
%TO.C,D21*%
X43405000Y-93645000D03*
X41905000Y-93645000D03*
%TD*%
D32*
%TO.C,R13*%
X73210000Y-133345000D03*
X71560000Y-133345000D03*
%TD*%
%TO.C,R14*%
X73210000Y-130805000D03*
X71560000Y-130805000D03*
%TD*%
D42*
%TO.C,U13*%
X124455000Y-45845000D03*
X123185000Y-45845000D03*
X121915000Y-45845000D03*
X120645000Y-45845000D03*
X119375000Y-45845000D03*
X118105000Y-45845000D03*
X116835000Y-45845000D03*
X115565000Y-45845000D03*
X115565000Y-50795000D03*
X116835000Y-50795000D03*
X118105000Y-50795000D03*
X119375000Y-50795000D03*
X120645000Y-50795000D03*
X121915000Y-50795000D03*
X123185000Y-50795000D03*
X124455000Y-50795000D03*
%TD*%
D41*
%TO.C,D22*%
X43405000Y-95550000D03*
X41905000Y-95550000D03*
%TD*%
D40*
%TO.C,D3*%
X41905000Y-128900000D03*
X43405000Y-128900000D03*
%TD*%
D16*
%TO.C,R25*%
X64765000Y-68130000D03*
X64765000Y-66480000D03*
%TD*%
D45*
%TO.C,R36*%
X51240000Y-86025000D03*
X52890000Y-86025000D03*
%TD*%
D20*
%TO.C,C24*%
X124595000Y-52827000D03*
X123045000Y-52827000D03*
%TD*%
%TO.C,C25*%
X124595000Y-66797000D03*
X123045000Y-66797000D03*
%TD*%
D43*
%TO.C,U16*%
X109347500Y-66990000D03*
X109347500Y-67940000D03*
X109347500Y-68890000D03*
X111622500Y-68890000D03*
X111622500Y-66990000D03*
%TD*%
M02*
