M48
; DRILL file {KiCad (7.0.0)} date Sun Mar 12 03:04:05 2023
; FORMAT={-:-/ absolute / inch / decimal}
; #@! TF.CreationDate,2023-03-12T03:04:05-07:00
; #@! TF.GenerationSoftware,Kicad,Pcbnew,(7.0.0)
; #@! TF.FileFunction,Plated,1,4,PTH
FMAT,2
INCH
; #@! TA.AperFunction,Plated,PTH,ViaDrill
T1C0.0157
; #@! TA.AperFunction,Plated,PTH,ComponentDrill
T2C0.0197
; #@! TA.AperFunction,Plated,PTH,ViaDrill
T3C0.0236
; #@! TA.AperFunction,Plated,PTH,ComponentDrill
T4C0.0315
; #@! TA.AperFunction,Plated,PTH,ComponentDrill
T5C0.0350
; #@! TA.AperFunction,Plated,PTH,ComponentDrill
T6C0.0374
; #@! TA.AperFunction,Plated,PTH,ComponentDrill
T7C0.0394
; #@! TA.AperFunction,Plated,PTH,ComponentDrill
T8C0.0472
; #@! TA.AperFunction,Plated,PTH,ViaDrill
T9C0.0591
; #@! TA.AperFunction,Plated,PTH,ComponentDrill
T10C0.0787
; #@! TA.AperFunction,Plated,PTH,ComponentDrill
T11C0.1260
%
G90
G05
T1
X1.6498Y-3.3368
X1.6498Y-4.2618
X1.6498Y-4.4648
X1.6498Y-4.7998
X1.6498Y-5.1248
X1.7673Y-4.8498
X2.0789Y-5.4193
X2.1248Y-5.137
X2.1498Y-3.3868
X2.1498Y-3.4618
X2.1498Y-3.5368
X2.1498Y-3.6118
X2.1498Y-3.6868
X2.1498Y-3.8368
X2.1498Y-3.9118
X2.1498Y-3.9868
X2.1498Y-4.0618
X2.1498Y-4.1368
X2.1498Y-4.2118
X2.1498Y-4.2868
X2.2174Y-4.8525
X2.2174Y-5.0525
X2.2498Y-4.3748
X2.2998Y-3.6868
X2.3173Y-2.1323
X2.3173Y-2.6823
X2.3173Y-3.2323
X2.3498Y-3.6118
X2.3998Y-3.5368
X2.4498Y-3.4618
X2.4498Y-4.9055
X2.4498Y-5.001
X2.451Y-5.101
X2.4998Y-3.3868
X2.5498Y-4.1748
X2.5498Y-4.5748
X2.5998Y-4.1848
X2.6498Y-4.1868
X2.6498Y-4.8998
X2.6774Y-2.162
X2.6774Y-2.712
X2.6774Y-3.262
X2.6998Y-4.2048
X2.6998Y-4.9998
X2.7298Y-2.0448
X2.7298Y-2.5948
X2.7298Y-3.1448
X2.7638Y-4.2108
X2.7715Y-5.1498
X2.7748Y-1.9998
X2.7748Y-2.5498
X2.7748Y-3.0998
X2.8196Y-2.0448
X2.8196Y-2.5948
X2.8196Y-3.1448
X2.8332Y-4.9532
X2.8338Y-4.2058
X2.8457Y-4.6579
X2.8463Y-4.8203
X2.8898Y-4.7348
X2.9048Y-4.5148
X2.9253Y-1.8049
X2.9253Y-2.3549
X2.9253Y-2.9049
X3.0079Y-2.1
X3.0079Y-2.65
X3.0079Y-3.2
X3.0748Y-2.0998
X3.0748Y-2.6498
X3.0748Y-3.1998
X3.0998Y-4.7606
X3.1457Y-4.4923
X3.2198Y-2.0798
X3.2198Y-2.6298
X3.2198Y-3.1798
X3.325Y-1.7298
X3.325Y-2.2798
X3.325Y-2.8298
X3.3648Y-1.9998
X3.3648Y-2.5498
X3.3648Y-3.0998
X3.3698Y-1.8998
X3.3998Y-1.9348
X3.3998Y-2.4848
X3.3998Y-3.0348
X3.3998Y-3.8118
X3.3998Y-4.1335
X3.4024Y-3.2272
X3.4298Y-1.8998
X3.4298Y-2.4498
X3.4298Y-2.9998
X3.4498Y-3.6368
X3.4648Y-1.7048
X3.4648Y-1.8698
X3.4648Y-2.4198
X3.4648Y-2.9698
X3.4748Y-3.6868
X3.4998Y-3.5368
X3.5748Y-3.109
X3.6198Y-3.2298
X3.6798Y-3.4748
X3.8248Y-4.2748
X3.8923Y-2.1323
X3.8923Y-2.6823
X3.8923Y-3.2323
X4.2524Y-2.162
X4.2524Y-2.712
X4.2524Y-3.262
X4.3048Y-2.0448
X4.3048Y-2.5948
X4.3048Y-3.1448
X4.3498Y-1.9998
X4.3498Y-2.5498
X4.3498Y-3.0998
X4.3946Y-2.0448
X4.3946Y-2.5948
X4.3946Y-3.1448
X4.5003Y-1.8049
X4.5003Y-2.3549
X4.5003Y-2.9049
X4.5829Y-2.1
X4.5829Y-2.65
X4.5829Y-3.2
X4.6068Y-3.6848
X4.6498Y-2.0998
X4.6498Y-2.6498
X4.6498Y-3.1998
X4.6714Y-3.871
X4.7948Y-2.0798
X4.7948Y-2.6298
X4.7948Y-3.1798
X4.8748Y-3.9175
X4.8898Y-3.3448
X4.9Y-1.7298
X4.9Y-2.2798
X4.9Y-2.8298
X4.9398Y-1.9998
X4.9398Y-2.5498
X4.9398Y-3.0998
X4.9748Y-1.9348
X4.9748Y-2.4848
X4.9748Y-3.0348
X5.0048Y-1.8998
X5.0048Y-2.4498
X5.0048Y-2.9998
X5.0398Y-1.8698
X5.0398Y-2.4198
X5.0398Y-2.9698
T2
X1.6378Y-1.7323
X1.6378Y-5.3543
X1.6655Y-1.6655
X1.6655Y-1.7991
X1.6655Y-5.2875
X1.6655Y-5.4211
X1.7323Y-1.6378
X1.7323Y-1.8268
X1.7323Y-5.2598
X1.7323Y-5.4488
X1.7991Y-1.6655
X1.7991Y-1.7991
X1.7991Y-5.2875
X1.7991Y-5.4211
X1.8268Y-1.7323
X1.8268Y-5.3543
X5.2598Y-1.7323
X5.2598Y-5.3543
X5.2875Y-1.6655
X5.2875Y-1.7991
X5.2875Y-5.2875
X5.2875Y-5.4211
X5.3543Y-1.6378
X5.3543Y-1.8268
X5.3543Y-5.2598
X5.3543Y-5.4488
X5.4211Y-1.6655
X5.4211Y-1.7991
X5.4211Y-5.2875
X5.4211Y-5.4211
X5.4488Y-1.7323
X5.4488Y-5.3543
T3
X3.7917Y-4.5157
X4.5398Y-4.5157
T4
X3.6998Y-5.2764
X3.6998Y-5.3748
X3.8891Y-3.7948
X3.9875Y-3.7948
X4.0748Y-5.2764
X4.0748Y-5.3748
X4.461Y-4.2402
X4.461Y-4.3386
T5
X1.9998Y-4.4532
X1.9998Y-4.5532
X1.9998Y-4.6532
X1.9998Y-4.7532
X1.9998Y-4.8532
X1.9998Y-4.9532
X1.9998Y-5.0532
X1.9998Y-5.1532
X1.9998Y-5.2532
X1.9998Y-5.3532
X2.9998Y-4.4532
X2.9998Y-4.5532
X2.9998Y-4.6532
X2.9998Y-4.7532
X2.9998Y-4.8532
X2.9998Y-4.9532
X2.9998Y-5.0532
X2.9998Y-5.1532
X2.9998Y-5.2532
X2.9998Y-5.3532
X3.1577Y-3.7248
X3.1577Y-3.8248
X3.1577Y-3.9248
X3.1577Y-4.0248
T6
X5.0998Y-3.2545
X5.0998Y-3.353
X5.0998Y-3.4514
X5.0998Y-3.5498
X5.0998Y-3.6482
X5.3498Y-2.7264
X5.3498Y-2.8248
X5.3498Y-2.9232
X5.3498Y-3.0217
X5.3541Y-2.2022
X5.3541Y-2.3006
X5.3541Y-2.399
X5.3541Y-2.4974
X5.3541Y-3.253
X5.3541Y-3.3514
X5.3541Y-3.4498
X5.3541Y-3.5482
X5.3541Y-3.6467
T7
X2.1248Y-1.7998
X2.1248Y-1.8998
X2.1248Y-2.3498
X2.1248Y-2.4498
X2.1248Y-2.8998
X2.1248Y-2.9998
X2.2248Y-1.7998
X2.2248Y-1.8998
X2.2248Y-2.3498
X2.2248Y-2.4498
X2.2248Y-2.8998
X2.2248Y-2.9998
X2.3248Y-1.7998
X2.3248Y-1.8998
X2.3248Y-2.3498
X2.3248Y-2.4498
X2.3248Y-2.8998
X2.3248Y-2.9998
X2.4248Y-1.7998
X2.4248Y-1.8998
X2.4248Y-2.3498
X2.4248Y-2.4498
X2.4248Y-2.8998
X2.4248Y-2.9998
X2.5248Y-1.7998
X2.5248Y-1.8998
X2.5248Y-2.3498
X2.5248Y-2.4498
X2.5248Y-2.8998
X2.5248Y-2.9998
X2.6248Y-1.7998
X2.6248Y-1.8998
X2.6248Y-2.3498
X2.6248Y-2.4498
X2.6248Y-2.8998
X2.6248Y-2.9998
X2.7248Y-1.7998
X2.7248Y-1.8998
X2.7248Y-2.3498
X2.7248Y-2.4498
X2.7248Y-2.8998
X2.7248Y-2.9998
X3.6998Y-1.7998
X3.6998Y-1.8998
X3.6998Y-2.3498
X3.6998Y-2.4498
X3.6998Y-2.8998
X3.6998Y-2.9998
X3.7998Y-1.7998
X3.7998Y-1.8998
X3.7998Y-2.3498
X3.7998Y-2.4498
X3.7998Y-2.8998
X3.7998Y-2.9998
X3.8998Y-1.7998
X3.8998Y-1.8998
X3.8998Y-2.3498
X3.8998Y-2.4498
X3.8998Y-2.8998
X3.8998Y-2.9998
X3.9998Y-1.7998
X3.9998Y-1.8998
X3.9998Y-2.3498
X3.9998Y-2.4498
X3.9998Y-2.8998
X3.9998Y-2.9998
X4.0998Y-1.7998
X4.0998Y-1.8998
X4.0998Y-2.3498
X4.0998Y-2.4498
X4.0998Y-2.8998
X4.0998Y-2.9998
X4.1998Y-1.7998
X4.1998Y-1.8998
X4.1998Y-2.3498
X4.1998Y-2.4498
X4.1998Y-2.8998
X4.1998Y-2.9998
X4.2998Y-1.7998
X4.2998Y-1.8998
X4.2998Y-2.3498
X4.2998Y-2.4498
X4.2998Y-2.8998
X4.2998Y-2.9998
X5.2248Y-4.0248
X5.2248Y-4.1248
X5.2248Y-4.2248
X5.2248Y-4.3248
X5.2248Y-4.4248
X5.3248Y-4.0248
X5.3248Y-4.1248
X5.3248Y-4.2248
X5.3248Y-4.3248
X5.3248Y-4.4248
T8
X5.2248Y-4.8083
X5.2248Y-5.0052
T9
X2.8748Y-3.3548
X3.3248Y-4.8386
X3.3774Y-4.6339
X3.4581Y-4.9498
X3.6048Y-3.9648
X3.6156Y-4.6339
X3.9679Y-4.752
X3.9679Y-4.9488
X4.2061Y-4.752
X4.2061Y-4.9488
X4.2445Y-4.5148
X4.3636Y-4.6339
X4.4498Y-3.3848
X4.5388Y-4.0827
X4.835Y-4.8701
T10
X3.1774Y-3.4161
X3.1774Y-4.3335
X4.1144Y-3.4161
X4.1144Y-4.3335
T11
X1.7323Y-1.7323
X1.7323Y-5.3543
X5.3543Y-1.7323
X5.3543Y-5.3543
T0
M30
