%TF.GenerationSoftware,KiCad,Pcbnew,(7.0.0)*%
%TF.CreationDate,2023-03-12T03:04:05-07:00*%
%TF.ProjectId,EnergyMonitor - ESP PCB,456e6572-6779-44d6-9f6e-69746f72202d,rev?*%
%TF.SameCoordinates,Original*%
%TF.FileFunction,Copper,L4,Bot*%
%TF.FilePolarity,Positive*%
%FSLAX46Y46*%
G04 Gerber Fmt 4.6, Leading zero omitted, Abs format (unit mm)*
G04 Created by KiCad (PCBNEW (7.0.0)) date 2023-03-12 03:04:05*
%MOMM*%
%LPD*%
G01*
G04 APERTURE LIST*
G04 Aperture macros list*
%AMRoundRect*
0 Rectangle with rounded corners*
0 $1 Rounding radius*
0 $2 $3 $4 $5 $6 $7 $8 $9 X,Y pos of 4 corners*
0 Add a 4 corners polygon primitive as box body*
4,1,4,$2,$3,$4,$5,$6,$7,$8,$9,$2,$3,0*
0 Add four circle primitives for the rounded corners*
1,1,$1+$1,$2,$3*
1,1,$1+$1,$4,$5*
1,1,$1+$1,$6,$7*
1,1,$1+$1,$8,$9*
0 Add four rect primitives between the rounded corners*
20,1,$1+$1,$2,$3,$4,$5,0*
20,1,$1+$1,$4,$5,$6,$7,0*
20,1,$1+$1,$6,$7,$8,$9,0*
20,1,$1+$1,$8,$9,$2,$3,0*%
G04 Aperture macros list end*
%TA.AperFunction,ComponentPad*%
%ADD10RoundRect,0.250000X-0.600000X-0.600000X0.600000X-0.600000X0.600000X0.600000X-0.600000X0.600000X0*%
%TD*%
%TA.AperFunction,ComponentPad*%
%ADD11C,1.700000*%
%TD*%
%TA.AperFunction,ComponentPad*%
%ADD12C,0.800000*%
%TD*%
%TA.AperFunction,ComponentPad*%
%ADD13C,6.400000*%
%TD*%
%TA.AperFunction,ComponentPad*%
%ADD14RoundRect,0.250000X-0.600000X0.600000X-0.600000X-0.600000X0.600000X-0.600000X0.600000X0.600000X0*%
%TD*%
%TA.AperFunction,ComponentPad*%
%ADD15R,1.600000X1.600000*%
%TD*%
%TA.AperFunction,ComponentPad*%
%ADD16C,1.600000*%
%TD*%
%TA.AperFunction,ComponentPad*%
%ADD17R,2.400000X2.400000*%
%TD*%
%TA.AperFunction,ComponentPad*%
%ADD18C,2.400000*%
%TD*%
%TA.AperFunction,ComponentPad*%
%ADD19C,1.778000*%
%TD*%
%TA.AperFunction,ComponentPad*%
%ADD20C,3.500000*%
%TD*%
%TA.AperFunction,ComponentPad*%
%ADD21R,1.778000X1.778000*%
%TD*%
%TA.AperFunction,ComponentPad*%
%ADD22RoundRect,0.250000X0.725000X-0.600000X0.725000X0.600000X-0.725000X0.600000X-0.725000X-0.600000X0*%
%TD*%
%TA.AperFunction,ComponentPad*%
%ADD23O,1.950000X1.700000*%
%TD*%
%TA.AperFunction,ViaPad*%
%ADD24C,2.500000*%
%TD*%
%TA.AperFunction,ViaPad*%
%ADD25C,1.000000*%
%TD*%
%TA.AperFunction,ViaPad*%
%ADD26C,0.800000*%
%TD*%
%TA.AperFunction,Conductor*%
%ADD27C,0.250000*%
%TD*%
%TA.AperFunction,Conductor*%
%ADD28C,1.000000*%
%TD*%
G04 APERTURE END LIST*
D10*
%TO.P,J1,1,Pin_1*%
%TO.N,+9V*%
X132710000Y-102230000D03*
D11*
%TO.P,J1,2,Pin_2*%
%TO.N,unconnected-(J1-Pin_2-Pad2)*%
X135250000Y-102230000D03*
%TO.P,J1,3,Pin_3*%
%TO.N,+9V*%
X132710000Y-104770000D03*
%TO.P,J1,4,Pin_4*%
%TO.N,GND*%
X135250000Y-104770000D03*
%TO.P,J1,5,Pin_5*%
%TO.N,+9V*%
X132710000Y-107310000D03*
%TO.P,J1,6,Pin_6*%
%TO.N,GND*%
X135250000Y-107310000D03*
%TO.P,J1,7,Pin_7*%
%TO.N,+9V*%
X132710000Y-109850000D03*
%TO.P,J1,8,Pin_8*%
%TO.N,GND*%
X135250000Y-109850000D03*
%TO.P,J1,9,Pin_9*%
%TO.N,unconnected-(J1-Pin_9-Pad9)*%
X132710000Y-112390000D03*
%TO.P,J1,10,Pin_10*%
%TO.N,GND*%
X135250000Y-112390000D03*
%TD*%
D12*
%TO.P,H1,1*%
%TO.N,N/C*%
X41600000Y-44000000D03*
X42302944Y-42302944D03*
X42302944Y-45697056D03*
X44000000Y-41600000D03*
D13*
X44000000Y-44000000D03*
D12*
X44000000Y-46400000D03*
X45697056Y-42302944D03*
X45697056Y-45697056D03*
X46400000Y-44000000D03*
%TD*%
%TO.P,H2,1*%
%TO.N,N/C*%
X41600000Y-136000000D03*
X42302944Y-134302944D03*
X42302944Y-137697056D03*
X44000000Y-133600000D03*
D13*
X44000000Y-136000000D03*
D12*
X44000000Y-138400000D03*
X45697056Y-134302944D03*
X45697056Y-137697056D03*
X46400000Y-136000000D03*
%TD*%
%TO.P,H3,1*%
%TO.N,N/C*%
X133600000Y-44000000D03*
X134302944Y-42302944D03*
X134302944Y-45697056D03*
X136000000Y-41600000D03*
D13*
X136000000Y-44000000D03*
D12*
X136000000Y-46400000D03*
X137697056Y-42302944D03*
X137697056Y-45697056D03*
X138400000Y-44000000D03*
%TD*%
%TO.P,H4,1*%
%TO.N,N/C*%
X133600000Y-136000000D03*
X134302944Y-134302944D03*
X134302944Y-137697056D03*
X136000000Y-133600000D03*
D13*
X136000000Y-136000000D03*
D12*
X136000000Y-138400000D03*
X137697056Y-134302944D03*
X137697056Y-137697056D03*
X138400000Y-136000000D03*
%TD*%
D14*
%TO.P,J3,1,Pin_1*%
%TO.N,+3.3V*%
X109215000Y-59685000D03*
D11*
%TO.P,J3,2,Pin_2*%
%TO.N,+5V*%
X109215000Y-62225000D03*
%TO.P,J3,3,Pin_3*%
%TO.N,+3.3V*%
X106675000Y-59685000D03*
%TO.P,J3,4,Pin_4*%
%TO.N,/ESP1/~{CS_3}*%
X106675000Y-62225000D03*
%TO.P,J3,5,Pin_5*%
%TO.N,/ESP1/IRQ_3*%
X104135000Y-59685000D03*
%TO.P,J3,6,Pin_6*%
%TO.N,/ESP1/~{CS_4}*%
X104135000Y-62225000D03*
%TO.P,J3,7,Pin_7*%
%TO.N,/ESP1/IRQ_4*%
X101595000Y-59685000D03*
%TO.P,J3,8,Pin_8*%
%TO.N,GND*%
X101595000Y-62225000D03*
%TO.P,J3,9,Pin_9*%
%TO.N,/ESP1/MOSI_2*%
X99055000Y-59685000D03*
%TO.P,J3,10,Pin_10*%
%TO.N,GND*%
X99055000Y-62225000D03*
%TO.P,J3,11,Pin_11*%
%TO.N,/ESP1/MISO_2*%
X96515000Y-59685000D03*
%TO.P,J3,12,Pin_12*%
%TO.N,GND*%
X96515000Y-62225000D03*
%TO.P,J3,13,Pin_13*%
%TO.N,/ESP1/SCLK_2*%
X93975000Y-59685000D03*
%TO.P,J3,14,Pin_14*%
%TO.N,GND*%
X93975000Y-62225000D03*
%TD*%
D14*
%TO.P,J4,1,Pin_1*%
%TO.N,+3.3V*%
X109215000Y-73655000D03*
D11*
%TO.P,J4,2,Pin_2*%
%TO.N,+5V*%
X109215000Y-76195000D03*
%TO.P,J4,3,Pin_3*%
%TO.N,+3.3V*%
X106675000Y-73655000D03*
%TO.P,J4,4,Pin_4*%
%TO.N,/ESP1/~{CS_5}*%
X106675000Y-76195000D03*
%TO.P,J4,5,Pin_5*%
%TO.N,/ESP1/IRQ_5*%
X104135000Y-73655000D03*
%TO.P,J4,6,Pin_6*%
%TO.N,/ESP1/~{CS_6}*%
X104135000Y-76195000D03*
%TO.P,J4,7,Pin_7*%
%TO.N,/ESP1/IRQ_6*%
X101595000Y-73655000D03*
%TO.P,J4,8,Pin_8*%
%TO.N,GND*%
X101595000Y-76195000D03*
%TO.P,J4,9,Pin_9*%
%TO.N,/ESP1/MOSI_3*%
X99055000Y-73655000D03*
%TO.P,J4,10,Pin_10*%
%TO.N,GND*%
X99055000Y-76195000D03*
%TO.P,J4,11,Pin_11*%
%TO.N,/ESP1/MISO_3*%
X96515000Y-73655000D03*
%TO.P,J4,12,Pin_12*%
%TO.N,GND*%
X96515000Y-76195000D03*
%TO.P,J4,13,Pin_13*%
%TO.N,/ESP1/SCLK_3*%
X93975000Y-73655000D03*
%TO.P,J4,14,Pin_14*%
%TO.N,GND*%
X93975000Y-76195000D03*
%TD*%
D14*
%TO.P,J7,1,Pin_1*%
%TO.N,+3.3V*%
X69210000Y-73655000D03*
D11*
%TO.P,J7,2,Pin_2*%
%TO.N,+5V*%
X69210000Y-76195000D03*
%TO.P,J7,3,Pin_3*%
%TO.N,+3.3V*%
X66670000Y-73655000D03*
%TO.P,J7,4,Pin_4*%
%TO.N,/ESP1/~{CS_11}*%
X66670000Y-76195000D03*
%TO.P,J7,5,Pin_5*%
%TO.N,/ESP1/IRQ_11*%
X64130000Y-73655000D03*
%TO.P,J7,6,Pin_6*%
%TO.N,/ESP1/~{CS_12}*%
X64130000Y-76195000D03*
%TO.P,J7,7,Pin_7*%
%TO.N,/ESP1/IRQ_12*%
X61590000Y-73655000D03*
%TO.P,J7,8,Pin_8*%
%TO.N,GND*%
X61590000Y-76195000D03*
%TO.P,J7,9,Pin_9*%
%TO.N,/ESP1/MOSI_6*%
X59050000Y-73655000D03*
%TO.P,J7,10,Pin_10*%
%TO.N,GND*%
X59050000Y-76195000D03*
%TO.P,J7,11,Pin_11*%
%TO.N,/ESP1/MISO_6*%
X56510000Y-73655000D03*
%TO.P,J7,12,Pin_12*%
%TO.N,GND*%
X56510000Y-76195000D03*
%TO.P,J7,13,Pin_13*%
%TO.N,/ESP1/SCLK_6*%
X53970000Y-73655000D03*
%TO.P,J7,14,Pin_14*%
%TO.N,GND*%
X53970000Y-76195000D03*
%TD*%
D14*
%TO.P,J6,1,Pin_1*%
%TO.N,+3.3V*%
X69210000Y-59685000D03*
D11*
%TO.P,J6,2,Pin_2*%
%TO.N,+5V*%
X69210000Y-62225000D03*
%TO.P,J6,3,Pin_3*%
%TO.N,+3.3V*%
X66670000Y-59685000D03*
%TO.P,J6,4,Pin_4*%
%TO.N,/ESP1/~{CS_9}*%
X66670000Y-62225000D03*
%TO.P,J6,5,Pin_5*%
%TO.N,/ESP1/IRQ_9*%
X64130000Y-59685000D03*
%TO.P,J6,6,Pin_6*%
%TO.N,/ESP1/~{CS_10}*%
X64130000Y-62225000D03*
%TO.P,J6,7,Pin_7*%
%TO.N,/ESP1/IRQ_10*%
X61590000Y-59685000D03*
%TO.P,J6,8,Pin_8*%
%TO.N,GND*%
X61590000Y-62225000D03*
%TO.P,J6,9,Pin_9*%
%TO.N,/ESP1/MOSI_5*%
X59050000Y-59685000D03*
%TO.P,J6,10,Pin_10*%
%TO.N,GND*%
X59050000Y-62225000D03*
%TO.P,J6,11,Pin_11*%
%TO.N,/ESP1/MISO_5*%
X56510000Y-59685000D03*
%TO.P,J6,12,Pin_12*%
%TO.N,GND*%
X56510000Y-62225000D03*
%TO.P,J6,13,Pin_13*%
%TO.N,/ESP1/SCLK_5*%
X53970000Y-59685000D03*
%TO.P,J6,14,Pin_14*%
%TO.N,GND*%
X53970000Y-62225000D03*
%TD*%
D14*
%TO.P,J5,1,Pin_1*%
%TO.N,+3.3V*%
X69210000Y-45715000D03*
D11*
%TO.P,J5,2,Pin_2*%
%TO.N,+5V*%
X69210000Y-48255000D03*
%TO.P,J5,3,Pin_3*%
%TO.N,+3.3V*%
X66670000Y-45715000D03*
%TO.P,J5,4,Pin_4*%
%TO.N,/ESP1/~{CS_7}*%
X66670000Y-48255000D03*
%TO.P,J5,5,Pin_5*%
%TO.N,/ESP1/IRQ_7*%
X64130000Y-45715000D03*
%TO.P,J5,6,Pin_6*%
%TO.N,/ESP1/~{CS_8}*%
X64130000Y-48255000D03*
%TO.P,J5,7,Pin_7*%
%TO.N,/ESP1/IRQ_8*%
X61590000Y-45715000D03*
%TO.P,J5,8,Pin_8*%
%TO.N,GND*%
X61590000Y-48255000D03*
%TO.P,J5,9,Pin_9*%
%TO.N,/ESP1/MOSI_4*%
X59050000Y-45715000D03*
%TO.P,J5,10,Pin_10*%
%TO.N,GND*%
X59050000Y-48255000D03*
%TO.P,J5,11,Pin_11*%
%TO.N,/ESP1/MISO_4*%
X56510000Y-45715000D03*
%TO.P,J5,12,Pin_12*%
%TO.N,GND*%
X56510000Y-48255000D03*
%TO.P,J5,13,Pin_13*%
%TO.N,/ESP1/SCLK_4*%
X53970000Y-45715000D03*
%TO.P,J5,14,Pin_14*%
%TO.N,GND*%
X53970000Y-48255000D03*
%TD*%
D15*
%TO.P,C14,1*%
%TO.N,Net-(U5-+VIn)*%
X93974999Y-134019999D03*
D16*
%TO.P,C14,2*%
%TO.N,GND*%
X93975000Y-136520000D03*
%TD*%
D17*
%TO.P,C4,1*%
%TO.N,+9V*%
X132709999Y-122131040D03*
D18*
%TO.P,C4,2*%
%TO.N,GND*%
X132710000Y-127131041D03*
%TD*%
D15*
%TO.P,C5,1*%
%TO.N,Net-(U5-+VIn)*%
X103499999Y-134019999D03*
D16*
%TO.P,C5,2*%
%TO.N,GND*%
X103500000Y-136520000D03*
%TD*%
D15*
%TO.P,C15,1*%
%TO.N,+5V*%
X98782605Y-96387999D03*
D16*
%TO.P,C15,2*%
%TO.N,GND*%
X101282606Y-96388000D03*
%TD*%
D15*
%TO.P,C16,1*%
%TO.N,+3.3V*%
X113309999Y-107699999D03*
D16*
%TO.P,C16,2*%
%TO.N,GND*%
X113310000Y-110200000D03*
%TD*%
D14*
%TO.P,J2,1,Pin_1*%
%TO.N,+3.3V*%
X109215000Y-45715000D03*
D11*
%TO.P,J2,2,Pin_2*%
%TO.N,+5V*%
X109215000Y-48255000D03*
%TO.P,J2,3,Pin_3*%
%TO.N,+3.3V*%
X106675000Y-45715000D03*
%TO.P,J2,4,Pin_4*%
%TO.N,/ESP1/~{CS_1}*%
X106675000Y-48255000D03*
%TO.P,J2,5,Pin_5*%
%TO.N,/ESP1/IRQ_1*%
X104135000Y-45715000D03*
%TO.P,J2,6,Pin_6*%
%TO.N,/ESP1/~{CS_2}*%
X104135000Y-48255000D03*
%TO.P,J2,7,Pin_7*%
%TO.N,/ESP1/IRQ_2*%
X101595000Y-45715000D03*
%TO.P,J2,8,Pin_8*%
%TO.N,GND*%
X101595000Y-48255000D03*
%TO.P,J2,9,Pin_9*%
%TO.N,/ESP1/MOSI_1*%
X99055000Y-45715000D03*
%TO.P,J2,10,Pin_10*%
%TO.N,GND*%
X99055000Y-48255000D03*
%TO.P,J2,11,Pin_11*%
%TO.N,/ESP1/MISO_1*%
X96515000Y-45715000D03*
%TO.P,J2,12,Pin_12*%
%TO.N,GND*%
X96515000Y-48255000D03*
%TO.P,J2,13,Pin_13*%
%TO.N,/ESP1/SCLK_1*%
X93975000Y-45715000D03*
%TO.P,J2,14,Pin_14*%
%TO.N,GND*%
X93975000Y-48255000D03*
%TD*%
D19*
%TO.P,LCD1,1,VCC*%
%TO.N,+5V*%
X80205000Y-102230000D03*
%TO.P,LCD1,2,Gnd*%
%TO.N,GND*%
X80205000Y-99690000D03*
%TO.P,LCD1,3,SCL*%
%TO.N,/ESP1/I2C_SCL*%
X80205000Y-97150000D03*
%TO.P,LCD1,4,SDA*%
%TO.N,/ESP1/I2C_SDA*%
X80205000Y-94610000D03*
D20*
%TO.P,LCD1,8*%
%TO.N,N/C*%
X80705000Y-110070000D03*
X104505000Y-110070000D03*
X80705000Y-86770000D03*
X104505000Y-86770000D03*
%TD*%
D21*
%TO.P,U2,1,5V*%
%TO.N,+5V*%
X50794999Y-113112499D03*
D19*
%TO.P,U2,2,3.3V*%
%TO.N,unconnected-(U2-3.3V-Pad2)*%
X50795000Y-115652500D03*
%TO.P,U2,3,GND*%
%TO.N,GND*%
X50795000Y-118192500D03*
%TO.P,U2,4,ESP_EN*%
%TO.N,unconnected-(U2-ESP_EN-Pad4)*%
X50795000Y-120732500D03*
%TO.P,U2,5,GPIO0*%
%TO.N,/ESP1/I2C_SDA*%
X50795000Y-123272500D03*
%TO.P,U2,6,GPIO1/U0TXD*%
%TO.N,unconnected-(U2-GPIO1{slash}U0TXD-Pad6)*%
X50795000Y-125812500D03*
%TO.P,U2,7,GPIO2/HS2_DATA0*%
%TO.N,/ESP1/I2C_SCL*%
X50795000Y-128352500D03*
%TO.P,U2,8,GPIO3/U0RXD*%
%TO.N,unconnected-(U2-GPIO3{slash}U0RXD-Pad8)*%
X50795000Y-130892500D03*
%TO.P,U2,9,GPIO4/U1TXD*%
%TO.N,/ESP1/CS_EN*%
X50795000Y-133432500D03*
%TO.P,U2,10,GPIO5/SPI_CS*%
%TO.N,/ESP1/CS_A3*%
X50795000Y-135972500D03*
D21*
%TO.P,U2,11,GPIO39*%
%TO.N,Net-(U2-GPIO39)*%
X76194999Y-113112499D03*
D19*
%TO.P,U2,12,GPIO36/U1RXD*%
%TO.N,/ESP1/1WIRE*%
X76195000Y-115652500D03*
%TO.P,U2,13,GPIO35*%
%TO.N,/ESP1/MISO*%
X76195000Y-118192500D03*
%TO.P,U2,14,GPIO34/BUT1*%
%TO.N,unconnected-(U2-GPIO34{slash}BUT1-Pad14)*%
X76195000Y-120732500D03*
%TO.P,U2,15,GPIO33*%
%TO.N,Net-(U2-GPIO33)*%
X76195000Y-123272500D03*
%TO.P,U2,16,GPIO32*%
%TO.N,/ESP1/CS_A0*%
X76195000Y-125812500D03*
%TO.P,U2,17,GPIO16/I2C-SCL*%
%TO.N,/ESP1/CS_A1*%
X76195000Y-128352500D03*
%TO.P,U2,18,GPIO15/HS2_CMD*%
%TO.N,/ESP1/MOSI*%
X76195000Y-130892500D03*
%TO.P,U2,19,GPIO14/HS2_CLK*%
%TO.N,/ESP1/SCLK*%
X76195000Y-133432500D03*
%TO.P,U2,20,GPIO13/I2C-SDA*%
%TO.N,/ESP1/CS_A2*%
X76195000Y-135972500D03*
%TD*%
D22*
%TO.P,J8,1,Pin_1*%
%TO.N,GND*%
X135885000Y-76750000D03*
D23*
%TO.P,J8,2,Pin_2*%
%TO.N,/ESP1/1WIRE*%
X135884999Y-74249999D03*
%TO.P,J8,3,Pin_3*%
%TO.N,+3.3V*%
X135884999Y-71749999D03*
%TO.P,J8,4,Pin_4*%
%TO.N,+5V*%
X135884999Y-69249999D03*
%TD*%
D22*
%TO.P,J9,1,Pin_1*%
%TO.N,GND*%
X135995000Y-63435000D03*
D23*
%TO.P,J9,2,Pin_2*%
%TO.N,/ESP1/1WIRE*%
X135994999Y-60934999D03*
%TO.P,J9,3,Pin_3*%
%TO.N,+3.3V*%
X135994999Y-58434999D03*
%TO.P,J9,4,Pin_4*%
%TO.N,+5V*%
X135994999Y-55934999D03*
%TD*%
D22*
%TO.P,J11,1,Pin_1*%
%TO.N,+5V*%
X129535000Y-92665000D03*
D23*
%TO.P,J11,2,Pin_2*%
%TO.N,+3.3V*%
X129534999Y-90164999D03*
%TO.P,J11,3,Pin_3*%
%TO.N,/ESP1/I2C_SCL*%
X129534999Y-87664999D03*
%TO.P,J11,4,Pin_4*%
%TO.N,/ESP1/I2C_SDA*%
X129534999Y-85164999D03*
%TO.P,J11,5,Pin_5*%
%TO.N,GND*%
X129534999Y-82664999D03*
%TD*%
D22*
%TO.P,J12,1,Pin_1*%
%TO.N,+5V*%
X135995000Y-92625000D03*
D23*
%TO.P,J12,2,Pin_2*%
%TO.N,+3.3V*%
X135994999Y-90124999D03*
%TO.P,J12,3,Pin_3*%
%TO.N,/ESP1/I2C_SCL*%
X135994999Y-87624999D03*
%TO.P,J12,4,Pin_4*%
%TO.N,/ESP1/I2C_SDA*%
X135994999Y-85124999D03*
%TO.P,J12,5,Pin_5*%
%TO.N,GND*%
X135994999Y-82624999D03*
%TD*%
D24*
%TO.N,GND*%
X122810000Y-123700000D03*
X84450000Y-122900000D03*
D25*
X96310000Y-114700000D03*
D24*
X115285000Y-103700000D03*
D26*
X90800000Y-78968000D03*
X118653000Y-98324000D03*
X116406000Y-81280500D03*
X108011500Y-68884500D03*
X81783000Y-52827000D03*
X114308000Y-59815000D03*
X64765000Y-116200000D03*
X74303000Y-45845000D03*
X78735000Y-120920000D03*
D25*
X115310000Y-114700000D03*
D26*
X58860000Y-68130000D03*
X124201000Y-84958000D03*
D24*
X91562000Y-100706000D03*
D26*
X70395000Y-130805000D03*
X88895000Y-89835000D03*
X57145000Y-111120000D03*
X108011500Y-82854500D03*
X74303000Y-59815000D03*
X98865000Y-68130000D03*
D24*
X87835000Y-125725000D03*
D26*
X98865000Y-54160000D03*
D24*
X106835000Y-125700000D03*
D26*
X76401000Y-53340500D03*
D24*
X107810000Y-114675000D03*
D26*
X58860000Y-82100000D03*
X81783000Y-66797000D03*
X68006500Y-82854500D03*
X116406000Y-53340500D03*
X41905000Y-113406000D03*
X68006500Y-54914500D03*
X114308000Y-73785000D03*
X76401000Y-81280500D03*
X121788000Y-80767000D03*
X121788000Y-66797000D03*
X116406000Y-67310500D03*
D24*
X100785000Y-120700000D03*
X110835000Y-117700000D03*
D26*
X72295000Y-122435000D03*
X74303000Y-73785000D03*
X81783000Y-80767000D03*
D24*
X85785000Y-117700000D03*
D26*
X114308000Y-45845000D03*
X68006500Y-68884500D03*
X76401000Y-67310500D03*
X41905000Y-130170000D03*
X121788000Y-52827000D03*
D24*
X106835000Y-120700000D03*
X100785000Y-125700000D03*
D26*
X58860000Y-54160000D03*
X98865000Y-82100000D03*
X108011500Y-54914500D03*
D24*
X91835000Y-117700000D03*
D26*
%TO.N,+3.3V*%
X53970000Y-130480000D03*
X85466000Y-50795000D03*
X71617500Y-79878000D03*
X54605000Y-108885000D03*
X72280000Y-118310000D03*
X79900000Y-114105000D03*
X91943000Y-82037000D03*
X85466000Y-64765000D03*
X41905000Y-108250000D03*
X56321250Y-128332750D03*
X41905000Y-84755000D03*
X41905000Y-121915000D03*
X125471000Y-78735000D03*
X111622500Y-51938000D03*
X111622500Y-65908000D03*
X71617500Y-51938000D03*
X125471000Y-50795000D03*
X85466000Y-78735000D03*
X111622500Y-79878000D03*
X71617500Y-65908000D03*
X125471000Y-64765000D03*
X56321250Y-123252750D03*
X117013000Y-93594000D03*
%TO.N,Net-(D6-A)*%
X52805000Y-137650000D03*
X44890000Y-123185000D03*
%TO.N,Net-(R3-Pad2)*%
X86355000Y-104990000D03*
X86355000Y-96820000D03*
D24*
%TO.N,+5V*%
X113025000Y-85974000D03*
X73020000Y-85212000D03*
D26*
%TO.N,/ESP1/1WIRE*%
X97150000Y-108580000D03*
%TO.N,/ESP1/~{CS_2}*%
X109342000Y-51938000D03*
X54605000Y-106980000D03*
X64765000Y-106040000D03*
%TO.N,/ESP1/~{CS_1}*%
X66035000Y-106294000D03*
X110485000Y-50795000D03*
X54605000Y-105075000D03*
%TO.N,/ESP1/SCLK*%
X128011000Y-61463000D03*
X88006000Y-47493000D03*
X88006000Y-61463000D03*
X88006000Y-75433000D03*
X128011000Y-75433000D03*
X88006000Y-43302000D03*
X73782000Y-114676000D03*
X128011000Y-47493000D03*
X73401000Y-120264000D03*
%TO.N,/ESP1/MISO*%
X127122000Y-48255000D03*
X127122000Y-62225000D03*
X127122000Y-76195000D03*
X87117000Y-48255000D03*
X87117000Y-76195000D03*
X87117000Y-62225000D03*
X85593000Y-48255000D03*
%TO.N,/ESP1/MOSI*%
X126360000Y-49144000D03*
X86355000Y-77084000D03*
X126360000Y-63114000D03*
X126360000Y-77084000D03*
X86355000Y-63114000D03*
X86355000Y-49144000D03*
%TO.N,Net-(U3-Pad1)*%
X93467000Y-88260000D03*
X86420000Y-81972000D03*
%TO.N,/ESP1/I2C_SCL*%
X88260000Y-93645000D03*
%TO.N,Net-(U2-GPIO33)*%
X123820000Y-99505000D03*
%TO.N,/ESP1/CS_A0*%
X71964500Y-125812500D03*
X62256500Y-129566500D03*
%TO.N,/ESP1/CS_A1*%
X68575000Y-126995000D03*
X62225000Y-127026500D03*
%TO.N,/ESP1/CS_A2*%
X62225000Y-124598500D03*
X67305000Y-124455000D03*
%TO.N,Net-(U7-OEa)*%
X78100000Y-53335000D03*
X84455500Y-43937000D03*
%TO.N,Net-(U9-OEa)*%
X84455500Y-57907000D03*
X78100000Y-67305000D03*
%TO.N,Net-(U11-OEa)*%
X78100000Y-81275000D03*
X84455500Y-71877000D03*
%TO.N,Net-(U13-OEa)*%
X118105000Y-53335000D03*
X124460500Y-43937000D03*
%TO.N,Net-(U15-OEa)*%
X118105000Y-67305000D03*
X124460500Y-57907000D03*
%TO.N,Net-(U17-OEa)*%
X124460500Y-71877000D03*
X118105000Y-81275000D03*
%TO.N,/ESP1/I2C_SDA*%
X87625000Y-92375000D03*
%TO.N,/ESP1/~{CS_4_R}*%
X67305000Y-106345000D03*
X109342000Y-65908000D03*
X54605000Y-103170000D03*
%TO.N,/ESP1/~{CS_3_R}*%
X110485000Y-64765000D03*
X54605000Y-101265000D03*
X68575000Y-106802000D03*
%TO.N,/ESP1/~{CS_11_R}*%
X54605000Y-86025000D03*
X63495000Y-86025000D03*
X70480000Y-78735000D03*
%TO.N,/ESP1/~{CS_12_R}*%
X62225000Y-87930000D03*
X54605000Y-87930000D03*
X69337000Y-79878000D03*
%TO.N,/ESP1/~{CS_5_R}*%
X71978500Y-106827500D03*
X54605000Y-97455000D03*
X110485000Y-78735000D03*
%TO.N,/ESP1/~{CS_6_R}*%
X109342000Y-79878000D03*
X70200500Y-106954500D03*
X54605000Y-99360000D03*
%TO.N,/ESP1/~{CS_9_R}*%
X70480000Y-64765000D03*
X54605000Y-89835000D03*
X60955000Y-89835000D03*
%TO.N,/ESP1/~{CS_10_R}*%
X54605000Y-91740000D03*
X59685000Y-91740000D03*
X69337000Y-65908000D03*
%TO.N,/ESP1/~{CS_7_R}*%
X54605000Y-93645000D03*
X58415000Y-93645000D03*
X70480000Y-50795000D03*
%TO.N,/ESP1/~{CS_8_R}*%
X69337000Y-51938000D03*
%TD*%
D27*
%TO.N,Net-(D6-A)*%
X48255000Y-133015000D02*
X44890000Y-129650000D01*
X52805000Y-137650000D02*
X49080000Y-137650000D01*
X44890000Y-129650000D02*
X44890000Y-123185000D01*
X48255000Y-136825000D02*
X48255000Y-133015000D01*
X49080000Y-137650000D02*
X48255000Y-136825000D01*
%TO.N,Net-(R3-Pad2)*%
X86355000Y-104990000D02*
X86355000Y-96820000D01*
D28*
%TO.N,+5V*%
X119883000Y-99817000D02*
X127075000Y-92625000D01*
X73020000Y-85212000D02*
X73020000Y-76195000D01*
X109215000Y-62225000D02*
X113025000Y-62225000D01*
X69210000Y-76195000D02*
X73020000Y-76195000D01*
X138425000Y-58365000D02*
X135995000Y-55935000D01*
X135995000Y-92625000D02*
X137235000Y-92625000D01*
X113025000Y-76195000D02*
X113025000Y-49525000D01*
X137235000Y-92625000D02*
X138425000Y-91435000D01*
X113025000Y-85974000D02*
X113025000Y-76195000D01*
X113025000Y-49525000D02*
X111755000Y-48255000D01*
X138425000Y-91435000D02*
X138425000Y-73020000D01*
X71750000Y-48255000D02*
X69210000Y-48255000D01*
X111628000Y-99817000D02*
X100452000Y-99817000D01*
X111628000Y-99817000D02*
X119883000Y-99817000D01*
X111755000Y-48255000D02*
X109215000Y-48255000D01*
X109215000Y-76195000D02*
X113025000Y-76195000D01*
X105278000Y-99817000D02*
X111628000Y-99817000D01*
X138425000Y-69250000D02*
X135885000Y-69250000D01*
X100452000Y-99817000D02*
X98782606Y-98147606D01*
X69210000Y-62225000D02*
X73020000Y-62225000D01*
X98782606Y-98147606D02*
X98782606Y-96388000D01*
X127075000Y-92625000D02*
X135995000Y-92625000D01*
X138425000Y-73020000D02*
X138425000Y-58365000D01*
X73020000Y-76195000D02*
X73020000Y-49525000D01*
X73020000Y-49525000D02*
X71750000Y-48255000D01*
D27*
%TO.N,/ESP1/1WIRE*%
X90038000Y-108580000D02*
X97150000Y-108580000D01*
X76195000Y-115652500D02*
X82965500Y-115652500D01*
X82965500Y-115652500D02*
X90038000Y-108580000D01*
%TO.N,/ESP1/~{CS_2}*%
X59685000Y-106980000D02*
X60625000Y-106040000D01*
X60625000Y-106040000D02*
X64765000Y-106040000D01*
X54605000Y-106980000D02*
X59685000Y-106980000D01*
%TO.N,/ESP1/~{CS_1}*%
X59431000Y-105075000D02*
X59685000Y-104821000D01*
X59685000Y-104821000D02*
X65400000Y-104821000D01*
X54605000Y-105075000D02*
X59431000Y-105075000D01*
X66035000Y-105456000D02*
X66035000Y-106294000D01*
X65400000Y-104821000D02*
X66035000Y-105456000D01*
%TO.N,/ESP1/SCLK*%
X127385305Y-47493000D02*
X128011000Y-48118695D01*
X74885500Y-133432500D02*
X73401000Y-131948000D01*
X125852000Y-41143000D02*
X94610000Y-41143000D01*
X81910000Y-107615000D02*
X78735000Y-107615000D01*
X90165000Y-41143000D02*
X88006000Y-43302000D01*
X88006000Y-78989000D02*
X85085000Y-81910000D01*
X85085000Y-104440000D02*
X81910000Y-107615000D01*
X128011000Y-48118695D02*
X128011000Y-75433000D01*
X76195000Y-133432500D02*
X74885500Y-133432500D01*
X78735000Y-107615000D02*
X73782000Y-112568000D01*
X128011000Y-47493000D02*
X127385305Y-47493000D01*
X88006000Y-75433000D02*
X88006000Y-78989000D01*
X85085000Y-81910000D02*
X85085000Y-104440000D01*
X128011000Y-43302000D02*
X125852000Y-41143000D01*
X128011000Y-47493000D02*
X128011000Y-43302000D01*
X73401000Y-131948000D02*
X73401000Y-120264000D01*
X88006000Y-75433000D02*
X88006000Y-47493000D01*
X73782000Y-112568000D02*
X73782000Y-114676000D01*
X94610000Y-41143000D02*
X90165000Y-41143000D01*
%TO.N,/ESP1/MISO*%
X126935305Y-43623305D02*
X125217000Y-41905000D01*
X127122000Y-65822695D02*
X127083000Y-65861695D01*
X125217000Y-41905000D02*
X90927000Y-41905000D01*
X127122000Y-48255000D02*
X127122000Y-65822695D01*
X90927000Y-41905000D02*
X85593000Y-47239000D01*
X87117000Y-76195000D02*
X87117000Y-79116000D01*
X126935305Y-48068305D02*
X126935305Y-43623305D01*
X72893000Y-115654000D02*
X75431500Y-118192500D01*
X78100000Y-106980000D02*
X72893000Y-112187000D01*
X127122000Y-48255000D02*
X126935305Y-48068305D01*
X85593000Y-47239000D02*
X85593000Y-48255000D01*
X75431500Y-118192500D02*
X76195000Y-118192500D01*
X127083000Y-76156000D02*
X127122000Y-76195000D01*
X87117000Y-79116000D02*
X84450000Y-81783000D01*
X87117000Y-48255000D02*
X87117000Y-76195000D01*
X84450000Y-104438604D02*
X81908604Y-106980000D01*
X72893000Y-112187000D02*
X72893000Y-115654000D01*
X127083000Y-65861695D02*
X127083000Y-76156000D01*
X84450000Y-81783000D02*
X84450000Y-104438604D01*
X81908604Y-106980000D02*
X78100000Y-106980000D01*
%TO.N,/ESP1/MOSI*%
X86355000Y-77084000D02*
X86355000Y-49144000D01*
X91181000Y-42794000D02*
X86355000Y-47620000D01*
X126360000Y-63114000D02*
X126360000Y-49144000D01*
X75012500Y-130892500D02*
X74290000Y-130170000D01*
X86355000Y-79116000D02*
X86355000Y-77084000D01*
X86355000Y-47620000D02*
X86355000Y-49144000D01*
X83815000Y-81656000D02*
X86355000Y-79116000D01*
X126360000Y-77084000D02*
X126360000Y-63114000D01*
X74290000Y-130170000D02*
X74290000Y-118410000D01*
X76195000Y-130892500D02*
X75012500Y-130892500D01*
X72131000Y-116251000D02*
X72131000Y-111679000D01*
X74290000Y-118410000D02*
X72131000Y-116251000D01*
X126360000Y-44064000D02*
X125090000Y-42794000D01*
X77465000Y-106345000D02*
X81907208Y-106345000D01*
X72131000Y-111679000D02*
X77465000Y-106345000D01*
X125090000Y-42794000D02*
X91181000Y-42794000D01*
X81907208Y-106345000D02*
X83815000Y-104437208D01*
X126360000Y-49144000D02*
X126360000Y-44064000D01*
X83815000Y-104437208D02*
X83815000Y-81656000D01*
%TO.N,Net-(U3-Pad1)*%
X93467000Y-87244000D02*
X88195000Y-81972000D01*
X93467000Y-88260000D02*
X93467000Y-87244000D01*
X88195000Y-81972000D02*
X86420000Y-81972000D01*
%TO.N,/ESP1/I2C_SCL*%
X127590000Y-87665000D02*
X129535000Y-87665000D01*
X53208000Y-125939500D02*
X53208000Y-122677000D01*
X53208000Y-122677000D02*
X61920000Y-113965000D01*
X88260000Y-93645000D02*
X90216000Y-91689000D01*
X67940000Y-113965000D02*
X78100000Y-103805000D01*
X135955000Y-87665000D02*
X135995000Y-87625000D01*
X123566000Y-91689000D02*
X127590000Y-87665000D01*
X129535000Y-87665000D02*
X135955000Y-87665000D01*
X90216000Y-91689000D02*
X123566000Y-91689000D01*
X78100000Y-99255000D02*
X80205000Y-97150000D01*
X50795000Y-128352500D02*
X53208000Y-125939500D01*
X61920000Y-113965000D02*
X67940000Y-113965000D01*
X78100000Y-103805000D02*
X78100000Y-99255000D01*
%TO.N,Net-(U2-GPIO33)*%
X90800000Y-109850000D02*
X100071000Y-109850000D01*
X82545000Y-118105000D02*
X90800000Y-109850000D01*
X82545000Y-120645000D02*
X82545000Y-118105000D01*
X100071000Y-109850000D02*
X108326000Y-101595000D01*
X76195000Y-123272500D02*
X79917500Y-123272500D01*
X79917500Y-123272500D02*
X82545000Y-120645000D01*
X108326000Y-101595000D02*
X121730000Y-101595000D01*
X121730000Y-101595000D02*
X123820000Y-99505000D01*
%TO.N,/ESP1/CS_A0*%
X68210500Y-129566500D02*
X71964500Y-125812500D01*
X62256500Y-129566500D02*
X68210500Y-129566500D01*
%TO.N,/ESP1/CS_A1*%
X68575000Y-126995000D02*
X62256500Y-126995000D01*
X62256500Y-126995000D02*
X62225000Y-127026500D01*
%TO.N,/ESP1/CS_A2*%
X67161500Y-124598500D02*
X62225000Y-124598500D01*
X67305000Y-124455000D02*
X67161500Y-124598500D01*
%TO.N,Net-(U7-OEa)*%
X82418000Y-43937000D02*
X84455500Y-43937000D01*
X78100000Y-48255000D02*
X82418000Y-43937000D01*
X78100000Y-53335000D02*
X78100000Y-48255000D01*
%TO.N,Net-(U9-OEa)*%
X82418000Y-57907000D02*
X84455500Y-57907000D01*
X78100000Y-67305000D02*
X78100000Y-62225000D01*
X78100000Y-62225000D02*
X82418000Y-57907000D01*
%TO.N,Net-(U11-OEa)*%
X78100000Y-81275000D02*
X78100000Y-76195000D01*
X82418000Y-71877000D02*
X84455500Y-71877000D01*
X78100000Y-76195000D02*
X82418000Y-71877000D01*
%TO.N,Net-(U13-OEa)*%
X118105000Y-48255000D02*
X122423000Y-43937000D01*
X118105000Y-53335000D02*
X118105000Y-48255000D01*
X122423000Y-43937000D02*
X124460500Y-43937000D01*
%TO.N,Net-(U15-OEa)*%
X118105000Y-67305000D02*
X118105000Y-62225000D01*
X122423000Y-57907000D02*
X124460500Y-57907000D01*
X118105000Y-62225000D02*
X122423000Y-57907000D01*
%TO.N,Net-(U17-OEa)*%
X118105000Y-76195000D02*
X122423000Y-71877000D01*
X118105000Y-81275000D02*
X118105000Y-76195000D01*
X122423000Y-71877000D02*
X124460500Y-71877000D01*
%TO.N,/ESP1/I2C_SDA*%
X77465000Y-103170000D02*
X67940000Y-112695000D01*
X87625000Y-92375000D02*
X89073000Y-90927000D01*
X121788000Y-90927000D02*
X127590000Y-85125000D01*
X80205000Y-94610000D02*
X77465000Y-97350000D01*
X127590000Y-85125000D02*
X135995000Y-85125000D01*
X77465000Y-97350000D02*
X77465000Y-103170000D01*
X61372500Y-112695000D02*
X50795000Y-123272500D01*
X89073000Y-90927000D02*
X121788000Y-90927000D01*
X67940000Y-112695000D02*
X61372500Y-112695000D01*
%TO.N,/ESP1/~{CS_4_R}*%
X67305000Y-105202000D02*
X67305000Y-106345000D01*
X54605000Y-103170000D02*
X65273000Y-103170000D01*
X65273000Y-103170000D02*
X67305000Y-105202000D01*
%TO.N,/ESP1/~{CS_3_R}*%
X65273000Y-101265000D02*
X68575000Y-104567000D01*
X68575000Y-104567000D02*
X68575000Y-106802000D01*
X54605000Y-101265000D02*
X65273000Y-101265000D01*
%TO.N,/ESP1/~{CS_11_R}*%
X54605000Y-86025000D02*
X63495000Y-86025000D01*
%TO.N,/ESP1/~{CS_12_R}*%
X54605000Y-87930000D02*
X62225000Y-87930000D01*
%TO.N,/ESP1/~{CS_5_R}*%
X65273000Y-97455000D02*
X71978500Y-104160500D01*
X54605000Y-97455000D02*
X65273000Y-97455000D01*
X71978500Y-104160500D02*
X71978500Y-106827500D01*
%TO.N,/ESP1/~{CS_6_R}*%
X54605000Y-99360000D02*
X65019000Y-99360000D01*
X70200500Y-104541500D02*
X70200500Y-106954500D01*
X65019000Y-99360000D02*
X70200500Y-104541500D01*
%TO.N,/ESP1/~{CS_9_R}*%
X54605000Y-89835000D02*
X60955000Y-89835000D01*
%TO.N,/ESP1/~{CS_10_R}*%
X54605000Y-91740000D02*
X59685000Y-91740000D01*
%TO.N,/ESP1/~{CS_7_R}*%
X54605000Y-93645000D02*
X58415000Y-93645000D01*
%TD*%
M02*
