%TF.GenerationSoftware,KiCad,Pcbnew,(7.0.0)*%
%TF.CreationDate,2023-03-12T03:04:05-07:00*%
%TF.ProjectId,EnergyMonitor - ESP PCB,456e6572-6779-44d6-9f6e-69746f72202d,rev?*%
%TF.SameCoordinates,Original*%
%TF.FileFunction,Soldermask,Bot*%
%TF.FilePolarity,Negative*%
%FSLAX46Y46*%
G04 Gerber Fmt 4.6, Leading zero omitted, Abs format (unit mm)*
G04 Created by KiCad (PCBNEW (7.0.0)) date 2023-03-12 03:04:05*
%MOMM*%
%LPD*%
G01*
G04 APERTURE LIST*
G04 Aperture macros list*
%AMRoundRect*
0 Rectangle with rounded corners*
0 $1 Rounding radius*
0 $2 $3 $4 $5 $6 $7 $8 $9 X,Y pos of 4 corners*
0 Add a 4 corners polygon primitive as box body*
4,1,4,$2,$3,$4,$5,$6,$7,$8,$9,$2,$3,0*
0 Add four circle primitives for the rounded corners*
1,1,$1+$1,$2,$3*
1,1,$1+$1,$4,$5*
1,1,$1+$1,$6,$7*
1,1,$1+$1,$8,$9*
0 Add four rect primitives between the rounded corners*
20,1,$1+$1,$2,$3,$4,$5,0*
20,1,$1+$1,$4,$5,$6,$7,0*
20,1,$1+$1,$6,$7,$8,$9,0*
20,1,$1+$1,$8,$9,$2,$3,0*%
G04 Aperture macros list end*
%ADD10RoundRect,0.300000X-0.600000X-0.600000X0.600000X-0.600000X0.600000X0.600000X-0.600000X0.600000X0*%
%ADD11C,1.800000*%
%ADD12C,0.900000*%
%ADD13C,6.500000*%
%ADD14RoundRect,0.300000X-0.600000X0.600000X-0.600000X-0.600000X0.600000X-0.600000X0.600000X0.600000X0*%
%ADD15RoundRect,0.050000X-0.800000X0.800000X-0.800000X-0.800000X0.800000X-0.800000X0.800000X0.800000X0*%
%ADD16C,1.700000*%
%ADD17RoundRect,0.050000X-1.200000X1.200000X-1.200000X-1.200000X1.200000X-1.200000X1.200000X1.200000X0*%
%ADD18C,2.500000*%
%ADD19RoundRect,0.050000X-0.800000X-0.800000X0.800000X-0.800000X0.800000X0.800000X-0.800000X0.800000X0*%
%ADD20C,1.878000*%
%ADD21C,3.600000*%
%ADD22RoundRect,0.050000X0.889000X0.889000X-0.889000X0.889000X-0.889000X-0.889000X0.889000X-0.889000X0*%
%ADD23RoundRect,0.300000X0.725000X-0.600000X0.725000X0.600000X-0.725000X0.600000X-0.725000X-0.600000X0*%
%ADD24O,2.050000X1.800000*%
G04 APERTURE END LIST*
D10*
%TO.C,J1*%
X132710000Y-102230000D03*
D11*
X135250000Y-102230000D03*
X132710000Y-104770000D03*
X135250000Y-104770000D03*
X132710000Y-107310000D03*
X135250000Y-107310000D03*
X132710000Y-109850000D03*
X135250000Y-109850000D03*
X132710000Y-112390000D03*
X135250000Y-112390000D03*
%TD*%
D12*
%TO.C,H1*%
X41600000Y-44000000D03*
X42302944Y-42302944D03*
X42302944Y-45697056D03*
X44000000Y-41600000D03*
D13*
X44000000Y-44000000D03*
D12*
X44000000Y-46400000D03*
X45697056Y-42302944D03*
X45697056Y-45697056D03*
X46400000Y-44000000D03*
%TD*%
%TO.C,H2*%
X41600000Y-136000000D03*
X42302944Y-134302944D03*
X42302944Y-137697056D03*
X44000000Y-133600000D03*
D13*
X44000000Y-136000000D03*
D12*
X44000000Y-138400000D03*
X45697056Y-134302944D03*
X45697056Y-137697056D03*
X46400000Y-136000000D03*
%TD*%
%TO.C,H3*%
X133600000Y-44000000D03*
X134302944Y-42302944D03*
X134302944Y-45697056D03*
X136000000Y-41600000D03*
D13*
X136000000Y-44000000D03*
D12*
X136000000Y-46400000D03*
X137697056Y-42302944D03*
X137697056Y-45697056D03*
X138400000Y-44000000D03*
%TD*%
%TO.C,H4*%
X133600000Y-136000000D03*
X134302944Y-134302944D03*
X134302944Y-137697056D03*
X136000000Y-133600000D03*
D13*
X136000000Y-136000000D03*
D12*
X136000000Y-138400000D03*
X137697056Y-134302944D03*
X137697056Y-137697056D03*
X138400000Y-136000000D03*
%TD*%
D14*
%TO.C,J3*%
X109215000Y-59685000D03*
D11*
X109215000Y-62225000D03*
X106675000Y-59685000D03*
X106675000Y-62225000D03*
X104135000Y-59685000D03*
X104135000Y-62225000D03*
X101595000Y-59685000D03*
X101595000Y-62225000D03*
X99055000Y-59685000D03*
X99055000Y-62225000D03*
X96515000Y-59685000D03*
X96515000Y-62225000D03*
X93975000Y-59685000D03*
X93975000Y-62225000D03*
%TD*%
D14*
%TO.C,J4*%
X109215000Y-73655000D03*
D11*
X109215000Y-76195000D03*
X106675000Y-73655000D03*
X106675000Y-76195000D03*
X104135000Y-73655000D03*
X104135000Y-76195000D03*
X101595000Y-73655000D03*
X101595000Y-76195000D03*
X99055000Y-73655000D03*
X99055000Y-76195000D03*
X96515000Y-73655000D03*
X96515000Y-76195000D03*
X93975000Y-73655000D03*
X93975000Y-76195000D03*
%TD*%
D14*
%TO.C,J7*%
X69210000Y-73655000D03*
D11*
X69210000Y-76195000D03*
X66670000Y-73655000D03*
X66670000Y-76195000D03*
X64130000Y-73655000D03*
X64130000Y-76195000D03*
X61590000Y-73655000D03*
X61590000Y-76195000D03*
X59050000Y-73655000D03*
X59050000Y-76195000D03*
X56510000Y-73655000D03*
X56510000Y-76195000D03*
X53970000Y-73655000D03*
X53970000Y-76195000D03*
%TD*%
D14*
%TO.C,J6*%
X69210000Y-59685000D03*
D11*
X69210000Y-62225000D03*
X66670000Y-59685000D03*
X66670000Y-62225000D03*
X64130000Y-59685000D03*
X64130000Y-62225000D03*
X61590000Y-59685000D03*
X61590000Y-62225000D03*
X59050000Y-59685000D03*
X59050000Y-62225000D03*
X56510000Y-59685000D03*
X56510000Y-62225000D03*
X53970000Y-59685000D03*
X53970000Y-62225000D03*
%TD*%
D14*
%TO.C,J5*%
X69210000Y-45715000D03*
D11*
X69210000Y-48255000D03*
X66670000Y-45715000D03*
X66670000Y-48255000D03*
X64130000Y-45715000D03*
X64130000Y-48255000D03*
X61590000Y-45715000D03*
X61590000Y-48255000D03*
X59050000Y-45715000D03*
X59050000Y-48255000D03*
X56510000Y-45715000D03*
X56510000Y-48255000D03*
X53970000Y-45715000D03*
X53970000Y-48255000D03*
%TD*%
D15*
%TO.C,C14*%
X93975000Y-134020000D03*
D16*
X93975000Y-136520000D03*
%TD*%
D17*
%TO.C,C4*%
X132710000Y-122131041D03*
D18*
X132710000Y-127131041D03*
%TD*%
D15*
%TO.C,C5*%
X103500000Y-134020000D03*
D16*
X103500000Y-136520000D03*
%TD*%
D19*
%TO.C,C15*%
X98782606Y-96388000D03*
D16*
X101282606Y-96388000D03*
%TD*%
D15*
%TO.C,C16*%
X113310000Y-107700000D03*
D16*
X113310000Y-110200000D03*
%TD*%
D14*
%TO.C,J2*%
X109215000Y-45715000D03*
D11*
X109215000Y-48255000D03*
X106675000Y-45715000D03*
X106675000Y-48255000D03*
X104135000Y-45715000D03*
X104135000Y-48255000D03*
X101595000Y-45715000D03*
X101595000Y-48255000D03*
X99055000Y-45715000D03*
X99055000Y-48255000D03*
X96515000Y-45715000D03*
X96515000Y-48255000D03*
X93975000Y-45715000D03*
X93975000Y-48255000D03*
%TD*%
D20*
%TO.C,LCD1*%
X80205000Y-102230000D03*
X80205000Y-99690000D03*
X80205000Y-97150000D03*
X80205000Y-94610000D03*
D21*
X80705000Y-110070000D03*
X104505000Y-110070000D03*
X80705000Y-86770000D03*
X104505000Y-86770000D03*
%TD*%
D22*
%TO.C,U2*%
X50795000Y-113112500D03*
D20*
X50795000Y-115652500D03*
X50795000Y-118192500D03*
X50795000Y-120732500D03*
X50795000Y-123272500D03*
X50795000Y-125812500D03*
X50795000Y-128352500D03*
X50795000Y-130892500D03*
X50795000Y-133432500D03*
X50795000Y-135972500D03*
D22*
X76195000Y-113112500D03*
D20*
X76195000Y-115652500D03*
X76195000Y-118192500D03*
X76195000Y-120732500D03*
X76195000Y-123272500D03*
X76195000Y-125812500D03*
X76195000Y-128352500D03*
X76195000Y-130892500D03*
X76195000Y-133432500D03*
X76195000Y-135972500D03*
%TD*%
D23*
%TO.C,J8*%
X135885000Y-76750000D03*
D24*
X135884999Y-74249999D03*
X135884999Y-71749999D03*
X135884999Y-69249999D03*
%TD*%
D23*
%TO.C,J9*%
X135995000Y-63435000D03*
D24*
X135994999Y-60934999D03*
X135994999Y-58434999D03*
X135994999Y-55934999D03*
%TD*%
D23*
%TO.C,J11*%
X129535000Y-92665000D03*
D24*
X129534999Y-90164999D03*
X129534999Y-87664999D03*
X129534999Y-85164999D03*
X129534999Y-82664999D03*
%TD*%
D23*
%TO.C,J12*%
X135995000Y-92625000D03*
D24*
X135994999Y-90124999D03*
X135994999Y-87624999D03*
X135994999Y-85124999D03*
X135994999Y-82624999D03*
%TD*%
M02*
